<?xml version="1.0" encoding="iso-8859-1"?>
<!-- Generator: Adobe Illustrator 19.0.0, SVG Export Plug-In . SVG Version: 6.00 Build 0)  -->
<svg xmlns="http://www.w3.org/2000/svg" xmlns:xlink="http://www.w3.org/1999/xlink" version="1.1" id="Layer_1" x="0px" y="0px" viewBox="0 0 511.998 511.998" style="enable-background:new 0 0 511.998 511.998;" xml:space="preserve">
<g>
	<g>
		<g>
			<path d="M134.82,206.244c1.272,0,2.564-0.324,3.744-1.006l103.885-59.979c3.588-2.072,4.817-6.66,2.746-10.248     c-2.073-3.589-6.661-4.815-10.248-2.746l-103.885,59.979C124.428,196.075,127.19,206.244,134.82,206.244z"/>
			<path d="M225.743,261.452c-2.071-3.589-6.661-4.816-10.248-2.746l-103.886,59.979c-3.588,2.072-4.817,6.66-2.746,10.248     c1.389,2.407,3.911,3.752,6.504,3.752c1.272,0,2.564-0.324,3.744-1.006L222.997,271.7     C226.585,269.628,227.815,265.04,225.743,261.452z"/>
			<path d="M241.953,289.53c-2.071-3.589-6.661-4.816-10.248-2.746l-103.886,59.978c-3.588,2.072-4.817,6.66-2.746,10.248     c1.389,2.407,3.911,3.752,6.504,3.752c1.272,0,2.564-0.324,3.744-1.006l103.886-59.978     C242.795,297.705,244.025,293.118,241.953,289.53z"/>
			<path d="M258.163,317.608c-2.072-3.588-6.662-4.816-10.248-2.746L144.03,374.842c-3.588,2.072-4.817,6.66-2.746,10.248     c1.39,2.407,3.911,3.752,6.504,3.752c1.272,0,2.564-0.324,3.744-1.006l103.885-59.979     C259.005,325.784,260.236,321.196,258.163,317.608z"/>
			<path d="M172.011,397.369c-9.773,5.645-13.135,18.19-7.492,27.965l1.08,1.869c3.646,6.316,10.443,10.238,17.74,10.238     c7.518,0,3.982,0.858,91.646-49.755c19.079-11.015,8.977-40.073-11.327-40.073c-3.577,0-7.112,0.949-10.223,2.745     L172.011,397.369z M263.659,362.619c3.578,0,4.779,2.794,5.827,4.608c1.508,2.613,0.616,5.956-2.001,7.467l-81.424,47.011     c-0.844,0.487-1.759,0.734-2.721,0.734c-1.953,0-3.774-1.048-4.747-2.737l-1.08-1.869c-1.507-2.61-0.608-5.961,2.001-7.469     l81.425-47.01C261.783,362.866,262.698,362.619,263.659,362.619z"/>
			<path d="M488.053,143.029c-73.316-126.99-68.351-120.267-72.634-121.415c-1.921-0.516-3.968-0.245-5.692,0.749     c-24.258,14.014-55.452,5.656-69.467-18.613c-2.073-3.589-6.661-4.815-10.248-2.746l-84.563,48.823     c-0.001,0-0.002,0.001-0.002,0.001l-32.753,18.909c-3.588,2.072-4.817,6.66-2.746,10.248c2.073,3.589,6.661,4.815,10.248,2.746     l26.258-15.16l42.387,73.414l-62.845,36.284c-0.003,0.002-0.006,0.004-0.009,0.006L73.349,264.401l-13.42-23.245     c24.541-18.158,33.378-51.138,21.203-79.135l117.559-67.873c3.588-2.071,4.817-6.66,2.746-10.248     c-2.073-3.588-6.662-4.816-10.248-2.746L67.502,152.566c-3.588,2.071-4.817,6.659-2.746,10.248     c14.02,24.283,5.668,55.447-18.614,69.466c-3.588,2.072-4.817,6.66-2.746,10.248l16.959,29.374l-12.307,7.106     c-3.588,2.072-4.817,6.66-2.746,10.248c14.02,24.283,5.669,55.446-18.613,69.466c-3.588,2.072-4.817,6.66-2.746,10.248     l68.08,117.92c0.994,1.723,2.634,2.98,4.555,3.495c1.92,0.517,3.97,0.247,5.692-0.749c24.496-14.141,55.555-5.482,69.468,18.613     c1.39,2.407,3.911,3.752,6.504,3.752c1.272,0,2.564-0.324,3.744-1.006L359.925,408.26c0.003-0.002,0.006-0.003,0.009-0.005     c0.509-0.294,84.732-48.896,85.208-49.241c3.082-2.223,4.045-6.464,2.101-9.83c-14.02-24.283-5.668-55.447,18.614-69.466     c3.588-2.072,4.817-6.66,2.746-10.248l-16.959-29.373l12.307-7.107c3.588-2.072,4.817-6.66,2.746-10.248     c-14.02-24.283-5.669-55.446,18.613-69.466C488.895,151.205,490.125,146.617,488.053,143.029z M452.068,270.843     c-24.538,18.153-33.379,51.133-21.202,79.134l-71.938,41.534l-81.419-141.019c-2.071-3.589-6.662-4.816-10.248-2.746     c-3.588,2.072-4.817,6.66-2.746,10.248l81.417,141.019l-165.326,95.452c-17.898-24.105-50.523-33.625-79.127-21.204     L40.477,367.597c24.541-18.159,33.377-51.138,21.203-79.133l165.319-95.448l24.726,42.825c2.073,3.588,6.662,4.816,10.248,2.746     c3.588-2.072,4.817-6.66,2.746-10.248l-24.726-42.825l62.84-36.28c0.001-0.001,9.097-5.252,9.098-5.253     c18.168,24.562,51.1,33.384,79.135,21.203l43.831,75.918c0.001,0.001,0.002,0.003,0.003,0.004L452.068,270.843z M450.318,223.536     l-6.179,3.567c-46.828-81.108-43.964-77.432-47.376-78.779c-3.985-1.556-6.347,0.558-9.939,2.284     c-20.529,9.831-44.232,4.67-59.017-11.012c-0.136,0-2.944-3.42-3.028-3.527c-3.995-5.125-5.531-10.974-12.161-9.434     c-1.437,0.332-1.371,0.414-10.786,5.85L259.447,59.07l71.938-41.532c18.365,24.833,51.542,33.206,79.135,21.203l61.001,105.661     C446.98,162.56,438.143,195.54,450.318,223.536z"/>
		</g>
	</g>
</g>
<g>
</g>
<g>
</g>
<g>
</g>
<g>
</g>
<g>
</g>
<g>
</g>
<g>
</g>
<g>
</g>
<g>
</g>
<g>
</g>
<g>
</g>
<g>
</g>
<g>
</g>
<g>
</g>
<g>
</g>
</svg>
