<?xml version="1.0" encoding="iso-8859-1"?>
<!-- Generator: Adobe Illustrator 19.0.0, SVG Export Plug-In . SVG Version: 6.00 Build 0)  -->
<svg xmlns="http://www.w3.org/2000/svg" xmlns:xlink="http://www.w3.org/1999/xlink" version="1.1" id="Layer_1" x="0px" y="0px" viewBox="0 0 512.001 512.001" style="enable-background:new 0 0 512.001 512.001;" xml:space="preserve">
<g>
	<g>
		<path d="M451.551,215.976c-1.787-5.707-5.689-10.376-10.988-13.148l-59.92-31.35l27.023-51.652    c2.773-5.298,3.316-11.36,1.529-17.066c-1.786-5.708-5.689-10.377-10.988-13.149L231.821,2.561    c-10.961-5.738-24.48-1.509-30.217,9.456L61.976,278.901c-5.735,10.964-1.508,24.48,9.459,30.216l59.919,31.348l-27.026,51.656    c-5.72,10.938-1.477,24.493,9.461,30.214c181.347,94.878,169.095,89.615,176.742,89.613c8.009,0,15.829-4.311,19.861-12.021    l139.629-266.884C452.794,227.743,453.337,221.682,451.551,215.976z M436.707,226.075    c-149.06,284.911-139.655,269.153-143.952,270.499c-4.156,1.299,7.697,6.458-172-87.556c-3.596-1.881-4.991-6.338-3.111-9.935    l27.025-51.654c102.499,53.625,96.88,52.298,106.264,51.112c7.406-0.912,13.701-5.32,17.107-11.832l82.561-157.807    c1.923-3.677,0.502-8.217-3.175-10.14c-3.677-1.924-8.218-0.504-10.14,3.175l-82.562,157.808    c-1.888,3.607-6.328,4.993-9.935,3.109C65.097,288.842,76.09,295.637,74.788,291.48c-1.343-4.293-8.951,12.458,140.13-272.496    c1.888-3.61,6.338-4.992,9.935-3.109l166.392,87.051c1.741,0.912,3.023,2.446,3.61,4.322c0.588,1.877,0.409,3.87-0.503,5.613    l-45.887,87.707c-1.923,3.677-0.502,8.217,3.175,10.14c3.677,1.923,8.216,0.504,10.14-3.175l11.897-22.739l59.92,31.35    c1.742,0.912,3.025,2.446,3.611,4.323C437.797,222.343,437.619,224.334,436.707,226.075z"/>
	</g>
</g>
<g>
</g>
<g>
</g>
<g>
</g>
<g>
</g>
<g>
</g>
<g>
</g>
<g>
</g>
<g>
</g>
<g>
</g>
<g>
</g>
<g>
</g>
<g>
</g>
<g>
</g>
<g>
</g>
<g>
</g>
</svg>
