<?xml version="1.0" encoding="iso-8859-1"?>
<!-- Generator: Adobe Illustrator 19.0.0, SVG Export Plug-In . SVG Version: 6.00 Build 0)  -->
<svg xmlns="http://www.w3.org/2000/svg" xmlns:xlink="http://www.w3.org/1999/xlink" version="1.1" id="Layer_1" x="0px" y="0px" viewBox="0 0 512 512" style="enable-background:new 0 0 512 512;" xml:space="preserve">
<g>
	<g>
		<g>
			<path d="M492.523,305.375H477c-4.143,0-7.5,3.357-7.5,7.5s3.357,7.5,7.5,7.5h15.523c2.469,0,4.477,2.008,4.477,4.477v99.902     c0,2.469-2.008,4.477-4.477,4.477H346.334V324.852c0-2.469,2.007-4.477,4.475-4.477h100.524c4.143,0,7.5-3.357,7.5-7.5     s-3.357-7.5-7.5-7.5c-108.586,0-101.737-0.231-104.999,0.539v-88.846c0-10.738-8.737-19.475-19.477-19.475H185.143     c-10.739,0-19.477,8.736-19.477,19.475v39.612c-3.26-0.771,7.242-0.54-146.191-0.54C8.736,256.141,0,264.878,0,275.617v149.137     c0,10.739,8.736,19.477,19.475,19.477h21.858c4.142,0,7.5-3.357,7.5-7.5s-3.358-7.5-7.5-7.5H19.475     c-2.467,0-4.475-2.008-4.475-4.477V275.617c0-2.469,2.007-4.477,4.475-4.477H161.19c2.468,0,4.477,2.008,4.477,4.477V429.23     H65.668c-4.142,0-7.5,3.357-7.5,7.5s3.358,7.5,7.5,7.5h107.498h165.668h153.689c10.739,0,19.477-8.737,19.477-19.477v-99.902     C512,314.112,503.263,305.375,492.523,305.375z M331.335,429.23H180.666c0-16.052,0-204.507,0-212.162     c0-2.468,2.008-4.475,4.477-4.475h141.715c2.469,0,4.477,2.007,4.477,4.475C331.335,223.088,331.335,426.039,331.335,429.23z"/>
			<path d="M256,159.615c11.014,0,19.975-8.961,19.975-19.975V87.746c0-11.015-8.961-19.977-19.975-19.977     c-11.014,0-19.975,8.962-19.975,19.977v51.895C236.025,150.654,244.986,159.615,256,159.615z M251.025,87.746     c0-2.744,2.231-4.977,4.975-4.977c2.743,0,4.975,2.232,4.975,4.977v51.895c0,2.743-2.231,4.975-4.975,4.975     c-2.743,0-4.975-2.231-4.975-4.975V87.746z"/>
			<path d="M65.883,220.494c11.014,0,19.975-8.961,19.975-19.974v-51.897c0-11.015-8.96-19.977-19.975-19.977     s-19.976,8.962-19.976,19.977v51.897C45.906,211.533,54.868,220.494,65.883,220.494z M60.906,148.623     c0-2.744,2.232-4.977,4.976-4.977c2.743,0,4.975,2.232,4.975,4.977v51.897c0,2.743-2.231,4.974-4.975,4.974     c-2.744,0-4.976-2.231-4.976-4.974V148.623z"/>
			<path d="M114.783,220.494c11.014,0,19.975-8.961,19.975-19.974v-51.897c0-11.015-8.96-19.977-19.975-19.977     c-11.015,0-19.975,8.962-19.975,19.977v51.897C94.809,211.533,103.769,220.494,114.783,220.494z M109.809,148.623     c0-2.744,2.231-4.977,4.975-4.977c2.743,0,4.975,2.232,4.975,4.977v51.897c0,2.743-2.231,4.974-4.975,4.974     c-2.743,0-4.975-2.231-4.975-4.974V148.623z"/>
			<path d="M382.412,266.234c11.014,0,19.975-8.961,19.975-19.975v-51.895c0-11.014-8.961-19.975-19.975-19.975     c-11.015,0-19.977,8.961-19.977,19.975v51.895C362.435,257.273,371.397,266.234,382.412,266.234z M377.435,194.365     c0-2.743,2.233-4.975,4.977-4.975c2.743,0,4.975,2.231,4.975,4.975v51.895c0,2.743-2.231,4.975-4.975,4.975     c-2.744,0-4.977-2.231-4.977-4.975V194.365z"/>
			<path d="M430.648,266.234c11.014,0,19.975-8.961,19.975-19.975v-51.895c0-11.014-8.961-19.975-19.975-19.975     c-11.014,0-19.975,8.961-19.975,19.975v51.895C410.674,257.273,419.635,266.234,430.648,266.234z M425.674,194.365     c0-2.743,2.232-4.975,4.975-4.975c2.743,0,4.975,2.231,4.975,4.975v51.895c0,2.743-2.231,4.975-4.975,4.975     c-2.743,0-4.975-2.231-4.975-4.975V194.365z"/>
			<path d="M478.885,266.234c11.014,0,19.975-8.961,19.975-19.975v-51.895c0-11.014-8.961-19.975-19.975-19.975     c-11.014,0-19.975,8.961-19.975,19.975v51.895C458.91,257.273,467.871,266.234,478.885,266.234z M473.91,194.365     c0-2.743,2.231-4.975,4.975-4.975c2.743,0,4.975,2.231,4.975,4.975v51.895c0,2.743-2.231,4.975-4.975,4.975     c-2.743,0-4.975-2.231-4.975-4.975V194.365z"/>
		</g>
	</g>
</g>
<g>
</g>
<g>
</g>
<g>
</g>
<g>
</g>
<g>
</g>
<g>
</g>
<g>
</g>
<g>
</g>
<g>
</g>
<g>
</g>
<g>
</g>
<g>
</g>
<g>
</g>
<g>
</g>
<g>
</g>
</svg>
