<?xml version="1.0" encoding="iso-8859-1"?>
<!-- Generator: Adobe Illustrator 19.0.0, SVG Export Plug-In . SVG Version: 6.00 Build 0)  -->
<svg xmlns="http://www.w3.org/2000/svg" xmlns:xlink="http://www.w3.org/1999/xlink" version="1.1" id="Layer_1" x="0px" y="0px" viewBox="0 0 511.999 511.999" style="enable-background:new 0 0 511.999 511.999;" xml:space="preserve">
<g>
	<g>
		<path d="M223.125,172.658H93.234c-11.594,0-21.024,9.431-21.024,21.022v164.537c0,11.593,9.432,21.024,21.024,21.024h129.891    c11.594,0,21.024-9.432,21.024-21.024V193.68C244.149,182.089,234.717,172.658,223.125,172.658z M229.148,358.217    c0,3.32-2.702,6.023-6.023,6.023H93.234c-3.321,0-6.023-2.702-6.023-6.023V193.68c0-3.32,2.702-6.021,6.023-6.021h129.891    c3.321,0,6.023,2.701,6.023,6.021V358.217z"/>
	</g>
</g>
<g>
	<g>
		<path d="M432.292,215.486c4.143,0,7.5-3.357,7.5-7.5V193.68c0-11.592-9.432-21.022-21.023-21.022H288.875    c-11.594,0-21.024,9.431-21.024,21.022v164.537c0,11.593,9.431,21.024,21.024,21.024h129.895c11.592,0,21.023-9.432,21.023-21.024    V234.311c0-4.143-3.357-7.5-7.5-7.5s-7.5,3.357-7.5,7.5v123.906c0,3.32-2.701,6.023-6.022,6.023H288.875    c-3.321,0-6.023-2.702-6.023-6.023V193.68c0-3.32,2.702-6.021,6.023-6.021h129.895c3.32,0,6.022,2.701,6.022,6.021v14.305    C424.792,212.128,428.149,215.486,432.292,215.486z"/>
	</g>
</g>
<g>
	<g>
		<path d="M466.635,103.959h-85.002L370.76,69.316c-0.981-3.126-3.879-5.254-7.156-5.254H148.396c-3.277,0-6.175,2.128-7.156,5.254    l-10.873,34.643H45.366C20.351,103.959,0,124.309,0,149.323v253.25c0,25.015,20.351,45.365,45.366,45.365h35.513    c4.143,0,7.5-3.358,7.5-7.5c0-4.143-3.357-7.5-7.5-7.5H45.366c-16.743,0-30.365-13.621-30.365-30.364v-253.25    c0-16.742,13.622-30.363,30.365-30.363h421.27c16.742,0,30.363,13.621,30.363,30.363v253.25c0,16.743-13.621,30.364-30.363,30.364    H107.214c-4.143,0-7.5,3.357-7.5,7.5c0,4.142,3.357,7.5,7.5,7.5h359.422c25.015,0,45.364-20.351,45.364-45.365v-253.25    C512,124.309,491.65,103.959,466.635,103.959z M146.089,103.959l7.814-24.897h204.194l7.813,24.897H146.089z"/>
	</g>
</g>
<g>
	<g>
		<path d="M466.635,135.857H45.366c-7.426,0-13.468,6.04-13.468,13.466v253.25c0,7.425,6.041,13.467,13.468,13.467h421.27    c7.425,0,13.466-6.04,13.466-13.466V149.323C480.101,141.897,474.061,135.857,466.635,135.857z M465.1,401.039H46.899v-250.18    H465.1V401.039z"/>
	</g>
</g>
<g>
	<g>
		<path d="M192.21,304.071h-50.263c0.81-2.669,2.226-5.113,4.252-7.339c2.023-2.223,4.302-4.308,6.833-6.254    c2.529-1.945,5.137-3.669,7.819-5.17c2.681-1.501,5.087-2.807,7.213-3.92c9.046-4.965,15.813-9.864,20.196-19.181    c1.519-3.223,2.278-6.893,2.278-11.008c0-3.89-0.71-7.531-2.126-10.925c-1.419-3.391-3.469-6.309-6.149-8.757    c-2.684-2.444-5.974-4.362-9.871-5.754c-3.898-1.39-8.276-2.085-13.136-2.085c-14.84,0-29.306,7.584-36.14,15.845l10.63,13.511    c1.112-1.444,2.377-2.945,3.796-4.504c1.416-1.556,3.061-2.973,4.936-4.253c1.871-1.276,3.947-2.334,6.225-3.168    c2.277-0.834,4.783-1.251,7.517-1.251c5.263,0,9.287,1.417,12.072,4.253c2.783,2.835,4.176,6.032,4.176,9.591    c0,2.559-0.709,4.811-2.126,6.754c-1.419,1.947-3.317,3.781-5.694,5.504c-2.379,1.725-5.139,3.477-8.276,5.254    c-3.139,1.779-6.479,3.727-10.022,5.837c-4.961,3.002-9.012,6.088-12.147,9.257c-3.14,3.169-5.619,6.505-7.441,10.008    c-1.822,3.503-3.088,7.255-3.795,11.259c-0.71,4.003-1.063,8.339-1.063,13.01h70.307v-16.512H192.21z"/>
	</g>
</g>
<g>
	<g>
		<path d="M363.465,304.071v-78.725h-17.159c-1.19,3.064-16.364,15.845-24.599,15.845v17.18c7.508,0,20.878-7.055,24.599-12.51    v58.21h-21.562v0v16.512h58.008v-16.512H363.465z"/>
	</g>
</g>
<g>
</g>
<g>
</g>
<g>
</g>
<g>
</g>
<g>
</g>
<g>
</g>
<g>
</g>
<g>
</g>
<g>
</g>
<g>
</g>
<g>
</g>
<g>
</g>
<g>
</g>
<g>
</g>
<g>
</g>
</svg>
