<?xml version="1.0" encoding="iso-8859-1"?>
<!-- Generator: Adobe Illustrator 19.0.0, SVG Export Plug-In . SVG Version: 6.00 Build 0)  -->
<svg xmlns="http://www.w3.org/2000/svg" xmlns:xlink="http://www.w3.org/1999/xlink" version="1.1" id="Layer_1" x="0px" y="0px" viewBox="0 0 512.002 512.002" style="enable-background:new 0 0 512.002 512.002;" xml:space="preserve">
<g>
	<g>
		<path d="M421.549,63.793H317.757l-8.023-32.958c-5.267-21.634-27.149-34.952-48.788-29.684L80.918,44.978    c-10.48,2.552-19.34,9.031-24.947,18.247c-5.606,9.214-7.289,20.062-4.737,30.541l20.938,86.004    c0.97,3.987,4.989,6.435,8.979,5.463c3.988-0.971,6.434-4.991,5.463-8.979L65.676,90.25c-1.612-6.623-0.549-13.476,2.994-19.299    c3.543-5.822,9.141-9.917,15.763-11.529l180.029-43.827c13.669-3.326,27.501,5.086,30.829,18.758l7.167,29.441h-66.197    c-22.267,0-40.381,18.116-40.381,40.381v358.817l-12.461,3.033c-13.672,3.326-27.501-5.086-30.829-18.757L95.078,211.023    c-0.971-3.987-4.991-6.436-8.979-5.463c-3.989,0.971-6.434,4.991-5.463,8.979l57.513,236.245    c5.268,21.639,27.157,34.951,48.787,29.684l9.482-2.308c3.135,19.167,19.805,33.842,39.844,33.842h72.9c0.001,0,0.002,0,0.002,0    h112.385c22.267,0,40.381-18.115,40.381-40.381v-35.09c0-4.104-3.327-7.432-7.432-7.432c-4.105,0-7.432,3.327-7.432,7.432v35.09    c0,14.07-11.447,25.518-25.517,25.518h-94.443l25.135-25.134c2.902-2.902,2.902-7.608,0-10.51s-7.607-2.902-10.511,0    l-35.645,35.645h-69.822c-14.07,0-25.517-11.447-25.517-25.518V447.35l125.145-125.144c2.902-2.902,2.902-7.608,0-10.51    c-2.903-2.902-7.608-2.902-10.511,0L210.746,426.329V104.174c0-14.07,11.447-25.517,25.517-25.517H421.55    c3.357,0,6.562,0.658,9.501,1.841l-42.911,42.912c-2.902,2.902-2.902,7.608,0,10.51c2.903,2.902,7.608,2.903,10.511,0    l44.032-44.032c2.766,4.079,4.384,8.996,4.384,14.285v118.857l-35.642,35.642c-2.902,2.902-2.902,7.608,0,10.51    c2.903,2.902,7.608,2.903,10.511,0l25.131-25.131v90.858l-72.473,72.473c-2.902,2.902-2.902,7.608,0,10.51    c2.903,2.902,7.608,2.902,10.511,0l61.962-61.962v56.808c-0.002,4.105,3.325,7.432,7.43,7.432s7.432-3.327,7.432-7.432V226.116    c0-0.004,0-0.008,0-0.013V104.174C461.93,81.908,443.815,63.793,421.549,63.793z"/>
	</g>
</g>
<g>
	<g>
		<path d="M356.039,103.922c-2.902-2.902-7.607-2.903-10.511,0L218.686,230.764c-2.903,2.902-2.903,7.608,0,10.51    c2.902,2.902,7.608,2.902,10.51,0l126.842-126.842C358.941,111.529,358.941,106.823,356.039,103.922z"/>
	</g>
</g>
<g>
	<g>
		<path d="M366.814,199.259c-2.902-2.903-7.607-2.903-10.511,0l-40.505,40.504c-2.902,2.902-2.902,7.608,0,10.51    c1.452,1.452,3.354,2.177,5.256,2.177c1.901,0,3.804-0.726,5.255-2.177l40.505-40.504    C369.717,206.867,369.717,202.161,366.814,199.259z"/>
	</g>
</g>
<g>
</g>
<g>
</g>
<g>
</g>
<g>
</g>
<g>
</g>
<g>
</g>
<g>
</g>
<g>
</g>
<g>
</g>
<g>
</g>
<g>
</g>
<g>
</g>
<g>
</g>
<g>
</g>
<g>
</g>
</svg>
