<?xml version="1.0" encoding="iso-8859-1"?>
<!-- Generator: Adobe Illustrator 19.0.0, SVG Export Plug-In . SVG Version: 6.00 Build 0)  -->
<svg xmlns="http://www.w3.org/2000/svg" xmlns:xlink="http://www.w3.org/1999/xlink" version="1.1" id="Layer_1" x="0px" y="0px" viewBox="0 0 512 512" style="enable-background:new 0 0 512 512;" xml:space="preserve">
<g>
	<g>
		<g>
			<path d="M450.73,171.644h-17.677c-4.142,0-7.499,3.357-7.499,7.499s3.357,7.499,7.499,7.499h17.677     c25.515,0,46.272,20.757,46.272,46.27c0,25.515-20.758,46.272-46.272,46.272H338.513c-2.248,0-4.377,1.009-5.801,2.747     c-4.18,5.102,0.941,8.218,0.941,31.296c0,69.801-56.787,126.587-126.587,126.587S80.48,383.026,80.48,313.226     c0-69.125,54.103-124.669,123.184-126.498c7.168,0,84.059-0.088,91.228-0.088v21.171c0,18.669,15.188,33.858,33.855,33.858     s33.856-15.189,33.856-33.858V186.64h45.449c4.142,0,7.499-3.357,7.499-7.499c0-4.142-3.357-7.499-7.499-7.499     c-59.61,0-190.002,0.088-204.486,0.088c-0.064,0-0.129,0.001-0.192,0.003c-37.042,0.951-71.713,16.089-97.628,42.623     C84.02,236.6,70.47,264.814,66.62,295.206C40.368,272.895,0,291.726,0,326.039c0,37.35,46.563,54.684,71.029,26.464     c17.068,59.024,71.591,102.308,136.038,102.308c85.121,0,151.828-75.195,140.304-160.629H450.73     c33.784,0,61.27-27.486,61.27-61.27C512,199.129,484.514,171.644,450.73,171.644z M309.891,186.728h37.717v21.083h-0.001     c0,10.4-8.46,18.86-18.858,18.86c-10.397,0-18.857-8.461-18.857-18.86V186.728z M40.461,351.502     c-14.04,0-25.463-11.423-25.463-25.463c0-14.042,11.423-25.465,25.463-25.465c14.041,0,25.464,11.423,25.464,25.465     C65.926,340.078,54.502,351.502,40.461,351.502z"/>
			<path d="M237.364,235.573c3.85,1.521,8.208-0.371,9.728-4.224c1.521-3.852-0.371-8.207-4.224-9.728     c-64.559-25.473-134.559,22.408-134.559,91.604c0,54.281,44.161,98.443,98.442,98.443c54.281,0,98.442-44.162,98.442-98.443     c0-30.853-14.055-59.334-38.559-78.14c-3.29-2.523-7.993-1.901-10.516,1.384c-2.521,3.286-1.902,7.993,1.384,10.515     c20.776,15.944,32.692,40.089,32.692,66.242c0,46.012-37.434,83.445-83.444,83.445c-46.011,0-83.444-37.433-83.444-83.445     C123.306,254.661,182.578,213.962,237.364,235.573z"/>
			<path d="M328.829,140.763c4.142,0,7.499-3.357,7.499-7.499V64.688c0-4.142-3.357-7.499-7.499-7.499     c-4.141,0-7.499,3.357-7.499,7.499v68.576C321.33,137.405,324.687,140.763,328.829,140.763z"/>
			<path d="M370.564,146.714c1.143,0.627,2.379,0.924,3.596,0.924c2.651,0,5.22-1.408,6.583-3.897l32.948-60.141     c1.99-3.632,0.659-8.19-2.974-10.18c-3.635-1.993-8.19-0.659-10.18,2.974l-32.948,60.141     C365.601,140.167,366.932,144.725,370.564,146.714z"/>
			<path d="M276.756,143.74c1.363,2.489,3.932,3.897,6.583,3.897c1.218,0,2.453-0.297,3.596-0.924     c3.632-1.99,4.963-6.547,2.974-10.18l-32.949-60.141c-1.989-3.633-6.547-4.966-10.18-2.974c-3.632,1.99-4.963,6.547-2.974,10.18     L276.756,143.74z"/>
		</g>
	</g>
</g>
<g>
</g>
<g>
</g>
<g>
</g>
<g>
</g>
<g>
</g>
<g>
</g>
<g>
</g>
<g>
</g>
<g>
</g>
<g>
</g>
<g>
</g>
<g>
</g>
<g>
</g>
<g>
</g>
<g>
</g>
</svg>
