<?xml version="1.0" encoding="iso-8859-1"?>
<!-- Generator: Adobe Illustrator 19.0.0, SVG Export Plug-In . SVG Version: 6.00 Build 0)  -->
<svg xmlns="http://www.w3.org/2000/svg" xmlns:xlink="http://www.w3.org/1999/xlink" version="1.1" id="Layer_1" x="0px" y="0px" viewBox="0 0 511.998 511.998" style="enable-background:new 0 0 511.998 511.998;" xml:space="preserve">
<g>
	<g>
		<path d="M473.283,168.798c-4.071-2.995-9.323-3.299-13.707-0.794c-4.362,2.492-6.85,7.337-6.339,12.346    c0.891,8.726-1.312,16.09-6.546,21.886c-8.367,9.264-24.359,14.366-45.033,14.366c-4.688,0-9.194-0.128-13.394-0.38    c-0.001,0-0.002,0-0.003,0c-21.39-1.322-37.929-6.245-51.236-15.312c7.167-5.812,15.21-14.825,16.771-26.773    c1.512-11.58-3.358-23.091-14.477-34.209c-2.5-2.499-6.417-2.89-9.359-0.927l-32.976,21.984    c-20.128,6.85-74.226,29.499-82.977,33.035c-3.798,1.535-5.634,5.859-4.099,9.657s5.859,5.633,9.656,4.099    c8.611-3.479,54.507-22.696,77.145-30.955c0.052,0.094,0.106,0.185,0.158,0.278c0.143,0.255,0.288,0.506,0.432,0.759    c0.385,0.678,0.773,1.35,1.164,2.015c0.175,0.297,0.351,0.593,0.528,0.888c0.397,0.662,0.799,1.315,1.203,1.964    c0.147,0.236,0.293,0.475,0.441,0.709c0.522,0.825,1.048,1.641,1.581,2.442l-12.818,4.93l-0.893-1.369    c-2.237-3.434-6.834-4.401-10.265-2.164c-3.002,1.955-4.118,5.715-2.857,8.922l-19.459,7.484l-0.834-1.279    c-2.237-3.432-6.833-4.401-10.265-2.164c-2.97,1.936-4.091,5.637-2.89,8.823l-19.484,7.493l-0.775-1.188    c-2.237-3.433-6.832-4.401-10.265-2.164c-2.939,1.916-4.064,5.56-2.924,8.722l-19.531,7.512l-0.688-1.055    c-2.237-3.432-6.832-4.4-10.265-2.164c-2.894,1.885-4.027,5.446-2.974,8.575l-12.663,4.87c-0.01,0.004-0.054,0.021-0.107,0.041    c-0.011,0.004-0.022,0.008-0.035,0.013c-0.065,0.024-0.154,0.058-0.262,0.098c-0.02,0.007-0.042,0.016-0.063,0.023    c-0.119,0.044-0.258,0.095-0.42,0.153c-0.02,0.007-0.044,0.016-0.064,0.023c-0.148,0.053-0.315,0.113-0.495,0.176    c-0.045,0.016-0.089,0.032-0.136,0.048c-0.197,0.069-0.415,0.145-0.646,0.224c-0.062,0.021-0.128,0.044-0.192,0.066    c-0.25,0.085-0.513,0.174-0.797,0.269c-0.03,0.01-0.064,0.021-0.094,0.031c-0.244,0.081-0.507,0.167-0.774,0.254l-1.478-2.269    c-2.237-3.433-6.832-4.401-10.265-2.164c-2.8,1.824-3.958,5.218-3.078,8.27c-0.425,0.082-0.85,0.163-1.281,0.24    c-0.09,0.016-0.18,0.032-0.271,0.048c-0.579,0.102-1.163,0.2-1.75,0.292c-0.082,0.013-0.165,0.025-0.248,0.038    c-1.216,0.189-2.45,0.355-3.691,0.494c-0.089,0.01-0.178,0.021-0.268,0.03c-0.602,0.065-1.206,0.124-1.81,0.175    c-0.089,0.007-0.177,0.014-0.265,0.021c-1.25,0.101-2.502,0.17-3.748,0.201c-0.082,0.002-0.164,0.005-0.245,0.006    c-0.602,0.013-1.202,0.015-1.799,0.009c-0.094-0.001-0.188-0.003-0.282-0.004c-0.612-0.01-1.22-0.028-1.825-0.06    c-0.018-0.001-0.036-0.002-0.055-0.003c-0.597-0.032-1.19-0.077-1.777-0.131c-0.073-0.007-0.146-0.013-0.218-0.02    c-0.578-0.057-1.15-0.126-1.716-0.206c-0.095-0.014-0.189-0.028-0.284-0.042c-0.572-0.085-1.138-0.181-1.694-0.292    c-0.043-0.008-0.085-0.019-0.127-0.027c-0.543-0.11-1.078-0.235-1.605-0.372c-0.06-0.016-0.122-0.03-0.182-0.046    c-0.531-0.141-1.052-0.298-1.564-0.468c-0.091-0.03-0.181-0.061-0.271-0.091c-0.51-0.175-1.011-0.362-1.5-0.566    c-0.056-0.024-0.111-0.05-0.167-0.074c-0.473-0.203-0.936-0.419-1.387-0.651c-0.033-0.017-0.068-0.033-0.101-0.05    c27.455-7.511,54.037-15.962,79.185-25.178c3.846-1.409,5.823-5.671,4.412-9.517c-1.409-3.847-5.672-5.822-9.517-4.413    c-28.402,10.408-58.681,19.83-89.997,28.006H97.41c-13.3,3.465-27.065,6.781-40.915,9.86C19.539,250.335,0.003,271.338,0,302.861    c0,0,0,0.001,0,0.002v0.001c0,0,0,0.001,0,0.002c0,0.002,0,0.004,0,0.005c0.01,20.468,35.117,32.984,59.838,38.042v16.268    c0,9.408,7.654,17.061,17.061,17.061c9.407,0,17.061-7.653,17.061-17.061v-13.105h27.694v13.105    c0,9.408,7.654,17.061,17.061,17.061s17.061-7.653,17.061-17.061v-13.105h27.694v13.105c0,9.408,7.654,17.061,17.061,17.061    s17.061-7.653,17.061-17.061v-13.686c8.58-1.496,14.43-5.667,20.909-9.642c7.885-4.833,5.045-3.624,101.468-3.624    c2.757,0,5.477,0.46,8.09,1.369c2.585,0.898,5.003,2.228,7.184,3.951c4.971,3.936,10.842,6.598,17.021,7.798v13.833    c0,9.408,7.654,17.061,17.061,17.061s17.061-7.653,17.061-17.061v-13.105h13.102v13.105c0,9.408,7.654,17.061,17.061,17.061    c9.407,0,17.061-7.653,17.061-17.061v-13.105h4.362c22.134,0,40.243-17.542,41.169-39.452    c2.572-5.602,10.965-25.513,12.586-50.038c0-0.001,0-0.001,0-0.002C514.107,218.722,500.814,189.057,473.283,168.798z     M457.699,212.179c7.032-7.786,10.639-17.566,10.562-28.507c16.65,13.61,26.156,31.232,28.392,52.581    c-0.145-0.11-0.292-0.211-0.438-0.319c-0.296-0.22-0.593-0.437-0.891-0.649c-0.26-0.186-0.52-0.367-0.781-0.547    c-0.299-0.207-0.599-0.411-0.9-0.61c-0.261-0.173-0.523-0.343-0.785-0.511c-0.301-0.193-0.603-0.382-0.905-0.568    c-0.264-0.162-0.528-0.321-0.793-0.477c-0.302-0.179-0.604-0.354-0.907-0.525c-0.267-0.15-0.534-0.298-0.801-0.443    c-0.303-0.165-0.606-0.325-0.91-0.482c-0.269-0.139-0.538-0.275-0.807-0.408c-0.304-0.15-0.608-0.297-0.913-0.44    c-0.272-0.127-0.543-0.252-0.816-0.374c-0.304-0.136-0.608-0.268-0.913-0.396c-0.274-0.116-0.548-0.229-0.822-0.338    c-0.305-0.122-0.61-0.24-0.915-0.355c-0.276-0.104-0.552-0.205-0.828-0.303c-0.306-0.108-0.612-0.212-0.919-0.313    c-0.277-0.091-0.554-0.18-0.831-0.266c-0.307-0.095-0.615-0.185-0.922-0.272c-0.278-0.079-0.556-0.156-0.835-0.229    c-0.308-0.081-0.616-0.157-0.924-0.23c-0.279-0.066-0.558-0.131-0.838-0.192c-0.309-0.067-0.618-0.129-0.928-0.188    c-0.28-0.054-0.56-0.107-0.84-0.155c-0.31-0.053-0.62-0.101-0.93-0.147c-0.281-0.042-0.562-0.082-0.843-0.118    c-0.31-0.039-0.62-0.073-0.93-0.105c-0.282-0.029-0.564-0.057-0.846-0.08c-0.311-0.025-0.622-0.045-0.933-0.063    c-0.282-0.017-0.565-0.032-0.847-0.042c-0.31-0.011-0.621-0.017-0.931-0.021c-0.177-0.002-0.353-0.012-0.529-0.012    c-0.117,0-0.233,0.006-0.35,0.007c-0.255,0.002-0.51,0.009-0.766,0.016c-0.316,0.009-0.632,0.021-0.948,0.037    c-0.256,0.013-0.511,0.029-0.767,0.047c-0.317,0.022-0.634,0.05-0.951,0.08c-0.255,0.024-0.509,0.049-0.764,0.079    c-0.319,0.037-0.639,0.079-0.958,0.124c-0.252,0.035-0.504,0.069-0.755,0.109c-0.326,0.052-0.652,0.111-0.979,0.17    c-0.244,0.044-0.488,0.087-0.732,0.136c-0.341,0.068-0.681,0.146-1.021,0.224c-0.23,0.052-0.459,0.101-0.689,0.157    c-0.375,0.092-0.75,0.195-1.125,0.297c-0.194,0.053-0.389,0.102-0.583,0.158c-0.568,0.164-1.135,0.34-1.703,0.529    c-1.301,0.434-2.57,0.84-3.822,1.232c-0.342,0.107-0.68,0.21-1.018,0.315c-0.998,0.307-1.979,0.601-2.946,0.88    c-0.265,0.077-0.534,0.158-0.797,0.232c-1.19,0.339-2.358,0.658-3.503,0.955c-0.227,0.059-0.447,0.112-0.672,0.169    c-0.933,0.237-1.849,0.46-2.752,0.669c-0.304,0.071-0.608,0.141-0.909,0.208c-1.02,0.229-2.024,0.442-3.006,0.634    c-0.07,0.014-0.143,0.03-0.213,0.043c-1.045,0.202-2.062,0.376-3.065,0.535c-0.27,0.043-0.535,0.081-0.801,0.121    c-0.782,0.117-1.55,0.22-2.306,0.311c-0.236,0.028-0.476,0.06-0.71,0.085c-0.945,0.104-1.871,0.189-2.777,0.251    c-0.164,0.011-0.323,0.016-0.486,0.026c-0.751,0.045-1.486,0.075-2.211,0.091c-0.251,0.005-0.502,0.01-0.75,0.012    c-0.748,0.006-1.482-0.002-2.203-0.029c-0.115-0.004-0.233-0.003-0.347-0.009c-0.82-0.036-1.618-0.097-2.403-0.176    c-0.208-0.021-0.412-0.047-0.618-0.071c-0.61-0.07-1.21-0.154-1.798-0.251c-0.196-0.032-0.394-0.062-0.588-0.097    c-0.743-0.135-1.471-0.287-2.182-0.464c-0.095-0.024-0.186-0.053-0.28-0.078c-0.621-0.162-1.227-0.341-1.824-0.536    c-0.188-0.062-0.374-0.125-0.56-0.189c-0.576-0.201-1.142-0.417-1.694-0.649c-0.1-0.042-0.202-0.079-0.301-0.122    c-0.646-0.28-1.274-0.586-1.891-0.911c-0.042-0.022-0.082-0.046-0.124-0.068C429.205,230.629,446.994,224.033,457.699,212.179z     M332.859,154.896c4.845,6.064,6.936,11.872,6.224,17.318c-1.092,8.358-8.36,15.057-13.685,18.917    c-0.141-0.144-0.283-0.284-0.423-0.429c-0.63-0.655-1.25-1.328-1.866-2.011c-0.274-0.304-0.552-0.601-0.824-0.91    c-0.881-1.005-1.749-2.031-2.595-3.091c-0.765-0.955-1.515-1.948-2.261-2.959c-0.19-0.258-0.38-0.519-0.57-0.781    c-0.706-0.977-1.404-1.971-2.091-2.996c-0.037-0.056-0.075-0.108-0.112-0.164c-0.718-1.076-1.422-2.186-2.119-3.313    c-0.177-0.287-0.353-0.575-0.528-0.865c-0.638-1.052-1.268-2.121-1.887-3.215c-0.048-0.084-0.097-0.166-0.144-0.25    L332.859,154.896z M79.125,357.182c0,1.227-0.999,2.225-2.225,2.225s-2.225-0.999-2.225-2.225v-13.908    c0.116,0.013,0.226,0.02,0.342,0.033c1.365,0.15,2.713,0.283,4.029,0.389c0.026,0.002,0.053,0.005,0.079,0.007V357.182z     M140.941,357.182c0,2.942-4.451,2.939-4.451,0v-13.105h4.451V357.182z M202.757,357.182c0,2.942-4.451,2.939-4.451,0v-13.105    h4.451V357.182z M391.551,357.182c0,2.942-4.451,2.939-4.451,0v-13.105h4.451V357.182z M438.775,357.182    c0,2.942-4.451,2.939-4.451,0v-13.105h4.451V357.182z M486.95,295.445H231.935c-4.096,0-7.418,3.322-7.418,7.418    s3.322,7.418,7.418,7.418h1.436c0.026,0,0.051,0.004,0.077,0.004h249.84c-3.214,10.944-13.347,18.956-25.316,18.956h-78.244    c-5.517,0-10.942-1.89-15.281-5.327c-3.492-2.758-7.368-4.888-11.517-6.328c-4.179-1.454-8.541-2.192-12.961-2.192h-88.62    c-21.12,0-25.026,13.847-40.641,13.847h-0.534H88.026c-0.444-0.001-0.886,0-1.357-0.009c-0.669-0.011-1.351-0.031-2.048-0.059    c-3.482-0.139-7.3-0.483-11.289-1.015c-1.595-0.212-3.218-0.455-4.856-0.727c-21.278-3.547-39.195-10.702-47.927-17.148    l179.711-0.004c0.026,0,0,0,0.026,0c4.096,0,7.418-3.322,7.418-7.418c0-4.097-3.322-7.418-7.418-7.418H15.352    c2.875-19.881,17.763-32.93,44.363-38.841c12.23-2.717,24.397-5.621,36.246-8.646c0.091,0.117,0.187,0.226,0.279,0.341    c0.188,0.235,0.377,0.469,0.57,0.696c0.128,0.15,0.258,0.295,0.387,0.442c0.19,0.215,0.38,0.428,0.575,0.636    c0.135,0.145,0.272,0.286,0.409,0.427c0.196,0.202,0.394,0.401,0.594,0.596c0.139,0.135,0.279,0.269,0.419,0.4    c0.206,0.193,0.414,0.382,0.624,0.569c0.14,0.124,0.28,0.248,0.421,0.369c0.219,0.188,0.441,0.37,0.665,0.55    c0.137,0.11,0.273,0.222,0.412,0.33c0.24,0.187,0.483,0.368,0.727,0.547c0.127,0.093,0.253,0.188,0.381,0.279    c0.278,0.198,0.561,0.389,0.845,0.577c0.097,0.064,0.193,0.132,0.291,0.195c0.782,0.507,1.582,0.979,2.401,1.415    c0.04,0.021,0.081,0.041,0.122,0.063c0.365,0.193,0.733,0.38,1.104,0.56c0.102,0.049,0.206,0.096,0.309,0.144    c0.313,0.148,0.627,0.293,0.944,0.432c0.124,0.055,0.25,0.106,0.375,0.16c0.3,0.127,0.601,0.252,0.905,0.372    c0.133,0.052,0.266,0.103,0.4,0.154c0.3,0.114,0.601,0.226,0.905,0.333c0.136,0.048,0.273,0.096,0.409,0.142    c0.306,0.105,0.614,0.206,0.924,0.303c0.133,0.042,0.267,0.084,0.4,0.125c0.322,0.098,0.646,0.191,0.97,0.282    c0.121,0.034,0.242,0.068,0.363,0.101c0.351,0.095,0.705,0.185,1.059,0.271c0.096,0.023,0.192,0.048,0.289,0.071    c0.41,0.097,0.823,0.188,1.237,0.275c0.041,0.009,0.082,0.019,0.124,0.027c1.409,0.291,2.838,0.521,4.278,0.696    c0.032,0.004,0.065,0.007,0.097,0.011c0.436,0.052,0.873,0.1,1.311,0.142c0.082,0.008,0.164,0.015,0.245,0.022    c0.392,0.036,0.784,0.069,1.176,0.098c0.101,0.007,0.202,0.014,0.304,0.021c0.376,0.025,0.752,0.049,1.129,0.068    c0.108,0.005,0.216,0.01,0.323,0.016c0.374,0.017,0.749,0.031,1.124,0.042c0.105,0.003,0.21,0.006,0.315,0.009    c0.385,0.01,0.77,0.016,1.154,0.019c0.091,0.001,0.183,0.002,0.274,0.002c0.122,0.001,0.244,0.003,0.366,0.003    c0.187,0,0.373-0.005,0.56-0.006c0.259-0.002,0.518-0.005,0.777-0.009c0.286-0.005,0.572-0.011,0.857-0.02    c0.257-0.007,0.513-0.017,0.769-0.027c0.283-0.011,0.567-0.021,0.85-0.035c0.263-0.013,0.525-0.029,0.787-0.044    c0.482-0.028,0.963-0.06,1.442-0.096c0.283-0.021,0.567-0.041,0.849-0.064c0.282-0.024,0.563-0.051,0.844-0.078    c0.249-0.023,0.498-0.046,0.746-0.071c0.285-0.029,0.568-0.06,0.851-0.091c0.244-0.027,0.487-0.055,0.729-0.083    c0.28-0.033,0.56-0.067,0.839-0.102c0.245-0.031,0.488-0.063,0.732-0.096c0.273-0.037,0.546-0.072,0.816-0.111    c0.258-0.037,0.514-0.076,0.77-0.114c0.463-0.069,0.923-0.141,1.379-0.215c0.253-0.041,0.507-0.082,0.758-0.125    c0.27-0.046,0.537-0.093,0.804-0.141c0.226-0.04,0.452-0.08,0.677-0.121c0.267-0.049,0.531-0.099,0.795-0.149    c0.225-0.043,0.448-0.086,0.67-0.13c0.258-0.051,0.516-0.102,0.771-0.153c0.221-0.045,0.439-0.091,0.657-0.136    c0.252-0.053,0.505-0.105,0.754-0.159c0.223-0.048,0.443-0.098,0.664-0.146c0.445-0.098,0.883-0.198,1.316-0.299    c0.163-0.038,0.328-0.075,0.49-0.113l6.135,9.413c2.237,3.432,6.831,4.401,10.265,2.164c3.433-2.237,4.401-6.833,2.164-10.266    l-3.753-5.76c0.023-0.008,0.043-0.016,0.065-0.024c0.058-0.022,0.118-0.044,0.172-0.064c0.076-0.029,0.145-0.055,0.213-0.081    c0.057-0.022,0.11-0.042,0.161-0.062c0.051-0.02,0.099-0.038,0.144-0.056c0.045-0.017,0.083-0.032,0.121-0.047    c0.043-0.017,0.084-0.033,0.118-0.046c0.058-0.023,0.105-0.042,0.14-0.055l15.302-5.885l6.355,9.751    c2.237,3.432,6.831,4.401,10.265,2.164c3.433-2.236,4.401-6.832,2.164-10.265l-4.624-7.096l19.336-7.436l6.267,9.617    c2.237,3.432,6.831,4.401,10.265,2.164c3.433-2.237,4.401-6.832,2.164-10.265l-4.537-6.961l19.313-7.428l6.208,9.526    c2.235,3.431,6.831,4.402,10.264,2.164c3.433-2.237,4.401-6.832,2.164-10.265l-4.478-6.871l19.313-7.428l6.149,9.436    c1.421,2.182,3.797,3.369,6.221,3.369c1.388,0,2.793-0.39,4.043-1.204c3.433-2.236,4.401-6.832,2.164-10.265l-4.419-6.78    l13.957-5.368c0.656,0.737,1.32,1.459,1.991,2.171c0.057,0.06,0.115,0.118,0.172,0.178c0.805,0.848,1.621,1.67,2.446,2.479    c0.219,0.215,0.439,0.429,0.659,0.641c0.883,0.849,1.772,1.683,2.675,2.485c0,0,0.001,0,0.001,0.001    c0.002,0.001,0.003,0.003,0.005,0.004c0.003,0.002,0.006,0.004,0.009,0.007c16.365,14.553,36.799,22.431,64.082,24.655    c0.276,0.381,0.562,0.733,0.842,1.101c0.275,0.361,0.547,0.731,0.826,1.08c0.356,0.443,0.72,0.86,1.083,1.282    c0.276,0.321,0.547,0.654,0.827,0.963c0.384,0.425,0.776,0.823,1.167,1.227c0.269,0.278,0.534,0.569,0.806,0.837    c0.433,0.425,0.875,0.822,1.316,1.222c0.24,0.218,0.474,0.45,0.716,0.661c0.618,0.538,1.245,1.046,1.877,1.537    c0.072,0.056,0.141,0.119,0.212,0.173c0.707,0.542,1.423,1.056,2.149,1.542c0.227,0.153,0.46,0.287,0.688,0.434    c0.502,0.323,1.004,0.648,1.513,0.947c0.29,0.169,0.586,0.319,0.878,0.481c0.457,0.253,0.912,0.51,1.373,0.744    c0.319,0.162,0.644,0.304,0.966,0.457c0.443,0.209,0.885,0.424,1.333,0.618c0.339,0.146,0.683,0.275,1.024,0.413    c0.438,0.176,0.876,0.355,1.318,0.517c0.354,0.128,0.712,0.242,1.068,0.361c0.438,0.146,0.875,0.296,1.316,0.429    c0.365,0.109,0.734,0.206,1.101,0.306c0.44,0.12,0.879,0.242,1.322,0.349c0.374,0.09,0.751,0.169,1.127,0.251    c0.444,0.096,0.887,0.192,1.333,0.276c0.381,0.071,0.765,0.133,1.148,0.196c0.447,0.073,0.894,0.146,1.344,0.208    c0.388,0.053,0.778,0.098,1.169,0.143c0.451,0.052,0.903,0.102,1.356,0.143c0.393,0.036,0.787,0.064,1.182,0.091    c0.456,0.032,0.913,0.061,1.37,0.083c0.397,0.018,0.795,0.031,1.193,0.042c0.461,0.013,0.923,0.022,1.385,0.025    c0.4,0.002,0.8,0,1.201-0.005c0.466-0.005,0.932-0.015,1.398-0.03c0.403-0.013,0.806-0.029,1.209-0.049    c0.47-0.022,0.941-0.05,1.412-0.082c0.403-0.027,0.807-0.057,1.211-0.09c0.477-0.04,0.954-0.084,1.431-0.132    c0.402-0.04,0.803-0.082,1.206-0.127c0.483-0.055,0.966-0.116,1.449-0.179c0.401-0.052,0.802-0.104,1.204-0.163    c0.488-0.07,0.976-0.146,1.464-0.224c0.399-0.063,0.797-0.126,1.196-0.194c0.495-0.084,0.99-0.175,1.485-0.267    c0.394-0.073,0.788-0.145,1.182-0.222c0.502-0.099,1.005-0.204,1.507-0.309c0.389-0.082,0.777-0.161,1.165-0.247    c0.51-0.112,1.02-0.23,1.53-0.349c0.381-0.088,0.762-0.174,1.143-0.266c0.518-0.125,1.036-0.256,1.552-0.387    c0.375-0.094,0.75-0.187,1.124-0.284c0.525-0.137,1.05-0.28,1.573-0.422c0.365-0.099,0.731-0.196,1.096-0.297    c0.547-0.152,1.093-0.311,1.639-0.468c0.34-0.098,0.68-0.193,1.019-0.293c0.572-0.168,1.142-0.342,1.711-0.516    c0.316-0.096,0.633-0.189,0.948-0.287c0.638-0.197,1.273-0.399,1.908-0.602c0.242-0.077,0.485-0.152,0.726-0.23    c0.88-0.283,1.756-0.571,2.63-0.862c0.738-0.246,1.475-0.456,2.212-0.638c0.045-0.011,0.09-0.025,0.135-0.036    c0.708-0.171,1.415-0.309,2.122-0.421c0.073-0.012,0.147-0.026,0.22-0.037c0.689-0.104,1.376-0.176,2.064-0.224    c0.09-0.006,0.179-0.014,0.269-0.02c0.677-0.04,1.353-0.051,2.03-0.037c0.099,0.002,0.197,0.003,0.296,0.007    c0.671,0.021,1.341,0.071,2.011,0.146c0.101,0.011,0.203,0.023,0.304,0.036c0.67,0.083,1.339,0.191,2.008,0.327    c0.097,0.02,0.195,0.042,0.292,0.063c0.674,0.145,1.347,0.314,2.021,0.514c0.088,0.026,0.175,0.054,0.263,0.081    c0.684,0.209,1.367,0.443,2.05,0.708c0.069,0.027,0.139,0.057,0.208,0.084c0.702,0.278,1.403,0.582,2.103,0.92    c0.04,0.019,0.08,0.041,0.12,0.06c0.728,0.354,1.454,0.737,2.179,1.154c0.002,0,0.003,0.001,0.005,0.002    c0.721,0.415,1.439,0.866,2.158,1.342c0.049,0.032,0.098,0.063,0.146,0.095c0.688,0.462,1.375,0.957,2.061,1.475    c0.077,0.058,0.154,0.114,0.231,0.173c0.668,0.511,1.333,1.054,1.999,1.619c0.094,0.079,0.187,0.157,0.281,0.238    c0.654,0.563,1.306,1.156,1.957,1.77c0.103,0.098,0.207,0.195,0.31,0.294c0.646,0.619,1.289,1.263,1.932,1.933    c0.107,0.111,0.213,0.223,0.32,0.335c0.643,0.678,1.284,1.38,1.924,2.11c0.045,0.052,0.09,0.104,0.136,0.156    C495.089,273.915,489.782,288.609,486.95,295.445z"/>
	</g>
</g>
<g>
</g>
<g>
</g>
<g>
</g>
<g>
</g>
<g>
</g>
<g>
</g>
<g>
</g>
<g>
</g>
<g>
</g>
<g>
</g>
<g>
</g>
<g>
</g>
<g>
</g>
<g>
</g>
<g>
</g>
</svg>
