<?xml version="1.0" encoding="iso-8859-1"?>
<!-- Generator: Adobe Illustrator 19.0.0, SVG Export Plug-In . SVG Version: 6.00 Build 0)  -->
<svg xmlns="http://www.w3.org/2000/svg" xmlns:xlink="http://www.w3.org/1999/xlink" version="1.1" id="Layer_1" x="0px" y="0px" viewBox="0 0 512.001 512.001" style="enable-background:new 0 0 512.001 512.001;" xml:space="preserve">
<g>
	<g>
		<g>
			<path d="M391.424,329.111V222.848c0-4.158-3.369-7.528-7.528-7.528c-4.158,0-7.528,3.369-7.528,7.528v106.421     c-20.987,1.937-39.948,10.998-54.44,24.726c-0.138,0.131-4.801,4.715-4.801,4.899c-5.465,6.001-10.18,12.761-13.938,20.173     c-5.811,0-119.613,0-124.37,0c-8.329,0-15.105-6.775-15.105-15.103v-13.599c0-2.292-1.045-4.46-2.837-5.888L61.122,265.01     c-5.922-4.914-9.583-11.84-10.309-19.506c-2.423-25.541,27.397-41.371,47.198-25.01c0.141,0.117,53.439,41.169,53.584,41.282     c4.939,3.804,12.122,0.275,12.122-5.963V64.736c0-11.545,9.391-20.937,20.933-20.937c11.546,0,20.939,9.392,20.939,20.937     v132.325c0,4.158,3.37,7.528,7.528,7.528s7.528-3.369,7.528-7.528V35.992c-0.001-11.545,9.389-20.937,20.932-20.937     c11.545,0,20.937,9.392,20.937,20.937v161.068h0.001c0,4.158,3.369,7.528,7.528,7.528c4.158,0,7.528-3.37,7.528-7.528V73.724     c0-11.543,9.392-20.934,20.935-20.934c11.545,0,20.937,9.39,20.937,20.934v123.337c0,4.158,3.37,7.528,7.528,7.528     s7.528-3.37,7.528-7.528v-58.918c0-11.545,9.392-20.937,20.935-20.937c11.545,0,20.937,9.392,20.937,20.937v60.289     c0,4.158,3.37,7.528,7.528,7.528s7.528-3.37,7.528-7.528v-60.289c0-19.845-16.146-35.992-35.992-35.992     c-7.801,0-15.033,2.496-20.935,6.731v-4.466V73.724c0-19.844-16.146-35.989-35.992-35.989c-7.801,0-15.034,2.496-20.935,6.73     v-8.472C277.569,16.147,261.423,0,241.576,0c-19.673,0-35.708,15.869-35.985,35.478c-5.904-4.238-13.138-6.735-20.943-6.735     c-19.844,0-35.989,16.147-35.989,35.992v175.776l-41.165-31.71c-18.681-15.343-46.371-12.683-61.788,5.96     c-15.481,18.726-12.862,46.414,5.873,61.894c0.034,0.028,0.069,0.057,0.104,0.085l96.975,77.251v9.972     c0,11.989,7.034,22.364,17.191,27.223c-3.77,5.035-6.004,11.281-6.004,18.041v51.55c0,16.631,13.529,30.161,30.157,30.161h15.568     c4.158,0,7.528-3.369,7.528-7.528c0-4.158-3.369-7.528-7.528-7.528h-15.568c-8.327,0-15.101-6.776-15.101-15.105v-51.55     c0-8.329,6.774-15.105,15.101-15.105h107.162c-7.883,26.159-3.946,56.983,14.911,81.76h-81.416c-4.158,0-7.528,3.37-7.528,7.528     c0,4.158,3.37,7.528,7.528,7.528h95.918c59.356,49.131,149.811,6.858,149.811-70.531     C476.387,372.144,438.841,332.491,391.424,329.111z M330.823,474.479c-2.936-2.936-5.784-6.287-8.46-10.067     c-1.334-1.898-2.445-3.574-3.89-6.103c-1.197-2.093-2.234-4.083-3.444-6.764c-1.251-2.8-2.021-4.908-2.824-7.286     c-0.854-2.601-1.57-5.25-2.102-7.723c-6.203-28.62,4.5-58.616,28.372-76.884c0.845-0.644,1.477-1.1,2.278-1.669     c50.221-35.459,120.579,0.274,120.579,62.423C461.332,488.271,378.918,522.513,330.823,474.479z"/>
			<path d="M361.383,428.317h9.815v1.686c-8.715,10.85-21.071,8.05-24.754-2.989c-2.485-7.454-0.466-17.951,6.652-21.724     c5.479-2.909,13.843-0.862,17.248,6.475l8.678-7.049c-3.299-6.919-10.262-11.878-20.201-11.878     c-14.135,0-25.18,12.01-25.18,27.204c0,16.909,11.211,27.969,24.256,27.969c5.026,0,9.46-1.916,13.301-5.747v5.364h9.673v-28.428     h-19.488V428.317z"/>
			<polygon points="431.801,393.222 418.713,393.222 400.219,416.67 400.219,393.222 388.554,393.222 388.554,447.628      400.219,447.628 400.219,431.612 405.482,425.712 419.779,447.628 433.08,447.628 412.881,417.513    "/>
		</g>
	</g>
</g>
<g>
</g>
<g>
</g>
<g>
</g>
<g>
</g>
<g>
</g>
<g>
</g>
<g>
</g>
<g>
</g>
<g>
</g>
<g>
</g>
<g>
</g>
<g>
</g>
<g>
</g>
<g>
</g>
<g>
</g>
</svg>
