<?xml version="1.0" encoding="iso-8859-1"?>
<!-- Generator: Adobe Illustrator 19.0.0, SVG Export Plug-In . SVG Version: 6.00 Build 0)  -->
<svg xmlns="http://www.w3.org/2000/svg" xmlns:xlink="http://www.w3.org/1999/xlink" version="1.1" id="Layer_1" x="0px" y="0px" viewBox="0 0 512 512" style="enable-background:new 0 0 512 512;" xml:space="preserve">
<g>
	<g>
		<g>
			<path d="M511.736,193.861c-0.115-0.759-0.267-1.507-0.452-2.241c-1.303-5.141-4.317-9.634-8.644-12.82L372.402,82.876     c-7.872-5.8-13.264-4.481-39.548-4.481v-8.773c0-11.828-9.622-21.451-21.45-21.451h-6.642c-4.144,0-7.503,3.359-7.503,7.503     s3.358,7.503,7.503,7.503h6.642c3.554,0,6.445,2.892,6.445,6.446v8.773H194.136v-8.773c0-3.554,2.893-6.446,6.447-6.446h76.84     c4.144,0,7.503-3.359,7.503-7.503s-3.358-7.503-7.503-7.503h-76.84c-11.829,0-21.452,9.623-21.452,21.451v8.773     c-25.404,0-31.572-1.388-39.546,4.481L9.347,178.799c-10.207,7.517-12.394,21.937-4.877,32.144l38.777,52.647     c3.642,4.945,8.99,8.176,15.062,9.097c6.07,0.924,12.139-0.577,17.082-4.219l56.856-41.876v215.786     c0,11.828,9.623,21.451,21.452,21.451h27.122c4.144,0,7.503-3.358,7.503-7.503c0-4.144-3.358-7.503-7.503-7.503H153.7     c-3.555,0-6.447-2.892-6.447-6.446V211.749c0-6.153-7.021-9.677-11.951-6.041c-74.606,54.949-70.235,52.828-74.74,52.144     c-2.109-0.32-3.966-1.441-5.231-3.16l-26.787-36.37l127.334-93.828c9.545-7.033,11.578-20.449,4.544-29.995l-0.81-1.099     c8.81,0,185.256,0,192.766,0c-8.656,11.756-5.007,24.653,3.733,31.095l127.334,93.828l-26.787,36.37     c-1.266,1.718-3.122,2.839-5.232,3.159c-2.105,0.319-4.214-0.201-5.933-1.466l-68.806-50.678     c-4.956-3.647-11.952-0.091-11.952,6.041v230.629c0,3.555-2.892,6.446-6.445,6.446H205.727c-4.144,0-7.503,3.358-7.503,7.503     c0,4.144,3.358,7.503,7.503,7.503h152.561c11.828,0,21.45-9.623,21.45-21.451V226.592l56.855,41.873     c4.944,3.644,11.011,5.145,17.083,4.22c6.071-0.921,11.42-4.151,15.062-9.097l38.776-52.646     C511.158,205.999,512.656,199.932,511.736,193.861z M146.975,112.415L19.644,206.241l-3.091-4.196     c-2.611-3.546-1.853-8.554,1.693-11.164l126.112-92.885l3.982,5.405C150.455,106.268,149.844,110.3,146.975,112.415z      M495.432,202.046l-3.091,4.196l-127.33-93.827c-2.861-2.109-3.473-6.152-1.364-9.014l3.981-5.404l126.113,92.885     c1.718,1.264,2.839,3.122,3.158,5.231C497.219,198.221,496.699,200.328,495.432,202.046z"/>
			<path d="M185.031,276.605v16.077h57.12v-16.077H223.16v-76.65h-16.897c-1.176,2.983-16.12,15.427-24.222,15.427v16.727     c7.486,0,20.605-6.939,24.222-12.18v56.676H185.031z"/>
			<path d="M253.363,245.101c0,48.173,43.547,63.394,65.568,35.32c22.563-28.768,9.29-84.689-27.288-84.689     C268.713,195.732,253.363,218.043,253.363,245.101z M291.642,277.742c-29.346,0-29.151-65.445,0-65.445     C320.389,212.297,320.519,277.742,291.642,277.742z"/>
			<path d="M344.877,160.896c2.047-3.603,0.784-8.183-2.818-10.229c-53.172-30.202-118.875-30.248-172.13,0     c-3.603,2.047-4.865,6.626-2.818,10.229c2.048,3.603,6.629,4.865,10.23,2.818c48.581-27.595,108.654-27.638,157.308,0     C338.254,165.763,342.832,164.498,344.877,160.896z"/>
		</g>
	</g>
</g>
<g>
</g>
<g>
</g>
<g>
</g>
<g>
</g>
<g>
</g>
<g>
</g>
<g>
</g>
<g>
</g>
<g>
</g>
<g>
</g>
<g>
</g>
<g>
</g>
<g>
</g>
<g>
</g>
<g>
</g>
</svg>
