<?xml version="1.0" encoding="iso-8859-1"?>
<!-- Generator: Adobe Illustrator 19.0.0, SVG Export Plug-In . SVG Version: 6.00 Build 0)  -->
<svg xmlns="http://www.w3.org/2000/svg" xmlns:xlink="http://www.w3.org/1999/xlink" version="1.1" id="Layer_1" x="0px" y="0px" viewBox="0 0 512 512" style="enable-background:new 0 0 512 512;" xml:space="preserve">
<g>
	<g>
		<path d="M377.315,163.23v-4.09c0-11.88-8.016-21.916-18.922-25.003c-4.16-18.668-13.304-35.757-26.675-49.692    c-13.167-13.719-29.553-23.493-47.688-28.499v-11.26h3.021c4.189,0,7.584-3.394,7.584-7.584c0-4.189-3.394-7.584-7.584-7.584    h-3.021v-3.535C284.03,11.656,272.374,0,258.045,0h-4.09c-14.328,0-25.984,11.656-25.984,25.983v3.535h-4.556    c-4.189,0-7.584,3.394-7.584,7.584c0,4.189,3.394,7.584,7.584,7.584h4.556v11.261c-18.136,5.005-34.522,14.779-47.688,28.499    c-13.371,13.934-22.515,31.024-26.676,49.692c-10.904,3.085-18.921,13.122-18.921,25.003v4.09c0,11.692,7.762,21.6,18.402,24.852    v25.975c-6.675,4.708-11.046,12.471-11.046,21.242v88.94c0,7.183,2.929,13.692,7.656,18.4c-4.727,4.708-7.656,11.22-7.656,18.402    v88.94c0,12.109,8.325,22.307,19.552,25.176v10.86c0,14.328,11.656,25.983,25.986,25.983h137.498    c14.329,0,25.986-11.656,25.986-25.983v-10.86c11.226-2.87,19.55-13.068,19.55-25.176v-88.94c0-7.183-2.93-13.694-7.656-18.402    c4.727-4.708,7.656-11.218,7.656-18.4v-54.41c0-4.189-3.395-7.584-7.584-7.584c-4.189,0-7.584,3.394-7.584,7.584v54.41    c0,5.964-4.853,10.816-10.816,10.816H168.027c-5.965,0-10.818-4.852-10.818-10.816V235.3c0-5.965,4.854-10.818,10.818-10.818    h176.6c5.964,0,10.816,4.854,10.816,10.818v9.246c0,4.189,3.394,7.584,7.584,7.584c4.188,0,7.584-3.394,7.584-7.584V235.3    c0-8.771-4.37-16.533-11.044-21.241v-26.192C369.869,184.413,377.315,174.678,377.315,163.23z M157.21,361.041    c0-5.965,4.854-10.818,10.818-10.818h176.6c5.964,0,10.816,4.854,10.816,10.818v88.94c0,5.964-4.853,10.816-10.816,10.816H217.893    c-4.189,0-7.584,3.395-7.584,7.584c0,4.189,3.394,7.584,7.584,7.584h118.002v10.052c0,5.964-4.854,10.816-10.818,10.816H187.579    c-5.965,0-10.818-4.852-10.818-10.816v-10.052h14.843c4.189,0,7.584-3.394,7.584-7.584c0-4.188-3.394-7.584-7.584-7.584h-23.575    c-5.965,0-10.818-4.853-10.818-10.816V361.041z M243.136,25.983c0-5.964,4.853-10.816,10.817-10.816h4.09    c5.965,0,10.818,4.852,10.818,10.816v3.535h-25.726V25.983z M237.139,69.311c3.498-0.747,5.998-3.838,5.998-7.416v-17.21h25.726    v17.209c0,3.577,2.501,6.669,5.998,7.416c32.613,6.973,58.838,32.086,67.667,63.843H169.472    C178.3,101.397,204.526,76.284,237.139,69.311z M344.401,209.314H168.255v-20.101h176.146V209.314z M351.33,174.046H160.671    h-0.002c-5.965,0-10.816-4.853-10.816-10.816v-4.09c0-5.793,4.578-10.522,10.305-10.793c0.045,0,0.087,0.004,0.13,0.003    c0.157-0.006,0.313-0.015,0.517-0.028h190.391c0.172,0.012,0.344,0.022,0.517,0.028c0.091,0.003,0.182,0.005,0.273,0.005    c0.001,0,0.002,0,0.003,0c5.658,0.344,10.16,5.042,10.16,10.785v4.09C362.148,169.193,357.295,174.046,351.33,174.046z"/>
	</g>
</g>
<g>
</g>
<g>
</g>
<g>
</g>
<g>
</g>
<g>
</g>
<g>
</g>
<g>
</g>
<g>
</g>
<g>
</g>
<g>
</g>
<g>
</g>
<g>
</g>
<g>
</g>
<g>
</g>
<g>
</g>
</svg>
