<?xml version="1.0" encoding="iso-8859-1"?>
<!-- Generator: Adobe Illustrator 19.0.0, SVG Export Plug-In . SVG Version: 6.00 Build 0)  -->
<svg xmlns="http://www.w3.org/2000/svg" xmlns:xlink="http://www.w3.org/1999/xlink" version="1.1" id="Layer_1" x="0px" y="0px" viewBox="0 0 512 512" style="enable-background:new 0 0 512 512;" xml:space="preserve">
<g>
	<g>
		<g>
			<path d="M478.33,69.217c-0.131-2.221-1.24-4.269-3.028-5.591c-1.789-1.321-4.071-1.783-6.233-1.256     c-16.477,4.011-33.41,6.045-50.332,6.045c-57.82,0-112.299-22.935-157.543-66.328c-2.902-2.783-7.48-2.783-10.384,0     C205.564,45.48,151.086,68.415,93.265,68.415c-16.923,0-33.857-2.034-50.33-6.045c-2.161-0.526-4.444-0.067-6.232,1.256     c-1.788,1.322-2.898,3.369-3.029,5.59c-0.635,10.769-0.957,21.608-0.957,32.218c0,178.608,87.412,337.261,219.685,409.645     c1.122,0.614,2.361,0.921,3.601,0.921c1.239,0,2.479-0.307,3.601-0.921c57.619-31.531,108.088-80.531,145.947-141.701     c38.411-62.061,62.91-135.31,70.847-211.829c0.428-4.12-2.566-7.806-6.686-8.234c-4.113-0.427-7.807,2.566-8.234,6.687     c-15.268,147.194-93.856,277.008-205.474,339.918C116.831,417.53,41.017,247.229,48.2,78.908     c14.833,2.994,29.952,4.509,45.065,4.509c31.123,0,61.625-6.312,90.659-18.76C209.841,53.545,234.058,37.79,256,17.771     c21.941,20.017,46.158,35.773,72.074,46.886c44.818,19.214,91.808,23.114,135.725,14.251c0.321,7.559,0.483,15.105,0.483,22.526     c0,9.271-0.244,18.639-0.728,27.845c-0.216,4.137,2.961,7.667,7.098,7.883c4.139,0.261,7.667-2.96,7.883-7.097     c0.496-9.467,0.748-19.099,0.748-28.63C479.285,90.838,478.964,79.998,478.33,69.217z"/>
			<path d="M260.91,200.484c-2.818-2.439-7.002-2.439-9.821,0l-41.433,35.882c-2.527,2.189-3.301,5.786-1.895,8.82l20.717,44.753     c1.228,2.652,3.884,4.35,6.806,4.35h41.432c2.92,0,5.577-1.697,6.804-4.35l20.717-44.753c1.405-3.034,0.632-6.631-1.895-8.82     L260.91,200.484z M271.923,279.289h-31.846l-16.332-35.279L256,216.077l32.255,27.933L271.923,279.289z"/>
			<path d="M370.558,246.668c-0.052-1.532-0.129-3.009-0.225-4.365c-0.075-1-0.113-1.758-0.371-4.148     c-0.14-1.298-0.308-2.614-0.486-3.875c-0.142-1-0.311-2.216-0.707-4.389c-0.237-1.294-0.472-2.433-0.678-3.398     c-0.369-1.733-0.861-3.785-1.085-4.629c-0.293-1.139-0.508-1.896-0.79-2.896c-4.688-16.411-13.181-30.296-15.915-33.551     c-14.114-20.385-34.657-35.99-58.676-43.864c-0.089-0.032-0.171-0.076-0.262-0.105c-0.303-0.098-0.608-0.18-0.912-0.275     c-0.835-0.264-1.676-0.518-2.52-0.763c-0.625-0.181-1.251-0.354-1.879-0.524c-0.825-0.225-1.653-0.441-2.486-0.647     c-0.446-0.11-0.892-0.223-1.339-0.327c-1.16-0.273-2.327-0.528-3.501-0.766c-0.359-0.072-0.721-0.139-1.081-0.207     c-1.035-0.199-2.074-0.384-3.118-0.554c-0.279-0.046-0.558-0.096-0.837-0.14c-1.259-0.195-2.525-0.367-3.797-0.521     c-0.32-0.039-0.641-0.074-0.962-0.11c-1.203-0.136-2.41-0.256-3.624-0.355c-0.126-0.01-0.253-0.023-0.38-0.033     c-1.311-0.102-2.631-0.174-3.954-0.231c-0.318-0.014-0.637-0.025-0.955-0.036c-1.334-0.047-2.672-0.078-4.017-0.078     c-1.345,0-2.683,0.031-4.017,0.078c-0.318,0.011-0.637,0.023-0.955,0.036c-1.323,0.058-2.643,0.13-3.954,0.231     c-0.127,0.01-0.254,0.023-0.38,0.033c-1.214,0.099-2.421,0.219-3.624,0.355c-0.321,0.036-0.642,0.071-0.962,0.11     c-1.271,0.154-2.538,0.326-3.797,0.521c-0.279,0.044-0.558,0.094-0.837,0.14c-1.044,0.17-2.083,0.354-3.118,0.554     c-0.36,0.068-0.722,0.135-1.081,0.207c-1.174,0.237-2.341,0.492-3.501,0.766c-0.447,0.105-0.893,0.217-1.339,0.327     c-0.833,0.206-1.661,0.423-2.486,0.647c-0.628,0.17-1.254,0.344-1.879,0.524c-0.844,0.245-1.685,0.499-2.52,0.763     c-0.304,0.096-0.609,0.178-0.912,0.275c-0.091,0.029-0.173,0.073-0.262,0.105c-24.016,7.872-44.559,23.476-58.672,43.859     c-0.16,0.19-0.322,0.38-0.465,0.588c-6.992,10.252-12.283,21.638-15.538,33.261c-0.354,1.252-0.525,1.902-0.742,2.746     c-0.511,1.996-0.995,4.158-1.367,6.014c-0.307,1.546-0.573,2.998-0.843,4.73c-0.137,0.877-0.391,2.685-0.561,4.102     c-0.193,1.626-0.363,3.295-0.485,4.903c-0.07,0.941-0.164,2.529-0.221,3.876c-0.064,1.621-0.11,3.255-0.11,4.874     c0,1.54,0.046,3.335,0.106,4.749c0.066,1.611,0.166,3.243,0.215,3.846c0.102,1.373,0.247,2.92,0.459,4.741     c0.139,1.194,0.409,3.22,0.488,3.748c3.425,21.515,11.963,40.127,25.083,55.957c0.136,0.197,0.268,0.396,0.424,0.583     c16.758,19.974,39.473,33.481,64.684,38.648c0.05,0.011,0.1,0.021,0.149,0.031c0.793,0.162,1.59,0.315,2.388,0.459     c0.172,0.031,0.344,0.064,0.516,0.096c0.669,0.118,1.34,0.228,2.013,0.334c0.288,0.046,0.575,0.095,0.864,0.139     c0.541,0.082,1.086,0.154,1.629,0.228c0.408,0.056,0.814,0.115,1.225,0.167c0.035,0.005,0.071,0.011,0.108,0.015     c0.015,0.002,0.029,0.001,0.045,0.003c4.664,0.58,9.414,0.883,14.233,0.883c9.02,0,17.657-1.032,26.38-3.058     c0.229-0.054,2.463-0.619,3.589-0.925c1-0.271,2.01-0.526,4.674-1.372c1.554-0.497,3.261-1.072,4.806-1.641     c0.899-0.332,2.688-1.025,4.017-1.572c1-0.411,2.243-0.921,4.414-1.924c1.348-0.622,2.978-1.41,4.428-2.155     c0.933-0.479,2.456-1.299,3.705-2.003c1.138-0.637,2.199-1.245,3.938-2.316c1.052-0.646,2.439-1.531,3.697-2.375     c0.976-0.653,2.204-1.511,3.225-2.242c11.484-8.253,20.482-18.374,22.034-20.776c12.651-15.533,21.32-34.428,24.438-55.118     l0.078-0.564c0.196-1.35,0.384-2.849,0.52-4.081c0.19-1.746,0.33-3.389,0.369-4.01c0.112-1.514,0.197-3.235,0.243-4.635     C370.654,251.472,370.652,249.516,370.558,246.668z M242.589,151.782c0.786-0.105,1.573-0.202,2.362-0.29     c0.23-0.025,0.458-0.055,0.688-0.078c1.043-0.107,2.089-0.198,3.136-0.273c0.206-0.015,0.414-0.025,0.62-0.039     c0.9-0.059,1.803-0.107,2.705-0.141c0.215-0.009,0.429-0.018,0.644-0.025c2.169-0.069,4.341-0.069,6.51,0     c0.215,0.008,0.429,0.017,0.643,0.025c0.902,0.034,1.805,0.082,2.705,0.141c0.206,0.014,0.414,0.024,0.62,0.039     c1.047,0.075,2.093,0.166,3.136,0.273c0.229,0.023,0.457,0.053,0.688,0.078c0.789,0.088,1.576,0.185,2.362,0.29     c0.189,0.026,0.378,0.054,0.565,0.079l-13.976,8.926l-13.976-8.926C242.211,151.836,242.4,151.808,242.589,151.782z      M165.848,208.128l8.533,23.96l-17.999,17.674C156.484,235.334,159.673,221.207,165.848,208.128z M190.777,325.757l25.595-1.621     l11.999,22.095C214.324,342.171,201.541,335.098,190.777,325.757z M296.359,341.582l9.475-17.446l16.069,1.018     C314.01,332.127,305.066,337.754,296.359,341.582z M335.132,310.961l-33.131-2.099c-2.918-0.169-5.671,1.341-7.064,3.906     l-19.225,35.402c-6.373,1.284-12.965,1.962-19.711,1.962c-2.915,0-5.797-0.134-8.648-0.38l-20.083-36.984     c-1.393-2.566-4.173-4.075-7.064-3.906l-42.863,2.715c-9.509-12.22-16.234-26.703-19.225-42.494l30.192-29.646     c2.084-2.046,2.79-5.116,1.811-7.867l-14.292-40.136c11.556-15.643,27.57-27.799,46.153-34.57l29.984,19.146     c1.23,0.786,2.633,1.179,4.036,1.179c1.403,0,2.806-0.393,4.036-1.179l29.984-19.146c18.583,6.771,34.598,18.928,46.153,34.57     L321.88,231.57c-0.979,2.751-0.273,5.821,1.811,7.867l30.193,29.647C350.944,284.61,344.391,298.871,335.132,310.961z      M337.618,232.088l8.532-23.961c6.25,13.24,9.366,27.364,9.468,41.638L337.618,232.088z"/>
			<path d="M396.535,249.973c0-77.492-63.044-140.536-140.534-140.536s-140.534,63.044-140.534,140.536     c0,77.491,63.044,140.534,140.534,140.534S396.535,327.465,396.535,249.973z M256,375.508     c-69.22,0-125.534-56.314-125.534-125.534S186.781,124.44,256,124.44c69.219,0,125.534,56.315,125.534,125.535     S325.219,375.508,256,375.508z"/>
			<path d="M217.104,410.163c-4.143,0-7.5,3.357-7.5,7.5s3.357,7.5,7.5,7.5h74.484c4.142,0,7.5-3.357,7.5-7.5s-3.358-7.5-7.5-7.5     H217.104z"/>
		</g>
	</g>
</g>
<g>
</g>
<g>
</g>
<g>
</g>
<g>
</g>
<g>
</g>
<g>
</g>
<g>
</g>
<g>
</g>
<g>
</g>
<g>
</g>
<g>
</g>
<g>
</g>
<g>
</g>
<g>
</g>
<g>
</g>
</svg>
