<?xml version="1.0" encoding="iso-8859-1"?>
<!-- Generator: Adobe Illustrator 19.0.0, SVG Export Plug-In . SVG Version: 6.00 Build 0)  -->
<svg xmlns="http://www.w3.org/2000/svg" xmlns:xlink="http://www.w3.org/1999/xlink" version="1.1" id="Layer_1" x="0px" y="0px" viewBox="0 0 512.001 512.001" style="enable-background:new 0 0 512.001 512.001;" xml:space="preserve">
<g>
	<g>
		<g>
			<path d="M504.501,207.845c-4.143,0-7.5,3.357-7.5,7.5v180.983c0,3.77-3.066,6.836-6.835,6.836h-21.476     c-0.025-0.193-0.063-0.383-0.091-0.576c-0.058-0.4-0.121-0.799-0.187-1.196c-0.082-0.499-0.171-0.996-0.267-1.49     c-0.077-0.397-0.157-0.791-0.242-1.185c-0.106-0.491-0.22-0.978-0.339-1.465c-0.095-0.387-0.19-0.773-0.293-1.156     c-0.13-0.488-0.271-0.973-0.414-1.456c-0.11-0.372-0.219-0.745-0.337-1.115c-0.157-0.491-0.326-0.977-0.496-1.463     c-0.123-0.352-0.242-0.705-0.372-1.054c-0.189-0.511-0.395-1.015-0.6-1.518c-0.127-0.314-0.248-0.632-0.381-0.943     c-0.253-0.591-0.522-1.173-0.794-1.754c-0.101-0.215-0.193-0.434-0.297-0.647c-0.695-1.437-1.043-2.05-1.549-2.95     c-0.877-1.572-0.96-1.664-1.488-2.506c-0.894-1.421-0.882-1.375-1.495-2.256c-0.823-1.182-0.953-1.34-1.567-2.141     c-0.734-0.952-1.043-1.328-1.654-2.051c-0.589-0.696-1.096-1.272-1.737-1.963c-0.611-0.658-1.328-1.39-1.821-1.875     c-0.543-0.535-1.531-1.457-1.903-1.789c-0.49-0.442-1.67-1.445-1.981-1.699c-0.488-0.399-1.829-1.437-2.058-1.607     c-0.514-0.381-1.97-1.403-2.134-1.514c-1.165-0.785-1.708-1.109-2.584-1.635c-1.532-0.915-1.868-1.072-2.716-1.518     c-1.535-0.808-1.553-0.797-2.477-1.225c-1.328-0.619-1.595-0.723-2.474-1.078c-1.096-0.449-1.557-0.619-2.508-0.954     c-0.96-0.337-1.568-0.537-2.551-0.832c-0.866-0.261-1.859-0.529-2.596-0.712c-0.816-0.203-2.015-0.464-2.639-0.588     c-0.717-0.141-2.246-0.4-2.681-0.463c-0.696-0.102-2.386-0.303-2.721-0.336c-0.645-0.063-2.5-0.192-2.756-0.205     c-0.925-0.045-1.855-0.07-2.79-0.07c-28.431,0-52.353,21.295-55.989,48.987H198.49c-1.299-9.888-5.431-19.822-12.131-28.043     c-0.24-0.297-0.486-0.589-0.733-0.881c-0.316-0.374-0.636-0.744-0.962-1.11c-0.256-0.287-0.515-0.571-0.775-0.853     c-0.334-0.359-0.672-0.713-1.014-1.063c-0.268-0.273-0.535-0.545-0.808-0.813c-0.352-0.348-0.713-0.688-1.075-1.025     c-0.274-0.257-0.548-0.514-0.828-0.764c-0.377-0.34-0.763-0.668-1.15-0.997c-0.276-0.235-0.55-0.473-0.831-0.702     c-0.414-0.339-0.838-0.666-1.262-0.992c-0.266-0.205-0.527-0.415-0.796-0.615c-0.487-0.361-0.985-0.709-1.484-1.056     c-0.218-0.151-0.43-0.31-0.649-0.458c-0.722-0.486-1.455-0.957-2.2-1.412c-0.126-0.076-0.257-0.147-0.384-0.223     c-0.623-0.372-1.251-0.737-1.889-1.086c-0.273-0.149-0.552-0.287-0.827-0.432c-0.501-0.264-1.001-0.526-1.511-0.775     c-0.318-0.155-0.644-0.3-0.966-0.449c-0.476-0.222-0.951-0.441-1.435-0.65c-0.344-0.148-0.691-0.287-1.039-0.428     c-0.472-0.193-0.943-0.383-1.421-0.563c-0.36-0.135-0.724-0.264-1.087-0.392c-0.476-0.167-0.952-0.331-1.433-0.485     c-0.371-0.12-0.744-0.234-1.118-0.347c-0.483-0.146-0.969-0.283-1.458-0.415c-0.378-0.102-0.757-0.202-1.138-0.297     c-0.495-0.123-0.994-0.236-1.494-0.346c-0.381-0.083-0.761-0.166-1.145-0.242c-0.515-0.102-1.032-0.19-1.552-0.277     c-0.376-0.064-0.75-0.131-1.129-0.186c-0.544-0.08-1.093-0.145-1.641-0.21c-0.36-0.042-0.718-0.091-1.08-0.126     c-0.608-0.06-1.223-0.1-1.836-0.141c-0.308-0.02-0.612-0.049-0.92-0.064c-0.925-0.045-1.855-0.07-2.79-0.07     c-0.936,0-1.865,0.025-2.79,0.07c-0.308,0.016-0.612,0.045-0.92,0.064c-0.614,0.041-1.227,0.081-1.836,0.141     c-0.361,0.035-0.72,0.084-1.08,0.127c-0.548,0.064-1.097,0.129-1.64,0.209c-0.379,0.055-0.754,0.121-1.131,0.186     c-0.519,0.087-1.036,0.176-1.55,0.277c-0.384,0.075-0.764,0.159-1.145,0.242c-0.501,0.109-0.999,0.223-1.494,0.346     c-0.382,0.095-0.761,0.195-1.139,0.297c-0.488,0.133-0.974,0.27-1.457,0.415c-0.374,0.112-0.747,0.227-1.118,0.347     c-0.481,0.154-0.958,0.318-1.433,0.485c-0.363,0.128-0.727,0.257-1.087,0.392c-0.478,0.18-0.949,0.369-1.421,0.561     c-0.348,0.142-0.695,0.28-1.04,0.429c-0.481,0.208-0.956,0.428-1.432,0.648c-0.323,0.15-0.649,0.296-0.97,0.452     c-0.507,0.247-1.006,0.51-1.504,0.772c-0.277,0.145-0.559,0.283-0.832,0.434c-0.635,0.348-1.26,0.711-1.88,1.082     c-0.13,0.077-0.264,0.148-0.394,0.227c-0.744,0.454-1.478,0.925-2.199,1.411c-0.221,0.149-0.434,0.309-0.652,0.459     c-0.497,0.347-0.994,0.693-1.48,1.055c-0.271,0.201-0.533,0.412-0.8,0.617c-0.423,0.326-0.845,0.652-1.258,0.989     c-0.282,0.23-0.558,0.47-0.835,0.706c-0.386,0.327-0.769,0.655-1.146,0.992c-0.281,0.252-0.556,0.51-0.831,0.768     c-0.361,0.337-0.72,0.676-1.071,1.022c-0.273,0.268-0.543,0.542-0.811,0.816c-0.341,0.349-0.678,0.701-1.01,1.059     c-0.263,0.283-0.522,0.568-0.779,0.856c-0.324,0.364-0.644,0.733-0.958,1.106c-0.248,0.293-0.495,0.586-0.737,0.885     c-0.312,0.383-0.615,0.773-0.916,1.164c-0.231,0.3-0.462,0.598-0.687,0.902c-0.302,0.408-0.592,0.824-0.883,1.24     c-0.208,0.299-0.421,0.596-0.624,0.898c-0.299,0.446-0.584,0.901-0.87,1.356c-0.179,0.284-0.364,0.565-0.538,0.854     c-0.327,0.54-0.638,1.092-0.946,1.646c-0.118,0.21-0.244,0.416-0.36,0.629c-0.415,0.767-0.813,1.543-1.194,2.33     c-0.105,0.218-0.2,0.441-0.303,0.661c-0.27,0.576-0.537,1.153-0.788,1.74c-0.134,0.314-0.256,0.634-0.385,0.951     c-0.203,0.501-0.406,1.001-0.596,1.509c-0.13,0.351-0.25,0.705-0.373,1.059c-0.17,0.484-0.338,0.969-0.495,1.459     c-0.118,0.371-0.227,0.746-0.338,1.118c-0.143,0.482-0.283,0.966-0.413,1.452c-0.103,0.385-0.198,0.771-0.293,1.158     c-0.119,0.486-0.232,0.975-0.339,1.467c-0.085,0.392-0.165,0.787-0.242,1.183c-0.096,0.493-0.184,0.989-0.267,1.487     c-0.066,0.399-0.131,0.799-0.188,1.201c-0.027,0.191-0.064,0.381-0.09,0.574H46.86v-31.127c0-12.041-9.796-21.837-21.836-21.837     H15.001v-14.05H50.51c12.041,0,21.837-9.797,21.837-21.837v-0.598c0-12.04-9.797-21.835-21.837-21.835H15.001v-6.256     c0-3.77,3.066-6.836,6.836-6.836h92.592c4.143,0,7.5-3.357,7.5-7.5s-3.357-7.5-7.5-7.5H98.162     c21.47-23.549,12.915-14.165,57.848-63.452h41.052c3.77,0,6.836,3.066,6.836,6.836v49.78c0,3.768-3.066,6.834-6.836,6.834H140.43     c-4.143,0-7.5,3.357-7.5,7.5s3.357,7.5,7.5,7.5h56.631c12.041,0,21.837-9.796,21.837-21.835v-49.78     c0-12.041-9.797-21.837-21.837-21.837h-27.376c12.888-14.137,12.093-13.158,12.656-14.158c1.215-2.155,3.498-3.495,5.958-3.495     c4.531,0,297.396,0,301.863,0c3.769,0,6.835,3.065,6.835,6.834v15.493c0,4.143,3.357,7.5,7.5,7.5c4.143,0,7.5-3.357,7.5-7.5     V174.51c0-12.04-9.796-21.835-21.836-21.835H275.45V135.2c0-12.041-9.797-21.837-21.837-21.837h-27.878     c-12.041,0-21.836,9.797-21.836,21.837v17.474H188.3c-7.543,0-14.556,3.921-18.531,10.297l-91.906,100.81H21.837     C9.797,263.781,0,273.578,0,285.618c0,15.797,0,24.841,0,43.032v29.051v38.627c0,12.041,9.797,21.837,21.837,21.837h64.688     c3.682,27.611,27.371,48.985,55.973,48.985c28.603,0,52.293-21.374,55.975-48.985h158.25     c3.682,27.611,27.371,48.985,55.973,48.985c28.604,0,52.293-21.374,55.975-48.985h21.492c12.041,0,21.836-9.797,21.836-21.837     V215.345C512.001,211.202,508.644,207.845,504.501,207.845z M218.899,135.2c0-3.77,3.066-6.836,6.835-6.836h27.878     c3.769,0,6.836,3.066,6.836,6.836v17.474h-41.55V135.2z M15.001,306.881H50.51c3.769,0,6.836,3.066,6.836,6.834v0.598     c0,3.77-3.066,6.836-6.836,6.836H15.001V306.881z M31.859,403.164H21.837c-3.77,0-6.836-3.066-6.836-6.836v-31.127h10.023     c3.768,0,6.835,3.066,6.835,6.836V403.164z M142.498,452.149c-22.874,0-41.484-18.61-41.484-41.484     c0.001-20.729,15.285-37.959,35.176-41.008c2.058-0.314,4.164-0.479,6.309-0.479c22.875,0,41.485,18.611,41.487,41.487     C183.985,433.539,165.374,452.149,142.498,452.149z M412.696,452.149c-22.874,0-41.484-18.61-41.484-41.484     c0.001-22.876,18.613-41.487,41.484-41.487c22.875,0,41.486,18.611,41.487,41.487     C454.182,433.539,435.572,452.149,412.696,452.149z"/>
			<path d="M334.453,340.11c14.018,0,25.422-11.403,25.422-25.419v-23.165h23.163c14.018,0,25.422-11.404,25.422-25.422     c0-14.018-11.404-25.421-25.422-25.421h-23.163V217.52c0-14.018-11.404-25.422-25.422-25.422     c-14.018,0-25.422,11.404-25.422,25.422v23.161h-23.162c-14.017,0-25.421,11.404-25.421,25.421     c0,14.018,11.404,25.422,25.421,25.422h23.162v23.165C309.032,328.707,320.435,340.11,334.453,340.11z M285.869,276.524     c-5.745,0-10.42-4.675-10.42-10.421s4.674-10.421,10.42-10.421h30.663c4.143,0,7.5-3.357,7.5-7.5V217.52     c0-5.745,4.675-10.421,10.421-10.421s10.421,4.675,10.421,10.421v30.662c0,4.143,3.357,7.5,7.5,7.5h30.664     c5.745,0,10.421,4.675,10.421,10.421s-4.675,10.421-10.421,10.421h-30.664c-4.143,0-7.5,3.357-7.5,7.5v30.666     c0,5.744-4.675,10.419-10.421,10.419c-5.745,0-10.421-4.674-10.421-10.419v-30.666c0-4.143-3.357-7.5-7.5-7.5H285.869z"/>
			<path d="M142.499,387.233c-12.919,0-23.429,10.512-23.429,23.431c0,12.919,10.511,23.429,23.429,23.429     c12.92,0,23.43-10.511,23.43-23.429C165.929,397.745,155.418,387.233,142.499,387.233z M142.499,419.092     c-4.647,0-8.429-3.78-8.429-8.429c0-4.648,3.78-8.43,8.429-8.43c4.647,0,8.43,3.781,8.43,8.43     C150.928,415.312,147.147,419.092,142.499,419.092z"/>
			<path d="M412.697,387.233c-12.919,0-23.429,10.512-23.429,23.431c0,12.919,10.511,23.429,23.429,23.429     c12.92,0,23.43-10.511,23.43-23.429C436.127,397.745,425.617,387.233,412.697,387.233z M412.697,419.092     c-4.648,0-8.428-3.78-8.428-8.429c0-4.648,3.78-8.43,8.428-8.43c4.647,0,8.43,3.781,8.43,8.43     C421.127,415.312,417.344,419.092,412.697,419.092z"/>
			<path d="M239.674,97.784c4.143,0,7.5-3.357,7.5-7.5V52.351c0-4.143-3.357-7.5-7.5-7.5s-7.5,3.357-7.5,7.5v37.932     C232.173,94.427,235.531,97.784,239.674,97.784z"/>
			<path d="M269.68,104.466c2.159,0,4.303-0.928,5.786-2.723l24.16-29.242c2.638-3.193,2.189-7.921-1.005-10.561     c-3.193-2.639-7.921-2.189-10.561,1.005l-24.16,29.242C259.864,97.077,263.367,104.466,269.68,104.466z"/>
			<path d="M203.879,101.743c1.483,1.795,3.627,2.723,5.786,2.723c6.314,0,9.816-7.39,5.778-12.278l-24.16-29.242     c-2.64-3.194-7.367-3.644-10.561-1.005s-3.643,7.366-1.005,10.561L203.879,101.743z"/>
		</g>
	</g>
</g>
<g>
</g>
<g>
</g>
<g>
</g>
<g>
</g>
<g>
</g>
<g>
</g>
<g>
</g>
<g>
</g>
<g>
</g>
<g>
</g>
<g>
</g>
<g>
</g>
<g>
</g>
<g>
</g>
<g>
</g>
</svg>
