<?xml version="1.0" encoding="iso-8859-1"?>
<!-- Generator: Adobe Illustrator 19.0.0, SVG Export Plug-In . SVG Version: 6.00 Build 0)  -->
<svg xmlns="http://www.w3.org/2000/svg" xmlns:xlink="http://www.w3.org/1999/xlink" version="1.1" id="Layer_1" x="0px" y="0px" viewBox="0 0 512 512" style="enable-background:new 0 0 512 512;" xml:space="preserve">
<g>
	<g>
		<g>
			<path d="M490.095,202.376c-10.15,0-458.042,0-468.189,0C9.827,202.376,0,212.203,0,224.282c0,14.305,0,190.705,0,197.5v46.197     c0,12.079,9.827,21.906,21.905,21.906h45.761c4.142,0,7.5-3.357,7.5-7.5s-3.358-7.5-7.5-7.5H21.905     c-3.808,0-6.905-3.098-6.905-6.906v-38.697h65.728c12.08,0,21.907-9.827,21.907-21.906v-122.49     c0-12.079-9.828-21.906-21.907-21.906H15v-38.697c0-3.809,3.098-6.906,6.905-6.906h226.594v50.191     c-40.015,3.791-71.428,37.572-71.428,78.563c0,40.992,31.413,74.773,71.428,78.564v50.191H92.668c-4.142,0-7.5,3.357-7.5,7.5     s3.358,7.5,7.5,7.5c7.113,0,394.752,0,397.427,0c12.078,0,21.905-9.827,21.905-21.906v-46.197V270.48v-46.197     C512,212.203,502.173,202.376,490.095,202.376z M80.728,277.98c3.809,0,6.907,3.098,6.907,6.906v122.49     c0,3.809-3.099,6.906-6.907,6.906H15V277.98H80.728z M248.499,334.551c-8.402,5.451-8.401,17.708,0,23.163v51.893     c-31.726-3.728-56.428-30.764-56.428-63.477c0-32.711,24.702-59.746,56.428-63.473V334.551z M263.5,357.713     c8.401-5.453,8.401-17.711,0-23.162v-51.894c31.726,3.727,56.427,30.762,56.427,63.473c0,32.713-24.701,59.749-56.427,63.477     V357.713z M497,262.981h-65.73c-12.079,0-21.905,9.827-21.905,21.906v10.883c0,4.143,3.357,7.5,7.5,7.5s7.5-3.357,7.5-7.5     v-10.883c0-3.809,3.098-6.906,6.905-6.906H497v136.303h-65.73c-3.808,0-6.905-3.098-6.905-6.906v-87.614     c0-4.143-3.357-7.5-7.5-7.5s-7.5,3.357-7.5,7.5v87.614c0,12.079,9.826,21.906,21.905,21.906H497v38.697     c0,3.807-3.098,6.905-6.905,6.905H263.5v-50.191c40.015-3.791,71.427-37.572,71.427-78.564c0-40.99-31.412-74.771-71.427-78.563     v-50.191c240.008,0,226.946-0.072,227.984,0.141c3.144,0.645,5.516,3.434,5.516,6.766V262.981z"/>
			<path d="M33.178,103.304h32.15c13.521,0,24.521-10.999,24.521-24.52v-32.15c0-13.521-11-24.52-24.521-24.52h-32.15     c-13.521,0-24.52,10.999-24.52,24.52v32.15C8.658,92.305,19.658,103.304,33.178,103.304z M23.658,46.634     c0-5.249,4.271-9.52,9.52-9.52h32.15c5.25,0,9.521,4.271,9.521,9.52v32.15c0,5.249-4.271,9.52-9.521,9.52h-32.15     c-5.25,0-9.52-4.271-9.52-9.52V46.634z"/>
			<path d="M239.058,103.304h32.151c13.52,0,24.52-10.999,24.52-24.52v-32.15c0-13.521-11-24.52-24.52-24.52h-32.151     c-13.52,0-24.519,10.999-24.519,24.52v32.15C214.539,92.305,225.538,103.304,239.058,103.304z M229.539,46.634     c0-5.249,4.27-9.52,9.519-9.52h32.151c5.25,0,9.52,4.271,9.52,9.52v32.15c0,5.249-4.27,9.52-9.52,9.52h-32.151     c-5.249,0-9.519-4.271-9.519-9.52V46.634z"/>
			<path d="M444.939,103.304h32.15c13.521,0,24.52-10.999,24.52-24.52v-32.15c0-13.521-10.999-24.52-24.52-24.52h-32.15     c-13.521,0-24.52,10.999-24.52,24.52v32.15C420.42,92.305,431.419,103.304,444.939,103.304z M435.42,46.634     c0-5.249,4.271-9.52,9.52-9.52h32.15c5.249,0,9.52,4.271,9.52,9.52v32.15c0,5.249-4.27,9.52-9.52,9.52h-32.15     c-5.249,0-9.52-4.271-9.52-9.52V46.634z"/>
			<path d="M504.5,174.505h-23.094v-45.803H504.5c4.143,0,7.5-3.357,7.5-7.5c0-4.143-3.357-7.5-7.5-7.5c-7.394,0-52.385,0-59.455,0     h-24.051c-4.142,0-7.5,3.357-7.5,7.5c0,4.143,3.358,7.5,7.5,7.5h16.551v45.803h-160.48v-45.803h19.631c4.143,0,7.5-3.357,7.5-7.5     c0-4.143-3.357-7.5-7.5-7.5h-27.131h-28.861h-24.051c-4.142,0-7.5,3.357-7.5,7.5c0,4.143,3.358,7.5,7.5,7.5h16.551v45.803H69.646     v-45.803h19.63c4.142,0,7.5-3.357,7.5-7.5c0-4.143-3.358-7.5-7.5-7.5h-27.13H33.284H7.5c-4.142,0-7.5,3.357-7.5,7.5     c0,4.143,3.358,7.5,7.5,7.5h18.284v45.803H7.5c-4.142,0-7.5,3.357-7.5,7.5s3.358,7.5,7.5,7.5h497c4.143,0,7.5-3.357,7.5-7.5     S508.643,174.505,504.5,174.505z M54.645,174.505H40.784v-45.803h13.861V174.505z M262.064,174.505h-13.861v-45.803h13.861     V174.505z M466.406,174.505h-13.861v-45.803h13.861V174.505z"/>
		</g>
	</g>
</g>
<g>
</g>
<g>
</g>
<g>
</g>
<g>
</g>
<g>
</g>
<g>
</g>
<g>
</g>
<g>
</g>
<g>
</g>
<g>
</g>
<g>
</g>
<g>
</g>
<g>
</g>
<g>
</g>
<g>
</g>
</svg>
