<?xml version="1.0" encoding="iso-8859-1"?>
<!-- Generator: Adobe Illustrator 19.0.0, SVG Export Plug-In . SVG Version: 6.00 Build 0)  -->
<svg xmlns="http://www.w3.org/2000/svg" xmlns:xlink="http://www.w3.org/1999/xlink" version="1.1" id="Layer_1" x="0px" y="0px" viewBox="0 0 512.001 512.001" style="enable-background:new 0 0 512.001 512.001;" xml:space="preserve">
<g>
	<g>
		<g>
			<path d="M504.501,278.231c-4.143,0-7.5,3.357-7.5,7.5v114.748c-0.001,5.77-4.695,10.464-10.465,10.464H25.465     c-5.77,0-10.464-4.693-10.464-10.464V252.361c0-38.007,30.921-68.928,68.928-68.928h13.408     c-2.175,10.643-3.272,21.517-3.272,32.475c0,14.454,11.759,26.213,26.213,26.213s26.213-11.759,26.213-26.213     c0-1.48,0.045-3.225,0.105-4.652c0.046-1.096,0.123-2.523,0.21-3.697c0.114-1.503,0.274-3.063,0.451-4.578     c0.154-1.304,0.385-3,0.485-3.64c0.222-1.458,0.499-3.009,0.78-4.451c0.282-1.443,0.592-2.882,0.753-3.571     c0.325-1.408,0.726-2.981,1.09-4.298c0.328-1.2,0.672-2.396,1.042-3.585h209.186c0.442,1.418,0.96,3.246,1.221,4.24     c0.453,1.691,0.823,3.225,0.943,3.786c0.319,1.389,0.648,3.015,0.894,4.321c0.345,1.854,0.502,2.854,0.667,3.979     c0.202,1.351,0.402,2.941,0.54,4.206c0.252,2.321,0.28,2.932,0.359,3.933c0.102,1.405,0.182,3.016,0.225,4.322     c0.04,1.227,0.068,2.454,0.068,3.686c0,14.454,11.759,26.213,26.213,26.213c14.455,0,26.215-11.759,26.215-26.213     c0-2.753-0.07-5.504-0.21-8.248c-0.066-1.283-0.148-2.563-0.242-3.838c-0.005-0.061-0.007-0.122-0.012-0.184     c-0.517-6.861-1.462-13.606-2.811-20.204h13.408c38.007,0,68.928,30.921,68.928,68.928v7.37c0,4.143,3.357,7.5,7.5,7.5     s7.5-3.357,7.5-7.5v-7.37c0-46.278-37.65-83.929-83.929-83.929h-17.241c-20.339-66.199-82.052-114.462-154.829-114.462     s-134.49,48.263-154.829,114.462H83.928C37.65,168.432,0,206.082,0,252.361v148.118c0,14.041,11.424,25.465,25.465,25.465h25.33     v6.621c0,14.041,11.424,25.465,25.465,25.465h73.85c14.041,0,25.465-11.424,25.465-25.465v-6.621h160.852v6.621     c0,14.041,11.424,25.465,25.465,25.465h73.85c14.041,0,25.465-11.424,25.465-25.465v-6.621h25.332     c14.041,0,25.465-11.424,25.465-25.465V285.731C512.001,281.588,508.644,278.231,504.501,278.231z M157.324,168.432     c39.867-82.531,157.44-82.621,197.352,0H157.324z M109.184,210.282c0.056-1.472,0.136-3.019,0.238-4.515     c0.148-2.152,0.264-3.309,0.358-4.355c0.332-3.348,0.795-6.773,1.289-9.698c0.774-4.648,1.77-9.258,2.989-13.808     C130.85,115.249,188.118,68.974,256,68.974s125.15,46.274,141.942,108.932c0.827,3.084,1.552,6.194,2.175,9.326     c0.295,1.48,0.563,2.967,0.811,4.455c0.028,0.17,0.057,0.338,0.084,0.507c0.244,1.49,0.467,2.984,0.664,4.482     c0.002,0.015,0.005,0.029,0.007,0.044c0.203,1.545,0.38,3.094,0.533,4.645c0.019,0.185,0.032,0.37,0.05,0.555     c0.119,1.252,0.221,2.506,0.308,3.76c0.031,0.452,0.059,0.904,0.087,1.357c0.061,1.025,0.11,2.053,0.15,3.08     c0.02,0.487,0.042,0.974,0.057,1.463c0.037,1.264,0.057,2.528,0.061,3.794c0.001,0.179,0.007,0.357,0.007,0.536     c0,6.182-5.029,11.212-11.212,11.212c-6.182-0.004-11.213-5.033-11.213-11.215c0-1-0.015-1.998-0.038-2.995     c-0.008-0.319-0.021-0.638-0.031-0.956c-0.021-0.68-0.045-1.358-0.077-2.036c-0.018-0.373-0.04-0.745-0.06-1.117     c-0.035-0.625-0.074-1.25-0.119-1.874c-0.027-0.384-0.057-0.768-0.088-1.15c-0.05-0.62-0.105-1.238-0.165-1.856     c-0.036-0.373-0.071-0.746-0.11-1.118c-0.068-0.65-0.145-1.301-0.223-1.95c-0.041-0.331-0.077-0.663-0.12-0.993     c-0.107-0.837-0.226-1.672-0.351-2.505c-0.029-0.192-0.057-0.385-0.086-0.577c-0.139-0.888-0.285-1.773-0.442-2.658     c-0.073-0.413-0.154-0.823-0.232-1.235c-0.253-1.35-0.32-1.689-0.608-3.031c-0.213-1-0.371-1.716-0.658-2.909     c-0.252-1.053-0.492-2.003-0.717-2.852c-0.18-0.676-0.524-1.932-0.778-2.813C360.531,129.357,312.594,91.397,256,91.397     c-55.612,0-102.822,36.652-118.754,87.068c-0.006,0.017-0.011,0.033-0.017,0.049c-0.243,0.771-0.724,2.382-0.842,2.788     c-0.249,0.862-0.605,2.159-0.783,2.83c-0.255,0.969-0.511,1.993-0.721,2.873c-0.279,1.162-0.467,2.02-0.663,2.937     c-0.252,1.186-0.301,1.403-0.617,3.091c-0.186,1-0.375,1.968-0.676,3.932c-0.109,0.705-0.278,1.895-0.409,2.919     c-0.043,0.324-0.251,2.065-0.343,2.943c-0.059,0.559-0.193,1.971-0.274,2.971c-0.084,1.059-0.143,1.898-0.205,3.018     c-0.054,0.927-0.092,1.639-0.138,3.146c-0.05,1.49-0.069,2.71-0.069,3.948c0,6.182-5.029,11.212-11.212,11.212     s-11.212-5.029-11.212-11.212C109.066,213.578,109.128,211.84,109.184,210.282z M160.573,432.565     c0,5.77-4.693,10.464-10.464,10.464h-73.85c-5.77,0-10.464-4.693-10.464-10.464v-6.621h94.778V432.565z M446.203,432.565     c0,5.77-4.693,10.464-10.464,10.464h-73.85c-5.77,0-10.464-4.693-10.464-10.464v-6.621h94.778V432.565z"/>
			<path d="M185.029,208.986c-4.143,0-7.5,3.357-7.5,7.5c0,4.143,3.357,7.5,7.5,7.5h144.71c4.143,0,7.5-3.357,7.5-7.5     c0-4.143-3.357-7.5-7.5-7.5H185.029z"/>
		</g>
	</g>
</g>
<g>
</g>
<g>
</g>
<g>
</g>
<g>
</g>
<g>
</g>
<g>
</g>
<g>
</g>
<g>
</g>
<g>
</g>
<g>
</g>
<g>
</g>
<g>
</g>
<g>
</g>
<g>
</g>
<g>
</g>
</svg>
