<?xml version="1.0" encoding="iso-8859-1"?>
<!-- Generator: Adobe Illustrator 19.0.0, SVG Export Plug-In . SVG Version: 6.00 Build 0)  -->
<svg xmlns="http://www.w3.org/2000/svg" xmlns:xlink="http://www.w3.org/1999/xlink" version="1.1" id="Layer_1" x="0px" y="0px" viewBox="0 0 511.999 511.999" style="enable-background:new 0 0 511.999 511.999;" xml:space="preserve">
<g>
	<g>
		<path d="M476.133,215.86h-78.495c-10.97,0-19.895,8.925-19.895,19.895v13.343c-0.343-0.049-0.69-0.082-1.047-0.082h-27.473    V118.635c0-10.97-8.925-19.895-19.895-19.895h-14.189V85.995c0-10.97-8.925-19.895-19.895-19.895h-10.87    c-4.143,0-7.501,3.357-7.501,7.501c0,4.143,3.357,7.501,7.501,7.501h10.87c2.698,0,4.893,2.194,4.893,4.893v40.491    c0,2.698-2.194,4.893-4.893,4.893H216.75c-2.698,0-4.893-2.194-4.893-4.893V85.995c0-2.698,2.194-4.893,4.893-4.893h41.622    c4.143,0,7.501-3.357,7.501-7.501c0-4.143-3.357-7.501-7.501-7.501H216.75c-10.97,0-19.895,8.925-19.895,19.895V98.74H171.72    V52.535c0-10.971-8.925-19.897-19.895-19.897h-17.573V19.894C134.254,8.925,125.329,0,114.36,0H35.865    C24.896,0,15.971,8.925,15.971,19.894v40.491c0,10.971,8.925,19.897,19.895,19.897h78.495c10.97,0,19.895-8.926,19.895-19.897    V47.641h17.573c2.698,0,4.893,2.195,4.893,4.895v107.411c0,2.698-2.194,4.893-4.893,4.893h-17.573v-12.745    c0-10.97-8.925-19.895-19.895-19.895H35.865c-10.97,0-19.895,8.925-19.895,19.895v40.491c0,10.97,8.925,19.895,19.895,19.895    h78.495c10.97,0,19.895-8.925,19.895-19.895v-12.745h17.573c10.97,0,19.895-8.925,19.895-19.895v-46.205h25.135v12.745    c0,10.97,8.925,19.895,19.895,19.895h78.495c10.97,0,19.895-8.925,19.895-19.895v-12.745h14.189c2.698,0,4.893,2.194,4.893,4.893    v275.761c0,2.699-2.194,4.895-4.893,4.895h-14.189v-13.78c0-10.97-8.925-19.895-19.895-19.895h-78.495    c-10.97,0-19.895,8.925-19.895,19.895v12.745h-25.135v-46.207c0-10.97-8.925-19.895-19.895-19.895h-17.573v-12.745    c0-10.97-8.925-19.895-19.895-19.895H35.865c-10.97,0-19.895,8.925-19.895,19.895v40.493c0,10.97,8.925,19.894,19.895,19.894    h78.495c10.97,0,19.895-8.925,19.895-19.894v-12.747h17.573c2.698,0,4.893,2.194,4.893,4.893v107.413    c0,2.698-2.194,4.892-4.893,4.892h-17.573v-12.743c0-10.971-8.925-19.897-19.895-19.897H35.865    c-10.97,0-19.895,8.926-19.895,19.897v40.491c0,10.97,8.925,19.895,19.895,19.895h78.495c10.97,0,19.895-8.925,19.895-19.895    v-12.747h17.573c10.97,0,19.895-8.925,19.895-19.894v-46.205h25.135v12.745c0,10.97,8.925,19.895,19.895,19.895h78.495    c10.97,0,19.895-8.925,19.895-19.895v-11.712h14.189c10.97,0,19.895-8.926,19.895-19.897V264.016h27.473    c0.356,0,0.704-0.033,1.047-0.082v12.311c0,10.97,8.925,19.895,19.895,19.895h78.495c10.97,0,19.895-8.925,19.895-19.895v-40.491    C496.026,224.785,487.102,215.86,476.133,215.86z M119.253,60.386c0,2.699-2.194,4.895-4.893,4.895H35.865    c-2.698,0-4.893-2.195-4.893-4.895V19.894c0-2.698,2.194-4.892,4.893-4.892h78.495c2.698,0,4.893,2.194,4.893,4.892V60.386z     M119.253,192.586c0,2.698-2.194,4.893-4.893,4.893H35.865c-2.698,0-4.893-2.194-4.893-4.893v-40.491    c0-2.698,2.194-4.893,4.893-4.893h78.495c2.698,0,4.893,2.194,4.893,4.893V192.586z M119.253,359.905    c0,2.698-2.194,4.892-4.893,4.892H35.865c-2.698,0-4.893-2.194-4.893-4.892v-40.493c0-2.698,2.194-4.893,4.893-4.893h78.495    c2.698,0,4.893,2.194,4.893,4.893V359.905z M119.253,492.105c0,2.698-2.194,4.893-4.893,4.893H35.865    c-2.698,0-4.893-2.194-4.893-4.893v-40.491c0-2.699,2.194-4.895,4.893-4.895h78.495c2.698,0,4.893,2.195,4.893,4.895V492.105z     M300.139,426.005c0,2.698-2.194,4.893-4.893,4.893h-78.495c-2.698,0-4.893-2.194-4.893-4.893v-40.492    c0-2.698,2.194-4.893,4.893-4.893h78.495c2.698,0,4.893,2.194,4.893,4.893V426.005z M481.025,276.246    c0,2.698-2.194,4.893-4.893,4.893h-78.495c-2.698,0-4.893-2.194-4.893-4.893v-40.491c0-2.698,2.194-4.893,4.893-4.893h78.495    c2.698,0,4.893,2.194,4.893,4.893V276.246z"/>
	</g>
</g>
<g>
</g>
<g>
</g>
<g>
</g>
<g>
</g>
<g>
</g>
<g>
</g>
<g>
</g>
<g>
</g>
<g>
</g>
<g>
</g>
<g>
</g>
<g>
</g>
<g>
</g>
<g>
</g>
<g>
</g>
</svg>
