<?xml version="1.0" encoding="iso-8859-1"?>
<!-- Generator: Adobe Illustrator 19.0.0, SVG Export Plug-In . SVG Version: 6.00 Build 0)  -->
<svg xmlns="http://www.w3.org/2000/svg" xmlns:xlink="http://www.w3.org/1999/xlink" version="1.1" id="Layer_1" x="0px" y="0px" viewBox="0 0 511.999 511.999" style="enable-background:new 0 0 511.999 511.999;" xml:space="preserve">
<g>
	<g>
		<g>
			<path d="M215.731,307.612c4.143,0,7.5-3.357,7.5-7.5V159.102c0-4.143-3.357-7.5-7.5-7.5c-4.143,0-7.5,3.357-7.5,7.5v141.009     C208.23,304.254,211.588,307.612,215.731,307.612z"/>
			<path d="M249.856,309.655c4.143,0,7.5-3.357,7.5-7.5V161.145c0-4.143-3.357-7.5-7.5-7.5c-4.143,0-7.5,3.357-7.5,7.5v141.009     C242.355,306.297,245.714,309.655,249.856,309.655z"/>
			<path d="M446.372,43.193c4.143,0,7.5-3.357,7.5-7.5V24.158C453.873,10.838,443.035,0,429.715,0h-151.99H173.804     c-13.32,0-24.158,10.838-24.158,24.158v85.365c0,13.131,10.534,23.842,23.594,24.144V306.8l-85.93,67.974     c-15.575,12.319-25.589,29.795-28.391,49.378c-0.026,0.185-0.053,0.371-0.078,0.558c-0.066,0.49-0.15,0.976-0.208,1.469     c-0.045,0.383-0.066,0.765-0.105,1.147c-0.031,0.303-0.057,0.605-0.084,0.908c-0.076,0.844-0.147,1.688-0.195,2.529     c-0.011,0.184-0.015,0.368-0.024,0.552c-0.772,15.269,2.967,30.188,10.777,43.204c0.098,0.163,0.198,0.325,0.297,0.488     c0.453,0.743,0.913,1.483,1.393,2.213c0.271,0.415,0.556,0.821,0.835,1.23c0.354,0.517,0.7,1.035,1.066,1.544     c0.683,0.951,1.386,1.889,2.113,2.81c14.678,18.553,36.678,29.194,60.36,29.194c0.949,0,1.896-0.023,2.844-0.059     c0.416-0.015,0.83-0.038,1.244-0.06c0.467-0.025,0.933-0.054,1.398-0.087c0.594-0.041,1.188-0.088,1.779-0.143     c0.053-0.005,0.104-0.011,0.156-0.016c14.695-1.395,28.485-6.926,40.246-16.23l4.39-3.473     c14.062,12.869,32.393,20.066,51.862,20.066c0.949,0,1.896-0.023,2.844-0.059c0.416-0.015,0.829-0.038,1.244-0.06     c0.467-0.025,0.934-0.054,1.399-0.087c0.594-0.041,1.187-0.087,1.777-0.143c0.054-0.005,0.108-0.012,0.163-0.017     c14.692-1.396,28.481-6.927,40.24-16.23l115.124-91.067c18.553-14.677,29.193-36.661,29.193-60.317v-160.31     c0-4.143-3.357-7.5-7.5-7.5s-7.5,3.357-7.5,7.5v160.315c0,19.042-8.565,36.738-23.5,48.553l-115.124,91.066     c-1.026,0.813-2.079,1.577-3.143,2.317l-79.158-94.508c0.213-0.213,0.417-0.431,0.633-0.641c0.549-0.534,1.116-1.052,1.686-1.567     c0.231-0.209,0.453-0.425,0.688-0.63c0.808-0.709,1.634-1.402,2.482-2.073l88.778-70.228c1.798-1.422,2.847-3.589,2.847-5.882     V133.681h123.812v25.363c0,4.143,3.357,7.5,7.5,7.5c4.143,0,7.5-3.357,7.5-7.5v-25.397c12.737-0.656,22.898-11.227,22.898-24.125     V60.041c0-4.143-3.357-7.5-7.5-7.5s-7.5,3.357-7.5,7.5v49.482c0,5.049-4.107,9.157-9.157,9.157h-6.241h-138.81h-6.935     c-5.049,0-9.157-4.107-9.157-9.157V24.158c0-5.049,4.107-9.157,9.157-9.157h151.99c5.049,0,9.157,4.107,9.157,9.157v11.535     C438.872,39.836,442.23,43.193,446.372,43.193z M164.647,109.523V24.158c0-5.049,4.107-9.157,9.157-9.157h81.565     c-0.068,0.166-0.128,0.336-0.193,0.504c-0.058,0.149-0.117,0.299-0.172,0.449c-0.077,0.215-0.148,0.432-0.22,0.649     c-0.051,0.153-0.105,0.307-0.152,0.462c-0.067,0.219-0.127,0.44-0.188,0.66c-0.044,0.158-0.091,0.315-0.131,0.475     c-0.057,0.223-0.105,0.448-0.156,0.674c-0.036,0.16-0.075,0.319-0.108,0.482c-0.047,0.232-0.085,0.468-0.125,0.702     c-0.027,0.158-0.059,0.313-0.082,0.471c-0.037,0.246-0.065,0.494-0.095,0.742c-0.018,0.15-0.041,0.301-0.056,0.452     c-0.027,0.273-0.045,0.548-0.063,0.822c-0.009,0.13-0.023,0.257-0.028,0.388c-0.02,0.405-0.031,0.813-0.031,1.225v85.365     c0,0.411,0.011,0.819,0.031,1.225c0.006,0.131,0.02,0.259,0.028,0.389c0.018,0.274,0.036,0.549,0.063,0.821     c0.015,0.152,0.037,0.302,0.056,0.453c0.029,0.247,0.058,0.495,0.095,0.741c0.023,0.157,0.055,0.313,0.082,0.471     c0.04,0.234,0.078,0.47,0.125,0.702c0.033,0.162,0.072,0.321,0.108,0.481c0.051,0.226,0.1,0.451,0.156,0.674     c0.04,0.16,0.087,0.316,0.132,0.475c0.061,0.221,0.12,0.441,0.188,0.659c0.047,0.156,0.102,0.31,0.152,0.464     c0.071,0.217,0.143,0.434,0.22,0.648c0.055,0.15,0.114,0.3,0.172,0.449c0.065,0.168,0.125,0.338,0.193,0.504h-74.629h-6.936     C168.756,118.68,164.647,114.571,164.647,109.523z M137.91,496.931c-0.028,0.001-0.057,0.004-0.085,0.005     c-0.918,0.041-1.838,0.063-2.758,0.063c-3.574,0-7.102-0.301-10.553-0.889c-14.95-2.547-28.443-10.478-38.042-22.611     c-0.567-0.718-1.11-1.448-1.644-2.185c-0.239-0.332-0.471-0.67-0.703-1.006c-0.246-0.355-0.487-0.711-0.726-1.069     c-0.339-0.513-0.674-1.028-0.995-1.55c-0.03-0.047-0.059-0.096-0.089-0.145c-11.944-19.481-12.114-44.347-0.58-63.945     l74.953,89.488C150.68,495.33,144.334,496.633,137.91,496.931z M260.607,493.087c-6.006,2.244-12.351,3.547-18.776,3.844     c-0.028,0.001-0.057,0.004-0.084,0.005c-0.918,0.041-1.838,0.063-2.758,0.063c-3.575,0-7.103-0.301-10.554-0.889     c-13.518-2.303-25.832-9.022-35.166-19.255l-0.009-0.011c-0.361-0.395-0.698-0.774-1.024-1.145     c-0.625-0.721-1.245-1.445-1.841-2.198c-0.003-0.003-0.006-0.007-0.009-0.011c-0.56-0.708-1.096-1.43-1.622-2.156     c-0.008-0.011-0.015-0.021-0.022-0.031c-0.193-0.268-0.379-0.54-0.566-0.811l-0.14-0.203c-0.287-0.414-0.567-0.834-0.846-1.254     c-0.26-0.397-0.519-0.793-0.769-1.195l-0.1-0.16c-0.08-0.129-0.157-0.262-0.236-0.392c-11.319-18.666-11.88-42.203-1.746-61.32     c0.149-0.28,0.302-0.559,0.455-0.837c0.282-0.512,0.564-1.025,0.862-1.531L260.607,493.087z M277.156,133.681V306.8h0.005     l-85.931,67.974c-1.056,0.835-2.083,1.696-3.087,2.578c-0.291,0.255-0.566,0.523-0.854,0.782c-0.71,0.643-1.416,1.288-2.1,1.952     c-0.289,0.283-0.566,0.576-0.852,0.863c-0.674,0.677-1.342,1.359-1.988,2.059c-0.227,0.246-0.445,0.499-0.669,0.748     c-0.708,0.786-1.402,1.584-2.075,2.397c-0.131,0.159-0.26,0.32-0.391,0.481c-0.781,0.96-1.539,1.937-2.271,2.93     c-0.015,0.019-0.028,0.038-0.042,0.058c-7.333,9.972-12.147,21.608-14.004,34.126c-0.02,0.13-0.04,0.253-0.059,0.386     l-0.023,0.167c-0.014,0.095-0.026,0.188-0.04,0.283l-0.051,0.367c-0.005,0.035-0.008,0.07-0.013,0.105     c-0.049,0.375-0.114,0.745-0.158,1.121c-0.041,0.351-0.061,0.7-0.097,1.052c-0.003,0.029-0.008,0.061-0.011,0.09     c-0.003,0.029-0.005,0.059-0.009,0.088c-0.019,0.188-0.035,0.377-0.053,0.565c-0.005,0.051-0.01,0.1-0.015,0.15l-0.019,0.209     c-0.007,0.078-0.011,0.156-0.018,0.234c-0.063,0.73-0.123,1.462-0.165,2.191c-0.011,0.189-0.015,0.377-0.024,0.565     c0,0.023-0.002,0.047-0.003,0.07l-0.009,0.206c-0.711,15.169,3.028,29.984,10.79,42.92c0.098,0.163,0.198,0.325,0.297,0.488     c0.453,0.743,0.913,1.483,1.393,2.213c0.271,0.415,0.556,0.821,0.835,1.23c0.042,0.061,0.083,0.124,0.126,0.186     c0.042,0.061,0.084,0.126,0.126,0.188l0.148,0.218c0.222,0.318,0.438,0.639,0.666,0.953c0.095,0.132,0.19,0.262,0.286,0.394     c0.09,0.123,0.18,0.251,0.27,0.372l-3.642,2.88c-1.026,0.813-2.079,1.577-3.143,2.317L91.124,391.45     c1.724-1.727,3.546-3.375,5.488-4.911l88.777-70.227c1.798-1.422,2.847-3.589,2.847-5.882V133.681H277.156z"/>
			<path d="M312.151,159.102v141.009c0,4.143,3.357,7.5,7.5,7.5c4.143,0,7.5-3.357,7.5-7.5V159.102c0-4.143-3.357-7.5-7.5-7.5     C315.509,151.602,312.151,154.959,312.151,159.102z"/>
			<path d="M346.276,161.145v141.009c0,4.143,3.358,7.5,7.5,7.5c4.143,0,7.5-3.357,7.5-7.5V161.145c0-4.143-3.357-7.5-7.5-7.5     C349.634,153.645,346.276,157.002,346.276,161.145z"/>
			<path d="M380.4,160.123v141.009c0,4.143,3.357,7.5,7.5,7.5c4.143,0,7.5-3.357,7.5-7.5V160.123c0-4.143-3.357-7.5-7.5-7.5     C383.757,152.623,380.4,155.981,380.4,160.123z"/>
		</g>
	</g>
</g>
<g>
</g>
<g>
</g>
<g>
</g>
<g>
</g>
<g>
</g>
<g>
</g>
<g>
</g>
<g>
</g>
<g>
</g>
<g>
</g>
<g>
</g>
<g>
</g>
<g>
</g>
<g>
</g>
<g>
</g>
</svg>
