<?xml version="1.0" encoding="iso-8859-1"?>
<!-- Generator: Adobe Illustrator 19.0.0, SVG Export Plug-In . SVG Version: 6.00 Build 0)  -->
<svg xmlns="http://www.w3.org/2000/svg" xmlns:xlink="http://www.w3.org/1999/xlink" version="1.1" id="Layer_1" x="0px" y="0px" viewBox="0 0 512.001 512.001" style="enable-background:new 0 0 512.001 512.001;" xml:space="preserve">
<g>
	<g>
		<path d="M385.073,198.912c-25.961-27.224-54.5-45.222-64.773-51.275V88.092c0-4.14-3.355-7.496-7.496-7.496    s-7.496,3.356-7.496,7.496v63.89v110.08c-8.894-12.735-17.661-30.531-42.272-31.433c-33.729-1.028-54.631,37.08-35.151,64.972    l39.06,55.93c-7.47,0-156.53,0-162.676,0c-5.723,0-10.379-4.655-10.379-10.378V25.37c0-5.723,4.655-10.378,10.379-10.378H294.93    c5.724,0,10.379,4.655,10.379,10.378v37.735c0,4.14,3.355,7.496,7.496,7.496s7.496-3.356,7.496-7.496V25.37    C320.3,11.381,308.919,0,294.93,0H104.27C90.28,0,78.899,11.381,78.899,25.37v315.782c0,13.989,11.382,25.37,25.371,25.37h137.586    c1.377,10.943,5.945,33.129,21.115,62.026c17.315,32.982,15.276,64.637,15.662,67.05c1.642,10.27,9.537,16.402,21.12,16.402    c11.805,0,82.502,0,94.308,0c11.451-0.095,20.276-9.544,18.477-23.366c-3.751-27.981-6.835-84.657,14.641-149.856    C442.51,292.239,427.948,243.874,385.073,198.912z M412.941,334.088c-22.384,67.953-19.192,127.122-15.278,156.419    c0.367,3.577-0.15,6.337-3.741,6.502h-94.17c-7.771,0-5.996-3.929-6.274-7.579c-1.621-59.891-29.201-73.827-36.474-122.908h20.413    c7.127,10.204,8.167,13.107,13.067,13.107c6.013,0,9.617-6.808,6.139-11.789l-56.446-80.824    c-9.527-13.641-4.185-32.869,11.485-39.409c8.683-3.62,19.114-2.539,27.499,4.527c3.732,3.272,0.335-0.853,60.665,85.534    c2.37,3.395,7.042,4.227,10.436,1.854c3.394-2.37,4.225-7.043,1.853-10.436L320.3,283.532V165.277    C380.632,204.006,435.484,265.643,412.941,334.088z"/>
	</g>
</g>
<g>
</g>
<g>
</g>
<g>
</g>
<g>
</g>
<g>
</g>
<g>
</g>
<g>
</g>
<g>
</g>
<g>
</g>
<g>
</g>
<g>
</g>
<g>
</g>
<g>
</g>
<g>
</g>
<g>
</g>
</svg>
