<?xml version="1.0" encoding="iso-8859-1"?>
<!-- Generator: Adobe Illustrator 19.0.0, SVG Export Plug-In . SVG Version: 6.00 Build 0)  -->
<svg xmlns="http://www.w3.org/2000/svg" xmlns:xlink="http://www.w3.org/1999/xlink" version="1.1" id="Layer_1" x="0px" y="0px" viewBox="0 0 512.001 512.001" style="enable-background:new 0 0 512.001 512.001;" xml:space="preserve">
<g>
	<g>
		<path d="M505.832,121.164c-3.195-2.731-7.267-4.235-11.47-4.235c-2.309,0-4.564,0.446-6.675,1.314    c-0.164,0.066-16.645,6.613-37.645,6.614c-7.401,0-14.538-0.815-21.214-2.422c-1.003-0.241-1.994-0.505-2.979-0.783    c-0.338-0.095-0.67-0.202-1.006-0.301c-0.642-0.192-1.283-0.385-1.918-0.592c-0.397-0.13-0.791-0.269-1.186-0.403    c-0.563-0.195-1.124-0.392-1.681-0.6c-0.417-0.155-0.831-0.314-1.245-0.477c-0.529-0.208-1.055-0.421-1.578-0.64    c-0.417-0.175-0.833-0.35-1.245-0.532c-0.518-0.228-1.031-0.465-1.543-0.705c-0.401-0.189-0.807-0.374-1.205-0.569    c-0.537-0.264-1.069-0.541-1.599-0.818c-0.359-0.187-0.725-0.368-1.081-0.561c-0.829-0.45-1.649-0.914-2.462-1.397    c-0.251-0.148-0.496-0.306-0.745-0.458c-0.642-0.391-1.281-0.785-1.912-1.196c-0.322-0.211-0.64-0.432-0.959-0.647    c-0.525-0.355-1.049-0.71-1.567-1.078c-0.328-0.233-0.652-0.476-0.979-0.715c-0.504-0.371-1.006-0.746-1.501-1.13    c-0.315-0.245-0.63-0.494-0.942-0.745c-0.506-0.404-1.008-0.817-1.505-1.237c-0.289-0.243-0.578-0.487-0.864-0.736    c-0.531-0.46-1.055-0.932-1.576-1.408c-0.244-0.224-0.491-0.443-0.733-0.67c-0.609-0.573-1.211-1.16-1.809-1.756    c-0.147-0.147-0.296-0.286-0.441-0.434c-2.324-2.357-4.547-4.889-6.665-7.598c-27.5-35.189-60.119-49.04-82.643-54.463    c-7.205-1.734-14.459-2.883-21.667-3.459c1.099-13.789-7.975-26.757-21.839-30.096c-7.437-1.789-15.125-0.577-21.646,3.414    c-6.523,3.991-11.101,10.286-12.891,17.721l-0.819,3.402c-0.581,0.15-1.163,0.301-1.745,0.436    c-0.278,0.065-0.559,0.121-0.837,0.183c-0.606,0.133-1.21,0.265-1.818,0.382c-0.295,0.058-0.591,0.109-0.886,0.164    c-0.613,0.111-1.226,0.22-1.84,0.315c-0.252,0.04-0.505,0.077-0.757,0.114c-0.703,0.103-1.406,0.198-2.11,0.281    c-0.151,0.018-0.303,0.036-0.454,0.053c-3.404,0.379-6.817,0.516-10.231,0.423c-0.327-0.01-0.655-0.014-0.984-0.027    c-0.706-0.029-1.412-0.071-2.118-0.12c-0.446-0.031-0.893-0.069-1.339-0.108c-0.693-0.061-1.387-0.122-2.08-0.203    c-0.952-0.111-1.905-0.239-2.859-0.387c-0.471-0.072-0.942-0.16-1.412-0.241c-0.766-0.134-1.531-0.276-2.294-0.436    c-0.39-0.079-0.779-0.157-1.168-0.243c-1.149-0.255-2.299-0.529-3.448-0.838c-0.143-0.038-0.284-0.083-0.427-0.122    c-1.051-0.288-2.1-0.601-3.148-0.934c-0.316-0.101-0.632-0.203-0.947-0.307c-2.477-0.818-4.948-1.75-7.41-2.816    c-20.149-8.727-40.868-13.153-61.579-13.153c-12.594,0-25.058,1.634-37.047,4.856c-7.16,1.925-14.082,4.388-20.689,7.332    C50.225,15.193,40.043,8.398,28.647,8.398c-2.503,0-5.007,0.331-7.443,0.986C5.958,13.481-3.112,29.219,0.984,44.466    l116.583,433.783c0.048,5.12,1.477,10.148,4.218,14.627c3.992,6.524,10.286,11.101,17.72,12.892    c2.242,0.539,4.506,0.807,6.756,0.807c5.209,0,10.334-1.433,14.89-4.221c6.524-3.991,11.101-10.285,12.891-17.72l49.4-205.227    c0.973-4.042-1.515-8.106-5.557-9.08c-4.043-0.971-8.107,1.516-9.08,5.557l-49.4,205.227c-0.848,3.527-3.019,6.51-6.111,8.402    c-3.092,1.894-6.737,2.466-10.264,1.618c-3.526-0.848-6.51-3.019-8.402-6.112c-1.398-2.285-2.073-4.873-1.988-7.492    c0.014-0.436,0.051-0.867,0.105-1.296c0.005-0.034,0.005-0.068,0.009-0.102c0.063-0.464,0.148-0.922,0.257-1.374l94.102-390.926    l10.894-45.26c0,0,0-0.002,0.001-0.004l1.848-7.677c0.849-3.527,3.02-6.512,6.112-8.404c3.094-1.894,6.74-2.468,10.263-1.618    c7.277,1.752,11.774,9.099,10.021,16.376l-1.065,4.42v0.001L254.04,87.972l-39.039,162.18c-0.973,4.041,1.516,8.106,5.557,9.08    c4.04,0.967,8.105-1.516,9.08-5.557l5.371-22.314c3.798,0.104,8.665,0.467,14.244,1.407c2.289,0.386,4.697,0.869,7.198,1.471    c6.208,1.493,12.189,3.496,17.938,5.999c17.245,7.509,32.387,19.53,45.176,35.898c0.901,1.154,1.827,2.281,2.762,3.397    c0.222,0.264,0.441,0.528,0.664,0.79c0.855,1.002,1.721,1.989,2.602,2.959c0.339,0.373,0.683,0.738,1.025,1.104    c0.6,0.645,1.205,1.28,1.818,1.907c0.598,0.615,1.2,1.221,1.809,1.821c0.562,0.552,1.125,1.101,1.695,1.639    c0.515,0.487,1.032,0.969,1.555,1.445c0.519,0.473,1.044,0.935,1.57,1.397c0.894,0.785,1.799,1.554,2.713,2.307    c0.343,0.283,0.687,0.566,1.033,0.845c0.686,0.552,1.375,1.096,2.073,1.63c0.208,0.159,0.419,0.312,0.627,0.47    c1.447,1.093,2.919,2.146,4.411,3.158c0.17,0.115,0.337,0.234,0.508,0.348c0.804,0.539,1.614,1.067,2.432,1.583    c0.18,0.113,0.36,0.225,0.541,0.337c2.505,1.565,5.069,3.025,7.694,4.376c0.311,0.16,0.623,0.317,0.935,0.475    c1.706,0.858,3.433,1.68,5.189,2.449c0.046,0.02,0.09,0.041,0.135,0.061c0.68,0.297,1.368,0.579,2.055,0.862    c0.601,0.249,1.203,0.492,1.809,0.73c0.611,0.239,1.221,0.48,1.838,0.708c1.155,0.431,2.319,0.845,3.494,1.239    c0.382,0.127,0.77,0.243,1.152,0.366c0.993,0.32,1.991,0.628,2.997,0.922c0.414,0.12,0.83,0.241,1.247,0.357    c1.349,0.377,2.705,0.74,4.076,1.07c9.361,2.253,19.27,3.395,29.45,3.395c0.002,0,0.001,0,0.003,0    c28.303,0,50.136-8.874,51.043-9.249c5.213-2.145,9.113-6.696,10.434-12.176l38.558-160.18    C513.061,132.209,510.889,125.499,505.832,121.164z M79.367,32.577c10.715-2.879,21.864-4.34,33.14-4.34    c18.641,0,37.347,4.008,55.597,11.912c1.261,0.546,2.524,1.056,3.789,1.547l18.851,70.143    c-17.903-6.816-36.195-10.27-54.481-10.27c-12.596,0-25.06,1.634-37.047,4.856c-7.034,1.891-13.844,4.304-20.354,7.182    L59.064,39.949C64.329,37.504,71.225,34.766,79.367,32.577z M124.466,445.914L15.523,40.558    c-1.943-7.23,2.357-14.693,9.587-16.636c1.161-0.313,2.352-0.471,3.536-0.471c6.12,0,11.507,4.136,13.098,10.057l1.178,4.385    c0.001,0.003,0.001,0.005,0.002,0.007l48.17,179.232l0.001,0.004l46.654,173.59L124.466,445.914z M145.116,360.13l-37.949-141.204    c4.806-2.449,11.696-5.445,20.206-7.731c9.212-2.476,18.636-3.732,28.012-3.732c8.495,0,17.125,1.046,25.738,3.083L145.116,360.13    z M184.65,195.895c-9.77-2.315-19.583-3.486-29.266-3.486c-10.695,0-21.435,1.429-31.92,4.247    c-8.123,2.184-14.999,4.952-20.28,7.456l-20.368-75.784c6.437-2.997,13.243-5.466,20.305-7.364    c10.714-2.88,21.863-4.34,33.14-4.34c18.641,0,37.345,4.007,55.596,11.911c1.252,0.541,2.518,1.059,3.791,1.554l2.554,9.501    L184.65,195.895z M205.57,108.992L188.8,46.596c0.308,0.061,0.618,0.103,0.928,0.159c0.72,0.13,1.44,0.254,2.16,0.366    c0.529,0.083,1.06,0.164,1.589,0.237c0.702,0.097,1.403,0.182,2.106,0.262c0.527,0.061,1.055,0.126,1.582,0.178    c0.799,0.077,1.598,0.135,2.397,0.191c0.669,0.047,1.338,0.088,2.007,0.12c0.899,0.042,1.801,0.078,2.7,0.093    c0.534,0.01,1.069,0.002,1.604,0.001c0.689-0.001,1.378-0.004,2.067-0.021c0.549-0.014,1.098-0.037,1.647-0.061    c0.694-0.03,1.386-0.068,2.08-0.115c0.522-0.034,1.044-0.07,1.567-0.115c0.773-0.066,1.545-0.147,2.317-0.233    c0.44-0.049,0.877-0.091,1.316-0.147c1.21-0.153,2.422-0.324,3.631-0.528L205.57,108.992z M278.38,51.184    c5.793,0.372,13.158,1.267,21.354,3.24c20.195,4.861,49.479,17.325,74.304,49.095c0.847,1.084,1.708,2.145,2.584,3.182    l-16.995,70.604c-26.415-30.846-56.579-43.432-77.789-48.536c-7.082-1.706-14.215-2.844-21.309-3.43L278.38,51.184z     M341.463,252.768l-4.87,20.229c-0.473-0.523-0.936-1.061-1.402-1.595c-0.38-0.437-0.768-0.863-1.142-1.309    c-0.888-1.054-1.764-2.129-2.624-3.229c-19.198-24.568-43.238-40.469-71.452-47.262c-8.215-1.977-15.579-2.832-21.374-3.157    l18.364-76.288c7.087,0.447,14.245,1.534,21.353,3.246c20.191,4.859,49.473,17.321,74.302,49.092    c0.84,1.076,1.704,2.139,2.586,3.182L341.463,252.768z M475.447,224.135v0.001l-17.138,71.198c-0.192,0.8-0.762,1.464-1.531,1.78    c-0.801,0.332-19.953,8.115-45.308,8.114c-2.249,0-4.481-0.063-6.691-0.188c-6.633-0.374-13.079-1.309-19.236-2.79    c-0.011-0.002-0.021-0.006-0.031-0.008c-1.182-0.285-2.352-0.598-3.513-0.923c-0.277-0.077-0.556-0.155-0.832-0.234    c-1.114-0.322-2.22-0.661-3.316-1.022c-0.27-0.088-0.537-0.183-0.806-0.273c-0.909-0.308-1.812-0.628-2.707-0.961    c-0.285-0.105-0.572-0.208-0.856-0.316c-1.017-0.389-2.023-0.799-3.023-1.221c-0.357-0.151-0.715-0.307-1.071-0.462    c-0.904-0.396-1.804-0.803-2.694-1.226c-0.316-0.151-0.63-0.305-0.943-0.459c-0.834-0.407-1.661-0.829-2.482-1.262    c-0.33-0.175-0.661-0.348-0.99-0.526c-0.955-0.519-1.904-1.052-2.841-1.605c-0.264-0.155-0.524-0.315-0.784-0.473    c-0.847-0.51-1.687-1.032-2.518-1.569c-0.186-0.12-0.373-0.236-0.559-0.358c-0.978-0.641-1.941-1.306-2.896-1.984    c-0.207-0.148-0.413-0.297-0.619-0.447c-0.952-0.688-1.896-1.392-2.825-2.119l8.722-36.233l9.751-40.508    c0.038,0.031,0.077,0.061,0.115,0.092c0.132,0.109,0.268,0.214,0.4,0.321c0.664,0.539,1.336,1.068,2.013,1.587    c0.25,0.191,0.502,0.38,0.753,0.568c0.607,0.455,1.219,0.901,1.835,1.34c0.229,0.162,0.456,0.327,0.685,0.487    c0.827,0.576,1.661,1.141,2.505,1.688c0.125,0.08,0.253,0.158,0.378,0.237c0.727,0.466,1.46,0.92,2.199,1.363    c0.27,0.163,0.541,0.321,0.813,0.481c0.639,0.374,1.284,0.741,1.932,1.099c0.255,0.141,0.508,0.283,0.764,0.422    c0.882,0.476,1.77,0.94,2.667,1.385c0.104,0.052,0.209,0.1,0.313,0.151c0.802,0.393,1.609,0.774,2.424,1.144    c0.286,0.13,0.574,0.256,0.861,0.383c0.675,0.298,1.356,0.588,2.039,0.87c0.275,0.113,0.551,0.23,0.828,0.34    c0.936,0.374,1.878,0.738,2.829,1.083c0.064,0.023,0.131,0.045,0.197,0.068c0.891,0.319,1.79,0.623,2.696,0.917    c0.296,0.096,0.594,0.189,0.892,0.281c0.716,0.225,1.435,0.44,2.158,0.647c0.295,0.084,0.589,0.17,0.885,0.252    c0.99,0.272,1.986,0.536,2.992,0.778c7.827,1.884,16.15,2.839,24.737,2.839c18.552,0,33.946-4.47,40.261-6.613    c0.286-0.098,0.555-0.19,0.804-0.276c0.414-0.146,0.774-0.274,1.078-0.386c0.307-0.112,0.558-0.208,0.748-0.28    c0.177-0.067,0.312-0.12,0.384-0.148c0.042-0.018,0.065-0.027,0.071-0.029c0.883-0.363,1.938-0.187,2.652,0.423    c0.554,0.476,0.871,1.146,0.9,1.85C475.526,223.66,475.503,223.899,475.447,224.135z M496.868,135.159l-17.338,72.026    c-0.073-0.029-0.15-0.049-0.224-0.077c-0.328-0.127-0.663-0.237-0.999-0.345c-0.166-0.052-0.329-0.111-0.497-0.159    c-1.572-0.452-3.208-0.695-4.868-0.695c-2.31,0-4.565,0.446-6.672,1.313c-0.165,0.066-16.653,6.614-37.649,6.615    c-1.031,0-2.054-0.02-3.075-0.051c-6.304-0.195-12.394-0.988-18.139-2.371c-0.893-0.215-1.777-0.447-2.656-0.69    c-0.3-0.084-0.596-0.177-0.894-0.264c-0.575-0.168-1.151-0.336-1.722-0.517c-0.349-0.11-0.693-0.231-1.042-0.346    c-0.512-0.17-1.024-0.34-1.53-0.522c-0.365-0.13-0.728-0.268-1.091-0.404c-0.482-0.181-0.964-0.362-1.441-0.552    c-0.367-0.146-0.733-0.299-1.098-0.451c-0.468-0.194-0.932-0.392-1.395-0.596c-0.364-0.161-0.728-0.325-1.089-0.492    c-0.455-0.209-0.907-0.424-1.358-0.641c-0.359-0.175-0.718-0.351-1.074-0.531c-0.449-0.226-0.894-0.46-1.338-0.695    c-0.348-0.185-0.695-0.369-1.041-0.56c-0.45-0.248-0.896-0.506-1.34-0.764c-0.331-0.192-0.662-0.38-0.99-0.578    c-0.463-0.277-0.919-0.565-1.376-0.854c-0.302-0.191-0.606-0.377-0.907-0.572c-0.506-0.33-1.006-0.673-1.505-1.017    c-0.243-0.167-0.488-0.326-0.73-0.496c-0.735-0.518-1.462-1.049-2.182-1.594c-0.091-0.069-0.18-0.143-0.27-0.212    c-0.629-0.482-1.254-0.974-1.871-1.477c-0.243-0.199-0.482-0.407-0.725-0.61c-0.458-0.383-0.916-0.767-1.367-1.162    c-0.276-0.241-0.545-0.491-0.817-0.737c-0.41-0.37-0.821-0.741-1.226-1.121c-0.283-0.268-0.563-0.541-0.845-0.814    c-0.258-0.249-0.514-0.502-0.77-0.757l17.404-72.305c0.252,0.208,0.51,0.406,0.764,0.611c0.595,0.479,1.194,0.95,1.799,1.414    c0.543,0.416,1.088,0.828,1.64,1.231c0.475,0.346,0.953,0.685,1.434,1.021c0.417,0.292,0.836,0.578,1.257,0.862    c0.698,0.471,1.402,0.932,2.113,1.383c0.522,0.332,1.047,0.662,1.575,0.983c0.482,0.292,0.969,0.576,1.456,0.858    c0.49,0.284,0.984,0.563,1.48,0.837c0.602,0.333,1.206,0.662,1.817,0.983c0.669,0.351,1.343,0.694,2.021,1.028    c0.437,0.215,0.875,0.424,1.315,0.631c0.661,0.312,1.328,0.614,1.998,0.91c0.39,0.172,0.778,0.345,1.17,0.512    c0.88,0.374,1.769,0.732,2.663,1.077c0.355,0.137,0.714,0.271,1.072,0.404c0.904,0.337,1.815,0.662,2.733,0.971    c0.143,0.049,0.283,0.101,0.428,0.149c1.064,0.352,2.141,0.678,3.224,0.993c0.286,0.083,0.574,0.165,0.862,0.246    c1.112,0.311,2.229,0.609,3.359,0.882c7.829,1.885,16.152,2.841,24.739,2.841c24.335-0.001,43.168-7.661,43.346-7.734    c0.881-0.365,1.938-0.189,2.653,0.424C496.778,133.234,497.096,134.213,496.868,135.159z"/>
	</g>
</g>
<g>
</g>
<g>
</g>
<g>
</g>
<g>
</g>
<g>
</g>
<g>
</g>
<g>
</g>
<g>
</g>
<g>
</g>
<g>
</g>
<g>
</g>
<g>
</g>
<g>
</g>
<g>
</g>
<g>
</g>
</svg>
