<?xml version="1.0" encoding="iso-8859-1"?>
<!-- Generator: Adobe Illustrator 19.0.0, SVG Export Plug-In . SVG Version: 6.00 Build 0)  -->
<svg xmlns="http://www.w3.org/2000/svg" xmlns:xlink="http://www.w3.org/1999/xlink" version="1.1" id="Layer_1" x="0px" y="0px" viewBox="0 0 512.001 512.001" style="enable-background:new 0 0 512.001 512.001;" xml:space="preserve">
<g>
	<g>
		<g>
			<path d="M163.135,329.125c0.003,0.037,0.004,0.073,0.007,0.11c0.079,1.062,0.181,2.117,0.295,3.169     c0.023,0.221,0.05,0.441,0.075,0.662c0.105,0.896,0.221,1.789,0.35,2.678c0.019,0.129,0.031,0.259,0.051,0.388     c0.002,0.017,0.008,0.031,0.011,0.047c2.575,17.1,9.816,32.69,20.382,45.431c0.109,0.151,0.208,0.309,0.329,0.453     c11.039,13.162,25.273,22.849,41.185,28.286c0.139,0.049,0.277,0.098,0.416,0.146c0.666,0.224,1.333,0.443,2.005,0.652     c0.845,0.265,1.695,0.515,2.55,0.756c0.485,0.136,0.972,0.268,1.46,0.396c1.022,0.271,2.053,0.524,3.089,0.761     c0.315,0.071,0.633,0.139,0.949,0.207c1.189,0.257,2.387,0.495,3.592,0.706c0.153,0.027,0.307,0.051,0.459,0.076     c5.094,0.867,10.325,1.324,15.661,1.324c7.336,0,14.477-0.856,21.328-2.468c0.033-0.008,0.066-0.01,0.1-0.018     c0.178-0.042,0.353-0.094,0.53-0.137c0.844-0.204,1.683-0.421,2.518-0.648c0.29-0.079,0.581-0.154,0.871-0.236     c0.964-0.272,1.92-0.565,2.871-0.868c0.319-0.102,0.639-0.206,0.957-0.312c0.98-0.324,1.956-0.66,2.922-1.017     c0.179-0.065,0.354-0.135,0.532-0.202c0.937-0.352,1.866-0.719,2.789-1.099c0.164-0.068,0.329-0.134,0.492-0.202     c1.026-0.431,2.041-0.881,3.048-1.347c0.17-0.078,0.34-0.158,0.511-0.238c1.031-0.485,2.054-0.984,3.064-1.505     c0.062-0.032,0.122-0.065,0.184-0.097c0.966-0.502,1.922-1.022,2.868-1.555c0.155-0.088,0.313-0.173,0.467-0.262     c0.908-0.519,1.807-1.055,2.695-1.603c0.281-0.174,0.561-0.35,0.842-0.526c0.763-0.482,1.521-0.972,2.268-1.475     c0.438-0.295,0.869-0.597,1.302-0.898c0.408-0.285,0.815-0.572,1.22-0.864c6.454-4.644,12.34-10.1,17.436-16.266     c0.161-0.195,0.3-0.402,0.439-0.609c10.26-12.612,17.292-27.948,19.82-44.742c0.003-0.016,0.009-0.03,0.011-0.047     c0.02-0.129,0.032-0.259,0.051-0.388c0.129-0.889,0.245-1.781,0.35-2.678c0.025-0.221,0.052-0.441,0.075-0.662     c0.114-1.052,0.216-2.107,0.295-3.169c0.003-0.037,0.004-0.073,0.007-0.11c0.073-1,0.127-2.006,0.168-3.014     c0.01-0.241,0.02-0.482,0.027-0.723c0.035-1.042,0.059-2.086,0.059-3.135c0-1.044-0.023-2.082-0.058-3.117     c-0.01-0.281-0.021-0.561-0.032-0.842c-0.038-0.903-0.087-1.803-0.15-2.699c-0.011-0.15-0.017-0.301-0.029-0.45     c-0.074-0.979-0.168-1.952-0.272-2.922c-0.038-0.354-0.079-0.709-0.122-1.064c-0.082-0.693-0.173-1.384-0.271-2.072     c-0.06-0.426-0.12-0.853-0.187-1.278c-0.12-0.768-0.249-1.532-0.388-2.293c-0.093-0.512-0.193-1.022-0.295-1.531     c-0.08-0.405-0.165-0.808-0.252-1.211c-0.262-1.233-0.547-2.46-0.859-3.681c-0.008-0.031-0.016-0.061-0.023-0.093     c-0.184-0.714-0.378-1.425-0.578-2.135c-0.019-0.064-0.037-0.126-0.055-0.19c-2.707-9.497-6.917-18.542-12.568-26.827     c-0.117-0.172-0.253-0.324-0.382-0.484c-11.463-16.548-28.142-29.219-47.64-35.613c-0.078-0.028-0.15-0.066-0.229-0.092     c-0.251-0.082-0.506-0.15-0.758-0.229c-0.638-0.202-1.279-0.395-1.924-0.583c-0.556-0.161-1.113-0.317-1.672-0.469     c-0.645-0.176-1.295-0.345-1.946-0.507c-0.38-0.094-0.759-0.189-1.14-0.278c-0.931-0.219-1.866-0.423-2.808-0.613     c-0.307-0.061-0.615-0.118-0.923-0.177c-0.82-0.158-1.644-0.305-2.473-0.439c-0.241-0.04-0.482-0.083-0.724-0.121     c-1.015-0.157-2.035-0.296-3.061-0.42c-0.269-0.033-0.538-0.063-0.808-0.093c-0.967-0.108-1.936-0.206-2.912-0.284     c-0.11-0.01-0.221-0.021-0.331-0.03c-1.064-0.082-2.134-0.142-3.207-0.188c-0.259-0.011-0.519-0.021-0.778-0.029     c-1.084-0.038-2.171-0.064-3.264-0.064c-1.093,0-2.18,0.025-3.264,0.064c-0.26,0.009-0.52,0.018-0.778,0.029     c-1.073,0.046-2.143,0.105-3.207,0.188c-0.11,0.009-0.221,0.02-0.331,0.03c-0.976,0.078-1.945,0.176-2.912,0.284     c-0.27,0.03-0.539,0.06-0.808,0.093c-1.025,0.124-2.046,0.263-3.061,0.42c-0.241,0.038-0.482,0.081-0.724,0.121     c-0.828,0.135-1.652,0.281-2.473,0.439c-0.308,0.059-0.616,0.115-0.923,0.177c-0.941,0.191-1.877,0.395-2.808,0.613     c-0.381,0.089-0.76,0.185-1.14,0.278c-0.651,0.162-1.301,0.331-1.946,0.507c-0.559,0.151-1.116,0.308-1.672,0.469     c-0.645,0.189-1.286,0.381-1.924,0.583c-0.252,0.078-0.507,0.146-0.758,0.229c-0.078,0.025-0.15,0.063-0.229,0.092     c-19.501,6.395-36.181,19.067-47.643,35.619c-0.128,0.158-0.263,0.31-0.379,0.48c-5.626,8.25-9.823,17.254-12.531,26.705     c-0.038,0.13-0.076,0.259-0.112,0.389c-0.188,0.669-0.372,1.339-0.546,2.012c-0.044,0.172-0.084,0.346-0.128,0.518     c-0.269,1.067-0.519,2.141-0.749,3.218c-0.096,0.447-0.19,0.895-0.279,1.345c-0.097,0.483-0.191,0.968-0.279,1.452     c-0.152,0.837-0.297,1.676-0.427,2.519c-0.053,0.343-0.098,0.688-0.146,1.03c-0.102,0.713-0.196,1.428-0.281,2.146     c-0.041,0.342-0.081,0.686-0.118,1.029c-0.105,0.976-0.199,1.954-0.274,2.939c-0.011,0.143-0.017,0.287-0.027,0.43     c-0.063,0.902-0.113,1.808-0.151,2.717c-0.012,0.278-0.022,0.557-0.032,0.837c-0.034,1.036-0.058,2.074-0.058,3.118     c0,1.049,0.024,2.093,0.059,3.135c0.008,0.24,0.018,0.481,0.027,0.723C163.008,327.119,163.062,328.125,163.135,329.125z      M207.795,383.657l15.669-0.992l7.339,13.514C222.398,393.304,214.64,389.042,207.795,383.657z M299.721,386.959     c-0.069,0.047-0.139,0.092-0.207,0.139c-0.928,0.624-1.87,1.228-2.824,1.813c-0.105,0.065-0.209,0.131-0.315,0.194     c-0.983,0.597-1.981,1.169-2.992,1.723c-0.187,0.103-0.376,0.199-0.564,0.3c-0.847,0.455-1.702,0.893-2.566,1.316     c-0.218,0.108-0.434,0.216-0.652,0.32c-0.147,0.07-0.299,0.133-0.446,0.202l5.542-13.171l11.824,1.972     C304.348,383.614,302.086,385.355,299.721,386.959z M328.199,292.457c1.362,3.288,2.515,6.685,3.423,10.181     c0.029,0.117,0.058,0.234,0.087,0.352c0.267,1.047,0.509,2.102,0.732,3.164c0.054,0.258,0.107,0.518,0.158,0.776     c0.189,0.944,0.357,1.896,0.511,2.852c0.049,0.306,0.102,0.61,0.147,0.916c0.148,0.996,0.273,2,0.384,3.008     c0.025,0.235,0.06,0.47,0.083,0.707c0.117,1.174,0.206,2.356,0.271,3.546l-11.022-10.825L328.199,292.457z M247.661,244.585     c0.194-0.02,0.389-0.044,0.583-0.063c1.141-0.112,2.288-0.199,3.442-0.262c0.246-0.014,0.493-0.023,0.74-0.034     c1.152-0.052,2.311-0.087,3.476-0.089c0.064,0,0.129,0,0.193,0c1.165,0.002,2.323,0.037,3.476,0.089     c0.247,0.011,0.494,0.02,0.74,0.034c1.154,0.063,2.302,0.149,3.442,0.262c0.194,0.02,0.389,0.043,0.583,0.063     c0.441,0.048,0.878,0.113,1.318,0.168l-9.657,7.852l-9.657-7.852C246.784,244.699,247.22,244.633,247.661,244.585z      M228.143,249.289l23.125,18.803c1.378,1.12,3.055,1.681,4.731,1.681c1.677,0,3.353-0.561,4.731-1.681l23.125-18.803     c13.814,5.291,25.757,14.385,34.527,26.01l-11.151,31.316c-0.979,2.751-0.273,5.82,1.811,7.867l23.549,23.125     c-2.287,11.428-7.074,21.961-13.768,31.007l-27.509-4.591c-3.424-0.57-6.8,1.285-8.148,4.489l-12.84,30.52     c-4.648,0.865-9.434,1.34-14.329,1.34c-2.017,0-4.008-0.102-5.986-0.252l-15.652-28.823c-1.393-2.566-4.156-4.081-7.064-3.906     l-33.446,2.118c-7.045-9.244-12.081-20.093-14.444-31.901l23.551-23.125c2.084-2.046,2.79-5.116,1.811-7.867l-11.152-31.316     C202.386,263.672,214.329,254.58,228.143,249.289z M178.276,314.414c0.024-0.241,0.059-0.48,0.085-0.722     c0.109-1,0.233-1.998,0.381-2.986c0.047-0.314,0.101-0.628,0.151-0.941c0.152-0.943,0.318-1.883,0.504-2.815     c0.054-0.272,0.11-0.545,0.167-0.817c0.219-1.037,0.456-2.068,0.716-3.092c0.036-0.143,0.069-0.286,0.106-0.429     c0.906-3.486,2.057-6.875,3.416-10.156l5.227,14.679l-11.024,10.825C178.07,316.77,178.159,315.588,178.276,314.414z"/>
			<path d="M232.637,354.402c1.229,2.652,3.885,4.35,6.807,4.35h33.111c2.922,0,5.578-1.697,6.806-4.349l16.56-35.766     c1.405-3.034,0.632-6.632-1.895-8.822l-33.115-28.678c-2.818-2.439-7.002-2.44-9.821,0.001l-33.111,28.678     c-2.527,2.188-3.301,5.785-1.896,8.82L232.637,354.402z M256,296.73l23.936,20.728l-12.173,26.293h-23.525l-12.171-26.293     L256,296.73z"/>
			<path d="M504.501,230.215c-4.143,0-7.5,3.357-7.5,7.5V438.17h-15.603V179.422c0-4.143-3.357-7.5-7.5-7.5H38.104     c-4.143,0-7.5,3.357-7.5,7.5V438.17H15.001V178.811c0-12.402,10.089-22.491,22.489-22.491h437.016     c12.402,0,22.491,10.09,22.491,22.491v32.897c0.001,4.143,3.358,7.5,7.501,7.5c4.143,0,7.5-3.357,7.5-7.5v-32.897     c0-20.673-16.819-37.492-37.492-37.492H37.49C16.818,141.319,0,158.138,0,178.811v266.86c0,4.143,3.357,7.5,7.5,7.5h30.604     c4.143,0,7.5-3.357,7.5-7.5V186.923h420.792V445.67c0,4.143,3.357,7.5,7.5,7.5h30.604c4.143,0,7.5-3.357,7.5-7.5V237.716     C512.001,233.573,508.644,230.215,504.501,230.215z"/>
			<path d="M504.5,464.487H7.5c-4.143,0-7.5,3.357-7.5,7.5s3.357,7.5,7.5,7.5H504.5c4.143,0,7.5-3.357,7.5-7.5     S508.642,464.487,504.5,464.487z"/>
			<path d="M256.288,113.514c4.143,0,7.5-3.357,7.5-7.5v-66c0-4.142-3.357-7.5-7.5-7.5s-7.5,3.358-7.5,7.5v66     C248.786,110.156,252.144,113.514,256.288,113.514z"/>
			<path d="M318.174,123.947c1.066,0.525,2.196,0.774,3.31,0.774c2.767,0,5.428-1.537,6.733-4.187l29.174-59.2     c1.831-3.716,0.303-8.213-3.412-10.044c-3.717-1.831-8.212-0.305-10.044,3.412l-29.174,59.201     C312.931,117.62,314.459,122.116,318.174,123.947z"/>
			<path d="M184.358,120.535c1.306,2.649,3.967,4.187,6.733,4.187c1.113,0,2.243-0.249,3.31-0.774     c3.715-1.831,5.243-6.327,3.412-10.044L168.64,54.703c-1.831-3.717-6.326-5.243-10.044-3.412     c-3.715,1.831-5.243,6.327-3.412,10.044L184.358,120.535z"/>
		</g>
	</g>
</g>
<g>
</g>
<g>
</g>
<g>
</g>
<g>
</g>
<g>
</g>
<g>
</g>
<g>
</g>
<g>
</g>
<g>
</g>
<g>
</g>
<g>
</g>
<g>
</g>
<g>
</g>
<g>
</g>
<g>
</g>
</svg>
