<?xml version="1.0" encoding="iso-8859-1"?>
<!-- Generator: Adobe Illustrator 19.0.0, SVG Export Plug-In . SVG Version: 6.00 Build 0)  -->
<svg xmlns="http://www.w3.org/2000/svg" xmlns:xlink="http://www.w3.org/1999/xlink" version="1.1" id="Layer_1" x="0px" y="0px" viewBox="0 0 512 512" style="enable-background:new 0 0 512 512;" xml:space="preserve">
<g>
	<g>
		<g>
			<path d="M468.63,6.881h-41.927C426.387,3.029,423.167,0,419.234,0c-3.934,0-7.153,3.029-7.469,6.881H100.793     C100.478,3.029,97.257,0,93.323,0s-7.153,3.029-7.469,6.881H43.37c-14.62,0-26.516,11.894-26.516,26.516     c0,14.621,11.895,26.516,26.516,26.516h42.453v25.193H72.781c-9.428,0-18.033,4.778-23.019,12.783     c-4.981,8.003-5.474,17.833-1.314,26.296l183.219,372.662C236.262,506.195,245.586,512,256,512     c10.414,0,19.738-5.806,24.333-15.153l160.139-325.718c1.827-3.717,0.296-8.212-3.422-10.039     c-3.717-1.826-8.212-0.296-10.039,3.422L266.871,490.23c-2.053,4.176-6.219,6.77-10.871,6.77c-4.652,0-8.818-2.594-10.871-6.77     L61.909,117.567c-1.858-3.781-1.64-8.173,0.586-11.748c2.228-3.576,6.072-5.712,10.285-5.712h366.439     c4.213,0,8.057,2.135,10.283,5.712c2.227,3.575,2.446,7.967,0.587,11.748l-12.154,24.723c-1.828,3.717-0.296,8.212,3.422,10.039     c3.717,1.829,8.212,0.297,10.039-3.422l12.154-24.722c4.161-8.462,3.67-18.293-1.315-26.296     c-4.983-8.004-13.589-12.783-23.018-12.783h-12.485V59.912h41.896c14.622,0,26.517-11.895,26.517-26.516     C495.146,18.776,483.251,6.881,468.63,6.881z M85.823,44.912H43.37c-6.35,0-11.515-5.165-11.515-11.515     s5.165-11.515,11.515-11.515h42.453V44.912z M411.733,85.106h-310.91V59.912h26.197c4.143,0,7.5-3.357,7.5-7.5     c0-4.143-3.357-7.5-7.5-7.5h-26.197v-23.03h310.909v23.03h-258.21c-4.143,0-7.5,3.357-7.5,7.5c0,4.143,3.357,7.5,7.5,7.5h258.211     V85.106z M468.63,44.912h-41.896v-23.03h41.896c6.35,0,11.516,5.165,11.516,11.515S474.98,44.912,468.63,44.912z"/>
			<polygon points="246.31,189.338 246.31,172.131 176.581,172.131 176.581,273.099 196.754,273.099 196.754,231.289      237.978,231.289 237.978,215.362 196.754,215.362 196.754,189.338    "/>
			<path d="M279.859,199.648c2.484-3.175,5.602-5.759,9.354-7.75c3.751-1.99,8.161-2.986,13.23-2.986     c2.338,0,4.725,0.263,7.162,0.782c2.435,0.522,4.773,1.352,7.016,2.489c2.241,1.138,4.336,2.68,6.286,4.621     c1.948,1.944,3.604,4.337,4.97,7.182l15.495-10.381c-3.412-6.542-8.602-11.85-15.567-15.928     c-6.969-4.075-15.229-6.115-24.778-6.115c-8.09,0-15.302,1.472-21.635,4.408c-6.335,2.94-11.694,6.779-16.08,11.519     c-4.385,4.742-7.725,10.121-10.014,16.142c-2.29,6.021-3.435,12.111-3.435,18.273c0,6.448,1.243,12.776,3.728,18.985     c2.484,6.21,5.943,11.756,10.379,16.639c4.433,4.884,9.721,8.841,15.86,11.874c6.14,3.035,12.912,4.551,20.319,4.551     c4.189,0,8.479-0.522,12.863-1.564c4.385-1.042,8.501-2.56,12.352-4.551c3.849-1.99,7.309-4.431,10.379-7.323     c3.069-2.891,5.432-6.233,7.09-10.025l-16.518-9.243c-1.17,2.751-2.73,5.097-4.678,7.039c-1.951,1.944-4.07,3.533-6.359,4.764     c-2.291,1.233-4.703,2.133-7.235,2.702c-2.535,0.568-4.97,0.853-7.309,0.853c-4.483,0-8.602-0.947-12.353-2.845     c-3.752-1.895-6.968-4.408-9.646-7.536c-2.682-3.129-4.751-6.755-6.213-10.879c-1.462-4.124-2.192-8.412-2.192-12.869     c0-3.981,0.632-7.985,1.899-12.017C275.495,206.427,277.373,202.825,279.859,199.648z"/>
		</g>
	</g>
</g>
<g>
</g>
<g>
</g>
<g>
</g>
<g>
</g>
<g>
</g>
<g>
</g>
<g>
</g>
<g>
</g>
<g>
</g>
<g>
</g>
<g>
</g>
<g>
</g>
<g>
</g>
<g>
</g>
<g>
</g>
</svg>
