<?xml version="1.0" encoding="iso-8859-1"?>
<!-- Generator: Adobe Illustrator 19.0.0, SVG Export Plug-In . SVG Version: 6.00 Build 0)  -->
<svg xmlns="http://www.w3.org/2000/svg" xmlns:xlink="http://www.w3.org/1999/xlink" version="1.1" id="Layer_1" x="0px" y="0px" viewBox="0 0 511.998 511.998" style="enable-background:new 0 0 511.998 511.998;" xml:space="preserve">
<g>
	<g>
		<g>
			<path d="M220.67,331.359c-1.428-3.891-5.74-5.887-9.626-4.456c-3.889,1.428-5.884,5.738-4.456,9.626l9.055,24.661l-36.32,36.318     l-58.298-21.403l4.905-68.309l68.309-4.905l3.456,9.413c1.427,3.887,5.737,5.886,9.626,4.456c3.89-1.427,5.884-5.737,4.456-9.626     l-5.402-14.714c-1.152-3.138-4.234-5.153-7.578-4.897l-80.42,5.774c-3.719,0.267-6.678,3.225-6.944,6.944l-5.774,80.42     c-0.242,3.338,1.754,6.429,4.894,7.58l68.099,25.001c0.843,0.31,1.717,0.46,2.584,0.46c1.955,0,3.872-0.765,5.305-2.196     l43.099-43.097c2.067-2.066,2.745-5.146,1.737-7.89L220.67,331.359z"/>
			<path d="M509.757,113.627c-2.93-2.928-7.679-2.928-10.608,0L320.732,292.044c-5.321-15.174-12.922-29.719-22.799-43.1     c-0.016-0.022-0.027-0.046-0.043-0.067c-0.131-0.177-0.272-0.348-0.403-0.525c-0.949-1.273-1.921-2.535-2.911-3.786     c-0.257-0.324-0.513-0.65-0.772-0.972c-1.169-1.455-2.36-2.899-3.587-4.322c-0.035-0.041-0.071-0.081-0.106-0.121     c-1.029-1.194-2.083-2.374-3.153-3.544L471.973,50.589c2.929-2.93,2.929-7.679,0-10.608c-2.93-2.928-7.679-2.928-10.608,0     L276.352,224.994c-2.683-2.455-5.438-4.809-8.252-7.066c-0.127-0.102-0.254-0.203-0.381-0.305     c-14.448-11.519-30.553-20.427-47.733-26.472L398.327,12.805c2.929-2.93,2.929-7.679,0-10.608c-2.93-2.928-7.679-2.928-10.608,0     L203.586,186.333c-12.479-2.971-25.392-4.511-38.543-4.511c-19.897,0-39.254,3.508-57.375,10.21L245.621,54.08     c2.929-2.93,2.929-7.679,0-10.608c-2.93-2.928-7.679-2.928-10.608,0L48.307,230.176c-0.024,0.024-0.046,0.049-0.07,0.073     c-1.338,1.34-2.638,2.702-3.922,4.077c-0.325,0.349-0.65,0.698-0.973,1.05c-1.28,1.395-2.541,2.804-3.766,4.234     c-0.131,0.152-0.256,0.309-0.387,0.463c-1.123,1.321-2.219,2.658-3.293,4.008c-0.296,0.37-0.592,0.739-0.884,1.112     c-1.135,1.449-2.247,2.909-3.326,4.388c-0.241,0.33-0.475,0.666-0.714,0.998c-0.891,1.238-1.763,2.488-2.615,3.746     c-0.294,0.433-0.591,0.862-0.88,1.298c-0.957,1.441-1.889,2.895-2.796,4.359c-0.343,0.554-0.676,1.112-1.013,1.669     c-0.649,1.077-1.284,2.159-1.907,3.248c-0.436,0.762-0.869,1.526-1.294,2.296c-0.637,1.155-1.259,2.316-1.866,3.484     c-0.207,0.396-0.43,0.783-0.633,1.182c-0.06,0.119-0.101,0.244-0.154,0.365C1.365,304.707-3.663,341.527,2.725,376.664     c0.016,0.353,0.056,0.708,0.122,1.061c3.305,17.48,9.373,34.107,17.895,49.415c0.046,0.082,0.091,0.164,0.137,0.246     c0.645,1.152,1.299,2.3,1.971,3.438c0.004,0.007,0.008,0.014,0.012,0.02c1.162,1.964,2.368,3.901,3.612,5.818     c0.393,0.606,0.788,1.213,1.19,1.815c0.513,0.769,1.028,1.535,1.555,2.295c0.781,1.129,1.578,2.25,2.39,3.363     c0.449,0.614,0.907,1.223,1.364,1.831c0.742,0.987,1.494,1.968,2.26,2.941c0.391,0.496,0.781,0.991,1.179,1.483     c1.085,1.348,2.188,2.685,3.323,4.006c0.171,0.2,0.35,0.395,0.521,0.594c1.047,1.207,2.116,2.399,3.203,3.582     c0.335,0.363,0.67,0.727,1.008,1.088c1.257,1.342,2.529,2.674,3.839,3.983c1.329,1.328,2.683,2.622,4.049,3.899     c0.264,0.246,0.527,0.492,0.794,0.738c2.893,2.671,5.865,5.228,8.912,7.669c0.039,0.031,0.078,0.063,0.117,0.094     c29.129,23.294,65.02,35.951,102.862,35.951c44.098,0,85.555-17.172,116.738-48.354l186.703-186.705     c2.929-2.93,2.929-7.679,0-10.608c-2.929-2.928-7.678-2.928-10.608,0L319.775,404.433c0.288-0.78,0.568-1.563,0.846-2.347     c0.1-0.281,0.199-0.563,0.298-0.845c0.367-1.06,0.724-2.123,1.069-3.189c0.039-0.121,0.081-0.242,0.12-0.363     c0.802-2.492,1.542-5.005,2.226-7.533c0.016-0.058,0.029-0.116,0.045-0.174c0.335-1.243,0.654-2.49,0.959-3.741l0.001-0.002     c4.379-17.91,5.805-36.568,4.046-55.048c-0.035-0.373-0.102-0.738-0.19-1.095c-0.738-7.272-1.956-14.502-3.654-21.641     l184.216-184.217C512.686,121.306,512.686,116.558,509.757,113.627z M260.669,231.222c0.132,0.109,0.262,0.221,0.393,0.33     c0.961,0.802,1.911,1.617,2.854,2.445c0.285,0.249,0.568,0.5,0.851,0.752c0.827,0.736,1.646,1.484,2.458,2.24     c0.273,0.255,0.549,0.506,0.821,0.764c1.054,0.995,2.098,2.003,3.126,3.031c0.211,0.211,0.415,0.428,0.624,0.64     c0.653,0.661,1.306,1.323,1.944,1.993c0.436,0.458,0.862,0.926,1.293,1.389c0.362,0.391,0.727,0.778,1.084,1.171l-47.557,0.435     l-20.58-43.345C227.266,208.799,245.125,218.341,260.669,231.222z M50.831,249.535c0.084-0.099,0.166-0.2,0.25-0.299     c0.696-0.809,1.407-1.611,2.123-2.41c0.138-0.153,0.271-0.312,0.409-0.465c0.715-0.791,1.444-1.573,2.18-2.352     c0.146-0.154,0.285-0.311,0.431-0.466c0.883-0.928,1.779-1.848,2.69-2.759c0.896-0.896,1.803-1.78,2.72-2.652     c0.092-0.088,0.186-0.172,0.277-0.259c6.37-6.027,13.216-11.467,20.484-16.268l-7.709,34.95l-34.942,7.707     C43.098,259.18,46.796,254.263,50.831,249.535z M64.11,457.991c-0.2-0.183-0.394-0.369-0.593-0.552     c-0.668-0.613-1.335-1.229-1.991-1.854c-0.878-0.837-1.747-1.685-2.607-2.545c-1.021-1.02-2.021-2.058-3.009-3.103     c-0.335-0.354-0.661-0.713-0.991-1.069c-0.643-0.693-1.282-1.391-1.911-2.096c-0.393-0.439-0.78-0.882-1.166-1.324     c-0.548-0.629-1.088-1.262-1.625-1.896c-0.412-0.49-0.826-0.979-1.23-1.473c-0.48-0.584-0.949-1.175-1.42-1.766     c-1.863-2.34-3.651-4.722-5.357-7.146c-0.164-0.232-0.33-0.465-0.494-0.698c-0.619-0.892-1.226-1.79-1.824-2.692     c-0.103-0.155-0.205-0.311-0.309-0.467c-8.118-12.354-14.223-25.651-18.313-39.426l43.277,20.549L64.11,457.991z M167.395,496.97     c-0.033,0-0.066,0-0.099,0.001l31.957-36.277l45.427,13.454C221.633,488.549,194.753,496.539,167.395,496.97z M271.17,453.039     c-3.545,3.545-7.237,6.892-11.061,10.033l-61.189-18.121c-2.802-0.831-5.828,0.042-7.759,2.233l-43.047,48.865     c-25.009-2.789-48.645-11.736-69.113-26.117l0.586-64.155c0.026-2.92-1.645-5.592-4.284-6.845l-58.3-27.681     c-4.908-30.113-0.637-61.441,12.807-89.435l52.786-11.643c2.852-0.629,5.081-2.857,5.71-5.71l11.661-52.872     c20.046-9.659,42.167-14.766,65.075-14.766c8.221,0,16.337,0.667,24.296,1.955l27.725,58.394     c1.243,2.618,3.881,4.284,6.776,4.284c0.022,0,0.046,0,0.068,0l64.125-0.586c14.42,20.593,23.072,44.024,25.949,68.023     l-38.052,33.521c-2.191,1.931-3.063,4.958-2.233,7.759l17.289,58.385C285.363,437.229,278.763,445.445,271.17,453.039z      M310.785,382.612c-0.006,0.023-0.011,0.048-0.017,0.072c-0.244,0.999-0.503,1.996-0.768,2.99     c-0.07,0.265-0.139,0.528-0.211,0.792c-0.235,0.868-0.481,1.734-0.733,2.6c-0.108,0.374-0.218,0.747-0.329,1.119     c-0.242,0.807-0.49,1.61-0.745,2.413c-0.13,0.407-0.262,0.813-0.395,1.22c-0.26,0.794-0.524,1.587-0.798,2.378     c-0.129,0.375-0.264,0.748-0.396,1.121c-0.295,0.834-0.594,1.666-0.904,2.494c-0.099,0.264-0.202,0.525-0.303,0.789     c-1.225,3.211-2.557,6.391-4.01,9.526l-11.733-39.623l25.605-22.557C314.967,359.596,313.552,371.235,310.785,382.612z"/>
		</g>
	</g>
</g>
<g>
</g>
<g>
</g>
<g>
</g>
<g>
</g>
<g>
</g>
<g>
</g>
<g>
</g>
<g>
</g>
<g>
</g>
<g>
</g>
<g>
</g>
<g>
</g>
<g>
</g>
<g>
</g>
<g>
</g>
</svg>
