<?xml version="1.0" encoding="iso-8859-1"?>
<!-- Generator: Adobe Illustrator 19.0.0, SVG Export Plug-In . SVG Version: 6.00 Build 0)  -->
<svg xmlns="http://www.w3.org/2000/svg" xmlns:xlink="http://www.w3.org/1999/xlink" version="1.1" id="Layer_1" x="0px" y="0px" viewBox="0 0 512 512" style="enable-background:new 0 0 512 512;" xml:space="preserve">
<g>
	<g>
		<g>
			<path d="M374.291,369.265c-2.269-6.984-8.192-11.978-15.459-13.033l-59.189-8.602l-7.696-15.594     c-1.832-3.713-6.326-5.237-10.042-3.405c-3.714,1.832-5.237,6.328-3.405,10.042l9.44,19.128c1.093,2.213,3.203,3.747,5.644,4.102     l63.089,9.17c1.576,0.229,2.862,1.314,3.354,2.827c0.492,1.516,0.088,3.149-1.054,4.261l-45.65,44.496     c-1.767,1.723-2.573,4.205-2.156,6.637l10.776,62.833c0.27,1.571-0.364,3.129-1.651,4.064c-1.264,0.921-2.988,1.05-4.378,0.316     l-56.427-29.666c-2.185-1.148-4.794-1.148-6.979,0l-56.427,29.667c-1.41,0.741-3.085,0.62-4.376-0.316     c-1.289-0.936-1.921-2.494-1.652-4.065l10.777-62.833c0.417-2.432-0.39-4.913-2.156-6.637l-45.649-44.493     c-1.143-1.115-1.547-2.748-1.055-4.264c0.492-1.515,1.777-2.598,3.355-2.827l63.088-9.17c2.441-0.354,4.553-1.888,5.644-4.102     l28.214-57.167c0.705-1.429,2.132-2.315,3.726-2.315c1.593,0,3.021,0.888,3.727,2.315c0.028,0.058,0.057,0.114,0.087,0.171     l8.299,15.789c1.925,3.666,6.459,5.075,10.125,3.148c3.666-1.926,5.075-6.46,3.148-10.125l-8.17-15.543     c11.843-6.22,19.943-18.636,19.943-32.916c0-20.489-16.669-37.158-37.157-37.158s-37.157,16.67-37.157,37.158     c0,14.281,8.102,26.698,19.946,32.917l-26.431,53.554l-59.188,8.602c-7.268,1.056-13.191,6.049-15.46,13.033     c-2.268,6.979-0.412,14.502,4.847,19.633l42.829,41.744l-10.11,58.95c-1.241,7.238,1.678,14.415,7.62,18.731     c3.357,2.438,7.285,3.678,11.237,3.678c3.044,0,6.103-0.734,8.93-2.221l52.938-27.831l52.936,27.829     c2.737,1.441,5.819,2.202,8.914,2.202c4.071,0,7.965-1.266,11.26-3.659c5.939-4.316,8.858-11.493,7.618-18.729l-10.11-58.95     l42.83-41.746C374.703,383.768,376.559,376.245,374.291,369.265z M233.839,261.158c0-12.22,9.942-22.163,22.162-22.163     c12.22,0,22.162,9.942,22.162,22.163c0,12.221-9.942,22.164-22.162,22.164C243.781,283.322,233.839,273.379,233.839,261.158z"/>
			<path d="M143.517,115.157l0.025,0.193c0.068,0.515,0.143,1.025,0.227,1.46c0.066,0.36,0.145,0.717,0.227,1.071     c0.002,0.009,0.021,0.093,0.023,0.103c0.096,0.407,0.198,0.813,0.299,1.163c0.121,0.433,0.253,0.866,0.386,1.26     c0.099,0.296,0.207,0.587,0.322,0.889c0.182,0.483,0.369,0.966,0.587,1.458c0.045,0.102,0.092,0.2,0.142,0.303     c0.785,1.707,1.753,3.334,2.882,4.846c0.181,0.271,0.38,0.53,0.598,0.777c0.549,0.683,1.089,1.297,1.643,1.867l58.537,66.604     c0.045,0.052,0.096,0.096,0.142,0.145c0.104,0.111,0.209,0.221,0.319,0.326c0.077,0.073,0.156,0.145,0.236,0.215     c0.113,0.099,0.229,0.194,0.349,0.287c0.081,0.063,0.162,0.124,0.246,0.184c0.129,0.092,0.263,0.179,0.397,0.262     c0.079,0.049,0.157,0.099,0.237,0.145c0.15,0.086,0.305,0.164,0.462,0.239c0.071,0.034,0.142,0.071,0.214,0.102     c0.173,0.077,0.351,0.144,0.53,0.207c0.061,0.023,0.122,0.048,0.184,0.067c0.194,0.064,0.394,0.115,0.594,0.162     c0.053,0.013,0.104,0.029,0.155,0.04c0.211,0.045,0.426,0.077,0.643,0.104c0.045,0.006,0.089,0.016,0.134,0.021     c0.261,0.027,0.525,0.042,0.792,0.042h81.912h0.854c3.358,0,6.2-2.207,7.154-5.251l56.169-63.91     c0.547-0.565,1.082-1.173,1.625-1.849c0.219-0.249,0.42-0.51,0.602-0.781c1.139-1.523,2.112-3.163,2.898-4.881     c0.042-0.086,0.101-0.211,0.131-0.278c0.212-0.477,0.401-0.964,0.589-1.463c0.111-0.292,0.22-0.583,0.307-0.845     c0.143-0.42,0.271-0.847,0.386-1.251c0.114-0.399,0.216-0.801,0.313-1.213c0.085-0.366,0.168-0.734,0.243-1.126     c0.094-0.501,0.167-1.009,0.238-1.555l0.018-0.129c0.034-0.24,0.065-0.48,0.093-0.762c0.083-0.892,0.123-1.713,0.123-2.513     V26.771C368.698,12.009,356.689,0,341.928,0H170.074c-14.762,0-26.771,12.009-26.771,26.771v85.123     c0,0.816,0.042,1.646,0.122,2.486C143.449,114.64,143.482,114.9,143.517,115.157z M222.543,14.995h67.771v25.291     c0,4.142,3.357,7.498,7.498,7.498c4.142,0,7.498-3.356,7.498-7.498V14.995h36.619c6.493,0,11.775,5.282,11.775,11.775v85.123     c0,0.333-0.02,0.702-0.051,1.048l-0.063,0.456c-0.029,0.228-0.058,0.456-0.096,0.66c-0.033,0.171-0.073,0.34-0.111,0.502     c-0.04,0.169-0.081,0.338-0.135,0.526c-0.052,0.182-0.104,0.364-0.177,0.578c-0.032,0.098-0.071,0.193-0.135,0.361     c-0.07,0.188-0.139,0.375-0.216,0.555c-0.029,0.063-0.063,0.135-0.082,0.175c-0.38,0.836-0.862,1.631-1.434,2.363     c-0.041,0.053-0.081,0.106-0.12,0.159c-0.28,0.349-0.536,0.639-0.78,0.886c-0.085,0.086-0.168,0.175-0.249,0.265     c-0.023,0.025-0.046,0.051-0.068,0.076l-44.679,50.838V66.274c0-4.142-3.356-7.498-7.498-7.498c-4.141,0-7.498,3.356-7.498,7.498     v118.428h-67.77V14.995z M158.298,26.771h0.001c0-6.493,5.282-11.775,11.775-11.775h37.473v157.316l-45.534-51.809     c-0.065-0.074-0.133-0.147-0.201-0.219c-0.037-0.04-0.074-0.078-0.112-0.117c-0.252-0.256-0.512-0.551-0.792-0.9     c-0.037-0.05-0.075-0.1-0.113-0.149c-0.571-0.732-1.054-1.528-1.436-2.367c-0.027-0.06-0.056-0.119-0.084-0.18     c-0.076-0.181-0.147-0.373-0.239-0.618c-0.036-0.096-0.075-0.191-0.119-0.323c-0.059-0.172-0.11-0.348-0.173-0.572     c-0.048-0.164-0.088-0.331-0.138-0.545c-0.03-0.132-0.063-0.265-0.101-0.467c-0.042-0.218-0.069-0.439-0.09-0.588l-0.06-0.46     c-0.039-0.409-0.059-0.771-0.059-1.104V26.771z"/>
		</g>
	</g>
</g>
<g>
</g>
<g>
</g>
<g>
</g>
<g>
</g>
<g>
</g>
<g>
</g>
<g>
</g>
<g>
</g>
<g>
</g>
<g>
</g>
<g>
</g>
<g>
</g>
<g>
</g>
<g>
</g>
<g>
</g>
</svg>
