<?xml version="1.0" encoding="iso-8859-1"?>
<!-- Generator: Adobe Illustrator 19.0.0, SVG Export Plug-In . SVG Version: 6.00 Build 0)  -->
<svg xmlns="http://www.w3.org/2000/svg" xmlns:xlink="http://www.w3.org/1999/xlink" version="1.1" id="Layer_1" x="0px" y="0px" viewBox="0 0 511.998 511.998" style="enable-background:new 0 0 511.998 511.998;" xml:space="preserve">
<g>
	<g>
		<g>
			<path d="M343.698,409.105c1.014,0.475,2.101,0.709,3.182,0.709c1.516,0,3.021-0.459,4.303-1.357     c10.672-7.476,16.603-20.171,15.479-33.13c-1.123-12.959-9.15-24.443-20.948-29.971c-2.431-1.141-5.287-0.892-7.483,0.648     c-10.671,7.475-16.601,20.17-15.477,33.129C323.874,392.089,331.899,403.575,343.698,409.105z M343.331,361.356     c4.757,3.652,7.864,9.186,8.391,15.266c0.527,6.081-1.583,12.066-5.64,16.482c-4.757-3.652-7.864-9.186-8.391-15.266     C337.165,371.757,339.274,365.772,343.331,361.356z"/>
			<path d="M379.138,314.496c-2.586-0.714-5.359,0.012-7.267,1.9c-9.261,9.167-12.971,22.678-9.682,35.26     c3.288,12.586,13.133,22.554,25.691,26.019c0.658,0.182,1.328,0.27,1.993,0.27c1.95,0,3.853-0.761,5.275-2.168     c9.262-9.165,12.972-22.676,9.684-35.261C401.545,327.929,391.7,317.957,379.138,314.496z M387.54,361.501     c-5.304-2.799-9.297-7.729-10.84-13.638c-1.544-5.904-0.472-12.158,2.785-17.194c5.303,2.798,9.297,7.729,10.839,13.637     C391.867,350.212,390.795,356.466,387.54,361.501z"/>
			<path d="M417.712,330.943c2.131,0,4.19-0.91,5.63-2.545c8.605-9.781,11.375-23.516,7.227-35.845     c-4.146-12.327-14.654-21.595-27.425-24.184c-2.637-0.533-5.348,0.382-7.119,2.394c-8.608,9.781-11.378,23.517-7.228,35.843     c4.146,12.327,14.653,21.596,27.424,24.187C416.717,330.894,417.216,330.943,417.712,330.943z M403.01,301.823     c-1.946-5.785-1.31-12.097,1.593-17.345c5.484,2.427,9.807,7.069,11.754,12.853c1.945,5.787,1.309,12.101-1.593,17.35     C409.28,312.253,404.955,307.609,403.01,301.823z"/>
			<path d="M420.174,224.078c-6.377-4.783-13.953-7.311-21.909-7.311c-4.976,0-9.818,0.988-14.393,2.935     c-2.47,1.052-4.189,3.345-4.508,6.01c-1.544,12.94,3.963,25.824,14.366,33.623c6.376,4.785,13.953,7.314,21.911,7.314     c0.001,0,0.001,0,0.002,0c4.975,0,9.817-0.988,14.391-2.936c2.471-1.052,4.19-3.344,4.509-6.01     C436.087,244.766,430.581,231.88,420.174,224.078z M415.644,251.654c-0.001,0-0.001,0-0.002,0     c-4.687-0.001-9.151-1.492-12.914-4.315c-4.885-3.661-7.938-9.227-8.522-15.196c1.33-0.253,2.685-0.38,4.059-0.38     c4.687,0,9.151,1.492,12.913,4.312c4.885,3.663,7.939,9.229,8.524,15.199C418.372,251.527,417.016,251.654,415.644,251.654z"/>
			<path d="M375.973,214.482c2.754,0.647,5.576,0.977,8.386,0.977c0.001,0,0,0,0.002,0c10.018,0,19.723-4.202,26.624-11.528     c1.842-1.954,2.496-4.744,1.719-7.314c-3.774-12.469-13.985-22.062-26.649-25.04c-2.754-0.646-5.575-0.975-8.383-0.975     c-10.021,0-19.725,4.202-26.625,11.528c-1.841,1.953-2.495,4.742-1.719,7.312C353.101,201.913,363.312,211.508,375.973,214.482z      M382.625,186.175c5.943,1.398,10.972,5.269,13.903,10.501c-3.567,2.438-7.819,3.786-12.166,3.786c-0.001,0-0.001,0-0.002,0     c-1.656,0-3.323-0.195-4.956-0.579c-5.943-1.395-10.97-5.266-13.899-10.499C370.428,186.015,376.708,184.785,382.625,186.175z"/>
			<path d="M432.767,185.678c1.389,1.217,3.149,1.858,4.941,1.858c0.814,0,1.636-0.133,2.43-0.405     c12.326-4.225,21.545-14.777,24.059-27.542c2.51-12.761-2.017-26.018-11.815-34.6c-2.019-1.77-4.83-2.324-7.37-1.453     c-12.329,4.225-21.548,14.776-24.058,27.535C418.437,163.831,422.964,177.093,432.767,185.678z M435.665,153.969     c1.179-5.987,4.864-11.151,9.987-14.269c3.556,4.827,5.008,11.004,3.83,16.992c-1.18,5.99-4.865,11.155-9.987,14.273     C435.937,166.137,434.486,159.959,435.665,153.969z"/>
			<path d="M449.573,200.475c-3.795,12.439-0.635,26.09,8.246,35.626c1.435,1.541,3.431,2.387,5.487,2.387     c0.566,0,1.137-0.063,1.701-0.195c12.689-2.954,22.929-12.518,26.723-24.962c3.793-12.441,0.633-26.09-8.247-35.62     c-1.83-1.964-4.574-2.804-7.185-2.191C463.606,178.472,453.365,188.035,449.573,200.475z M463.917,204.849     c1.78-5.838,5.971-10.601,11.383-13.184c3.048,5.163,3.866,11.454,2.086,17.292c-1.781,5.84-5.971,10.604-11.383,13.188     C462.954,216.981,462.137,210.688,463.917,204.849z"/>
			<path d="M459.51,283.416c0.722,2.587,2.77,4.591,5.374,5.254c2.955,0.752,6.003,1.134,9.059,1.134c0.001,0,0.001,0,0.003,0     c9.924,0,19.211-3.905,26.149-10.999c9.091-9.301,12.565-22.872,9.068-35.421c-0.721-2.586-2.769-4.59-5.371-5.253     c-2.959-0.755-6.011-1.137-9.07-1.137c-9.923,0-19.207,3.904-26.142,10.996C459.486,257.291,456.012,270.865,459.51,283.416z      M479.303,258.475c4.264-4.362,10.058-6.688,16.173-6.472c0.332,5.988-1.837,11.953-6.101,16.317     c-4.092,4.183-9.571,6.486-15.428,6.486c-0.001,0-0.002,0-0.002,0c-0.249,0-0.498-0.004-0.747-0.013     C472.866,268.806,475.036,262.84,479.303,258.475z"/>
			<path d="M509.488,306.671c-6.727-5.99-15.373-9.29-24.348-9.29c-3.885,0-7.739,0.622-11.455,1.847     c-12.351,4.073-21.682,14.526-24.349,27.282c-0.55,2.628,0.348,5.351,2.354,7.136c6.726,5.987,15.373,9.285,24.347,9.285h0.001     c3.884,0,7.736-0.621,11.453-1.848c12.351-4.075,21.681-14.527,24.348-27.278C512.389,311.178,511.493,308.457,509.488,306.671z      M482.795,326.843c-2.198,0.725-4.472,1.093-6.756,1.093c0,0,0,0-0.001,0c-3.73,0-7.368-0.969-10.584-2.78     c2.46-5.474,7.131-9.771,12.93-11.685c5.787-1.911,12.156-1.236,17.341,1.689C493.263,320.63,488.592,324.93,482.795,326.843z"/>
			<path d="M465.395,347.191c-13.156-0.758-25.476,5.525-32.663,16.445c-1.477,2.244-1.64,5.106-0.428,7.504     c5.876,11.627,17.592,19.311,30.576,20.056c0.707,0.04,1.411,0.06,2.109,0.06c0,0,0,0,0.001,0     c12.329,0,23.75-6.169,30.549-16.504c1.477-2.242,1.64-5.104,0.429-7.501C490.097,355.622,478.382,347.935,465.395,347.191z      M463.736,376.223c-6.097-0.35-11.722-3.295-15.514-7.945c4.283-4.195,10.162-6.45,16.316-6.115     c6.097,0.35,11.721,3.296,15.511,7.946C475.768,374.305,469.896,376.567,463.736,376.223z"/>
			<path d="M446.115,391.149c-5.123-2.556-10.605-3.853-16.298-3.853c-7.198,0-14.185,2.099-20.204,6.069     c-2.241,1.479-3.521,4.044-3.354,6.725c0.809,13.001,8.539,24.686,20.178,30.498c5.121,2.554,10.602,3.849,16.293,3.849     c0,0,0,0,0.001,0c7.197,0,14.184-2.099,20.204-6.068c2.241-1.478,3.52-4.043,3.354-6.723     C465.483,408.642,457.753,396.956,446.115,391.149z M442.73,419.442c-3.346,0-6.575-0.765-9.597-2.271     c-5.465-2.727-9.47-7.655-11.118-13.425c2.477-0.958,5.115-1.454,7.803-1.454c3.347,0,6.576,0.766,9.601,2.274     c5.464,2.727,9.469,7.652,11.115,13.422C448.056,418.947,445.418,419.442,442.73,419.442z"/>
			<path d="M404.205,419.951c-5.123-2.555-10.606-3.851-16.299-3.851c-7.198,0-14.185,2.099-20.203,6.068     c-2.241,1.48-3.521,4.044-3.354,6.725c0.809,13.001,8.539,24.686,20.178,30.498c5.121,2.554,10.602,3.849,16.294,3.85     c0.001,0,0.002,0,0.003,0c7.196,0,14.181-2.098,20.2-6.067c2.241-1.478,3.521-4.043,3.355-6.723     C423.574,437.447,415.844,425.76,404.205,419.951z M400.824,448.245c-0.001,0-0.001,0-0.002,0     c-3.348-0.001-6.577-0.766-9.598-2.271c-5.465-2.727-9.47-7.655-11.118-13.425c2.476-0.957,5.115-1.453,7.802-1.453     c3.348,0,6.579,0.766,9.603,2.273c5.464,2.726,9.468,7.652,11.114,13.423C406.149,447.749,403.51,448.245,400.824,448.245z"/>
			<path d="M454.971,274.506c0-59.672-32.487-114.666-84.784-143.521c-3.624-2-8.187-0.684-10.187,2.942     c-2.001,3.626-0.684,8.186,2.942,10.186c47.514,26.217,77.032,76.18,77.032,130.391c0,67.979-45.921,127.255-111.672,144.148     c-4.011,1.03-6.427,5.117-5.396,9.128c0.869,3.385,3.916,5.635,7.257,5.635c0.617,0,1.245-0.077,1.871-0.238     C404.416,414.581,454.971,349.333,454.971,274.506z"/>
			<path d="M173.765,346.004c-2.197-1.54-5.054-1.789-7.483-0.648c-11.798,5.529-19.825,17.014-20.948,29.971     c-1.124,12.959,4.808,25.654,15.479,33.13c1.282,0.898,2.787,1.357,4.303,1.357c1.082,0,2.168-0.234,3.181-0.709     c11.799-5.529,19.825-17.015,20.946-29.971C190.367,366.174,184.437,353.478,173.765,346.004z M174.304,377.839     c-0.526,6.08-3.634,11.612-8.391,15.265c-4.057-4.416-6.166-10.4-5.64-16.482c0.527-6.08,3.635-11.613,8.392-15.266     C172.722,365.772,174.831,371.757,174.304,377.839z"/>
			<path d="M122.121,377.945c0.664,0,1.335-0.089,1.992-0.27c12.559-3.464,22.402-13.435,25.693-26.019     c3.287-12.583-0.424-26.094-9.684-35.26c-1.907-1.889-4.681-2.613-7.267-1.9c-12.561,3.461-22.407,13.433-25.695,26.019     c-3.287,12.585,0.423,26.096,9.685,35.261C118.269,377.184,120.172,377.945,122.121,377.945z M121.673,344.305     c1.543-5.906,5.537-10.838,10.839-13.637c3.257,5.036,4.33,11.29,2.787,17.194c-1.545,5.906-5.539,10.838-10.842,13.638     C121.201,356.466,120.129,350.212,121.673,344.305z"/>
			<path d="M94.283,330.943c0.495,0,0.995-0.049,1.492-0.15c12.768-2.592,23.277-11.859,27.426-24.186     c4.147-12.329,1.377-26.062-7.23-35.844c-1.772-2.013-4.487-2.928-7.119-2.394c-12.768,2.59-23.276,11.856-27.425,24.184     c-4.148,12.329-1.378,26.064,7.227,35.845C90.093,330.033,92.153,330.943,94.283,330.943z M95.64,297.334     c1.947-5.785,6.27-10.427,11.755-12.855c2.9,5.248,3.539,11.56,1.594,17.345c-1.947,5.786-6.271,10.429-11.756,12.858     C94.331,309.433,93.695,303.119,95.64,297.334z"/>
			<path d="M96.354,266.65c7.958,0,15.534-2.529,21.909-7.312c10.408-7.803,15.914-20.688,14.368-33.627     c-0.318-2.665-2.037-4.958-4.508-6.009c-4.575-1.948-9.418-2.935-14.392-2.935c-7.956,0-15.532,2.528-21.909,7.311     c-10.408,7.804-15.914,20.689-14.368,33.628c0.318,2.665,2.037,4.958,4.508,6.009C86.535,265.661,91.378,266.65,96.354,266.65z      M100.82,236.075c3.761-2.82,8.226-4.312,12.912-4.312c1.373,0,2.728,0.127,4.059,0.38c-0.584,5.971-3.638,11.534-8.525,15.198     c-3.761,2.821-8.226,4.313-12.912,4.313c-1.373,0-2.728-0.128-4.059-0.38C92.879,245.303,95.933,239.739,100.82,236.075z"/>
			<path d="M125.941,171.577c-12.663,2.976-22.874,12.57-26.648,25.039c-0.778,2.57-0.123,5.36,1.719,7.314     c6.901,7.326,16.606,11.528,26.626,11.528c2.809,0,5.631-0.329,8.385-0.976c12.662-2.974,22.873-12.569,26.648-25.041     c0.777-2.569,0.122-5.359-1.72-7.313c-6.9-7.326-16.605-11.527-26.626-11.527C131.517,170.601,128.696,170.93,125.941,171.577z      M132.592,199.884c-5.922,1.392-12.196,0.159-17.123-3.208c2.931-5.233,7.959-9.104,13.901-10.5     c5.918-1.392,12.196-0.159,17.123,3.208C143.562,194.617,138.534,198.488,132.592,199.884z"/>
			<path d="M71.858,187.131c0.795,0.273,1.615,0.405,2.43,0.405c1.791,0,3.553-0.642,4.941-1.858     c9.803-8.586,14.33-21.845,11.816-34.605c-2.513-12.762-11.731-23.312-24.057-27.537c-2.54-0.871-5.352-0.317-7.37,1.452     c-9.801,8.582-14.328,21.84-11.817,34.603C50.317,172.355,59.535,182.907,71.858,187.131z M66.344,139.7     c5.123,3.117,8.809,8.282,9.987,14.269c1.18,5.988-0.272,12.166-3.831,16.996c-5.121-3.118-8.807-8.284-9.986-14.272     C61.336,150.704,62.787,144.527,66.344,139.7z"/>
			<path d="M46.991,238.292c0.566,0.132,1.136,0.195,1.701,0.195c2.056,0,4.052-0.847,5.488-2.388     c8.879-9.536,12.037-23.186,8.243-35.623c-3.792-12.442-14.032-22.005-26.725-24.958c-2.616-0.612-5.354,0.229-7.185,2.191     c-8.88,9.53-12.04,23.179-8.247,35.622C24.06,225.773,34.301,235.338,46.991,238.292z M36.696,191.666     c5.413,2.582,9.603,7.347,11.383,13.186c1.781,5.837,0.964,12.129-2.086,17.295c-5.413-2.584-9.604-7.349-11.384-13.186     C32.83,203.12,33.648,196.829,36.696,191.666z"/>
			<path d="M38.052,289.803c3.056,0,6.103-0.382,9.061-1.134c2.603-0.663,4.652-2.666,5.374-5.254     c3.498-12.551,0.023-26.124-9.071-35.427c-6.935-7.091-16.219-10.995-26.142-10.995c-3.058,0-6.11,0.382-9.07,1.137     c-2.602,0.663-4.65,2.666-5.371,5.253c-3.497,12.549-0.023,26.12,9.07,35.423C18.839,285.898,28.126,289.803,38.052,289.803z      M16.52,252.003c6.105-0.221,11.908,2.109,16.172,6.471c4.27,4.366,6.438,10.33,6.106,16.32     c-6.106,0.219-11.911-2.113-16.175-6.472C18.358,263.956,16.188,257.992,16.52,252.003z"/>
			<path d="M35.959,342.931c8.974,0,17.621-3.297,24.348-9.285c2.006-1.786,2.903-4.508,2.353-7.136     c-2.667-12.756-11.998-23.209-24.348-27.281c-3.717-1.227-7.571-1.849-11.455-1.849c-8.974,0-17.62,3.299-24.347,9.29     c-2.004,1.786-2.901,4.506-2.351,7.134c2.665,12.751,11.994,23.204,24.347,27.28C28.221,342.31,32.075,342.931,35.959,342.931z      M16.274,315.159c5.185-2.923,11.548-3.6,17.341-1.688c5.799,1.911,10.468,6.21,12.929,11.683     c-5.187,2.921-11.556,3.595-17.341,1.689C23.404,324.93,18.733,320.63,16.274,315.159z"/>
			<path d="M49.117,391.195c12.987-0.743,24.703-8.429,30.576-20.055c1.211-2.397,1.048-5.26-0.429-7.503     c-6.801-10.334-18.223-16.505-30.553-16.505c-0.698,0-1.402,0.02-2.109,0.061c-12.986,0.743-24.702,8.429-30.574,20.058     c-1.211,2.396-1.048,5.259,0.429,7.501c6.8,10.334,18.22,16.504,30.55,16.504C47.705,391.255,48.409,391.236,49.117,391.195z      M47.458,362.164c6.189-0.358,12.033,1.921,16.316,6.114c-3.792,4.65-9.417,7.596-15.514,7.944     c-6.165,0.358-12.033-1.917-16.314-6.113C35.737,365.458,41.361,362.512,47.458,362.164z"/>
			<path d="M105.738,400.088c0.166-2.68-1.113-5.244-3.354-6.723c-6.02-3.971-13.006-6.069-20.204-6.069     c-5.692,0-11.175,1.297-16.297,3.853c-11.639,5.807-19.369,17.494-20.175,30.497c-0.166,2.68,1.113,5.245,3.354,6.723     c6.019,3.971,13.007,6.068,20.205,6.068c5.69,0,11.172-1.295,16.298-3.851C97.202,424.775,104.932,413.089,105.738,400.088z      M78.869,417.168c-3.024,1.509-6.255,2.272-9.602,2.272c-2.687,0-5.327-0.495-7.805-1.454     c1.647-5.769,5.652-10.694,11.116-13.421c3.023-1.51,6.253-2.274,9.601-2.274c2.687,0,5.327,0.496,7.804,1.454     C88.334,409.514,84.33,414.441,78.869,417.168z"/>
			<path d="M144.292,422.169c-6.018-3.97-13.005-6.068-20.203-6.068c-5.692,0-11.176,1.296-16.301,3.852     c-11.637,5.807-19.366,17.495-20.172,30.499c-0.166,2.68,1.114,5.245,3.355,6.723c6.018,3.97,13.004,6.067,20.202,6.067     c5.691,0,11.173-1.296,16.298-3.852c11.636-5.81,19.366-17.496,20.175-30.496C147.813,426.213,146.533,423.648,144.292,422.169z      M120.776,445.972c-3.023,1.509-6.254,2.273-9.602,2.273c-2.687,0-5.326-0.496-7.803-1.453     c1.647-5.771,5.651-10.695,11.112-13.422c3.025-1.51,6.257-2.274,9.605-2.274c2.687,0,5.326,0.496,7.802,1.453     C130.241,438.319,126.236,443.245,120.776,445.972z"/>
			<path d="M183.694,418.654c-65.751-16.892-111.672-76.169-111.672-144.148c0-54.21,29.517-104.173,77.032-130.391     c3.626-2,4.943-6.561,2.942-10.186c-2-3.626-6.561-4.942-10.186-2.942c-52.296,28.855-84.784,83.849-84.784,143.521     c0,74.827,50.553,140.075,122.937,158.671c0.626,0.161,1.254,0.238,1.871,0.238c3.341,0,6.388-2.249,7.257-5.635     C190.121,423.77,187.705,419.684,183.694,418.654z"/>
			<path d="M260.907,224.523c-2.817-2.438-7-2.438-9.818,0l-32.486,28.134c-2.526,2.188-3.3,5.785-1.896,8.818l16.242,35.091     c1.227,2.651,3.883,4.349,6.805,4.349h32.486c2.921,0,5.577-1.697,6.804-4.348l16.246-35.091c1.405-3.033,0.632-6.63-1.896-8.819     L260.907,224.523z M267.449,285.917h-22.902l-11.858-25.62l23.31-20.187l23.311,20.187L267.449,285.917z"/>
			<path d="M327.021,322.582c10.068-12.388,16.971-27.447,19.454-43.937c0.002-0.015,0.008-0.029,0.01-0.045     c0.019-0.125,0.031-0.25,0.049-0.375c0.128-0.876,0.242-1.756,0.345-2.639c0.024-0.216,0.051-0.432,0.074-0.648     c0.112-1.034,0.212-2.07,0.289-3.114c0.003-0.037,0.005-0.074,0.007-0.112c0.072-0.981,0.125-1.967,0.165-2.957     c0.01-0.238,0.02-0.476,0.027-0.713c0.034-1.023,0.058-2.048,0.058-3.079c0-1.371-0.04-2.737-0.1-4.101     c-0.021-0.447-0.049-0.893-0.075-1.338c-0.054-0.924-0.122-1.846-0.203-2.764c-0.046-0.512-0.09-1.024-0.144-1.534     c-0.097-0.919-0.213-1.833-0.338-2.745c-0.115-0.852-0.245-1.699-0.384-2.544c-0.127-0.765-0.252-1.53-0.397-2.29     c-0.147-0.764-0.311-1.522-0.475-2.28c-0.103-0.468-0.206-0.936-0.315-1.401c-0.198-0.85-0.405-1.696-0.628-2.537     c-0.059-0.22-0.122-0.438-0.183-0.657c-4.156-15.263-12.229-29.248-23.759-40.707c-2.935-2.918-7.683-2.904-10.603,0.032     c-2.919,2.937-2.904,7.684,0.032,10.603c2.593,2.577,4.969,5.313,7.139,8.176l-10.932,30.695c-0.98,2.751-0.274,5.82,1.81,7.866     l23.052,22.636c-2.239,11.135-6.906,21.398-13.42,30.222l-26.903-4.492c-3.425-0.575-6.799,1.286-8.146,4.488l-12.567,29.874     c-4.529,0.839-9.19,1.3-13.958,1.3c-1.949,0-3.875-0.098-5.789-0.241l-15.318-28.212c-1.394-2.565-4.176-4.079-7.062-3.905     l-32.742,2.073c-6.86-9.02-11.769-19.598-14.085-31.107l23.052-22.636c2.083-2.047,2.789-5.115,1.811-7.865L194.95,218.92     c8.57-11.334,20.221-20.206,33.692-25.383l22.627,18.394c1.378,1.12,3.054,1.681,4.731,1.681c1.677,0,3.352-0.561,4.73-1.681     l22.65-18.414c2.792,1.066,5.521,2.294,8.165,3.685c3.666,1.927,8.199,0.518,10.126-3.145c1.929-3.666,0.52-8.199-3.146-10.126     c-4.511-2.372-9.226-4.347-14.074-5.928c-0.076-0.026-0.146-0.064-0.224-0.089c-0.221-0.071-0.444-0.132-0.665-0.201     c-0.412-0.13-0.826-0.252-1.24-0.376c-2.195-0.66-4.413-1.235-6.648-1.727c-0.232-0.051-0.462-0.103-0.693-0.151     c-0.738-0.156-1.478-0.304-2.219-0.441c-0.245-0.046-0.489-0.087-0.734-0.131c-2.193-0.39-4.403-0.698-6.624-0.927     c-0.514-0.053-1.027-0.105-1.541-0.15c-0.498-0.043-0.997-0.08-1.496-0.114c-0.654-0.046-1.309-0.083-1.963-0.114     c-0.396-0.02-0.793-0.041-1.189-0.055c-1.071-0.038-2.143-0.063-3.216-0.063c-1.074,0-2.142,0.025-3.206,0.063     c-0.255,0.009-0.51,0.018-0.765,0.029c-1.057,0.045-2.109,0.104-3.156,0.185c-0.101,0.008-0.2,0.019-0.3,0.026     c-0.975,0.078-1.943,0.176-2.909,0.285c-0.248,0.027-0.497,0.055-0.745,0.085c-1.024,0.124-2.044,0.263-3.059,0.421     c-0.2,0.031-0.399,0.067-0.6,0.1c-0.873,0.143-1.741,0.297-2.604,0.463c-0.253,0.049-0.507,0.096-0.76,0.146     c-0.969,0.195-1.932,0.406-2.89,0.632c-0.302,0.071-0.603,0.147-0.903,0.221c-0.771,0.19-1.537,0.39-2.299,0.599     c-0.27,0.074-0.541,0.143-0.811,0.221c-0.886,0.251-1.763,0.52-2.636,0.798c-0.195,0.062-0.393,0.114-0.587,0.178     c-0.061,0.02-0.115,0.049-0.174,0.069c-19.194,6.283-35.61,18.753-46.883,35.044c-0.118,0.148-0.244,0.287-0.352,0.445     c-5.536,8.115-9.664,16.973-12.325,26.27c-0.031,0.109-0.063,0.219-0.094,0.328c-0.189,0.669-0.373,1.34-0.546,2.013     c-0.032,0.123-0.062,0.248-0.093,0.372c-0.277,1.099-0.535,2.202-0.772,3.313c-0.091,0.424-0.18,0.849-0.265,1.274     c-0.097,0.484-0.191,0.969-0.279,1.454c-0.145,0.792-0.28,1.586-0.404,2.384c-0.057,0.371-0.107,0.744-0.161,1.116     c-0.098,0.69-0.189,1.383-0.272,2.076c-0.04,0.343-0.08,0.684-0.117,1.027c-0.104,0.957-0.195,1.917-0.269,2.881     c-0.011,0.143-0.018,0.286-0.027,0.429c-0.063,0.885-0.111,1.773-0.149,2.664c-0.011,0.274-0.021,0.55-0.031,0.825     c-0.033,1.018-0.057,2.038-0.057,3.063c0,1.031,0.023,2.057,0.058,3.079c0.008,0.237,0.018,0.475,0.027,0.713     c0.04,0.99,0.093,1.977,0.165,2.957c0.002,0.038,0.004,0.075,0.007,0.112c0.077,1.043,0.177,2.08,0.289,3.113     c0.023,0.217,0.05,0.434,0.075,0.65c0.102,0.882,0.216,1.76,0.344,2.635c0.018,0.125,0.03,0.252,0.049,0.377     c0.002,0.016,0.008,0.03,0.01,0.046c2.528,16.792,9.638,32.103,20.01,44.618c0.112,0.157,0.215,0.32,0.341,0.47     c10.822,12.9,24.767,22.4,40.352,27.751c0.184,0.064,0.365,0.129,0.55,0.191c0.641,0.215,1.282,0.426,1.929,0.628     c0.843,0.264,1.692,0.515,2.545,0.755c0.463,0.129,0.928,0.256,1.393,0.377c1.019,0.27,2.042,0.522,3.074,0.757     c0.296,0.067,0.594,0.131,0.892,0.194c1.182,0.257,2.369,0.492,3.567,0.703c0.137,0.023,0.273,0.045,0.41,0.067     c5.013,0.854,10.161,1.306,15.414,1.306c7.207,0,14.22-0.841,20.951-2.423c0.034-0.008,0.069-0.011,0.103-0.019     c0.185-0.044,0.366-0.097,0.55-0.142c0.812-0.197,1.619-0.405,2.421-0.624c0.296-0.079,0.593-0.156,0.889-0.24     c0.94-0.267,1.872-0.551,2.8-0.847c0.322-0.102,0.644-0.208,0.964-0.313c0.957-0.317,1.91-0.646,2.853-0.993     c0.184-0.067,0.365-0.14,0.548-0.208c0.909-0.342,1.812-0.698,2.706-1.067c0.17-0.07,0.34-0.138,0.509-0.208     c1.001-0.421,1.992-0.86,2.974-1.315c0.177-0.082,0.353-0.164,0.529-0.248c1.004-0.472,2.001-0.958,2.984-1.465     c0.076-0.04,0.151-0.081,0.228-0.121c0.926-0.48,1.841-0.979,2.748-1.489c0.171-0.096,0.343-0.189,0.513-0.286     c0.877-0.502,1.744-1.02,2.603-1.549c0.297-0.184,0.593-0.369,0.888-0.555c0.699-0.443,1.394-0.893,2.079-1.354     c0.494-0.33,0.983-0.67,1.472-1.011c0.355-0.249,0.71-0.499,1.063-0.753c6.365-4.573,12.17-9.947,17.193-16.024     C326.734,323.01,326.879,322.796,327.021,322.582z M321.866,250.094l4.992-14.02c1.118,2.738,2.065,5.541,2.856,8.39     c0.066,0.243,0.137,0.484,0.201,0.729c0.199,0.748,0.383,1.5,0.56,2.253c0.09,0.385,0.177,0.771,0.261,1.158     c0.148,0.682,0.291,1.364,0.42,2.049c0.095,0.501,0.178,1.004,0.262,1.508c0.102,0.603,0.207,1.204,0.295,1.81     c0.135,0.945,0.25,1.895,0.351,2.849c0.045,0.424,0.081,0.85,0.119,1.274c0.067,0.764,0.124,1.53,0.169,2.297L321.866,250.094z      M247.868,188.898c0.194-0.021,0.389-0.042,0.583-0.061c1.122-0.11,2.251-0.197,3.387-0.259c0.206-0.011,0.412-0.018,0.618-0.027     c1.145-0.053,2.295-0.086,3.452-0.088c1.003-0.001,2.005,0.023,3.005,0.061c2.086,0.08,4.168,0.24,6.236,0.489l-9.151,7.439     l-9.134-7.426C247.2,188.986,247.531,188.934,247.868,188.898z M179.893,257.16c0.002-0.02,0.005-0.039,0.007-0.059     c0.121-1.186,0.274-2.362,0.45-3.531c0.038-0.254,0.083-0.507,0.123-0.76c0.156-0.97,0.326-1.935,0.519-2.891     c0.047-0.236,0.096-0.472,0.145-0.707c0.223-1.059,0.464-2.11,0.73-3.153c0.024-0.094,0.047-0.189,0.071-0.284     c0.858-3.311,1.947-6.527,3.222-9.65l4.972,13.966l-10.485,10.296C179.71,259.308,179.784,258.229,179.893,257.16z      M209.078,325.322l14.92-0.945l6.986,12.867C223.002,334.474,215.62,330.418,209.078,325.322z M298.796,328.343     c-0.051,0.034-0.102,0.067-0.151,0.102c-0.939,0.633-1.894,1.244-2.861,1.836c-0.07,0.043-0.139,0.088-0.209,0.13     c-0.959,0.582-1.935,1.141-2.92,1.682c-0.191,0.104-0.386,0.207-0.579,0.311c-0.876,0.471-1.762,0.927-2.656,1.363     c-0.131,0.063-0.26,0.131-0.391,0.193c-0.077,0.038-0.158,0.069-0.235,0.107l5.256-12.495l11.199,1.87     C303.185,325.182,301.036,326.826,298.796,328.343z"/>
			<path d="M225.124,108.742l-3.25,18.951c-0.763,4.433,1.025,8.831,4.665,11.479c2.018,1.468,4.403,2.242,6.899,2.242     c1.893,0,3.78-0.466,5.46-1.348l17.021-8.95l17.032,8.956c1.677,0.878,3.561,1.342,5.449,1.342c2.49,0,4.873-0.773,6.9-2.243     c3.639-2.647,5.427-7.045,4.665-11.474l-3.251-18.955l13.77-13.422c3.222-3.14,4.36-7.748,2.971-12.024     c-1.389-4.28-5.017-7.341-9.473-7.99l-19.03-2.765l-8.514-17.251c-1.993-4.03-6.023-6.534-10.519-6.534     c-4.5,0-8.532,2.507-10.521,6.54l-8.511,17.245l-19.033,2.765c-4.453,0.649-8.082,3.71-9.47,7.987     c-1.391,4.279-0.252,8.888,2.969,12.027L225.124,108.742z M242.944,86.815c2.442-0.354,4.554-1.888,5.646-4.102l7.329-14.85     l7.329,14.85c1.093,2.213,3.203,3.747,5.647,4.102l16.389,2.381l-11.859,11.558c-1.768,1.724-2.573,4.205-2.155,6.637     l2.799,16.325l-14.658-7.708c-1.093-0.574-2.29-0.861-3.489-0.861c-1.199,0-2.396,0.287-3.489,0.861l-14.658,7.708l2.799-16.325     c0.418-2.432-0.389-4.914-2.155-6.637l-11.862-11.558L242.944,86.815z"/>
		</g>
	</g>
</g>
<g>
</g>
<g>
</g>
<g>
</g>
<g>
</g>
<g>
</g>
<g>
</g>
<g>
</g>
<g>
</g>
<g>
</g>
<g>
</g>
<g>
</g>
<g>
</g>
<g>
</g>
<g>
</g>
<g>
</g>
</svg>
