<?xml version="1.0" encoding="iso-8859-1"?>
<!-- Generator: Adobe Illustrator 19.0.0, SVG Export Plug-In . SVG Version: 6.00 Build 0)  -->
<svg xmlns="http://www.w3.org/2000/svg" xmlns:xlink="http://www.w3.org/1999/xlink" version="1.1" id="Layer_1" x="0px" y="0px" viewBox="0 0 512 512" style="enable-background:new 0 0 512 512;" xml:space="preserve">
<g>
	<g>
		<path d="M402.043,70.709c4.142,0,7.501-3.357,7.501-7.501V41.734c0-10.753-8.749-19.502-19.502-19.502H158.808    C155.931,9.522,144.554,0,130.987,0c-15.733,0-28.53,12.798-28.53,28.53v454.94c0,15.732,12.798,28.53,28.53,28.53    s28.53-12.798,28.53-28.53V301.236c0-4.143-3.358-7.501-7.501-7.501c-4.143,0-7.501,3.357-7.501,7.501V483.47    c0,7.46-6.069,13.528-13.528,13.528c-7.46,0-13.528-6.069-13.528-13.528V28.53c0-7.46,6.069-13.529,13.528-13.529    s13.528,6.069,13.528,13.529v1.203v203.313v42.185c0,4.143,3.357,7.501,7.501,7.501c4.142,0,7.501-3.357,7.501-7.501v-34.684    h230.525c10.753,0,19.502-8.749,19.502-19.502V90.218c0-4.143-3.358-7.501-7.501-7.501c-4.143,0-7.501,3.357-7.501,7.501v130.828    c0,2.481-2.019,4.5-4.5,4.5H159.517V37.234h230.525c2.481,0,4.5,2.019,4.5,4.5v21.473    C394.542,67.351,397.899,70.709,402.043,70.709z"/>
	</g>
</g>
<g>
</g>
<g>
</g>
<g>
</g>
<g>
</g>
<g>
</g>
<g>
</g>
<g>
</g>
<g>
</g>
<g>
</g>
<g>
</g>
<g>
</g>
<g>
</g>
<g>
</g>
<g>
</g>
<g>
</g>
</svg>
