<?xml version="1.0" encoding="iso-8859-1"?>
<!-- Generator: Adobe Illustrator 19.0.0, SVG Export Plug-In . SVG Version: 6.00 Build 0)  -->
<svg xmlns="http://www.w3.org/2000/svg" xmlns:xlink="http://www.w3.org/1999/xlink" version="1.1" id="Layer_1" x="0px" y="0px" viewBox="0 0 512.001 512.001" style="enable-background:new 0 0 512.001 512.001;" xml:space="preserve">
<g>
	<g>
		<path d="M511.736,178.752c-0.921-6.071-4.151-11.42-9.095-15.062l-73.176-53.897c-3.336-2.456-8.031-1.743-10.49,1.591    c-2.457,3.337-1.744,8.032,1.591,10.49l73.177,53.897c1.717,1.265,2.839,3.122,3.158,5.23c0.32,2.109-0.2,4.217-1.466,5.935    l-38.776,52.648c-2.611,3.545-7.621,4.302-11.164,1.693l-65.752-48.429V91.807l19.644,14.468c3.335,2.457,8.03,1.743,10.489-1.592    c2.457-3.336,1.744-8.031-1.592-10.489L372.408,67.77c-3.859-2.846-8.42-4.37-13.224-4.449c-0.1-0.001-0.198-0.013-0.299-0.013    c-0.196-0.013-0.394-0.02-0.593-0.02h-33.71H187.419h-33.71c-0.196,0-0.39,0.007-0.591,0.02c-0.089,0-0.177,0.01-0.266,0.012    c-4.813,0.071-9.387,1.598-13.256,4.448L9.362,163.689c-4.945,3.642-8.176,8.99-9.097,15.063    c-0.92,6.07,0.577,12.136,4.219,17.082l38.777,52.646c3.641,4.944,8.989,8.175,15.061,9.096    c6.068,0.916,12.136-0.575,17.081-4.218l56.854-41.875v215.779c0,11.828,9.623,21.451,21.451,21.451h204.584    c11.828,0,21.451-9.623,21.451-21.451V211.482l56.856,41.876c10.209,7.517,24.626,5.326,32.142-4.878l38.776-52.647    C511.157,190.888,512.657,184.822,511.736,178.752z M132.257,192.848l-65.751,48.428c-1.716,1.264-3.823,1.786-5.933,1.465    c-2.109-0.32-3.966-1.441-5.23-3.16l-38.777-52.645c-2.611-3.547-1.851-8.556,1.693-11.166l113.998-83.963V192.848z     M317.586,115.39c0.414-0.571,0.828-1.143,1.228-1.727c0.282-0.41,0.552-0.83,0.826-1.246c0.378-0.577,0.754-1.154,1.117-1.742    c0.268-0.434,0.526-0.873,0.786-1.313c0.346-0.586,0.688-1.173,1.018-1.769c0.253-0.454,0.497-0.913,0.74-1.373    c0.314-0.595,0.623-1.193,0.922-1.798c0.233-0.472,0.462-0.947,0.685-1.426c0.285-0.605,0.561-1.217,0.83-1.832    c0.081-0.186,0.171-0.367,0.251-0.555v82.21h-23.742v-51.656c0.44-0.338,0.868-0.689,1.3-1.035    c0.31-0.249,0.627-0.488,0.933-0.741c0.74-0.615,1.464-1.249,2.182-1.891c0.164-0.146,0.335-0.286,0.498-0.434    c0.884-0.805,1.749-1.629,2.595-2.475c0.108-0.108,0.211-0.224,0.319-0.333c0.723-0.731,1.436-1.473,2.13-2.233    c0.254-0.278,0.494-0.568,0.744-0.85c0.535-0.604,1.069-1.208,1.585-1.83c0.284-0.342,0.555-0.694,0.833-1.042    c0.462-0.575,0.924-1.151,1.369-1.741C317.026,116.169,317.303,115.778,317.586,115.39z M171.003,433.709h-17.297    c-3.554,0-6.446-2.893-6.446-6.447V196.639V80.756l1.231-0.906c0.309-0.228,0.635-0.423,0.969-0.601    c0.061-0.032,0.123-0.067,0.184-0.098c0.32-0.159,0.65-0.296,0.991-0.41c0.068-0.022,0.136-0.044,0.203-0.063    c0.331-0.102,0.669-0.182,1.017-0.24c0.078-0.013,0.154-0.025,0.23-0.035c0.389-0.055,0.785-0.09,1.191-0.09c0,0,0.001,0,0.002,0    c0.106,0,0.205,0,0.307-0.004c0.083-0.002,0.167-0.008,0.252-0.013c0.021-0.001,0.042-0.001,0.064-0.003h17.099V433.709z     M209.753,133.474v300.236h-23.742V100.612c0.077,0.18,0.163,0.353,0.24,0.532c0.274,0.626,0.555,1.248,0.845,1.865    c0.22,0.469,0.443,0.934,0.672,1.396c0.304,0.615,0.617,1.223,0.937,1.827c0.238,0.451,0.479,0.901,0.726,1.347    c0.335,0.604,0.682,1.2,1.033,1.794c0.255,0.433,0.509,0.864,0.772,1.29c0.369,0.597,0.75,1.183,1.134,1.768    c0.268,0.408,0.532,0.818,0.808,1.221c0.406,0.593,0.827,1.174,1.249,1.755c0.275,0.379,0.545,0.762,0.828,1.136    c0.454,0.601,0.924,1.188,1.395,1.773c0.271,0.337,0.533,0.68,0.809,1.012c0.527,0.634,1.072,1.251,1.619,1.867    c0.239,0.27,0.469,0.547,0.711,0.813c0.71,0.777,1.439,1.538,2.182,2.287c0.091,0.092,0.177,0.188,0.269,0.28    c0.847,0.847,1.713,1.673,2.6,2.48c0.15,0.137,0.308,0.265,0.459,0.399c0.729,0.653,1.466,1.299,2.221,1.925    c0.3,0.249,0.61,0.483,0.914,0.728c0.536,0.431,1.066,0.868,1.614,1.284C209.861,132.056,209.753,132.752,209.753,133.474z     M248.499,433.709h-23.743V140.158c0.313,0.141,0.632,0.27,0.948,0.406c0.488,0.213,0.978,0.42,1.47,0.622    c0.62,0.255,1.243,0.501,1.872,0.739c0.502,0.19,1.005,0.378,1.512,0.559c0.632,0.225,1.269,0.438,1.909,0.646    c0.513,0.168,1.026,0.334,1.543,0.49c0.648,0.196,1.302,0.379,1.958,0.558c0.519,0.142,1.037,0.285,1.56,0.416    c0.668,0.167,1.344,0.317,2.02,0.468c0.521,0.115,1.039,0.234,1.564,0.339c0.696,0.139,1.399,0.257,2.103,0.376    c0.513,0.088,1.023,0.183,1.54,0.26c0.739,0.109,1.485,0.195,2.231,0.283c0.489,0.059,0.976,0.127,1.468,0.176    c0.015,0.002,0.029,0.004,0.043,0.006V433.709z M287.247,184.137c-7.302,2.822-12.503,9.898-12.503,18.184v55.014    c0,8.285,5.201,15.361,12.503,18.184v158.19h-23.742V146.503h-0.002c0.015-0.002,0.029-0.004,0.044-0.006    c0.492-0.049,0.979-0.117,1.468-0.176c0.745-0.088,1.491-0.174,2.23-0.283c0.517-0.077,1.027-0.172,1.541-0.26    c0.702-0.119,1.405-0.237,2.102-0.376c0.524-0.104,1.043-0.224,1.564-0.339c0.676-0.15,1.351-0.301,2.021-0.468    c0.523-0.131,1.041-0.275,1.561-0.416c0.655-0.179,1.309-0.361,1.958-0.558c0.518-0.156,1.031-0.322,1.544-0.49    c0.64-0.208,1.275-0.422,1.908-0.646c0.508-0.181,1.012-0.368,1.515-0.56c0.626-0.238,1.248-0.483,1.867-0.737    c0.494-0.203,0.986-0.41,1.476-0.623c0.314-0.138,0.633-0.266,0.945-0.406V184.137z M286.96,123.414    c-0.554,0.326-1.107,0.652-1.672,0.963c-0.319,0.174-0.645,0.338-0.967,0.508c-0.52,0.273-1.039,0.545-1.566,0.803    c-0.352,0.173-0.709,0.335-1.064,0.5c-0.509,0.237-1.02,0.473-1.536,0.695c-0.373,0.162-0.751,0.315-1.129,0.47    c-0.51,0.208-1.021,0.413-1.537,0.607c-0.39,0.146-0.782,0.287-1.175,0.427c-0.516,0.182-1.034,0.358-1.556,0.527    c-0.4,0.129-0.803,0.255-1.206,0.376c-0.526,0.158-1.056,0.308-1.587,0.452c-0.407,0.11-0.814,0.219-1.226,0.321    c-0.539,0.134-1.083,0.257-1.629,0.377c-0.41,0.09-0.819,0.182-1.232,0.263c-0.559,0.111-1.122,0.207-1.686,0.303    c-0.406,0.068-0.812,0.141-1.221,0.201c-0.591,0.088-1.188,0.157-1.783,0.228c-0.389,0.046-0.774,0.099-1.165,0.138    c-0.661,0.064-1.328,0.108-1.995,0.152c-0.333,0.021-0.662,0.054-0.996,0.07c-1.002,0.049-2.01,0.076-3.025,0.076    s-2.023-0.027-3.025-0.076c-0.334-0.017-0.664-0.049-0.996-0.07c-0.666-0.044-1.333-0.088-1.995-0.152    c-0.39-0.039-0.776-0.092-1.165-0.138c-0.596-0.07-1.193-0.14-1.784-0.228c-0.409-0.061-0.813-0.133-1.22-0.201    c-0.564-0.096-1.128-0.191-1.688-0.303c-0.412-0.081-0.821-0.173-1.231-0.263c-0.545-0.12-1.09-0.243-1.63-0.377    c-0.41-0.103-0.816-0.211-1.223-0.321c-0.533-0.145-1.063-0.294-1.59-0.452c-0.403-0.121-0.804-0.247-1.203-0.376    c-0.523-0.169-1.042-0.346-1.559-0.528c-0.393-0.139-0.784-0.279-1.173-0.426c-0.517-0.194-1.029-0.399-1.54-0.608    c-0.376-0.153-0.753-0.307-1.126-0.468c-0.518-0.224-1.029-0.46-1.54-0.697c-0.355-0.165-0.711-0.327-1.061-0.498    c-0.529-0.259-1.05-0.532-1.57-0.806c-0.321-0.168-0.645-0.332-0.962-0.506c-0.567-0.312-1.125-0.639-1.681-0.967    c-0.26-0.154-0.524-0.3-0.781-0.457c-0.743-0.454-1.474-0.925-2.196-1.408c-0.064-0.043-0.129-0.082-0.192-0.125    c-0.792-0.535-1.569-1.09-2.334-1.66c-0.177-0.132-0.347-0.272-0.522-0.406c-0.576-0.439-1.148-0.883-1.706-1.342    c-0.251-0.207-0.493-0.422-0.741-0.632c-0.473-0.401-0.945-0.803-1.405-1.218c-0.269-0.242-0.529-0.492-0.793-0.739    c-0.426-0.397-0.851-0.796-1.265-1.206c-0.27-0.267-0.534-0.541-0.799-0.813c-0.394-0.404-0.786-0.812-1.169-1.227    c-0.264-0.286-0.522-0.577-0.781-0.868c-0.37-0.417-0.736-0.837-1.095-1.263c-0.253-0.302-0.502-0.605-0.749-0.911    c-0.349-0.432-0.691-0.867-1.028-1.308c-0.24-0.314-0.478-0.629-0.712-0.947c-0.33-0.449-0.651-0.904-0.969-1.361    c-0.223-0.322-0.446-0.643-0.663-0.969c-0.314-0.473-0.619-0.952-0.92-1.434c-0.202-0.322-0.407-0.644-0.603-0.971    c-0.303-0.504-0.592-1.017-0.88-1.529c-0.178-0.316-0.36-0.629-0.532-0.948c-0.301-0.559-0.585-1.126-0.869-1.695    c-0.142-0.283-0.29-0.563-0.427-0.849c-0.335-0.698-0.651-1.407-0.96-2.122c-0.071-0.164-0.15-0.324-0.22-0.49    c-0.376-0.888-0.731-1.787-1.065-2.696c-0.062-0.17-0.115-0.342-0.175-0.512c-0.263-0.734-0.518-1.473-0.753-2.221    c-0.1-0.318-0.187-0.642-0.281-0.962c-0.18-0.605-0.359-1.213-0.52-1.826c-0.098-0.372-0.182-0.748-0.273-1.123    c-0.138-0.57-0.275-1.141-0.398-1.718c-0.085-0.401-0.159-0.807-0.236-1.21c-0.106-0.559-0.21-1.118-0.301-1.682    c-0.068-0.42-0.127-0.844-0.186-1.267c-0.046-0.33-0.085-0.661-0.126-0.993h121.205c-0.044,0.33-0.084,0.661-0.13,0.991    c-0.06,0.424-0.118,0.848-0.187,1.27c-0.091,0.562-0.194,1.119-0.3,1.676c-0.077,0.405-0.151,0.813-0.237,1.216    c-0.121,0.572-0.257,1.139-0.393,1.705c-0.092,0.38-0.179,0.761-0.277,1.138c-0.159,0.606-0.336,1.205-0.513,1.804    c-0.098,0.327-0.185,0.658-0.288,0.983c-0.23,0.731-0.48,1.455-0.737,2.176c-0.066,0.185-0.124,0.373-0.191,0.557    c-0.333,0.906-0.688,1.803-1.061,2.689c-0.078,0.186-0.167,0.365-0.247,0.551c-0.301,0.691-0.607,1.381-0.933,2.06    c-0.143,0.299-0.297,0.59-0.444,0.885c-0.278,0.557-0.558,1.113-0.852,1.66c-0.177,0.326-0.363,0.646-0.545,0.97    c-0.284,0.506-0.569,1.011-0.867,1.507c-0.2,0.333-0.408,0.66-0.614,0.988c-0.298,0.476-0.598,0.949-0.908,1.416    c-0.22,0.33-0.446,0.656-0.672,0.981c-0.315,0.454-0.634,0.905-0.961,1.35c-0.236,0.322-0.477,0.641-0.719,0.958    c-0.334,0.436-0.674,0.868-1.02,1.295c-0.25,0.311-0.503,0.618-0.759,0.923c-0.355,0.423-0.718,0.839-1.084,1.251    c-0.262,0.295-0.524,0.59-0.791,0.879c-0.38,0.411-0.769,0.815-1.159,1.216c-0.269,0.275-0.535,0.552-0.809,0.822    c-0.411,0.406-0.832,0.802-1.254,1.196c-0.268,0.25-0.532,0.503-0.804,0.748c-0.456,0.411-0.924,0.809-1.392,1.205    c-0.252,0.215-0.499,0.434-0.754,0.645c-0.552,0.452-1.117,0.89-1.685,1.324c-0.183,0.139-0.359,0.285-0.544,0.424    c-0.764,0.569-1.54,1.123-2.331,1.657c-0.073,0.05-0.149,0.095-0.224,0.145c-0.711,0.477-1.432,0.941-2.165,1.389    C287.49,123.111,287.223,123.259,286.96,123.414z M325.991,433.709h-23.742V276.84h23.742V433.709z M338.022,257.335    c0,2.483-2.02,4.501-4.501,4.501h-39.274c-2.482,0-4.501-2.018-4.501-4.501v-55.014c0-2.482,2.02-4.501,4.501-4.501h39.274    c2.482,0,4.501,2.02,4.501,4.501V257.335z M364.74,196.639v230.623h-0.001c0,3.555-2.893,6.447-6.447,6.447h-17.297V275.346    c7.056-2.94,12.03-9.903,12.03-18.011v-55.014c0-8.107-4.975-15.07-12.03-18.011V78.292h17.1c0.106,0.007,0.214,0.013,0.321,0.016    c0.079,0.003,0.193,0.005,0.291,0.004c0.004,0,0.009,0,0.013,0c1.183,0.007,3.038,0.247,4.787,1.537l1.231,0.906V196.639z"/>
	</g>
</g>
<g>
</g>
<g>
</g>
<g>
</g>
<g>
</g>
<g>
</g>
<g>
</g>
<g>
</g>
<g>
</g>
<g>
</g>
<g>
</g>
<g>
</g>
<g>
</g>
<g>
</g>
<g>
</g>
<g>
</g>
</svg>
