<?xml version="1.0" encoding="iso-8859-1"?>
<!-- Generator: Adobe Illustrator 19.0.0, SVG Export Plug-In . SVG Version: 6.00 Build 0)  -->
<svg xmlns="http://www.w3.org/2000/svg" xmlns:xlink="http://www.w3.org/1999/xlink" version="1.1" id="Layer_1" x="0px" y="0px" viewBox="0 0 512.001 512.001" style="enable-background:new 0 0 512.001 512.001;" xml:space="preserve">
<g>
	<g>
		<g>
			<path d="M258.169,172.276c-2.818-2.441-7.002-2.441-9.821,0l-35.253,30.531c-2.527,2.188-3.301,5.785-1.897,8.82l17.626,38.078     c1.229,2.652,3.885,4.35,6.807,4.35h35.254c2.922,0,5.578-1.698,6.806-4.35l17.627-38.078c1.405-3.034,0.632-6.631-1.896-8.82     L258.169,172.276z M266.092,239.055h-25.668v-0.001l-13.241-28.604l26.075-22.582l26.076,22.581L266.092,239.055z"/>
			<path d="M351.816,211.487c-0.041-0.956-0.093-1.909-0.16-2.859c-0.012-0.159-0.018-0.318-0.03-0.479     c-0.079-1.036-0.178-2.067-0.288-3.095c-0.041-0.376-0.085-0.75-0.13-1.125c-0.087-0.736-0.185-1.469-0.288-2.2     c-0.063-0.447-0.126-0.896-0.195-1.342c-0.128-0.816-0.266-1.629-0.413-2.439c-0.099-0.543-0.204-1.083-0.311-1.624     c-0.086-0.427-0.176-0.853-0.266-1.277c-0.279-1.311-0.582-2.613-0.914-3.91c-0.008-0.029-0.015-0.061-0.023-0.091     c-0.195-0.758-0.401-1.512-0.614-2.265c-0.019-0.064-0.037-0.13-0.057-0.195c-2.867-10.062-7.326-19.645-13.314-28.423     c-0.127-0.186-0.272-0.352-0.413-0.523c-12.148-17.533-29.821-30.956-50.484-37.728c-0.075-0.027-0.145-0.065-0.221-0.09     c-0.257-0.083-0.517-0.153-0.774-0.234c-0.735-0.232-1.476-0.455-2.219-0.671c-0.518-0.15-1.04-0.294-1.561-0.437     c-0.717-0.195-1.439-0.383-2.163-0.563c-0.381-0.094-0.761-0.189-1.144-0.279c-0.999-0.235-2.004-0.455-3.015-0.659     c-0.309-0.062-0.618-0.118-0.928-0.178c-0.892-0.171-1.787-0.331-2.687-0.478c-0.24-0.039-0.479-0.082-0.721-0.119     c-1.082-0.169-2.172-0.316-3.266-0.449c-0.276-0.033-0.553-0.064-0.83-0.096c-1.033-0.116-2.071-0.22-3.113-0.304     c-0.111-0.009-0.222-0.021-0.332-0.03c-1.129-0.087-2.264-0.149-3.402-0.198c-0.273-0.012-0.548-0.022-0.822-0.031     c-1.148-0.04-2.299-0.067-3.457-0.067s-2.309,0.027-3.457,0.067c-0.274,0.009-0.549,0.02-0.823,0.031     c-1.138,0.049-2.272,0.111-3.4,0.198c-0.112,0.009-0.226,0.021-0.339,0.03c-1.039,0.085-2.073,0.188-3.104,0.304     c-0.279,0.031-0.559,0.063-0.838,0.096c-1.092,0.133-2.179,0.28-3.26,0.448c-0.244,0.038-0.487,0.082-0.732,0.122     c-0.895,0.146-1.785,0.305-2.672,0.475c-0.313,0.06-0.625,0.117-0.937,0.18c-1.01,0.204-2.013,0.424-3.011,0.658     c-0.383,0.09-0.764,0.186-1.146,0.279c-0.726,0.18-1.448,0.368-2.168,0.564c-0.51,0.139-1.018,0.279-1.526,0.426     c-0.757,0.219-1.511,0.447-2.26,0.684c-0.253,0.08-0.509,0.148-0.762,0.23c-0.075,0.024-0.143,0.062-0.216,0.088     c-20.666,6.772-38.343,20.195-50.491,37.731c-0.141,0.172-0.286,0.338-0.412,0.522c-5.986,8.778-10.446,18.361-13.314,28.423     c-0.02,0.065-0.038,0.131-0.057,0.195c-0.213,0.753-0.419,1.507-0.614,2.265c-0.008,0.03-0.015,0.061-0.022,0.091     c-0.332,1.297-0.635,2.6-0.914,3.91c-0.09,0.425-0.18,0.851-0.266,1.277c-0.107,0.541-0.213,1.081-0.312,1.624     c-0.147,0.81-0.285,1.622-0.413,2.439c-0.069,0.446-0.132,0.894-0.195,1.342c-0.104,0.731-0.201,1.464-0.288,2.2     c-0.045,0.375-0.089,0.749-0.13,1.125c-0.11,1.027-0.209,2.059-0.288,3.095c-0.012,0.16-0.018,0.319-0.03,0.479     c-0.067,0.95-0.119,1.903-0.16,2.859c-0.012,0.297-0.023,0.593-0.033,0.89c-0.037,1.098-0.061,2.198-0.061,3.304     c0,1.109,0.025,2.213,0.061,3.314c0.009,0.264,0.02,0.527,0.03,0.792c0.043,1.042,0.099,2.08,0.174,3.113     c0.005,0.067,0.008,0.136,0.013,0.202c0.083,1.107,0.188,2.208,0.307,3.305c0.028,0.258,0.059,0.516,0.089,0.773     c0.108,0.933,0.23,1.861,0.364,2.786c0.02,0.139,0.034,0.279,0.055,0.418c0.002,0.017,0.008,0.032,0.011,0.05     c2.727,18.107,10.394,34.617,21.58,48.111c0.117,0.167,0.227,0.339,0.36,0.497c12.303,14.665,28.344,25.268,46.263,30.832     c0.847,0.264,1.697,0.516,2.553,0.757c0.571,0.16,1.145,0.316,1.72,0.466c1.023,0.27,2.053,0.523,3.088,0.761     c0.408,0.093,0.818,0.181,1.229,0.268c1.183,0.255,2.373,0.491,3.571,0.703c0.259,0.046,0.519,0.086,0.778,0.13     c1.33,0.223,2.668,0.426,4.017,0.596c0.034,0.004,0.067,0.011,0.102,0.015c0.021,0.003,0.043,0.001,0.065,0.004     c4.005,0.497,8.083,0.757,12.222,0.757c7.754,0,15.302-0.902,22.545-2.603c0.053-0.011,0.105-0.015,0.158-0.027     c0.28-0.066,0.557-0.148,0.837-0.216c0.717-0.176,1.43-0.359,2.141-0.552c0.427-0.115,0.855-0.226,1.281-0.347     c0.939-0.267,1.87-0.553,2.797-0.847c0.432-0.137,0.861-0.276,1.29-0.419c0.962-0.32,1.919-0.649,2.866-0.998     c0.295-0.108,0.587-0.224,0.881-0.335c0.852-0.322,1.697-0.655,2.537-1.001c0.268-0.109,0.537-0.216,0.803-0.328     c1.02-0.429,2.027-0.877,3.029-1.338c0.259-0.12,0.517-0.241,0.775-0.363c1.025-0.483,2.044-0.98,3.05-1.497     c0.16-0.082,0.317-0.169,0.477-0.252c0.9-0.47,1.791-0.953,2.675-1.449c0.243-0.137,0.487-0.271,0.729-0.409     c0.904-0.518,1.798-1.051,2.684-1.596c0.366-0.225,0.73-0.453,1.094-0.684c0.663-0.42,1.32-0.848,1.973-1.283     c0.633-0.422,1.26-0.853,1.883-1.289c0.326-0.228,0.652-0.459,0.976-0.691c6.89-4.941,13.172-10.753,18.604-17.327     c0.163-0.197,0.302-0.408,0.442-0.619c10.881-13.366,18.339-29.623,21.021-47.425c0.003-0.018,0.009-0.033,0.011-0.05     c0.021-0.139,0.034-0.279,0.055-0.418c0.135-0.925,0.256-1.854,0.364-2.786c0.026-0.257,0.056-0.515,0.085-0.773     c0.119-1.097,0.224-2.197,0.307-3.305c0.005-0.066,0.008-0.135,0.013-0.202c0.075-1.033,0.131-2.071,0.174-3.113     c0.011-0.265,0.021-0.528,0.03-0.792c0.036-1.102,0.061-2.205,0.061-3.314c0-1.105-0.024-2.206-0.061-3.304     C351.839,212.08,351.827,211.784,351.816,211.487z M244.674,132.468c1.123-0.114,2.253-0.191,3.383-0.261     c0.289-0.018,0.573-0.051,0.863-0.065c2.887-0.147,5.789-0.147,8.677,0c0.294,0.015,0.582,0.048,0.875,0.066     c1.125,0.069,2.25,0.145,3.369,0.259c0.029,0.004,0.059,0.009,0.088,0.012l-8.67,5.537l-8.671-5.537     C244.618,132.476,244.646,132.471,244.674,132.468z M169.707,211.819c0.023-0.532,0.064-1.061,0.099-1.59     c0.055-0.845,0.112-1.688,0.192-2.526c0.048-0.507,0.107-1.011,0.164-1.515c0.1-0.874,0.207-1.746,0.333-2.611     c0.065-0.446,0.136-0.892,0.208-1.336c0.152-0.941,0.318-1.878,0.502-2.81c0.07-0.357,0.143-0.714,0.218-1.07     c0.222-1.047,0.462-2.088,0.722-3.121c0.059-0.232,0.115-0.466,0.176-0.697c0.314-1.203,0.652-2.398,1.018-3.579     c0.019-0.061,0.036-0.122,0.055-0.183c0.87-2.786,1.893-5.505,3.038-8.157l6.086,17.091l-12.825,12.594     C169.7,212.144,169.699,211.98,169.707,211.819z M200.642,280.647l18.257-1.156l8.551,15.746     C217.586,292.03,208.525,287.043,200.642,280.647z M293.289,289.11c-0.108,0.06-0.217,0.12-0.325,0.179     c-0.903,0.489-1.823,0.952-2.746,1.408l6.085-11.206l10.212,0.647C302.415,283.531,297.988,286.539,293.289,289.11z      M320.06,265.967l-27.59-1.747c-2.915-0.181-5.671,1.34-7.065,3.906l-16.098,29.645c-5.196,1.015-10.56,1.562-16.049,1.562     c-2.249-0.002-4.47-0.117-6.675-0.292l-16.787-30.916c-1.393-2.567-4.172-4.087-7.064-3.906l-35.861,2.27     c-7.68-10.012-13.151-21.795-15.678-34.629l25.255-24.797c2.084-2.046,2.79-5.116,1.811-7.867l-11.962-33.591     c9.567-12.762,22.692-22.702,37.889-28.355l25.038,15.988c1.23,0.786,2.633,1.179,4.036,1.179c1.402,0,2.806-0.393,4.036-1.179     l25.038-15.988c15.196,5.651,28.322,15.594,37.889,28.355l-11.962,33.591c-0.98,2.751-0.273,5.821,1.811,7.867l25.255,24.797     C332.845,244.467,327.529,256.069,320.06,265.967z M324,199.712l6.085-17.09c1.146,2.653,2.168,5.371,3.038,8.158     c0.019,0.061,0.036,0.121,0.055,0.182c0.366,1.183,0.704,2.377,1.019,3.581c0.061,0.231,0.117,0.464,0.175,0.694     c0.261,1.034,0.501,2.076,0.724,3.124c0.074,0.355,0.146,0.712,0.216,1.068c0.185,0.932,0.351,1.869,0.504,2.811     c0.071,0.444,0.142,0.889,0.207,1.334c0.126,0.866,0.233,1.738,0.333,2.613c0.057,0.504,0.116,1.006,0.164,1.512     c0.08,0.839,0.138,1.684,0.192,2.53c0.034,0.529,0.075,1.057,0.099,1.587c0.008,0.162,0.007,0.326,0.013,0.489L324,199.712z"/>
			<path d="M476.543,51.316H35.459C15.907,51.316,0,67.222,0,86.773v257.817c0,19.551,15.907,35.457,35.459,35.457h197.51v27.644     c-29.609,0.817-58.029,3.218-84.74,7.176c-12.562,1.859-21.268,13.594-19.409,26.159c1.661,11.209,11.446,19.661,22.76,19.66     c1.133,0,2.278-0.085,3.4-0.252c30.901-4.579,65.833-6.999,101.02-6.999s70.12,2.42,101.032,7.001     c1.127,0.165,2.266,0.249,3.384,0.249c11.317,0,21.104-8.451,22.764-19.659c0.902-6.085-0.62-12.158-4.285-17.1     c-3.666-4.94-9.037-8.159-15.121-9.06c-26.714-3.958-55.133-6.358-84.741-7.176v-27.644h197.51     c19.551,0,35.457-15.906,35.457-35.457V86.773C512,67.222,496.094,51.316,476.543,51.316z M361.577,429.706     c2.121,0.314,3.992,1.435,5.27,3.157c1.278,1.723,1.809,3.84,1.494,5.963c-0.637,4.297-4.71,7.419-9.121,6.768     c-31.616-4.685-67.31-7.161-103.221-7.161c-35.91,0-71.603,2.477-103.223,7.162c-0.397,0.059-0.801,0.089-1.198,0.089     c-3.936,0-7.341-2.948-7.92-6.857c-0.648-4.381,2.388-8.474,6.769-9.122c28.286-4.191,58.559-6.599,90.18-7.188h0.002     c1.114-0.021,2.224-0.038,3.331-0.055c1.364-0.019,2.73-0.038,4.099-0.052c0.722-0.007,1.436-0.012,2.151-0.017     c1.933-0.014,3.867-0.024,5.809-0.024c1.942,0,3.876,0.011,5.808,0.024c0.716,0.005,1.429,0.01,2.149,0.017     c1.372,0.014,2.739,0.032,4.107,0.052c1.105,0.017,2.213,0.034,3.325,0.055C303.013,423.106,333.287,425.513,361.577,429.706z      M247.97,407.408v-27.362h16.062v27.363c-0.021,0-0.04,0-0.061,0c-0.715-0.008-1.43-0.012-2.147-0.017     c-1.964-0.015-3.913-0.024-5.823-0.024c-1.962,0-3.962,0.01-5.98,0.025c-0.602,0.004-1.205,0.008-1.808,0.013     C248.131,407.407,248.051,407.407,247.97,407.408z M356.88,360.121c-0.001,2.715-2.211,4.924-4.926,4.924H160.049     c-2.716,0-4.926-2.209-4.926-4.924v-6.213c0-2.715,2.21-4.924,4.926-4.924h191.905c2.716,0,4.926,2.209,4.926,4.924V360.121z      M496.999,344.589c0,11.28-9.177,20.456-20.456,20.456H371.238c0.404-1.578,0.642-3.222,0.642-4.924v-6.213     c0-1.702-0.237-3.346-0.642-4.924h102.198c4.143,0,7.5-3.358,7.5-7.5V148.634c0-4.142-3.357-7.5-7.5-7.5s-7.5,3.358-7.5,7.5     v185.348H46.066V97.379h419.871v23.928c0,4.143,3.357,7.5,7.5,7.5s7.5-3.357,7.5-7.5V89.879c0-4.143-3.357-7.5-7.5-7.5H38.565     c-4.143,0-7.5,3.357-7.5,7.5v251.605c0,4.142,3.357,7.5,7.5,7.5h102.198c-0.404,1.578-0.642,3.222-0.642,4.924v6.213     c0,1.702,0.237,3.346,0.642,4.924H35.459c-11.281,0-20.458-9.177-20.458-20.456V86.773c0-11.28,9.178-20.456,20.458-20.456     h441.084c11.28,0,20.456,9.177,20.456,20.456V344.589z"/>
		</g>
	</g>
</g>
<g>
</g>
<g>
</g>
<g>
</g>
<g>
</g>
<g>
</g>
<g>
</g>
<g>
</g>
<g>
</g>
<g>
</g>
<g>
</g>
<g>
</g>
<g>
</g>
<g>
</g>
<g>
</g>
<g>
</g>
</svg>
