<?xml version="1.0" encoding="iso-8859-1"?>
<!-- Generator: Adobe Illustrator 19.0.0, SVG Export Plug-In . SVG Version: 6.00 Build 0)  -->
<svg xmlns="http://www.w3.org/2000/svg" xmlns:xlink="http://www.w3.org/1999/xlink" version="1.1" id="Layer_1" x="0px" y="0px" viewBox="0 0 511.999 511.999" style="enable-background:new 0 0 511.999 511.999;" xml:space="preserve">
<g>
	<g>
		<path d="M486.642,59.521H256H98.99c-4.143,0-7.5,3.358-7.5,7.5c0,4.142,3.357,7.5,7.5,7.5h149.509v91.708    c-46.177,3.824-82.585,42.624-82.585,89.77s36.408,85.945,82.585,89.771v91.707H25.357c-5.71,0-10.356-4.646-10.356-10.356V379.49    h73.795c10.181,0,18.462-8.281,18.462-18.46V150.968c0-10.179-8.281-18.46-18.462-18.46H15.001V84.876    c0-5.71,4.646-10.355,10.356-10.355h47.632c4.143,0,7.5-3.358,7.5-7.5c0-4.142-3.357-7.5-7.5-7.5H25.357    C11.375,59.521,0,70.895,0,84.876C0,87.87,0,369.008,0,371.99v55.132c0,13.982,11.375,25.357,25.357,25.357    c10.001,0,451.284,0,461.286,0c13.982,0,25.357-11.375,25.357-25.357V371.99c0-2.981,0-284.119,0-287.113    C512,70.895,500.625,59.521,486.642,59.521z M15.001,147.509h73.795c1.908,0,3.461,1.552,3.461,3.459V361.03    c0,1.907-1.553,3.459-3.461,3.459H15.001V147.509z M248.499,241.777c-5.101,2.696-8.581,8.049-8.581,14.222    c0,6.17,3.48,11.522,8.581,14.219v60.49c-37.892-3.775-67.584-35.837-67.584-74.708c0-38.87,29.691-70.933,67.584-74.709V241.777z     M263.5,270.217c5.101-2.696,8.581-8.049,8.581-14.219c0-6.172-3.48-11.525-8.581-14.222V181.29    c37.893,3.775,67.584,35.838,67.584,74.709s-29.692,70.933-67.584,74.709V270.217z M496.998,132.508h-73.795    c-10.181,0-18.462,8.281-18.462,18.46v20.025c0,4.142,3.357,7.5,7.5,7.5s7.5-3.358,7.5-7.5v-20.025    c0-1.907,1.553-3.459,3.461-3.459h73.795v216.98h-73.795c-1.908,0-3.461-1.552-3.461-3.459V196.995c0-4.142-3.357-7.5-7.5-7.5    s-7.5,3.358-7.5,7.5v164.034c0,10.18,8.281,18.46,18.462,18.46h73.795v47.632c0.001,5.71-4.645,10.356-10.356,10.356H263.5V345.77    c46.177-3.825,82.585-42.624,82.585-89.771s-36.408-85.946-82.585-89.77V74.522h223.143c5.71,0,10.356,4.645,10.356,10.355    V132.508z"/>
	</g>
</g>
<g>
</g>
<g>
</g>
<g>
</g>
<g>
</g>
<g>
</g>
<g>
</g>
<g>
</g>
<g>
</g>
<g>
</g>
<g>
</g>
<g>
</g>
<g>
</g>
<g>
</g>
<g>
</g>
<g>
</g>
</svg>
