<?xml version="1.0" encoding="iso-8859-1"?>
<!-- Generator: Adobe Illustrator 19.0.0, SVG Export Plug-In . SVG Version: 6.00 Build 0)  -->
<svg xmlns="http://www.w3.org/2000/svg" xmlns:xlink="http://www.w3.org/1999/xlink" version="1.1" id="Layer_1" x="0px" y="0px" viewBox="0 0 512 512" style="enable-background:new 0 0 512 512;" xml:space="preserve">
<g>
	<g>
		<g>
			<path d="M504.5,194.137c-4.143,0-7.5,3.357-7.5,7.5v182.13h-15.603v-45.75v-53.248V231.52v-53.25v-53.249v-0.001     c0-4.143-3.357-7.5-7.5-7.5H38.104c-4.143,0-7.5,3.357-7.5,7.5v0.001v53.249v53.25v53.249v53.248v45.75H15.001v-259.36     c0-12.402,10.089-22.491,22.489-22.491h437.016c12.402,0,22.491,10.09,22.491,22.491v50.9c0,4.143,3.357,7.5,7.5,7.5     s7.5-3.357,7.5-7.5v-50.9c0-20.673-16.819-37.492-37.492-37.492H37.49C16.818,86.915,0,103.735,0,124.408v266.86     c0,4.143,3.358,7.5,7.5,7.5H504.5c4.143,0,7.5-3.357,7.5-7.5v-189.63C512,197.494,508.643,194.137,504.5,194.137z      M426.922,132.521h39.473v38.248h-39.473V132.521z M426.922,185.77h39.473v38.249h-39.473V185.77z M263.5,132.521h39.473v38.248     H263.5V132.521z M263.5,185.77h39.473v38.249H263.5V185.77z M209.026,132.521h39.473v38.248h0h-39.473V132.521z M85.078,383.767     H45.605v-38.249h39.473V383.767z M85.078,330.517H45.605V292.27h39.473V330.517z M85.078,277.269H45.605V239.02h39.473V277.269z      M85.078,224.02H45.605V185.77h39.473V224.02z M85.078,170.769H45.605v-38.248h39.473V170.769z M139.551,383.767h-39.473v-38.249     h39.473V383.767z M139.551,330.517h-39.473V292.27h39.473V330.517z M139.551,277.269h-39.473v-38.248h39.473V277.269z      M139.551,224.02h-39.473V185.77h39.473V224.02z M139.551,170.769h-39.473v-38.248h39.473V170.769z M194.026,383.767h-39.473     v-38.249h39.473V383.767z M194.026,330.517h-39.473V292.27h39.473V330.517z M194.026,277.269h-39.473V239.02h39.473V277.269z      M194.026,224.02h-39.473V185.77h39.473V224.02z M194.026,170.769h-39.473v-38.248h39.473V170.769z M209.026,185.77h39.473     v38.249h0h-39.473V185.77z M248.5,383.767h-39.473v-38.249H248.5V383.767z M248.5,330.517h-39.473V292.27H248.5V330.517z      M248.5,277.269h-39.473V239.02H248.5V277.269z M302.973,383.767H263.5v-38.249h39.473V383.767z M302.973,330.517H263.5V292.27     h39.473V330.517z M302.973,277.269H263.5V239.02h39.473V277.269z M357.448,383.767h-39.473v-38.249h39.473V383.767z      M357.448,330.517h-39.473V292.27h39.473V330.517z M357.448,277.269h-39.473V239.02h39.473V277.269z M357.448,224.02h-39.473     V185.77h39.473V224.02z M357.448,170.769h-39.473v-38.248h39.473V170.769z M411.922,383.767h-39.473v-38.249h39.473V383.767z      M411.922,330.517h-39.473V292.27h39.473V330.517z M411.922,277.269h-39.473V239.02h39.473V277.269z M411.922,224.02h-39.473     V185.77h39.473V224.02z M411.922,170.769h-39.473v-38.248h39.473V170.769z M426.922,239.021h39.473v38.248h-39.473V239.021z      M466.396,383.767h-39.473v-38.249h39.473V383.767z M466.396,330.517h-39.473V292.27h39.473V330.517z"/>
			<path d="M504.5,410.084H7.5c-4.142,0-7.5,3.357-7.5,7.5c0,4.142,3.358,7.5,7.5,7.5H504.5c4.143,0,7.5-3.358,7.5-7.5     C512,413.441,508.642,410.084,504.5,410.084z"/>
		</g>
	</g>
</g>
<g>
</g>
<g>
</g>
<g>
</g>
<g>
</g>
<g>
</g>
<g>
</g>
<g>
</g>
<g>
</g>
<g>
</g>
<g>
</g>
<g>
</g>
<g>
</g>
<g>
</g>
<g>
</g>
<g>
</g>
</svg>
