<?xml version="1.0" encoding="iso-8859-1"?>
<!-- Generator: Adobe Illustrator 19.0.0, SVG Export Plug-In . SVG Version: 6.00 Build 0)  -->
<svg xmlns="http://www.w3.org/2000/svg" xmlns:xlink="http://www.w3.org/1999/xlink" version="1.1" id="Layer_1" x="0px" y="0px" viewBox="0 0 511.967 511.967" style="enable-background:new 0 0 511.967 511.967;" xml:space="preserve">
<g>
	<g>
		<g>
			<path d="M412.347,0H159.846c-4.143,0-7.5,3.357-7.5,7.5s3.357,7.5,7.5,7.5h252.501c3.575,0,6.484,2.908,6.484,6.483     c0,3.575-2.909,6.484-6.484,6.484H99.62c-3.575,0-6.484-2.909-6.484-6.484c0-3.575,2.909-6.483,6.484-6.483h34.726     c4.143,0,7.5-3.357,7.5-7.5s-3.357-7.5-7.5-7.5H99.62C87.774,0,78.136,9.638,78.136,21.483c0,11.847,9.638,21.485,21.484,21.485     h312.727c11.847,0,21.484-9.638,21.484-21.484S424.194,0,412.347,0z"/>
			<path d="M351.752,233.545c-0.011-0.154-0.018-0.309-0.029-0.463c-0.077-1.01-0.174-2.014-0.281-3.014     c-0.039-0.365-0.082-0.73-0.125-1.095c-0.086-0.718-0.181-1.433-0.281-2.146c-0.061-0.426-0.12-0.854-0.187-1.278     c-0.126-0.805-0.262-1.605-0.407-2.403c-0.095-0.523-0.197-1.045-0.301-1.566c-0.084-0.423-0.173-0.844-0.263-1.265     c-0.267-1.254-0.558-2.501-0.874-3.741c-0.013-0.049-0.023-0.098-0.036-0.146c-0.188-0.73-0.387-1.457-0.592-2.183     c-0.022-0.076-0.044-0.153-0.066-0.23c-2.792-9.783-7.13-19.102-12.953-27.638c-0.116-0.171-0.251-0.322-0.38-0.48     c-11.821-17.077-29.03-30.151-49.15-36.747c-0.075-0.027-0.145-0.064-0.222-0.089c-0.245-0.079-0.493-0.145-0.738-0.224     c-0.741-0.234-1.486-0.459-2.235-0.676c-0.479-0.139-0.961-0.271-1.441-0.402c-0.708-0.192-1.418-0.377-2.131-0.554     c-0.366-0.091-0.731-0.183-1.099-0.268c-0.976-0.23-1.956-0.443-2.943-0.643c-0.299-0.061-0.599-0.115-0.898-0.173     c-0.869-0.167-1.742-0.322-2.619-0.466c-0.232-0.037-0.465-0.079-0.698-0.115c-1.054-0.164-2.115-0.309-3.18-0.438     c-0.27-0.033-0.539-0.063-0.808-0.093c-1.006-0.113-2.015-0.214-3.029-0.296c-0.108-0.009-0.217-0.02-0.326-0.029     c-1.098-0.085-2.201-0.146-3.31-0.193c-0.267-0.012-0.534-0.021-0.802-0.03c-1.117-0.039-2.237-0.065-3.364-0.065     s-2.247,0.026-3.364,0.065c-0.268,0.009-0.535,0.018-0.802,0.03c-1.108,0.048-2.212,0.108-3.31,0.193     c-0.109,0.009-0.218,0.02-0.326,0.029c-1.015,0.082-2.023,0.183-3.029,0.296c-0.269,0.03-0.538,0.06-0.808,0.093     c-1.064,0.129-2.126,0.273-3.18,0.438c-0.233,0.036-0.466,0.078-0.698,0.115c-0.877,0.144-1.75,0.299-2.619,0.466     c-0.299,0.058-0.599,0.112-0.898,0.173c-0.987,0.199-1.968,0.413-2.943,0.643c-0.367,0.086-0.732,0.178-1.099,0.268     c-0.713,0.177-1.423,0.361-2.131,0.554c-0.48,0.131-0.962,0.264-1.441,0.402c-0.749,0.217-1.494,0.441-2.235,0.676     c-0.245,0.078-0.493,0.145-0.738,0.224c-0.077,0.024-0.146,0.062-0.222,0.089c-20.12,6.596-37.329,19.67-49.15,36.747     c-0.129,0.158-0.264,0.31-0.38,0.48c-5.81,8.519-10.143,17.816-12.935,27.577c-0.032,0.11-0.064,0.22-0.096,0.33     c-0.198,0.705-0.393,1.411-0.575,2.121c-0.03,0.118-0.058,0.238-0.088,0.357c-0.295,1.164-0.568,2.336-0.819,3.513     c-0.095,0.441-0.188,0.883-0.276,1.326c-0.101,0.51-0.201,1.02-0.294,1.531c-0.15,0.827-0.293,1.659-0.422,2.494     c-0.061,0.392-0.114,0.785-0.17,1.179c-0.104,0.724-0.199,1.449-0.286,2.178c-0.042,0.359-0.085,0.717-0.123,1.076     c-0.108,1.004-0.206,2.012-0.282,3.025c-0.012,0.148-0.018,0.299-0.028,0.448c-0.066,0.929-0.117,1.861-0.156,2.798     c-0.013,0.287-0.023,0.575-0.033,0.863c-0.035,1.068-0.06,2.139-0.06,3.216c0,1.085,0.024,2.163,0.061,3.239     c0.008,0.242,0.018,0.484,0.027,0.727c0.044,1.067,0.101,2.13,0.179,3.189c0.001,0.008,0.001,0.018,0.001,0.018     c0.084,1.127,0.189,2.238,0.311,3.346c0.021,0.186,0.043,0.371,0.064,0.557c0.116,1.009,0.246,2.013,0.394,3.011     c0.011,0.075,0.019,0.151,0.029,0.227c0.001,0.009,0.005,0.018,0.006,0.026c2.652,17.634,10.116,33.712,21.009,46.851     c0.115,0.162,0.222,0.329,0.351,0.483c11.396,13.585,26.091,23.579,42.517,29.182c0.123,0.042,0.245,0.086,0.368,0.128     c0.692,0.233,1.386,0.461,2.085,0.679c0.867,0.271,1.74,0.528,2.617,0.775c0.504,0.141,1.008,0.278,1.515,0.411     c1.053,0.277,2.112,0.539,3.178,0.782c0.328,0.073,0.656,0.144,0.985,0.215c1.225,0.265,2.457,0.51,3.698,0.727     c0.159,0.028,0.319,0.053,0.48,0.08c5.25,0.893,10.643,1.364,16.144,1.364c7.553,0,14.902-0.88,21.957-2.536     c0.046-0.01,0.093-0.014,0.139-0.024c0.245-0.058,0.487-0.129,0.731-0.189c0.756-0.186,1.509-0.379,2.258-0.582     c0.371-0.101,0.744-0.197,1.114-0.303c0.949-0.27,1.892-0.557,2.829-0.855c0.376-0.119,0.75-0.241,1.124-0.365     c0.976-0.323,1.944-0.658,2.905-1.011c0.23-0.085,0.459-0.176,0.689-0.263c0.905-0.341,1.804-0.695,2.695-1.063     c0.209-0.086,0.418-0.169,0.627-0.257c1.029-0.433,2.048-0.885,3.059-1.352c0.209-0.097,0.416-0.194,0.623-0.292     c1.035-0.486,2.062-0.987,3.076-1.51c0.107-0.055,0.213-0.113,0.32-0.169c0.938-0.488,1.866-0.992,2.786-1.51     c0.198-0.111,0.398-0.22,0.595-0.333c0.906-0.518,1.802-1.053,2.689-1.6c0.328-0.202,0.654-0.407,0.98-0.613     c0.697-0.441,1.39-0.891,2.074-1.349c0.561-0.374,1.115-0.758,1.667-1.144c0.35-0.245,0.698-0.49,1.044-0.74     c6.69-4.802,12.791-10.447,18.067-16.834c0.17-0.206,0.318-0.424,0.464-0.645c10.577-13.007,17.826-28.822,20.431-46.141     c0.001-0.009,0.005-0.018,0.006-0.026c0.011-0.075,0.019-0.151,0.029-0.228c0.147-0.996,0.277-1.999,0.394-3.006     c0.021-0.188,0.044-0.375,0.064-0.564c0.121-1.106,0.227-2.218,0.311-3.335c0,0,0-0.018,0.001-0.025     c0.078-1.057,0.135-2.119,0.179-3.186c0.01-0.244,0.02-0.489,0.027-0.734c0.036-1.074,0.06-2.152,0.06-3.235     c0-1.075-0.024-2.146-0.06-3.213c-0.01-0.29-0.02-0.581-0.033-0.871C351.869,235.396,351.818,234.469,351.752,233.545z      M247.441,159.85c0.12-0.012,0.24-0.029,0.36-0.041c1.199-0.121,2.407-0.208,3.621-0.276c0.289-0.016,0.578-0.029,0.868-0.042     c1.207-0.055,2.419-0.092,3.64-0.092c0.036,0,0.071,0,0.107,0c1.221,0,2.433,0.037,3.64,0.092     c0.29,0.013,0.579,0.026,0.868,0.042c1.214,0.068,2.422,0.155,3.621,0.276c0.12,0.012,0.24,0.029,0.36,0.041     c0.691,0.073,1.374,0.173,2.061,0.264l-10.604,8.62l-10.604-8.62C246.067,160.022,246.749,159.923,247.441,159.85z      M175.068,236.399c0.016-0.317,0.046-0.632,0.064-0.949c0.061-0.992,0.131-1.983,0.227-2.967     c0.039-0.399,0.091-0.797,0.135-1.195c0.104-0.913,0.215-1.822,0.348-2.726c0.057-0.383,0.119-0.765,0.181-1.145     c0.153-0.941,0.318-1.879,0.503-2.811c0.063-0.314,0.127-0.629,0.192-0.943c0.22-1.04,0.458-2.072,0.717-3.098     c0.049-0.194,0.096-0.389,0.146-0.582c0.995-3.815,2.258-7.523,3.773-11.099l5.685,15.964l-11.976,11.76     C175.066,236.538,175.065,236.467,175.068,236.399z M205.469,303.682l17.024-1.078l7.975,14.683     C221.3,314.235,212.86,309.594,205.469,303.682z M301.319,307.522c-0.063,0.043-0.127,0.085-0.19,0.127     c-0.959,0.645-1.934,1.268-2.921,1.874c-0.127,0.078-0.254,0.158-0.382,0.236c-1.056,0.639-2.126,1.258-3.212,1.849     c-0.07,0.038-0.143,0.074-0.213,0.112c-0.976,0.527-1.966,1.032-2.965,1.521c-0.244,0.119-0.489,0.237-0.734,0.354     c-0.306,0.145-0.618,0.277-0.926,0.419l6.057-14.398l12.953,2.163C306.409,303.828,303.924,305.757,301.319,307.522z      M321.05,288.619l-28.598-4.774c-3.424-0.572-6.801,1.284-8.148,4.489l-13.326,31.679c-4.863,0.914-9.87,1.414-14.995,1.414     c-2.137,0-4.249-0.109-6.346-0.273l-16.248-29.917c-1.394-2.567-4.158-4.085-7.064-3.906l-34.71,2.197     c-7.379-9.645-12.644-20.985-15.092-33.331l24.443-24.002c2.084-2.046,2.79-5.116,1.811-7.867l-11.576-32.508     c9.134-12.146,21.603-21.638,36.028-27.134l24.023,19.532c1.378,1.12,3.055,1.681,4.731,1.681c1.676,0,3.354-0.561,4.731-1.681     l24.023-19.532c14.426,5.497,26.895,14.988,36.028,27.134l-11.576,32.508c-0.98,2.751-0.273,5.82,1.811,7.867l24.443,24.002     C333.071,268.154,328.065,279.174,321.05,288.619z M324.929,224.846l5.685-15.962c1.517,3.577,2.779,7.287,3.774,11.104     c0.049,0.188,0.095,0.377,0.142,0.565c0.261,1.03,0.5,2.067,0.721,3.113c0.065,0.31,0.129,0.622,0.19,0.934     c0.185,0.933,0.352,1.873,0.504,2.817c0.062,0.38,0.124,0.76,0.181,1.142c0.133,0.903,0.244,1.814,0.348,2.728     c0.045,0.397,0.096,0.795,0.135,1.194c0.096,0.983,0.166,1.975,0.227,2.968c0.018,0.316,0.049,0.631,0.064,0.948     c0.003,0.068,0.002,0.139,0.005,0.209L324.929,224.846z"/>
			<path d="M260.895,198.097c-2.818-2.439-7.002-2.44-9.82,0.001l-34.232,29.647c-2.527,2.188-3.301,5.785-1.896,8.819     l17.116,36.978c1.228,2.652,3.884,4.35,6.807,4.35h34.232c2.92,0.001,5.576-1.697,6.804-4.349l17.118-36.978     c1.405-3.033,0.632-6.631-1.895-8.82L260.895,198.097z M268.308,262.893h-24.647l-12.732-27.504l25.055-21.699l25.057,21.698     L268.308,262.893z"/>
			<path d="M399.697,147.798c-4.142,0-7.5,3.357-7.5,7.5l-0.017,212.855l-75.247,50.52c-0.372,0.206-0.723,0.443-1.053,0.706     l-59.92,40.229l-59.78-40.157c-0.376-0.31-0.783-0.583-1.216-0.816l-75.197-50.513l0.033-265.188h272.396v26.37     c0,4.143,3.358,7.5,7.5,7.5c4.143,0,7.5-3.357,7.5-7.5v-33.87V70.642c0.003-8.291-6.744-15.037-15.035-15.037H119.806     c-8.291,0-15.037,6.745-15.037,15.036v24.792v272.688c0,5.021,2.488,9.688,6.653,12.484l7.919,5.318v34.794     c0,4.143,3.357,7.5,7.5,7.5s7.5-3.357,7.5-7.5v-24.721l17.285,11.609v34.049c0,4.143,3.357,7.5,7.5,7.5s7.5-3.357,7.5-7.5     v-23.976l17.286,11.609v33.302c0,4.143,3.357,7.5,7.5,7.5s7.5-3.357,7.5-7.5v-23.228l17.286,11.609v33.563     c0,4.143,3.357,7.5,7.5,7.5s7.5-3.357,7.5-7.5v-23.488l16.402,11.016c0.288,0.193,0.584,0.374,0.883,0.547v31.859     c0,4.143,3.357,7.5,7.5,7.5s7.5-3.357,7.5-7.5v-31.859c0.3-0.173,0.596-0.354,0.885-0.548l16.4-11.015v23.488     c0,4.143,3.357,7.5,7.5,7.5s7.5-3.357,7.5-7.5V450.97l17.286-11.608v23.228c0,4.143,3.357,7.5,7.5,7.5s7.5-3.357,7.5-7.5v-33.3     l17.286-11.609v23.976c0,4.143,3.357,7.5,7.5,7.5s7.5-3.357,7.5-7.5v-34.049l17.285-11.609v24.721c0,4.143,3.357,7.5,7.5,7.5     s7.5-3.357,7.5-7.5v-34.795l7.917-5.316c4.167-2.797,6.655-7.465,6.655-12.485V155.298     C407.197,151.155,403.84,147.798,399.697,147.798z M119.806,70.606l272.393,0.036v17.292H119.804L119.806,70.606z"/>
		</g>
	</g>
</g>
<g>
</g>
<g>
</g>
<g>
</g>
<g>
</g>
<g>
</g>
<g>
</g>
<g>
</g>
<g>
</g>
<g>
</g>
<g>
</g>
<g>
</g>
<g>
</g>
<g>
</g>
<g>
</g>
<g>
</g>
</svg>
