<?xml version="1.0" encoding="iso-8859-1"?>
<!-- Generator: Adobe Illustrator 19.0.0, SVG Export Plug-In . SVG Version: 6.00 Build 0)  -->
<svg xmlns="http://www.w3.org/2000/svg" xmlns:xlink="http://www.w3.org/1999/xlink" version="1.1" id="Layer_1" x="0px" y="0px" viewBox="0 0 512 512" style="enable-background:new 0 0 512 512;" xml:space="preserve">
<g>
	<g>
		<path d="M504.592,218.959c4.092,0,7.408-3.317,7.408-7.408V29.139c0-12.799-10.413-23.213-23.213-23.213H23.213    C10.413,5.928,0,16.341,0,29.139v325.968c0,12.799,10.413,23.213,23.213,23.213h46.019c3.042,14.928,15.093,26.612,30.205,29.124    v76.733c0,12.073,9.822,21.896,21.896,21.896h58.936c4.092,0,7.408-3.317,7.408-7.408c0-4.092-3.317-7.408-7.408-7.408h-58.936    c-3.903,0-7.079-3.176-7.079-7.079v-38.03h170.393c4.092,0,7.408-3.317,7.408-7.408c0-4.092-3.316-7.408-7.408-7.408H114.253    v-23.377H400.38v23.377h-79.845c-4.092,0-7.408,3.317-7.408,7.408s3.316,7.408,7.408,7.408h79.845v38.03    c0,3.903-3.176,7.079-7.078,7.079H210.89c-4.092,0-7.408,3.317-7.408,7.408s3.317,7.408,7.408,7.408h182.412    c12.073,0,21.895-9.822,21.895-21.896v-43.889c0.106-0.5,0.165-1.018,0.165-1.549c0-0.532-0.059-1.049-0.165-1.549v-29.746    c15.112-2.512,27.163-14.196,30.206-29.124h43.384c12.8,0,23.213-10.413,23.213-23.213v-110.96c0-4.092-3.316-7.408-7.408-7.408    c-4.092,0-7.408,3.317-7.408,7.408v110.96c0,4.63-3.767,8.396-8.396,8.396H438.74H75.895H23.213c-4.63,0-8.396-3.767-8.396-8.396    V29.139c0-4.63,3.766-8.396,8.396-8.396h465.574c4.629,0,8.396,3.766,8.396,8.396v182.41    C497.183,215.642,500.5,218.959,504.592,218.959z M430.062,378.321c-2.985,8.418-10.638,14.817-22.273,14.817H106.845h-1.317    c-9.659,0-17.898-6.193-20.956-14.817H430.062z"/>
	</g>
</g>
<g>
	<g>
		<path d="M458.496,35.561H53.505c-12.8,0-23.213,10.413-23.213,23.213v266.701c0,12.8,10.413,23.213,23.213,23.213h404.991    c12.8,0,23.213-10.413,23.213-23.213V58.774C481.709,45.974,471.296,35.561,458.496,35.561z M466.892,325.475    c0,4.63-3.767,8.396-8.396,8.396H263.408v-175.66c0-4.092-3.316-7.408-7.408-7.408s-7.408,3.317-7.408,7.408v175.66H53.505    c-4.63,0-8.396-3.766-8.396-8.396V58.774c0-4.63,3.766-8.396,8.396-8.396h195.087v75.565c0,4.092,3.317,7.408,7.408,7.408    s7.408-3.317,7.408-7.408V50.378h195.088c4.629,0,8.396,3.766,8.396,8.396V325.475z"/>
	</g>
</g>
<g>
	<g>
		<path d="M212.948,227.757h-74.191c6.481-5.187,14.198-10.268,21.313-14.289c20.956-11.837,56.938-28.012,56.938-65.961    c0-63.609-87.534-74.657-140.905-37.966c-5.336,3.668-9.395,7.03-12.41,10.278c-2.567,2.764-2.637,7.019-0.163,9.867    l25.988,29.917c1.437,1.654,3.522,2.57,5.725,2.539c6.699-0.135,6.706-7.863,21.458-17.147c7.421-4.664,14.058-6.12,20.699-6.12    c20.221,0,23.529,14.232,18.897,20.334c-9.628,12.679-46.948,24.112-69.875,44.414c-6.733,5.958-12.131,12.494-16.042,19.427    c-3.907,6.92-6.674,14.537-8.225,22.637c-1.492,7.773-2.248,16.528-2.248,26.02c0,4.079,3.306,7.385,7.385,7.385h145.656    c4.079,0,7.385-3.306,7.385-7.385v-36.566C220.333,231.063,217.027,227.757,212.948,227.757z M205.564,264.322h-0.001H74.851    c0.277-5.711,0.882-11.02,1.81-15.856c11.135-58.164,96.228-56.249,96.228-94.915c0-8.201-3.266-15.286-9.712-21.065    c-12.019-10.761-42.11-15.291-68.016,11.089l-15.756-18.136c42.337-33.707,122.835-30.406,122.835,22.068    c0,28.255-27.394,40.653-49.435,53.103c-11.514,6.506-30.333,18.853-37.684,30.619c-3.065,4.907,0.468,11.297,6.264,11.297h84.179    V264.322z"/>
	</g>
</g>
<g>
	<g>
		<path d="M409.294,176.944c23.231-17.227,26.876-55.423,0.699-75.178c-31.791-23.961-89.889-13.137-107.947,14.551    c-1.824,2.795-1.546,6.466,0.678,8.956l20.111,22.504c1.561,1.746,3.864,2.654,6.189,2.432c2.332-0.216,4.423-1.526,5.636-3.53    c3.042-5.028,6.839-8.805,11.61-11.548c8.81-5.071,22.374-5.54,29.248-0.633c1.683,1.204,3.614,3.268,3.614,8.596    c0,4.618-1.716,8.158-5.401,11.139c-4.051,3.278-10.22,4.939-18.338,4.939h-7.421c-4.079,0-7.385,3.306-7.385,7.385v23.94    c0,4.079,3.306,7.385,7.385,7.385h6.704c10.265,0,17.788,1.753,22.354,5.205c4.047,3.065,5.932,7.28,5.932,13.266    c0,7.419-2.686,10.292-4.706,11.807c-7.949,5.96-26.96,5.299-36.078,0.741c-12.163-6.08-11.408-12.964-18.118-12.989    c-0.01,0-0.018,0-0.028,0c-2.242,0-4.364,1.019-5.766,2.771l-18.195,22.743c-2.188,2.736-2.154,6.634,0.084,9.33    c15.102,18.193,37.122,25.651,61.225,25.651C440.605,276.408,445.966,201.029,409.294,176.944z M332.034,256.347    c-6.265-2.626-11.778-6.203-16.452-10.666l8.902-11.127c3.362,3.019,7.069,5.548,11.09,7.558    c16.349,8.174,62.158,11.066,62.158-25.758c0-23.01-17.952-33.079-42.374-33.238v-9.173h0.037c42.382,0,46.388-38.818,28.71-51.46    c-12.111-8.646-31.882-7.817-45.198-0.152c-4.136,2.378-7.834,5.351-11.061,8.888l-9.949-11.134    c17.14-17.54,60.194-23.869,83.206-6.525c15.988,12.069,14.835,33.436,5.431,45.609c-4.137,5.35-10.129,9.583-17.482,10.893    c-8.04,1.435-8.102,13.101,0.005,14.54c15.669,2.786,27.186,15.733,27.186,35.344    C416.239,263.358,359.124,267.689,332.034,256.347z"/>
	</g>
</g>
<g>
</g>
<g>
</g>
<g>
</g>
<g>
</g>
<g>
</g>
<g>
</g>
<g>
</g>
<g>
</g>
<g>
</g>
<g>
</g>
<g>
</g>
<g>
</g>
<g>
</g>
<g>
</g>
<g>
</g>
</svg>
