<?xml version="1.0" encoding="iso-8859-1"?>
<!-- Generator: Adobe Illustrator 19.0.0, SVG Export Plug-In . SVG Version: 6.00 Build 0)  -->
<svg xmlns="http://www.w3.org/2000/svg" xmlns:xlink="http://www.w3.org/1999/xlink" version="1.1" id="Layer_1" x="0px" y="0px" viewBox="0 0 511.999 511.999" style="enable-background:new 0 0 511.999 511.999;" xml:space="preserve">
<g>
	<g>
		<g>
			<path d="M260.883,391.934c-2.803-2.426-6.964-2.427-9.767,0.001l-29.256,25.338c-2.513,2.176-3.282,5.754-1.886,8.772     l14.628,31.602c1.221,2.638,3.863,4.327,6.769,4.327h29.256c2.906,0,5.548-1.688,6.769-4.326l14.63-31.602     c1.397-3.018,0.629-6.596-1.886-8.774L260.883,391.934z M265.86,447.053h-19.722l-10.267-22.179L256,407.443l20.129,17.431     L265.86,447.053z"/>
			<path d="M338.949,423.985c-0.058-0.998-0.134-1.992-0.227-2.984c-0.028-0.297-0.052-0.595-0.083-0.89     c-0.272-2.593-0.669-5.163-1.182-7.705c-0.037-0.182-0.075-0.362-0.112-0.543c-0.257-1.232-0.538-2.46-0.85-3.677     c-0.005-0.018-0.009-0.037-0.014-0.057c-2.374-9.23-6.329-18.014-11.78-26.008c-0.145-0.212-0.309-0.405-0.472-0.599     c-10.178-14.616-24.922-25.814-42.152-31.524c-0.146-0.059-0.286-0.127-0.438-0.176c-0.248-0.08-0.498-0.148-0.746-0.226     c-0.209-0.066-0.419-0.126-0.629-0.19c-1.002-0.306-2.009-0.593-3.021-0.86c-0.308-0.081-0.615-0.161-0.924-0.24     c-1.017-0.256-2.037-0.49-3.061-0.708c-0.235-0.05-0.469-0.105-0.704-0.153c-1.256-0.255-2.517-0.481-3.786-0.678     c-0.223-0.035-0.448-0.06-0.671-0.093c-1.032-0.151-2.068-0.284-3.106-0.396c-0.401-0.044-0.805-0.081-1.207-0.117     c-0.918-0.086-1.837-0.155-2.758-0.211c-0.388-0.023-0.774-0.05-1.164-0.068c-1.285-0.06-2.572-0.098-3.863-0.098     c-1.291,0-2.578,0.039-3.863,0.098c-0.389,0.018-0.776,0.045-1.164,0.068c-0.921,0.056-1.841,0.125-2.758,0.211     c-0.403,0.037-0.807,0.074-1.207,0.117c-1.039,0.111-2.075,0.245-3.107,0.396c-0.223,0.032-0.449,0.058-0.67,0.093     c-1.267,0.196-2.529,0.424-3.786,0.678c-0.237,0.048-0.469,0.103-0.704,0.153c-1.024,0.218-2.045,0.453-3.06,0.708     c-0.309,0.078-0.617,0.159-0.925,0.241c-1.013,0.268-2.019,0.554-3.022,0.859c-0.209,0.065-0.42,0.124-0.628,0.19     c-0.248,0.078-0.498,0.146-0.746,0.226c-0.151,0.049-0.291,0.117-0.438,0.176c-17.234,5.711-31.979,16.912-42.158,31.532     c-0.161,0.191-0.324,0.382-0.467,0.592c-5.45,7.991-9.403,16.772-11.777,26c-0.007,0.027-0.014,0.056-0.021,0.084     c-0.309,1.208-0.589,2.425-0.844,3.647c-0.039,0.187-0.08,0.374-0.117,0.562c-0.51,2.539-0.906,5.104-1.179,7.694     c-0.031,0.297-0.056,0.597-0.084,0.895c-0.094,0.991-0.169,1.983-0.228,2.98c-0.021,0.354-0.044,0.709-0.06,1.064     c-0.059,1.278-0.097,2.557-0.097,3.842c0,1.26,0.039,2.523,0.096,3.789c0.018,0.401,0.044,0.801,0.067,1.201     c0.055,0.907,0.124,1.812,0.208,2.717c0.036,0.386,0.067,0.772,0.107,1.156c0.125,1.18,0.269,2.355,0.444,3.524     c0.003,0.021,0.01,0.041,0.014,0.061c2.299,15.24,8.75,29.137,18.162,40.498c0.105,0.146,0.201,0.297,0.317,0.438     c10.355,12.344,23.855,21.27,38.937,25.96c0.106,0.033,0.214,0.063,0.32,0.096c1.12,0.344,2.248,0.667,3.385,0.964     c0.367,0.096,0.738,0.181,1.107,0.272c0.886,0.219,1.775,0.43,2.671,0.619c0.536,0.113,1.076,0.215,1.616,0.317     c0.743,0.142,1.488,0.279,2.237,0.4c0.643,0.105,1.291,0.198,1.941,0.287c0.378,0.053,0.751,0.12,1.131,0.168     c0.12,0.015,0.24,0.014,0.36,0.023c3.278,0.394,6.607,0.622,9.989,0.622c6.402,0,12.628-0.752,18.619-2.13     c0.169-0.027,0.338-0.049,0.506-0.089c0.361-0.085,0.718-0.188,1.077-0.277c0.359-0.091,0.719-0.183,1.076-0.277     c0.934-0.248,1.863-0.513,2.787-0.794c0.308-0.094,0.617-0.183,0.923-0.279c1.078-0.341,2.147-0.703,3.211-1.089     c0.137-0.05,0.276-0.094,0.414-0.144c1.187-0.437,2.362-0.902,3.528-1.393c0.318-0.134,0.63-0.279,0.945-0.418     c0.823-0.358,1.641-0.725,2.452-1.109c0.427-0.203,0.846-0.414,1.267-0.623c0.71-0.352,1.415-0.712,2.115-1.085     c0.413-0.22,0.825-0.441,1.233-0.668c0.755-0.418,1.501-0.849,2.243-1.291c0.313-0.188,0.631-0.369,0.941-0.561     c7.823-4.79,14.878-10.858,20.76-17.977c0.182-0.22,0.343-0.453,0.496-0.688c9.094-11.226,15.332-24.853,17.582-39.774     c0.003-0.02,0.01-0.037,0.013-0.057c0.175-1.167,0.317-2.341,0.443-3.518c0.042-0.389,0.073-0.779,0.108-1.169     c0.085-0.901,0.155-1.803,0.209-2.707c0.024-0.401,0.049-0.802,0.067-1.203c0.058-1.264,0.096-2.526,0.096-3.788     c0-1.285-0.04-2.564-0.097-3.841C338.993,424.694,338.971,424.34,338.949,423.985z M251.502,360.867     c0.374-0.025,0.745-0.061,1.119-0.08c1.038-0.051,2.083-0.076,3.133-0.08c0.167,0,0.333,0,0.5,0     c1.047,0.004,2.089,0.029,3.124,0.08c0.376,0.018,0.749,0.056,1.125,0.08c0.657,0.043,1.316,0.089,1.968,0.149L256,366.279     l-6.472-5.263C250.182,360.956,250.841,360.91,251.502,360.867z M188.141,422.233c0.02-0.215,0.044-0.429,0.066-0.643     c0.229-2.136,0.551-4.245,0.973-6.32c0.016-0.08,0.034-0.159,0.05-0.239c0.719-3.471,1.711-6.843,2.938-10.101l3.697,10.379     l-7.778,7.638C188.107,422.711,188.118,422.471,188.141,422.233z M215.676,483.835l11.098-0.702l5.193,9.561     C226.112,490.481,220.639,487.487,215.676,483.835z M297.172,483.201c-0.197,0.149-0.391,0.302-0.589,0.449     c-0.611,0.455-1.235,0.891-1.862,1.325c-0.339,0.234-0.678,0.471-1.022,0.699c-0.543,0.362-1.096,0.712-1.65,1.059     c-0.436,0.271-0.87,0.54-1.311,0.803c-0.511,0.303-1.025,0.599-1.545,0.889c-0.486,0.272-0.976,0.538-1.469,0.798     c-0.265,0.14-0.531,0.273-0.797,0.409l3.773-8.969l8.002,1.336C298.198,482.406,297.69,482.808,297.172,483.201z      M311.136,468.948l-23.794-3.972c-3.409-0.57-6.765,1.279-8.104,4.465l-11.168,26.548c-3.92,0.704-7.949,1.092-12.069,1.092     c-1.608-0.001-3.198-0.078-4.776-0.187l-13.613-25.068c-1.386-2.553-4.129-4.072-7.027-3.885l-29.115,1.845     c-5.92-7.875-10.177-17.064-12.244-27.047l20.49-20.119c2.073-2.036,2.775-5.089,1.801-7.825l-9.7-27.238     c7.535-9.853,17.693-17.591,29.421-22.179l20.056,16.306c1.371,1.114,3.039,1.672,4.706,1.672c1.668,0,3.336-0.558,4.706-1.672     l20.056-16.306c11.728,4.588,21.885,12.327,29.42,22.179l-9.699,27.238c-0.974,2.736-0.272,5.789,1.801,7.825l20.488,20.119     C320.778,452.374,316.736,461.261,311.136,468.948z M316.137,415.311l3.695-10.378c1.225,3.255,2.217,6.626,2.936,10.096     c0.018,0.082,0.035,0.163,0.052,0.246c0.422,2.073,0.744,4.181,0.974,6.317c0.022,0.214,0.045,0.428,0.066,0.642     c0.022,0.238,0.034,0.477,0.055,0.716L316.137,415.311z"/>
			<path d="M503.151,96.672c-4.121,0-7.46,3.339-7.46,7.46v191.11h-15.518V37.898c0-4.121-3.339-7.46-7.46-7.46H39.286     c-4.12,0-7.46,3.339-7.46,7.46v257.344H16.308V37.289c0-12.334,10.035-22.369,22.368-22.369h434.645     c12.334,0,22.369,10.035,22.369,22.369v39.986c0,4.121,3.34,7.46,7.46,7.46c4.12,0,7.46-3.339,7.46-7.46V37.289     C510.61,16.728,493.882,0,473.321,0H38.676C18.116,0,1.388,16.728,1.388,37.289v265.412c0,4.121,3.34,7.46,7.46,7.46h30.438     c4.12,0,7.46-3.339,7.46-7.46V45.357h418.508v257.344c0,4.121,3.339,7.46,7.46,7.46h30.438c4.12,0,7.46-3.339,7.46-7.46v-198.57     C510.611,100.01,507.271,96.672,503.151,96.672z"/>
			<path d="M217.933,328.874c0-4.121-3.34-7.46-7.46-7.46H8.848c-4.12,0-7.46,3.339-7.46,7.46c0,4.121,3.34,7.46,7.46,7.46h201.625     C214.593,336.334,217.933,332.995,217.933,328.874z"/>
			<path d="M503.15,321.414H301.525c-4.121,0-7.46,3.339-7.46,7.46c0,4.121,3.339,7.46,7.46,7.46H503.15     c4.12,0,7.46-3.339,7.46-7.46C510.61,324.754,507.271,321.414,503.15,321.414z"/>
			<path d="M300.87,227.262c-1.992,0-3.864-0.776-5.275-2.186l-19.403-19.401c-2.133-2.133-5.342-2.773-8.129-1.616     c-2.788,1.154-4.605,3.875-4.605,6.892v34.423c0,4.121,3.339,7.46,7.46,7.46c4.121,0,7.46-3.339,7.46-7.46v-16.415l6.667,6.666     c4.225,4.228,9.845,6.558,15.825,6.558c5.978,0,11.597-2.328,15.826-6.556c4.226-4.227,6.555-9.847,6.555-15.825     c0-5.978-2.328-11.597-6.555-15.825l-44.871-44.871c-8.726-8.724-22.923-8.724-31.649,0l-44.871,44.871     c-4.228,4.226-6.556,9.846-6.556,15.825c0,5.979,2.328,11.598,6.556,15.825c4.226,4.226,9.846,6.554,15.825,6.554     c5.978,0,11.597-2.327,15.825-6.554l6.667-6.667v68.013c0,12.339,10.039,22.379,22.379,22.379     c12.339,0,22.379-10.04,22.379-22.379v-26.735c0-4.121-3.339-7.46-7.46-7.46s-7.46,3.339-7.46,7.46v26.735     c0,4.114-3.346,7.46-7.46,7.46c-4.114,0-7.46-3.346-7.46-7.46V210.95c0-3.017-1.817-5.738-4.605-6.892     c-2.786-1.155-5.996-0.516-8.129,1.616l-19.401,19.401c-2.909,2.91-7.641,2.908-10.55,0c-1.409-1.408-2.185-3.282-2.185-5.275     s0.776-3.866,2.185-5.275l44.871-44.871c2.908-2.91,7.641-2.91,10.549,0l44.871,44.871c2.909,2.908,2.909,7.641,0,10.548     C304.737,226.486,302.863,227.262,300.87,227.262z"/>
		</g>
	</g>
</g>
<g>
</g>
<g>
</g>
<g>
</g>
<g>
</g>
<g>
</g>
<g>
</g>
<g>
</g>
<g>
</g>
<g>
</g>
<g>
</g>
<g>
</g>
<g>
</g>
<g>
</g>
<g>
</g>
<g>
</g>
</svg>
