<?xml version="1.0" encoding="iso-8859-1"?>
<!-- Generator: Adobe Illustrator 19.0.0, SVG Export Plug-In . SVG Version: 6.00 Build 0)  -->
<svg xmlns="http://www.w3.org/2000/svg" xmlns:xlink="http://www.w3.org/1999/xlink" version="1.1" id="Layer_1" x="0px" y="0px" viewBox="0 0 511.999 511.999" style="enable-background:new 0 0 511.999 511.999;" xml:space="preserve">
<g>
	<g>
		<g>
			<path d="M255.998,214.516c-82.017,0-148.741,66.726-148.741,148.742s66.725,148.741,148.741,148.741     c82.018,0,148.743-66.725,148.743-148.741S338.017,214.516,255.998,214.516z M255.998,496.999     c-73.744,0-133.74-59.996-133.74-133.74c0-73.745,59.996-133.741,133.74-133.741c73.745,0,133.742,59.996,133.742,133.741     C389.742,437.003,329.745,496.999,255.998,496.999z"/>
			<path d="M255.998,242.595c-66.533,0-120.661,54.129-120.661,120.663c0,66.533,54.128,120.662,120.661,120.662     c19.705,0,39.272-4.88,56.588-14.112c3.655-1.949,5.038-6.492,3.09-10.147c-1.948-3.654-6.494-5.037-10.147-3.09     C290.38,464.65,273.252,468.92,256,468.92c-58.262,0-105.66-47.4-105.66-105.661c0-58.261,47.399-105.663,105.659-105.663     c58.263,0,105.662,47.4,105.662,105.662c0,30.916-13.535,60.207-37.136,80.362c-3.149,2.691-3.523,7.424-0.832,10.575     c2.69,3.147,7.423,3.521,10.575,0.832c26.942-23.01,42.395-56.458,42.395-91.77C376.663,296.724,322.534,242.595,255.998,242.595     z"/>
			<path d="M286.303,407.595v-15.512h-19.899v-73.953H248.7c-0.314,0.732-1.438,1.935-3.369,3.604     c-1.934,1.672-4.178,3.344-6.736,5.014c-2.561,1.672-5.225,3.134-7.99,4.387c-2.769,1.254-5.197,1.88-7.285,1.88v16.139     c1.982,0,4.281-0.392,6.894-1.175c2.609-0.784,5.116-1.748,7.521-2.898c2.401-1.148,4.595-2.401,6.58-3.761     c1.982-1.355,3.447-2.663,4.387-3.917v54.682H226.45v15.51H286.303z"/>
			<path d="M176.145,200.328h159.711c18.417,0,33.4-14.983,33.4-33.401v-13.291c0-4.143-3.357-7.5-7.5-7.5s-7.5,3.357-7.5,7.5     v13.291c0,10.146-8.254,18.4-18.399,18.4h-20.691V15.001h33.113c3.296,0,5.977,2.682,5.977,5.978v107.326     c0,4.143,3.357,7.5,7.5,7.5c4.143,0,7.5-3.357,7.5-7.5V20.979C369.255,9.411,359.845,0,348.278,0H163.722     c-11.567,0-20.978,9.411-20.978,20.979v145.949C142.744,185.345,157.728,200.328,176.145,200.328z M211.834,15.001h88.329     v170.326h-88.329V15.001z M157.745,20.979c0-3.296,2.681-5.978,5.977-5.978h33.111v170.326h-20.689     c-10.146,0-18.399-8.255-18.399-18.4V20.979z"/>
		</g>
	</g>
</g>
<g>
</g>
<g>
</g>
<g>
</g>
<g>
</g>
<g>
</g>
<g>
</g>
<g>
</g>
<g>
</g>
<g>
</g>
<g>
</g>
<g>
</g>
<g>
</g>
<g>
</g>
<g>
</g>
<g>
</g>
</svg>
