<?xml version="1.0" encoding="iso-8859-1"?>
<!-- Generator: Adobe Illustrator 19.0.0, SVG Export Plug-In . SVG Version: 6.00 Build 0)  -->
<svg xmlns="http://www.w3.org/2000/svg" xmlns:xlink="http://www.w3.org/1999/xlink" version="1.1" id="Layer_1" x="0px" y="0px" viewBox="0 0 511.999 511.999" style="enable-background:new 0 0 511.999 511.999;" xml:space="preserve">
<g>
	<g>
		<g>
			<path d="M260.913,93.354c-2.818-2.439-7.002-2.439-9.821,0l-60.404,52.311c-2.527,2.189-3.301,5.786-1.896,8.82l30.2,65.245     c1.229,2.652,3.885,4.35,6.807,4.35h60.404c2.922,0,5.578-1.697,6.807-4.35l30.202-65.245c1.404-3.034,0.631-6.631-1.896-8.82     L260.913,93.354z M281.41,209.079h-50.817l-25.818-55.771l51.226-44.362l51.226,44.362L281.41,209.079z"/>
			<path d="M419.632,159.885c-0.009-0.349-0.02-0.697-0.029-1.045c-0.029-0.997-0.067-1.992-0.114-2.987     c-0.014-0.288-0.025-0.577-0.04-0.866c-0.067-1.294-0.148-2.587-0.246-3.876c-0.001-0.007-0.001-0.013-0.002-0.019     c-0.099-1.295-0.216-2.586-0.345-3.876c-0.018-0.175-0.036-0.35-0.055-0.524c-2.775-26.917-12.134-52.606-27.488-75.119     c-0.201-0.295-0.421-0.571-0.657-0.83c-20.151-29.106-49.482-51.391-83.776-62.635c-0.129-0.05-0.25-0.112-0.383-0.155     c-4.463-1.446-8.981-2.689-13.541-3.744c-0.031-0.007-0.063-0.014-0.093-0.02c-1.241-0.286-2.485-0.558-3.732-0.815     c-0.102-0.021-0.201-0.043-0.303-0.063c-2.577-0.525-5.166-0.99-7.768-1.392c-0.203-0.031-0.406-0.06-0.609-0.09     c-1.042-0.156-2.085-0.303-3.13-0.439c-0.336-0.045-0.673-0.088-1.01-0.129c-0.993-0.124-1.988-0.237-2.984-0.343     c-0.283-0.029-0.565-0.063-0.849-0.091c-1.263-0.127-2.527-0.24-3.793-0.338c-0.2-0.016-0.402-0.026-0.603-0.041     c-1.058-0.078-2.117-0.146-3.178-0.202c-0.397-0.022-0.796-0.04-1.194-0.059c-0.916-0.042-1.833-0.077-2.751-0.104     c-0.381-0.012-0.763-0.024-1.145-0.033C258.545,0.02,257.275,0,256.001,0c-1.273,0-2.545,0.02-3.815,0.049     c-0.381,0.009-0.762,0.021-1.143,0.033c-0.919,0.027-1.837,0.063-2.754,0.104c-0.396,0.019-0.795,0.037-1.191,0.059     c-1.063,0.057-2.124,0.124-3.184,0.202c-0.199,0.015-0.398,0.025-0.596,0.041c-1.268,0.098-2.533,0.211-3.797,0.338     c-0.281,0.028-0.561,0.061-0.841,0.09c-0.999,0.105-1.997,0.22-2.993,0.344c-0.335,0.042-0.67,0.084-1.004,0.128     c-1.048,0.137-2.094,0.283-3.139,0.44c-0.2,0.03-0.401,0.058-0.602,0.089c-2.602,0.4-5.191,0.866-7.769,1.392     c-0.102,0.02-0.202,0.042-0.303,0.063c-1.246,0.257-2.488,0.527-3.727,0.814c-0.034,0.008-0.068,0.016-0.102,0.023     c-4.559,1.053-9.075,2.297-13.537,3.742c-0.131,0.043-0.252,0.105-0.38,0.153c-34.295,11.244-63.628,33.528-83.78,62.638     c-0.235,0.258-0.455,0.535-0.656,0.829c-15.354,22.512-24.711,48.201-27.488,75.115c-0.019,0.177-0.037,0.354-0.055,0.531     c-0.129,1.287-0.246,2.575-0.344,3.867c-0.001,0.009-0.002,0.018-0.003,0.025c-0.098,1.289-0.179,2.581-0.246,3.875     c-0.015,0.289-0.026,0.578-0.04,0.867c-0.047,0.994-0.085,1.989-0.114,2.986c-0.01,0.348-0.021,0.696-0.029,1.045     c-0.028,1.264-0.048,2.528-0.048,3.796c0,1.241,0.019,2.485,0.047,3.729c0.01,0.409,0.022,0.816,0.035,1.225     c0.025,0.856,0.059,1.712,0.098,2.567c0.02,0.443,0.038,0.886,0.062,1.327c0.062,1.149,0.134,2.299,0.219,3.446     c0.032,0.435,0.073,0.865,0.108,1.299c0.066,0.805,0.137,1.607,0.215,2.41c0.048,0.484,0.098,0.968,0.148,1.45     c0.094,0.884,0.195,1.767,0.304,2.648c0.039,0.315,0.074,0.632,0.114,0.947c0.145,1.12,0.297,2.238,0.463,3.353     c0.005,0.033,0.016,0.063,0.021,0.097c4.527,30.038,17.246,57.425,35.804,79.811c0.179,0.284,0.376,0.559,0.596,0.82     c23.63,28.169,55.561,47.331,91.026,54.909v76.643h-0.167c-22.95,0-42.677,18.412-46.235,41.641h-20.51     c-14.533,0-26.357,11.823-26.357,26.357v17.284c0,14.533,11.824,26.357,26.357,26.357h24.218c4.143,0,7.5-3.357,7.5-7.5     s-3.357-7.5-7.5-7.5h-24.218c-6.262,0-11.356-5.094-11.356-11.356v-17.284c0-6.261,5.094-11.356,11.356-11.356h202.284     c6.262,0,11.356,5.094,11.356,11.356v17.284c0,6.262-5.094,11.356-11.356,11.356H204.553c-4.143,0-7.5,3.357-7.5,7.5     s3.357,7.5,7.5,7.5h152.398c14.533,0,26.357-11.824,26.357-26.357v-17.284c0-14.533-11.824-26.357-26.357-26.357h-20.51     c-3.559-23.228-23.285-41.641-46.236-41.641h-0.165v-34.042c0-4.143-3.357-7.5-7.5-7.5c-4.142,0-7.5,3.357-7.5,7.5v34.042     h-38.458v-74.15c0.237,0.028,0.476,0.047,0.714,0.074c1.161,0.133,2.325,0.254,3.494,0.362c0.39,0.036,0.779,0.07,1.17,0.104     c1.172,0.1,2.348,0.186,3.526,0.262c0.368,0.023,0.735,0.049,1.102,0.069c1.254,0.071,2.512,0.127,3.774,0.17     c0.278,0.009,0.557,0.023,0.836,0.031c1.596,0.047,3.196,0.076,4.804,0.076c1.534,0,3.063-0.025,4.587-0.067     c0.103-0.003,0.205-0.009,0.308-0.012c1.432-0.043,2.858-0.103,4.28-0.183c0.316-0.018,0.632-0.041,0.947-0.061     c1.219-0.075,2.436-0.161,3.647-0.263c0.383-0.031,0.764-0.066,1.145-0.102c1.157-0.105,2.312-0.222,3.463-0.352     c0.22-0.024,0.439-0.041,0.659-0.066v14.731c-0.001,4.146,3.357,7.504,7.499,7.504c4.143,0,7.5-3.357,7.5-7.5v-17.196     c1.139-0.242,2.273-0.491,3.403-0.757c0.076-0.016,0.153-0.022,0.229-0.04c8.835-2.08,17.47-4.92,25.812-8.448     c0.194-0.082,0.387-0.167,0.58-0.25c0.936-0.399,1.867-0.808,2.796-1.225c0.317-0.143,0.634-0.287,0.95-0.432     c0.825-0.377,1.647-0.762,2.466-1.153c0.327-0.156,0.655-0.311,0.981-0.47c0.906-0.439,1.808-0.889,2.705-1.346     c0.202-0.103,0.405-0.202,0.607-0.306c2.268-1.165,4.509-2.386,6.721-3.655c0.123-0.07,0.244-0.143,0.366-0.213     c1.027-0.593,2.047-1.196,3.061-1.811c0.063-0.039,0.126-0.077,0.188-0.115c15.586-9.478,29.632-21.536,41.332-35.696     c0.237-0.288,0.448-0.592,0.638-0.905c18.103-22.194,30.512-49.206,34.971-78.79c0.006-0.033,0.017-0.063,0.021-0.097     c0.166-1.114,0.318-2.232,0.463-3.353c0.04-0.314,0.075-0.631,0.114-0.946c0.108-0.882,0.21-1.765,0.304-2.649     c0.051-0.482,0.1-0.964,0.148-1.447c0.078-0.805,0.148-1.61,0.215-2.417c0.035-0.431,0.076-0.86,0.107-1.292     c0.086-1.148,0.158-2.299,0.22-3.449c0.023-0.44,0.042-0.882,0.061-1.323c0.039-0.857,0.072-1.714,0.098-2.571     c0.013-0.407,0.025-0.814,0.035-1.223c0.027-1.244,0.047-2.487,0.047-3.73C419.68,162.413,419.66,161.149,419.632,159.885z      M232.728,16.827c0.244-0.038,0.486-0.082,0.73-0.119c0.592-0.091,1.188-0.167,1.781-0.25c0.683-0.096,1.365-0.197,2.05-0.283     c0.153-0.019,0.309-0.034,0.462-0.053c12.106-1.479,24.44-1.478,36.546,0.005c0.137,0.017,0.274,0.03,0.41,0.048     c0.7,0.087,1.398,0.19,2.097,0.289c0.579,0.081,1.16,0.155,1.736,0.243c0.258,0.039,0.514,0.086,0.771,0.126     c2.148,0.34,4.282,0.721,6.398,1.152L256,36.957l-29.71-18.972C228.42,17.552,230.568,17.168,232.728,16.827z M107.422,168.896     c-0.019-0.529-0.043-1.058-0.056-1.586c-0.028-1.206-0.046-2.415-0.046-3.628c0.001-1.43,0.027-2.856,0.067-4.279     c0.014-0.479,0.037-0.955,0.055-1.433c0.036-0.939,0.077-1.879,0.13-2.816c0.033-0.576,0.07-1.151,0.11-1.726     c0.057-0.831,0.121-1.661,0.191-2.489c0.054-0.623,0.105-1.246,0.166-1.866c0.074-0.758,0.16-1.514,0.246-2.27     c0.076-0.669,0.146-1.34,0.229-2.007c0.037-0.284,0.082-0.567,0.119-0.852c0.262-1.964,0.561-3.915,0.898-5.854     c0.05-0.287,0.097-0.576,0.148-0.863c0.188-1.046,0.39-2.087,0.6-3.125c0.041-0.202,0.082-0.404,0.124-0.607     c2.957-14.282,7.971-27.821,14.714-40.293l15.863,44.546l-33.492,32.887C107.461,170.055,107.441,169.475,107.422,168.896z      M152.664,270.468l47.536-3.009l22.317,41.099C195.764,302.376,171.755,288.948,152.664,270.468z M282.539,415.363h7.665     c14.562,0,27.589,11.783,30.964,26.64H190.45c3.375-14.856,16.401-26.64,30.963-26.64h7.667H282.539z M333.274,290.659     c-0.107,0.065-0.214,0.132-0.321,0.197c-0.798,0.484-1.605,0.958-2.413,1.429c-0.308,0.179-0.614,0.358-0.923,0.535     c-0.708,0.405-1.422,0.803-2.138,1.196c-0.403,0.222-0.807,0.443-1.212,0.661c-0.672,0.362-1.348,0.719-2.025,1.07     c-0.441,0.229-0.884,0.454-1.327,0.679c-0.674,0.342-1.351,0.68-2.03,1.011c-0.428,0.209-0.858,0.412-1.288,0.616     c-0.717,0.341-1.435,0.68-2.157,1.01c-0.355,0.162-0.713,0.318-1.069,0.477c-0.811,0.363-1.624,0.724-2.444,1.071     c-0.176,0.075-0.353,0.146-0.529,0.22c-2.029,0.853-4.08,1.664-6.153,2.428l19.44-35.799l33.563,2.125     C352.11,277.593,343.064,284.677,333.274,290.659z M372.974,255.36l-50.124-3.175c-2.922-0.172-5.672,1.341-7.065,3.906     L287,309.1c-2.498,0.532-5.019,1.003-7.563,1.407c-0.343,0.054-0.685,0.113-1.027,0.165c-1.015,0.154-2.034,0.296-3.056,0.429     c-0.664,0.086-1.33,0.163-1.996,0.24c-0.396,0.047-0.793,0.094-1.19,0.137c-0.746,0.08-1.493,0.155-2.241,0.225     c-0.277,0.026-0.556,0.05-0.834,0.074c-3.68,0.321-7.373,0.508-11.071,0.558c-0.168,0.002-0.335,0.005-0.502,0.006     c-0.885,0.009-1.77,0.012-2.653,0.005c-0.11-0.001-0.22-0.003-0.33-0.004c-2.675-0.025-5.348-0.125-8.016-0.293     c-0.306-0.019-0.611-0.037-0.916-0.058c-0.711-0.049-1.423-0.105-2.133-0.164c-0.446-0.037-0.893-0.077-1.337-0.119     c-0.294-0.027-0.587-0.056-0.881-0.085l-30.155-55.53c-1.393-2.566-4.15-4.078-7.064-3.906l-64.284,4.07     c-15.157-18.995-25.769-41.767-30.162-66.659l45.323-44.504c2.084-2.046,2.79-5.116,1.811-7.867l-21.444-60.223     c17.644-24.512,42.561-43.45,71.563-53.64l45.123,28.815c1.23,0.786,2.633,1.179,4.036,1.179c1.402,0,2.806-0.393,4.036-1.179     l45.124-28.815c29.002,10.191,53.918,29.129,71.566,53.639l-21.445,60.223c-0.98,2.751-0.273,5.821,1.811,7.867l45.323,44.504     C398.092,214.097,387.751,236.548,372.974,255.36z M404.633,167.309c-0.013,0.528-0.037,1.057-0.056,1.586     c-0.02,0.579-0.039,1.159-0.066,1.736l-33.493-32.887l15.864-44.546c6.746,12.475,11.761,26.017,14.718,40.302     c0.04,0.196,0.08,0.392,0.119,0.587c0.212,1.044,0.414,2.09,0.603,3.142c0.05,0.278,0.095,0.558,0.144,0.837     c0.344,1.975,0.648,3.962,0.914,5.962c0.033,0.255,0.074,0.509,0.106,0.764c0.085,0.669,0.155,1.342,0.231,2.013     c0.085,0.755,0.171,1.509,0.244,2.265c0.061,0.621,0.113,1.245,0.167,1.868c0.07,0.828,0.135,1.656,0.191,2.487     c0.04,0.575,0.077,1.15,0.11,1.726c0.053,0.938,0.094,1.877,0.13,2.816c0.018,0.478,0.041,0.954,0.055,1.433     c0.04,1.424,0.065,2.85,0.065,4.278C404.679,164.894,404.661,166.103,404.633,167.309z"/>
		</g>
	</g>
</g>
<g>
</g>
<g>
</g>
<g>
</g>
<g>
</g>
<g>
</g>
<g>
</g>
<g>
</g>
<g>
</g>
<g>
</g>
<g>
</g>
<g>
</g>
<g>
</g>
<g>
</g>
<g>
</g>
<g>
</g>
</svg>
