<?xml version="1.0" encoding="iso-8859-1"?>
<!-- Generator: Adobe Illustrator 19.0.0, SVG Export Plug-In . SVG Version: 6.00 Build 0)  -->
<svg xmlns="http://www.w3.org/2000/svg" xmlns:xlink="http://www.w3.org/1999/xlink" version="1.1" id="Layer_1" x="0px" y="0px" viewBox="0 0 512 512" style="enable-background:new 0 0 512 512;" xml:space="preserve">
<g>
	<g>
		<path d="M423.477,446.533l-67.458-115.035c-2.096-3.572-6.689-4.771-10.262-2.676c-3.572,2.096-4.771,6.689-2.676,10.262    l67.456,115.032c0.027,0.046,0.024,0.101-0.008,0.144c-0.032,0.041-0.083,0.059-0.134,0.046l-50.368-13.131    c-1.922-0.5-3.968-0.218-5.685,0.788c-1.716,1.007-2.961,2.653-3.463,4.577l-13.13,50.367c-0.013,0.051-0.055,0.088-0.142,0.094    c-0.019-0.002-0.063-0.013-0.091-0.06l-72.826-124.187l48.919-83.422c0.074-0.039,0.15-0.077,0.225-0.116l16.602,28.311    c2.096,3.572,6.689,4.77,10.262,2.676c3.572-2.096,4.77-6.689,2.676-10.262l-20.312-34.638c-1.013-1.727-2.674-2.977-4.612-3.472    c-1.939-0.495-3.997-0.194-5.713,0.835c-2.74,1.644-5.671,3.221-8.711,4.689c-0.001,0.001-0.002,0.001-0.004,0.002    c-15.026,7.267-31.163,10.958-47.983,10.958c-20.036,0-39.661-5.423-56.757-15.684c-1.717-1.031-3.772-1.333-5.714-0.836    c-1.939,0.495-3.601,1.745-4.613,3.472L88.522,446.534c-3.104,5.295-2.717,11.88,0.987,16.774c2.843,3.757,7.352,6,12.061,6    c1.284,0,2.567-0.165,3.814-0.489l43.111-11.239l11.239,43.108c1.547,5.942,6.477,10.326,12.585,11.174    c0.68,0.092,1.37,0.138,2.052,0.138c0.697,0,1.4-0.048,2.085-0.143c4.611-0.642,8.607-3.313,10.962-7.329l68.58-116.951    l68.582,116.949c2.354,4.017,6.349,6.689,10.957,7.33c0.689,0.097,1.383,0.144,2.083,0.144c0.69,0,1.387-0.047,2.085-0.142    c6.081-0.844,11.011-5.227,12.56-11.168l11.237-43.11l43.115,11.239c5.94,1.548,12.173-0.618,15.872-5.51    C426.194,458.417,426.583,451.832,423.477,446.533z M174.482,496.94c-0.026,0.046-0.068,0.058-0.095,0.061    c-0.001,0-0.006,0-0.015,0l-0.017,0.001c-0.052-0.007-0.094-0.044-0.107-0.097l-13.132-50.367c-0.88-3.373-3.92-5.608-7.252-5.608    c-0.626,0-1.263,0.079-1.896,0.244l-50.398,13.136c-0.02,0-0.067-0.006-0.102-0.052c-0.031-0.041-0.034-0.096-0.009-0.14    l96.718-164.93c17.799,9.259,37.65,14.123,57.862,14.123c11.96,0,23.618-1.642,34.855-4.895L174.482,496.94z"/>
	</g>
</g>
<g>
	<g>
		<path d="M334.868,25.404c-3.362-2.418-8.05-1.653-10.466,1.71c-2.419,3.362-1.653,8.049,1.71,10.466    c31.47,22.632,50.258,59.187,50.258,97.787c0,66.372-53.997,120.369-120.369,120.369s-120.369-53.997-120.369-120.369    C135.632,68.994,189.629,14.997,256,14.997c17.603,0,34.574,3.729,50.443,11.086c3.76,1.74,8.216,0.108,9.957-3.649    c1.742-3.757,0.107-8.216-3.649-9.957C294.892,4.197,275.798,0,256,0c-74.64,0-135.365,60.725-135.365,135.366    c0,74.64,60.725,135.365,135.365,135.365s135.366-60.725,135.366-135.366C391.366,91.953,370.246,50.845,334.868,25.404z"/>
	</g>
</g>
<g>
	<g>
		<path d="M256.001,25.42c-60.625,0-109.947,49.322-109.947,109.947c0,60.624,49.322,109.945,109.947,109.945    c60.625,0,109.946-49.321,109.946-109.945C365.947,74.741,316.626,25.42,256.001,25.42z M256,230.313    c-52.355,0-94.949-42.593-94.949-94.947c0-52.355,42.594-94.949,94.949-94.949s94.948,42.593,94.948,94.949    C350.948,187.719,308.354,230.313,256,230.313z"/>
	</g>
</g>
<g>
	<g>
		<path d="M265.419,161.461V94.51h-16.027c-0.283,0.662-1.301,1.751-3.049,3.262c-1.752,1.514-3.784,3.027-6.101,4.539    c-2.318,1.514-4.729,2.836-7.233,3.971c-2.508,1.136-4.706,1.703-6.597,1.703v14.61c1.796,0,3.876-0.354,6.241-1.065    c2.363-0.709,4.632-1.582,6.81-2.624c2.174-1.04,4.159-2.175,5.957-3.404c1.796-1.228,3.12-2.411,3.971-3.546v49.505H229.25    v14.043h54.184v-14.043H265.419z"/>
	</g>
</g>
<g>
</g>
<g>
</g>
<g>
</g>
<g>
</g>
<g>
</g>
<g>
</g>
<g>
</g>
<g>
</g>
<g>
</g>
<g>
</g>
<g>
</g>
<g>
</g>
<g>
</g>
<g>
</g>
<g>
</g>
</svg>
