<?xml version="1.0" encoding="iso-8859-1"?>
<!-- Generator: Adobe Illustrator 19.0.0, SVG Export Plug-In . SVG Version: 6.00 Build 0)  -->
<svg xmlns="http://www.w3.org/2000/svg" xmlns:xlink="http://www.w3.org/1999/xlink" version="1.1" id="Layer_1" x="0px" y="0px" viewBox="0 0 512 512" style="enable-background:new 0 0 512 512;" xml:space="preserve">
<g>
	<g>
		<g>
			<path d="M493.754,248.587H387.418c0.211-1.108,0.332-2.249,0.332-3.418v-21.492v-70.949c0-4.143-3.357-7.5-7.5-7.5     s-7.5,3.357-7.5,7.5v63.448h-233.5V110.846c0-1.791,1.456-3.248,3.247-3.248h227.007c1.79,0,3.246,1.457,3.246,3.248v17.551     c0,4.143,3.357,7.5,7.5,7.5c4.143,0,7.5-3.357,7.5-7.5v-17.551c0-10.062-8.185-18.248-18.246-18.248H142.497     c-10.061,0-18.247,8.186-18.247,18.248v112.831v21.492c0,1.169,0.121,2.31,0.333,3.418H18.246C8.185,248.587,0,256.772,0,266.833     v112.829v21.494c0,10.061,8.185,18.246,18.246,18.246h22.448c4.142,0,7.5-3.357,7.5-7.5c0-4.143-3.358-7.5-7.5-7.5H18.246     c-1.79,0-3.246-1.456-3.246-3.246v-13.994h233.5v13.994c0,1.79-1.456,3.246-3.246,3.246H66.361c-4.142,0-7.5,3.357-7.5,7.5     c0,4.143,3.358,7.5,7.5,7.5h178.893c4.02,0,7.728-1.322,10.746-3.533c3.019,2.211,6.727,3.533,10.746,3.533h227.008     c10.061,0,18.246-8.186,18.246-18.246v-21.494V266.833C512,256.772,503.815,248.587,493.754,248.587z M248.5,372.162H15V266.833     c0-1.79,1.456-3.246,3.246-3.246h227.008c1.79,0,3.246,1.456,3.246,3.246V372.162z M142.497,248.415     c-1.79,0-3.247-1.456-3.247-3.246v-13.992h233.5v13.992c0,1.79-1.456,3.246-3.246,3.246H142.497z M493.754,404.402H266.746     c-1.79,0-3.246-1.456-3.246-3.246v-13.994H497v13.994h0C497,402.946,495.544,404.402,493.754,404.402z M497,372.162H263.5     V266.833c0-1.79,1.456-3.246,3.246-3.246h227.008c1.79,0,3.246,1.456,3.246,3.246V372.162z"/>
			<path d="M228.657,185.368L228.657,185.368v12.369h47.723v-12.368h-15.866v-58.965h-14.117c-0.25,0.583-1.146,1.542-2.686,2.873     c-1.542,1.333-3.332,2.666-5.371,3.998c-2.042,1.333-4.166,2.498-6.372,3.497c-2.208,1-4.144,1.5-5.809,1.5v12.867     c1.581,0,3.414-0.313,5.497-0.938c2.081-0.624,4.08-1.394,5.997-2.311c1.915-0.916,3.664-1.915,5.247-2.998     c1.581-1.082,2.749-2.124,3.498-3.124v43.6H228.657z"/>
			<path d="M124.854,335.238c1.665-1.665,3.539-3.227,5.622-4.686c2.081-1.456,4.226-2.748,6.434-3.872     c2.206-1.125,4.185-2.103,5.934-2.936c1.831-0.916,3.83-2.019,5.996-3.31c2.165-1.291,4.164-2.853,5.997-4.686     c1.831-1.831,3.373-3.954,4.623-6.371c1.249-2.414,1.874-5.163,1.874-8.245c0-2.914-0.583-5.642-1.749-8.183     c-1.167-2.539-2.854-4.726-5.06-6.559c-2.208-1.831-4.916-3.268-8.121-4.311c-3.207-1.04-6.809-1.561-10.806-1.561     c-3.831,0-7.371,0.438-10.619,1.313c-3.248,0.874-6.143,1.936-8.683,3.186c-2.542,1.249-4.706,2.56-6.496,3.934     c-1.792,1.375-3.104,2.521-3.935,3.436l8.745,10.119c0.916-1.081,1.956-2.205,3.124-3.373c1.165-1.165,2.518-2.227,4.06-3.186     c1.54-0.956,3.248-1.749,5.122-2.373c1.873-0.625,3.935-0.938,6.184-0.938c4.33,0,7.64,1.063,9.932,3.186     c2.29,2.124,3.436,4.52,3.436,7.184c0,1.917-0.583,3.603-1.749,5.06c-1.167,1.458-2.729,2.832-4.685,4.122     c-1.958,1.293-4.228,2.604-6.809,3.935c-2.583,1.333-5.331,2.791-8.245,4.373c-4.082,2.248-7.414,4.56-9.994,6.933     c-2.582,2.374-4.622,4.872-6.121,7.496c-1.499,2.623-2.542,5.434-3.123,8.433c-0.584,2.998-0.875,6.246-0.875,9.744h57.841     v-12.368h-41.351C122.022,338.736,123.187,336.905,124.854,335.238z"/>
			<path d="M385.029,314.966c1.903-0.339,3.654-1.02,5.253-2.04c1.598-1.02,2.975-2.277,4.131-3.773     c1.156-1.495,2.04-3.162,2.652-4.998c0.611-1.836,0.918-3.774,0.918-5.814c0-2.719-0.56-5.185-1.684-7.395     c-1.121-2.209-2.721-4.096-4.793-5.661c-2.076-1.564-4.539-2.787-7.395-3.672c-2.857-0.883-6.019-1.326-9.485-1.326     c-2.652,0-5.238,0.255-7.752,0.765c-2.518,0.511-4.846,1.225-6.988,2.143c-2.141,0.918-4.063,2.007-5.762,3.264     c-1.701,1.259-3.061,2.67-4.08,4.233l8.567,9.588c1.563-2.584,3.586-4.59,6.069-6.019c2.482-1.428,5.286-2.142,8.414-2.142     c3.06,0,5.542,0.681,7.447,2.04c1.902,1.361,2.855,3.435,2.855,6.222c0,2.925-1.157,5.322-3.469,7.191     c-2.313,1.871-5.576,2.805-9.791,2.805h-3.162v10.2h2.855c5.1,0,8.908,0.953,11.424,2.857c2.516,1.904,3.774,4.625,3.774,8.159     c0.001,3.401-1.087,5.916-3.263,7.548c-2.176,1.633-5.338,2.448-9.485,2.448c-3.672,0-6.731-0.611-9.18-1.836     c-2.448-1.224-4.557-2.958-6.324-5.202l-7.752,9.69c2.651,3.195,5.967,5.626,9.944,7.293c3.979,1.665,8.551,2.499,13.72,2.499     c4.08,0,7.752-0.494,11.016-1.48c3.265-0.986,6.034-2.381,8.313-4.182c2.277-1.803,4.045-3.995,5.304-6.579     c1.257-2.585,1.888-5.473,1.888-8.67c0-4.759-1.311-8.788-3.928-12.087C392.661,317.737,389.245,315.715,385.029,314.966z"/>
		</g>
	</g>
</g>
<g>
</g>
<g>
</g>
<g>
</g>
<g>
</g>
<g>
</g>
<g>
</g>
<g>
</g>
<g>
</g>
<g>
</g>
<g>
</g>
<g>
</g>
<g>
</g>
<g>
</g>
<g>
</g>
<g>
</g>
</svg>
