<?xml version="1.0" encoding="iso-8859-1"?>
<!-- Generator: Adobe Illustrator 19.0.0, SVG Export Plug-In . SVG Version: 6.00 Build 0)  -->
<svg xmlns="http://www.w3.org/2000/svg" xmlns:xlink="http://www.w3.org/1999/xlink" version="1.1" id="Layer_1" x="0px" y="0px" viewBox="0 0 512.001 512.001" style="enable-background:new 0 0 512.001 512.001;" xml:space="preserve">
<g>
	<g>
		<g>
			<path d="M282.73,209.649v-20.296c0-4.144-3.358-7.502-7.502-7.502h-38.453c-4.144,0-7.502,3.358-7.502,7.502v20.296     c0,14.737,11.99,26.728,26.73,26.728C270.74,236.377,282.73,224.387,282.73,209.649z M244.277,209.649v-12.794h23.449v12.794     c0,6.465-5.259,11.724-11.724,11.724S244.277,216.114,244.277,209.649z"/>
			<path d="M511.736,178.75c-0.115-0.759-0.267-1.506-0.452-2.241c-1.303-5.141-4.316-9.634-8.643-12.82l-83.001-61.132     l-47.231-34.787c-3.94-2.905-8.61-4.444-13.524-4.462c-0.195-0.013-0.392-0.019-0.591-0.019c-8.506,0-196.075,0-204.581,0     c-0.195,0-0.389,0.007-0.589,0.019c-4.912,0.018-9.583,1.557-13.524,4.46L9.367,163.688c-10.155,7.477-12.473,21.83-4.879,32.145     l6.647,9.024l0.894,1.213l0.001,0.001l31.236,42.407c3.642,4.944,8.989,8.175,15.061,9.096     c6.075,0.918,12.137-0.576,17.081-4.218l56.853-41.875V427.26c0,11.828,9.622,21.45,21.45,21.45h19.386     c4.144,0,7.502-3.358,7.502-7.502s-3.358-7.502-7.502-7.502h-19.386c-3.555,0-6.447-2.893-6.447-6.447V196.638     c0-6.135-7-9.686-11.951-6.041c-74.474,54.854-70.19,52.831-74.736,52.142c-4.359-0.662-2.878,0.034-32.019-39.528     l127.328-93.826c9.523-7.016,11.563-20.47,4.545-29.995l-0.81-1.1h20.665c0.004,0.043,0.012,0.086,0.016,0.129     c2.727,27.094,19.966,51.039,45.403,62.143c48.221,20.976,101.5-12.509,106.013-62.272h20.665l-0.811,1.101     c-3.398,4.612-4.798,10.274-3.94,15.938c0.858,5.666,3.872,10.658,8.485,14.057l127.329,93.826l-26.786,36.368     c-2.611,3.545-7.62,4.302-11.164,1.693l-68.805-50.677c-2.281-1.677-5.31-1.931-7.833-0.654     c-2.526,1.276-4.118,3.865-4.118,6.695v230.622c0,3.555-2.893,6.447-6.447,6.447H198.098c-4.144,0-7.502,3.358-7.502,7.502     s3.358,7.502,7.502,7.502h160.195c11.828,0,21.45-9.622,21.45-21.45V211.481l56.855,41.876     c10.21,7.517,24.626,5.326,32.142-4.878l38.776-52.646C511.157,190.886,512.657,184.821,511.736,178.75z M146.987,97.308     L19.659,191.131l-3.09-4.195c-0.162-0.22-0.31-0.446-0.447-0.677c-0.018-0.032-0.034-0.066-0.053-0.1     c-0.116-0.201-0.226-0.405-0.321-0.613c-0.003-0.004-0.004-0.009-0.006-0.014c-1.427-3.105-0.711-6.84,1.835-9.191     c0.02-0.018,0.037-0.039,0.058-0.057c0.198-0.18,0.408-0.352,0.628-0.514l126.107-92.882l3.982,5.403     C150.463,91.154,149.85,95.198,146.987,97.308z M306.873,104.546c-31.732,47.612-104.625,29.038-111.473-26.255h121.205     C315.463,87.542,312.321,96.343,306.873,104.546z M496.912,183.352c-0.186,1.282-0.686,2.509-1.477,3.582l-3.091,4.197     L365.016,97.308c-1.386-1.021-2.292-2.522-2.55-4.225c-0.258-1.702,0.162-3.404,1.183-4.79l3.983-5.404l126.11,92.882     c1.717,1.265,2.839,3.122,3.158,5.23C497.021,181.791,497.023,182.581,496.912,183.352z"/>
		</g>
	</g>
</g>
<g>
</g>
<g>
</g>
<g>
</g>
<g>
</g>
<g>
</g>
<g>
</g>
<g>
</g>
<g>
</g>
<g>
</g>
<g>
</g>
<g>
</g>
<g>
</g>
<g>
</g>
<g>
</g>
<g>
</g>
</svg>
