<?xml version="1.0" encoding="iso-8859-1"?>
<!-- Generator: Adobe Illustrator 19.0.0, SVG Export Plug-In . SVG Version: 6.00 Build 0)  -->
<svg xmlns="http://www.w3.org/2000/svg" xmlns:xlink="http://www.w3.org/1999/xlink" version="1.1" id="Layer_1" x="0px" y="0px" viewBox="0 0 512.001 512.001" style="enable-background:new 0 0 512.001 512.001;" xml:space="preserve">
<g>
	<g>
		<g>
			<path d="M279.828,183.66c3.132,2.711,7.869,2.372,10.581-0.76c2.711-3.131,2.371-7.869-0.76-10.58l-28.747-24.896     c-2.818-2.44-7.003-2.44-9.821,0l-96.098,83.223c-2.527,2.189-3.301,5.786-1.896,8.821l48.048,103.801     c1.229,2.652,3.885,4.35,6.807,4.35h96.098c2.922,0,5.578-1.697,6.806-4.35l48.049-103.801c1.405-3.034,0.632-6.631-1.896-8.821     l-48.476-41.98c-3.132-2.711-7.868-2.372-10.581,0.76c-2.711,3.131-2.371,7.869,0.76,10.58l44.207,38.284l-43.665,94.327h-86.511     l-43.663-94.327l86.919-75.274L279.828,183.66z"/>
			<path d="M486.477,144.497c-0.559-1.156-1.126-2.307-1.703-3.453c-0.04-0.08-0.078-0.161-0.119-0.241     c-0.607-1.204-1.223-2.404-1.849-3.598c-0.066-0.127-0.139-0.251-0.205-0.377c-0.945-1.793-1.917-3.573-2.906-5.346     c-0.344-0.615-0.691-1.228-1.04-1.84c-0.898-1.578-1.811-3.148-2.743-4.708c-0.191-0.321-0.378-0.644-0.571-0.964     c-1.093-1.812-2.218-3.607-3.357-5.395c-0.274-0.43-0.55-0.859-0.826-1.288c-1.163-1.8-2.341-3.592-3.552-5.367     c-0.02-0.029-0.045-0.054-0.065-0.083c-16.874-24.684-38.081-46.464-62.393-63.924c-3.363-2.416-8.052-1.649-10.468,1.717     c-2.416,3.365-1.647,8.052,1.717,10.468c22.214,15.953,41.251,35.401,56.612,57.276l-34.893,97.985     c-0.979,2.751-0.273,5.821,1.811,7.869l73.749,72.419c-6.892,41.416-24.379,79.291-49.579,110.739l-82.038-5.195     c-2.907-0.181-5.671,1.34-7.064,3.906l-46.761,86.115c-25.677,5.697-52.087,7.159-78.485,4.285l-49.09-90.402     c-1.394-2.567-4.17-4.087-7.065-3.906l-104.56,6.621c-25.821-31.726-43.733-70.122-50.73-112.165l73.749-72.419     c2.084-2.046,2.79-5.116,1.81-7.869L58.972,117.37c29.081-41.219,70.75-72.949,119.372-89.543l73.609,47.004     c1.23,0.786,2.633,1.179,4.036,1.179c1.403,0,2.806-0.393,4.036-1.179l73.627-47.015c14.362,4.877,28.265,11.106,41.485,18.64     c3.599,2.053,8.18,0.796,10.23-2.802c2.052-3.599,0.797-8.18-2.802-10.231c-15.026-8.565-30.882-15.541-47.277-20.869     c-0.11-0.042-0.214-0.096-0.327-0.132C306.201,3.104,274.925-1.384,241.94,0.376C178.461,3.831,119.802,30.15,74.991,74.96     c-97.044,97.044-100.416,253.627-6.987,354.711c99.434,107.327,266.593,109.679,368.987,7.288     c0.776-0.776,1.532-1.569,2.297-2.354c0.126-0.129,0.253-0.259,0.38-0.389c1.065-1.098,2.122-2.202,3.166-3.315     c0.248-0.265,0.494-0.532,0.741-0.798C517.813,350.277,530.848,235.967,486.477,144.497z M314.573,22.202l-58.582,37.409     l-58.579-37.408C234.65,12.864,275.071,12.326,314.573,22.202z M48.696,133.23l29.432,82.648L15.944,276.94     C11.668,228.327,22.179,177.847,48.696,133.23z M81.558,422.047l88.202-5.585l41.417,76.273     C160.666,483.195,115.67,457.856,81.558,422.047z M328.201,485.872l37.69-69.41l65.852,4.17     C404.035,450.185,368.7,473.126,328.201,485.872z M433.854,215.877l29.423-82.627c25.48,43.074,37.115,92.849,32.761,143.689     L433.854,215.877z"/>
		</g>
	</g>
</g>
<g>
</g>
<g>
</g>
<g>
</g>
<g>
</g>
<g>
</g>
<g>
</g>
<g>
</g>
<g>
</g>
<g>
</g>
<g>
</g>
<g>
</g>
<g>
</g>
<g>
</g>
<g>
</g>
<g>
</g>
</svg>
