<?xml version="1.0" encoding="iso-8859-1"?>
<!-- Generator: Adobe Illustrator 19.0.0, SVG Export Plug-In . SVG Version: 6.00 Build 0)  -->
<svg xmlns="http://www.w3.org/2000/svg" xmlns:xlink="http://www.w3.org/1999/xlink" version="1.1" id="Layer_1" x="0px" y="0px" viewBox="0 0 512 512" style="enable-background:new 0 0 512 512;" xml:space="preserve">
<g>
	<g>
		<path d="M398.078,53.963c-2.462-1.255-5.224-1.918-7.985-1.918c-3.722,0-7.283,1.152-10.273,3.315    c-14.606,10.481-40.401,19.266-62.159,17.542c-15.417-1.242-29.509-7.088-42.049-17.049    C240.57,28.02,199.586,17.986,161.049,24.064C158.897,10.446,147.082,0,132.87,0c-15.732,0-28.53,12.798-28.53,28.53v454.94    c0,15.732,12.798,28.53,28.53,28.53s28.529-12.798,28.529-28.53V299.505c0-4.143-3.357-7.501-7.501-7.501    s-7.501,3.357-7.501,7.501V483.47c0,7.46-6.069,13.529-13.527,13.529c-7.46,0-13.528-6.069-13.528-13.529V28.53    c0-7.46,6.069-13.529,13.528-13.529c7.459,0,13.527,6.069,13.527,13.529c0,9.778,0,84.424,0,95.73v93.742v55.5    c0,4.143,3.357,7.501,7.501,7.501s7.501-3.357,7.501-7.501v-49.619c30.257-6.407,63.204,0.497,92.36,23.656    c1.133,0.899,2.28,1.769,3.437,2.623c51.597,38.367,113.297,19.514,143.193-2.147c4.552-3.293,7.27-8.613,7.27-14.231    c0-7.194,0-156.981,0-164.174C407.659,62.978,403.989,56.983,398.078,53.963z M269.526,240.527    c-8.851-6.043-47.943-42.953-108.127-31.943v-78.177c34.865-6.058,72.439,2.626,104.879,28.394    c1.065,0.846,2.149,1.674,3.247,2.477V240.527z M269.527,142.444c-33.736-24.413-72.213-32.799-108.127-27.236V39.206    c34.926-6.067,72.487,2.666,104.88,28.395c1.073,0.852,2.155,1.68,3.246,2.479V142.444z M391.592,235.862    c-20.46,14.828-65.303,32.175-107.065,13.155v-78.654c39.075,18.703,82.637,3.912,104.061-11.632    c1.668-1.207,4.067-0.043,4.067,2.077v72.975h0.001C392.657,234.602,392.26,235.379,391.592,235.862z M392.657,143.433    c-4.735-0.678-9.246,0.528-12.838,3.126c-12.48,8.957-41.609,21.606-69.535,16.584c-9.264-1.681-17.763-5.016-25.755-9.871V79.164    c12.37,6.004,25.555,8.987,39.242,8.987c34.811,0,62.741-19.159,64.71-20.542c0.496-0.35,0.943-0.562,1.611-0.562    c1.421,0,2.565,1.145,2.565,2.563V143.433z"/>
	</g>
</g>
<g>
</g>
<g>
</g>
<g>
</g>
<g>
</g>
<g>
</g>
<g>
</g>
<g>
</g>
<g>
</g>
<g>
</g>
<g>
</g>
<g>
</g>
<g>
</g>
<g>
</g>
<g>
</g>
<g>
</g>
</svg>
