<?xml version="1.0" encoding="iso-8859-1"?>
<!-- Generator: Adobe Illustrator 19.0.0, SVG Export Plug-In . SVG Version: 6.00 Build 0)  -->
<svg xmlns="http://www.w3.org/2000/svg" xmlns:xlink="http://www.w3.org/1999/xlink" version="1.1" id="Layer_1" x="0px" y="0px" viewBox="0 0 512 512" style="enable-background:new 0 0 512 512;" xml:space="preserve">
<g>
	<g>
		<g>
			<path d="M51.52,106.163c0,24.372,29.645,36.89,47.05,19.487l19.792-19.793l19.793,19.793c10.772,10.77,28.205,10.776,38.977,0     c10.773-10.77,10.775-28.202,0-38.977L157.34,66.881l19.794-19.796c5.206-5.207,8.073-12.128,8.073-19.489     c0-24.636-29.83-36.701-47.051-19.485l-19.793,19.794L98.568,8.11C81.135-9.314,51.52,3.258,51.52,27.597     c0,7.362,2.867,14.282,8.073,19.489l19.793,19.796L59.593,86.673C54.387,91.88,51.52,98.801,51.52,106.163z M70.199,97.281     l25.096-25.095c2.93-2.929,2.93-7.678,0.001-10.606L70.2,36.481c-7.844-7.847-2.351-21.443,8.88-21.443     c3.356,0,6.511,1.308,8.884,3.679c27.015,27.017,26.259,27.295,30.399,27.295c1.989,0,3.896-0.79,5.304-2.197l25.096-25.096     c2.373-2.373,5.528-3.681,8.885-3.681c11.202,0,16.737,13.586,8.881,21.443c-27.015,27.017-27.293,26.261-27.293,30.401     c0,4.139,0.218,3.324,27.293,30.398c4.91,4.908,4.914,12.852-0.001,17.765c-4.906,4.908-12.852,4.911-17.764-0.002     c-27.067-27.066-26.258-27.292-30.399-27.292c-4.141,0-3.325,0.217-30.399,27.292c-2.373,2.374-5.528,3.681-8.884,3.681     C67.884,118.724,62.341,105.138,70.199,97.281z"/>
			<path d="M372.463,316.128c10.772,10.77,28.204,10.776,38.977,0l19.794-19.792l19.794,19.792c10.773,10.77,28.204,10.776,38.976,0     c10.771-10.769,10.775-28.203,0-38.977l-19.792-19.791l19.793-19.795c10.746-10.748,10.745-28.232-0.001-38.977     c-10.771-10.769-28.2-10.772-38.976,0.001l-19.793,19.794l-19.794-19.796c-5.207-5.204-12.128-8.07-19.488-8.07     s-14.281,2.866-19.488,8.072c-10.743,10.744-10.743,28.228,0,38.977l19.795,19.794l-19.796,19.792     C361.719,287.9,361.719,305.384,372.463,316.128z M383.069,287.758c27.018-27.015,27.295-26.258,27.295-30.398     c0-4.141-0.235-3.343-27.293-30.399c-7.887-7.89-2.277-21.444,8.881-21.444c3.355,0,6.511,1.307,8.883,3.678     c27.015,27.017,26.26,27.296,30.4,27.296c4.139,0,3.325-0.219,30.399-27.294c4.909-4.909,12.855-4.911,17.766-0.001     c4.898,4.896,4.897,12.866-0.001,17.765l-25.096,25.098c-2.929,2.929-2.929,7.678,0.001,10.606l25.095,25.094     c7.942,7.943,2.214,21.445-8.882,21.445c-3.354,0-6.51-1.308-8.884-3.681c-27.066-27.064-26.258-27.291-30.399-27.291     c-1.919,0-3.839,0.732-5.303,2.196l-25.098,25.096c-4.909,4.911-12.854,4.91-17.764-0.001     C378.172,300.625,378.172,292.655,383.069,287.758z"/>
			<path d="M490.005,369.511c-5.207-5.204-12.128-8.07-19.488-8.07s-14.281,2.866-19.486,8.071l-19.796,19.795l-19.794-19.795     c-5.205-5.205-12.125-8.071-19.486-8.071s-14.282,2.866-19.491,8.072c-10.743,10.748-10.742,28.231,0.001,38.977l19.795,19.794     l-19.795,19.794c-10.743,10.743-10.743,28.228,0.004,38.982c5.209,5.202,12.13,8.067,19.486,8.067     c7.36,0,14.279-2.866,19.487-8.071l19.793-19.794l19.798,19.797c5.208,5.203,12.128,8.068,19.484,8.068     c7.358,0,14.278-2.865,19.49-8.072c10.744-10.749,10.743-28.233-0.001-38.975l-19.794-19.795l19.794-19.794     C500.75,397.745,500.75,380.26,490.005,369.511z M479.399,397.884l-25.097,25.098c-2.929,2.929-2.929,7.677,0,10.605     l25.098,25.099c4.897,4.896,4.896,12.865,0.002,17.762c-2.375,2.373-5.531,3.68-8.886,3.68c-3.354,0-6.509-1.307-8.882-3.678     l-25.099-25.098c-1.406-1.406-3.313-2.196-5.303-2.196c-4.139,0-3.324,0.218-30.398,27.293     c-4.92,4.916-12.862,4.901-17.765,0.003c-4.897-4.9-4.897-12.869-0.001-17.766l25.098-25.098c2.929-2.93,2.929-7.678,0-10.607     l-25.097-25.097c-4.898-4.897-4.897-12.868-0.002-17.764c2.374-2.373,5.529-3.68,8.886-3.68c3.354,0,6.509,1.307,8.881,3.678     c27.016,27.017,26.26,27.295,30.4,27.295c1.989,0,3.897-0.79,5.303-2.196l25.099-25.098c4.91-4.908,12.854-4.909,17.764-0.001     C484.296,385.017,484.296,392.986,479.399,397.884z"/>
			<path d="M116.773,346.286c-34.594,0-62.738,28.145-62.738,62.739c0,34.594,28.144,62.739,62.738,62.739     c34.594,0,62.738-28.145,62.738-62.739C179.511,374.431,151.367,346.286,116.773,346.286z M116.773,456.765     c-26.323,0-47.738-21.416-47.738-47.739s21.415-47.739,47.738-47.739c26.323,0,47.738,21.416,47.738,47.739     S143.096,456.765,116.773,456.765z"/>
			<path d="M396.837,112.859c0,15.196,12.364,27.56,27.56,27.56c15.196,0,27.561-12.362,27.561-27.56V58.471     c0-4.143-3.357-7.5-7.5-7.5c-4.143,0-7.5,3.357-7.5,7.5v54.389c0,6.926-5.635,12.561-12.562,12.561     c-6.927,0-12.561-5.635-12.561-12.561V72.891c0-5.795-6.326-9.411-11.318-6.455c-56.926,33.676-104.534,93.672-119.778,170.889     c-12.825,64.941-44.245,104.692-70.997,127.722c-3.644-7.667-8.257-14.908-13.641-21.428     c30.638-27.283,50.805-64.638,59.992-111.162c19.515-98.84,81.909-154.328,117.364-178.607c2.713-1.858,3.899-5.266,2.928-8.406     c-0.973-3.141-3.877-5.282-7.165-5.282h-34.696c-6.927,0-12.562-5.636-12.562-12.562c0-6.927,5.635-12.562,12.562-12.562h89.872     c6.927,0,12.562,5.635,12.562,12.562v6.872c0,4.143,3.357,7.5,7.5,7.5c4.143,0,7.5-3.357,7.5-7.5v-6.872     c0-15.196-12.364-27.561-27.561-27.561h-89.872c-15.196,0-27.561,12.364-27.561,27.561s12.364,27.561,27.561,27.561h12.088     c-37.581,30.343-87.754,85.852-105.235,174.389c-8.574,43.424-27.289,78.107-55.654,103.213     c-18.256-16.521-42.447-26.599-68.95-26.599c-56.717,0-102.859,46.143-102.859,102.86c0,77.946,83.903,127.714,152.189,90.242     c3.632-1.992,4.96-6.552,2.968-10.183c-1.992-3.633-6.551-4.959-10.183-2.968c-58.25,31.963-129.975-10.46-129.975-77.093     c0-48.446,39.413-87.861,87.86-87.861c48.548,0,87.86,39.574,87.86,87.861c0,24.364-9.784,47.033-27.551,63.833     c-3.009,2.846-3.143,7.593-0.296,10.603c2.845,3.01,7.592,3.142,10.603,0.296c20.491-19.375,32.244-46.613,32.244-74.73     c0-10.129-1.479-19.917-4.22-29.17c29.487-24.083,65.746-67.229,80.043-139.625c12.957-65.636,50.306-118.727,101.381-153.653     V112.859z"/>
		</g>
	</g>
</g>
<g>
</g>
<g>
</g>
<g>
</g>
<g>
</g>
<g>
</g>
<g>
</g>
<g>
</g>
<g>
</g>
<g>
</g>
<g>
</g>
<g>
</g>
<g>
</g>
<g>
</g>
<g>
</g>
<g>
</g>
</svg>
