<?xml version="1.0" encoding="iso-8859-1"?>
<!-- Generator: Adobe Illustrator 19.0.0, SVG Export Plug-In . SVG Version: 6.00 Build 0)  -->
<svg xmlns="http://www.w3.org/2000/svg" xmlns:xlink="http://www.w3.org/1999/xlink" version="1.1" id="Layer_1" x="0px" y="0px" viewBox="0 0 512 512" style="enable-background:new 0 0 512 512;" xml:space="preserve">
<g>
	<g>
		<g>
			<path d="M260.633,161.49c-4.143,0-7.5,3.357-7.5,7.5v120.422c0,4.143,3.357,7.5,7.5,7.5h85.264c4.143,0,7.5-3.357,7.5-7.5     c0-4.143-3.357-7.5-7.5-7.5h-77.764V168.99C268.133,164.848,264.775,161.49,260.633,161.49z"/>
			<path d="M314.349,116.734c-17.339-5.405-35.411-8.146-53.716-8.146c-99.706,0-180.823,81.116-180.823,180.822     s81.117,180.823,180.823,180.823s180.823-81.117,180.823-180.823c0-33.842-9.451-66.867-27.329-95.503     c-17.382-27.837-41.972-50.466-71.113-65.44c-3.684-1.894-8.206-0.441-10.099,3.243c-1.893,3.684-0.441,8.205,3.243,10.099     c55.698,28.619,90.298,85.177,90.298,147.601c0,91.436-74.389,165.824-165.824,165.824S94.809,380.847,94.809,289.411     c0-91.434,74.389-165.823,165.824-165.823c16.789,0,33.359,2.512,49.251,7.466c3.953,1.229,8.16-0.975,9.392-4.928     C320.509,122.172,318.303,117.967,314.349,116.734z"/>
			<path d="M285.535,68.225V24.206C285.535,10.858,274.677,0,261.329,0h-1.393c-13.348,0-24.206,10.858-24.206,24.206v44.019     c-36.126,4.041-69.666,16.756-98.48,36.019l-18.284-23.11l11.041-8.735c18.639-14.745,6.447-44.281-15.893-44.281     c-5.421,0-10.75,1.854-15.008,5.223L37.968,81.709c-5.071,4.012-8.276,9.758-9.025,16.181c-0.749,6.423,1.047,12.753,5.06,17.825     c5.578,7.044,12.091,10.277,19.857,10.277c10.264,0,15.086-5.285,26.05-13.958l19.251,24.333     c-37.857,39.921-61.115,93.816-61.115,153.045C38.045,412.147,137.898,512,260.634,512c22.653,0,45.014-3.409,66.461-10.132     c3.953-1.238,6.152-5.447,4.913-9.399c-1.239-3.952-5.449-6.153-9.399-4.913c-19.994,6.267-40.845,9.444-61.975,9.444     c-114.465,0-207.589-93.124-207.589-207.589c0-109.111,84.927-199.891,193.921-207.127     c120.492-7.809,221.257,88.044,221.257,207.127c0,81.484-48.12,155.822-122.593,189.383c-3.776,1.702-5.459,6.143-3.757,9.919     c1.701,3.775,6.14,5.458,9.919,3.757c79.841-35.98,131.43-115.687,131.43-203.059C483.222,175.095,396.591,80.645,285.535,68.225     z M53.86,110.992c-8.409,0-14.023-11.637-6.586-17.519c66.312-52.461,62.445-50.356,66.842-50.356     c2.839,0,5.475,1.273,7.232,3.496l0.862,1.089c3.149,3.983,2.473,9.784-1.509,12.934     C54.091,113.333,58.123,110.992,53.86,110.992z M109.903,125.771l-18.23-23.044c9.528-7.538,6.006-4.751,15.529-12.287     l17.848,22.557C120.453,116.541,114.925,121.154,109.903,125.771z M270.536,67.048c-6.69-0.301-12.095-0.268-17.988-0.062     c-0.607,0.023-1.211,0.034-1.817,0.062V24.206c0-5.076,4.13-9.206,9.206-9.206h1.393c5.076,0,9.206,4.13,9.206,9.206V67.048z"/>
		</g>
	</g>
</g>
<g>
</g>
<g>
</g>
<g>
</g>
<g>
</g>
<g>
</g>
<g>
</g>
<g>
</g>
<g>
</g>
<g>
</g>
<g>
</g>
<g>
</g>
<g>
</g>
<g>
</g>
<g>
</g>
<g>
</g>
</svg>
