<?xml version="1.0" encoding="iso-8859-1"?>
<!-- Generator: Adobe Illustrator 19.0.0, SVG Export Plug-In . SVG Version: 6.00 Build 0)  -->
<svg xmlns="http://www.w3.org/2000/svg" xmlns:xlink="http://www.w3.org/1999/xlink" version="1.1" id="Layer_1" x="0px" y="0px" viewBox="0 0 512.001 512.001" style="enable-background:new 0 0 512.001 512.001;" xml:space="preserve">
<g>
	<g>
		<g>
			<path d="M483.638,71.322c-4.465,0-8.681,1.075-12.406,2.979V53.69c0-15.077-12.269-27.343-27.35-27.343     c-4.465,0-8.681,1.075-12.406,2.978C431.474,10.228,417.791,0,404.124,0c-13.674,0-25.037,10.088-27.036,23.211     c-18.131-9.565-40.068,3.666-40.068,24.203v118.229l-25.158-19.375c-5.871-4.809-13.269-7.455-20.852-7.455     c-30.51,0-44.89,38.525-20.988,58.273c0.035,0.029,0.07,0.058,0.105,0.086l66.892,53.272c0,5.754-1.224,18.073,11.045,25.682     c-4.175,7.056-3.233,9.098-3.233,47.808c0,9.511,5.738,17.702,13.93,21.308v150.492c0,8.971,7.299,16.268,16.272,16.268h97.896     c8.972,0,16.27-7.297,16.27-16.268V396.95c0-4.127-3.344-7.471-7.471-7.471c-4.127,0-7.471,3.344-7.471,7.471v98.783     c0,0.731-0.597,1.327-1.329,1.327h-97.896c-0.733,0-1.331-0.596-1.331-1.327V347.205h100.556v24.842     c0,4.127,3.344,7.471,7.471,7.471c4.127,0,7.471-3.344,7.471-7.471v-26.911c8.07-3.658,13.7-11.783,13.7-21.203     c0-38.529,0.991-40.912-3.404-48.097c5.247-3.213,9.334-8.271,11.175-14.394c0.209-0.697,0.316-1.422,0.316-2.151V98.668     C510.988,83.589,498.718,71.322,483.638,71.322z M487.958,323.932c0,4.187-3.109,7.652-7.139,8.235     c-0.023,0.003-0.048,0.003-0.071,0.006c-0.21,0.028-0.392,0.047-0.563,0.063c-0.185,0.013-0.372,0.028-0.561,0.028     c-117.727,0-111.42,0.034-112.546-0.071c-4.111-0.508-7.306-4.015-7.306-8.261v-35.993c0-4.594,3.738-8.331,8.332-8.331h111.519     c4.595,0,8.334,3.737,8.334,8.331V323.932z M496.047,258.04c-1.594,3.946-5.498,6.626-9.806,6.626h-6.616     c-5.365,0-115.729,0-119.328,0c-4.595,0-8.334-3.737-8.334-8.33v-9.494c0-2.275-1.037-4.427-2.817-5.844l-69.654-55.469     c-3.672-3.054-5.941-7.352-6.392-12.11c-0.453-4.778,0.982-9.446,4.041-13.145c3.426-4.143,8.482-6.519,13.87-6.519     c4.163,0,8.226,1.463,11.44,4.119c0.065,0.055,0.132,0.107,0.199,0.159l37.282,28.713c2.254,1.735,5.301,2.041,7.857,0.784     c2.554-1.257,4.173-3.856,4.173-6.703V47.415c0-6.839,5.565-12.404,12.406-12.404c6.842,0,12.408,5.564,12.408,12.404v94.851     c0,4.127,3.344,7.471,7.471,7.471c4.126,0,7.471-3.344,7.471-7.471c0-11.673,0-100.531,0-114.92     c0-6.839,5.565-12.404,12.406-12.404c6.842,0,12.408,5.564,12.408,12.404c0,22.833,0,91.925,0,114.92     c0,4.127,3.344,7.471,7.471,7.471c4.127,0,7.471-3.344,7.471-7.471V53.69c0-6.838,5.565-12.401,12.406-12.401     c6.842,0,12.408,5.563,12.408,12.401v27.562c0,7.205,0,53.7,0,61.012c0,4.127,3.344,7.471,7.471,7.471     c4.127,0,7.471-3.344,7.471-7.471V98.668c0-6.84,5.565-12.405,12.406-12.405c6.842,0,12.408,5.564,12.408,12.405V258.04z"/>
			<path d="M200.142,146.267l-25.158,19.375V95.129c0-4.127-3.345-7.471-7.471-7.471s-7.471,3.344-7.471,7.471v85.697     c0,6.188,7.124,9.696,12.029,5.919c0.161-0.124,37.324-28.743,37.48-28.872c7.64-6.31,18.996-5.235,25.311,2.4     c6.31,7.632,5.268,18.917-2.353,25.256l-69.651,55.468c-3.494,2.783-2.817,5.632-2.817,15.338c0,4.593-3.738,8.33-8.334,8.33     c-1.759,0-124.461,0-125.945,0c-4.309,0-8.214-2.681-9.807-6.625V98.668c0-6.839,5.566-12.405,12.409-12.405     c6.841,0,12.406,5.565,12.406,12.405v43.598c0,4.127,3.345,7.471,7.471,7.471s7.471-3.344,7.471-7.471c0-8.953,0-77.741,0-88.575     c0-6.838,5.566-12.401,12.408-12.401c6.841,0,12.407,5.563,12.407,12.401v88.575c0,4.127,3.345,7.471,7.471,7.471     s7.471-3.344,7.471-7.471c0-2.784,0-111.63,0-114.92c-0.001-6.84,5.565-12.404,12.407-12.404c6.841,0,12.407,5.564,12.407,12.404     v4.747c0,11.087,0,96.492,0,110.173c0,4.127,3.345,7.471,7.471,7.471c4.126,0,7.471-3.344,7.471-7.471V47.415     c0-6.839,5.566-12.404,12.409-12.404c6.84,0,12.405,5.564,12.405,12.404v22.812c0,4.127,3.345,7.471,7.471,7.471     s7.471-3.344,7.471-7.471V47.415c0-15.078-12.268-27.345-27.347-27.345c-4.589,0-8.918,1.137-12.72,3.142     C132.917,10.088,121.554,0,107.88,0C92.799,0,80.53,12.268,80.53,27.345v1.981c-3.726-1.905-7.944-2.979-12.407-2.979     c-15.081,0-27.35,12.267-27.35,27.343V74.3C22.636,65.03,1.015,78.305,1.015,98.668v160.623c0,0.729,0.107,1.452,0.316,2.15     c1.841,6.124,5.927,11.183,11.176,14.396c-4.323,7.069-3.404,9.105-3.404,48.096c0,9.42,5.63,17.544,13.699,21.203v150.596     c0,8.971,7.298,16.268,16.27,16.268h97.897c8.972,0,16.27-7.297,16.27-16.268V345.241c8.194-3.606,13.932-11.798,13.932-21.309     v-35.993c0-4.311-1.182-8.349-3.234-11.815c12.298-7.625,11.045-20.005,11.045-25.682c0.075-0.06,66.923-53.295,66.997-53.356     c6.776-5.599,10.966-13.504,11.797-22.256C256.522,145.914,222.774,127.726,200.142,146.267z M138.3,495.732     c0,0.731-0.597,1.327-1.329,1.327H39.074c-0.732,0-1.329-0.596-1.329-1.327V347.205H138.3V495.732z M152.231,323.932     c0,4.248-3.198,7.757-7.313,8.262c-0.009,0.001-0.019,0.001-0.028,0.002c-0.228,0.027-0.733,0.067-0.992,0.067H32.38     c-0.188,0-0.373-0.016-0.558-0.028c-0.173-0.015-0.359-0.034-0.567-0.063c-0.023-0.003-0.046-0.002-0.07-0.006     c-4.03-0.582-7.14-4.047-7.14-8.235v-35.993c0-4.594,3.738-8.331,8.334-8.331h111.518v0.001c4.595,0,8.333,3.737,8.333,8.331     V323.932z"/>
		</g>
	</g>
</g>
<g>
</g>
<g>
</g>
<g>
</g>
<g>
</g>
<g>
</g>
<g>
</g>
<g>
</g>
<g>
</g>
<g>
</g>
<g>
</g>
<g>
</g>
<g>
</g>
<g>
</g>
<g>
</g>
<g>
</g>
</svg>
