<?xml version="1.0" encoding="iso-8859-1"?>
<!-- Generator: Adobe Illustrator 19.0.0, SVG Export Plug-In . SVG Version: 6.00 Build 0)  -->
<svg xmlns="http://www.w3.org/2000/svg" xmlns:xlink="http://www.w3.org/1999/xlink" version="1.1" id="Layer_1" x="0px" y="0px" viewBox="0 0 511.999 511.999" style="enable-background:new 0 0 511.999 511.999;" xml:space="preserve">
<g>
	<g>
		<g>
			<path d="M313.426,254.518l-34.385-4.996c-0.409-0.059-0.763-0.317-0.945-0.688l-15.377-31.158     c-2.744-5.559-10.697-5.561-13.442,0c-16.439,33.313-15.324,31.701-16.324,31.846l-34.384,4.997     c-6.134,0.89-8.595,8.453-4.154,12.784c26.581,25.909,25.413,24.365,25.243,25.364l-5.874,34.246     c-0.483,2.811,0.674,5.653,2.981,7.33c1.306,0.948,2.852,1.432,4.406,1.432c1.192,0,2.39-0.285,3.487-0.86l30.755-16.17     c0.366-0.191,0.808-0.189,1.168,0l30.754,16.17c2.526,1.328,5.585,1.106,7.893-0.571c2.308-1.677,3.465-4.518,2.981-7.331     l-5.874-34.245c-0.069-0.408,0.065-0.823,0.362-1.111l24.881-24.253c2.043-1.992,2.777-4.971,1.896-7.684     C318.596,256.907,316.249,254.928,313.426,254.518z M282.236,280.822c-3.829,3.733-5.576,9.109-4.672,14.379l3.306,19.277     l-17.317-9.104c-4.648-2.441-10.475-2.437-15.115,0.003l-17.313,9.102l3.307-19.278c0.904-5.271-0.842-10.648-4.672-14.38     l-14.007-13.652c31.438-4.569,26.299-0.979,40.245-29.239l8.657,17.541c2.368,4.797,6.941,8.118,12.232,8.887l19.355,2.812     L282.236,280.822z"/>
			<path d="M423.945,216.705l-101.821-14.797c-6-0.871-11.184-4.64-13.869-10.078l-45.537-92.267     c-1.263-2.558-3.868-4.178-6.721-4.178c-2.852,0-5.458,1.62-6.721,4.178l-45.536,92.267c-2.684,5.439-7.868,9.207-13.868,10.078     L88.05,216.705c-2.823,0.41-5.169,2.388-6.051,5.101c-0.881,2.713-0.146,5.691,1.896,7.683l73.679,71.819     c4.342,4.231,6.322,10.326,5.296,16.303l-17.391,101.411c-0.483,2.811,0.674,5.653,2.981,7.33     c2.308,1.677,5.365,1.899,7.892,0.571l91.073-47.879c5.265-2.769,11.881-2.766,17.142-0.001l91.073,47.88     c1.097,0.577,2.294,0.86,3.487,0.86c1.554,0,3.101-0.483,4.406-1.432c2.308-1.677,3.465-4.518,2.981-7.33l-17.393-101.411     c-1.024-5.976,0.956-12.071,5.298-16.303l73.679-71.818c2.043-1.992,2.777-4.971,1.896-7.683     C429.115,219.093,426.77,217.116,423.945,216.705z M343.958,290.573c-7.875,7.677-11.467,18.731-9.607,29.571l14.826,86.444     l-77.631-40.813c-4.774-2.511-10.15-3.838-15.548-3.838c-5.396,0-10.773,1.328-15.548,3.839l-77.629,40.812l14.825-86.443     c1.86-10.84-1.731-21.895-9.606-29.572l-62.806-61.219l86.793-12.612c10.883-1.58,20.288-8.413,25.155-18.277l38.816-78.65     l38.817,78.65c4.87,9.865,14.274,16.697,25.156,18.277l86.793,12.612L343.958,290.573z"/>
			<path d="M483.364,172.963L346.96,153.141L285.957,29.538c-12.251-24.82-47.673-24.813-59.921,0l-61.001,123.603L28.63,172.963     c-12.678,1.843-23.012,10.556-26.97,22.741c-3.959,12.181-0.719,25.305,8.454,34.249l98.703,96.208l-23.3,135.853     c-3.56,20.734,12.5,39.059,32.932,39.059c5.393,0,10.769-1.327,15.544-3.838l122.003-64.14l122.006,64.143     c4.776,2.51,10.151,3.836,15.544,3.836c7.103,0,13.895-2.206,19.641-6.382c10.363-7.531,15.455-20.052,13.29-32.677     l-23.299-135.854l98.702-96.208C521.703,210.629,510.75,176.943,483.364,172.963z M491.417,219.217l-101.524,98.959     c-1.766,1.723-2.572,4.203-2.154,6.634l23.964,139.738c2.59,15.098-13.285,26.484-26.727,19.42     c-133.392-70.129-127.58-68.543-132.468-65.976l-125.492,65.975c-13.427,7.064-29.321-4.298-26.725-19.419l23.964-139.738     c0.418-2.431-0.389-4.912-2.154-6.634L20.577,219.218c-5.058-4.931-6.844-12.166-4.662-18.883     c2.183-6.718,7.881-11.523,14.871-12.539l140.303-20.388c2.441-0.354,4.552-1.888,5.643-4.1l62.745-127.138     c6.755-13.685,26.286-13.678,33.037,0l62.747,127.138c1.092,2.212,3.202,3.745,5.643,4.1l140.302,20.388     C496.311,189.991,502.344,208.568,491.417,219.217z"/>
		</g>
	</g>
</g>
<g>
</g>
<g>
</g>
<g>
</g>
<g>
</g>
<g>
</g>
<g>
</g>
<g>
</g>
<g>
</g>
<g>
</g>
<g>
</g>
<g>
</g>
<g>
</g>
<g>
</g>
<g>
</g>
<g>
</g>
</svg>
