<?xml version="1.0" encoding="iso-8859-1"?>
<!-- Generator: Adobe Illustrator 19.0.0, SVG Export Plug-In . SVG Version: 6.00 Build 0)  -->
<svg xmlns="http://www.w3.org/2000/svg" xmlns:xlink="http://www.w3.org/1999/xlink" version="1.1" id="Layer_1" x="0px" y="0px" viewBox="0 0 511.999 511.999" style="enable-background:new 0 0 511.999 511.999;" xml:space="preserve">
<g>
	<g>
		<g>
			<path d="M254.894,273.436c-65.772,0-119.281,53.509-119.281,119.281s53.509,119.282,119.281,119.282     c65.773,0,119.282-53.51,119.282-119.282C374.177,326.945,320.667,273.436,254.894,273.436z M254.894,496.999     c-57.5,0-104.28-46.78-104.28-104.281c0-57.5,46.78-104.28,104.28-104.28c57.501,0,104.281,46.78,104.281,104.28     C359.176,450.219,312.396,496.999,254.894,496.999z"/>
			<path d="M254.894,305.587c-48.044,0-87.13,39.086-87.13,87.13c0,48.044,39.086,87.13,87.13,87.13     c17.625,0,34.615-5.259,49.136-15.207c3.417-2.342,4.289-7.01,1.948-10.428c-2.342-3.416-7.009-4.288-10.428-1.948     c-12.013,8.23-26.072,12.582-40.656,12.582c-39.772,0-72.129-32.357-72.129-72.129c0-39.772,32.357-72.129,72.129-72.129     c60.055,0,93.719,69.456,56.785,116.555c-2.557,3.259-1.986,7.974,1.273,10.53c3.261,2.559,7.974,1.986,10.53-1.273     c12.13-15.467,18.541-34.029,18.541-53.682C342.024,344.674,302.938,305.587,254.894,305.587z"/>
			<path d="M473.675,59.234c-1.703-5.407-5.424-10.078-10.477-13.15l-69.87-42.497C389.469,1.241,385.111,0,380.727,0     c-7.477,0-14.124,3.59-17.781,9.604L255.999,185.45l-64.95-106.791c-2.153-3.539-6.768-4.663-10.307-2.511     c-3.539,2.152-4.663,6.767-2.511,10.307c4.387,7.213,90.815,149.322,94.653,155.632c-34.206-4.096-69.53,3.4-99.942,23.19     L52.983,68.034c-0.977-1.604-0.639-3.379-0.351-4.294c0.601-1.909,2.045-3.673,3.962-4.838l69.868-42.495     c1.918-1.165,4.151-1.638,6.12-1.292c0.944,0.165,2.676,0.682,3.651,2.287l29.163,47.951c2.152,3.538,6.766,4.661,10.307,2.511     c3.539-2.152,4.663-6.767,2.511-10.307l-29.163-47.95c-2.959-4.866-8.021-8.245-13.889-9.27     c-5.579-0.973-11.44,0.18-16.495,3.252L48.8,46.084c-5.053,3.073-8.774,7.743-10.477,13.151     c-1.789,5.681-1.117,11.73,1.843,16.595C174.21,296.229,164.58,282.39,169.191,283.312c2.027,0.405,4.168-0.041,5.888-1.294     c23.336-17.012,50.935-26.004,79.815-26.004c10.551,0,21.078,1.226,31.29,3.643c0.004,0.001,0.007,0.001,0.011,0.002     c18.153,4.298,34.964,12.178,49.966,23.417c1.308,0.98,2.888,1.498,4.497,1.498c0.474,0,0.949-0.045,1.422-0.136     c2.076-0.401,3.887-1.66,4.986-3.467L471.832,75.83C474.792,70.964,475.464,64.915,473.675,59.234z M459.016,68.034     L338.429,266.308c-14.035-9.384-29.366-16.256-45.713-20.485c-23.119-38.013-16.325-26.841-27.937-45.937L375.762,17.401     c1.316-2.165,3.909-2.399,4.964-2.399c1.635,0,3.298,0.485,4.807,1.403l69.87,42.495c1.916,1.166,3.36,2.93,3.962,4.839     C459.654,64.655,459.992,66.429,459.016,68.034z"/>
			<path d="M234.144,410.916v10.927h42.158v-10.927h-14.017v-52.091h-12.471c-0.868,2.028-11.901,10.485-17.879,10.485v11.366     c5.524,0,15.21-4.716,17.879-8.275v38.516H234.144z"/>
		</g>
	</g>
</g>
<g>
</g>
<g>
</g>
<g>
</g>
<g>
</g>
<g>
</g>
<g>
</g>
<g>
</g>
<g>
</g>
<g>
</g>
<g>
</g>
<g>
</g>
<g>
</g>
<g>
</g>
<g>
</g>
<g>
</g>
</svg>
