<?xml version="1.0" encoding="iso-8859-1"?>
<!-- Generator: Adobe Illustrator 19.0.0, SVG Export Plug-In . SVG Version: 6.00 Build 0)  -->
<svg xmlns="http://www.w3.org/2000/svg" xmlns:xlink="http://www.w3.org/1999/xlink" version="1.1" id="Layer_1" x="0px" y="0px" viewBox="0 0 512 512" style="enable-background:new 0 0 512 512;" xml:space="preserve">
<g>
	<g>
		<g>
			<path d="M487.299,193.246c4.142,0,7.5-3.357,7.5-7.5v-32.584c0-13.822-11.246-25.068-25.068-25.068H440.75v-14.46     c0-13.822-11.246-25.068-25.068-25.068h-55.505c-3.803-23.349-15.361-44.784-33.034-60.932C307.636,9.815,282.371,0,255.999,0     c-26.372,0-51.638,9.815-71.142,27.635c-17.674,16.147-29.229,37.582-33.03,60.932H89.23c-13.822,0-25.068,11.246-25.068,25.068     v14.46H42.268c-13.822,0-25.068,11.246-25.068,25.068v333.772c0,13.821,11.246,25.067,25.068,25.067h427.463     c13.822,0,25.068-11.245,25.068-25.067V211.747c0-4.143-3.358-7.5-7.5-7.5c-4.143,0-7.5,3.357-7.5,7.5v275.187     c0,5.55-4.516,10.066-10.067,10.066H42.268c-5.551,0-10.067-4.515-10.067-10.066V153.161c0-5.551,4.516-10.067,10.067-10.067     c30.93,0,412.544,0,427.463,0c5.551,0,10.067,4.516,10.067,10.067v32.584C479.799,189.888,483.156,193.246,487.299,193.246z      M255.999,15.001c44.082,0,80.98,31.088,88.979,73.565h-22.123c-3.466-13.584-11.062-25.902-21.799-35.183     c-12.523-10.824-28.524-16.785-45.057-16.785c-16.532,0-32.533,5.961-45.057,16.785c-10.738,9.281-18.333,21.599-21.799,35.183     H167.02C175.018,46.089,211.915,15.001,255.999,15.001z M307.21,88.566H204.788c7.24-21.581,27.881-36.967,51.211-36.967     S299.97,66.984,307.21,88.566z M425.747,128.094H79.162v-14.46c0-5.551,4.516-10.067,10.067-10.067c7.102,0,320.091,0,326.452,0     c5.551,0,10.067,4.516,10.067,10.067V128.094z"/>
			<path d="M328.827,222.487c2.271-3.463,1.306-8.112-2.158-10.386c-85.435-56.043-199.675,5.576-199.675,107.946     c0,71.134,57.872,129.006,129.006,129.006s129.006-57.872,129.006-129.006c0-34.677-13.565-67.219-38.196-91.631     c-2.94-2.915-7.69-2.895-10.607,0.048c-2.916,2.941-2.895,7.691,0.048,10.608c21.767,21.572,33.755,50.331,33.755,80.976     c0,62.862-51.143,114.005-114.005,114.005S141.996,382.91,141.996,320.048c0-90.612,101.112-144.819,176.447-95.402     C321.903,226.917,326.553,225.95,328.827,222.487z"/>
			<path d="M255.999,388.301c14.226,0,25.799-11.574,25.799-25.801v-16.653h16.655c14.226,0,25.799-11.574,25.799-25.801     c0-14.226-11.573-25.799-25.799-25.799h-16.655v-16.655c0-14.227-11.573-25.801-25.799-25.801     c-14.227,0-25.801,11.574-25.801,25.801v16.655h-16.653c-14.227,0-25.801,11.573-25.801,25.799     c0,14.227,11.574,25.801,25.801,25.801h16.653V362.5C230.199,376.727,241.773,388.301,255.999,388.301z M213.545,330.846     c-5.954,0-10.8-4.845-10.8-10.8c0-5.953,4.845-10.798,10.8-10.798h24.153c4.143,0,7.5-3.357,7.5-7.5v-24.155     c0-5.954,4.845-10.8,10.8-10.8c5.953,0,10.798,4.845,10.798,10.8v24.155c0,4.143,3.357,7.5,7.5,7.5h24.155     c5.953,0,10.798,4.844,10.798,10.798c0,5.954-4.844,10.8-10.798,10.8h-24.155c-4.143,0-7.5,3.357-7.5,7.5V362.5     c0,5.954-4.844,10.8-10.798,10.8c-5.954,0-10.8-4.845-10.8-10.8v-24.153c0-4.143-3.357-7.5-7.5-7.5H213.545z"/>
		</g>
	</g>
</g>
<g>
</g>
<g>
</g>
<g>
</g>
<g>
</g>
<g>
</g>
<g>
</g>
<g>
</g>
<g>
</g>
<g>
</g>
<g>
</g>
<g>
</g>
<g>
</g>
<g>
</g>
<g>
</g>
<g>
</g>
</svg>
