<?xml version="1.0" encoding="iso-8859-1"?>
<!-- Generator: Adobe Illustrator 19.0.0, SVG Export Plug-In . SVG Version: 6.00 Build 0)  -->
<svg xmlns="http://www.w3.org/2000/svg" xmlns:xlink="http://www.w3.org/1999/xlink" version="1.1" id="Layer_1" x="0px" y="0px" viewBox="0 0 512.001 512.001" style="enable-background:new 0 0 512.001 512.001;" xml:space="preserve">
<g>
	<g>
		<g>
			<path d="M504.501,194.443c-4.143,0-7.5,3.357-7.5,7.5v194.982h-15.603V138.177c0-4.143-3.357-7.5-7.5-7.5H38.104     c-4.143,0-7.5,3.357-7.5,7.5v258.748H15.001v-259.36c0-12.401,10.089-22.49,22.489-22.49h437.016     c12.402,0,22.491,10.09,22.491,22.49v38.377c0.001,4.142,3.358,7.5,7.501,7.5c4.143,0,7.5-3.357,7.5-7.5v-38.377     c0-20.673-16.819-37.491-37.492-37.491H37.49C16.818,100.073,0,116.892,0,137.565v266.861c0,4.143,3.357,7.5,7.5,7.5h30.604     c4.143,0,7.5-3.357,7.5-7.5V145.678h420.792v258.748c0,4.143,3.357,7.5,7.5,7.5h30.604c4.143,0,7.5-3.357,7.5-7.5V201.943     C512.001,197.8,508.644,194.443,504.501,194.443z"/>
			<path d="M387.134,171.685c-25.314,0-45.907,20.594-45.907,45.907c0,25.315,20.594,45.909,45.907,45.909     c25.314,0,45.907-20.595,45.907-45.909C433.042,192.28,412.448,171.685,387.134,171.685z M387.134,248.5     c-17.042,0-30.906-13.865-30.906-30.908c0-17.042,13.864-30.906,30.906-30.906c17.042,0,30.906,13.864,30.906,30.906     C418.041,234.635,404.176,248.5,387.134,248.5z"/>
		</g>
	</g>
</g>
<g>
</g>
<g>
</g>
<g>
</g>
<g>
</g>
<g>
</g>
<g>
</g>
<g>
</g>
<g>
</g>
<g>
</g>
<g>
</g>
<g>
</g>
<g>
</g>
<g>
</g>
<g>
</g>
<g>
</g>
</svg>
