<?xml version="1.0" encoding="iso-8859-1"?>
<!-- Generator: Adobe Illustrator 19.0.0, SVG Export Plug-In . SVG Version: 6.00 Build 0)  -->
<svg xmlns="http://www.w3.org/2000/svg" xmlns:xlink="http://www.w3.org/1999/xlink" version="1.1" id="Layer_1" x="0px" y="0px" viewBox="0 0 512.001 512.001" style="enable-background:new 0 0 512.001 512.001;" xml:space="preserve">
<g>
	<g>
		<path d="M511.89,306.662c-0.347-4.494-1.661-8.931-3.82-12.959c-6.084-11.26-4.018-8.219-102.504-63.305    c-4.946-2.387-182.115-102.713-190.529-105.626c-2.477-0.883-5.204-1.592-4.995-1.514c-22.526-5.659-46.59,4.631-62.254,21.34    c-1.594,1.512-27.017,24.98-65.143,24.98c-12.389,0-25.161-2.46-37.966-7.312C23.088,154.087,0.07,170.1,0.07,193.069    c0,146.809-0.558,138.067,1.484,144.617c3.906,12.532,15.114,21.867,28.62,23.024v6.835c0,12.551,10.211,22.762,22.763,22.762    h5.724c12.551,0,22.762-10.211,22.762-22.762v-6.705h92.659v6.705c0,12.551,10.21,22.762,22.762,22.762h5.726    c12.551,0,22.762-10.211,22.762-22.762v-6.705h28.341v6.705c0,12.551,10.212,22.762,22.764,22.762h5.724    c12.551,0,22.762-10.211,22.762-22.762v-6.705h28.344v6.705c0,12.551,10.212,22.762,22.764,22.762h5.723    c12.551,0,22.762-10.211,22.762-22.762v-6.705h28.342v6.705c0,12.551,10.211,22.762,22.762,22.762h5.725    c12.551,0,22.762-10.211,22.762-22.762v-7.19c29.517-2.535,47.885-20.744,47.885-51.403    C512.034,308.951,511.894,306.708,511.89,306.662z M15.067,230.824c46.575-4.78,87.401,32.453,86.458,79.773l-68.517,0.038    c-9.893,0-17.941-8.049-17.941-17.942V230.824z M58.661,375.311h-5.724c-4.283,0-7.767-3.483-7.767-7.766v-6.705h21.256v6.705    h0.001C66.427,371.826,62.944,375.311,58.661,375.311z M202.568,375.311h-5.725c-4.282,0-7.766-3.483-7.766-7.766v-6.705h21.256    v6.705h0.001C210.334,371.826,206.851,375.311,202.568,375.311z M289.924,367.545c0,4.282-3.483,7.766-7.766,7.766h-5.723    c-4.283,0-7.768-3.483-7.768-7.766v-6.705h21.257V367.545z M361.75,375.311h-5.723c-4.283,0-7.768-3.483-7.768-7.766v-6.705    h21.256v6.705h0.001C369.516,371.826,366.032,375.311,361.75,375.311z M441.34,375.311h-5.725c-4.282,0-7.766-3.483-7.766-7.766    v-6.705c20.84,0,19.856,0.025,21.256-0.065v6.77h0.001C449.106,371.826,445.623,375.311,441.34,375.311z M486.817,335.832    c-8.384,7.537-21.966,10.493-32.974,9.703c-2.086-0.134-1.581-0.298-4.196,0.095c-0.845-0.022-413.021,0.211-416.639,0.213    c-9.893,0-17.941-8.049-17.941-17.942v-7.598c12.454,8.156-6.66,5.341,380.6,5.128c4.142-0.002,7.496-3.361,7.494-7.502    c-0.002-4.13-3.346-7.494-7.502-7.494l-122.549,0.067l18.414-30.015c7.111-11.6,3.462-26.825-8.135-33.936    c-11.393-6.988-26.654-3.748-33.938,8.131l-34.262,55.853l-18.452,0.01l39.315-64.085c7.112-11.598,3.464-26.822-8.135-33.938    c-11.393-6.986-26.651-3.746-33.937,8.132l-55.162,89.924l-22.299,0.013c0.915-55.532-46.502-99.552-101.45-94.819V193.07    c-0.001-9.922,8.048-17.944,17.942-17.944c7.172,0,22.168,9.449,49.636,9.449c45.825,0,75.582-29.199,75.87-29.494    c0.975-1,1.828-1.916,3.955-3.757l48.577,27.168c3.615,2.02,8.184,0.73,10.204-2.884c2.021-3.614,0.73-8.183-2.884-10.203    l-41.95-23.461c13.304-6.684,25.302-6.747,37.082-1.688c1.193,0.513-9.04-5.159,178.194,99.565    c-6.096,10.9-6.572,12.959-10.47,14.06c-4.421,1.249,4.516,5.13-142.259-76.958c-3.615-2.021-8.182-0.73-10.204,2.884    c-2.021,3.614-0.73,8.183,2.884,10.204L368,266.272c5.153,2.883,11.281,3.742,17.303,2.039    c10.876-3.074,13.797-11.011,19.479-21.169c89.534,50.079,84.14,46.823,86.38,48.874c-11.102,15.889-36.463,14.757-40.422,14.474    c-1-0.13,0.635-0.084-30.089-0.066c-4.142,0.002-7.496,3.361-7.494,7.502c0.002,4.141,3.358,7.494,7.498,7.494    c30.308,0,29.291,0.079,29.291,0.079c10.315,0.923,32.241-0.546,46.978-13.565C496.394,322.242,493.001,330.272,486.817,335.832z     M156.415,310.567l50.347-82.073c1.775-2.893,4.866-4.621,8.269-4.621c7.523,0,12.186,8.308,8.238,14.745l-44.13,71.936    L156.415,310.567z M232.788,310.525l29.445-48.003c1.775-2.893,4.865-4.62,8.268-4.62c7.522,0,12.187,8.306,8.239,14.745    l-23.23,37.865L232.788,310.525z"/>
	</g>
</g>
<g>
</g>
<g>
</g>
<g>
</g>
<g>
</g>
<g>
</g>
<g>
</g>
<g>
</g>
<g>
</g>
<g>
</g>
<g>
</g>
<g>
</g>
<g>
</g>
<g>
</g>
<g>
</g>
<g>
</g>
</svg>
