<?xml version="1.0" encoding="iso-8859-1"?>
<!-- Generator: Adobe Illustrator 19.0.0, SVG Export Plug-In . SVG Version: 6.00 Build 0)  -->
<svg version="1.1" id="Layer_1" xmlns="http://www.w3.org/2000/svg" xmlns:xlink="http://www.w3.org/1999/xlink" x="0px" y="0px"
	 viewBox="0 0 510.424 510.424" style="enable-background:new 0 0 510.424 510.424;" xml:space="preserve">
<g>
	<g>
		<path d="M400.344,303.852c-0.853-1.707-1.707-2.56-2.56-3.413c-0.853-1.707-1.707-3.413-3.413-5.12
			c-10.24-13.653-19.627-24.747-19.627-47.787v-98.133c0-5.12,0-10.24,0-15.36c0-37.547,0.853-72.533-29.013-99.84
			c-23.04-21.333-59.733-34.133-98.987-34.133h-13.653c-74.24,4.267-123.733,41.813-135.68,102.4
			c-2.56,11.093,3.413,20.48,15.36,23.04h0.853l61.44,7.68c0.853,0,1.707,0,2.56,0c11.093-1.707,16.213-11.093,17.92-19.627
			c4.267-19.627,19.627-33.28,38.4-33.28h4.267c10.24,0,20.48,5.12,26.453,13.653c6.827,10.24,6.827,25.6,6.827,39.253v3.413
			c-2.56,0-5.973,0.853-9.387,0.853c-9.387,0.853-21.333,2.56-30.72,3.413c-24.747,3.413-51.2,7.68-72.533,17.92
			c-46.08,18.773-72.533,59.733-72.533,110.933c0,13.653,2.56,26.453,5.973,38.4c12.8,41.813,49.493,67.413,97.28,67.413
			c16.213,0,31.573-1.707,46.08-3.413c19.627-5.973,36.693-16.213,55.467-34.987c0,0.853,0,0.853,0,0.853
			c8.533,11.093,14.507,19.627,31.573,34.133c0.853,0.853,1.707,1.707,2.56,1.707c8.533,3.413,17.067,2.56,23.893-2.56
			c13.653-11.947,36.693-31.573,47.787-41.813C400.344,326.039,408.024,318.359,400.344,303.852z M387.544,312.385
			c-11.947,10.24-34.133,29.867-47.787,40.96c-1.707,0.853-3.413,0.853-5.973,0c-15.36-12.8-19.627-19.627-27.307-29.867
			c-1.707-2.56-3.413-5.12-5.973-8.533c-0.853-1.707-3.413-3.413-5.973-3.413s-5.12,0.853-6.827,2.56
			c-19.627,21.333-35.84,32.427-54.613,38.4c-14.507,3.413-28.16,5.12-42.667,5.12c-40.96,0-69.973-20.48-81.067-55.467
			c-3.413-11.093-5.12-22.187-5.12-33.28c0-44.373,22.187-78.507,62.293-94.72c19.627-9.387,44.373-13.653,67.413-17.067
			c9.387-0.853,21.333-2.56,30.72-3.413c7.68-0.853,13.653-0.853,17.067-1.707c4.267-0.853,7.68-4.267,7.68-8.533v-10.24
			c0-15.36,0-34.987-9.387-49.493c-9.387-12.8-24.747-21.333-40.96-21.333h-4.267c-26.453,0-48.64,18.773-54.613,46.933
			c-0.853,2.56-1.707,5.12-3.413,5.973l-58.88-7.68c-1.707,0-2.56-0.853-2.56-0.853s0,0,0-1.707
			c13.653-72.533,81.067-87.04,119.467-89.6h12.8c34.987,0,67.413,11.093,87.893,29.013c23.893,23.04,23.893,52.907,23.04,87.04
			c0,5.12,0,10.24,0,15.36v97.28c0,29.013,11.947,44.373,23.04,58.027c1.707,1.707,3.413,3.413,4.267,5.12
			c0.853,0.853,0.853,0.853,1.707,1.707c0.853,1.707,0.853,2.56,0.853,2.56L387.544,312.385z"/>
	</g>
</g>
<g>
	<g>
		<path d="M281.731,186.945c-13.653,0-33.28,0.853-49.493,4.267c-0.853,0-0.853,0-0.853,0c-34.987,10.24-52.907,33.28-52.907,67.413
			c0,32.427,18.773,54.613,46.933,54.613c2.56,0,5.12-0.853,7.68-1.707c0.853,0,0.853,0,1.707,0c0,0,0.853,0,1.707,0
			c17.92-4.267,31.573-15.36,40.107-32.427c13.653-23.04,13.653-43.52,13.653-67.413v-16.213
			C290.264,190.359,286.851,186.945,281.731,186.945z M272.344,210.839c0,23.893,0,40.107-11.947,59.733
			c-5.973,12.8-16.213,20.48-28.16,23.893c-0.853,0-1.707,0.853-3.413,0.853c-0.853,0.853-2.56,0.853-3.413,0.853
			c-22.187,0-29.867-19.627-29.867-37.547c0-27.307,12.8-42.667,40.107-51.2c10.24-1.707,22.187-3.413,36.693-4.267V210.839z"/>
	</g>
</g>
<g>
	<g>
		<path d="M505.304,359.319l-0.853-0.853l-0.853-0.853c-2.56-4.267-5.973-5.12-9.387-6.827c-7.68-2.56-18.773-4.267-32.427-4.267
			c-4.267,0-6.827,0-12.8,0.853h-3.413c-0.853,0-1.707,0.853-2.56,0.853c0,0-1.707,0-2.56,0c-2.56,0-5.973,0-7.68,0.853
			c-16.213,3.413-27.307,11.093-34.133,16.213c-2.56,1.707-10.24,6.827-10.24,17.067c0,5.12,2.56,11.093,6.827,14.507
			c2.56,2.56,5.12,3.413,8.533,4.267l-5.973,4.267c-47.787,22.187-100.693,34.987-151.893,35.84
			c-48.64,0-95.573-10.24-131.413-28.16c-5.973-3.413-11.947-6.827-18.773-9.387c-17.067-7.68-31.573-17.067-42.667-24.747
			c-0.853,0-0.853-0.853-1.707-0.853c-5.973-2.56-10.24-5.12-15.36-7.68l-2.56-1.707c-4.267-1.707-8.533-2.56-11.947-2.56
			c-5.12,0-11.093,2.56-14.507,5.973c-4.267,4.267-6.827,9.387-6.827,14.507c-0.853,6.827,2.56,12.8,7.68,17.067
			c59.733,52.053,131.413,106.667,229.547,106.667c0.853,0,2.56,0,1.707-1.707h1.707c61.44-0.853,128.853-21.333,181.76-54.613
			c2.56-1.707,10.24-5.973,18.773-11.947c-0.853,1.707-0.853,4.267-0.853,5.973c0,5.12,1.707,11.947,5.973,15.36
			c2.56,2.56,7.68,5.973,13.653,5.973c5.973,0,11.093-4.267,14.507-6.827c27.307-24.747,35.84-63.147,35.84-82.773v-3.413
			C510.424,369.559,508.717,364.439,505.304,359.319z M495.917,380.652c0,15.36-6.827,49.493-29.867,69.973
			c-1.707,0.853-3.413,2.56-3.413,2.56s-0.853-0.853-1.707-1.707c-0.853-0.853-0.853-1.707-0.853-2.56c0,0,0-0.853,0-1.707
			c2.56-5.12,5.973-13.653,8.533-23.04c0.853-3.413-0.853-6.827-3.413-9.387c-3.413-1.707-6.827-1.707-10.24,0
			c-16.213,11.093-35.84,23.893-40.107,26.453c-50.347,31.573-114.347,50.347-172.373,52.053h-5.12
			c-92.16,0-161.28-52.907-219.307-103.253c-0.853-0.853-1.707-1.707-1.707-3.413c0,0,0.853-0.853,1.707-1.707
			c0,0,1.707-0.853,2.56-0.853s2.56,0,3.413,0.853l2.56,1.707c5.12,2.56,10.24,5.973,17.067,8.533
			c11.947,7.68,27.307,17.067,45.227,25.6c6.827,2.56,12.8,5.12,18.773,8.533c38.4,18.773,87.893,29.867,139.093,29.867
			c53.76-0.853,109.227-13.653,161.28-35.84c0-0.853,0.853-0.853,0.853-0.853l37.547-23.893c3.413-2.56,4.267-6.827,3.413-10.24
			c-0.853-3.413-4.267-5.973-8.533-5.973c-3.413,0-5.973,0.853-9.387,0.853l-7.68,0.853c-5.12,0-9.387,0.853-12.8,1.707
			c-0.853,0,0,0-0.853,0s-1.707-0.853-1.707-0.853v-0.853c0-0.853,0-1.707,3.413-4.267c3.413-2.56,13.653-9.387,27.307-12.8
			c1.707,0,4.267-0.853,5.973-0.853s3.413,0,5.12-0.853h2.56c4.267-0.853,7.68-0.853,11.093-0.853
			c11.093,0,21.333,1.707,26.453,3.413c2.56,0.853,2.56,0.853,3.413,1.707c0.853,2.56,1.707,4.267,1.707,7.68V380.652z"/>
	</g>
</g>
<g>
</g>
<g>
</g>
<g>
</g>
<g>
</g>
<g>
</g>
<g>
</g>
<g>
</g>
<g>
</g>
<g>
</g>
<g>
</g>
<g>
</g>
<g>
</g>
<g>
</g>
<g>
</g>
<g>
</g>
</svg>
