<?xml version="1.0" encoding="iso-8859-1"?>
<!-- Generator: Adobe Illustrator 19.0.0, SVG Export Plug-In . SVG Version: 6.00 Build 0)  -->
<svg version="1.1" id="Layer_1" xmlns="http://www.w3.org/2000/svg" xmlns:xlink="http://www.w3.org/1999/xlink" x="0px" y="0px"
	 viewBox="0 0 511.801 511.801" style="enable-background:new 0 0 511.801 511.801;" xml:space="preserve">
<g transform="translate(1 1)">
	<g>
		<g>
			<path d="M356.447,55.974c-5.851-5.851-13.26-12.154-22.323-17.993l12.936-27.233c1.707-4.267,0-9.387-4.267-11.093
				s-9.387,0-11.093,4.267l-12.275,25.843c-16.838-8.078-37.902-13.896-63.671-13.896c-26.066,0-48.041,5.296-66.25,13.856
				L177.247,3.921c-1.707-4.267-6.827-5.973-11.093-4.267c-4.267,1.707-5.973,6.827-4.267,11.093l12.872,27.099
				c-36.675,23.424-54.21,60.82-56.392,88.101l-0.853,9.387h274.773l-0.853-9.387C389.727,108.027,379.487,79.867,356.447,55.974z
				 M137.14,118.267c7.68-36.693,43.52-85.333,119.467-85.333c24.124,0,44.099,5.59,60.343,14.245
				c0.751,0.838,1.687,1.522,2.803,1.969c0.514,0.514,1.338,0.716,2.099,0.797c30.564,18.284,46.734,47.518,51.661,68.323H137.14z"
				/>
			<path d="M58.634,152.401c-23.893,0-42.667,18.773-42.667,42.667v119.467c0,23.893,18.773,42.667,42.667,42.667
				c23.893,0,42.667-18.773,42.667-42.667V195.067C101.3,171.174,82.527,152.401,58.634,152.401z M84.234,314.534
				c0,14.507-11.093,25.6-25.6,25.6c-14.507,0-25.6-11.093-25.6-25.6V195.067c0-14.507,11.093-25.6,25.6-25.6
				c14.507,0,25.6,11.093,25.6,25.6V314.534z"/>
			<path d="M451.167,152.401c-23.893,0-42.667,18.773-42.667,42.667v119.467c0,23.893,18.773,42.667,42.667,42.667
				s42.667-18.773,42.667-42.667V195.067C493.834,171.174,475.06,152.401,451.167,152.401z M476.767,314.534
				c0,14.507-11.093,25.6-25.6,25.6c-14.507,0-25.6-11.093-25.6-25.6V195.067c0-14.507,11.093-25.6,25.6-25.6
				c14.507,0,25.6,11.093,25.6,25.6V314.534z"/>
			<path d="M118.367,399.867H152.5v76.8c0,18.773,15.36,34.133,34.133,34.133c18.773,0,34.133-15.36,34.133-34.133v-76.8h68.267
				v76.8c0,18.773,15.36,34.133,34.133,34.133s34.133-15.36,34.133-34.133v-76.8h34.133V152.401H118.367V399.867z M135.434,169.467
				h238.933v213.333h-34.133v93.867c0,9.387-7.68,17.067-17.067,17.067s-17.067-7.68-17.067-17.067v-93.867H203.7v93.867
				c0,9.387-7.68,17.067-17.067,17.067s-17.067-7.68-17.067-17.067v-93.867h-34.133V169.467z"/>
			<path d="M212.234,67.067c-9.387,0-17.067,7.68-17.067,17.067c0,9.387,7.68,17.067,17.067,17.067s17.067-7.68,17.067-17.067
				C229.3,74.747,221.62,67.067,212.234,67.067z"/>
			<path d="M297.567,67.067c-9.387,0-17.067,7.68-17.067,17.067c0,9.387,7.68,17.067,17.067,17.067
				c9.387,0,17.067-7.68,17.067-17.067C314.634,74.747,306.954,67.067,297.567,67.067z"/>
		</g>
	</g>
</g>
<g>
</g>
<g>
</g>
<g>
</g>
<g>
</g>
<g>
</g>
<g>
</g>
<g>
</g>
<g>
</g>
<g>
</g>
<g>
</g>
<g>
</g>
<g>
</g>
<g>
</g>
<g>
</g>
<g>
</g>
</svg>
