<?xml version="1.0" encoding="iso-8859-1"?>
<!-- Generator: Adobe Illustrator 18.0.0, SVG Export Plug-In . SVG Version: 6.00 Build 0)  -->
<!DOCTYPE svg PUBLIC "-//W3C//DTD SVG 1.1//EN" "http://www.w3.org/Graphics/SVG/1.1/DTD/svg11.dtd">
<svg version="1.1" id="Capa_1" xmlns="http://www.w3.org/2000/svg" xmlns:xlink="http://www.w3.org/1999/xlink" x="0px" y="0px"
	 viewBox="0 0 60 60" style="enable-background:new 0 0 60 60;" xml:space="preserve">
<g>
	<path d="M9,26h8V16H9V26z M11,18h4v6h-4V18z"/>
	<path d="M9,38h8V28H9V38z M11,30h4v6h-4V30z"/>
	<path d="M9,50h8V40H9V50z M11,42h4v6h-4V42z"/>
	<path d="M36,25c-0.553,0-1,0.447-1,1v9c0,0.553,0.447,1,1,1s1-0.447,1-1v-9C37,25.447,36.553,25,36,25z"/>
	<path d="M36,38c-0.553,0-1,0.447-1,1v9c0,0.553,0.447,1,1,1s1-0.447,1-1v-9C37,38.447,36.553,38,36,38z"/>
	<path d="M31,25c-0.553,0-1,0.447-1,1v1c0,0.553,0.447,1,1,1s1-0.447,1-1v-1C32,25.447,31.553,25,31,25z"/>
	<path d="M31,30c-0.553,0-1,0.447-1,1v2c0,0.553,0.447,1,1,1s1-0.447,1-1v-2C32,30.447,31.553,30,31,30z"/>
	<path d="M31,36c-0.553,0-1,0.447-1,1v1c0,0.553,0.447,1,1,1s1-0.447,1-1v-1C32,36.447,31.553,36,31,36z"/>
	<path d="M31,41c-0.553,0-1,0.447-1,1v2c0,0.553,0.447,1,1,1s1-0.447,1-1v-2C32,41.447,31.553,41,31,41z"/>
	<path d="M30.29,47.29C30.109,47.479,30,47.74,30,48s0.109,0.52,0.29,0.71C30.479,48.89,30.74,49,31,49c0.27,0,0.52-0.11,0.71-0.29
		C31.89,48.52,32,48.27,32,48c0-0.26-0.11-0.521-0.29-0.71C31.34,46.92,30.67,46.92,30.29,47.29z"/>
	<path d="M48,2H0v7h3v44.783C3,56.108,4.892,58,7.217,58h33.566C43.108,58,45,56.108,45,53.783V9h3V2z M43,53.783
		C43,55.006,42.006,56,40.783,56H7.217C5.994,56,5,55.006,5,53.783V7h4v7h8V7h9v4.255v1.49v6C26,19.988,27.012,21,28.255,21h8h1.49
		C38.988,21,40,19.988,40,18.745v-7.49V7h3V53.783z M11,7h4v5h-4V7z M34,7v2h-2V7H34z M38,7v2.026C37.915,9.016,37.832,9,37.745,9
		H36V7H38z M28.255,19C28.114,19,28,18.886,28,18.745v-3.771C28.085,14.984,28.168,15,28.255,15H30v4H28.255z M32,15h1.745
		C33.886,15,34,15.114,34,15.255v3.49c0,0.087,0.016,0.17,0.026,0.255H32V15z M36,18.745v-3.49C36,14.012,34.988,13,33.745,13h-5.49
		C28.114,13,28,12.886,28,12.745v-1.49C28,11.114,28.114,11,28.255,11h9.49C37.886,11,38,11.114,38,11.255v7.49
		C38,18.886,37.886,19,37.745,19h-1.49C36.114,19,36,18.886,36,18.745z M30,9h-1.745C28.168,9,28.085,9.016,28,9.026V7h2V9z M46,7
		h-1V5h-5H26h-9H9H3v2H2V4h44V7z"/>
	<path d="M59.707,50.293c-0.391-0.391-1.023-0.391-1.414,0L54,54.586V29c0-0.553-0.447-1-1-1s-1,0.447-1,1v25.586l-4.293-4.293
		c-0.391-0.391-1.023-0.391-1.414,0s-0.391,1.023,0,1.414l5.999,5.999c0.092,0.093,0.203,0.166,0.326,0.217
		C52.74,57.974,52.87,58,53,58s0.26-0.026,0.382-0.077c0.123-0.051,0.234-0.124,0.326-0.217l5.999-5.999
		C60.098,51.316,60.098,50.684,59.707,50.293z"/>
</g>
<g>
</g>
<g>
</g>
<g>
</g>
<g>
</g>
<g>
</g>
<g>
</g>
<g>
</g>
<g>
</g>
<g>
</g>
<g>
</g>
<g>
</g>
<g>
</g>
<g>
</g>
<g>
</g>
<g>
</g>
</svg>
