<?xml version="1.0" encoding="iso-8859-1"?>
<!-- Generator: Adobe Illustrator 18.0.0, SVG Export Plug-In . SVG Version: 6.00 Build 0)  -->
<!DOCTYPE svg PUBLIC "-//W3C//DTD SVG 1.1//EN" "http://www.w3.org/Graphics/SVG/1.1/DTD/svg11.dtd">
<svg version="1.1" id="Capa_1" xmlns="http://www.w3.org/2000/svg" xmlns:xlink="http://www.w3.org/1999/xlink" x="0px" y="0px"
	 viewBox="0 0 60 60" style="enable-background:new 0 0 60 60;" xml:space="preserve">
<g>
	<path d="M56.62,9H3.38C1.516,9,0,10.517,0,12.38v4V22v5.62C0,29.483,1.516,31,3.38,31H4v9v6v2v1v2v3h52v-3v-2v-1v-2v-6v-9h0.62
		c1.864,0,3.38-1.517,3.38-3.38V22v-5.62v-4C60,10.517,58.484,9,56.62,9z M2,12.38C2,11.619,2.619,11,3.38,11h53.24
		c0.761,0,1.38,0.619,1.38,1.38v0.915c-0.01-0.004-0.021-0.006-0.031-0.01c-0.14-0.061-0.289-0.102-0.439-0.145
		c-0.071-0.02-0.138-0.05-0.211-0.066C57.093,13.027,56.86,13,56.62,13H3.38c-0.24,0-0.473,0.027-0.699,0.075
		C2.608,13.09,2.541,13.12,2.47,13.14c-0.149,0.042-0.299,0.083-0.439,0.145C2.021,13.289,2.01,13.291,2,13.295V12.38z M3.38,29
		C2.619,29,2,28.381,2,27.62V22h2v7H3.38z M6,42.101C7.956,42.499,9.501,44.044,9.899,46H6V42.101z M54,52H6v-1h48V52z M54,49H6v-1
		h6h36h6V49z M50.101,46c0.398-1.956,1.943-3.501,3.899-3.899V46H50.101z M54,40.08c-3.059,0.441-5.479,2.861-5.92,5.92H11.92
		c-0.441-3.059-2.861-5.479-5.92-5.92V31v-9h13.07c-1.34,2.083-2.07,4.503-2.07,7c0,7.168,5.832,13,13,13s13-5.832,13-13
		c0-2.497-0.731-4.917-2.07-7H54v9V40.08z M29,22v2.067l-1.001-0.779c-0.407-0.317-0.62-0.804-0.618-1.288H29z M25.384,22
		c0.002,1.087,0.488,2.168,1.387,2.866L29,26.6v5.438c-1.161-0.414-2-1.514-2-2.816c0-0.553-0.448-1-1-1s-1,0.447-1,1
		c0,2.414,1.721,4.434,4,4.899V35c0,0.553,0.448,1,1,1s1-0.447,1-1v-0.882c1.091-0.222,2.085-0.801,2.819-1.668
		c0.611-0.724,0.893-1.648,0.793-2.605c-0.103-0.978-0.606-1.885-1.383-2.488L31,25.623V22h7.468C40.104,23.975,41,26.443,41,29
		c0,6.065-4.935,11-11,11s-11-4.935-11-11c0-2.557,0.896-5.025,2.532-7H25.384z M31,28.156l1.001,0.779
		c0.349,0.271,0.576,0.68,0.622,1.118c0.043,0.41-0.075,0.803-0.331,1.105c-0.348,0.411-0.798,0.699-1.292,0.875V28.156z M58,27.62
		c0,0.761-0.619,1.38-1.38,1.38H56v-7h2V27.62z M58,20h-2H39.373H26.599c-0.001,0-0.001,0-0.002,0h-5.97H4H2v-3.62
		C2,15.619,2.619,15,3.38,15h53.24c0.761,0,1.38,0.619,1.38,1.38V20z"/>
	<path d="M1,7c0.552,0,1-0.447,1-1V2h56v4c0,0.553,0.448,1,1,1s1-0.447,1-1V0H0v6C0,6.553,0.448,7,1,7z"/>
	<path d="M59,33c-0.552,0-1,0.447-1,1v24H2V34c0-0.553-0.448-1-1-1s-1,0.447-1,1v26h60V34C60,33.447,59.552,33,59,33z"/>
</g>
<g>
</g>
<g>
</g>
<g>
</g>
<g>
</g>
<g>
</g>
<g>
</g>
<g>
</g>
<g>
</g>
<g>
</g>
<g>
</g>
<g>
</g>
<g>
</g>
<g>
</g>
<g>
</g>
<g>
</g>
</svg>
