<?xml version="1.0" encoding="iso-8859-1"?>
<!-- Generator: Adobe Illustrator 18.0.0, SVG Export Plug-In . SVG Version: 6.00 Build 0)  -->
<!DOCTYPE svg PUBLIC "-//W3C//DTD SVG 1.1//EN" "http://www.w3.org/Graphics/SVG/1.1/DTD/svg11.dtd">
<svg version="1.1" id="Capa_1" xmlns="http://www.w3.org/2000/svg" xmlns:xlink="http://www.w3.org/1999/xlink" x="0px" y="0px"
	 viewBox="0 0 58.414 58.414" style="enable-background:new 0 0 58.414 58.414;" xml:space="preserve">
<g>
	<path d="M21.207,14.414c1.103,0,2,0.897,2,2c0,0.553,0.447,1,1,1s1-0.447,1-1c0-2.206-1.794-4-4-4s-4,1.794-4,4
		c0,0.553,0.447,1,1,1s1-0.447,1-1C19.207,15.312,20.104,14.414,21.207,14.414z"/>
	<path d="M40.207,17.414c0.553,0,1-0.447,1-1c0-2.206-1.794-4-4-4s-4,1.794-4,4c0,0.553,0.447,1,1,1s1-0.447,1-1
		c0-1.103,0.897-2,2-2s2,0.897,2,2C39.207,16.967,39.654,17.414,40.207,17.414z"/>
	<path d="M37.207,15.414c-0.553,0-1,0.447-1,1v6c0,3.859-3.141,7-7,7s-7-3.141-7-7v-6c0-0.553-0.447-1-1-1s-1,0.447-1,1v6
		c0,4.963,4.037,9,9,9s9-4.037,9-9v-6C38.207,15.861,37.76,15.414,37.207,15.414z"/>
	<path d="M52.98,55.828l-2.896-8.951l-1.188-1.188l1.312-0.656V0l-3,3l-3-3l-3,3l-3-3l-3,3l-3-3l-3,3l-3-3l-3,3l-3-3l-3,3l-3-3l-3,3
		l-3-3v44.159l1.512,1.296l-1.477,1.414l-2.773,8.806l-0.035,0.153c-0.097,0.649,0.093,1.307,0.521,1.804s1.05,0.782,1.706,0.782
		h43.092c0.656,0,1.277-0.285,1.706-0.782S53.077,56.478,52.98,55.828z M50.943,56.327c-0.034,0.039-0.095,0.087-0.19,0.087H7.661
		c-0.096,0-0.156-0.048-0.19-0.087c-0.028-0.033-0.06-0.084-0.062-0.153l2.587-8.215l1.747-1.674
		c0.14,0.075,0.293,0.129,0.464,0.129h4.717c0.553,0,1-0.447,1-1s-0.447-1-1-1h-4.717c-0.174,0-0.33,0.056-0.473,0.135l-1.527-1.31
		V4.828l1,1l3-3l3,3l3-3l3,3l3-3l3,3l3-3l3,3l3-3l3,3l3-3l3,3l1-1v38.968l-1.237,0.618H40.2c-0.553,0-1,0.447-1,1s0.447,1,1,1h6.593
		l1.537,1.537l2.675,8.226C51.002,56.244,50.972,56.295,50.943,56.327z"/>
	<path d="M27.114,44.414h-6.907c-0.553,0-1,0.447-1,1s0.447,1,1,1h6.907c0.553,0,1-0.447,1-1S27.667,44.414,27.114,44.414z"/>
	<path d="M35.352,44.414h-4.145c-0.553,0-1,0.447-1,1s0.447,1,1,1h4.145c0.553,0,1-0.447,1-1S35.904,44.414,35.352,44.414z"/>
</g>
<g>
</g>
<g>
</g>
<g>
</g>
<g>
</g>
<g>
</g>
<g>
</g>
<g>
</g>
<g>
</g>
<g>
</g>
<g>
</g>
<g>
</g>
<g>
</g>
<g>
</g>
<g>
</g>
<g>
</g>
</svg>
