<?xml version="1.0" encoding="iso-8859-1"?>
<!-- Generator: Adobe Illustrator 18.0.0, SVG Export Plug-In . SVG Version: 6.00 Build 0)  -->
<!DOCTYPE svg PUBLIC "-//W3C//DTD SVG 1.1//EN" "http://www.w3.org/Graphics/SVG/1.1/DTD/svg11.dtd">
<svg version="1.1" id="Capa_1" xmlns="http://www.w3.org/2000/svg" xmlns:xlink="http://www.w3.org/1999/xlink" x="0px" y="0px"
	 viewBox="0 0 60 60" style="enable-background:new 0 0 60 60;" xml:space="preserve">
<g>
	<path d="M59,17.499v-14H38c-0.553,0-1,0.447-1,1s0.447,1,1,1h15.586l-4.292,4.292c-0.033,0.033-0.05,0.078-0.078,0.115
		c-0.037,0.049-0.074,0.095-0.101,0.15c-0.011,0.022-0.028,0.039-0.038,0.062c-0.017,0.04-0.016,0.083-0.027,0.125
		c-0.017,0.063-0.032,0.123-0.037,0.188C49.012,10.453,49,10.476,49,10.499v7H31V3.913l5.293,5.293
		C36.488,9.402,36.744,9.499,37,9.499s0.512-0.098,0.707-0.293c0.391-0.391,0.391-1.023,0-1.414l-6.999-6.999
		c-0.092-0.093-0.203-0.166-0.326-0.217c-0.244-0.101-0.519-0.101-0.764,0c-0.123,0.051-0.234,0.125-0.326,0.217l-6.999,6.999
		c-0.391,0.391-0.391,1.023,0,1.414C22.488,9.402,22.744,9.499,23,9.499s0.512-0.098,0.707-0.293L29,3.913v13.586H11v-7
		c0-0.024-0.012-0.046-0.013-0.069c-0.005-0.065-0.02-0.125-0.037-0.188c-0.011-0.042-0.01-0.085-0.027-0.125
		c-0.01-0.023-0.027-0.04-0.038-0.062c-0.027-0.054-0.064-0.1-0.101-0.149c-0.028-0.037-0.046-0.082-0.078-0.115L6.414,5.499H22
		c0.553,0,1-0.447,1-1s-0.447-1-1-1H1v14H0v37.259c0,2.614,2.127,4.741,4.741,4.741h50.518c2.614,0,4.741-2.127,4.741-4.741V17.499
		H59z M57,5.499v12h-0.5l-5.179-6.906l5.094-5.094H57z M51,13.499l3,4.001h-3V13.499z M6,17.499l3-4.001v4.001H6z M3,5.499h0.586
		l5.094,5.094L3.5,17.499H3V5.499z M58,54.758c0,1.512-1.229,2.741-2.741,2.741H4.741C3.229,57.499,2,56.27,2,54.758V19.499h56
		V54.758z"/>
	<path d="M42,25.499c-0.553,0-1,0.447-1,1v6c0,6.065-4.935,11-11,11s-11-4.935-11-11v-6c0-0.553-0.447-1-1-1s-1,0.447-1,1v6
		c0,7.168,5.832,13,13,13s13-5.832,13-13v-6C43,25.947,42.553,25.499,42,25.499z"/>
	<path d="M20,26.499c0,0.553,0.447,1,1,1s1-0.447,1-1c0-2.206-1.794-4-4-4s-4,1.794-4,4c0,0.553,0.447,1,1,1s1-0.447,1-1
		c0-1.103,0.897-2,2-2S20,25.397,20,26.499z"/>
	<path d="M42,22.499c-2.206,0-4,1.794-4,4c0,0.553,0.447,1,1,1s1-0.447,1-1c0-1.103,0.897-2,2-2s2,0.897,2,2c0,0.553,0.447,1,1,1
		s1-0.447,1-1C46,24.293,44.206,22.499,42,22.499z"/>
</g>
<g>
</g>
<g>
</g>
<g>
</g>
<g>
</g>
<g>
</g>
<g>
</g>
<g>
</g>
<g>
</g>
<g>
</g>
<g>
</g>
<g>
</g>
<g>
</g>
<g>
</g>
<g>
</g>
<g>
</g>
</svg>
