<?xml version="1.0" encoding="iso-8859-1"?>
<!-- Generator: Adobe Illustrator 18.0.0, SVG Export Plug-In . SVG Version: 6.00 Build 0)  -->
<!DOCTYPE svg PUBLIC "-//W3C//DTD SVG 1.1//EN" "http://www.w3.org/Graphics/SVG/1.1/DTD/svg11.dtd">
<svg version="1.1" id="Capa_1" xmlns="http://www.w3.org/2000/svg" xmlns:xlink="http://www.w3.org/1999/xlink" x="0px" y="0px"
	 viewBox="0 0 60 60" style="enable-background:new 0 0 60 60;" xml:space="preserve">
<g>
	<path d="M60,20H35.414L46.247,9.167C47.038,9.691,47.983,10,49,10c2.757,0,5-2.243,5-5s-2.243-5-5-5s-5,2.243-5,5
		c0,1.017,0.309,1.962,0.833,2.753L32.586,20h-5.172L15.167,7.753C15.691,6.962,16,6.017,16,5c0-2.757-2.243-5-5-5S6,2.243,6,5
		s2.243,5,5,5c1.017,0,1.962-0.309,2.753-0.833L24.586,20H0v8h2v27.434C2,57.951,4.048,60,6.566,60h46.867
		C55.952,60,58,57.951,58,55.434V28h2V20z M46,5c0-1.654,1.346-3,3-3s3,1.346,3,3s-1.346,3-3,3c-0.462,0-0.894-0.114-1.285-0.301
		l2.084-2.084c0.391-0.391,0.391-1.023,0-1.414s-1.023-0.391-1.414,0l-2.084,2.084C46.113,5.894,46,5.462,46,5z M11,8
		C9.346,8,8,6.654,8,5s1.346-3,3-3s3,1.346,3,3c0,0.462-0.113,0.894-0.301,1.285l-2.084-2.084c-0.391-0.391-1.023-0.391-1.414,0
		s-0.391,1.023,0,1.414l2.084,2.084C11.894,7.886,11.462,8,11,8z M30.586,22L30,22.586L29.414,22H30.586z M56,55.434
		C56,56.849,54.849,58,53.434,58H6.566C5.151,58,4,56.849,4,55.434V28h52V55.434z M58,26H2v-4h24.586l2.707,2.707
		C29.488,24.902,29.744,25,30,25s0.512-0.098,0.707-0.293L33.414,22H58V26z"/>
	<path d="M10,34h4c0.552,0,1-0.447,1-1s-0.448-1-1-1h-4c-0.552,0-1,0.447-1,1S9.448,34,10,34z"/>
	<path d="M10,38h4c0.552,0,1-0.447,1-1s-0.448-1-1-1h-4c-0.552,0-1,0.447-1,1S9.448,38,10,38z"/>
	<path d="M10,42h4c0.552,0,1-0.447,1-1s-0.448-1-1-1h-4c-0.552,0-1,0.447-1,1S9.448,42,10,42z"/>
	<path d="M10,46h4c0.552,0,1-0.447,1-1s-0.448-1-1-1h-4c-0.552,0-1,0.447-1,1S9.448,46,10,46z"/>
	<path d="M10,50h4c0.552,0,1-0.447,1-1s-0.448-1-1-1h-4c-0.552,0-1,0.447-1,1S9.448,50,10,50z"/>
	<path d="M10,54h4c0.552,0,1-0.447,1-1s-0.448-1-1-1h-4c-0.552,0-1,0.447-1,1S9.448,54,10,54z"/>
	<path d="M22,34h4c0.552,0,1-0.447,1-1s-0.448-1-1-1h-4c-0.552,0-1,0.447-1,1S21.448,34,22,34z"/>
	<path d="M22,38h4c0.552,0,1-0.447,1-1s-0.448-1-1-1h-4c-0.552,0-1,0.447-1,1S21.448,38,22,38z"/>
	<path d="M22,42h4c0.552,0,1-0.447,1-1s-0.448-1-1-1h-4c-0.552,0-1,0.447-1,1S21.448,42,22,42z"/>
	<path d="M22,46h4c0.552,0,1-0.447,1-1s-0.448-1-1-1h-4c-0.552,0-1,0.447-1,1S21.448,46,22,46z"/>
	<path d="M22,50h4c0.552,0,1-0.447,1-1s-0.448-1-1-1h-4c-0.552,0-1,0.447-1,1S21.448,50,22,50z"/>
	<path d="M22,54h4c0.552,0,1-0.447,1-1s-0.448-1-1-1h-4c-0.552,0-1,0.447-1,1S21.448,54,22,54z"/>
	<path d="M34,34h4c0.552,0,1-0.447,1-1s-0.448-1-1-1h-4c-0.552,0-1,0.447-1,1S33.448,34,34,34z"/>
	<path d="M34,38h4c0.552,0,1-0.447,1-1s-0.448-1-1-1h-4c-0.552,0-1,0.447-1,1S33.448,38,34,38z"/>
	<path d="M34,42h4c0.552,0,1-0.447,1-1s-0.448-1-1-1h-4c-0.552,0-1,0.447-1,1S33.448,42,34,42z"/>
	<path d="M34,46h4c0.552,0,1-0.447,1-1s-0.448-1-1-1h-4c-0.552,0-1,0.447-1,1S33.448,46,34,46z"/>
	<path d="M34,50h4c0.552,0,1-0.447,1-1s-0.448-1-1-1h-4c-0.552,0-1,0.447-1,1S33.448,50,34,50z"/>
	<path d="M34,54h4c0.552,0,1-0.447,1-1s-0.448-1-1-1h-4c-0.552,0-1,0.447-1,1S33.448,54,34,54z"/>
	<path d="M46,34h4c0.552,0,1-0.447,1-1s-0.448-1-1-1h-4c-0.552,0-1,0.447-1,1S45.448,34,46,34z"/>
	<path d="M46,38h4c0.552,0,1-0.447,1-1s-0.448-1-1-1h-4c-0.552,0-1,0.447-1,1S45.448,38,46,38z"/>
	<path d="M46,42h4c0.552,0,1-0.447,1-1s-0.448-1-1-1h-4c-0.552,0-1,0.447-1,1S45.448,42,46,42z"/>
	<path d="M46,46h4c0.552,0,1-0.447,1-1s-0.448-1-1-1h-4c-0.552,0-1,0.447-1,1S45.448,46,46,46z"/>
	<path d="M46,50h4c0.552,0,1-0.447,1-1s-0.448-1-1-1h-4c-0.552,0-1,0.447-1,1S45.448,50,46,50z"/>
	<path d="M46,54h4c0.552,0,1-0.447,1-1s-0.448-1-1-1h-4c-0.552,0-1,0.447-1,1S45.448,54,46,54z"/>
</g>
<g>
</g>
<g>
</g>
<g>
</g>
<g>
</g>
<g>
</g>
<g>
</g>
<g>
</g>
<g>
</g>
<g>
</g>
<g>
</g>
<g>
</g>
<g>
</g>
<g>
</g>
<g>
</g>
<g>
</g>
</svg>
