<?xml version="1.0" encoding="iso-8859-1"?>
<!-- Generator: Adobe Illustrator 18.0.0, SVG Export Plug-In . SVG Version: 6.00 Build 0)  -->
<!DOCTYPE svg PUBLIC "-//W3C//DTD SVG 1.1//EN" "http://www.w3.org/Graphics/SVG/1.1/DTD/svg11.dtd">
<svg version="1.1" id="Capa_1" xmlns="http://www.w3.org/2000/svg" xmlns:xlink="http://www.w3.org/1999/xlink" x="0px" y="0px"
	 viewBox="0 0 60 60" style="enable-background:new 0 0 60 60;" xml:space="preserve">
<g>
	<path d="M57,25.044H37.064L56.032,6.077c1.169-1.17,1.169-3.073,0-4.243c-1.17-1.17-3.072-1.17-4.242,0L31.405,22.217
		c-0.452-0.109-0.921-0.173-1.405-0.173s-0.954,0.064-1.405,0.173L8.211,1.833c-1.17-1.171-3.073-1.17-4.243,0
		C3.403,2.399,3.092,3.152,3.092,3.955c0,0.804,0.312,1.557,0.876,2.121l18.968,18.969H3c-1.654,0-3,1.346-3,3s1.346,3,3,3h0.295
		l9.01,25.229c0.593,1.657,2.173,2.771,3.933,2.771h27.523c1.76,0,3.34-1.113,3.933-2.771l9.01-25.229H57c1.654,0,3-1.346,3-3
		S58.654,25.044,57,25.044z M53.204,3.247c0.39-0.39,1.025-0.389,1.414,0c0.39,0.39,0.39,1.025,0,1.415L34.809,24.471
		c-0.401-0.538-0.885-1.011-1.441-1.389L53.204,3.247z M31.305,24.281c0.001,0,0.002,0,0.003,0.001
		c1.041,0.363,1.888,1.133,2.336,2.131l0.065,0.158c0.007,0.017,0.011,0.032,0.017,0.048c0.061,0.16,0.113,0.324,0.153,0.493
		c0.014,0.057,0.03,0.11,0.043,0.172C33.975,27.552,34,27.8,34,28.044c0,0.25-0.03,0.492-0.074,0.729
		c-0.006,0.035-0.008,0.061-0.015,0.097c-0.042,0.195-0.105,0.4-0.199,0.636l-0.087,0.204c-0.08,0.173-0.168,0.341-0.271,0.499
		c-0.048,0.074-0.102,0.141-0.154,0.211c-0.089,0.119-0.181,0.234-0.282,0.342c-0.059,0.063-0.118,0.125-0.18,0.184
		c-0.124,0.117-0.257,0.225-0.395,0.326c-0.047,0.034-0.09,0.073-0.138,0.105c-0.185,0.123-0.382,0.228-0.587,0.319
		c-0.065,0.029-0.133,0.051-0.2,0.077c-0.158,0.06-0.32,0.111-0.486,0.151c-0.071,0.017-0.143,0.035-0.215,0.048
		c-0.233,0.042-0.471,0.073-0.716,0.073s-0.483-0.03-0.716-0.073c-0.073-0.013-0.144-0.031-0.215-0.048
		c-0.166-0.04-0.328-0.091-0.486-0.151c-0.067-0.026-0.135-0.048-0.2-0.077c-0.205-0.091-0.402-0.196-0.587-0.319
		c-0.048-0.032-0.091-0.071-0.138-0.105c-0.138-0.101-0.271-0.209-0.395-0.326c-0.062-0.059-0.122-0.121-0.181-0.184
		c-0.101-0.108-0.193-0.223-0.282-0.341c-0.052-0.07-0.107-0.137-0.155-0.211c-0.117-0.18-0.221-0.369-0.308-0.567
		C26.114,29.129,26,28.592,26,28.044s0.114-1.085,0.338-1.598c0.444-1.014,1.301-1.797,2.354-2.164c0.001,0,0.002,0,0.003-0.001
		c0.411-0.143,0.845-0.237,1.305-0.237S30.893,24.138,31.305,24.281z M5.092,3.955c0-0.269,0.104-0.52,0.291-0.707
		c0.39-0.388,1.025-0.39,1.415,0l19.835,19.835c-0.555,0.378-1.04,0.851-1.441,1.389L5.382,4.662
		C5.195,4.474,5.092,4.223,5.092,3.955z M2,28.044c0-0.552,0.449-1,1-1h21.084c-0.005,0.028-0.003,0.057-0.007,0.085
		C24.031,27.429,24,27.733,24,28.044s0.031,0.616,0.077,0.915c0.004,0.028,0.002,0.057,0.007,0.085H3
		C2.449,29.044,2,28.596,2,28.044z M45.811,55.6c-0.309,0.864-1.132,1.444-2.049,1.444H16.238c-0.917,0-1.741-0.58-2.049-1.443
		l-8.77-24.557h19.39c0.01,0.018,0.024,0.034,0.035,0.052c0.11,0.184,0.228,0.362,0.356,0.533c0.029,0.039,0.058,0.079,0.088,0.117
		c0.295,0.375,0.634,0.714,1.009,1.009c0.047,0.037,0.096,0.072,0.144,0.108c0.151,0.112,0.306,0.216,0.467,0.313
		c0.046,0.028,0.09,0.057,0.137,0.083c0.411,0.234,0.852,0.419,1.316,0.552c0.058,0.017,0.117,0.03,0.176,0.045
		c0.178,0.045,0.359,0.081,0.542,0.11c0.065,0.01,0.129,0.022,0.194,0.03c0.239,0.029,0.481,0.049,0.728,0.049
		s0.489-0.02,0.728-0.049c0.065-0.008,0.129-0.02,0.194-0.03c0.184-0.029,0.364-0.065,0.542-0.11
		c0.059-0.015,0.118-0.029,0.176-0.045c0.464-0.132,0.905-0.318,1.316-0.552c0.046-0.027,0.091-0.055,0.137-0.083
		c0.161-0.097,0.317-0.202,0.467-0.313c0.048-0.036,0.097-0.071,0.144-0.108c0.375-0.295,0.713-0.634,1.009-1.009
		c0.03-0.038,0.058-0.078,0.088-0.117c0.128-0.171,0.247-0.348,0.356-0.533c0.011-0.018,0.024-0.034,0.035-0.052h19.39L45.811,55.6z
		 M57,29.044H35.911c0.001-0.008,0.001-0.015,0.002-0.023C35.966,28.703,36,28.378,36,28.044c0-0.331-0.034-0.654-0.086-0.97
		c-0.002-0.01-0.001-0.02-0.003-0.03H57c0.551,0,1,0.448,1,1S57.551,29.044,57,29.044z"/>
	<path d="M11,37.044c0,0.553,0.448,1,1,1h36c0.552,0,1-0.447,1-1s-0.448-1-1-1H12C11.448,36.044,11,36.492,11,37.044z"/>
	<path d="M45,41.044H15c-0.552,0-1,0.447-1,1s0.448,1,1,1h30c0.552,0,1-0.447,1-1S45.552,41.044,45,41.044z"/>
	<path d="M42,46.044H18c-0.552,0-1,0.447-1,1s0.448,1,1,1h24c0.552,0,1-0.447,1-1S42.552,46.044,42,46.044z"/>
	<path d="M40,51.044H20c-0.552,0-1,0.447-1,1s0.448,1,1,1h20c0.552,0,1-0.447,1-1S40.552,51.044,40,51.044z"/>
</g>
<g>
</g>
<g>
</g>
<g>
</g>
<g>
</g>
<g>
</g>
<g>
</g>
<g>
</g>
<g>
</g>
<g>
</g>
<g>
</g>
<g>
</g>
<g>
</g>
<g>
</g>
<g>
</g>
<g>
</g>
</svg>
