<?xml version="1.0" encoding="iso-8859-1"?>
<!-- Generator: Adobe Illustrator 19.0.0, SVG Export Plug-In . SVG Version: 6.00 Build 0)  -->
<svg version="1.1" id="Layer_1" xmlns="http://www.w3.org/2000/svg" xmlns:xlink="http://www.w3.org/1999/xlink" x="0px" y="0px"
	 viewBox="0 0 512 512" style="enable-background:new 0 0 512 512;" xml:space="preserve">
<g transform="translate(1 1)">
	<g>
		<g>
			<path d="M340.333,161.152H459.8c5.12,0,8.533-3.413,8.533-8.533v-34.133c0-5.12-3.413-8.533-8.533-8.533H340.333
				c-5.12,0-8.533,3.413-8.533,8.533v34.133C331.8,157.738,335.213,161.152,340.333,161.152z M348.867,127.019h102.4v17.067h-102.4
				V127.019z"/>
			<path d="M216.6,237.952c17.067-11.093,37.547-34.133,29.867-76.8c-9.387-55.467-65.707-69.12-94.72-68.267H7.533
				c-5.12,0-8.533,3.413-8.533,8.533v290.133c0,5.12,3.413,8.533,8.533,8.533H155.16c2.56,0,5.12,0,7.68,0
				c35.84,0,93.867-14.507,100.693-73.387C269.507,273.792,238.787,249.045,216.6,237.952z M246.467,324.138
				c-7.68,63.147-86.187,58.88-90.453,58.88H16.067V109.952h135.68c0.853,0,68.267,0,77.653,53.76
				c9.387,52.907-34.987,65.707-36.693,66.56c-3.413,0.853-5.973,4.267-5.973,8.533s2.56,7.68,6.827,8.533
				C196.12,247.339,254.147,260.992,246.467,324.138z"/>
			<path d="M511,306.219c0-75.093-49.493-128-119.467-128c-68.267,0-119.467,58.88-119.467,110.933c0,73.387,51.2,128,119.467,128
				c77.653,0,108.373-63.147,110.933-75.093c0.853-2.56,0-5.12-1.707-6.827c-1.707-2.56-4.267-3.413-6.827-3.413h-51.2
				c-3.413,0-6.827,2.56-7.68,5.973c-3.413,6.827-11.093,19.627-34.987,19.627c-24.747,0-40.107-15.36-42.667-42.667h145.067
				C507.587,314.752,511,311.339,511,306.219z M348.013,297.685c-5.12,0-8.533,3.413-8.533,8.533
				c0,41.813,23.04,68.267,59.733,68.267c29.867,0,43.52-15.36,48.64-25.6h32.427c-10.24,17.92-36.693,51.2-88.747,51.2
				c-59.733,0-102.4-46.933-102.4-110.933c0-43.52,44.373-93.867,102.4-93.867c66.56,0,98.987,51.2,101.547,102.4H348.013z"/>
			<path d="M67.267,220.885H152.6c23.893,0,42.667-18.773,42.667-42.667c0-23.893-18.773-42.667-42.667-42.667H67.267
				c-5.12,0-8.533,3.413-8.533,8.533v68.267C58.733,217.472,62.147,220.885,67.267,220.885z M75.8,152.618h76.8
				c14.507,0,25.6,11.093,25.6,25.6c0,14.507-11.093,25.6-25.6,25.6H75.8V152.618z"/>
			<path d="M144.067,255.019h-76.8c-5.12,0-8.533,3.413-8.533,8.533v85.333c0,5.12,3.413,8.533,8.533,8.533h76.8
				c28.16,0,51.2-23.04,51.2-51.2C195.267,278.058,172.227,255.019,144.067,255.019z M144.067,340.352H75.8v-68.267h68.267
				c18.773,0,34.133,15.36,34.133,34.133C178.2,324.992,162.84,340.352,144.067,340.352z"/>
			<path d="M395.8,212.352c-34.987,0-55.467,26.453-55.467,51.2v8.533c0,5.12,3.413,8.533,8.533,8.533h93.867
				c5.12,0,8.533-3.413,8.533-8.533v-8.533C451.267,238.805,431.64,212.352,395.8,212.352z M357.4,263.552
				c0-16.213,13.653-34.133,38.4-34.133c24.747,0,38.4,17.92,38.4,34.133H357.4z"/>
		</g>
	</g>
</g>
<g>
</g>
<g>
</g>
<g>
</g>
<g>
</g>
<g>
</g>
<g>
</g>
<g>
</g>
<g>
</g>
<g>
</g>
<g>
</g>
<g>
</g>
<g>
</g>
<g>
</g>
<g>
</g>
<g>
</g>
</svg>
