<?xml version="1.0" encoding="iso-8859-1"?>
<!-- Generator: Adobe Illustrator 19.0.0, SVG Export Plug-In . SVG Version: 6.00 Build 0)  -->
<svg version="1.1" id="Layer_1" xmlns="http://www.w3.org/2000/svg" xmlns:xlink="http://www.w3.org/1999/xlink" x="0px" y="0px"
	 viewBox="0 0 504.446 504.446" style="enable-background:new 0 0 504.446 504.446;" xml:space="preserve">
<g transform="translate(1 1)">
	<g>
		<g>
			<path d="M31.734,167.289h71.344c74.702,0,80.577-46.164,81.416-60.433c0-12.59-5.036-24.341-13.43-32.734
				c-11.751-10.911-28.538-15.948-50.361-15.948H51.879c-4.197,0-7.554,2.518-8.393,6.715L24.18,157.216
				c-0.839,2.518,0,5.036,0.839,6.715C26.698,166.449,29.216,167.289,31.734,167.289z M58.593,74.961h61.272
				c17.626,0,31.056,4.197,38.61,10.911c6.715,6.715,8.393,15.108,8.393,20.984c0,28.538-21.823,43.646-62.951,43.646H42.646
				L58.593,74.961z"/>
			<path d="M238.213,335.157h-68.826c-4.197,0-7.554,2.518-8.393,6.715L141.689,434.2c-0.839,2.518,0,5.036,1.679,6.715
				c1.679,2.518,4.197,3.357,6.715,3.357h71.344c73.862,0,79.738-46.164,80.577-60.433
				C302.003,372.089,296.967,335.157,238.213,335.157z M221.426,427.485h-61.272l15.108-75.541h62.111
				c41.128,0,47.003,20.144,47.003,31.895C284.377,412.377,262.554,427.485,221.426,427.485z"/>
			<path d="M159.315,241.151c0-11.751-5.036-48.682-63.79-48.682H26.698c-4.197,0-7.554,2.518-8.393,6.715L-1,291.511
				c0,2.518,0,5.036,1.679,6.715c1.679,2.518,4.197,3.357,6.715,3.357h71.344C152.6,301.584,158.475,255.42,159.315,241.151z
				 M78.738,284.797H17.466l15.948-75.541h61.272c41.128,0,47.003,20.144,47.003,31.895
				C141.689,269.689,119.866,284.797,78.738,284.797z"/>
			<path d="M414.475,284.797h-68.826c-4.197,0-7.554,2.518-8.393,6.715l-19.305,83.934c0,2.518,0,5.036,1.679,6.715
				c1.679,2.518,4.197,3.357,6.715,3.357h71.344c69.666,0,79.738-35.253,80.577-56.236
				C478.266,312.495,469.872,284.797,414.475,284.797z M397.689,368.731h-60.433l14.269-67.148h62.111
				c31.056,0,47.003,9.233,47.003,27.698C460.639,355.302,439.656,368.731,397.689,368.731z"/>
			<path d="M439.656,142.108h-68.826c-4.197,0-7.554,2.518-8.393,6.715l-19.305,83.934c0,2.518,0,5.036,1.679,6.715
				c1.679,2.518,4.197,3.357,6.715,3.357h71.344c69.666,0,79.738-35.252,80.577-56.236
				C503.446,169.807,495.052,142.108,439.656,142.108z M422.869,226.043h-60.433l14.269-67.148h62.112
				c31.056,0,47.003,9.233,47.003,27.698C485.82,212.613,464.836,226.043,422.869,226.043z"/>
			<path d="M264.233,192.469h-68.826c-4.197,0-7.554,2.518-8.393,6.715l-19.305,92.328c-0.839,2.518,0,4.197,1.679,6.715
				c1.679,2.518,4.197,3.357,6.715,3.357h71.344c74.702,0,80.577-46.164,80.577-60.433
				C328.023,229.4,322.987,192.469,264.233,192.469z M248.285,284.797h-61.272l15.948-75.541h61.272
				c41.128,0,47.003,20.144,47.003,31.895C311.236,269.689,289.413,284.797,248.285,284.797z"/>
			<path d="M201.282,167.289h71.344c73.862,0,79.738-46.164,80.577-60.433c0-11.751-5.036-48.682-63.79-48.682h-68.826
				c-4.197,0-7.554,2.518-8.393,6.715l-19.305,92.328c-0.839,2.518,0,5.036,1.679,6.715
				C196.246,166.449,198.764,167.289,201.282,167.289z M227.302,74.961h61.272c41.128,0,47.003,20.144,47.003,31.895
				c0,28.538-21.823,43.646-62.951,43.646h-61.272L227.302,74.961z"/>
		</g>
	</g>
</g>
<g>
</g>
<g>
</g>
<g>
</g>
<g>
</g>
<g>
</g>
<g>
</g>
<g>
</g>
<g>
</g>
<g>
</g>
<g>
</g>
<g>
</g>
<g>
</g>
<g>
</g>
<g>
</g>
<g>
</g>
</svg>
