<?xml version="1.0" encoding="iso-8859-1"?>
<!-- Generator: Adobe Illustrator 19.0.0, SVG Export Plug-In . SVG Version: 6.00 Build 0)  -->
<svg version="1.1" id="Layer_1" xmlns="http://www.w3.org/2000/svg" xmlns:xlink="http://www.w3.org/1999/xlink" x="0px" y="0px"
	 viewBox="0 0 512 512" style="enable-background:new 0 0 512 512;" xml:space="preserve">
<g transform="translate(1 1)">
	<g>
		<g>
			<path d="M471.747-1H38.253C16.92-1-1,16.92-1,38.253v433.493C-1,493.08,16.92,511,38.253,511h433.493
				C493.08,511,511,493.08,511,471.747V38.253C511,16.92,493.08-1,471.747-1z M493.933,471.747c0,11.947-10.24,22.187-22.187,22.187
				H38.253c-11.947,0-22.187-10.24-22.187-22.187V38.253c0-11.947,10.24-22.187,22.187-22.187h433.493
				c11.947,0,22.187,10.24,22.187,22.187V471.747z"/>
			<path d="M357.4,212.333V178.2c0-51.2-52.053-85.333-86.187-85.333H193.56c-58.88,0-100.693,42.667-100.693,100.693v122.88
				c0,58.027,41.813,100.693,100.693,100.693h122.88c58.027,0,100.693-42.667,100.693-100.693v-30.72
				C417.133,243.907,406.893,214.893,357.4,212.333z M400.92,316.44c-0.853,49.493-34.987,83.627-83.627,83.627H193.56
				c-49.493,0-83.627-34.133-83.627-83.627V193.56c0-49.493,34.133-83.627,83.627-83.627h77.653
				c28.16,0,69.973,29.013,69.973,68.267v51.2h8.533c40.107,0,51.2,12.8,51.2,56.32V316.44z"/>
			<path d="M199.533,229.4H267.8c16.213,0,29.867-13.653,29.867-29.867c0-16.213-13.653-29.867-29.867-29.867h-68.267
				c-16.213,0-29.867,13.653-29.867,29.867C169.667,215.747,183.32,229.4,199.533,229.4z M199.533,186.733H267.8
				c6.827,0,12.8,5.973,12.8,12.8s-5.973,12.8-12.8,12.8h-68.267c-6.827,0-12.8-5.973-12.8-12.8S192.707,186.733,199.533,186.733z"
				/>
			<path d="M310.467,280.6H199.533c-16.213,0-29.867,13.653-29.867,29.867c0,16.213,13.653,29.867,29.867,29.867h110.933
				c16.213,0,29.867-13.653,29.867-29.867C340.333,294.253,326.68,280.6,310.467,280.6z M310.467,323.267H199.533
				c-6.827,0-12.8-5.973-12.8-12.8s5.973-12.8,12.8-12.8h110.933c6.827,0,12.8,5.973,12.8,12.8S317.293,323.267,310.467,323.267z"/>
		</g>
	</g>
</g>
<g>
</g>
<g>
</g>
<g>
</g>
<g>
</g>
<g>
</g>
<g>
</g>
<g>
</g>
<g>
</g>
<g>
</g>
<g>
</g>
<g>
</g>
<g>
</g>
<g>
</g>
<g>
</g>
<g>
</g>
</svg>
