<?xml version="1.0" encoding="iso-8859-1"?>
<!-- Generator: Adobe Illustrator 18.0.0, SVG Export Plug-In . SVG Version: 6.00 Build 0)  -->
<!DOCTYPE svg PUBLIC "-//W3C//DTD SVG 1.1//EN" "http://www.w3.org/Graphics/SVG/1.1/DTD/svg11.dtd">
<svg version="1.1" id="Capa_1" xmlns="http://www.w3.org/2000/svg" xmlns:xlink="http://www.w3.org/1999/xlink" x="0px" y="0px"
	 viewBox="0 0 60 60" style="enable-background:new 0 0 60 60;" xml:space="preserve">
<g>
	<path d="M50.486,1.492l-2.229,0.318L48.62,0H37H23H12.719l-0.414,1.655c-0.454-0.178-1.003-0.394-1.548-0.608L9.983,0.74
		L1.207,14.782l1.053,3.16c-0.255-0.134-0.523-0.274-0.798-0.417L0,16.765v15.101c0,0.881,0.306,1.742,0.862,2.426
		c1.237,1.521,2.358,2.894,3.161,3.874l0.273,0.334l0.43,0.03c0.937,0.067,1.889,0.132,2.781,0.19l-2.871,1.148l-4.42,12.631
		C0.073,52.907,0,53.334,0,53.769v2.39C0,58.276,1.723,60,3.841,60h21.262c0.301,0,0.602-0.035,0.894-0.105
		c6.477-1.545,12.443-2.997,14.966-3.611l0.563-0.138l0.161-0.557c0.096-0.332,0.195-0.674,0.295-1.013l0.496,1.735l7.445,3.351
		C50.42,59.886,50.951,60,51.499,60h4.66C58.277,60,60,58.276,60,56.158v-7.334c0-0.515-0.101-1.017-0.32-1.534L54.58,36.571
		c-0.013-0.061-0.027-0.12-0.043-0.18l-0.123-0.438l-2.902-1.386l2.874-0.358l0.233-0.505c0.074-0.16,0.151-0.289,0.238-0.394
		l4.276-5.227C59.691,27.401,60,26.537,60,25.652v-8.939L50.486,1.492z M46.18,2l-0.438,2.189l3.738-0.533L57.196,16H37V2H46.18z
		 M30,2h5v14h-5h-5V2H30z M25,18h1c0,0.552,0.448,1,1,1s1-0.448,1-1h4c0,0.552,0.448,1,1,1s1-0.448,1-1h1v15.586l-1-1l-4,4l-4-4
		l-1,1V18z M10.797,3.212c0.997,0.393,1.84,0.72,1.84,0.72l1.058,0.412L14.281,2H23v14H3.721l-0.319-0.956L10.797,3.212z
		 M57.584,26.818l-4.274,5.225c-0.082,0.099-0.158,0.203-0.229,0.314l-8.592,1.074l8.248,3.938c0.008,0.02,0.016,0.04,0.025,0.061
		l5.094,10.678C57.951,48.336,58,48.577,58,48.824v7.334C58,57.174,57.174,58,56.159,58h-4.66c-0.263,0-0.517-0.055-0.755-0.162
		l-6.598-2.97l-2.121-7.421l-0.982,3.265c0,0-0.58,1.925-1.115,3.765c-2.774,0.676-8.362,2.033-14.396,3.473
		C25.392,57.983,25.247,58,25.103,58H3.841c-0.132,0-0.261-0.015-0.385-0.042l2.251-2.251c0.391-0.391,0.391-1.023,0-1.414
		s-1.023-0.391-1.414,0l-2.251,2.251C2.015,56.419,2,56.291,2,56.158v-2.39c0-0.208,0.035-0.412,0.104-0.608l4.12-11.772
		l10.306-4.123l-4.471-0.263c0,0-3.409-0.201-6.76-0.437c-0.774-0.947-1.784-2.183-2.884-3.536C2.147,32.701,2,32.287,2,31.865
		V20.066c0.903,0.478,1.523,0.813,1.525,0.813l2.223,1.201L4.387,18H23v20.414l3-3l4,4l4-4l3,3V18h21v7.652
		C58,26.076,57.853,26.49,57.584,26.818z"/>
	<circle cx="30" cy="3" r="1"/>
	<circle cx="27" cy="6" r="1"/>
	<circle cx="27" cy="12" r="1"/>
	<circle cx="30" cy="9" r="1"/>
	<circle cx="33" cy="6" r="1"/>
	<circle cx="33" cy="12" r="1"/>
	<circle cx="30" cy="15" r="1"/>
	<circle cx="27" cy="24" r="1"/>
	<circle cx="30" cy="21" r="1"/>
	<circle cx="33" cy="24" r="1"/>
	<circle cx="30" cy="27" r="1"/>
	<circle cx="27" cy="30" r="1"/>
	<circle cx="30" cy="33" r="1"/>
	<circle cx="33" cy="30" r="1"/>
</g>
<g>
</g>
<g>
</g>
<g>
</g>
<g>
</g>
<g>
</g>
<g>
</g>
<g>
</g>
<g>
</g>
<g>
</g>
<g>
</g>
<g>
</g>
<g>
</g>
<g>
</g>
<g>
</g>
<g>
</g>
</svg>
