<?xml version="1.0" encoding="iso-8859-1"?>
<!-- Generator: Adobe Illustrator 18.0.0, SVG Export Plug-In . SVG Version: 6.00 Build 0)  -->
<!DOCTYPE svg PUBLIC "-//W3C//DTD SVG 1.1//EN" "http://www.w3.org/Graphics/SVG/1.1/DTD/svg11.dtd">
<svg version="1.1" id="Capa_1" xmlns="http://www.w3.org/2000/svg" xmlns:xlink="http://www.w3.org/1999/xlink" x="0px" y="0px"
	 viewBox="0 0 60 60" style="enable-background:new 0 0 60 60;" xml:space="preserve">
<g>
	<path d="M49.554,0H37H23H10.446L0,16.713V60h23h14h23V16.713L49.554,0z M48.446,2l8.75,14H37V2H48.446z M30,2h5v14h-5h-5V2H30z
		 M33.93,23.656C33.789,23.274,33.43,23,33,23c-0.552,0-1,0.448-1,1c0,0.43,0.274,0.789,0.656,0.93l-1.725,1.725
		C30.789,26.274,30.43,26,30,26s-0.789,0.274-0.93,0.656l-1.725-1.725C27.726,24.789,28,24.43,28,24c0-0.552-0.448-1-1-1
		c-0.43,0-0.789,0.274-0.93,0.656L26,23.586l-1,1V18h1c0,0.552,0.448,1,1,1s1-0.448,1-1h4c0,0.552,0.448,1,1,1s1-0.448,1-1h1v6.586
		l-1-1L33.93,23.656z M11.554,2H23v14H2.804L11.554,2z M25,58v-3.586l1,1l4-4l4,4l1-1V58H25z M37,58v-8.414l-3,3l-4-4l-4,4l-3-3V58
		H2V18h21v11.414l3-3l4,4l4-4l3,3V18h21v40H37z"/>
	<circle cx="30" cy="3" r="1"/>
	<circle cx="27" cy="6" r="1"/>
	<circle cx="27" cy="12" r="1"/>
	<circle cx="30" cy="9" r="1"/>
	<circle cx="33" cy="6" r="1"/>
	<circle cx="33" cy="12" r="1"/>
	<circle cx="30" cy="15" r="1"/>
	<circle cx="30" cy="21" r="1"/>
</g>
<g>
</g>
<g>
</g>
<g>
</g>
<g>
</g>
<g>
</g>
<g>
</g>
<g>
</g>
<g>
</g>
<g>
</g>
<g>
</g>
<g>
</g>
<g>
</g>
<g>
</g>
<g>
</g>
<g>
</g>
</svg>
