<?xml version="1.0" encoding="iso-8859-1"?>
<!-- Generator: Adobe Illustrator 18.0.0, SVG Export Plug-In . SVG Version: 6.00 Build 0)  -->
<!DOCTYPE svg PUBLIC "-//W3C//DTD SVG 1.1//EN" "http://www.w3.org/Graphics/SVG/1.1/DTD/svg11.dtd">
<svg version="1.1" id="Capa_1" xmlns="http://www.w3.org/2000/svg" xmlns:xlink="http://www.w3.org/1999/xlink" x="0px" y="0px"
	 viewBox="0 0 60 60" style="enable-background:new 0 0 60 60;" xml:space="preserve">
<g>
	<path d="M49.554,0H37H23H10.446L0,16.713V60h23h14h23V16.713L49.554,0z M48.446,2l8.75,14H37V2H48.446z M30,2h5v14h-5h-5V2H30z
		 M25,18h1c0,0.552,0.448,1,1,1s1-0.448,1-1h4c0,0.552,0.448,1,1,1s1-0.448,1-1h1v3.586l-1-1l-4,4l-4-4l-1,1V18z M11.554,2H23v14
		H2.804L11.554,2z M25,58v-2.586l1,1l4-4l4,4l1-1V58H25z M37,58v-7.414l-3,3l-4-4l-4,4l-3-3V58H2V18h21v8.414l3-3l4,4l4-4l3,3V18h21
		v40H37z"/>
	<path d="M20,48h20V30H20V48z M22,32h16v14H22V32z"/>
	<path d="M31,42h-6c-0.552,0-1,0.447-1,1s0.448,1,1,1h6c0.552,0,1-0.447,1-1S31.552,42,31,42z"/>
	<path d="M35,42h-1c-0.552,0-1,0.447-1,1s0.448,1,1,1h1c0.552,0,1-0.447,1-1S35.552,42,35,42z"/>
	<path d="M35,34h-6c-0.552,0-1,0.447-1,1s0.448,1,1,1h6c0.552,0,1-0.447,1-1S35.552,34,35,34z"/>
	<path d="M35,38h-2c-0.552,0-1,0.447-1,1s0.448,1,1,1h2c0.552,0,1-0.447,1-1S35.552,38,35,38z"/>
	<path d="M25,40h2c0.552,0,1-0.447,1-1s-0.448-1-1-1h-2c-0.552,0-1,0.447-1,1S24.448,40,25,40z"/>
	<path d="M25,36h1c0.552,0,1-0.447,1-1s-0.448-1-1-1h-1c-0.552,0-1,0.447-1,1S24.448,36,25,36z"/>
	<path d="M30.71,39.71C30.89,39.52,31,39.26,31,39s-0.11-0.521-0.29-0.71c-0.38-0.37-1.05-0.37-1.42,0C29.11,38.479,29,38.729,29,39
		c0,0.27,0.11,0.52,0.29,0.71C29.48,39.89,29.74,40,30,40C30.26,40,30.52,39.89,30.71,39.71z"/>
	<circle cx="30" cy="3" r="1"/>
	<circle cx="27" cy="6" r="1"/>
	<circle cx="27" cy="12" r="1"/>
	<circle cx="30" cy="9" r="1"/>
	<circle cx="33" cy="6" r="1"/>
	<circle cx="33" cy="12" r="1"/>
	<circle cx="30" cy="15" r="1"/>
	<circle cx="30" cy="21" r="1"/>
</g>
<g>
</g>
<g>
</g>
<g>
</g>
<g>
</g>
<g>
</g>
<g>
</g>
<g>
</g>
<g>
</g>
<g>
</g>
<g>
</g>
<g>
</g>
<g>
</g>
<g>
</g>
<g>
</g>
<g>
</g>
</svg>
