<?xml version="1.0" encoding="iso-8859-1"?>
<!-- Generator: Adobe Illustrator 18.0.0, SVG Export Plug-In . SVG Version: 6.00 Build 0)  -->
<!DOCTYPE svg PUBLIC "-//W3C//DTD SVG 1.1//EN" "http://www.w3.org/Graphics/SVG/1.1/DTD/svg11.dtd">
<svg version="1.1" id="Capa_1" xmlns="http://www.w3.org/2000/svg" xmlns:xlink="http://www.w3.org/1999/xlink" x="0px" y="0px"
	 viewBox="0 0 60 60" style="enable-background:new 0 0 60 60;" xml:space="preserve">
<g>
	<path d="M60,19.132C60,14.647,56.353,11,51.868,11H44V8h-2V6.889C42,3.09,38.91,0,35.111,0H24.889C21.09,0,18,3.09,18,6.889V8h-2v3
		H8.132C3.648,11,0,14.647,0,19.132v10.226l0.673,0.232l0.001,0L1,29.702v27.068C1,58.551,2.449,60,4.229,60h51.541
		C57.551,60,59,58.551,59,56.771V29.702l0.326-0.113l0.001,0L60,29.357V19.132z M51.868,13C55.249,13,58,15.751,58,19.132v8.8
		l-0.835,0.288L57,28.276l0,0l-4.308,1.485c-4.265,1.47-8.957,2.442-14.692,3.04V25h-3V13h9H51.868z M27,39h6v1.586L30.586,43
		h-1.172L27,40.586V39z M25,37h-1v-1.999V27h1h10h1v8.004V37h-1H25z M36,8h-2v3h-8V8h-2V6.444c0-0.271,0.175-0.417,0.25-0.468
		c0.075-0.051,0.276-0.154,0.528-0.053c3.368,1.393,7.078,1.394,10.445,0c0.251-0.102,0.453,0.002,0.528,0.053
		C35.825,6.027,36,6.173,36,6.444V8z M27,13h6v12h-6V13z M42,11h-6v-1h6V11z M20,6.889C20,4.193,22.193,2,24.889,2h10.223
		C37.807,2,40,4.193,40,6.889V8h-2V6.444c0-0.857-0.425-1.653-1.138-2.13c-0.713-0.478-1.61-0.567-2.403-0.238
		c-2.876,1.188-6.043,1.188-8.918,0c-0.792-0.329-1.69-0.239-2.403,0.238C22.425,4.791,22,5.587,22,6.444V8h-2V6.889z M18,10h6v1h-6
		V10z M8.132,13H16h9v12h-3v7.828c-5.525-0.508-9.975-1.439-14.693-3.066L3,28.276l0,0l-0.525-0.181L2,27.932v-8.8
		C2,15.751,4.751,13,8.132,13z M57,56.771C57,57.448,56.448,58,55.771,58H4.229C3.552,58,3,57.448,3,56.771V30.392l3.655,1.26
		C11.582,33.351,16.229,34.31,22,34.83V39h3v2.414L28.586,45h2.828L35,41.414V39h3v-4.194c5.979-0.612,10.884-1.616,15.345-3.154
		L57,30.392V56.771z"/>
	<path d="M42,55h12v-6H42V55z M44,51h8v2h-8V51z"/>
	<path d="M27,34h2v1c0,0.553,0.448,1,1,1s1-0.447,1-1v-1h2v-6h-6V34z M29,30h2v2h-2V30z"/>
</g>
<g>
</g>
<g>
</g>
<g>
</g>
<g>
</g>
<g>
</g>
<g>
</g>
<g>
</g>
<g>
</g>
<g>
</g>
<g>
</g>
<g>
</g>
<g>
</g>
<g>
</g>
<g>
</g>
<g>
</g>
</svg>
