<?xml version="1.0" encoding="iso-8859-1"?>
<!-- Generator: Adobe Illustrator 18.0.0, SVG Export Plug-In . SVG Version: 6.00 Build 0)  -->
<!DOCTYPE svg PUBLIC "-//W3C//DTD SVG 1.1//EN" "http://www.w3.org/Graphics/SVG/1.1/DTD/svg11.dtd">
<svg version="1.1" id="Capa_1" xmlns="http://www.w3.org/2000/svg" xmlns:xlink="http://www.w3.org/1999/xlink" x="0px" y="0px"
	 viewBox="0 0 58 58" style="enable-background:new 0 0 58 58;" xml:space="preserve">
<g>
	<path d="M5.5,0v20v18v2v18h15h2h13h2h15V20V0H5.5z M7.5,22h13v16h-13V22z M35.5,38h-13V22h13V38z M7.5,56V40h13v16H7.5z M22.5,56
		V40h13v16H22.5z M50.5,56h-13V40v-2V22h13V56z M37.5,20h-2h-13h-2h-13V2h43v18H37.5z"/>
	<path d="M10.5,5v12h37V5H10.5z M45.5,15h-33V7h33V15z"/>
</g>
<g>
</g>
<g>
</g>
<g>
</g>
<g>
</g>
<g>
</g>
<g>
</g>
<g>
</g>
<g>
</g>
<g>
</g>
<g>
</g>
<g>
</g>
<g>
</g>
<g>
</g>
<g>
</g>
<g>
</g>
</svg>
