<?xml version="1.0" encoding="iso-8859-1"?>
<!-- Generator: Adobe Illustrator 18.0.0, SVG Export Plug-In . SVG Version: 6.00 Build 0)  -->
<!DOCTYPE svg PUBLIC "-//W3C//DTD SVG 1.1//EN" "http://www.w3.org/Graphics/SVG/1.1/DTD/svg11.dtd">
<svg version="1.1" id="Capa_1" xmlns="http://www.w3.org/2000/svg" xmlns:xlink="http://www.w3.org/1999/xlink" x="0px" y="0px"
	 viewBox="0 0 59 59" style="enable-background:new 0 0 59 59;" xml:space="preserve">
<g>
	<path d="M59,39V13H11V5c0-0.553-0.448-1-1-1H7.858C7.411,2.28,5.858,1,4,1C1.794,1,0,2.794,0,5s1.794,4,4,4
		c1.858,0,3.411-1.28,3.858-3H9v7v1v24v1v9c0,0.553,0.448,1,1,1h7.031C15.806,49.912,15,51.359,15,53c0,2.757,2.243,5,5,5
		s5-2.243,5-5c0-1.641-0.806-3.088-2.031-4h18.062C39.806,49.912,39,51.359,39,53c0,2.757,2.243,5,5,5s5-2.243,5-5
		c0-1.641-0.806-3.088-2.031-4H53c0.553,0,1-0.447,1-1s-0.447-1-1-1H11v-8H59z M4,7C2.897,7,2,6.103,2,5s0.897-2,2-2
		c0.737,0,1.375,0.405,1.722,1H5C4.448,4,4,4.447,4,5s0.448,1,1,1h0.722C5.375,6.595,4.737,7,4,7z M20,56c-1.654,0-3-1.346-3-3
		s1.346-3,3-3s3,1.346,3,3S21.654,56,20,56z M44,56c-1.654,0-3-1.346-3-3s1.346-3,3-3s3,1.346,3,3S45.654,56,44,56z M57,37H11V15h46
		V37z"/>
	<circle cx="31" cy="20" r="1"/>
	<circle cx="34" cy="17" r="1"/>
	<circle cx="34" cy="23" r="1"/>
	<circle cx="37" cy="20" r="1"/>
	<circle cx="25" cy="20" r="1"/>
	<circle cx="28" cy="17" r="1"/>
	<circle cx="28" cy="23" r="1"/>
	<circle cx="13" cy="20" r="1"/>
	<circle cx="19" cy="20" r="1"/>
	<circle cx="16" cy="17" r="1"/>
	<circle cx="22" cy="17" r="1"/>
	<circle cx="16" cy="23" r="1"/>
	<circle cx="22" cy="23" r="1"/>
	<circle cx="55" cy="20" r="1"/>
	<circle cx="40" cy="17" r="1"/>
	<circle cx="40" cy="23" r="1"/>
	<circle cx="43" cy="20" r="1"/>
	<circle cx="49" cy="20" r="1"/>
	<circle cx="31" cy="26" r="1"/>
	<circle cx="37" cy="26" r="1"/>
	<circle cx="25" cy="26" r="1"/>
	<circle cx="13" cy="26" r="1"/>
	<circle cx="19" cy="26" r="1"/>
	<circle cx="55" cy="26" r="1"/>
	<circle cx="43" cy="26" r="1"/>
	<circle cx="49" cy="26" r="1"/>
	<circle cx="46" cy="17" r="1"/>
	<circle cx="52" cy="17" r="1"/>
	<circle cx="46" cy="23" r="1"/>
	<circle cx="52" cy="23" r="1"/>
	<circle cx="31" cy="32" r="1"/>
	<circle cx="34" cy="29" r="1"/>
	<circle cx="34" cy="35" r="1"/>
	<circle cx="37" cy="32" r="1"/>
	<circle cx="25" cy="32" r="1"/>
	<circle cx="28" cy="29" r="1"/>
	<circle cx="28" cy="35" r="1"/>
	<circle cx="13" cy="32" r="1"/>
	<circle cx="19" cy="32" r="1"/>
	<circle cx="16" cy="29" r="1"/>
	<circle cx="22" cy="29" r="1"/>
	<circle cx="16" cy="35" r="1"/>
	<circle cx="22" cy="35" r="1"/>
	<circle cx="55" cy="32" r="1"/>
	<circle cx="40" cy="29" r="1"/>
	<circle cx="40" cy="35" r="1"/>
	<circle cx="43" cy="32" r="1"/>
	<circle cx="49" cy="32" r="1"/>
	<circle cx="46" cy="29" r="1"/>
	<circle cx="52" cy="29" r="1"/>
	<circle cx="46" cy="35" r="1"/>
	<circle cx="52" cy="35" r="1"/>
</g>
<g>
</g>
<g>
</g>
<g>
</g>
<g>
</g>
<g>
</g>
<g>
</g>
<g>
</g>
<g>
</g>
<g>
</g>
<g>
</g>
<g>
</g>
<g>
</g>
<g>
</g>
<g>
</g>
<g>
</g>
</svg>
