<?xml version="1.0" encoding="iso-8859-1"?>
<!-- Generator: Adobe Illustrator 18.0.0, SVG Export Plug-In . SVG Version: 6.00 Build 0)  -->
<!DOCTYPE svg PUBLIC "-//W3C//DTD SVG 1.1//EN" "http://www.w3.org/Graphics/SVG/1.1/DTD/svg11.dtd">
<svg version="1.1" id="Capa_1" xmlns="http://www.w3.org/2000/svg" xmlns:xlink="http://www.w3.org/1999/xlink" x="0px" y="0px"
	 viewBox="0 0 59 59" style="enable-background:new 0 0 59 59;" xml:space="preserve">
<g>
	<path d="M59,41V15h-9c-0.553,0-1,0.447-1,1s0.447,1,1,1h7v22H11V17h7c0.552,0,1-0.447,1-1s-0.448-1-1-1h-7V7c0-0.553-0.448-1-1-1
		H7.858C7.411,4.28,5.858,3,4,3C1.794,3,0,4.794,0,7s1.794,4,4,4c1.858,0,3.411-1.28,3.858-3H9v7v1v24v1v6c0,0.553,0.448,1,1,1
		h7.031C15.806,48.912,15,50.359,15,52c0,2.757,2.243,5,5,5s5-2.243,5-5c0-1.641-0.806-3.088-2.031-4h18.062
		C39.806,48.912,39,50.359,39,52c0,2.757,2.243,5,5,5s5-2.243,5-5c0-1.641-0.806-3.088-2.031-4H53c0.553,0,1-0.447,1-1s-0.447-1-1-1
		H11v-5H59z M4,9C2.897,9,2,8.103,2,7s0.897-2,2-2c0.737,0,1.375,0.405,1.722,1H5C4.448,6,4,6.447,4,7s0.448,1,1,1h0.722
		C5.375,8.595,4.737,9,4,9z M20,55c-1.654,0-3-1.346-3-3s1.346-3,3-3s3,1.346,3,3S21.654,55,20,55z M44,55c-1.654,0-3-1.346-3-3
		s1.346-3,3-3s3,1.346,3,3S45.654,55,44,55z"/>
	<path d="M34,30c7.72,0,14-6.28,14-14S41.72,2,34,2S20,8.28,20,16S26.28,30,34,30z M34,4c6.617,0,12,5.383,12,12s-5.383,12-12,12
		s-12-5.383-12-12S27.383,4,34,4z"/>
	<path d="M27,16c0.256,0,0.512-0.098,0.707-0.293L33,10.414V24c0,0.553,0.448,1,1,1s1-0.447,1-1V10.414l5.293,5.293
		C40.488,15.902,40.744,16,41,16s0.512-0.098,0.707-0.293c0.391-0.391,0.391-1.023,0-1.414l-6.999-6.999
		c-0.092-0.093-0.203-0.166-0.326-0.217c-0.244-0.101-0.52-0.101-0.764,0c-0.123,0.051-0.233,0.124-0.326,0.217l-6.999,6.999
		c-0.391,0.391-0.391,1.023,0,1.414C26.488,15.902,26.744,16,27,16z"/>
</g>
<g>
</g>
<g>
</g>
<g>
</g>
<g>
</g>
<g>
</g>
<g>
</g>
<g>
</g>
<g>
</g>
<g>
</g>
<g>
</g>
<g>
</g>
<g>
</g>
<g>
</g>
<g>
</g>
<g>
</g>
</svg>
