<?xml version="1.0" encoding="iso-8859-1"?>
<!-- Generator: Adobe Illustrator 18.0.0, SVG Export Plug-In . SVG Version: 6.00 Build 0)  -->
<!DOCTYPE svg PUBLIC "-//W3C//DTD SVG 1.1//EN" "http://www.w3.org/Graphics/SVG/1.1/DTD/svg11.dtd">
<svg version="1.1" id="Capa_1" xmlns="http://www.w3.org/2000/svg" xmlns:xlink="http://www.w3.org/1999/xlink" x="0px" y="0px"
	 viewBox="0 0 60.013 60.013" style="enable-background:new 0 0 60.013 60.013;" xml:space="preserve">
<g>
	<path d="M11.68,13.006l-0.832-5h-2.99c-0.447-1.72-1.999-3-3.858-3c-2.206,0-4,1.794-4,4s1.794,4,4,4c1.859,0,3.411-1.28,3.858-3
		h1.294l0.5,3H9.615l5.17,26.016c-2.465,0.188-4.518,2.086-4.76,4.474c-0.142,1.405,0.32,2.812,1.268,3.858
		c0.949,1.05,2.301,1.652,3.707,1.652h2c0,3.309,2.691,6,6,6s6-2.691,6-6h11c0,3.309,2.691,6,6,6s6-2.691,6-6h4c0.553,0,1-0.447,1-1
		s-0.447-1-1-1h-4.35c-0.826-2.327-3.043-4-5.65-4s-4.824,1.673-5.65,4h-11.7c-0.826-2.327-3.043-4-5.65-4s-4.824,1.673-5.65,4H15
		c-0.842,0-1.652-0.362-2.224-0.993c-0.577-0.639-0.848-1.461-0.761-2.316c0.152-1.509,1.546-2.69,3.173-2.69h0.781
		c0.02,0,0.04,0,0.06,0l38.995-0.013c2.751,0,4.988-2.237,4.988-4.987V12.994L11.68,13.006z M4,11.006c-1.103,0-2-0.897-2-2
		s0.897-2,2-2s2,0.897,2,2S5.103,11.006,4,11.006z M46,45.006c2.206,0,4,1.794,4,4s-1.794,4-4,4s-4-1.794-4-4
		S43.794,45.006,46,45.006z M23,45.006c2.206,0,4,1.794,4,4s-1.794,4-4,4s-4-1.794-4-4S20.794,45.006,23,45.006z M58.013,36.006
		c0,1.647-1.341,2.987-2.988,2.987L16.82,39.005l-4.77-23.999l45.962-0.013V36.006z"/>
	<path d="M20.013,22.006h2v2c0,0.553,0.447,1,1,1s1-0.447,1-1v-2h2c0.553,0,1-0.447,1-1s-0.447-1-1-1h-2v-2c0-0.553-0.447-1-1-1
		s-1,0.447-1,1v2h-2c-0.553,0-1,0.447-1,1S19.46,22.006,20.013,22.006z"/>
	<path d="M20.013,34.006h2v2c0,0.553,0.447,1,1,1s1-0.447,1-1v-2h2c0.553,0,1-0.447,1-1s-0.447-1-1-1h-2v-2c0-0.553-0.447-1-1-1
		s-1,0.447-1,1v2h-2c-0.553,0-1,0.447-1,1S19.46,34.006,20.013,34.006z"/>
	<path d="M33.013,22.006h2v2c0,0.553,0.447,1,1,1s1-0.447,1-1v-2h2c0.553,0,1-0.447,1-1s-0.447-1-1-1h-2v-2c0-0.553-0.447-1-1-1
		s-1,0.447-1,1v2h-2c-0.553,0-1,0.447-1,1S32.46,22.006,33.013,22.006z"/>
	<path d="M33.013,34.006h2v2c0,0.553,0.447,1,1,1s1-0.447,1-1v-2h2c0.553,0,1-0.447,1-1s-0.447-1-1-1h-2v-2c0-0.553-0.447-1-1-1
		s-1,0.447-1,1v2h-2c-0.553,0-1,0.447-1,1S32.46,34.006,33.013,34.006z"/>
	<path d="M46.013,22.006h2v2c0,0.553,0.447,1,1,1s1-0.447,1-1v-2h2c0.553,0,1-0.447,1-1s-0.447-1-1-1h-2v-2c0-0.553-0.447-1-1-1
		s-1,0.447-1,1v2h-2c-0.553,0-1,0.447-1,1S45.46,22.006,46.013,22.006z"/>
	<path d="M46.013,34.006h2v2c0,0.553,0.447,1,1,1s1-0.447,1-1v-2h2c0.553,0,1-0.447,1-1s-0.447-1-1-1h-2v-2c0-0.553-0.447-1-1-1
		s-1,0.447-1,1v2h-2c-0.553,0-1,0.447-1,1S45.46,34.006,46.013,34.006z"/>
</g>
<g>
</g>
<g>
</g>
<g>
</g>
<g>
</g>
<g>
</g>
<g>
</g>
<g>
</g>
<g>
</g>
<g>
</g>
<g>
</g>
<g>
</g>
<g>
</g>
<g>
</g>
<g>
</g>
<g>
</g>
</svg>
