<?xml version="1.0" encoding="iso-8859-1"?>
<!-- Generator: Adobe Illustrator 18.0.0, SVG Export Plug-In . SVG Version: 6.00 Build 0)  -->
<!DOCTYPE svg PUBLIC "-//W3C//DTD SVG 1.1//EN" "http://www.w3.org/Graphics/SVG/1.1/DTD/svg11.dtd">
<svg version="1.1" id="Capa_1" xmlns="http://www.w3.org/2000/svg" xmlns:xlink="http://www.w3.org/1999/xlink" x="0px" y="0px"
	 viewBox="0 0 60.013 60.013" style="enable-background:new 0 0 60.013 60.013;" xml:space="preserve">
<g>
	<path d="M11.68,13.006l-0.832-5h-2.99c-0.447-1.72-1.999-3-3.858-3c-2.206,0-4,1.794-4,4s1.794,4,4,4c1.859,0,3.411-1.28,3.858-3
		h1.294l0.5,3H9.615l5.17,26.016c-2.465,0.188-4.518,2.086-4.76,4.474c-0.142,1.405,0.32,2.812,1.268,3.858
		c0.949,1.05,2.301,1.652,3.707,1.652h2c0,3.309,2.691,6,6,6s6-2.691,6-6h11c0,3.309,2.691,6,6,6s6-2.691,6-6h4c0.553,0,1-0.447,1-1
		s-0.447-1-1-1h-4.35c-0.826-2.327-3.043-4-5.65-4s-4.824,1.673-5.65,4h-11.7c-0.826-2.327-3.043-4-5.65-4s-4.824,1.673-5.65,4H15
		c-0.842,0-1.652-0.362-2.224-0.993c-0.577-0.639-0.848-1.461-0.761-2.316c0.152-1.509,1.546-2.69,3.173-2.69h0.781
		c0.02,0,0.04,0,0.06,0l38.995-0.013c2.751,0,4.988-2.237,4.988-4.987V12.994L11.68,13.006z M4,11.006c-1.103,0-2-0.897-2-2
		s0.897-2,2-2s2,0.897,2,2S5.103,11.006,4,11.006z M46,45.006c2.206,0,4,1.794,4,4s-1.794,4-4,4s-4-1.794-4-4
		S43.794,45.006,46,45.006z M23,45.006c2.206,0,4,1.794,4,4s-1.794,4-4,4s-4-1.794-4-4S20.794,45.006,23,45.006z M55.024,38.994
		L16.82,39.005l-0.238-1.199c0.254-0.181,0.43-0.464,0.43-0.8c0-0.474-0.337-0.852-0.779-0.955l-0.852-4.286
		c0.173,0.144,0.388,0.242,0.631,0.242c0.552,0,1-0.448,1-1s-0.448-1-1-1c-0.383,0-0.705,0.223-0.873,0.539l-1.54-7.751
		c0.245-0.182,0.414-0.46,0.414-0.789c0-0.467-0.327-0.841-0.76-0.951l-0.85-4.276c0.17,0.134,0.376,0.227,0.609,0.227
		c0.552,0,1-0.448,1-1s-0.448-1-1-1c-0.374,0-0.687,0.214-0.859,0.518l-0.103-0.518l45.962-0.013v3.013c0,0,0,0,0,0
		c-0.552,0-1,0.448-1,1s0.448,1,1,1c0,0,0,0,0,0l0,4c0,0,0,0,0,0c-0.552,0-1,0.448-1,1s0.448,1,1,1c0,0,0,0,0,0l0,4c0,0,0,0,0,0
		c-0.552,0-1,0.448-1,1s0.448,1,1,1c0,0,0,0,0,0l0,4l0,0c0,0,0,0,0,0c-0.552,0-1,0.448-1,1c0,0.322,0.162,0.596,0.399,0.779
		C56.866,38.514,56.003,38.994,55.024,38.994z"/>
	<circle cx="34.012" cy="19.006" r="1"/>
	<circle cx="37.012" cy="16.006" r="1"/>
	<circle cx="37.012" cy="22.006" r="1"/>
	<circle cx="40.012" cy="19.006" r="1"/>
	<circle cx="28.012" cy="19.006" r="1"/>
	<circle cx="31.012" cy="16.006" r="1"/>
	<circle cx="31.012" cy="22.006" r="1"/>
	<circle cx="16.012" cy="19.006" r="1"/>
	<circle cx="22.012" cy="19.006" r="1"/>
	<circle cx="19.012" cy="16.006" r="1"/>
	<circle cx="25.012" cy="16.006" r="1"/>
	<circle cx="19.012" cy="22.006" r="1"/>
	<circle cx="25.012" cy="22.006" r="1"/>
	<circle cx="43.012" cy="16.006" r="1"/>
	<circle cx="43.012" cy="22.006" r="1"/>
	<circle cx="46.012" cy="19.006" r="1"/>
	<circle cx="52.012" cy="19.006" r="1"/>
	<circle cx="34.012" cy="25.006" r="1"/>
	<circle cx="40.012" cy="25.006" r="1"/>
	<circle cx="28.012" cy="25.006" r="1"/>
	<circle cx="16.012" cy="25.006" r="1"/>
	<circle cx="22.012" cy="25.006" r="1"/>
	<circle cx="46.012" cy="25.006" r="1"/>
	<circle cx="52.012" cy="25.006" r="1"/>
	<circle cx="49.012" cy="16.006" r="1"/>
	<circle cx="55.012" cy="16.006" r="1"/>
	<circle cx="49.012" cy="22.006" r="1"/>
	<circle cx="55.012" cy="22.006" r="1"/>
	<circle cx="34.012" cy="31.006" r="1"/>
	<circle cx="37.012" cy="28.006" r="1"/>
	<circle cx="37.012" cy="34.006" r="1"/>
	<circle cx="40.012" cy="31.006" r="1"/>
	<circle cx="28.012" cy="31.006" r="1"/>
	<circle cx="31.012" cy="28.006" r="1"/>
	<circle cx="31.012" cy="34.006" r="1"/>
	<circle cx="22.012" cy="31.006" r="1"/>
	<circle cx="19.012" cy="28.006" r="1"/>
	<circle cx="25.012" cy="28.006" r="1"/>
	<circle cx="19.012" cy="34.006" r="1"/>
	<circle cx="25.012" cy="34.006" r="1"/>
	<circle cx="43.012" cy="28.006" r="1"/>
	<circle cx="43.012" cy="34.006" r="1"/>
	<circle cx="46.012" cy="31.006" r="1"/>
	<circle cx="52.012" cy="31.006" r="1"/>
	<circle cx="34.012" cy="37.006" r="1"/>
	<circle cx="40.012" cy="37.006" r="1"/>
	<circle cx="28.012" cy="37.006" r="1"/>
	<circle cx="22.012" cy="37.006" r="1"/>
	<circle cx="46.012" cy="37.006" r="1"/>
	<circle cx="52.012" cy="37.006" r="1"/>
	<circle cx="49.012" cy="28.006" r="1"/>
	<circle cx="55.012" cy="28.006" r="1"/>
	<circle cx="49.012" cy="34.006" r="1"/>
	<circle cx="55.012" cy="34.006" r="1"/>
</g>
<g>
</g>
<g>
</g>
<g>
</g>
<g>
</g>
<g>
</g>
<g>
</g>
<g>
</g>
<g>
</g>
<g>
</g>
<g>
</g>
<g>
</g>
<g>
</g>
<g>
</g>
<g>
</g>
<g>
</g>
</svg>
