<?xml version="1.0" encoding="iso-8859-1"?>
<!-- Generator: Adobe Illustrator 18.0.0, SVG Export Plug-In . SVG Version: 6.00 Build 0)  -->
<!DOCTYPE svg PUBLIC "-//W3C//DTD SVG 1.1//EN" "http://www.w3.org/Graphics/SVG/1.1/DTD/svg11.dtd">
<svg version="1.1" id="Capa_1" xmlns="http://www.w3.org/2000/svg" xmlns:xlink="http://www.w3.org/1999/xlink" x="0px" y="0px"
	 viewBox="0 0 60 60" style="enable-background:new 0 0 60 60;" xml:space="preserve">
<path d="M7,12V4c0-0.553-0.448-1-1-1H1C0.448,3,0,3.447,0,4s0.448,1,1,1h4v7v1v24v1v9c0,0.553,0.448,1,1,1h7.031
	C11.806,48.912,11,50.359,11,52c0,2.757,2.243,5,5,5s5-2.243,5-5c0-1.641-0.806-3.088-2.031-4h21.062C38.806,48.912,38,50.359,38,52
	c0,2.757,2.243,5,5,5s5-2.243,5-5c0-1.641-0.806-3.088-2.031-4H52c0.552,0,1-0.447,1-1s-0.448-1-1-1H7v-8h53V12H7z M16,55
	c-1.654,0-3-1.346-3-3s1.346-3,3-3s3,1.346,3,3S17.654,55,16,55z M43,55c-1.654,0-3-1.346-3-3s1.346-3,3-3s3,1.346,3,3
	S44.654,55,43,55z M7,22h51v6H7V22z M58,20H7v-6h51V20z M7,36v-6h51v6H7z"/>
<g>
</g>
<g>
</g>
<g>
</g>
<g>
</g>
<g>
</g>
<g>
</g>
<g>
</g>
<g>
</g>
<g>
</g>
<g>
</g>
<g>
</g>
<g>
</g>
<g>
</g>
<g>
</g>
<g>
</g>
</svg>
