<?xml version="1.0" encoding="iso-8859-1"?>
<!-- Generator: Adobe Illustrator 18.0.0, SVG Export Plug-In . SVG Version: 6.00 Build 0)  -->
<!DOCTYPE svg PUBLIC "-//W3C//DTD SVG 1.1//EN" "http://www.w3.org/Graphics/SVG/1.1/DTD/svg11.dtd">
<svg version="1.1" id="Capa_1" xmlns="http://www.w3.org/2000/svg" xmlns:xlink="http://www.w3.org/1999/xlink" x="0px" y="0px"
	 viewBox="0 0 59 59" style="enable-background:new 0 0 59 59;" xml:space="preserve">
<g>
	<path d="M59,41V15H11V7c0-0.553-0.448-1-1-1H7.858C7.411,4.28,5.858,3,4,3C1.794,3,0,4.794,0,7s1.794,4,4,4
		c1.858,0,3.411-1.28,3.858-3H9v7v1v24v1v5c0,0.553,0.448,1,1,1h7.031C15.806,47.912,15,49.359,15,51c0,2.757,2.243,5,5,5
		s5-2.243,5-5c0-1.641-0.806-3.088-2.031-4h18.062C39.806,47.912,39,49.359,39,51c0,2.757,2.243,5,5,5s5-2.243,5-5
		c0-1.641-0.806-3.088-2.031-4H53c0.552,0,1-0.447,1-1s-0.448-1-1-1H11v-4H59z M4,9C2.897,9,2,8.103,2,7s0.897-2,2-2
		c0.737,0,1.375,0.405,1.722,1H5C4.448,6,4,6.447,4,7s0.448,1,1,1h0.722C5.375,8.595,4.737,9,4,9z M20,54c-1.654,0-3-1.346-3-3
		s1.346-3,3-3s3,1.346,3,3S21.654,54,20,54z M44,54c-1.654,0-3-1.346-3-3s1.346-3,3-3s3,1.346,3,3S45.654,54,44,54z M57,39H11V17h46
		V39z"/>
	<path d="M18,34c-0.552,0-1,0.447-1,1v2c0,0.553,0.448,1,1,1s1-0.447,1-1v-2C19,34.447,18.552,34,18,34z"/>
	<path d="M18,22c0.552,0,1-0.447,1-1v-2c0-0.553-0.448-1-1-1s-1,0.447-1,1v2C17,21.553,17.448,22,18,22z"/>
	<path d="M18,30c0.552,0,1-0.447,1-1v-2c0-0.553-0.448-1-1-1s-1,0.447-1,1v2C17,29.553,17.448,30,18,30z"/>
	<path d="M26,34c-0.552,0-1,0.447-1,1v2c0,0.553,0.448,1,1,1s1-0.447,1-1v-2C27,34.447,26.552,34,26,34z"/>
	<path d="M26,22c0.552,0,1-0.447,1-1v-2c0-0.553-0.448-1-1-1s-1,0.447-1,1v2C25,21.553,25.448,22,26,22z"/>
	<path d="M26,30c0.552,0,1-0.447,1-1v-2c0-0.553-0.448-1-1-1s-1,0.447-1,1v2C25,29.553,25.448,30,26,30z"/>
	<path d="M34,34c-0.552,0-1,0.447-1,1v2c0,0.553,0.448,1,1,1s1-0.447,1-1v-2C35,34.447,34.552,34,34,34z"/>
	<path d="M34,22c0.552,0,1-0.447,1-1v-2c0-0.553-0.448-1-1-1s-1,0.447-1,1v2C33,21.553,33.448,22,34,22z"/>
	<path d="M34,30c0.552,0,1-0.447,1-1v-2c0-0.553-0.448-1-1-1s-1,0.447-1,1v2C33,29.553,33.448,30,34,30z"/>
	<path d="M42,34c-0.552,0-1,0.447-1,1v2c0,0.553,0.448,1,1,1s1-0.447,1-1v-2C43,34.447,42.552,34,42,34z"/>
	<path d="M42,22c0.552,0,1-0.447,1-1v-2c0-0.553-0.448-1-1-1s-1,0.447-1,1v2C41,21.553,41.448,22,42,22z"/>
	<path d="M42,30c0.552,0,1-0.447,1-1v-2c0-0.553-0.448-1-1-1s-1,0.447-1,1v2C41,29.553,41.448,30,42,30z"/>
	<path d="M50,34c-0.552,0-1,0.447-1,1v2c0,0.553,0.448,1,1,1s1-0.447,1-1v-2C51,34.447,50.552,34,50,34z"/>
	<path d="M50,22c0.552,0,1-0.447,1-1v-2c0-0.553-0.448-1-1-1s-1,0.447-1,1v2C49,21.553,49.448,22,50,22z"/>
	<path d="M50,30c0.552,0,1-0.447,1-1v-2c0-0.553-0.448-1-1-1s-1,0.447-1,1v2C49,29.553,49.448,30,50,30z"/>
	<path d="M13,33h3c0.552,0,1-0.447,1-1s-0.448-1-1-1h-3c-0.552,0-1,0.447-1,1S12.448,33,13,33z"/>
	<path d="M13,25h3c0.552,0,1-0.447,1-1s-0.448-1-1-1h-3c-0.552,0-1,0.447-1,1S12.448,25,13,25z"/>
	<path d="M24,31h-4c-0.552,0-1,0.447-1,1s0.448,1,1,1h4c0.552,0,1-0.447,1-1S24.552,31,24,31z"/>
	<path d="M20,25h4c0.552,0,1-0.447,1-1s-0.448-1-1-1h-4c-0.552,0-1,0.447-1,1S19.448,25,20,25z"/>
	<path d="M32,31h-4c-0.552,0-1,0.447-1,1s0.448,1,1,1h4c0.552,0,1-0.447,1-1S32.552,31,32,31z"/>
	<path d="M28,25h4c0.552,0,1-0.447,1-1s-0.448-1-1-1h-4c-0.552,0-1,0.447-1,1S27.448,25,28,25z"/>
	<path d="M40,31h-4c-0.552,0-1,0.447-1,1s0.448,1,1,1h4c0.552,0,1-0.447,1-1S40.552,31,40,31z"/>
	<path d="M36,25h4c0.552,0,1-0.447,1-1s-0.448-1-1-1h-4c-0.552,0-1,0.447-1,1S35.448,25,36,25z"/>
	<path d="M48,31h-4c-0.552,0-1,0.447-1,1s0.448,1,1,1h4c0.552,0,1-0.447,1-1S48.552,31,48,31z"/>
	<path d="M44,25h4c0.552,0,1-0.447,1-1s-0.448-1-1-1h-4c-0.552,0-1,0.447-1,1S43.448,25,44,25z"/>
	<path d="M55,31h-3c-0.552,0-1,0.447-1,1s0.448,1,1,1h3c0.552,0,1-0.447,1-1S55.552,31,55,31z"/>
	<path d="M52,25h3c0.552,0,1-0.447,1-1s-0.448-1-1-1h-3c-0.552,0-1,0.447-1,1S51.448,25,52,25z"/>
</g>
<g>
</g>
<g>
</g>
<g>
</g>
<g>
</g>
<g>
</g>
<g>
</g>
<g>
</g>
<g>
</g>
<g>
</g>
<g>
</g>
<g>
</g>
<g>
</g>
<g>
</g>
<g>
</g>
<g>
</g>
</svg>
