<?xml version="1.0" encoding="iso-8859-1"?>
<!-- Generator: Adobe Illustrator 18.0.0, SVG Export Plug-In . SVG Version: 6.00 Build 0)  -->
<!DOCTYPE svg PUBLIC "-//W3C//DTD SVG 1.1//EN" "http://www.w3.org/Graphics/SVG/1.1/DTD/svg11.dtd">
<svg version="1.1" id="Capa_1" xmlns="http://www.w3.org/2000/svg" xmlns:xlink="http://www.w3.org/1999/xlink" x="0px" y="0px"
	 viewBox="0 0 59 59" style="enable-background:new 0 0 59 59;" xml:space="preserve">
<g>
	<path d="M59,41V14H11V7c0-0.553-0.448-1-1-1H7.858C7.411,4.28,5.858,3,4,3C1.794,3,0,4.794,0,7s1.794,4,4,4
		c1.858,0,3.411-1.28,3.858-3H9v6v2v24v1v5c0,0.553,0.448,1,1,1h7.031C15.806,47.912,15,49.359,15,51c0,2.757,2.243,5,5,5
		s5-2.243,5-5c0-1.641-0.806-3.088-2.031-4h18.062C39.806,47.912,39,49.359,39,51c0,2.757,2.243,5,5,5s5-2.243,5-5
		c0-1.641-0.806-3.088-2.031-4H53c0.552,0,1-0.447,1-1s-0.448-1-1-1H11v-4H59z M4,9C2.897,9,2,8.103,2,7s0.897-2,2-2
		c0.737,0,1.375,0.405,1.722,1H5C4.448,6,4,6.447,4,7s0.448,1,1,1h0.722C5.375,8.595,4.737,9,4,9z M20,54c-1.654,0-3-1.346-3-3
		s1.346-3,3-3s3,1.346,3,3S21.654,54,20,54z M44,54c-1.654,0-3-1.346-3-3s1.346-3,3-3s3,1.346,3,3S45.654,54,44,54z M57,16v23H11V16
		H57z"/>
	<path d="M18,37c0.552,0,1-0.447,1-1v-3c0-0.553-0.448-1-1-1s-1,0.447-1,1v3C17,36.553,17.448,37,18,37z"/>
	<path d="M18,23c0.552,0,1-0.447,1-1v-3c0-0.553-0.448-1-1-1s-1,0.447-1,1v3C17,22.553,17.448,23,18,23z"/>
	<path d="M18,30c0.552,0,1-0.447,1-1v-3c0-0.553-0.448-1-1-1s-1,0.447-1,1v3C17,29.553,17.448,30,18,30z"/>
	<path d="M26,37c0.552,0,1-0.447,1-1v-3c0-0.553-0.448-1-1-1s-1,0.447-1,1v3C25,36.553,25.448,37,26,37z"/>
	<path d="M26,23c0.552,0,1-0.447,1-1v-3c0-0.553-0.448-1-1-1s-1,0.447-1,1v3C25,22.553,25.448,23,26,23z"/>
	<path d="M26,30c0.552,0,1-0.447,1-1v-3c0-0.553-0.448-1-1-1s-1,0.447-1,1v3C25,29.553,25.448,30,26,30z"/>
	<path d="M34,37c0.552,0,1-0.447,1-1v-3c0-0.553-0.448-1-1-1s-1,0.447-1,1v3C33,36.553,33.448,37,34,37z"/>
	<path d="M34,23c0.552,0,1-0.447,1-1v-3c0-0.553-0.448-1-1-1s-1,0.447-1,1v3C33,22.553,33.448,23,34,23z"/>
	<path d="M34,30c0.552,0,1-0.447,1-1v-3c0-0.553-0.448-1-1-1s-1,0.447-1,1v3C33,29.553,33.448,30,34,30z"/>
	<path d="M42,37c0.552,0,1-0.447,1-1v-3c0-0.553-0.448-1-1-1s-1,0.447-1,1v3C41,36.553,41.448,37,42,37z"/>
	<path d="M42,23c0.552,0,1-0.447,1-1v-3c0-0.553-0.448-1-1-1s-1,0.447-1,1v3C41,22.553,41.448,23,42,23z"/>
	<path d="M42,30c0.552,0,1-0.447,1-1v-3c0-0.553-0.448-1-1-1s-1,0.447-1,1v3C41,29.553,41.448,30,42,30z"/>
	<path d="M50,37c0.552,0,1-0.447,1-1v-3c0-0.553-0.448-1-1-1s-1,0.447-1,1v3C49,36.553,49.448,37,50,37z"/>
	<path d="M50,23c0.552,0,1-0.447,1-1v-3c0-0.553-0.448-1-1-1s-1,0.447-1,1v3C49,22.553,49.448,23,50,23z"/>
	<path d="M50,30c0.552,0,1-0.447,1-1v-3c0-0.553-0.448-1-1-1s-1,0.447-1,1v3C49,29.553,49.448,30,50,30z"/>
</g>
<g>
</g>
<g>
</g>
<g>
</g>
<g>
</g>
<g>
</g>
<g>
</g>
<g>
</g>
<g>
</g>
<g>
</g>
<g>
</g>
<g>
</g>
<g>
</g>
<g>
</g>
<g>
</g>
<g>
</g>
</svg>
