<?xml version="1.0" encoding="iso-8859-1"?>
<!-- Generator: Adobe Illustrator 18.0.0, SVG Export Plug-In . SVG Version: 6.00 Build 0)  -->
<!DOCTYPE svg PUBLIC "-//W3C//DTD SVG 1.1//EN" "http://www.w3.org/Graphics/SVG/1.1/DTD/svg11.dtd">
<svg version="1.1" id="Capa_1" xmlns="http://www.w3.org/2000/svg" xmlns:xlink="http://www.w3.org/1999/xlink" x="0px" y="0px"
	 viewBox="0 0 60 60" style="enable-background:new 0 0 60 60;" xml:space="preserve">
<g>
	<path d="M56,50v-2.02c1.118-0.101,2-1.033,2-2.177V17.196C58,15.985,57.015,15,55.804,15h-1.636C54.075,15,54,14.925,54,14.832
		V8.168C54,6.973,53.027,6,51.832,6H30.168C28.973,6,28,6.973,28,8.168v6.664C28,14.925,27.925,15,27.832,15H18v-2h6.287
		C25.231,13,26,12.231,26,11.286V1.714C26,0.769,25.231,0,24.287,0H5.713C4.769,0,4,0.769,4,1.714v9.572C4,12.231,4.769,13,5.713,13
		H12v2H4.196C2.985,15,2,15.985,2,17.196v28.607c0,1.144,0.882,2.075,2,2.177V50H0v10h60V50H56z M4,17.196
		C4,17.088,4.088,17,4.196,17H12v3c0,0.553,0.448,1,1,1s1-0.447,1-1v-3v-1v-5H6V2h18v9h-8v5v1v3c0,0.553,0.448,1,1,1s1-0.447,1-1v-3
		h9.832C29.027,17,30,16.027,30,14.832V8.168C30,8.075,30.075,8,30.168,8h21.664C51.925,8,52,8.075,52,8.168v6.664
		C52,16.027,52.973,17,54.168,17h1.636C55.912,17,56,17.088,56,17.196v28.607C56,45.912,55.912,46,55.804,46H4.196
		C4.088,46,4,45.912,4,45.804V17.196z M6,48h48v2H6V48z M58,58H2v-6h2h52h2V58z"/>
	<path d="M20,54H6c-0.552,0-1,0.447-1,1s0.448,1,1,1h14c0.552,0,1-0.447,1-1S20.552,54,20,54z"/>
	<path d="M55,54h-1c-0.552,0-1,0.447-1,1s0.448,1,1,1h1c0.552,0,1-0.447,1-1S55.552,54,55,54z"/>
	<path d="M51,9H31v13h20V9z M49,20H33v-9h16V20z"/>
	<path d="M37,24h-6v6h6V24z M35,28h-2v-2h2V28z"/>
	<path d="M38,30h6v-6h-6V30z M40,26h2v2h-2V26z"/>
	<path d="M45,30h6v-6h-6V30z M47,26h2v2h-2V26z"/>
	<path d="M37,31h-6v6h6V31z M35,35h-2v-2h2V35z"/>
	<path d="M38,37h6v-6h-6V37z M40,33h2v2h-2V33z"/>
	<path d="M45,37h6v-6h-6V37z M47,33h2v2h-2V33z"/>
	<path d="M37,38h-6v6h6V38z M35,42h-2v-2h2V42z"/>
	<path d="M38,44h6v-6h-6V44z M40,40h2v2h-2V40z"/>
	<path d="M45,44h6v-6h-6V44z M47,40h2v2h-2V40z"/>
	<path d="M9.382,3.077c-0.244-0.101-0.52-0.101-0.764,0C8.495,3.128,8.385,3.201,8.292,3.294L7.293,4.293
		c-0.391,0.391-0.391,1.023,0,1.414C7.488,5.902,7.744,6,8,6v3c0,0.553,0.448,1,1,1s1-0.447,1-1V4c0-0.13-0.027-0.26-0.077-0.382
		C9.822,3.373,9.627,3.178,9.382,3.077z"/>
	<path d="M14.707,7.293c-0.391-0.391-1.023-0.391-1.414,0l-1,1c-0.391,0.391-0.391,1.023,0,1.414C12.488,9.902,12.744,10,13,10
		s0.512-0.098,0.707-0.293l1-1C15.098,8.316,15.098,7.684,14.707,7.293z"/>
	<path d="M17,6v3c0,0.553,0.448,1,1,1s1-0.447,1-1V4c0-0.13-0.027-0.26-0.077-0.382c-0.101-0.245-0.296-0.44-0.541-0.541
		c-0.244-0.101-0.52-0.101-0.764,0c-0.123,0.051-0.233,0.124-0.326,0.217l-0.999,0.999c-0.391,0.391-0.391,1.023,0,1.414
		C16.488,5.902,16.744,6,17,6z"/>
	<path d="M21,6v3c0,0.553,0.448,1,1,1s1-0.447,1-1V4c0-0.13-0.027-0.26-0.077-0.382c-0.101-0.245-0.296-0.44-0.541-0.541
		c-0.244-0.101-0.52-0.101-0.764,0c-0.123,0.051-0.233,0.124-0.326,0.217l-0.999,0.999c-0.391,0.391-0.391,1.023,0,1.414
		C20.488,5.902,20.744,6,21,6z"/>
	<path d="M6,43h1h16h1c0.552,0,1-0.447,1-1s-0.448-1-1-1h-1V23H7v18H6c-0.552,0-1,0.447-1,1S5.448,43,6,43z M9,25h12v16H9V25z"/>
	<path d="M28,45c0.552,0,1-0.447,1-1V19c0-0.553-0.448-1-1-1s-1,0.447-1,1v25C27,44.553,27.448,45,28,45z"/>
	<path d="M16,37h-5c-0.552,0-1,0.447-1,1s0.448,1,1,1h5c0.552,0,1-0.447,1-1S16.552,37,16,37z"/>
	<path d="M18.29,37.29C18.11,37.479,18,37.74,18,38s0.11,0.52,0.29,0.71C18.48,38.89,18.74,39,19,39c0.26,0,0.52-0.11,0.71-0.29
		C19.89,38.52,20,38.26,20,38s-0.11-0.521-0.29-0.71C19.34,36.92,18.67,36.92,18.29,37.29z"/>
	<path d="M19,27h-5c-0.552,0-1,0.447-1,1s0.448,1,1,1h5c0.552,0,1-0.447,1-1S19.552,27,19,27z"/>
	<path d="M19,32h-1c-0.552,0-1,0.447-1,1s0.448,1,1,1h1c0.552,0,1-0.447,1-1S19.552,32,19,32z"/>
	<path d="M11,34h1c0.552,0,1-0.447,1-1s-0.448-1-1-1h-1c-0.552,0-1,0.447-1,1S10.448,34,11,34z"/>
	<path d="M11,29c0.26,0,0.52-0.11,0.71-0.29C11.89,28.52,12,28.27,12,28c0-0.26-0.11-0.521-0.29-0.71c-0.38-0.37-1.05-0.37-1.42,0
		C10.11,27.479,10,27.74,10,28c0,0.27,0.11,0.52,0.29,0.71C10.48,28.89,10.74,29,11,29z"/>
	<path d="M15.71,33.71C15.89,33.52,16,33.26,16,33s-0.11-0.521-0.29-0.71c-0.38-0.37-1.04-0.37-1.42,0C14.11,32.479,14,32.729,14,33
		c0,0.26,0.11,0.52,0.29,0.71C14.48,33.89,14.74,34,15,34C15.26,34,15.52,33.89,15.71,33.71z"/>
</g>
<g>
</g>
<g>
</g>
<g>
</g>
<g>
</g>
<g>
</g>
<g>
</g>
<g>
</g>
<g>
</g>
<g>
</g>
<g>
</g>
<g>
</g>
<g>
</g>
<g>
</g>
<g>
</g>
<g>
</g>
</svg>
