<?xml version="1.0" encoding="iso-8859-1"?>
<!-- Generator: Adobe Illustrator 18.0.0, SVG Export Plug-In . SVG Version: 6.00 Build 0)  -->
<!DOCTYPE svg PUBLIC "-//W3C//DTD SVG 1.1//EN" "http://www.w3.org/Graphics/SVG/1.1/DTD/svg11.dtd">
<svg version="1.1" id="Capa_1" xmlns="http://www.w3.org/2000/svg" xmlns:xlink="http://www.w3.org/1999/xlink" x="0px" y="0px"
	 viewBox="0 0 60 60" style="enable-background:new 0 0 60 60;" xml:space="preserve">
<g>
	<path d="M30,10.5c-16.822,0-30,6.589-30,15v9c0,8.411,13.178,15,30,15s30-6.589,30-15v-9C60,17.089,46.822,10.5,30,10.5z M30,12.5
		c15.178,0,28,5.953,28,13s-12.822,13-28,13s-28-5.953-28-13S14.822,12.5,30,12.5z M34.697,40.324
		c0.063-0.005,0.124-0.011,0.186-0.016c0.632-0.05,1.255-0.111,1.872-0.179c0.081-0.009,0.165-0.014,0.245-0.023v6.964
		c-0.982,0.122-1.983,0.219-3,0.29v-6.99C34.232,40.354,34.466,40.342,34.697,40.324z M39,39.839
		c0.05-0.008,0.098-0.016,0.148-0.024c0.094-0.015,0.186-0.031,0.28-0.047c0.57-0.091,1.132-0.192,1.685-0.299
		c0.13-0.025,0.26-0.049,0.389-0.075c0.167-0.034,0.333-0.068,0.498-0.103v6.907c-0.971,0.221-1.974,0.413-3,0.58V39.839z
		 M44,38.819c0.392-0.101,0.777-0.207,1.158-0.316c0.104-0.03,0.209-0.058,0.312-0.089c0.178-0.053,0.354-0.107,0.53-0.162v6.835
		c-0.648,0.214-1.315,0.416-2,0.605V38.819z M48,37.578c0.287-0.106,0.566-0.217,0.844-0.328c0.072-0.029,0.146-0.056,0.217-0.085
		c0.319-0.13,0.631-0.264,0.939-0.4v6.727c-0.637,0.305-1.304,0.596-2,0.871V37.578z M52,35.791c0.036-0.02,0.074-0.038,0.111-0.058
		c0.04-0.022,0.082-0.042,0.122-0.064c0.44-0.241,0.859-0.491,1.267-0.746c0.091-0.057,0.179-0.114,0.268-0.171
		c0.077-0.05,0.157-0.098,0.232-0.149v6.484c-0.607,0.467-1.277,0.914-2,1.342V35.791z M6,34.603
		c0.076,0.05,0.155,0.099,0.232,0.149c0.089,0.057,0.178,0.115,0.268,0.171c0.407,0.255,0.827,0.505,1.267,0.746
		c0.04,0.022,0.082,0.042,0.122,0.064c0.036,0.02,0.074,0.039,0.111,0.058v6.637C7.277,42,6.607,41.553,6,41.086V34.603z M10,36.765
		c0.308,0.136,0.619,0.27,0.939,0.4c0.071,0.029,0.145,0.056,0.217,0.085c0.279,0.111,0.558,0.222,0.844,0.328v6.786
		c-0.696-0.276-1.363-0.567-2-0.871V36.765z M14,38.253c0.176,0.054,0.351,0.109,0.53,0.162c0.103,0.03,0.208,0.059,0.312,0.089
		c0.381,0.109,0.766,0.215,1.158,0.316v6.874c-0.685-0.189-1.352-0.391-2-0.605V38.253z M18,39.291
		c0.165,0.035,0.331,0.069,0.498,0.103c0.129,0.026,0.26,0.05,0.389,0.075c0.554,0.107,1.115,0.208,1.685,0.299
		c0.094,0.015,0.186,0.032,0.28,0.047c0.049,0.008,0.098,0.016,0.148,0.024v6.94c-1.026-0.168-2.029-0.36-3-0.58V39.291z M23,40.105
		c0.081,0.009,0.164,0.014,0.245,0.023c0.617,0.068,1.24,0.129,1.872,0.179c0.062,0.005,0.123,0.011,0.186,0.016
		c0.23,0.017,0.465,0.03,0.697,0.045v6.99c-1.017-0.071-2.018-0.167-3-0.29V40.105z M2,34.5v-3.511
		c0.031,0.041,0.07,0.079,0.102,0.12c0.23,0.293,0.473,0.582,0.737,0.865c0.019,0.02,0.035,0.041,0.054,0.061
		c0.283,0.3,0.591,0.592,0.912,0.879C3.87,32.971,3.934,33.029,4,33.086v6.14C2.717,37.753,2,36.158,2,34.5z M28,47.461v-6.996
		c0.661,0.021,1.326,0.035,2,0.035s1.339-0.014,2-0.035v6.996c-0.662,0.023-1.328,0.039-2,0.039S28.662,47.484,28,47.461z
		 M58,30.989V34.5c0,1.658-0.717,3.253-2,4.727v-6.14c0.066-0.057,0.13-0.115,0.195-0.173c0.321-0.288,0.629-0.58,0.912-0.879
		c0.019-0.02,0.035-0.041,0.054-0.061c0.265-0.283,0.508-0.572,0.738-0.865C57.93,31.068,57.969,31.029,58,30.989z"/>
	<path d="M15.97,34.608l-0.265,0.096l3.45,0.723c0.483,0.101,0.981,0.179,1.473,0.266c0.097,0.017,0.193,0.036,0.29,0.052
		c0.558,0.095,1.121,0.181,1.69,0.258c0.39,0.053,0.785,0.103,1.184,0.148c0.359,0.04,0.717,0.08,1.08,0.112
		c0.673,0.063,1.357,0.113,2.05,0.151c0.128,0.007,0.255,0.016,0.383,0.022C28.189,36.478,29.087,36.5,30,36.5
		c0.89,0,1.765-0.022,2.626-0.062c0.135-0.006,0.268-0.015,0.402-0.022c0.667-0.036,1.325-0.084,1.973-0.143
		c0.397-0.035,0.79-0.077,1.183-0.121c0.353-0.04,0.702-0.083,1.048-0.129c0.625-0.082,1.242-0.176,1.854-0.28
		c0.063-0.011,0.125-0.022,0.188-0.033c0.48-0.084,0.966-0.158,1.437-0.255l3.398-0.701l-0.253-0.095
		C51.271,32.532,56,28.886,56,25.5c0-5.192-11.119-11-26-11s-26,5.808-26,11C4,28.859,8.657,32.473,15.97,34.608z M25.93,29.499
		c-2.056-0.67-3.228-1.829-3.484-3.443l-0.108-0.679l-0.673-0.143c-0.443-0.094-0.595-0.248-0.617-0.255l0.231-0.75
		c0.027-0.087,0.3-0.385,0.942-0.568l0.449-0.128l0.19-0.426c0.251-0.564,0.599-1.072,1.033-1.51
		c0.186-0.188,0.338-0.327,0.462-0.439c0.427-0.39,0.695-0.697,0.773-1.188c0.005,0.002,0.011,0.004,0.017,0.006
		c1.464,0.535,3.154,0.59,4.318,0.542c0.175-0.007,0.354-0.011,0.537-0.011c4.036,0,6.304,0.831,7.138,2.614l0.194,0.414
		l0.439,0.125c0.647,0.183,0.922,0.481,0.95,0.57l0.238,0.704c-0.021,0.04-0.187,0.208-0.625,0.3l-0.673,0.143l-0.108,0.679
		c-0.256,1.614-1.428,2.772-3.484,3.443l-0.777,0.253l0.24,2.082c0.082,0.71,0.611,1.331,1.38,1.617l1.689,0.632
		c-0.196,0.025-0.391,0.05-0.59,0.073c-0.658,0.073-1.325,0.134-1.998,0.183c-0.311,0.023-0.617,0.051-0.934,0.069
		c-2.052,0.113-4.143,0.112-6.194-0.003c-0.326-0.018-0.64-0.047-0.959-0.071c-0.671-0.049-1.336-0.111-1.992-0.185
		c-0.202-0.023-0.399-0.049-0.598-0.074l1.726-0.623c0.785-0.284,1.324-0.907,1.407-1.626l0.239-2.073L25.93,29.499z M30,16.5
		c14.888,0,24,5.827,24,9c0,2.332-4.936,6.09-13.455,7.922l-4.933-1.844c-0.048-0.018-0.082-0.038-0.103-0.053l-0.047-0.409
		c2.524-1.045,3.547-2.699,3.932-4.12c0.574-0.232,1.02-0.592,1.287-1.046c0.279-0.475,0.343-1.028,0.18-1.558l-0.23-0.749
		c-0.23-0.751-0.923-1.392-1.888-1.765c-1.719-3.012-5.784-3.371-8.745-3.371c-0.211,0-0.417,0.005-0.62,0.013
		c-1.388,0.053-2.647-0.094-3.549-0.423c-0.502-0.183-0.722-0.317-0.808-0.38c-0.432-0.318-0.991-0.275-1.354-0.093
		c-0.378,0.191-0.613,0.563-0.613,0.971c0,0.225,0.017,0.49,0.066,0.786c0.011,0.065,0.021,0.122,0.027,0.17
		c-0.041,0.038-0.088,0.08-0.143,0.129c-0.143,0.13-0.319,0.292-0.535,0.509c-0.498,0.504-0.915,1.073-1.242,1.698
		c-0.952,0.375-1.634,1.011-1.862,1.754l-0.23,0.749c-0.163,0.53-0.099,1.083,0.18,1.558c0.267,0.454,0.713,0.814,1.287,1.046
		c0.385,1.421,1.408,3.075,3.932,4.12l-0.046,0.399c-0.022,0.016-0.058,0.038-0.108,0.056l-5.05,1.823C10.89,31.552,6,27.82,6,25.5
		C6,22.327,15.112,16.5,30,16.5z"/>
</g>
<g>
</g>
<g>
</g>
<g>
</g>
<g>
</g>
<g>
</g>
<g>
</g>
<g>
</g>
<g>
</g>
<g>
</g>
<g>
</g>
<g>
</g>
<g>
</g>
<g>
</g>
<g>
</g>
<g>
</g>
</svg>
