<?xml version="1.0" encoding="iso-8859-1"?>
<!-- Generator: Adobe Illustrator 18.0.0, SVG Export Plug-In . SVG Version: 6.00 Build 0)  -->
<!DOCTYPE svg PUBLIC "-//W3C//DTD SVG 1.1//EN" "http://www.w3.org/Graphics/SVG/1.1/DTD/svg11.dtd">
<svg version="1.1" id="Capa_1" xmlns="http://www.w3.org/2000/svg" xmlns:xlink="http://www.w3.org/1999/xlink" x="0px" y="0px"
	 viewBox="0 0 58 58" style="enable-background:new 0 0 58 58;" xml:space="preserve">
<g>
	<path d="M31.999,0c-1.019,0-2.028,0.076-3.025,0.209C27.956,0.074,26.955,0,25.999,0C19.162,0,12.743,3.034,7.923,8.542
		C7.709,8.787,7.505,9.039,7.3,9.29C7.295,9.294,7.292,9.3,7.288,9.304c-2.667,3.272-4.606,7.126-5.71,11.306
		c-0.001,0.001,0,0.003-0.001,0.004C0.868,23.3,0.5,26.118,0.5,29c0,4.403,0.871,8.577,2.422,12.319
		C2.936,41.361,2.95,41.4,2.97,41.439c0.928,2.214,2.097,4.273,3.466,6.136c0.037,0.051,0.067,0.105,0.113,0.148
		c1.389,1.864,2.982,3.524,4.738,4.94c0.051,0.057,0.113,0.099,0.176,0.143C15.59,56.076,20.6,58,26,58
		c0.958,0,1.963-0.074,2.984-0.21C29.974,57.924,30.979,58,32,58c14.061,0,25.5-13.009,25.5-29C57.499,13.009,46.06,0,31.999,0z
		 M11.36,46H7.773c-0.882-1.246-1.665-2.585-2.345-4h3.788c0.157,0.354,0.318,0.705,0.487,1.051
		c0.073,0.149,0.149,0.295,0.224,0.442c0.205,0.402,0.418,0.798,0.639,1.188c0.082,0.145,0.161,0.292,0.245,0.435
		C10.989,45.416,11.174,45.708,11.36,46z M4.943,17h3.833c-0.391,0.977-0.731,1.978-1.023,3H3.834
		C4.149,18.974,4.521,17.974,4.943,17z M8.49,11h3.518c-0.884,1.265-1.668,2.603-2.347,4H5.899C6.646,13.589,7.513,12.251,8.49,11z
		 M2.5,29c0-0.671,0.028-1.337,0.07-2h3.995c0,0.007,0,0.015-0.001,0.023C6.526,27.678,6.5,28.337,6.5,29
		c0,0.335,0.012,0.667,0.022,1H2.539C2.528,29.666,2.5,29.337,2.5,29z M6.636,32c0.038,0.421,0.087,0.838,0.141,1.254
		c0.004,0.031,0.006,0.062,0.01,0.093C6.861,33.904,6.951,34.454,7.052,35H3.108c-0.195-0.982-0.349-1.981-0.448-3H6.636z M7.244,22
		c-0.041,0.188-0.074,0.379-0.112,0.569c0,0.001-0.001,0.003-0.001,0.004c-0.158,0.8-0.29,1.609-0.388,2.427H2.755
		c0.13-1.016,0.316-2.016,0.544-3H7.244z M7.495,37c0.031,0.122,0.06,0.246,0.092,0.367c0.012,0.044,0.022,0.09,0.034,0.134
		c0.165,0.609,0.35,1.208,0.548,1.8c0.042,0.125,0.086,0.248,0.129,0.371C8.335,39.782,8.372,39.892,8.411,40H4.558
		c-0.379-0.971-0.705-1.973-0.983-3H7.495z M19.06,4h-1.933c1.482-0.695,3.022-1.225,4.609-1.557C20.819,2.901,19.925,3.419,19.06,4
		z M13.684,6h2.785c-0.888,0.779-1.741,1.623-2.546,2.542C13.792,8.692,13.669,8.848,13.542,9h-3.303
		C11.318,7.875,12.466,6.865,13.684,6z M9.324,48h3.432c0.113,0.148,0.225,0.296,0.341,0.442c0.302,0.379,0.612,0.749,0.931,1.109
		c0.18,0.204,0.366,0.4,0.552,0.598c0.192,0.205,0.387,0.406,0.584,0.604c0.081,0.081,0.157,0.167,0.239,0.247h-3.008
		C11.297,50.101,10.27,49.097,9.324,48z M21.753,55.558c-2.293-0.483-4.46-1.369-6.469-2.558h2.419
		c0.127,0.098,0.258,0.19,0.386,0.286c0.209,0.155,0.417,0.311,0.63,0.46c0.392,0.273,0.791,0.535,1.196,0.784
		c0.181,0.111,0.366,0.214,0.55,0.321c0.319,0.185,0.642,0.362,0.968,0.532C21.541,55.438,21.644,55.504,21.753,55.558z M32,56
		c-0.794,0-1.579-0.047-2.353-0.136l-0.398-0.056c-0.049-0.007-0.098-0.015-0.147-0.021c-0.347-0.049-0.692-0.107-1.035-0.173
		c-0.026-0.005-0.052-0.011-0.079-0.016c-0.333-0.066-0.663-0.139-0.991-0.22c-0.046-0.011-0.091-0.025-0.137-0.036
		c-0.306-0.078-0.611-0.162-0.912-0.254c-0.088-0.027-0.174-0.058-0.262-0.086c-0.258-0.082-0.516-0.166-0.77-0.258
		c-0.2-0.073-0.398-0.153-0.596-0.232c-0.14-0.055-0.282-0.107-0.421-0.166c-5.378-2.276-9.838-6.75-12.551-12.469
		c-0.021-0.043-0.039-0.088-0.06-0.131c-0.15-0.32-0.295-0.644-0.434-0.972c-0.051-0.12-0.098-0.243-0.147-0.364
		c-0.104-0.255-0.206-0.51-0.303-0.769c-0.059-0.158-0.115-0.318-0.171-0.477c-0.081-0.227-0.16-0.454-0.235-0.684
		c-0.059-0.18-0.115-0.362-0.171-0.544c-0.066-0.215-0.13-0.43-0.191-0.647c-0.054-0.193-0.106-0.387-0.157-0.582
		c-0.055-0.212-0.108-0.426-0.159-0.64c-0.047-0.2-0.093-0.401-0.136-0.602c-0.046-0.214-0.089-0.43-0.13-0.646
		c-0.039-0.203-0.078-0.406-0.113-0.611c-0.038-0.223-0.072-0.448-0.105-0.674c-0.03-0.2-0.06-0.4-0.086-0.601
		c-0.031-0.241-0.055-0.484-0.081-0.727c-0.02-0.188-0.041-0.376-0.058-0.565c-0.024-0.278-0.04-0.559-0.056-0.84
		c-0.009-0.157-0.022-0.313-0.029-0.471C8.511,29.889,8.5,29.446,8.5,29c0-0.437,0.01-0.872,0.028-1.306
		c0.009-0.217,0.026-0.431,0.039-0.646c0.013-0.208,0.023-0.417,0.04-0.624c0.025-0.307,0.059-0.612,0.093-0.916
		c0.012-0.108,0.021-0.216,0.035-0.323c0.045-0.366,0.098-0.729,0.156-1.09c0.006-0.039,0.011-0.078,0.018-0.116
		c0.789-4.797,2.688-9.17,5.394-12.731c0.049-0.064,0.096-0.129,0.146-0.193c0.16-0.207,0.325-0.409,0.491-0.61
		c0.097-0.117,0.193-0.235,0.292-0.35c0.15-0.175,0.302-0.348,0.456-0.518c0.112-0.124,0.225-0.247,0.339-0.369
		c0.158-0.168,0.317-0.335,0.479-0.498c0.104-0.105,0.21-0.208,0.315-0.311C17,8.224,17.181,8.049,17.367,7.879
		c0.075-0.069,0.152-0.136,0.228-0.204c0.221-0.198,0.443-0.394,0.671-0.582c0.011-0.009,0.022-0.017,0.032-0.026
		c3.113-2.572,6.806-4.297,10.84-4.86l0.569-0.079C30.464,2.043,31.229,2,31.999,2c12.958,0,23.5,12.112,23.501,27
		C55.5,43.888,44.958,56,32,56z"/>
	<path d="M32,8.476c0.604,0,1.216,0.035,1.817,0.105c0.039,0.005,0.078,0.007,0.116,0.007c0.501,0,0.934-0.375,0.992-0.885
		c0.063-0.549-0.329-1.045-0.878-1.108C33.37,6.516,32.681,6.476,32,6.476h-0.044c-0.553,0-0.978,0.448-0.978,1
		S31.447,8.476,32,8.476z"/>
	<path d="M49.134,23.291c0.113,0.454,0.521,0.757,0.969,0.757c0.081,0,0.162-0.01,0.244-0.03c0.536-0.134,0.861-0.677,0.727-1.213
		c-0.167-0.665-0.364-1.332-0.587-1.982c-0.18-0.522-0.743-0.802-1.271-0.621c-0.521,0.179-0.8,0.748-0.621,1.271
		C48.799,22.068,48.98,22.68,49.134,23.291z"/>
	<path d="M24.327,10.337c0.153,0,0.309-0.035,0.454-0.109c0.556-0.284,1.131-0.538,1.708-0.753c0.517-0.193,0.779-0.77,0.586-1.287
		c-0.193-0.518-0.765-0.781-1.287-0.586c-0.647,0.242-1.293,0.527-1.917,0.845C23.38,8.698,23.185,9.3,23.436,9.792
		C23.612,10.139,23.963,10.337,24.327,10.337z"/>
	<path d="M45.022,43.019c-0.399,0.491-0.822,0.963-1.258,1.403c-0.389,0.393-0.385,1.026,0.008,1.415
		c0.195,0.192,0.449,0.289,0.703,0.289c0.258,0,0.516-0.099,0.711-0.297c0.48-0.486,0.947-1.007,1.387-1.547
		c0.349-0.429,0.284-1.059-0.145-1.407S45.37,42.591,45.022,43.019z"/>
	<path d="M50.833,27.967c-0.553,0-1,0.48-1,1.033c0,0.617-0.023,1.235-0.07,1.838c-0.043,0.551,0.369,1.032,0.92,1.074
		c0.026,0.002,0.053,0.003,0.078,0.003c0.518,0,0.955-0.398,0.996-0.923c0.051-0.653,0.076-1.324,0.076-1.992v-0.065
		C51.833,28.382,51.386,27.967,50.833,27.967z"/>
	<path d="M41.856,9.449c-0.586-0.382-1.195-0.733-1.812-1.043c-0.495-0.25-1.095-0.05-1.343,0.443
		c-0.249,0.493-0.051,1.095,0.442,1.343c0.551,0.277,1.096,0.591,1.62,0.933c0.169,0.11,0.357,0.162,0.545,0.162
		c0.327,0,0.647-0.16,0.839-0.454C42.45,10.37,42.319,9.75,41.856,9.449z"/>
	<path d="M39.254,47.754c-0.554,0.284-1.128,0.539-1.706,0.757c-0.517,0.194-0.778,0.771-0.583,1.288
		c0.15,0.401,0.531,0.648,0.936,0.648c0.117,0,0.236-0.021,0.353-0.065c0.649-0.245,1.294-0.531,1.915-0.85
		c0.491-0.252,0.685-0.855,0.433-1.346C40.348,47.695,39.747,47.5,39.254,47.754z"/>
	<path d="M14.166,29c0-0.623,0.025-1.255,0.074-1.879c0.043-0.551-0.368-1.032-0.919-1.076c-0.541-0.037-1.032,0.368-1.075,0.918
		c-0.053,0.676-0.08,1.361-0.08,2.036v0.022c0,0.552,0.447,0.989,1,0.989S14.166,29.552,14.166,29z"/>
	<path d="M49.902,35.781c-0.522-0.176-1.091,0.106-1.267,0.628c-0.202,0.598-0.432,1.193-0.683,1.77
		c-0.221,0.506,0.012,1.096,0.518,1.316c0.13,0.057,0.266,0.083,0.398,0.083c0.387,0,0.754-0.225,0.918-0.601
		c0.273-0.629,0.523-1.278,0.743-1.93C50.707,36.525,50.426,35.958,49.902,35.781z"/>
	<path d="M47.729,15.276c-0.387-0.571-0.805-1.13-1.242-1.662c-0.352-0.426-0.98-0.488-1.408-0.137
		c-0.426,0.351-0.487,0.981-0.137,1.408c0.398,0.484,0.779,0.993,1.131,1.513c0.193,0.286,0.509,0.439,0.829,0.439
		c0.193,0,0.388-0.056,0.56-0.172C47.919,16.355,48.039,15.733,47.729,15.276z"/>
	<path d="M32,49.524c-0.621,0-1.247-0.037-1.857-0.11c-0.565-0.056-1.047,0.327-1.112,0.875c-0.065,0.548,0.326,1.046,0.874,1.112
		c0.69,0.082,1.396,0.124,2.096,0.124h0.085c0.553,0,0.957-0.448,0.957-1S32.553,49.524,32,49.524z"/>
	<path d="M14.854,34.669c-0.134-0.536-0.677-0.864-1.212-0.729c-0.536,0.133-0.862,0.676-0.729,1.212
		c0.166,0.666,0.363,1.333,0.585,1.983c0.142,0.416,0.53,0.677,0.946,0.677c0.107,0,0.216-0.018,0.323-0.054
		c0.522-0.179,0.802-0.747,0.623-1.27C15.187,35.893,15.007,35.28,14.854,34.669z"/>
	<path d="M24.818,47.791c-0.552-0.28-1.097-0.596-1.618-0.938c-0.463-0.303-1.081-0.172-1.385,0.289
		c-0.302,0.462-0.173,1.082,0.289,1.384c0.583,0.382,1.191,0.734,1.81,1.048c0.145,0.074,0.299,0.108,0.451,0.108
		c0.365,0,0.717-0.2,0.893-0.547C25.508,48.643,25.312,48.041,24.818,47.791z"/>
	<path d="M15.549,18.466c-0.509-0.224-1.095,0.008-1.317,0.514c-0.274,0.626-0.526,1.275-0.748,1.929
		c-0.177,0.523,0.104,1.091,0.626,1.269c0.106,0.036,0.215,0.053,0.321,0.053c0.417,0,0.806-0.263,0.947-0.679
		c0.203-0.6,0.434-1.195,0.686-1.768C16.285,19.277,16.055,18.688,15.549,18.466z"/>
	<path d="M18.844,12.141c-0.482,0.486-0.95,1.006-1.39,1.544c-0.35,0.428-0.286,1.058,0.142,1.407
		c0.186,0.152,0.41,0.226,0.632,0.226c0.29,0,0.578-0.125,0.775-0.367c0.399-0.489,0.823-0.96,1.261-1.401
		c0.389-0.392,0.387-1.025-0.006-1.414C19.866,11.747,19.233,11.748,18.844,12.141z"/>
	<path d="M17.9,41.568c-0.31-0.458-0.93-0.577-1.389-0.269c-0.457,0.31-0.577,0.931-0.268,1.389
		c0.392,0.579,0.808,1.139,1.238,1.664c0.198,0.241,0.484,0.366,0.774,0.366c0.223,0,0.447-0.074,0.633-0.227
		c0.428-0.351,0.489-0.98,0.14-1.408C18.638,42.606,18.258,42.096,17.9,41.568z"/>
	<path d="M40.078,32.762c-0.6,0-0.987,0.388-0.987,0.987c0,0.975-0.292,1.74-0.893,2.342c-0.601,0.601-1.314,0.893-2.179,0.893
		h-7.445c0.749-1.036,1.127-2.445,1.127-4.208l0.005-4.857h3.878c0.6,0,0.987-0.388,0.987-0.987s-0.387-0.987-0.987-0.987
		l-3.883-0.005v-4.527c0-1.519,0.317-2.674,0.941-3.434c0.609-0.74,1.401-1.1,2.422-1.1c1.04,0,1.859,0.313,2.499,0.952
		c0.626,0.645,0.93,1.497,0.93,2.606c0,0.6,0.388,0.987,0.987,0.987s0.987-0.388,0.987-0.987c0-1.62-0.5-2.96-1.488-3.984
		c-0.992-1.027-2.309-1.548-3.915-1.548c-1.618,0-2.937,0.583-3.923,1.738c-0.939,1.125-1.415,2.729-1.415,4.769l-0.005,4.532
		h-2.255c-0.6,0-0.987,0.388-0.987,0.987s0.388,0.987,0.987,0.987l2.26,0.005v4.853c0,1.409-0.299,2.48-0.89,3.185
		c-0.577,0.688-1.291,1.023-2.182,1.023c-0.6,0-0.987,0.387-0.987,0.986s0.387,0.987,0.987,0.987H36.02
		c1.433,0,2.646-0.499,3.605-1.482c0.956-0.979,1.441-2.233,1.441-3.726C41.066,33.15,40.678,32.762,40.078,32.762z"/>
</g>
<g>
</g>
<g>
</g>
<g>
</g>
<g>
</g>
<g>
</g>
<g>
</g>
<g>
</g>
<g>
</g>
<g>
</g>
<g>
</g>
<g>
</g>
<g>
</g>
<g>
</g>
<g>
</g>
<g>
</g>
</svg>
