<?xml version="1.0" encoding="iso-8859-1"?>
<!-- Generator: Adobe Illustrator 18.0.0, SVG Export Plug-In . SVG Version: 6.00 Build 0)  -->
<!DOCTYPE svg PUBLIC "-//W3C//DTD SVG 1.1//EN" "http://www.w3.org/Graphics/SVG/1.1/DTD/svg11.dtd">
<svg version="1.1" id="Capa_1" xmlns="http://www.w3.org/2000/svg" xmlns:xlink="http://www.w3.org/1999/xlink" x="0px" y="0px"
	 viewBox="0 0 58.829 58.829" style="enable-background:new 0 0 58.829 58.829;" xml:space="preserve">
<g>
	<path d="M58.533,32.05c0.335-2.301,0.383-4.6,0.143-6.844c0.004-0.076-0.01-0.148-0.024-0.223
		c-0.606-5.231-2.788-10.134-6.607-13.953c-0.688-0.689-1.433-1.331-2.26-1.963c-0.605-0.794-1.262-1.558-1.983-2.279
		c-9.942-9.942-27.23-8.831-38.537,2.475C-2.041,20.569-3.151,37.857,6.791,47.799c0.708,0.708,1.464,1.339,2.241,1.935
		c0.645,0.847,1.299,1.605,2.002,2.307c3.36,3.36,7.56,5.448,12.082,6.317c0.02,0.008,0.041,0.007,0.061,0.014
		c0.086,0.016,0.172,0.035,0.258,0.05c0.021,0.001,0.041,0.012,0.062,0.012c0.004,0,0.007-0.002,0.011-0.002
		c1.482,0.26,2.994,0.397,4.524,0.397c0.915,0,1.836-0.048,2.758-0.141c0.013,0.001,0.026,0.008,0.039,0.008
		c0.045,0,0.088-0.02,0.133-0.026c2.358-0.251,4.725-0.803,7.037-1.654c0.042-0.014,0.082-0.029,0.123-0.048
		c1.601-0.597,3.173-1.34,4.699-2.221c0.099-0.034,0.188-0.091,0.274-0.157c1.47-0.868,2.893-1.866,4.25-2.997
		c0.001-0.001,0.003-0.002,0.005-0.003c0.001-0.001,0.001-0.002,0.001-0.002c0.76-0.634,1.502-1.305,2.218-2.021
		c3.114-3.114,5.45-6.683,6.999-10.426c0.019-0.039,0.036-0.075,0.05-0.115c0.909-2.222,1.539-4.505,1.888-6.79
		C58.518,32.173,58.535,32.113,58.533,32.05z M55.278,36.89L52.6,34.212c0.139-0.36,0.273-0.722,0.398-1.085
		c0.055-0.159,0.105-0.319,0.157-0.479c0.138-0.426,0.266-0.853,0.385-1.281c0.045-0.163,0.094-0.326,0.136-0.49
		c0.087-0.336,0.163-0.673,0.237-1.01l2.536,2.536C56.191,33.908,55.798,35.408,55.278,36.89z M53.053,41.736l-2.772-2.772
		c0.064-0.107,0.13-0.213,0.192-0.321c0.024-0.042,0.051-0.083,0.075-0.124c0.314-0.546,0.606-1.1,0.884-1.657
		c0.059-0.119,0.116-0.238,0.173-0.357c0.05-0.103,0.101-0.206,0.15-0.309l2.724,2.724C54.061,39.874,53.583,40.813,53.053,41.736z
		 M50.164,45.918l-2.811-2.811c0.27-0.324,0.531-0.653,0.786-0.985c0.019-0.025,0.04-0.049,0.06-0.075
		c0.341-0.446,0.667-0.898,0.981-1.356l2.789,2.789C51.413,44.312,50.815,45.127,50.164,45.918z M54.34,27.466
		c0.025-0.186,0.05-0.371,0.072-0.557c0.054-0.479,0.096-0.958,0.125-1.436c0.017-0.275,0.025-0.548,0.033-0.822
		c0.009-0.277,0.013-0.553,0.014-0.829c0-0.116,0.007-0.233,0.006-0.349l2.126,2.126c0.141,1.412,0.156,2.848,0.05,4.293
		L54.34,27.466z M53.322,15.76c1.28,1.962,2.186,4.121,2.766,6.383l-1.71-1.71c-0.02-0.158-0.047-0.314-0.07-0.47
		c-0.038-0.26-0.075-0.52-0.121-0.778c-0.084-0.47-0.181-0.936-0.291-1.398c-0.05-0.207-0.107-0.41-0.162-0.616
		c-0.095-0.356-0.198-0.71-0.309-1.061C53.387,15.994,53.36,15.875,53.322,15.76z M10.68,10.676
		c5.742-5.742,13.117-8.682,20.123-8.682c5.838,0,11.421,2.043,15.586,6.208c0.561,0.561,1.082,1.148,1.566,1.757l0.26,0.344
		c0.02,0.026,0.039,0.053,0.059,0.079c0.441,0.585,0.847,1.188,1.22,1.808c0.008,0.014,0.016,0.028,0.024,0.042
		c0.366,0.612,0.699,1.241,0.999,1.883c0.014,0.029,0.026,0.06,0.039,0.089c0.284,0.614,0.537,1.241,0.761,1.878
		c0.019,0.056,0.039,0.111,0.058,0.167c0.195,0.57,0.359,1.15,0.507,1.735c0.034,0.136,0.073,0.27,0.105,0.407
		c0.129,0.551,0.229,1.109,0.317,1.67c0.03,0.194,0.063,0.387,0.088,0.583c0.07,0.534,0.118,1.072,0.151,1.613
		c0.014,0.221,0.026,0.443,0.034,0.666c0.019,0.535,0.02,1.073,0.004,1.612c-0.007,0.221-0.018,0.441-0.03,0.662
		c-0.031,0.553-0.076,1.108-0.143,1.663c-0.023,0.194-0.054,0.388-0.081,0.582c-0.084,0.588-0.181,1.175-0.306,1.761
		c-0.029,0.138-0.066,0.275-0.097,0.412c-0.135,0.59-0.286,1.178-0.462,1.764c-0.026,0.088-0.05,0.177-0.077,0.265
		c-0.201,0.648-0.43,1.291-0.68,1.93c-0.037,0.096-0.071,0.192-0.11,0.287c-0.258,0.64-0.543,1.273-0.85,1.9
		c-0.048,0.098-0.094,0.196-0.143,0.293c-0.314,0.625-0.654,1.242-1.016,1.852c-0.055,0.093-0.111,0.185-0.167,0.277
		c-0.373,0.611-0.768,1.213-1.189,1.804c-0.058,0.081-0.118,0.161-0.177,0.242c-0.436,0.599-0.893,1.188-1.378,1.762
		c-0.048,0.057-0.099,0.112-0.148,0.169c-0.512,0.597-1.046,1.182-1.612,1.748c-0.568,0.568-1.156,1.104-1.755,1.618
		c-0.053,0.046-0.105,0.094-0.159,0.139c-0.578,0.489-1.171,0.949-1.773,1.387c-0.076,0.056-0.152,0.113-0.229,0.167
		c-0.596,0.425-1.204,0.824-1.82,1.2c-0.085,0.052-0.171,0.104-0.257,0.155c-0.617,0.367-1.242,0.711-1.875,1.029
		c-0.087,0.044-0.175,0.085-0.262,0.128c-0.638,0.312-1.282,0.603-1.933,0.865c-0.081,0.033-0.163,0.061-0.244,0.093
		c-0.662,0.259-1.328,0.497-1.999,0.704c-0.061,0.019-0.122,0.033-0.182,0.052c-0.613,0.184-1.229,0.343-1.846,0.483
		c-0.119,0.027-0.238,0.058-0.357,0.084c-0.602,0.128-1.206,0.228-1.809,0.314c-0.177,0.025-0.355,0.053-0.532,0.075
		c-0.569,0.069-1.137,0.115-1.705,0.146c-0.207,0.011-0.414,0.022-0.62,0.028c-0.552,0.017-1.103,0.015-1.651-0.004
		c-0.209-0.007-0.417-0.019-0.625-0.032c-0.553-0.034-1.103-0.083-1.649-0.155c-0.183-0.024-0.364-0.054-0.546-0.083
		c-0.572-0.089-1.142-0.192-1.703-0.323c-0.125-0.029-0.248-0.065-0.373-0.096c-0.601-0.152-1.198-0.32-1.783-0.521
		c-0.041-0.014-0.081-0.028-0.122-0.042c-0.649-0.227-1.287-0.485-1.912-0.774c-0.023-0.011-0.047-0.02-0.07-0.031
		c-0.646-0.301-1.277-0.636-1.892-1.004c-0.012-0.007-0.023-0.013-0.035-0.02c-0.621-0.373-1.225-0.78-1.811-1.221
		c-0.026-0.02-0.053-0.039-0.079-0.059l-0.344-0.26c-0.609-0.484-1.196-1.005-1.757-1.566C-0.957,37.222,0.153,21.203,10.68,10.676z
		 M42.636,52.532l-2.796-2.796c0.133-0.085,0.267-0.167,0.398-0.254c0.04-0.026,0.081-0.05,0.121-0.077
		c0.534-0.357,1.058-0.735,1.576-1.127c0.126-0.095,0.249-0.195,0.374-0.293c0.004-0.003,0.008-0.007,0.013-0.01l2.809,2.809
		C44.318,51.41,43.489,52.003,42.636,52.532z M37.927,54.894l-2.703-2.703c0.471-0.201,0.94-0.416,1.405-0.643
		c0.11-0.054,0.218-0.112,0.327-0.167c0.374-0.188,0.747-0.381,1.116-0.585l2.763,2.763C39.88,54.062,38.91,54.506,37.927,54.894z
		 M31.169,56.621l-2.477-2.477c0.211-0.038,0.421-0.074,0.631-0.116c0.534-0.107,1.067-0.227,1.599-0.365
		c0.161-0.042,0.321-0.092,0.481-0.137c0.424-0.118,0.848-0.244,1.27-0.381c0.169-0.055,0.339-0.111,0.508-0.169l2.653,2.653
		C34.288,56.102,32.728,56.429,31.169,56.621z M16.495,53.531c0.19,0.057,0.379,0.114,0.57,0.166
		c0.552,0.15,1.109,0.279,1.672,0.391l1.366,1.367c-1.517-0.55-2.977-1.248-4.339-2.136C16.005,53.399,16.252,53.458,16.495,53.531z
		 M23.951,56.475l-1.956-1.956c0.561,0.038,1.123,0.062,1.689,0.064c0.035,0,0.07,0.005,0.105,0.005
		c0.225,0,0.452-0.012,0.678-0.018c0.466-0.012,0.931-0.035,1.399-0.07c0.109-0.008,0.218-0.016,0.327-0.025l2.335,2.335
		C26.979,56.839,25.447,56.732,23.951,56.475z M46.687,49.512l-2.82-2.82c0.008-0.007,0.015-0.015,0.023-0.022
		c0.488-0.433,0.969-0.878,1.438-1.346c0.237-0.237,0.463-0.481,0.692-0.723l2.817,2.817c-0.229,0.244-0.441,0.497-0.68,0.735
		C47.68,48.63,47.185,49.074,46.687,49.512z"/>
	<path d="M6.418,55.414c-1.654,0-3-1.346-3-3c0-0.552-0.448-1-1-1s-1,0.448-1,1c0,2.757,2.243,5,5,5c0.552,0,1-0.448,1-1
		S6.97,55.414,6.418,55.414z"/>
	<path d="M52.418,2.414c1.654,0,3,1.794,3,4c0,0.552,0.448,1,1,1s1-0.448,1-1c0-3.309-2.243-6-5-6c-0.552,0-1,0.448-1,1
		S51.866,2.414,52.418,2.414z"/>
	<path d="M57.418,45.414c0-0.552-0.448-1-1-1s-1,0.448-1,1c0,4.962-4.038,9-9,9c-0.552,0-1,0.448-1,1s0.448,1,1,1
		C52.484,56.414,57.418,51.48,57.418,45.414z"/>
	<path d="M57.418,53.414c-0.552,0-1,0.448-1,1c0,1.084-1.374,2-3,2c-0.552,0-1,0.448-1,1s0.448,1,1,1c2.757,0,5-1.794,5-4
		C58.418,53.862,57.97,53.414,57.418,53.414z"/>
	<path d="M23.795,50.602c0.514,0,1.029-0.023,1.543-0.057c0.161-0.011,0.321-0.025,0.481-0.039c0.371-0.032,0.742-0.073,1.112-0.123
		c0.165-0.022,0.329-0.041,0.494-0.067c0.486-0.075,0.972-0.163,1.455-0.267c0.162-0.035,0.322-0.078,0.483-0.117
		c0.346-0.082,0.69-0.169,1.034-0.266c0.201-0.057,0.401-0.116,0.602-0.177c0.345-0.106,0.688-0.221,1.029-0.342
		c0.155-0.055,0.311-0.105,0.465-0.163c0.474-0.178,0.944-0.372,1.41-0.578c0.151-0.067,0.301-0.139,0.451-0.209
		c0.364-0.169,0.725-0.346,1.084-0.531c0.137-0.071,0.274-0.141,0.41-0.214c0.483-0.26,0.961-0.532,1.431-0.822
		c0.005-0.003,0.01-0.006,0.015-0.009l1.229-0.76l-0.033-0.026c1.417-0.979,2.763-2.094,4.01-3.341
		c4.694-4.694,7.547-10.686,8.034-16.874c0.491-6.246-1.483-11.931-5.559-16.006c-3.631-3.631-8.666-5.631-14.175-5.631
		c-6.736,0-13.554,2.955-18.705,8.106C7.4,16.784,4.547,22.777,4.061,28.964C3.57,35.21,5.544,40.895,9.62,44.97
		C13.251,48.602,18.285,50.602,23.795,50.602z M11.034,43.556c-0.2-0.2-0.373-0.421-0.562-0.63c0.328-1.37,1.248-2.429,2.375-2.761
		l5.97-1.457c0.807-0.197,1.428-0.864,1.581-1.697l0.438-2.372l-0.523-0.369c-2.104-1.483-3.2-3.609-3.352-6.5l-0.031-0.587
		l-0.528-0.259c-0.598-0.293-0.9-0.946-0.754-1.625l0.276-1.28c0.131-0.608,0.604-1.145,1.233-1.401l0.434-0.177l0.142-0.447
		c0.383-1.205,0.894-2.307,1.518-3.274c0.262-0.407,0.477-0.71,0.65-0.956c0.751-1.063,0.923-1.448,0.916-3.005
		c0.085,0.062,0.173,0.124,0.264,0.186c1.484,1.004,3.543,1.45,5.959,1.292c0.257-0.018,0.5-0.011,0.789-0.025
		c6.6,0.006,9.904,2.334,10.1,7.117l0.024,0.581l0.516,0.267c0.921,0.476,1.447,1.267,1.371,2.063l-0.16,1.674
		c-0.095,0.994-1.065,1.793-2.36,1.942l-0.565,0.065l-0.233,0.519c-1.459,3.256-3.839,5.195-7.075,5.764l-0.716,0.126l-0.375,2.68
		c-0.118,0.854,0.261,1.733,0.991,2.297l5.63,4.345c-0.051,0.028-0.102,0.053-0.153,0.08c-0.34,0.182-0.683,0.356-1.028,0.521
		c-0.133,0.064-0.267,0.125-0.4,0.186c-0.283,0.129-0.567,0.252-0.852,0.37c-0.154,0.064-0.308,0.128-0.463,0.188
		c-0.283,0.111-0.568,0.212-0.854,0.312c-0.146,0.051-0.291,0.106-0.437,0.153c-0.408,0.133-0.817,0.255-1.228,0.365
		c-0.157,0.042-0.315,0.076-0.472,0.114c-0.274,0.067-0.548,0.133-0.824,0.19c-0.183,0.038-0.366,0.07-0.549,0.104
		c-0.259,0.047-0.519,0.091-0.779,0.128c-0.177,0.026-0.354,0.05-0.531,0.072c-0.287,0.035-0.574,0.062-0.861,0.085
		c-0.148,0.012-0.296,0.027-0.444,0.036c-0.436,0.027-0.872,0.044-1.307,0.044C18.82,48.602,14.288,46.81,11.034,43.556z
		 M6.054,29.121c0.449-5.713,3.097-11.259,7.454-15.616c4.779-4.779,11.081-7.52,17.291-7.52c4.975,0,9.507,1.792,12.761,5.045
		c3.656,3.656,5.424,8.782,4.979,14.436c-0.449,5.713-3.097,11.259-7.454,15.616c-1.317,1.317-2.752,2.473-4.267,3.465l-6.249-4.823
		c-0.182-0.14-0.248-0.326-0.232-0.438l0.176-1.261c3.359-0.8,5.97-2.954,7.604-6.277c1.956-0.432,3.385-1.869,3.555-3.644
		l0.16-1.674c0.138-1.455-0.595-2.842-1.939-3.734c-0.346-3.99-2.799-8.475-12.061-8.483c-0.31-0.006-0.624,0.01-0.925,0.03
		c-1.966,0.131-3.592-0.199-4.705-0.952c-0.597-0.404-0.881-0.723-1.014-0.918c-0.292-0.432-0.819-0.622-1.344-0.483
		c-0.543,0.145-0.937,0.606-0.979,1.149c-0.04,0.509-0.056,1.022-0.049,1.525c0.018,1.251,0.018,1.251-0.547,2.049
		c-0.187,0.264-0.416,0.588-0.698,1.025c-0.647,1.003-1.187,2.125-1.606,3.339c-1.013,0.56-1.76,1.529-1.996,2.622l-0.276,1.28
		c-0.299,1.388,0.219,2.739,1.309,3.529c0.272,3.002,1.494,5.388,3.639,7.106l-0.209,1.135c-0.011,0.061-0.045,0.105-0.088,0.115
		l-6.014,1.468c-1.422,0.417-2.604,1.461-3.302,2.853C6.761,37.739,5.702,33.602,6.054,29.121z"/>
</g>
<g>
</g>
<g>
</g>
<g>
</g>
<g>
</g>
<g>
</g>
<g>
</g>
<g>
</g>
<g>
</g>
<g>
</g>
<g>
</g>
<g>
</g>
<g>
</g>
<g>
</g>
<g>
</g>
<g>
</g>
</svg>
