<?xml version="1.0" encoding="iso-8859-1"?>
<!-- Generator: Adobe Illustrator 18.0.0, SVG Export Plug-In . SVG Version: 6.00 Build 0)  -->
<!DOCTYPE svg PUBLIC "-//W3C//DTD SVG 1.1//EN" "http://www.w3.org/Graphics/SVG/1.1/DTD/svg11.dtd">
<svg version="1.1" id="Capa_1" xmlns="http://www.w3.org/2000/svg" xmlns:xlink="http://www.w3.org/1999/xlink" x="0px" y="0px"
	 viewBox="0 0 60 60" style="enable-background:new 0 0 60 60;" xml:space="preserve">
<g>
	<path d="M36,0h-9c-8.411,0-15,13.178-15,30s6.589,30,15,30h9c8.411,0,15-13.178,15-30S44.411,0,36,0z M30.511,2
		c-0.04,0.031-0.079,0.07-0.119,0.101c-0.293,0.23-0.582,0.473-0.865,0.738c-0.02,0.019-0.041,0.035-0.061,0.054
		c-0.3,0.283-0.592,0.591-0.879,0.912C28.529,3.87,28.471,3.934,28.414,4h-6.14C23.747,2.717,25.342,2,27,2H30.511z M20.414,54
		c-0.467-0.607-0.914-1.277-1.342-2h6.637c0.02,0.036,0.038,0.074,0.058,0.111c0.022,0.04,0.042,0.082,0.064,0.122
		c0.241,0.44,0.491,0.859,0.746,1.267c0.057,0.091,0.114,0.179,0.171,0.268c0.05,0.077,0.098,0.157,0.149,0.232H20.414z M16.412,14
		h6.835c-0.054,0.176-0.109,0.351-0.162,0.53c-0.03,0.103-0.059,0.208-0.089,0.312c-0.109,0.381-0.215,0.766-0.316,1.158h-6.874
		C15.996,15.315,16.198,14.648,16.412,14z M18.007,10h6.727c-0.136,0.308-0.27,0.619-0.4,0.939
		c-0.029,0.071-0.056,0.145-0.085,0.217c-0.111,0.279-0.222,0.558-0.328,0.844h-6.786C17.412,11.304,17.703,10.637,18.007,10z
		 M20.414,6h6.484c-0.05,0.076-0.099,0.155-0.149,0.232C26.691,6.321,26.634,6.41,26.577,6.5c-0.255,0.407-0.505,0.827-0.746,1.267
		c-0.022,0.04-0.042,0.082-0.064,0.122C25.747,7.926,25.728,7.964,25.709,8h-6.637C19.5,7.277,19.947,6.607,20.414,6z M14,30
		c0-0.672,0.016-1.338,0.039-2h6.996C21.014,28.661,21,29.326,21,30s0.014,1.339,0.035,2h-6.996C14.016,31.338,14,30.672,14,30z
		 M21.192,25.117c-0.005,0.062-0.011,0.123-0.016,0.186c-0.017,0.23-0.03,0.465-0.045,0.697h-6.99c0.071-1.017,0.167-2.018,0.29-3
		h6.964c-0.009,0.081-0.014,0.164-0.023,0.245C21.303,23.862,21.242,24.485,21.192,25.117z M21.131,34
		c0.015,0.232,0.027,0.466,0.045,0.697c0.005,0.063,0.011,0.124,0.016,0.186c0.05,0.632,0.111,1.255,0.179,1.872
		c0.009,0.081,0.014,0.165,0.023,0.245h-6.964c-0.122-0.982-0.219-1.983-0.29-3H21.131z M21.661,39
		c0.008,0.05,0.016,0.098,0.024,0.148c0.015,0.094,0.031,0.186,0.047,0.28c0.091,0.57,0.192,1.131,0.299,1.685
		c0.025,0.13,0.049,0.261,0.075,0.389c0.034,0.167,0.068,0.333,0.103,0.498h-6.907c-0.221-0.971-0.413-1.974-0.58-3H21.661z
		 M22.209,18c-0.035,0.165-0.069,0.331-0.103,0.498c-0.026,0.129-0.05,0.259-0.075,0.389c-0.107,0.554-0.208,1.115-0.299,1.685
		c-0.015,0.094-0.032,0.186-0.047,0.28c-0.008,0.049-0.016,0.098-0.024,0.148h-6.94c0.168-1.026,0.36-2.029,0.58-3H22.209z
		 M22.681,44c0.101,0.392,0.207,0.777,0.316,1.158c0.03,0.104,0.058,0.209,0.089,0.312c0.053,0.178,0.107,0.354,0.162,0.53h-6.835
		c-0.214-0.648-0.416-1.315-0.605-2H22.681z M23.922,48c0.106,0.287,0.217,0.566,0.328,0.844c0.029,0.072,0.056,0.146,0.085,0.217
		c0.13,0.319,0.264,0.631,0.4,0.939h-6.727c-0.305-0.637-0.596-1.304-0.871-2H23.922z M30.511,58H27c-1.658,0-3.253-0.717-4.727-2
		h6.14c0.057,0.066,0.115,0.13,0.173,0.195c0.288,0.321,0.58,0.629,0.879,0.912c0.02,0.019,0.041,0.036,0.061,0.054
		c0.283,0.264,0.572,0.507,0.865,0.737C30.432,57.93,30.471,57.969,30.511,58z M36,58c-7.047,0-13-12.822-13-28S28.953,2,36,2
		s13,12.822,13,28S43.047,58,36,58z"/>
	<path d="M36,4c-3.359,0-6.973,4.657-9.108,11.97l-0.096-0.265l-0.723,3.45c-0.101,0.483-0.179,0.981-0.266,1.473
		c-0.017,0.097-0.036,0.193-0.052,0.291c-0.095,0.558-0.181,1.121-0.258,1.69c-0.053,0.39-0.103,0.785-0.148,1.184
		c-0.04,0.359-0.08,0.717-0.112,1.08c-0.063,0.673-0.113,1.357-0.151,2.05c-0.007,0.128-0.016,0.255-0.022,0.383
		C25.022,28.189,25,29.087,25,30c0,0.889,0.022,1.765,0.062,2.626c0.006,0.135,0.015,0.269,0.022,0.404
		c0.036,0.666,0.084,1.322,0.142,1.969c0.035,0.399,0.077,0.794,0.121,1.188c0.04,0.35,0.083,0.697,0.129,1.041
		c0.083,0.627,0.176,1.246,0.281,1.859c0.01,0.061,0.022,0.121,0.032,0.182c0.084,0.481,0.159,0.969,0.256,1.441l0.701,3.398
		l0.094-0.252C28.969,51.271,32.614,56,36,56c5.192,0,11-11.119,11-26S41.192,4,36,4z M28.048,25.062
		c0.284,0.785,0.907,1.324,1.626,1.407l2.073,0.239l0.253-0.777c0.67-2.056,1.829-3.228,3.443-3.484l0.679-0.108l0.143-0.673
		c0.093-0.438,0.26-0.604,0.255-0.617l0.75,0.231c0.087,0.027,0.385,0.3,0.568,0.942l0.128,0.449l0.426,0.19
		c0.564,0.251,1.072,0.599,1.51,1.033c0.188,0.186,0.327,0.338,0.439,0.462c0.39,0.427,0.697,0.695,1.188,0.773
		c-0.002,0.005-0.004,0.011-0.006,0.017c-0.534,1.464-0.59,3.156-0.542,4.318c0.007,0.175,0.011,0.354,0.011,0.537
		c0,4.036-0.831,6.304-2.614,7.138l-0.414,0.193l-0.125,0.44c-0.183,0.647-0.481,0.922-0.57,0.95l-0.704,0.238
		c-0.04-0.021-0.208-0.187-0.3-0.625l-0.143-0.672l-0.679-0.108c-1.615-0.256-2.773-1.429-3.443-3.484l-0.253-0.777l-2.082,0.24
		c-0.71,0.082-1.331,0.611-1.617,1.38l-0.632,1.689c-0.025-0.201-0.052-0.399-0.075-0.603c-0.07-0.626-0.127-1.26-0.175-1.898
		c-0.026-0.344-0.057-0.682-0.076-1.033C27.036,32.057,27,31.036,27,30c0-1.044,0.037-2.071,0.093-3.089
		c0.02-0.348,0.05-0.683,0.075-1.024c0.049-0.656,0.109-1.305,0.181-1.948c0.023-0.204,0.049-0.403,0.075-0.604L28.048,25.062z
		 M36,54c-2.332,0-6.09-4.936-7.922-13.454l1.844-4.933c0.018-0.048,0.038-0.082,0.053-0.103l0.409-0.047
		c1.045,2.524,2.699,3.547,4.12,3.932c0.232,0.574,0.592,1.021,1.046,1.288c0.474,0.279,1.028,0.343,1.558,0.18l0.749-0.23
		c0.751-0.23,1.392-0.923,1.765-1.888c3.011-1.719,3.371-5.784,3.371-8.745c0-0.211-0.005-0.417-0.013-0.62
		c-0.057-1.387,0.093-2.647,0.423-3.549c0.183-0.502,0.317-0.722,0.38-0.808c0.318-0.432,0.276-0.991,0.093-1.354
		c-0.191-0.378-0.563-0.613-0.971-0.613c-0.225,0-0.49,0.017-0.786,0.066c-0.065,0.011-0.122,0.021-0.17,0.027
		c-0.038-0.041-0.08-0.088-0.129-0.143c-0.13-0.143-0.292-0.319-0.509-0.535c-0.504-0.498-1.073-0.915-1.698-1.242
		c-0.375-0.952-1.011-1.634-1.754-1.862l-0.749-0.23c-0.53-0.164-1.084-0.1-1.558,0.18c-0.454,0.267-0.814,0.713-1.046,1.287
		c-1.421,0.385-3.075,1.408-4.12,3.932l-0.399-0.046c-0.016-0.022-0.038-0.058-0.056-0.108l-1.823-5.05C29.948,10.89,33.68,6,36,6
		c3.173,0,9,9.112,9,24S39.173,54,36,54z"/>
	<path d="M9,46.905c-0.552,0-1,0.448-1,1v3.497c-2.987-1.283-6-3.355-6-6.497c0-2.158,1.932-4.291,5.439-6.007
		c0.496-0.243,0.702-0.842,0.459-1.338c-0.243-0.496-0.84-0.701-1.338-0.459C1.138,39.754,0,42.81,0,44.905
		c0,2.419,1.278,5.717,7.011,8.242L4.4,55.105c-0.442,0.331-0.531,0.958-0.2,1.4c0.196,0.262,0.497,0.4,0.801,0.4
		c0.208,0,0.419-0.065,0.599-0.2l4-3c0.019-0.014,0.028-0.036,0.046-0.052c0.053-0.045,0.094-0.097,0.136-0.153
		c0.038-0.05,0.076-0.098,0.103-0.153c0.021-0.042,0.036-0.085,0.051-0.13c0.001-0.002,0.003-0.004,0.004-0.006
		c0.005-0.013,0.002-0.025,0.006-0.038c0.019-0.067,0.035-0.131,0.04-0.2C9.988,52.95,10,52.929,10,52.905v-5
		C10,47.353,9.552,46.905,9,46.905z"/>
	<path d="M52.989,5.853L55.6,3.895c0.442-0.331,0.531-0.958,0.2-1.4c-0.331-0.44-0.956-0.532-1.4-0.2l-4,3
		c-0.019,0.014-0.028,0.036-0.046,0.052c-0.053,0.045-0.094,0.097-0.136,0.153c-0.038,0.05-0.076,0.098-0.103,0.153
		c-0.021,0.042-0.036,0.085-0.051,0.131c-0.001,0.002-0.003,0.003-0.003,0.006c-0.005,0.013-0.002,0.026-0.006,0.038
		c-0.019,0.067-0.035,0.131-0.04,0.2C50.012,6.05,50,6.071,50,6.095v5c0,0.552,0.448,1,1,1s1-0.448,1-1V7.598
		c2.987,1.283,6,3.355,6,6.497c0,2.158-1.932,4.291-5.439,6.007c-0.496,0.243-0.702,0.842-0.459,1.338
		C52.275,21.794,52.631,22,53.001,22c0.147,0,0.297-0.033,0.438-0.102C58.862,19.246,60,16.19,60,14.095
		C60,11.676,58.722,8.377,52.989,5.853z"/>
</g>
<g>
</g>
<g>
</g>
<g>
</g>
<g>
</g>
<g>
</g>
<g>
</g>
<g>
</g>
<g>
</g>
<g>
</g>
<g>
</g>
<g>
</g>
<g>
</g>
<g>
</g>
<g>
</g>
<g>
</g>
</svg>
