<?xml version="1.0" encoding="iso-8859-1"?>
<!-- Generator: Adobe Illustrator 18.0.0, SVG Export Plug-In . SVG Version: 6.00 Build 0)  -->
<!DOCTYPE svg PUBLIC "-//W3C//DTD SVG 1.1//EN" "http://www.w3.org/Graphics/SVG/1.1/DTD/svg11.dtd">
<svg version="1.1" id="Capa_1" xmlns="http://www.w3.org/2000/svg" xmlns:xlink="http://www.w3.org/1999/xlink" x="0px" y="0px"
	 viewBox="0 0 58 58" style="enable-background:new 0 0 58 58;" xml:space="preserve">
<g>
	<path d="M32,0c-1.021,0-2.025,0.076-3.015,0.21C27.953,0.072,26.972,0,26,0C18.638,0,11.999,3.571,7.34,9.264
		C7.293,9.306,7.259,9.356,7.221,9.406c-1.485,1.839-2.761,3.898-3.793,6.126c-0.026,0.049-0.049,0.097-0.068,0.15
		c-0.711,1.557-1.304,3.193-1.76,4.897c-0.045,0.096-0.065,0.201-0.078,0.31C0.861,23.465,0.5,26.185,0.5,29
		c0,4.404,0.872,8.579,2.423,12.321c0.014,0.04,0.027,0.078,0.046,0.116c0.93,2.218,2.1,4.28,3.473,6.145
		c0.035,0.048,0.064,0.099,0.107,0.14c1.39,1.865,2.983,3.526,4.74,4.942c0.05,0.055,0.11,0.096,0.172,0.139
		C15.588,56.075,20.599,58,26,58c0.972,0,1.953-0.072,2.985-0.21C29.975,57.924,30.979,58,32,58c14.061,0,25.5-13.009,25.5-29
		S46.061,0,32,0z M21.44,2.614c-0.331,0.172-0.658,0.352-0.981,0.539c-0.181,0.105-0.363,0.206-0.541,0.316
		C19.641,3.639,19.37,3.819,19.1,4h-1.925c1.462-0.684,2.988-1.223,4.579-1.558C21.647,2.495,21.546,2.559,21.44,2.614z M11.36,46
		H7.774c-0.882-1.246-1.665-2.585-2.345-4h3.788c0.157,0.354,0.318,0.705,0.487,1.051c0.073,0.149,0.149,0.296,0.225,0.444
		c0.205,0.402,0.417,0.797,0.638,1.186c0.082,0.145,0.161,0.292,0.246,0.436C10.989,45.416,11.174,45.708,11.36,46z M4.968,17h3.827
		c-0.175,0.437-0.341,0.879-0.498,1.327c-0.043,0.124-0.087,0.247-0.129,0.371C8.024,19.128,7.89,19.562,7.763,20H3.857
		C4.175,18.969,4.547,17.969,4.968,17z M2.5,29c0-0.674,0.036-1.338,0.078-2h3.987c-0.001,0.016-0.001,0.032-0.002,0.048
		C6.526,27.694,6.5,28.343,6.5,29c0,0.335,0.012,0.667,0.022,1H2.539C2.528,29.666,2.5,29.337,2.5,29z M6.636,32
		c0.038,0.421,0.087,0.839,0.141,1.255c0.004,0.03,0.006,0.061,0.01,0.092C6.861,33.903,6.951,34.454,7.052,35H3.108
		c-0.195-0.982-0.349-1.981-0.448-3H6.636z M7.256,22c-0.026,0.118-0.048,0.238-0.072,0.356c-0.027,0.132-0.055,0.263-0.081,0.395
		c-0.122,0.627-0.23,1.26-0.315,1.902c-0.004,0.03-0.006,0.061-0.01,0.092C6.766,24.83,6.759,24.915,6.748,25H2.779
		c0.132-1.018,0.299-2.022,0.528-3H7.256z M7.495,37c0.031,0.122,0.06,0.246,0.092,0.367c0.012,0.044,0.022,0.09,0.034,0.134
		c0.165,0.609,0.35,1.208,0.548,1.8c0.042,0.125,0.086,0.247,0.129,0.371C8.335,39.782,8.372,39.892,8.411,40H4.558
		c-0.379-0.971-0.705-1.973-0.983-3H7.495z M10.812,12.884c-0.084,0.143-0.164,0.291-0.246,0.436
		c-0.221,0.389-0.434,0.785-0.638,1.186c-0.075,0.148-0.152,0.294-0.225,0.444C9.695,14.966,9.686,14.983,9.678,15H5.929
		c0.757-1.427,1.629-2.762,2.596-4h3.503c-0.122,0.175-0.245,0.349-0.364,0.527C11.369,11.97,11.085,12.422,10.812,12.884z
		 M13.732,6h2.762c-0.248,0.217-0.496,0.435-0.737,0.662c-0.201,0.19-0.396,0.387-0.592,0.584c-0.198,0.199-0.394,0.401-0.586,0.606
		c-0.185,0.197-0.37,0.393-0.55,0.596C13.869,8.628,13.716,8.815,13.561,9h-3.302C11.333,7.883,12.492,6.876,13.732,6z M9.324,48
		h3.432c0.113,0.148,0.225,0.296,0.341,0.441c0.302,0.38,0.613,0.75,0.932,1.111c0.179,0.203,0.365,0.399,0.55,0.596
		c0.193,0.206,0.389,0.408,0.588,0.607c0.08,0.08,0.156,0.166,0.237,0.245h-3.008C11.297,50.101,10.27,49.097,9.324,48z
		 M21.753,55.558c-2.293-0.483-4.46-1.369-6.47-2.558h2.419c0.128,0.099,0.26,0.192,0.389,0.288
		c0.207,0.154,0.414,0.309,0.625,0.456c0.393,0.274,0.794,0.537,1.201,0.787c0.178,0.109,0.36,0.211,0.541,0.316
		c0.323,0.187,0.65,0.367,0.981,0.539C21.546,55.441,21.647,55.505,21.753,55.558z M32,56c-0.795,0-1.58-0.047-2.354-0.136
		l-0.387-0.054c-0.054-0.007-0.107-0.016-0.16-0.023c-0.346-0.049-0.689-0.106-1.029-0.172c-0.029-0.006-0.057-0.012-0.085-0.018
		c-0.331-0.065-0.659-0.138-0.984-0.219c-0.049-0.012-0.098-0.026-0.147-0.039c-0.303-0.078-0.605-0.16-0.903-0.251
		c-0.091-0.028-0.182-0.06-0.273-0.089c-0.255-0.081-0.509-0.164-0.76-0.255c-0.204-0.074-0.405-0.156-0.606-0.236
		c-0.137-0.054-0.276-0.105-0.411-0.162c-5.377-2.275-9.836-6.748-12.549-12.466c-0.025-0.052-0.048-0.107-0.072-0.159
		c-0.145-0.311-0.286-0.625-0.421-0.943c-0.054-0.127-0.104-0.256-0.156-0.384c-0.101-0.248-0.201-0.497-0.295-0.749
		c-0.061-0.162-0.118-0.327-0.176-0.491c-0.079-0.222-0.157-0.445-0.23-0.67c-0.06-0.184-0.117-0.37-0.174-0.555
		c-0.065-0.211-0.128-0.423-0.188-0.636C9.584,37.098,9.531,36.9,9.48,36.703c-0.054-0.209-0.106-0.42-0.156-0.631
		c-0.048-0.202-0.094-0.404-0.138-0.608c-0.046-0.213-0.088-0.427-0.129-0.642c-0.039-0.205-0.078-0.41-0.114-0.617
		c-0.038-0.221-0.071-0.443-0.104-0.666c-0.03-0.202-0.061-0.403-0.087-0.607c-0.031-0.24-0.055-0.483-0.08-0.725
		c-0.02-0.189-0.042-0.377-0.058-0.567c-0.024-0.278-0.04-0.558-0.056-0.839c-0.009-0.158-0.022-0.314-0.029-0.472
		C8.511,29.889,8.5,29.446,8.5,29s0.011-0.889,0.029-1.33c0.007-0.158,0.02-0.315,0.029-0.472c0.016-0.28,0.032-0.561,0.056-0.839
		c0.016-0.19,0.038-0.378,0.058-0.567c0.025-0.242,0.05-0.484,0.08-0.725c0.026-0.203,0.057-0.405,0.087-0.607
		c0.033-0.223,0.066-0.445,0.104-0.666c0.035-0.207,0.074-0.412,0.114-0.617c0.041-0.215,0.084-0.429,0.129-0.642
		c0.044-0.204,0.09-0.406,0.138-0.608c0.05-0.211,0.102-0.422,0.156-0.631c0.051-0.198,0.104-0.395,0.159-0.591
		c0.06-0.213,0.123-0.425,0.188-0.636c0.057-0.186,0.114-0.371,0.174-0.555c0.074-0.225,0.152-0.448,0.231-0.671
		c0.058-0.164,0.115-0.328,0.176-0.49c0.095-0.252,0.194-0.501,0.295-0.749c0.052-0.128,0.102-0.257,0.156-0.384
		c0.135-0.318,0.276-0.632,0.421-0.943c0.025-0.053,0.047-0.107,0.072-0.159c2.713-5.718,7.172-10.19,12.549-12.466
		c0.136-0.057,0.274-0.108,0.411-0.162c0.201-0.08,0.402-0.162,0.606-0.236c0.251-0.091,0.505-0.173,0.76-0.255
		c0.091-0.029,0.181-0.061,0.273-0.089c0.298-0.091,0.6-0.174,0.903-0.251C26.902,2.648,26.951,2.633,27,2.621
		c0.325-0.081,0.653-0.153,0.984-0.219c0.029-0.006,0.057-0.012,0.085-0.018c0.34-0.066,0.683-0.123,1.029-0.172
		c0.053-0.008,0.107-0.016,0.16-0.023l0.387-0.054C30.42,2.047,31.205,2,32,2c12.958,0,23.5,12.112,23.5,27S44.958,56,32,56z"/>
	<path d="M32,4C20.145,4,10.5,15.215,10.5,29c0,8.618,3.77,16.232,9.493,20.729l-0.009,0.017l0.715,0.516
		c0.023,0.017,0.047,0.03,0.07,0.047c0.373,0.267,0.754,0.519,1.141,0.76c0.085,0.053,0.172,0.102,0.258,0.154
		c0.331,0.199,0.668,0.388,1.009,0.568c0.084,0.044,0.166,0.089,0.25,0.132c0.419,0.213,0.844,0.413,1.276,0.595
		c0.012,0.005,0.025,0.009,0.037,0.015c0.414,0.173,0.835,0.328,1.26,0.472c0.082,0.028,0.164,0.055,0.246,0.081
		c0.423,0.137,0.85,0.262,1.283,0.369c0.014,0.003,0.028,0.008,0.042,0.011c0.45,0.11,0.906,0.202,1.367,0.278
		c0.089,0.015,0.178,0.026,0.266,0.039c0.361,0.055,0.725,0.099,1.092,0.133c0.117,0.011,0.234,0.023,0.351,0.031
		C31.095,53.978,31.545,54,32,54c0.628,0,1.247-0.038,1.861-0.1c0.06-0.006,0.12-0.009,0.179-0.016
		c0.602-0.066,1.196-0.165,1.783-0.288c0.064-0.013,0.127-0.026,0.191-0.04c0.591-0.13,1.173-0.29,1.746-0.475
		c0.057-0.018,0.113-0.037,0.17-0.056c0.581-0.194,1.152-0.414,1.712-0.663c0.048-0.021,0.095-0.044,0.143-0.065
		c0.569-0.258,1.127-0.54,1.671-0.851c0.037-0.021,0.074-0.045,0.111-0.066c0.556-0.323,1.1-0.669,1.628-1.044
		c0.021-0.015,0.042-0.032,0.063-0.047c0.54-0.388,1.066-0.801,1.574-1.241c0.006-0.005,0.013-0.01,0.019-0.016
		c0.507-0.441,0.995-0.911,1.467-1.401c0.021-0.022,0.044-0.04,0.065-0.062l0.47-0.493l-0.008-0.016
		C50.94,42.506,53.5,36.096,53.5,29C53.5,15.215,43.855,4,32,4z M12.5,29c0-12.682,8.748-23,19.5-23s19.5,10.318,19.5,23
		c0,6.341-2.187,12.09-5.717,16.255c-0.386-0.448-0.835-0.819-1.347-1.077l-4.687-2.412c-0.008-0.009-0.03-0.052-0.03-0.125v-1.182
		c2.153-1.376,3.63-3.608,4.399-6.649c1.116-0.654,1.833-1.961,1.833-3.422v-1.438c0-1.208-0.503-2.368-1.337-3.135
		c-0.673-5.505-3.898-8.565-9.848-9.35c-0.296-0.039-0.588-0.065-0.875-0.077c-1.345-0.059-3.331-0.458-5.159-2.023
		c-0.714-0.611-1.264-1.199-1.633-1.746c-0.355-0.527-1.004-0.75-1.575-0.54c-0.559,0.204-0.891,0.75-0.825,1.36
		c0.077,0.715,0.183,1.437,0.315,2.147c0.355,1.912,0.326,1.975-0.17,3.027c-0.163,0.345-0.362,0.77-0.599,1.343
		c-0.555,1.349-0.941,2.863-1.149,4.508c-1.164,0.774-1.867,2.084-1.867,3.541v1.73c0,1.726,1.021,3.314,2.54,4.041
		c1.004,3.482,2.848,5.902,5.49,7.207v1.218c0,0.126-0.069,0.256-0.169,0.316l-6.21,3.753c-0.706,0.465-1.325,1.061-1.842,1.742
		C15.889,43.868,12.5,36.892,12.5,29z M35.297,51.665c-0.505,0.103-1.014,0.181-1.526,0.236c-0.07,0.007-0.14,0.012-0.21,0.019
		C33.043,51.969,32.523,52,32,52c-0.381,0-0.76-0.016-1.139-0.042c-0.099-0.007-0.196-0.018-0.295-0.026
		c-0.29-0.025-0.579-0.056-0.867-0.097c-0.096-0.013-0.191-0.028-0.286-0.043c-0.316-0.05-0.631-0.108-0.944-0.176
		c-0.054-0.012-0.109-0.022-0.163-0.034c-1.165-0.266-2.306-0.656-3.41-1.168c-0.023-0.011-0.047-0.022-0.07-0.033
		c-0.742-0.348-1.468-0.749-2.172-1.205c0.372-0.482,0.813-0.896,1.294-1.214l6.177-3.732c0.7-0.423,1.135-1.2,1.135-2.028v-2.534
		l-0.62-0.255c-2.489-1.021-4.194-3.252-5.068-6.628l-0.138-0.531l-0.522-0.169c-0.991-0.321-1.683-1.287-1.683-2.349v-1.73
		c0-0.881,0.474-1.657,1.238-2.025l0.503-0.243l0.057-0.556c0.169-1.652,0.529-3.154,1.067-4.462
		c0.22-0.534,0.407-0.931,0.559-1.253c0.648-1.376,0.756-1.845,0.384-3.929c0.126,0.115,0.256,0.231,0.392,0.347
		c1.789,1.533,3.993,2.398,6.373,2.502c0.23,0.01,0.464,0.03,0.701,0.062c5.179,0.683,7.697,3.145,8.165,7.981l0.044,0.459
		l0.378,0.264c0.53,0.371,0.86,1.06,0.86,1.798v1.438c0,0.828-0.428,1.564-1.041,1.79l-0.513,0.188l-0.119,0.533
		c-0.665,2.985-1.987,4.985-4.042,6.115l-0.518,0.285v2.342c0,0.816,0.418,1.539,1.091,1.886l4.715,2.431l0.008,0.004
		c0.335,0.169,0.631,0.426,0.876,0.758c-2.601,2.539-5.693,4.221-8.974,4.916C35.389,51.645,35.343,51.655,35.297,51.665z"/>
</g>
<g>
</g>
<g>
</g>
<g>
</g>
<g>
</g>
<g>
</g>
<g>
</g>
<g>
</g>
<g>
</g>
<g>
</g>
<g>
</g>
<g>
</g>
<g>
</g>
<g>
</g>
<g>
</g>
<g>
</g>
</svg>
