<?xml version="1.0" encoding="iso-8859-1"?>
<!-- Generator: Adobe Illustrator 18.0.0, SVG Export Plug-In . SVG Version: 6.00 Build 0)  -->
<!DOCTYPE svg PUBLIC "-//W3C//DTD SVG 1.1//EN" "http://www.w3.org/Graphics/SVG/1.1/DTD/svg11.dtd">
<svg version="1.1" id="Capa_1" xmlns="http://www.w3.org/2000/svg" xmlns:xlink="http://www.w3.org/1999/xlink" x="0px" y="0px"
	 viewBox="0 0 58.829 58.829" style="enable-background:new 0 0 58.829 58.829;" xml:space="preserve">
<g>
	<path d="M58.533,32.05c0.335-2.301,0.383-4.6,0.143-6.844c0.004-0.076-0.01-0.148-0.024-0.223
		c-0.606-5.231-2.788-10.134-6.607-13.953c-0.688-0.689-1.433-1.331-2.26-1.963c-0.605-0.794-1.262-1.558-1.983-2.279
		c-9.942-9.942-27.23-8.831-38.537,2.475C-2.041,20.569-3.151,37.857,6.791,47.799c0.708,0.708,1.464,1.339,2.241,1.935
		c0.645,0.847,1.299,1.605,2.002,2.307c3.36,3.36,7.56,5.448,12.082,6.317c0.02,0.008,0.041,0.007,0.061,0.014
		c0.086,0.016,0.172,0.035,0.258,0.05c0.021,0.001,0.041,0.012,0.062,0.012c0.004,0,0.007-0.002,0.011-0.002
		c1.482,0.26,2.994,0.397,4.524,0.397c0.915,0,1.836-0.048,2.758-0.141c0.013,0.001,0.026,0.008,0.039,0.008
		c0.045,0,0.088-0.02,0.133-0.026c2.358-0.251,4.725-0.803,7.037-1.654c0.042-0.014,0.082-0.029,0.123-0.048
		c1.601-0.597,3.173-1.34,4.699-2.221c0.099-0.034,0.188-0.091,0.274-0.157c1.47-0.868,2.893-1.866,4.25-2.997
		c0.001-0.001,0.003-0.002,0.005-0.003c0.001-0.001,0.001-0.002,0.001-0.002c0.76-0.634,1.502-1.305,2.218-2.021
		c3.114-3.114,5.45-6.683,6.999-10.426c0.019-0.039,0.036-0.075,0.05-0.115c0.909-2.222,1.539-4.505,1.888-6.79
		C58.518,32.173,58.535,32.113,58.533,32.05z M55.278,36.89L52.6,34.212c0.139-0.36,0.273-0.722,0.398-1.085
		c0.055-0.159,0.105-0.319,0.157-0.479c0.138-0.426,0.266-0.853,0.385-1.281c0.045-0.163,0.094-0.326,0.136-0.49
		c0.087-0.336,0.163-0.673,0.237-1.01l2.536,2.536C56.191,33.908,55.798,35.408,55.278,36.89z M53.053,41.736l-2.772-2.772
		c0.064-0.107,0.13-0.213,0.192-0.321c0.024-0.042,0.051-0.083,0.075-0.124c0.314-0.546,0.606-1.1,0.884-1.657
		c0.059-0.119,0.116-0.238,0.173-0.357c0.05-0.103,0.101-0.206,0.15-0.309l2.724,2.724C54.061,39.874,53.583,40.813,53.053,41.736z
		 M50.164,45.918l-2.811-2.811c0.27-0.324,0.531-0.653,0.786-0.985c0.019-0.025,0.04-0.049,0.06-0.075
		c0.341-0.446,0.667-0.898,0.981-1.356l2.789,2.789C51.413,44.312,50.815,45.127,50.164,45.918z M54.34,27.466
		c0.025-0.186,0.05-0.371,0.072-0.557c0.054-0.479,0.096-0.958,0.125-1.436c0.017-0.275,0.025-0.548,0.033-0.822
		c0.009-0.277,0.013-0.553,0.014-0.829c0-0.116,0.007-0.233,0.006-0.349l2.126,2.126c0.141,1.412,0.156,2.848,0.05,4.293
		L54.34,27.466z M53.322,15.76c1.28,1.962,2.186,4.121,2.766,6.383l-1.71-1.71c-0.02-0.158-0.047-0.314-0.07-0.47
		c-0.038-0.26-0.075-0.52-0.121-0.778c-0.084-0.47-0.181-0.936-0.291-1.398c-0.05-0.207-0.107-0.41-0.162-0.616
		c-0.095-0.356-0.198-0.71-0.309-1.061C53.387,15.994,53.36,15.875,53.322,15.76z M10.68,10.676
		c5.742-5.742,13.117-8.682,20.123-8.682c5.838,0,11.421,2.043,15.586,6.208c0.561,0.561,1.082,1.148,1.566,1.757l0.26,0.344
		c0.02,0.026,0.039,0.053,0.059,0.079c0.441,0.585,0.847,1.188,1.22,1.808c0.008,0.014,0.016,0.028,0.024,0.042
		c0.366,0.612,0.699,1.241,0.999,1.883c0.014,0.029,0.026,0.06,0.039,0.089c0.284,0.614,0.537,1.241,0.761,1.878
		c0.019,0.056,0.039,0.111,0.058,0.167c0.195,0.57,0.359,1.15,0.507,1.735c0.034,0.136,0.073,0.27,0.105,0.407
		c0.129,0.551,0.229,1.109,0.317,1.67c0.03,0.194,0.063,0.387,0.088,0.583c0.07,0.534,0.118,1.072,0.151,1.613
		c0.014,0.221,0.026,0.443,0.034,0.666c0.019,0.535,0.02,1.073,0.004,1.612c-0.007,0.221-0.018,0.441-0.03,0.662
		c-0.031,0.553-0.076,1.108-0.143,1.663c-0.023,0.194-0.054,0.388-0.081,0.582c-0.084,0.588-0.181,1.175-0.306,1.761
		c-0.029,0.138-0.066,0.275-0.097,0.412c-0.135,0.59-0.286,1.178-0.462,1.764c-0.026,0.088-0.05,0.177-0.077,0.265
		c-0.201,0.648-0.43,1.291-0.68,1.93c-0.037,0.096-0.071,0.192-0.11,0.287c-0.258,0.64-0.543,1.273-0.85,1.9
		c-0.048,0.098-0.094,0.196-0.143,0.293c-0.314,0.625-0.654,1.242-1.016,1.852c-0.055,0.093-0.111,0.185-0.167,0.277
		c-0.373,0.611-0.768,1.213-1.189,1.804c-0.058,0.081-0.118,0.161-0.177,0.242c-0.436,0.599-0.893,1.188-1.378,1.762
		c-0.048,0.057-0.099,0.112-0.148,0.169c-0.512,0.597-1.046,1.182-1.612,1.748c-0.569,0.569-1.157,1.105-1.757,1.62
		c-0.052,0.045-0.103,0.092-0.156,0.137c-0.579,0.49-1.174,0.951-1.778,1.391c-0.074,0.054-0.148,0.109-0.223,0.163
		c-0.598,0.427-1.208,0.827-1.826,1.204c-0.083,0.05-0.166,0.1-0.249,0.15c-0.619,0.369-1.247,0.714-1.883,1.033
		c-0.084,0.042-0.168,0.082-0.253,0.123c-0.641,0.314-1.288,0.605-1.941,0.868c-0.078,0.031-0.157,0.06-0.236,0.09
		c-0.664,0.26-1.333,0.499-2.006,0.707c-0.058,0.018-0.116,0.032-0.174,0.049c-0.616,0.186-1.236,0.345-1.857,0.486
		c-0.117,0.026-0.234,0.058-0.351,0.083c-0.603,0.129-1.208,0.228-1.813,0.315c-0.176,0.025-0.353,0.053-0.529,0.074
		c-0.57,0.069-1.138,0.115-1.706,0.147c-0.207,0.011-0.413,0.022-0.619,0.028c-0.552,0.017-1.103,0.015-1.651-0.004
		c-0.209-0.007-0.418-0.019-0.626-0.032c-0.552-0.034-1.102-0.083-1.648-0.155c-0.183-0.024-0.365-0.055-0.548-0.083
		c-0.572-0.089-1.141-0.191-1.702-0.323c-0.126-0.029-0.25-0.066-0.375-0.097c-0.6-0.151-1.196-0.32-1.78-0.521
		c-0.042-0.014-0.083-0.029-0.125-0.043c-0.648-0.227-1.285-0.484-1.909-0.773c-0.024-0.011-0.048-0.02-0.071-0.031
		c-0.645-0.301-1.277-0.636-1.892-1.004c-0.012-0.007-0.023-0.013-0.035-0.02c-0.621-0.373-1.226-0.78-1.812-1.222
		c-0.023-0.017-0.046-0.034-0.069-0.052L9.961,47.95c-0.609-0.484-1.195-1.004-1.756-1.565C-0.957,37.222,0.153,21.203,10.68,10.676
		z M42.636,52.532l-2.796-2.796c0.132-0.085,0.265-0.166,0.396-0.253c0.041-0.027,0.083-0.052,0.123-0.079
		c0.533-0.356,1.058-0.734,1.575-1.127c0.126-0.096,0.249-0.196,0.374-0.293c0.004-0.003,0.008-0.007,0.013-0.01l2.809,2.809
		C44.318,51.41,43.489,52.003,42.636,52.532z M37.927,54.894l-2.703-2.703c0.471-0.201,0.939-0.416,1.404-0.642
		c0.11-0.054,0.219-0.112,0.329-0.168c0.374-0.188,0.746-0.381,1.115-0.585l2.763,2.763C39.88,54.062,38.91,54.506,37.927,54.894z
		 M31.169,56.621l-2.477-2.477c0.211-0.038,0.421-0.074,0.632-0.116c0.533-0.107,1.066-0.227,1.597-0.365
		c0.162-0.042,0.324-0.093,0.486-0.138c0.423-0.117,0.844-0.243,1.265-0.38c0.17-0.055,0.34-0.111,0.509-0.17l2.653,2.653
		C34.288,56.102,32.728,56.429,31.169,56.621z M16.495,53.531c0.19,0.057,0.379,0.114,0.57,0.166
		c0.552,0.15,1.109,0.279,1.671,0.391l1.366,1.367c-1.517-0.55-2.977-1.248-4.339-2.136C16.005,53.399,16.252,53.458,16.495,53.531z
		 M23.951,56.475l-1.955-1.956c0.561,0.038,1.123,0.062,1.689,0.064c0.035,0,0.07,0.005,0.105,0.005
		c0.225,0,0.452-0.012,0.678-0.018c0.466-0.012,0.933-0.035,1.401-0.071c0.108-0.008,0.217-0.016,0.325-0.025l2.335,2.335
		C26.979,56.839,25.447,56.732,23.951,56.475z M46.687,49.512l-2.82-2.82c0.008-0.007,0.015-0.015,0.023-0.022
		c0.488-0.433,0.969-0.878,1.438-1.346c0.237-0.237,0.463-0.481,0.692-0.723l2.817,2.817c-0.229,0.244-0.441,0.497-0.68,0.735
		C47.68,48.63,47.185,49.074,46.687,49.512z"/>
	<path d="M8.909,21.324c0.142,0.069,0.292,0.102,0.439,0.102c0.37,0,0.725-0.206,0.898-0.56c0.277-0.565,0.582-1.125,0.906-1.666
		c0.284-0.474,0.131-1.088-0.343-1.372s-1.088-0.131-1.372,0.343c-0.354,0.589-0.686,1.2-0.987,1.815
		C8.208,20.483,8.413,21.082,8.909,21.324z"/>
	<path d="M13.954,14.985c0.266,0,0.533-0.102,0.732-0.302c0.438-0.438,0.896-0.862,1.363-1.261c0.42-0.359,0.469-0.99,0.11-1.41
		c-0.359-0.419-0.99-0.468-1.41-0.11c-0.505,0.432-1.002,0.892-1.492,1.382l0.688,0.726l-0.707-0.707
		c-0.391,0.391-0.374,1.006,0.017,1.397C13.447,14.891,13.7,14.985,13.954,14.985z"/>
	<path d="M10.161,40.27c-0.434,0.342-0.508,0.971-0.166,1.404c0.423,0.537,0.886,1.057,1.33,1.498
		c0.022,0.025,0.067,0.071,0.092,0.094c0.189,0.177,0.428,0.264,0.667,0.264c0.263,0,0.525-0.105,0.724-0.311
		c0.379-0.393,0.363-1.027-0.023-1.413c-0.434-0.434-0.844-0.895-1.219-1.37C11.223,40.002,10.595,39.928,10.161,40.27z"/>
	<path d="M46.425,26.512c-0.061,0.619-0.153,1.247-0.274,1.867c-0.106,0.542,0.248,1.067,0.79,1.173
		c0.064,0.013,0.129,0.019,0.192,0.019c0.469,0,0.887-0.331,0.98-0.809c0.133-0.682,0.234-1.373,0.302-2.054
		c0.054-0.549-0.347-1.039-0.897-1.093C46.969,25.56,46.48,25.963,46.425,26.512z"/>
	<path d="M16.053,45.486c-0.229,0.502-0.008,1.096,0.494,1.325c0.63,0.288,1.288,0.543,1.954,0.759
		c0.103,0.033,0.207,0.049,0.309,0.049c0.422,0,0.814-0.269,0.951-0.692c0.17-0.525-0.117-1.089-0.643-1.26
		c-0.594-0.193-1.179-0.42-1.74-0.676C16.875,44.761,16.282,44.983,16.053,45.486z"/>
	<path d="M46.144,20.896c0.098,0.472,0.514,0.796,0.978,0.796c0.067,0,0.136-0.007,0.205-0.021c0.541-0.112,0.888-0.642,0.775-1.183
		c-0.142-0.683-0.323-1.363-0.538-2.021c-0.171-0.524-0.733-0.812-1.261-0.641c-0.525,0.171-0.812,0.736-0.641,1.261
		C45.855,19.677,46.017,20.285,46.144,20.896z"/>
	<path d="M8.94,35.525c-0.193-0.587-0.355-1.195-0.484-1.807c-0.113-0.54-0.64-0.885-1.184-0.773
		c-0.541,0.113-0.887,0.644-0.773,1.184c0.144,0.684,0.326,1.363,0.541,2.02c0.138,0.421,0.53,0.688,0.95,0.688
		c0.103,0,0.208-0.017,0.312-0.05C8.826,36.615,9.112,36.05,8.94,35.525z"/>
	<path d="M7.172,29.007c0.509,0,0.944-0.387,0.994-0.903c0.061-0.619,0.152-1.247,0.272-1.868c0.105-0.542-0.25-1.067-0.792-1.172
		c-0.543-0.104-1.067,0.25-1.172,0.792c-0.132,0.682-0.232,1.373-0.298,2.054c-0.054,0.55,0.349,1.039,0.898,1.092
		C7.107,29.005,7.139,29.007,7.172,29.007z"/>
	<path d="M24.664,48.517c0.001,0,0.002,0,0.004,0c0.688-0.002,1.386-0.039,2.075-0.108c0.55-0.055,0.951-0.545,0.896-1.095
		c-0.055-0.549-0.543-0.946-1.095-0.896c-0.625,0.063-1.259,0.096-1.884,0.098c-0.552,0.002-0.998,0.452-0.996,1.004
		C23.666,48.072,24.113,48.517,24.664,48.517z"/>
	<path d="M32.407,47.014c0.121,0,0.244-0.022,0.363-0.069c0.636-0.248,1.272-0.529,1.893-0.835c0.496-0.245,0.699-0.844,0.455-1.339
		c-0.244-0.495-0.843-0.697-1.339-0.455c-0.569,0.281-1.153,0.539-1.735,0.766c-0.515,0.201-0.769,0.781-0.568,1.295
		C31.629,46.773,32.007,47.014,32.407,47.014z"/>
	<path d="M27.919,8.176c0.034,0,0.068-0.001,0.102-0.005c0.625-0.063,1.259-0.097,1.884-0.101c0.552-0.003,0.998-0.453,0.995-1.005
		c-0.003-0.55-0.45-0.995-1-0.995c-0.001,0-0.003,0-0.005,0c-0.688,0.003-1.387,0.041-2.076,0.111
		c-0.549,0.056-0.949,0.546-0.893,1.096C26.978,7.792,27.412,8.176,27.919,8.176z"/>
	<path d="M20.347,10.387c0.149,0,0.3-0.033,0.443-0.104c0.565-0.28,1.148-0.538,1.734-0.769c0.514-0.202,0.768-0.782,0.565-1.296
		c-0.202-0.514-0.782-0.769-1.296-0.565c-0.639,0.25-1.276,0.533-1.892,0.838c-0.495,0.245-0.697,0.845-0.452,1.34
		C19.625,10.183,19.979,10.387,20.347,10.387z"/>
	<path d="M43.047,14.174c0.197,0.251,0.491,0.382,0.787,0.382c0.216,0,0.435-0.07,0.618-0.214c0.434-0.342,0.509-0.97,0.168-1.404
		c-0.431-0.547-0.9-1.076-1.407-1.583l-0.738,0.676l0.707-0.707c-0.391-0.392-1.002-0.37-1.393,0.021s-0.369,1.045,0.021,1.436
		C42.249,13.22,42.665,13.689,43.047,14.174z"/>
	<path d="M44.334,33.745c-0.276,0.563-0.582,1.123-0.908,1.666c-0.285,0.474-0.131,1.088,0.342,1.372
		c0.161,0.097,0.339,0.143,0.514,0.143c0.339,0,0.67-0.173,0.858-0.485c0.355-0.591,0.688-1.201,0.989-1.813
		c0.244-0.496,0.04-1.095-0.456-1.339C45.177,33.046,44.578,33.25,44.334,33.745z"/>
	<path d="M35.448,8.91c0.592,0.191,1.178,0.417,1.742,0.673c0.134,0.061,0.274,0.09,0.413,0.09c0.38,0,0.744-0.218,0.911-0.587
		c0.228-0.503,0.005-1.096-0.498-1.324c-0.632-0.287-1.29-0.541-1.954-0.755c-0.526-0.169-1.089,0.119-1.259,0.645
		S34.923,8.741,35.448,8.91z"/>
	<path d="M38.411,42.594c0.198,0.231,0.479,0.351,0.761,0.351c0.229,0,0.46-0.079,0.649-0.239c0.516-0.44,1.021-0.907,1.5-1.387
		l0.012-0.012c0.391-0.391,0.384-1.018-0.006-1.408c-0.391-0.39-1.03-0.384-1.42,0.006c-0.443,0.443-0.909,0.874-1.385,1.28
		C38.102,41.542,38.052,42.173,38.411,42.594z"/>
	<path d="M6.418,55.414c-1.654,0-3-1.346-3-3c0-0.552-0.448-1-1-1s-1,0.448-1,1c0,2.757,2.243,5,5,5c0.552,0,1-0.448,1-1
		S6.97,55.414,6.418,55.414z"/>
	<path d="M52.418,2.414c1.654,0,3,1.794,3,4c0,0.552,0.448,1,1,1s1-0.448,1-1c0-3.309-2.243-6-5-6c-0.552,0-1,0.448-1,1
		S51.866,2.414,52.418,2.414z"/>
	<path d="M57.418,45.414c0-0.552-0.448-1-1-1s-1,0.448-1,1c0,4.962-4.038,9-9,9c-0.552,0-1,0.448-1,1s0.448,1,1,1
		C52.484,56.414,57.418,51.48,57.418,45.414z"/>
	<path d="M57.418,53.414c-0.552,0-1,0.448-1,1c0,1.084-1.374,2-3,2c-0.552,0-1,0.448-1,1s0.448,1,1,1c2.757,0,5-1.794,5-4
		C58.418,53.862,57.97,53.414,57.418,53.414z"/>
</g>
<g>
</g>
<g>
</g>
<g>
</g>
<g>
</g>
<g>
</g>
<g>
</g>
<g>
</g>
<g>
</g>
<g>
</g>
<g>
</g>
<g>
</g>
<g>
</g>
<g>
</g>
<g>
</g>
<g>
</g>
</svg>
