<?xml version="1.0" encoding="iso-8859-1"?>
<!-- Generator: Adobe Illustrator 18.0.0, SVG Export Plug-In . SVG Version: 6.00 Build 0)  -->
<!DOCTYPE svg PUBLIC "-//W3C//DTD SVG 1.1//EN" "http://www.w3.org/Graphics/SVG/1.1/DTD/svg11.dtd">
<svg version="1.1" id="Capa_1" xmlns="http://www.w3.org/2000/svg" xmlns:xlink="http://www.w3.org/1999/xlink" x="0px" y="0px"
	 viewBox="0 0 60 60" style="enable-background:new 0 0 60 60;" xml:space="preserve">
<g>
	<circle cx="4" cy="51" r="1"/>
	<circle cx="8" cy="47" r="1"/>
	<circle cx="4" cy="9" r="1"/>
	<circle cx="8" cy="13" r="1"/>
	<circle cx="56" cy="51" r="1"/>
	<circle cx="52" cy="47" r="1"/>
	<circle cx="56" cy="9" r="1"/>
	<circle cx="52" cy="13" r="1"/>
	<path d="M60,1c0-0.016-0.006-0.03-0.007-0.045c-0.002-0.05-0.012-0.099-0.022-0.148c-0.01-0.049-0.019-0.097-0.036-0.144
		c-0.005-0.015-0.005-0.031-0.011-0.045c-0.012-0.03-0.034-0.053-0.048-0.081c-0.024-0.045-0.048-0.089-0.078-0.13
		c-0.029-0.039-0.062-0.073-0.096-0.107s-0.068-0.067-0.107-0.096c-0.041-0.031-0.085-0.054-0.13-0.078
		c-0.028-0.015-0.051-0.036-0.081-0.048c-0.015-0.006-0.03-0.006-0.045-0.011c-0.047-0.017-0.095-0.026-0.144-0.036
		c-0.05-0.01-0.098-0.02-0.148-0.022C59.03,0.006,59.016,0,59,0H1C0.984,0,0.969,0.006,0.952,0.007
		C0.904,0.009,0.857,0.019,0.809,0.029c-0.05,0.01-0.099,0.019-0.147,0.036C0.647,0.07,0.632,0.07,0.617,0.076
		C0.587,0.088,0.564,0.11,0.536,0.125c-0.045,0.024-0.089,0.048-0.13,0.078C0.367,0.232,0.333,0.265,0.299,0.299
		S0.232,0.367,0.203,0.406c-0.031,0.041-0.054,0.085-0.078,0.13C0.11,0.564,0.088,0.587,0.076,0.617
		C0.07,0.632,0.07,0.647,0.065,0.662C0.048,0.709,0.039,0.757,0.029,0.807c-0.01,0.049-0.02,0.098-0.022,0.148
		C0.006,0.97,0,0.984,0,1v58c0,0.016,0.006,0.03,0.007,0.046c0.002,0.05,0.012,0.098,0.022,0.148
		c0.01,0.049,0.019,0.098,0.036,0.144c0.005,0.015,0.005,0.031,0.011,0.045c0.012,0.03,0.034,0.053,0.048,0.081
		c0.024,0.045,0.048,0.089,0.078,0.13c0.029,0.039,0.062,0.073,0.096,0.107s0.068,0.067,0.107,0.096
		c0.041,0.031,0.085,0.054,0.13,0.078c0.028,0.015,0.051,0.036,0.081,0.048c0.012,0.005,0.025,0.003,0.037,0.007
		C0.764,59.972,0.879,60,1,60h58c0.121,0,0.236-0.028,0.346-0.069c0.012-0.004,0.025-0.002,0.037-0.007
		c0.03-0.012,0.053-0.034,0.081-0.048c0.045-0.024,0.089-0.048,0.13-0.078c0.039-0.029,0.073-0.062,0.107-0.096
		s0.067-0.068,0.096-0.107c0.031-0.041,0.054-0.085,0.078-0.13c0.015-0.028,0.036-0.051,0.048-0.081
		c0.006-0.015,0.006-0.03,0.011-0.045c0.017-0.047,0.026-0.095,0.036-0.144c0.01-0.05,0.02-0.098,0.022-0.148
		C59.994,59.03,60,59.016,60,59V1z M58,56.586l-8-8V11.414l8-8V56.586z M44.482,48c0.096-0.155,0.189-0.316,0.276-0.483
		c0.655-1.265,1.549-3.966,0.186-7.848c-1.097-3.123,1.326-6.01,3.057-7.587V48H44.482z M40,48c-0.971,0-1.621-0.22-1.935-0.653
		c-0.444-0.616-0.236-1.672-0.12-2.021l0.054-0.291c0.056-1.644-0.522-3.002-1.671-3.929c-2.936-2.368-8.657-1.271-9.475-1.097
		c-3.491,0.325-4.492,5.71-4.762,7.991h-2.987c0.638-5.596,3.132-17,8.896-17c5.848,0,8.839-4.508,12.302-9.728
		c1.934-2.915,4.125-6.206,7.125-9.272H48v5.088c-1.803,0.344-3.794,1.846-4.634,6.5c-1.04,5.761-5.267,10.258-10.768,11.457
		c-3.161,0.689-5.256,0.014-5.278,0.007c-0.521-0.175-1.086,0.103-1.266,0.622c-0.18,0.522,0.098,1.092,0.62,1.271
		c0.07,0.024,1.229,0.412,3.123,0.412c0.917,0,2.006-0.091,3.227-0.356c6.294-1.373,11.126-6.497,12.311-13.057
		c0.487-2.699,1.392-4.294,2.665-4.775v10.313c-1.608,1.187-6.811,5.53-4.943,10.848c1.104,3.143,0.441,5.247-0.052,6.223
		c-0.458,0.905-0.996,1.339-1.213,1.446H40z M36.143,48H24.107c0.32-2.399,1.254-5.88,2.964-6.003l0.159-0.024
		c1.16-0.264,5.898-0.917,7.866,0.709c0.614,0.508,0.912,1.215,0.906,2.157C35.86,45.334,35.55,46.739,36.143,48z M12,48v-7.51
		c1.879-1.497,9.414-8.041,7.982-15.674c-0.639-3.409-1.976-4.435-2.861-5.113c-0.706-0.542-1.058-0.841,2.488-7.702h2.897
		c-0.909,2.418-2.359,7.344-0.512,10.408c0.966,1.604,2.634,2.476,4.957,2.591c0.206,0.01,0.409,0.015,0.608,0.015
		c4.125,0,6.629-2.127,8.021-3.961c2.105-2.773,2.902-6.495,2.625-9.053h6.489c-2.468,2.77-4.361,5.609-6.058,8.166
		C35.232,25.295,32.774,29,28,29c-8.217,0-10.458,15.058-10.904,19H12z M2,3.414l8,8v37.172l-8,8V3.414z M17.359,12
		c-3.335,6.521-3.441,7.765-1.454,9.289c0.72,0.552,1.614,1.238,2.113,3.896c1.001,5.337-3.504,10.338-6.018,12.657V12H17.359z
		 M36.202,12c0.272,1.9-0.28,5.294-2.215,7.844c-1.698,2.239-4.038,3.313-6.938,3.157c-1.639-0.08-2.731-0.611-3.341-1.623
		c-1.454-2.412,0.014-7.144,0.946-9.378H36.202z M56.586,2l-8,8H11.414l-8-8H56.586z M3.414,58l8-8h37.172l8,8H3.414z"/>
	<circle cx="51" cy="56" r="1"/>
	<circle cx="47" cy="52" r="1"/>
	<circle cx="9" cy="56" r="1"/>
	<circle cx="13" cy="52" r="1"/>
	<circle cx="51" cy="4" r="1"/>
	<circle cx="47" cy="8" r="1"/>
	<circle cx="9" cy="4" r="1"/>
	<circle cx="13" cy="8" r="1"/>
</g>
<g>
</g>
<g>
</g>
<g>
</g>
<g>
</g>
<g>
</g>
<g>
</g>
<g>
</g>
<g>
</g>
<g>
</g>
<g>
</g>
<g>
</g>
<g>
</g>
<g>
</g>
<g>
</g>
<g>
</g>
</svg>
