<?xml version="1.0" encoding="iso-8859-1"?>
<!-- Generator: Adobe Illustrator 18.0.0, SVG Export Plug-In . SVG Version: 6.00 Build 0)  -->
<!DOCTYPE svg PUBLIC "-//W3C//DTD SVG 1.1//EN" "http://www.w3.org/Graphics/SVG/1.1/DTD/svg11.dtd">
<svg version="1.1" id="Capa_1" xmlns="http://www.w3.org/2000/svg" xmlns:xlink="http://www.w3.org/1999/xlink" x="0px" y="0px"
	 viewBox="0 0 60 60" style="enable-background:new 0 0 60 60;" xml:space="preserve">
<g>
	<path d="M12,0h-2H0v48v2v10h48h2h10V12v-2V0H12z M46,12h2v36h-2V12z M44,48h-8V12h8V48z M34,48h-8V12h8V48z M24,48h-8V12h8V48z
		 M14,48h-2V12h2V48z M2,2h8v10v36H9v-1c0-0.553-0.447-1-1-1s-1,0.447-1,1v1H6v-7c0-0.553-0.447-1-1-1s-1,0.447-1,1v7H2V2z M2,58v-8
		h10h2h10h2h8h2h10h2v2h-5c-0.553,0-1,0.447-1,1s0.447,1,1,1h5v1h-3c-0.553,0-1,0.447-1,1s0.447,1,1,1h3v1H2z M58,58h-8V48V12h2v5
		c0,0.553,0.447,1,1,1s1-0.447,1-1v-5h1v3c0,0.553,0.447,1,1,1s1-0.447,1-1v-3h1V58z M48,10h-2H36h-2h-8h-2H14h-2V9h2
		c0.553,0,1-0.447,1-1s-0.447-1-1-1h-2V6h3c0.553,0,1-0.447,1-1s-0.447-1-1-1h-3V2h46v8H48z"/>
	<circle cx="55" cy="4" r="1"/>
	<circle cx="51" cy="4" r="1"/>
	<circle cx="55" cy="8" r="1"/>
	<circle cx="51" cy="8" r="1"/>
	<circle cx="56" cy="55" r="1"/>
	<circle cx="56" cy="51" r="1"/>
	<circle cx="52" cy="55" r="1"/>
	<circle cx="52" cy="51" r="1"/>
	<circle cx="5" cy="56" r="1"/>
	<circle cx="9" cy="56" r="1"/>
	<circle cx="5" cy="52" r="1"/>
	<circle cx="9" cy="52" r="1"/>
	<circle cx="4" cy="5" r="1"/>
	<circle cx="4" cy="9" r="1"/>
	<circle cx="8" cy="5" r="1"/>
	<circle cx="8" cy="9" r="1"/>
</g>
<g>
</g>
<g>
</g>
<g>
</g>
<g>
</g>
<g>
</g>
<g>
</g>
<g>
</g>
<g>
</g>
<g>
</g>
<g>
</g>
<g>
</g>
<g>
</g>
<g>
</g>
<g>
</g>
<g>
</g>
</svg>
