<?xml version="1.0" encoding="iso-8859-1"?>
<!-- Generator: Adobe Illustrator 18.0.0, SVG Export Plug-In . SVG Version: 6.00 Build 0)  -->
<!DOCTYPE svg PUBLIC "-//W3C//DTD SVG 1.1//EN" "http://www.w3.org/Graphics/SVG/1.1/DTD/svg11.dtd">
<svg version="1.1" id="Capa_1" xmlns="http://www.w3.org/2000/svg" xmlns:xlink="http://www.w3.org/1999/xlink" x="0px" y="0px"
	 viewBox="0 0 60 60" style="enable-background:new 0 0 60 60;" xml:space="preserve">
<g>
	<circle cx="4" cy="51" r="1"/>
	<circle cx="8" cy="47" r="1"/>
	<circle cx="4" cy="9" r="1"/>
	<circle cx="8" cy="13" r="1"/>
	<circle cx="56" cy="51" r="1"/>
	<circle cx="52" cy="47" r="1"/>
	<circle cx="56" cy="9" r="1"/>
	<circle cx="52" cy="13" r="1"/>
	<path d="M60,1c0-0.016-0.006-0.03-0.007-0.045c-0.002-0.05-0.012-0.099-0.022-0.148c-0.01-0.049-0.019-0.097-0.036-0.144
		c-0.005-0.015-0.005-0.031-0.011-0.045c-0.012-0.03-0.034-0.053-0.048-0.081c-0.024-0.045-0.048-0.089-0.078-0.13
		c-0.029-0.039-0.062-0.073-0.096-0.107c-0.034-0.034-0.068-0.067-0.107-0.096c-0.041-0.031-0.085-0.054-0.13-0.078
		c-0.028-0.015-0.051-0.036-0.081-0.048c-0.015-0.006-0.03-0.006-0.045-0.011c-0.047-0.017-0.094-0.026-0.143-0.036
		c-0.05-0.01-0.099-0.02-0.149-0.022C59.03,0.006,59.016,0,59,0H1C0.984,0,0.969,0.006,0.952,0.007
		C0.904,0.009,0.857,0.019,0.809,0.029c-0.05,0.01-0.099,0.019-0.147,0.036C0.647,0.07,0.632,0.07,0.617,0.076
		C0.587,0.088,0.564,0.11,0.536,0.125c-0.045,0.024-0.089,0.048-0.13,0.078C0.367,0.232,0.333,0.265,0.299,0.299
		C0.265,0.333,0.232,0.367,0.203,0.406c-0.031,0.041-0.054,0.085-0.078,0.13C0.11,0.564,0.088,0.587,0.076,0.617
		C0.07,0.632,0.07,0.647,0.065,0.662C0.048,0.709,0.039,0.757,0.029,0.807c-0.01,0.049-0.02,0.098-0.022,0.148
		C0.006,0.97,0,0.984,0,1v58c0,0.016,0.006,0.03,0.007,0.046c0.002,0.05,0.012,0.098,0.022,0.148
		c0.01,0.049,0.019,0.098,0.036,0.144c0.005,0.015,0.005,0.031,0.011,0.045c0.012,0.03,0.034,0.053,0.048,0.081
		c0.024,0.045,0.048,0.089,0.078,0.13c0.029,0.039,0.062,0.073,0.096,0.107c0.034,0.034,0.068,0.067,0.107,0.096
		c0.041,0.031,0.085,0.054,0.13,0.078c0.028,0.015,0.051,0.036,0.081,0.048c0.012,0.005,0.025,0.003,0.037,0.007
		C0.764,59.972,0.879,60,1,60h58c0.121,0,0.236-0.028,0.346-0.069c0.012-0.004,0.025-0.002,0.037-0.007
		c0.03-0.012,0.053-0.034,0.081-0.048c0.045-0.024,0.089-0.048,0.13-0.078c0.039-0.029,0.073-0.062,0.107-0.096
		c0.034-0.034,0.067-0.068,0.096-0.107c0.031-0.041,0.054-0.085,0.078-0.13c0.015-0.028,0.036-0.051,0.048-0.081
		c0.006-0.015,0.006-0.03,0.011-0.045c0.017-0.047,0.026-0.095,0.036-0.144c0.01-0.05,0.02-0.098,0.022-0.148
		C59.994,59.03,60,59.016,60,59V1z M58,56.586l-8-8V11.414l8-8V56.586z M46,48V12h2v36H46z M2,3.414l8,8v37.172l-8,8V3.414z M12,12
		h2v36h-2V12z M16,12h8v36h-8V12z M26,12h8v36h-8V12z M36,12h8v36h-8V12z M56.586,2l-8,8H46H36h-2h-8h-2H14h-2.586l-8-8H56.586z
		 M3.414,58l8-8H14h10h2h8h2h10h2.586l8,8H3.414z"/>
	<circle cx="51" cy="56" r="1"/>
	<circle cx="47" cy="52" r="1"/>
	<circle cx="9" cy="56" r="1"/>
	<circle cx="13" cy="52" r="1"/>
	<circle cx="51" cy="4" r="1"/>
	<circle cx="47" cy="8" r="1"/>
	<circle cx="9" cy="4" r="1"/>
	<circle cx="13" cy="8" r="1"/>
</g>
<g>
</g>
<g>
</g>
<g>
</g>
<g>
</g>
<g>
</g>
<g>
</g>
<g>
</g>
<g>
</g>
<g>
</g>
<g>
</g>
<g>
</g>
<g>
</g>
<g>
</g>
<g>
</g>
<g>
</g>
</svg>
