<?xml version="1.0" encoding="iso-8859-1"?>
<!-- Generator: Adobe Illustrator 18.0.0, SVG Export Plug-In . SVG Version: 6.00 Build 0)  -->
<!DOCTYPE svg PUBLIC "-//W3C//DTD SVG 1.1//EN" "http://www.w3.org/Graphics/SVG/1.1/DTD/svg11.dtd">
<svg version="1.1" id="Capa_1" xmlns="http://www.w3.org/2000/svg" xmlns:xlink="http://www.w3.org/1999/xlink" x="0px" y="0px"
	 viewBox="0 0 60 60" style="enable-background:new 0 0 60 60;" xml:space="preserve">
<g>
	<path d="M12,0h-2H0v48v2v10h48h2h10V12v-2V0H12z M36.202,12c0.272,1.9-0.28,5.294-2.215,7.844
		c-1.699,2.239-4.039,3.313-6.938,3.157c-1.639-0.08-2.731-0.611-3.341-1.623c-1.454-2.412,0.014-7.144,0.946-9.378H36.202z
		 M21.994,22.408c0.966,1.604,2.634,2.476,4.957,2.591c0.206,0.01,0.409,0.015,0.608,0.015c4.125,0,6.629-2.127,8.021-3.961
		c2.105-2.773,2.902-6.495,2.625-9.053h6.489c-2.468,2.77-4.361,5.609-6.058,8.166C35.232,25.295,32.774,29,28,29
		c-8.217,0-10.458,15.058-10.904,19H12v-7.51c1.879-1.497,9.414-8.041,7.982-15.674c-0.639-3.409-1.976-4.435-2.861-5.113
		c-0.706-0.542-1.058-0.841,2.488-7.702h2.897C21.598,14.418,20.148,19.344,21.994,22.408z M44.943,39.669
		c-1.097-3.123,1.326-6.01,3.057-7.587V48h-3.518c0.096-0.155,0.189-0.316,0.276-0.483C45.413,46.252,46.307,43.551,44.943,39.669z
		 M48,12v5.088c-1.808,0.343-3.794,1.844-4.634,6.501c-1.04,5.761-5.267,10.258-10.768,11.457c-3.162,0.689-5.256,0.014-5.278,0.007
		c-0.52-0.175-1.086,0.103-1.266,0.622c-0.18,0.522,0.098,1.092,0.62,1.271c0.07,0.024,1.229,0.412,3.123,0.412
		c0.917,0,2.006-0.091,3.227-0.356c6.294-1.373,11.126-6.497,12.311-13.057c0.486-2.697,1.397-4.291,2.665-4.774v10.312
		c-1.608,1.187-6.811,5.53-4.943,10.848c1.104,3.143,0.441,5.247-0.052,6.223c-0.458,0.905-0.996,1.339-1.213,1.446H40
		c-0.971,0-1.621-0.22-1.935-0.653c-0.444-0.616-0.236-1.672-0.12-2.021l0.054-0.291c0.056-1.644-0.522-3.002-1.671-3.929
		c-2.936-2.368-8.656-1.271-9.475-1.097c-3.491,0.325-4.492,5.71-4.762,7.991h-2.987c0.638-5.596,3.132-17,8.895-17
		c5.848,0,8.839-4.508,12.302-9.728c1.934-2.915,4.125-6.206,7.125-9.272H48z M36.143,48H24.107c0.32-2.399,1.254-5.88,2.964-6.003
		l0.159-0.024c1.16-0.264,5.897-0.917,7.866,0.709c0.614,0.508,0.912,1.215,0.906,2.157C35.86,45.334,35.55,46.739,36.143,48z
		 M15.904,21.289c0.72,0.552,1.614,1.238,2.113,3.896c1.001,5.337-3.504,10.338-6.018,12.657V12h5.359
		C14.023,18.521,13.918,19.765,15.904,21.289z M2,2h8v10v36H9v-1c0-0.553-0.447-1-1-1s-1,0.447-1,1v1H6v-7c0-0.553-0.447-1-1-1
		s-1,0.447-1,1v7H2V2z M2,58v-8h10h36v2h-5c-0.553,0-1,0.447-1,1s0.447,1,1,1h5v1h-3c-0.553,0-1,0.447-1,1s0.447,1,1,1h3v1H2z
		 M58,58h-8V48V12h2v5c0,0.553,0.447,1,1,1s1-0.447,1-1v-5h1v3c0,0.553,0.447,1,1,1s1-0.447,1-1v-3h1V58z M48,10H12V9h2
		c0.553,0,1-0.447,1-1s-0.447-1-1-1h-2V6h3c0.553,0,1-0.447,1-1s-0.447-1-1-1h-3V2h46v8H48z"/>
	<circle cx="55" cy="4" r="1"/>
	<circle cx="51" cy="4" r="1"/>
	<circle cx="55" cy="8" r="1"/>
	<circle cx="51" cy="8" r="1"/>
	<circle cx="56" cy="55" r="1"/>
	<circle cx="56" cy="51" r="1"/>
	<circle cx="52" cy="55" r="1"/>
	<circle cx="52" cy="51" r="1"/>
	<circle cx="5" cy="56" r="1"/>
	<circle cx="9" cy="56" r="1"/>
	<circle cx="5" cy="52" r="1"/>
	<circle cx="9" cy="52" r="1"/>
	<circle cx="4" cy="5" r="1"/>
	<circle cx="4" cy="9" r="1"/>
	<circle cx="8" cy="5" r="1"/>
	<circle cx="8" cy="9" r="1"/>
</g>
<g>
</g>
<g>
</g>
<g>
</g>
<g>
</g>
<g>
</g>
<g>
</g>
<g>
</g>
<g>
</g>
<g>
</g>
<g>
</g>
<g>
</g>
<g>
</g>
<g>
</g>
<g>
</g>
<g>
</g>
</svg>
