<?xml version="1.0" encoding="iso-8859-1"?>
<!-- Generator: Adobe Illustrator 18.0.0, SVG Export Plug-In . SVG Version: 6.00 Build 0)  -->
<!DOCTYPE svg PUBLIC "-//W3C//DTD SVG 1.1//EN" "http://www.w3.org/Graphics/SVG/1.1/DTD/svg11.dtd">
<svg version="1.1" id="Capa_1" xmlns="http://www.w3.org/2000/svg" xmlns:xlink="http://www.w3.org/1999/xlink" x="0px" y="0px"
	 viewBox="0 0 60 60" style="enable-background:new 0 0 60 60;" xml:space="preserve">
<g>
	<path d="M55.783,8H4.217C1.892,8,0,9.892,0,12.217V13v10v24.783C0,50.108,1.892,52,4.217,52h51.566C58.108,52,60,50.108,60,47.783
		V23V13v-0.783C60,9.892,58.108,8,55.783,8z M3,16c0.552,0,1-0.448,1-1h4c0,0.552,0.448,1,1,1s1-0.448,1-1h4c0,0.552,0.448,1,1,1
		s1-0.448,1-1h4c0,0.552,0.448,1,1,1s1-0.448,1-1h4c0,0.552,0.448,1,1,1s1-0.448,1-1h4c0,0.552,0.448,1,1,1s1-0.448,1-1h4
		c0,0.552,0.448,1,1,1s1-0.448,1-1h4c0,0.552,0.448,1,1,1s1-0.448,1-1h4c0,0.552,0.448,1,1,1s1-0.448,1-1h4c0,0.552,0.448,1,1,1
		s1-0.448,1-1v6c0-0.552-0.448-1-1-1s-1,0.448-1,1h-4c0-0.552-0.448-1-1-1s-1,0.448-1,1h-4c0-0.552-0.448-1-1-1s-1,0.448-1,1h-4
		c0-0.552-0.448-1-1-1s-1,0.448-1,1h-4c0-0.552-0.448-1-1-1s-1,0.448-1,1h-4c0-0.552-0.448-1-1-1s-1,0.448-1,1h-4
		c0-0.552-0.448-1-1-1s-1,0.448-1,1h-4c0-0.552-0.448-1-1-1s-1,0.448-1,1h-4c0-0.552-0.448-1-1-1s-1,0.448-1,1H4
		c0-0.552-0.448-1-1-1s-1,0.448-1,1v-6C2,15.552,2.448,16,3,16z M58,47.783C58,49.005,57.005,50,55.783,50H4.217
		C2.995,50,2,49.005,2,47.783V23h56V47.783z M2,13v-0.783C2,10.995,2.995,10,4.217,10h51.566C57.005,10,58,10.995,58,12.217V13H2z"
		/>
	<path d="M8,29h8c0.552,0,1-0.448,1-1s-0.448-1-1-1H8c-0.552,0-1,0.448-1,1S7.448,29,8,29z"/>
	<path d="M20,29h8c0.552,0,1-0.448,1-1s-0.448-1-1-1h-8c-0.552,0-1,0.448-1,1S19.448,29,20,29z"/>
	<path d="M8,34h1c0.552,0,1-0.448,1-1s-0.448-1-1-1H8c-0.552,0-1,0.448-1,1S7.448,34,8,34z"/>
	<path d="M15,32h-2c-0.552,0-1,0.448-1,1s0.448,1,1,1h2c0.552,0,1-0.448,1-1S15.552,32,15,32z"/>
	<path d="M19,34h1c0.552,0,1-0.448,1-1s-0.448-1-1-1h-1c-0.552,0-1,0.448-1,1S18.448,34,19,34z"/>
	<path d="M26,32h-2c-0.552,0-1,0.448-1,1s0.448,1,1,1h2c0.552,0,1-0.448,1-1S26.552,32,26,32z"/>
	<path d="M29.29,33.71C29.48,33.89,29.74,34,30,34c0.26,0,0.52-0.11,0.71-0.29C30.89,33.52,31,33.26,31,33
		c0-0.26-0.11-0.52-0.29-0.71c-0.37-0.37-1.05-0.37-1.42,0C29.11,32.48,29,32.74,29,33C29,33.27,29.11,33.52,29.29,33.71z"/>
	<path d="M47,32c-0.552,0-1,0.448-1,1s0.448,1,1,1h1c0.552,0,1-0.448,1-1s-0.448-1-1-1H47z"/>
	<path d="M51.29,32.29C51.11,32.48,51,32.74,51,33c0,0.26,0.11,0.52,0.29,0.71C51.48,33.89,51.74,34,52,34
		c0.26,0,0.52-0.11,0.71-0.29C52.89,33.52,53,33.26,53,33c0-0.26-0.11-0.52-0.29-0.71C52.34,31.92,51.66,31.92,51.29,32.29z"/>
	<path d="M32,29h8c0.552,0,1-0.448,1-1s-0.448-1-1-1h-8c-0.552,0-1,0.448-1,1S31.448,29,32,29z"/>
	<path d="M44,29h8c0.552,0,1-0.448,1-1s-0.448-1-1-1h-8c-0.552,0-1,0.448-1,1S43.448,29,44,29z"/>
	<path d="M34,34h5c0.552,0,1-0.448,1-1s-0.448-1-1-1h-5c-0.552,0-1,0.448-1,1S33.448,34,34,34z"/>
	<path d="M43,34c0.26,0,0.52-0.11,0.71-0.29C43.89,33.52,44,33.26,44,33c0-0.26-0.11-0.52-0.29-0.71c-0.37-0.37-1.05-0.37-1.42,0
		C42.11,32.48,42,32.74,42,33c0,0.26,0.11,0.52,0.29,0.71C42.48,33.89,42.74,34,43,34z"/>
	<path d="M37.701,37.4c-2.19,1.14-2.928,3.321-3.196,5.582c-0.414-0.347-0.828-0.693-1.241-1.04
		c-0.98-0.821-2.402,0.586-1.414,1.414c0.935,0.784,1.871,1.567,2.806,2.351c0.658,0.552,1.676,0.203,1.707-0.707
		c0.073-2.166,0.175-4.742,2.348-5.873C39.853,38.533,38.842,36.806,37.701,37.4z"/>
	<path d="M38.701,42.08c1.87,2.033,4.276,1.414,6.399,0.263c0.478,0.535,1.071,0.926,1.837,1.081c0.792,0.16,4.025-1.14,4.2-0.901
		c0.752,1.029,2.488,0.032,1.727-1.009c-0.516-0.707-0.992-1.084-1.908-1.142c-1.458-0.092-3.592,2.155-4.716,0.153
		c-0.26-0.464-0.913-0.638-1.368-0.359c-1.416,0.869-3.267,2.119-4.756,0.5C39.242,39.716,37.83,41.133,38.701,42.08z"/>
	<circle cx="42" cy="18" r="1"/>
	<circle cx="48" cy="18" r="1"/>
	<circle cx="24" cy="18" r="1"/>
	<circle cx="30" cy="18" r="1"/>
	<circle cx="36" cy="18" r="1"/>
	<circle cx="54" cy="18" r="1"/>
	<circle cx="18" cy="18" r="1"/>
	<circle cx="6" cy="18" r="1"/>
	<circle cx="12" cy="18" r="1"/>
</g>
<g>
</g>
<g>
</g>
<g>
</g>
<g>
</g>
<g>
</g>
<g>
</g>
<g>
</g>
<g>
</g>
<g>
</g>
<g>
</g>
<g>
</g>
<g>
</g>
<g>
</g>
<g>
</g>
<g>
</g>
</svg>
