<?xml version="1.0" encoding="iso-8859-1"?>
<!-- Generator: Adobe Illustrator 18.0.0, SVG Export Plug-In . SVG Version: 6.00 Build 0)  -->
<!DOCTYPE svg PUBLIC "-//W3C//DTD SVG 1.1//EN" "http://www.w3.org/Graphics/SVG/1.1/DTD/svg11.dtd">
<svg version="1.1" id="Capa_1" xmlns="http://www.w3.org/2000/svg" xmlns:xlink="http://www.w3.org/1999/xlink" x="0px" y="0px"
	 viewBox="0 0 60 60" style="enable-background:new 0 0 60 60;" xml:space="preserve">
<g>
	<path d="M55.783,8H4.217C1.892,8,0,9.892,0,12.217V13v10v24.783C0,50.108,1.892,52,4.217,52h51.566C58.108,52,60,50.108,60,47.783
		V23V13v-0.783C60,9.892,58.108,8,55.783,8z M3,16c0.552,0,1-0.448,1-1h4c0,0.552,0.448,1,1,1s1-0.448,1-1h4c0,0.552,0.448,1,1,1
		s1-0.448,1-1h4c0,0.552,0.448,1,1,1s1-0.448,1-1h4c0,0.552,0.448,1,1,1s1-0.448,1-1h4c0,0.552,0.448,1,1,1s1-0.448,1-1h4
		c0,0.552,0.448,1,1,1s1-0.448,1-1h4c0,0.552,0.448,1,1,1s1-0.448,1-1h4c0,0.552,0.448,1,1,1s1-0.448,1-1h4c0,0.552,0.448,1,1,1
		s1-0.448,1-1v6c0-0.552-0.448-1-1-1s-1,0.448-1,1h-4c0-0.552-0.448-1-1-1s-1,0.448-1,1h-4c0-0.552-0.448-1-1-1s-1,0.448-1,1h-4
		c0-0.552-0.448-1-1-1s-1,0.448-1,1h-4c0-0.552-0.448-1-1-1s-1,0.448-1,1h-4c0-0.552-0.448-1-1-1s-1,0.448-1,1h-4
		c0-0.552-0.448-1-1-1s-1,0.448-1,1h-4c0-0.552-0.448-1-1-1s-1,0.448-1,1h-4c0-0.552-0.448-1-1-1s-1,0.448-1,1H4
		c0-0.552-0.448-1-1-1s-1,0.448-1,1v-6C2,15.552,2.448,16,3,16z M58,47.783C58,49.005,57.006,50,55.783,50H4.217
		C2.994,50,2,49.005,2,47.783V23h56V47.783z M2,13v-0.783C2,10.995,2.994,10,4.217,10h51.566C57.006,10,58,10.995,58,12.217V13H2z"
		/>
	<path d="M7,29h9c0.553,0,1-0.448,1-1s-0.447-1-1-1H7c-0.553,0-1,0.448-1,1S6.447,29,7,29z"/>
	<path d="M20,29h9c0.553,0,1-0.448,1-1s-0.447-1-1-1h-9c-0.553,0-1,0.448-1,1S19.447,29,20,29z"/>
	<path d="M7,34h1c0.553,0,1-0.448,1-1s-0.447-1-1-1H7c-0.553,0-1,0.448-1,1S6.447,34,7,34z"/>
	<path d="M14,32h-2c-0.553,0-1,0.448-1,1s0.447,1,1,1h2c0.553,0,1-0.448,1-1S14.553,32,14,32z"/>
	<path d="M18,34h1c0.553,0,1-0.448,1-1s-0.447-1-1-1h-1c-0.553,0-1,0.448-1,1S17.447,34,18,34z"/>
	<path d="M25,32h-2c-0.553,0-1,0.448-1,1s0.447,1,1,1h2c0.553,0,1-0.448,1-1S25.553,32,25,32z"/>
	<path d="M28.29,32.29C28.109,32.48,28,32.74,28,33c0,0.26,0.109,0.52,0.29,0.71C28.479,33.89,28.729,34,29,34
		c0.26,0,0.52-0.11,0.71-0.29C29.89,33.52,30,33.26,30,33c0-0.26-0.11-0.52-0.29-0.71C29.34,31.92,28.66,31.92,28.29,32.29z"/>
	<circle cx="24" cy="18" r="1"/>
	<circle cx="30" cy="18" r="1"/>
	<circle cx="18" cy="18" r="1"/>
	<circle cx="6" cy="18" r="1"/>
	<circle cx="12" cy="18" r="1"/>
	<circle cx="54" cy="18" r="1"/>
	<circle cx="48" cy="18" r="1"/>
	<circle cx="36" cy="18" r="1"/>
	<circle cx="42" cy="18" r="1"/>
	<path d="M54,34H36v12h18V34z M52,44H38v-8h14V44z"/>
</g>
<g>
</g>
<g>
</g>
<g>
</g>
<g>
</g>
<g>
</g>
<g>
</g>
<g>
</g>
<g>
</g>
<g>
</g>
<g>
</g>
<g>
</g>
<g>
</g>
<g>
</g>
<g>
</g>
<g>
</g>
</svg>
