<?xml version="1.0" encoding="iso-8859-1"?>
<!-- Generator: Adobe Illustrator 18.0.0, SVG Export Plug-In . SVG Version: 6.00 Build 0)  -->
<!DOCTYPE svg PUBLIC "-//W3C//DTD SVG 1.1//EN" "http://www.w3.org/Graphics/SVG/1.1/DTD/svg11.dtd">
<svg version="1.1" id="Capa_1" xmlns="http://www.w3.org/2000/svg" xmlns:xlink="http://www.w3.org/1999/xlink" x="0px" y="0px"
	 viewBox="0 0 60 60" style="enable-background:new 0 0 60 60;" xml:space="preserve">
<path d="M59,46h-1V25H47.969C51.003,22.927,53,19.443,53,15.5C53,9.159,47.841,4,41.5,4c-3.943,0-7.427,1.997-9.5,5.031V4h-5h-7h-5
	v42h-4V7c0-0.553-0.447-1-1-1H7.858C7.411,4.28,5.859,3,4,3C1.794,3,0,4.794,0,7s1.794,4,4,4c1.859,0,3.411-1.28,3.858-3H9v39
	c0,0.553,0.447,1,1,1h5h2.031C15.806,48.912,15,50.359,15,52c0,2.757,2.243,5,5,5s5-2.243,5-5c0-1.641-0.806-3.088-2.031-4H30h2
	h15.031C45.806,48.912,45,50.359,45,52c0,2.757,2.243,5,5,5s5-2.243,5-5c0-1.641-0.806-3.088-2.031-4H58h1c0.553,0,1-0.447,1-1
	S59.553,46,59,46z M4,9C2.897,9,2,8.103,2,7s0.897-2,2-2c0.737,0,1.375,0.405,1.722,1H5C4.447,6,4,6.447,4,7s0.447,1,1,1h0.722
	C5.375,8.595,4.737,9,4,9z M20,55c-1.654,0-3-1.346-3-3s1.346-3,3-3s3,1.346,3,3S21.654,55,20,55z M50,55c-1.654,0-3-1.346-3-3
	s1.346-3,3-3s3,1.346,3,3S51.654,55,50,55z M42,27h3v4h-3V27z M41.5,6c5.238,0,9.5,4.262,9.5,9.5S46.738,25,41.5,25
	S32,20.738,32,15.5S36.262,6,41.5,6z M35.031,25H32v-3.031C32.812,23.159,33.841,24.188,35.031,25z M25,6v4h-3V6H25z M17,46V6h3v6h7
	V6h3v19v21H17z M32,46V27h8v6h7v-6h9v19H32z"/>
<g>
</g>
<g>
</g>
<g>
</g>
<g>
</g>
<g>
</g>
<g>
</g>
<g>
</g>
<g>
</g>
<g>
</g>
<g>
</g>
<g>
</g>
<g>
</g>
<g>
</g>
<g>
</g>
<g>
</g>
</svg>
