<?xml version="1.0" encoding="iso-8859-1"?>
<!-- Generator: Adobe Illustrator 18.0.0, SVG Export Plug-In . SVG Version: 6.00 Build 0)  -->
<!DOCTYPE svg PUBLIC "-//W3C//DTD SVG 1.1//EN" "http://www.w3.org/Graphics/SVG/1.1/DTD/svg11.dtd">
<svg version="1.1" id="Capa_1" xmlns="http://www.w3.org/2000/svg" xmlns:xlink="http://www.w3.org/1999/xlink" x="0px" y="0px"
	 viewBox="0 0 60 60" style="enable-background:new 0 0 60 60;" xml:space="preserve">
<path d="M59,46h-6v-4v-2V16h-6h-2H21v6v2v22H11V7c0-0.553-0.447-1-1-1H7.858C7.411,4.28,5.859,3,4,3C1.794,3,0,4.794,0,7
	s1.794,4,4,4c1.859,0,3.411-1.28,3.858-3H9v39c0,0.553,0.447,1,1,1h7.031C15.806,48.912,15,50.359,15,52c0,2.757,2.243,5,5,5
	s5-2.243,5-5c0-1.641-0.806-3.088-2.031-4H27h2h18.031C45.806,48.912,45,50.359,45,52c0,2.757,2.243,5,5,5s5-2.243,5-5
	c0-1.641-0.806-3.088-2.031-4H53h6c0.553,0,1-0.447,1-1S59.553,46,59,46z M50,55c-1.654,0-3-1.346-3-3s1.346-3,3-3s3,1.346,3,3
	S51.654,55,50,55z M47,18h4v22h-1v-1c0-0.553-0.447-1-1-1s-1,0.447-1,1v1h-1V24V18z M33,40h-4V24h4V40z M35,24h4v16h-4V24z M41,24h4
	v16h-4V24z M23,18h22v1h-1c-0.553,0-1,0.447-1,1s0.447,1,1,1h1v1h-4h-8h-4h-6V18z M4,9C2.897,9,2,8.103,2,7s0.897-2,2-2
	c0.737,0,1.375,0.405,1.722,1H5C4.447,6,4,6.447,4,7s0.447,1,1,1h0.722C5.375,8.595,4.737,9,4,9z M20,55c-1.654,0-3-1.346-3-3
	s1.346-3,3-3s3,1.346,3,3S21.654,55,20,55z M23,46V24h1v1c0,0.553,0.447,1,1,1s1-0.447,1-1v-1h1v16v6H23z M29,45h1
	c0.553,0,1-0.447,1-1s-0.447-1-1-1h-1v-1h4h8h4h6v4H29V45z"/>
<g>
</g>
<g>
</g>
<g>
</g>
<g>
</g>
<g>
</g>
<g>
</g>
<g>
</g>
<g>
</g>
<g>
</g>
<g>
</g>
<g>
</g>
<g>
</g>
<g>
</g>
<g>
</g>
<g>
</g>
</svg>
