<?xml version="1.0" encoding="iso-8859-1"?>
<!-- Generator: Adobe Illustrator 19.0.0, SVG Export Plug-In . SVG Version: 6.00 Build 0)  -->
<svg version="1.1" id="Layer_1" xmlns="http://www.w3.org/2000/svg" xmlns:xlink="http://www.w3.org/1999/xlink" x="0px" y="0px"
	 viewBox="0 0 512 512" style="enable-background:new 0 0 512 512;" xml:space="preserve">
<g>
	<g>
		<path d="M418.133,93.867V8.533c0-2.56-0.853-4.267-2.56-5.973S412.16,0,409.6,0h-93.867c-3.413,0-5.973,1.707-7.68,4.267
			l-47.787,75.947l-10.24,13.653H102.4c-5.12,0-8.533,3.413-8.533,8.533v128c0,5.12,3.413,8.533,8.533,8.533h81.92l1.707,1.707
			L94.72,408.747c-0.853,1.707-0.853,2.56-0.853,4.267v90.453c0,5.12,3.413,8.533,8.533,8.533h93.867
			c3.413,0,5.973-1.707,6.827-4.267l51.2-89.6l5.973-8.533H409.6c5.12,0,8.533-3.413,8.533-8.533V281.6
			c0-5.12-3.413-8.533-8.533-8.533h-81.92l-1.707-1.707L417.28,98.133C418.133,96.427,418.133,95.573,418.133,93.867z
			 M401.067,92.16L308.053,268.8c-1.707,3.413-0.853,7.68,1.707,10.24l8.533,8.533c1.707,1.707,3.413,2.56,5.973,2.56h76.8v102.4
			H256c-2.56,0-5.12,0.853-6.827,3.413l-9.387,12.8l-46.08,81.067l-2.56,5.12h-80.213v-79.36l93.013-170.667
			c1.707-3.413,0.853-7.68-1.707-10.24l-8.533-9.387c-1.707-1.707-3.413-2.56-5.973-2.56h-76.8V111.787h143.36
			c2.56,0,5.12-1.707,6.827-3.413l13.653-17.067c0.853,0,0.853-0.853,0.853-0.853l42.667-68.267l2.56-5.12h80.213V92.16z"/>
	</g>
</g>
<g>
</g>
<g>
</g>
<g>
</g>
<g>
</g>
<g>
</g>
<g>
</g>
<g>
</g>
<g>
</g>
<g>
</g>
<g>
</g>
<g>
</g>
<g>
</g>
<g>
</g>
<g>
</g>
<g>
</g>
</svg>
