<?xml version="1.0" encoding="iso-8859-1"?>
<!-- Generator: Adobe Illustrator 19.0.0, SVG Export Plug-In . SVG Version: 6.00 Build 0)  -->
<svg version="1.1" id="Layer_1" xmlns="http://www.w3.org/2000/svg" xmlns:xlink="http://www.w3.org/1999/xlink" x="0px" y="0px"
	 viewBox="0 0 512 512" style="enable-background:new 0 0 512 512;" xml:space="preserve">
<g>
	<g>
		<g>
			<path d="M278.187,175.787l3.413,6.827l6.827-2.56c47.787-19.627,86.187-44.373,111.787-74.24l6.827-6.827l-6.827-5.973
				C360.107,58.027,308.907,38.4,256,38.4c-17.067,0-34.133,2.56-51.2,5.973l-13.653,3.413l9.387,10.24
				C201.387,58.88,238.933,103.253,278.187,175.787z M256,55.467c46.08,0,90.453,16.213,126.293,45.227
				c-23.04,23.893-54.613,44.373-93.013,60.587c-27.307-50.347-53.76-85.333-66.56-102.4C233.813,56.32,244.907,55.467,256,55.467z"
				/>
			<path d="M54.613,221.013c17.92,0,102.4-0.853,189.44-26.453l10.24-2.56l-5.12-9.387c-39.253-72.533-76.8-119.467-76.8-120.32
				l-4.267-5.12l-5.973,2.56c-60.587,29.013-104.96,86.187-119.467,151.04l-1.707,10.24H51.2
				C52.053,221.013,52.907,221.013,54.613,221.013z M162.987,78.507c10.24,13.653,36.693,51.2,65.707,102.4
				c-70.827,19.627-140.8,22.187-166.4,23.04C76.8,150.187,113.493,104.107,162.987,78.507z"/>
			<path d="M279.04,264.533l8.533-3.413l-4.267-8.533c-4.267-11.093-10.24-23.04-16.213-34.987l-3.413-6.827l-6.827,2.56
				c-60.587,18.773-131.413,28.16-209.92,28.16H38.4v8.533c0,2.56,0,4.267,0,5.973c0,53.76,20.48,105.813,56.32,145.067l7.68,8.533
				l5.973-9.387C146.773,336.213,207.36,287.573,279.04,264.533z M100.693,381.44c-28.16-34.133-43.52-77.653-44.373-122.027
				c73.387-0.853,140.8-9.387,199.68-28.16c3.413,6.827,6.827,13.653,9.387,19.627C197.973,275.627,139.947,320.853,100.693,381.44z
				"/>
			<path d="M424.96,119.467l-7.68-7.68l-6.827,9.387c-4.267,5.973-34.987,45.227-110.933,77.653l-8.533,3.413l4.267,7.68
				c6.827,12.8,12.8,26.453,17.92,39.253l2.56,5.973l6.827-1.707c46.08-7.68,94.72-5.12,139.947,7.68l11.093,3.413V253.44
				C472.747,203.947,455.68,157.867,424.96,119.467z M375.467,232.107c-16.213,0-33.28,0.853-48.64,4.267
				c-4.267-8.533-7.68-17.067-11.947-25.6c58.88-26.453,90.453-57.173,103.253-71.68C440.32,168.96,453.12,204.8,455.68,242.347
				C429.227,235.52,402.773,232.107,375.467,232.107z"/>
			<path d="M299.52,287.573l-2.56-7.68l-7.68,2.56c-70.827,22.187-130.56,69.973-167.253,134.827l-3.413,6.827l5.973,4.267
				c37.547,29.013,83.627,44.373,131.413,44.373c29.013,0,57.173-5.12,82.773-16.213l5.973-2.56l-0.853-6.827
				C337.067,396.8,321.707,343.04,299.52,287.573z M256,456.533c-41.813,0-81.067-12.8-115.2-36.693
				c33.28-55.467,84.48-97.28,145.92-117.76c18.773,49.493,32.427,96.427,39.253,141.653
				C303.787,452.267,279.893,456.533,256,456.533z"/>
			<path d="M256,0C115.2,0,0,115.2,0,256s115.2,256,256,256s256-115.2,256-256S396.8,0,256,0z M256,494.933
				c-131.413,0-238.933-107.52-238.933-238.933S124.587,17.067,256,17.067S494.933,124.587,494.933,256S387.413,494.933,256,494.933
				z"/>
			<path d="M333.653,272.213l-10.24,1.707l3.413,10.24c17.92,49.493,29.867,98.133,36.693,146.773l1.707,13.653l11.947-7.68
				c48.64-33.28,82.773-85.333,93.013-143.36l0.853-7.68l-6.827-2.56C422.4,269.653,377.173,266.24,333.653,272.213z
				 M378.027,414.72c-5.973-41.813-17.067-84.48-31.573-126.293c35.84-3.413,71.68-0.853,104.96,9.387
				C442.027,343.893,415.573,385.707,378.027,414.72z"/>
		</g>
	</g>
</g>
<g>
</g>
<g>
</g>
<g>
</g>
<g>
</g>
<g>
</g>
<g>
</g>
<g>
</g>
<g>
</g>
<g>
</g>
<g>
</g>
<g>
</g>
<g>
</g>
<g>
</g>
<g>
</g>
<g>
</g>
</svg>
