<?xml version="1.0" encoding="iso-8859-1"?>
<!-- Generator: Adobe Illustrator 19.0.0, SVG Export Plug-In . SVG Version: 6.00 Build 0)  -->
<svg version="1.1" id="Layer_1" xmlns="http://www.w3.org/2000/svg" xmlns:xlink="http://www.w3.org/1999/xlink" x="0px" y="0px"
	 viewBox="0 0 512 512" style="enable-background:new 0 0 512 512;" xml:space="preserve">
<g transform="translate(1 1)">
	<g>
		<g>
			<path d="M118.467,135.533C52.76,135.533-1,189.293-1,255s53.76,119.467,119.467,119.467S237.933,320.707,237.933,255
				S184.173,135.533,118.467,135.533z M118.467,357.4c-56.32,0-102.4-46.08-102.4-102.4s46.08-102.4,102.4-102.4
				s102.4,46.08,102.4,102.4S174.787,357.4,118.467,357.4z"/>
			<path d="M391.533,135.533c-65.707,0-119.467,53.76-119.467,119.467s53.76,119.467,119.467,119.467S511,320.707,511,255
				S457.24,135.533,391.533,135.533z M391.533,357.4c-56.32,0-102.4-46.08-102.4-102.4s46.08-102.4,102.4-102.4
				c56.32,0,102.4,46.08,102.4,102.4S447.853,357.4,391.533,357.4z"/>
		</g>
	</g>
</g>
<g>
</g>
<g>
</g>
<g>
</g>
<g>
</g>
<g>
</g>
<g>
</g>
<g>
</g>
<g>
</g>
<g>
</g>
<g>
</g>
<g>
</g>
<g>
</g>
<g>
</g>
<g>
</g>
<g>
</g>
</svg>
