<?xml version="1.0" encoding="iso-8859-1"?>
<!-- Generator: Adobe Illustrator 18.0.0, SVG Export Plug-In . SVG Version: 6.00 Build 0)  -->
<!DOCTYPE svg PUBLIC "-//W3C//DTD SVG 1.1//EN" "http://www.w3.org/Graphics/SVG/1.1/DTD/svg11.dtd">
<svg version="1.1" id="Capa_1" xmlns="http://www.w3.org/2000/svg" xmlns:xlink="http://www.w3.org/1999/xlink" x="0px" y="0px"
	 viewBox="0 0 56 56" style="enable-background:new 0 0 56 56;" xml:space="preserve">
<g>
	<path d="M38,0h-2H20h-2H0v56h18h2h16h2h18V0H38z M18,54H2V2h16V54z M36,54H20V2h16V54z M54,54H38V2h16V54z"/>
	<path d="M16,4H4v22h12V4z M14,24H6V6h8V24z"/>
	<path d="M34,4H22v22h12V4z M32,24h-8V6h8V24z"/>
	<path d="M52,4H40v22h12V4z M50,24h-8V6h8V24z"/>
	<path d="M10,51c3.309,0,6-2.691,6-6s-2.691-6-6-6s-6,2.691-6,6S6.691,51,10,51z M10,41c2.206,0,4,1.794,4,4s-1.794,4-4,4
		s-4-1.794-4-4S7.794,41,10,41z"/>
	<path d="M28,51c3.309,0,6-2.691,6-6s-2.691-6-6-6s-6,2.691-6,6S24.691,51,28,51z M28,41c2.206,0,4,1.794,4,4s-1.794,4-4,4
		s-4-1.794-4-4S25.794,41,28,41z"/>
	<path d="M46,51c3.309,0,6-2.691,6-6s-2.691-6-6-6s-6,2.691-6,6S42.691,51,46,51z M46,41c2.206,0,4,1.794,4,4s-1.794,4-4,4
		s-4-1.794-4-4S43.794,41,46,41z"/>
</g>
<g>
</g>
<g>
</g>
<g>
</g>
<g>
</g>
<g>
</g>
<g>
</g>
<g>
</g>
<g>
</g>
<g>
</g>
<g>
</g>
<g>
</g>
<g>
</g>
<g>
</g>
<g>
</g>
<g>
</g>
</svg>
