<?xml version="1.0" encoding="iso-8859-1"?>
<!-- Generator: Adobe Illustrator 18.0.0, SVG Export Plug-In . SVG Version: 6.00 Build 0)  -->
<!DOCTYPE svg PUBLIC "-//W3C//DTD SVG 1.1//EN" "http://www.w3.org/Graphics/SVG/1.1/DTD/svg11.dtd">
<svg version="1.1" id="Capa_1" xmlns="http://www.w3.org/2000/svg" xmlns:xlink="http://www.w3.org/1999/xlink" x="0px" y="0px"
	 viewBox="0 0 56 56" style="enable-background:new 0 0 56 56;" xml:space="preserve">
<g>
	<path d="M38,0h-2H20h-2H0v56h18h2h16h2h18V0H38z M54,2v43H38V2H54z M36,2v43H20V2H36z M18,2v43H2V2H18z M2,54v-7h16v7H2z M20,54v-7
		h16v7H20z M38,54v-7h16v7H38z"/>
	<path d="M16,31H4v12h12V31z M14,41H6v-8h8V41z"/>
	<path d="M34,31H22v12h12V31z M32,41h-8v-8h8V41z"/>
	<path d="M52,31H40v12h12V31z M50,41h-8v-8h8V41z"/>
</g>
<g>
</g>
<g>
</g>
<g>
</g>
<g>
</g>
<g>
</g>
<g>
</g>
<g>
</g>
<g>
</g>
<g>
</g>
<g>
</g>
<g>
</g>
<g>
</g>
<g>
</g>
<g>
</g>
<g>
</g>
</svg>
