<?xml version="1.0" encoding="iso-8859-1"?>
<!-- Generator: Adobe Illustrator 18.0.0, SVG Export Plug-In . SVG Version: 6.00 Build 0)  -->
<!DOCTYPE svg PUBLIC "-//W3C//DTD SVG 1.1//EN" "http://www.w3.org/Graphics/SVG/1.1/DTD/svg11.dtd">
<svg version="1.1" id="Capa_1" xmlns="http://www.w3.org/2000/svg" xmlns:xlink="http://www.w3.org/1999/xlink" x="0px" y="0px"
	 viewBox="0 0 59.998 59.998" style="enable-background:new 0 0 59.998 59.998;" xml:space="preserve">
<g>
	<path d="M59.457,35.985c-1.753-2.442-3.53-2.481-7.979-0.14l-8.623,5.272c-1.278,0.68-3.901,0.884-6.445,0.927
		c0.452-0.941,0.25-2.064-0.604-3.34c-0.791-1.18-1.868-2.118-3.118-2.759C34.76,34.261,36,31.754,36,28.999c0-4.962-4.037-9-9-9
		s-9,4.038-9,9c0,1.481,0.368,2.895,1.027,4.156c-0.013-0.009-0.027-0.017-0.039-0.027c-3.59-2.707-9.588-3.089-11.987-3.13v-3.027
		H0v32.028h7v-3h13c2.04,0,4.098-0.156,6.116-0.462l12.963-1.971c0.472-0.006,0.95-0.062,1.376-0.158
		c1.194-0.168,2.335-0.738,3.302-1.65l15.157-11.804l0.023-0.019C60.118,38.958,60.346,37.222,59.457,35.985z M23.17,34.848
		C21.181,33.546,20,31.374,20,28.999c0-3.86,3.141-7,7-7s7,3.14,7,7c0,2.586-1.391,4.909-3.652,6.139
		c-0.124-0.024-0.25-0.036-0.375-0.055c-0.125-0.019-0.248-0.041-0.375-0.055c-0.325-0.036-0.652-0.058-0.98-0.058h-3.9
		C24.215,34.971,23.695,34.93,23.17,34.848z M5,56.999H2V28.971h3v1.061v25.968V56.999z M57.672,38.387L42.489,50.21l-0.077,0.067
		c-0.67,0.641-1.443,1.039-2.334,1.168c-0.364,0.081-0.727,0.122-1.078,0.122l-13.185,1.993c-1.919,0.292-3.876,0.44-5.815,0.44H7
		V32.001c2.217,0.046,7.706,0.404,10.784,2.724c1.336,1.008,2.937,1.692,4.645,2.02l0.015,0.009l0.19,0.033
		c0.01,0.002,0.019,0.002,0.029,0.004c0.328,0.056,0.66,0.101,0.995,0.13c0.011,0.001,0.022,0.003,0.032,0.004
		c0.34,0.029,0.682,0.046,1.027,0.046h3.9c0.55,0,1.1,0.065,1.634,0.193l0.064,0.016c1.573,0.39,2.94,1.315,3.827,2.638
		c0.421,0.627,0.587,1.148,0.446,1.393c-0.267,0.462-1.506,0.746-2.763,0.801c-0.409-0.007-0.782-0.012-1.109-0.012H21
		c-3.131,0-5,1.495-5,4c0,0.552,0.447,1,1,1s1-0.448,1-1c0-0.495,0-2,3-2h9.694c0.227,0.014,0.663,0.033,1.212,0.013
		c0.172,0.003,0.35,0.006,0.532,0.009c4.693,0.087,9.094,0.063,11.408-1.169l8.618-5.27c4.124-2.167,4.539-1.586,5.367-0.432
		C58.108,37.535,58.037,38.076,57.672,38.387z"/>
	<path d="M32,28.999c0-2.757-2.243-5-5-5s-5,2.243-5,5s2.243,5,5,5S32,31.756,32,28.999z M27,31.999c-1.654,0-3-1.346-3-3
		s1.346-3,3-3s3,1.346,3,3S28.654,31.999,27,31.999z"/>
	<path d="M42,18.999c4.963,0,9-4.038,9-9s-4.037-9-9-9s-9,4.038-9,9S37.037,18.999,42,18.999z M42,2.999c3.859,0,7,3.14,7,7
		s-3.141,7-7,7s-7-3.14-7-7S38.141,2.999,42,2.999z"/>
	<path d="M42,14.999c2.757,0,5-2.243,5-5s-2.243-5-5-5s-5,2.243-5,5S39.243,14.999,42,14.999z M42,6.999c1.654,0,3,1.346,3,3
		s-1.346,3-3,3s-3-1.346-3-3S40.346,6.999,42,6.999z"/>
</g>
<g>
</g>
<g>
</g>
<g>
</g>
<g>
</g>
<g>
</g>
<g>
</g>
<g>
</g>
<g>
</g>
<g>
</g>
<g>
</g>
<g>
</g>
<g>
</g>
<g>
</g>
<g>
</g>
<g>
</g>
</svg>
