<?xml version="1.0" encoding="iso-8859-1"?>
<!-- Generator: Adobe Illustrator 19.0.0, SVG Export Plug-In . SVG Version: 6.00 Build 0)  -->
<svg version="1.1" id="Layer_1" xmlns="http://www.w3.org/2000/svg" xmlns:xlink="http://www.w3.org/1999/xlink" x="0px" y="0px"
	 viewBox="0 0 512 512" style="enable-background:new 0 0 512 512;" xml:space="preserve">
<g transform="translate(1 1)">
	<g>
		<g>
			<path d="M318.147,212.333H152.6v76.8h83.627c-11.947,31.573-38.4,51.2-73.387,51.2c-46.08,0-87.04-40.107-87.04-85.333
				s40.96-85.333,87.04-85.333c22.187,0,40.96,6.827,54.613,20.48l5.973,5.973l57.173-57.173l-6.827-5.973
				C247.32,106.52,208.92,92.867,162.84,92.867C70.68,92.867-1,163.693-1,255s71.68,162.133,163.84,162.133
				c84.48,0,145.067-49.493,156.16-129.707c1.707-10.24,2.56-21.333,2.56-32.427c0-12.8-0.853-25.6-2.56-35.84L318.147,212.333z
				 M302.787,284.867c-11.093,72.533-63.147,115.2-139.947,115.2c-81.92,0-146.773-64-146.773-145.067S80.92,109.933,162.84,109.933
				c38.4,0,69.12,10.24,93.013,29.013l-33.28,33.28c-15.36-12.8-35.84-19.627-59.733-19.627c-56.32,0-104.107,46.933-104.107,102.4
				s47.787,102.4,103.253,102.4c46.08,0,82.773-29.867,93.013-75.093l2.56-10.24h-87.893V229.4H303.64
				c0.853,7.68,1.707,17.067,1.707,25.6C305.347,265.24,304.493,275.48,302.787,284.867z"/>
			<path d="M459.8,212.333v-51.2h-59.733v51.2h-51.2v59.733h51.2v51.2H459.8v-51.2H511v-59.733H459.8z M493.933,255h-51.2v51.2
				h-25.6V255h-51.2v-25.6h51.2v-51.2h25.6v51.2h51.2V255z"/>
		</g>
	</g>
</g>
<g>
</g>
<g>
</g>
<g>
</g>
<g>
</g>
<g>
</g>
<g>
</g>
<g>
</g>
<g>
</g>
<g>
</g>
<g>
</g>
<g>
</g>
<g>
</g>
<g>
</g>
<g>
</g>
<g>
</g>
</svg>
