<?xml version="1.0" encoding="iso-8859-1"?>
<!-- Generator: Adobe Illustrator 18.0.0, SVG Export Plug-In . SVG Version: 6.00 Build 0)  -->
<!DOCTYPE svg PUBLIC "-//W3C//DTD SVG 1.1//EN" "http://www.w3.org/Graphics/SVG/1.1/DTD/svg11.dtd">
<svg version="1.1" id="Capa_1" xmlns="http://www.w3.org/2000/svg" xmlns:xlink="http://www.w3.org/1999/xlink" x="0px" y="0px"
	 viewBox="0 0 60 60" style="enable-background:new 0 0 60 60;" xml:space="preserve">
<g>
	<circle cx="56" cy="23" r="1"/>
	<circle cx="56" cy="29" r="1"/>
	<circle cx="53" cy="32" r="1"/>
	<circle cx="41" cy="32" r="1"/>
	<circle cx="44" cy="29" r="1"/>
	<circle cx="26" cy="41" r="1"/>
	<circle cx="53" cy="38" r="1"/>
	<circle cx="56" cy="35" r="1"/>
	<circle cx="56" cy="41" r="1"/>
	<circle cx="47" cy="38" r="1"/>
	<circle cx="50" cy="35" r="1"/>
	<circle cx="50" cy="41" r="1"/>
	<circle cx="35" cy="38" r="1"/>
	<circle cx="41" cy="38" r="1"/>
	<circle cx="23" cy="44" r="1"/>
	<circle cx="29" cy="44" r="1"/>
	<circle cx="11" cy="44" r="1"/>
	<circle cx="53" cy="44" r="1"/>
	<circle cx="47" cy="44" r="1"/>
	<circle cx="35" cy="44" r="1"/>
	<circle cx="41" cy="44" r="1"/>
	<circle cx="38" cy="35" r="1"/>
	<circle cx="44" cy="35" r="1"/>
	<circle cx="38" cy="41" r="1"/>
	<circle cx="44" cy="41" r="1"/>
	<circle cx="23" cy="50" r="1"/>
	<circle cx="26" cy="47" r="1"/>
	<circle cx="26" cy="53" r="1"/>
	<circle cx="29" cy="50" r="1"/>
	<circle cx="17" cy="50" r="1"/>
	<circle cx="20" cy="53" r="1"/>
	<circle cx="5" cy="50" r="1"/>
	<circle cx="11" cy="50" r="1"/>
	<circle cx="8" cy="47" r="1"/>
	<circle cx="14" cy="47" r="1"/>
	<circle cx="8" cy="53" r="1"/>
	<circle cx="14" cy="53" r="1"/>
	<circle cx="53" cy="50" r="1"/>
	<circle cx="56" cy="47" r="1"/>
	<circle cx="56" cy="53" r="1"/>
	<circle cx="47" cy="50" r="1"/>
	<circle cx="50" cy="47" r="1"/>
	<circle cx="50" cy="53" r="1"/>
	<circle cx="32" cy="47" r="1"/>
	<circle cx="32" cy="53" r="1"/>
	<circle cx="35" cy="50" r="1"/>
	<circle cx="41" cy="50" r="1"/>
	<circle cx="38" cy="47" r="1"/>
	<circle cx="44" cy="47" r="1"/>
	<circle cx="38" cy="53" r="1"/>
	<circle cx="44" cy="53" r="1"/>
	<path d="M7,29h2c0.553,0,1-0.447,1-1s-0.447-1-1-1H7c-0.553,0-1,0.447-1,1S6.447,29,7,29z"/>
	<path d="M7,25h2c0.553,0,1-0.447,1-1s-0.447-1-1-1H7c-0.553,0-1,0.447-1,1S6.447,25,7,25z"/>
	<path d="M7,21h2c0.553,0,1-0.447,1-1s-0.447-1-1-1H7c-0.553,0-1,0.447-1,1S6.447,21,7,21z"/>
	<path d="M7,17h2c0.553,0,1-0.447,1-1s-0.447-1-1-1H7c-0.553,0-1,0.447-1,1S6.447,17,7,17z"/>
	<path d="M7,13h2c0.553,0,1-0.447,1-1s-0.447-1-1-1H7c-0.553,0-1,0.447-1,1S6.447,13,7,13z"/>
	<path d="M7,9h2c0.553,0,1-0.447,1-1S9.553,7,9,7H7C6.447,7,6,7.447,6,8S6.447,9,7,9z"/>
	<path d="M7,5h2c0.553,0,1-0.447,1-1S9.553,3,9,3H7C6.447,3,6,3.447,6,4S6.447,5,7,5z"/>
	<path d="M47.939,29.253l-6-8l-11,17l-6.141-8.188l-7,15l-5.69-7.588L4,45.586V1c0-0.553-0.447-1-1-1S2,0.447,2,1v46.586V56H1
		c-0.553,0-1,0.447-1,1s0.447,1,1,1h1v1c0,0.553,0.447,1,1,1s1-0.447,1-1v-1h55h1V10.614L47.939,29.253z M54,56c0-0.552-0.448-1-1-1
		s-1,0.448-1,1h-4c0-0.552-0.448-1-1-1s-1,0.448-1,1h-4c0-0.552-0.448-1-1-1s-1,0.448-1,1h-4c0-0.552-0.448-1-1-1s-1,0.448-1,1h-4
		c0-0.552-0.448-1-1-1s-1,0.448-1,1h-4c0-0.552-0.448-1-1-1s-1,0.448-1,1h-4c0-0.552-0.448-1-1-1s-1,0.448-1,1h-4
		c0-0.552-0.448-1-1-1s-1,0.448-1,1H6c0-0.552-0.448-1-1-1s-1,0.448-1,1v-6v-1.586l7.892-7.892l6.31,8.412l0.83-1.779
		C19.109,47.631,19.503,48,20,48c0.552,0,1-0.448,1-1s-0.448-1-1-1c-0.187,0-0.352,0.065-0.501,0.154l5.702-12.219l5.859,7.813
		l0.127-0.196C31.367,41.815,31.656,42,32,42c0.552,0,1-0.448,1-1c0-0.492-0.363-0.883-0.831-0.966l9.892-15.287l4.723,6.297
		C46.339,31.145,46,31.525,46,32c0,0.552,0.448,1,1,1c0.375,0,0.689-0.215,0.86-0.52l0.2,0.267l4.067-6.285
		C52.296,26.778,52.617,27,53,27c0.552,0,1-0.448,1-1c0-0.529-0.415-0.952-0.935-0.987L58,17.386V56H54z"/>
</g>
<g>
</g>
<g>
</g>
<g>
</g>
<g>
</g>
<g>
</g>
<g>
</g>
<g>
</g>
<g>
</g>
<g>
</g>
<g>
</g>
<g>
</g>
<g>
</g>
<g>
</g>
<g>
</g>
<g>
</g>
</svg>
