<?xml version="1.0" encoding="iso-8859-1"?>
<!-- Generator: Adobe Illustrator 18.0.0, SVG Export Plug-In . SVG Version: 6.00 Build 0)  -->
<!DOCTYPE svg PUBLIC "-//W3C//DTD SVG 1.1//EN" "http://www.w3.org/Graphics/SVG/1.1/DTD/svg11.dtd">
<svg version="1.1" id="Capa_1" xmlns="http://www.w3.org/2000/svg" xmlns:xlink="http://www.w3.org/1999/xlink" x="0px" y="0px"
	 viewBox="0 0 60 60" style="enable-background:new 0 0 60 60;" xml:space="preserve">
<path d="M55,6.586V2.896C55,1.3,53.7,0,52.104,0H7.896C6.299,0,5,1.3,5,2.896v3.689l-5,5V15v2v0.5c0,0.169,0.01,0.335,0.025,0.5H0
	v25v2v10v2v3h6v-3h48v3h6v-3v-2V45v-2V18h-0.025C59.99,17.835,60,17.669,60,17.5V17v-2v-3.414L55,6.586z M53.5,23H54v20h-5.556
	C48.788,42.409,49,41.732,49,41c0-2.062-1.573-3.744-3.579-3.957C45.78,36.443,46,35.749,46,35c0-2.206-1.794-4-4-4s-4,1.794-4,4
	c0,0.749,0.22,1.443,0.579,2.043C36.574,37.256,35,38.938,35,41c0,0.732,0.212,1.409,0.556,2H20v-3h4c0.552,0,1-0.447,1-1
	s-0.448-1-1-1h-4h-0.586l7-7l-1.833-1.833c-4.18-4.18-10.982-4.18-15.162,0L7.586,31l7.001,7H14h-4c-0.552,0-1,0.447-1,1
	s0.448,1,1,1h4v3H6V23h0.5c1.86,0,3.504-0.931,4.5-2.348C11.996,22.069,13.64,23,15.5,23h1c1.86,0,3.504-0.931,4.5-2.348
	C21.996,22.069,23.64,23,25.5,23s3.504-0.931,4.5-2.348C30.996,22.069,32.64,23,34.5,23s3.504-0.931,4.5-2.348
	C39.996,22.069,41.64,23,43.5,23h1c1.86,0,3.504-0.931,4.5-2.348C49.996,22.069,51.64,23,53.5,23z M7,45h2v10H7V45z M11,45h2v10h-2
	V45z M16,40h0.588l0.413,0.413L17.414,40H18v3h-2V40z M17,30c-0.552,0-1,0.447-1,1v5.586L10.414,31l0.419-0.419
	c3.401-3.399,8.934-3.4,12.334,0L23.586,31L18,36.586V31C18,30.447,17.552,30,17,30z M15,45h2v10h-2V45z M19,45h1h1v10h-2V45z
	 M23,45h2v10h-2V45z M27,45h2v10h-2V45z M31,45h2v10h-2V45z M35,45h2v10h-2V45z M45,43c-1.103,0-2-0.897-2-2s0.897-2,2-2
	s2,0.897,2,2S46.103,43,45,43z M42,37c-1.103,0-2-0.897-2-2s0.897-2,2-2s2,0.897,2,2S43.103,37,42,37z M41,41c0,1.103-0.897,2-2,2
	s-2-0.897-2-2s0.897-2,2-2S41,39.897,41,41z M39,45h2v10h-2V45z M43,45h2v10h-2V45z M47,45h2v10h-2V45z M51,45h2v10h-2V45z M15,2h6
	v4.901l-0.98,4.902L20.005,15H20h-8v-2.723l3-5V2z M38,12.099V15h-7V2h6v5L38,12.099z M48,17.5c0,1.93-1.57,3.5-3.5,3.5h-1
	c-1.93,0-3.5-1.57-3.5-3.5V17h8V17.5z M38,17.5c0,1.93-1.57,3.5-3.5,3.5S31,19.43,31,17.5V17h7V17.5z M29,17.5
	c0,1.93-1.57,3.5-3.5,3.5S22,19.43,22,17.5V17h7V17.5z M29,15h-7v-2.901l0.98-4.902L22.997,2H29V15z M12,17h8v0.5
	c0,1.93-1.57,3.5-3.5,3.5h-1c-1.93,0-3.5-1.57-3.5-3.5V17z M48,15h-8v-3l-1-5.099V2h6v5.277l3,5V15z M2,12.414l5-5V2.896
	C7,2.402,7.402,2,7.896,2H13v4.723l-3,5V15H2V12.414z M10,17v0.5c0,1.93-1.57,3.5-3.5,3.5H5.512l-0.401-0.045
	c-0.661-0.073-1.266-0.327-1.763-0.716c-0.014-0.011-0.028-0.023-0.042-0.034c-0.363-0.293-0.667-0.659-0.889-1.083
	c0,0-0.001-0.001-0.001-0.002c-0.076-0.145-0.142-0.297-0.198-0.454l-0.026-0.072C2.077,18.247,2,17.884,2,17.5V17H10z M2,21.739
	c0.579,0.479,1.259,0.837,2,1.048V43H2V21.739z M2,45h3v10H2V45z M4,58H2v-1h2V58z M58,58h-2v-1h2V58z M58,55h-3V45h3V55z M56,43
	V22.787c0.741-0.211,1.421-0.569,2-1.048V43H56z M58,17.5c0,0.384-0.077,0.746-0.192,1.092l-0.026,0.073
	c-0.056,0.157-0.122,0.309-0.198,0.454c-0.001,0.001-0.001,0.002-0.002,0.003c-0.222,0.424-0.526,0.789-0.888,1.081
	c-0.015,0.012-0.029,0.024-0.043,0.036c-0.497,0.389-1.102,0.642-1.763,0.716L54.488,21H53.5c-1.93,0-3.5-1.57-3.5-3.5V17h8V17.5z
	 M50,15v-3.277l-3-5V2h5.104C52.598,2,53,2.402,53,2.896v4.518l5,5V15H50z"/>
<g>
</g>
<g>
</g>
<g>
</g>
<g>
</g>
<g>
</g>
<g>
</g>
<g>
</g>
<g>
</g>
<g>
</g>
<g>
</g>
<g>
</g>
<g>
</g>
<g>
</g>
<g>
</g>
<g>
</g>
</svg>
