<?xml version="1.0" encoding="iso-8859-1"?>
<!-- Generator: Adobe Illustrator 18.0.0, SVG Export Plug-In . SVG Version: 6.00 Build 0)  -->
<!DOCTYPE svg PUBLIC "-//W3C//DTD SVG 1.1//EN" "http://www.w3.org/Graphics/SVG/1.1/DTD/svg11.dtd">
<svg version="1.1" id="Capa_1" xmlns="http://www.w3.org/2000/svg" xmlns:xlink="http://www.w3.org/1999/xlink" x="0px" y="0px"
	 viewBox="0 0 60 60" style="enable-background:new 0 0 60 60;" xml:space="preserve">
<g>
	<path d="M38.666,26.923c-0.386,0.376-0.6,0.88-0.604,1.419c-0.003,0.539,0.205,1.046,0.586,1.427l1.246,1.246
		c0.324,0.324,0.723,0.527,1.141,0.61c0.084,0.418,0.286,0.817,0.609,1.14l1.079,1.078c0.422,0.423,0.984,0.655,1.582,0.655
		s1.16-0.232,1.582-0.655l8.856-8.856c0.873-0.872,0.873-2.292,0-3.164l-1.078-1.078c-0.323-0.323-0.721-0.525-1.138-0.609
		c-0.085-0.429-0.296-0.824-0.612-1.141l-1.247-1.248c-0.377-0.377-0.892-0.612-1.434-0.588c-0.531,0.003-1.025,0.212-1.394,0.589
		l-9.917-9.882c0.386-0.376,0.6-0.88,0.604-1.419s-0.205-1.046-0.586-1.427l-1.246-1.246c-0.313-0.314-0.714-0.51-1.137-0.591
		c-0.081-0.425-0.285-0.831-0.613-1.159l-1.078-1.078c-0.844-0.845-2.319-0.847-3.165,0l-8.856,8.855
		c-0.423,0.423-0.655,0.984-0.655,1.582c0,0.599,0.232,1.16,0.655,1.583l1.078,1.078c0.316,0.316,0.71,0.526,1.139,0.612
		c0.086,0.428,0.295,0.822,0.611,1.138l1.246,1.246c0.375,0.375,0.893,0.59,1.423,0.59c0.004,0,0.008,0,0.012,0
		c0.531-0.003,1.026-0.213,1.394-0.59l1.596,1.597c0.29,0.289,0.29,0.761,0,1.05l-7.253,7.253l-0.708-0.708
		c-1.171-1.169-3.074-1.169-4.243,0.001s-1.169,3.073,0,4.243l0.707,0.707l-9.068,9.068c-0.527,0.527-1.189,0.902-1.914,1.084
		l-2.906,0.726c-1.075,0.27-2.059,0.826-2.843,1.61l-0.326,0.325C0.637,45.154,0,46.69,0,48.324s0.637,3.173,1.793,4.329
		l1.243,1.242c1.157,1.156,2.694,1.793,4.328,1.793c1.635,0,3.172-0.637,4.329-1.793l0.325-0.325
		c0.784-0.783,1.341-1.767,1.61-2.844l0.726-2.905c0.181-0.724,0.556-1.386,1.084-1.914l9.068-9.068l0.707,0.707
		c1.134,1.133,3.11,1.132,4.242,0.001c0.567-0.566,0.879-1.32,0.879-2.122c0-0.801-0.312-1.555-0.879-2.121l-0.707-0.707
		l7.253-7.253c0.29-0.29,0.761-0.29,1.05-0.001L38.666,26.923z M53.399,23.405c0,0.045-0.012,0.11-0.069,0.168l-8.856,8.856
		c-0.115,0.115-0.221,0.115-0.335,0l-1.079-1.078c-0.093-0.093-0.093-0.243,0-0.336l8.856-8.856
		c0.046-0.046,0.107-0.069,0.168-0.069c0.061,0,0.122,0.023,0.168,0.069l1.078,1.078C53.387,23.294,53.399,23.36,53.399,23.405z
		 M23.19,11.383c0-0.045,0.012-0.11,0.069-0.168l8.856-8.855c0.058-0.058,0.123-0.069,0.168-0.069s0.11,0.012,0.168,0.069
		l1.078,1.078c0.093,0.093,0.093,0.243,0,0.336l-8.856,8.856c-0.092,0.093-0.243,0.092-0.336,0l-1.078-1.078
		C23.202,11.494,23.19,11.429,23.19,11.383z M34.588,23.929l-8.667,8.668l2.121,2.121c0.189,0.189,0.293,0.44,0.293,0.707
		c0,0.268-0.104,0.518-0.293,0.707c-0.377,0.379-1.036,0.379-1.414,0l-2.122-2.121L14.024,44.493
		c-0.785,0.784-1.341,1.768-1.61,2.844l-0.726,2.905c-0.181,0.725-0.556,1.386-1.084,1.914l-0.325,0.325
		C9.5,53.26,8.464,53.689,7.364,53.689c-1.084,0-2.146-0.44-2.914-1.207L3.208,51.24C2.429,50.46,2,49.425,2,48.324
		s0.429-2.135,1.207-2.914l0.325-0.325C4.061,44.557,4.723,44.182,5.447,44l2.906-0.726c1.077-0.27,2.06-0.826,2.843-1.609
		l10.483-10.482l-2.122-2.121c-0.39-0.39-0.39-1.025,0-1.415c0.195-0.194,0.451-0.292,0.707-0.292c0.256,0,0.512,0.098,0.708,0.292
		l2.121,2.121l8.667-8.667c1.069-1.068,1.069-2.809,0-3.878l-1.596-1.597c-0.378-0.378-0.88-0.586-1.414-0.586
		c-0.004,0-0.009,0-0.013,0c-0.539,0.003-1.043,0.218-1.402,0.586l-1.246-1.246c-0.058-0.058-0.069-0.123-0.069-0.168
		s0.012-0.11,0.069-0.168l8.857-8.856c0.114-0.115,0.22-0.115,0.335,0l1.246,1.246c-0.377,0.368-0.586,0.863-0.589,1.395
		c-0.003,0.534,0.212,1.057,0.59,1.434l9.899,9.899c0.378,0.378,0.88,0.586,1.414,0.586c0.004,0,0.008,0,0.013,0
		c0.539-0.003,1.042-0.218,1.401-0.586l1.247,1.248c0.057,0.057,0.069,0.122,0.069,0.166c0,0.046-0.012,0.111-0.069,0.169
		l-8.857,8.856l0,0.001c-0.094,0.091-0.243,0.091-0.335-0.001l-1.245-1.247c0.376-0.368,0.585-0.862,0.588-1.394
		c0.003-0.533-0.211-1.057-0.589-1.435l-1.597-1.597C37.396,22.861,35.657,22.861,34.588,23.929z"/>
	<path d="M53,51.689h-9c-3.86,0-7,3.141-7,7v1h23v-1C60,54.829,56.86,51.689,53,51.689z M39.101,57.689c0.464-2.279,2.485-4,4.899-4
		h9c2.415,0,4.435,1.721,4.899,4H39.101z"/>
	<path d="M42,48.689c-0.552,0-1,0.447-1,1s0.448,1,1,1h13c0.552,0,1-0.447,1-1s-0.448-1-1-1H42z"/>
</g>
<g>
</g>
<g>
</g>
<g>
</g>
<g>
</g>
<g>
</g>
<g>
</g>
<g>
</g>
<g>
</g>
<g>
</g>
<g>
</g>
<g>
</g>
<g>
</g>
<g>
</g>
<g>
</g>
<g>
</g>
</svg>
