<?xml version="1.0" encoding="iso-8859-1"?>
<!-- Generator: Adobe Illustrator 19.0.0, SVG Export Plug-In . SVG Version: 6.00 Build 0)  -->
<svg version="1.1" id="Layer_1" xmlns="http://www.w3.org/2000/svg" xmlns:xlink="http://www.w3.org/1999/xlink" x="0px" y="0px"
	 viewBox="0 0 512 512" style="enable-background:new 0 0 512 512;" xml:space="preserve">
<g transform="translate(1 1)">
	<g>
		<g>
			<path d="M471.747-1H38.253C16.92-1-1,16.92-1,38.253v433.493C-1,493.08,16.92,511,38.253,511h433.493
				C493.08,511,511,493.08,511,471.747V38.253C511,16.92,493.08-1,471.747-1z M493.933,471.747c0,11.947-10.24,22.187-22.187,22.187
				H38.253c-11.947,0-22.187-10.24-22.187-22.187V38.253c0-11.947,10.24-22.187,22.187-22.187h433.493
				c11.947,0,22.187,10.24,22.187,22.187V471.747z"/>
			<path d="M382.147,137.24c-2.56-14.507-10.24-27.307-22.187-35.84c-11.947-8.533-26.453-11.947-40.96-9.387
				c-14.507,2.56-27.307,11.093-35.84,23.04l-53.76,77.653v-46.08c0-29.867-25.6-54.613-56.32-54.613
				c-29.867,0-54.613,24.747-54.613,54.613v216.747c0,29.867,24.747,54.613,54.613,54.613c31.573,0,56.32-24.747,56.32-54.613
				v-46.08l53.76,77.653c8.533,11.947,21.333,19.627,35.84,22.187c2.56,0.853,5.973,0.853,9.387,0.853
				c11.093,0,22.187-3.413,31.573-9.387c11.947-8.533,19.627-21.333,22.187-35.84s-0.853-29.013-9.387-40.96L319,255l53.76-76.8
				C381.293,166.253,384.707,151.747,382.147,137.24z M359.107,168.813L298.52,255l60.587,86.187c5.12,8.533,7.68,17.92,5.973,28.16
				c-1.707,10.24-6.827,18.773-15.36,24.747c-8.533,5.12-17.92,7.68-28.16,5.973c-10.24-1.707-18.773-6.827-24.747-15.36
				l-84.48-122.88v101.547c0,20.48-17.92,37.547-39.253,37.547c-20.48,0-37.547-17.067-37.547-37.547V146.627
				c0-20.48,17.067-37.547,37.547-37.547c21.333,0,39.253,17.067,39.253,37.547v101.547l84.48-122.88
				c5.973-7.68,14.507-13.653,24.747-15.36s19.627,0,28.16,5.973c7.68,5.973,13.653,14.507,15.36,24.747
				S365.08,160.28,359.107,168.813z"/>
		</g>
	</g>
</g>
<g>
</g>
<g>
</g>
<g>
</g>
<g>
</g>
<g>
</g>
<g>
</g>
<g>
</g>
<g>
</g>
<g>
</g>
<g>
</g>
<g>
</g>
<g>
</g>
<g>
</g>
<g>
</g>
<g>
</g>
</svg>
