<?xml version="1.0" encoding="iso-8859-1"?>
<!-- Generator: Adobe Illustrator 18.0.0, SVG Export Plug-In . SVG Version: 6.00 Build 0)  -->
<!DOCTYPE svg PUBLIC "-//W3C//DTD SVG 1.1//EN" "http://www.w3.org/Graphics/SVG/1.1/DTD/svg11.dtd">
<svg version="1.1" id="Capa_1" xmlns="http://www.w3.org/2000/svg" xmlns:xlink="http://www.w3.org/1999/xlink" x="0px" y="0px"
	 viewBox="0 0 59.65 59.65" style="enable-background:new 0 0 59.65 59.65;" xml:space="preserve">
<g>
	<path d="M35.033,49.65c-1.93,0-3.5,1.57-3.5,3.5s1.57,3.5,3.5,3.5s3.5-1.57,3.5-3.5S36.963,49.65,35.033,49.65z M35.033,54.65
		c-0.827,0-1.5-0.673-1.5-1.5s0.673-1.5,1.5-1.5s1.5,0.673,1.5,1.5S35.861,54.65,35.033,54.65z"/>
	<path d="M13.568,21.211l3.535,3.535c0.195,0.195,0.451,0.293,0.707,0.293s0.512-0.098,0.707-0.293c0.391-0.391,0.391-1.023,0-1.414
		l-2.192-2.192c1.101-1.665,1.101-3.85,0-5.515l4.384-4.385c1.621,1.078,3.893,1.078,5.516,0l2.192,2.192
		c0.391,0.391,1.023,0.391,1.414,0s0.391-1.023,0-1.414l-3.536-3.536l-0.707,0.707c-1.134,1.133-3.109,1.133-4.243,0l-0.707-0.707
		l-7.071,7.071l0.707,0.707c1.169,1.17,1.169,3.073,0,4.243L13.568,21.211z"/>
	<path d="M43.337,28.353c-1.101,1.665-1.101,3.85,0,5.515l-4.384,4.385c-1.623-1.079-3.895-1.079-5.516,0l-2.192-2.192
		c-0.391-0.391-1.023-0.391-1.414,0s-0.391,1.023,0,1.414l3.536,3.536l0.707-0.707c1.134-1.134,3.109-1.132,4.243,0l0.707,0.707
		l7.071-7.071l-0.707-0.707c-1.169-1.17-1.169-3.073,0-4.243l0.707-0.707l-3.535-3.535c-0.391-0.391-1.023-0.391-1.414,0
		s-0.391,1.023,0,1.414L43.337,28.353z"/>
	<circle cx="47.509" cy="31.11" r="1"/>
	<circle cx="36.195" cy="42.424" r="1"/>
	<path d="M24.174,7.776c0.391-0.391,0.758-1.024,0.368-1.414c-0.391-0.391-1.024-0.391-1.414,0
		c-0.391,0.391-0.758,1.024-0.368,1.414C23.151,8.166,23.784,8.166,24.174,7.776z"/>
	<circle cx="12.154" cy="18.382" r="1"/>
	<path d="M51.533,37.15c0-0.88-0.143-1.744-0.413-2.58l3.455-3.455l-4.555-4.612c0.943-0.84,1.513-2.05,1.513-3.353
		c0-2.481-2.019-4.5-4.5-4.5c-0.182,0-0.362,0.018-0.54,0.04c0.022-0.178,0.04-0.357,0.04-0.54c0-2.481-2.019-4.5-4.5-4.5
		c-0.182,0-0.362,0.018-0.54,0.04c0.022-0.178,0.04-0.357,0.04-0.54c0-2.481-2.019-4.5-4.5-4.5c-0.182,0-0.362,0.018-0.54,0.04
		c0.022-0.178,0.04-0.357,0.04-0.54c0-2.607-1.738-4.5-4.132-4.5c-1.308,0-2.628,0.566-3.544,1.422L23.847,0L5.075,18.374
		l9.243,9.244c-0.494,0.722-0.784,1.593-0.784,2.532c0,1.564,0.804,2.942,2.019,3.748c0.06,0.08,0.132,0.161,0.226,0.241
		l10.755,10.715v1.796h-2v13h18h8v-13h-2v-3.029C50.447,42,51.533,39.669,51.533,37.15z M15.533,30.15
		c0-0.657,0.26-1.251,0.675-1.697l0.153-0.14c0.348-0.318,0.766-0.528,1.207-0.616c0.151-0.029,0.305-0.047,0.464-0.047h2.201h7.799
		c1.378,0,2.5,1.121,2.5,2.5c0,0.162-0.018,0.319-0.048,0.473c-0.211,1.052-1.11,1.892-2.22,1.999l-0.297,0.028h-5.79h-2.828h-1.317
		C16.655,32.65,15.533,31.529,15.533,30.15z M24.175,19.089c3.119-3.119,8.194-3.119,11.313,0c1.511,1.511,2.343,3.521,2.343,5.657
		s-0.832,4.146-2.343,5.657c-1.005,1.005-2.252,1.709-3.598,2.065c0.108-0.179,0.202-0.367,0.285-0.561
		c0.005-0.012,0.008-0.026,0.014-0.038c0.095-0.229,0.166-0.469,0.223-0.715c0.015-0.064,0.028-0.127,0.04-0.191
		c0.048-0.265,0.082-0.534,0.082-0.813c0-2.481-2.019-4.5-4.5-4.5h-6.145C21.611,23.232,22.437,20.827,24.175,19.089z M49.533,23.15
		c0,0.758-0.347,1.462-0.919,1.928l-3.488-3.532c0.468-0.557,1.159-0.897,1.907-0.897C48.412,20.65,49.533,21.771,49.533,23.15z
		 M44.533,18.15c0,0.743-0.337,1.43-0.888,1.897l-3.488-3.532c0.467-0.537,1.143-0.866,1.876-0.866
		C43.412,15.65,44.533,16.771,44.533,18.15z M39.533,13.15c0,0.727-0.326,1.4-0.857,1.866l-3.488-3.531
		c0.466-0.517,1.127-0.834,1.844-0.834C38.412,10.65,39.533,11.771,39.533,13.15z M32.401,5.65c1.473,0,2.132,1.256,2.132,2.5
		c0,0.712-0.314,1.369-0.825,1.834l-3.45-3.493C30.802,5.998,31.618,5.65,32.401,5.65z M23.823,2.822l3.904,3.952L27.641,6.97l5,5
		l0.573,0.573l4.427,4.427l0.573,0.573l4.427,4.427l0.573,0.573l5,5l0.016-0.007l3.526,3.57L36.212,46.65h-0.033l-12-12h3.854
		c0.102,0,0.198-0.023,0.299-0.03c0.498,0.076,0.997,0.117,1.494,0.117c2.633,0,5.193-1.038,7.075-2.92
		c1.889-1.889,2.929-4.4,2.929-7.071s-1.04-5.183-2.929-7.071c-3.898-3.898-10.243-3.898-14.142,0
		c-2.119,2.119-3.152,5.031-2.88,7.976h-1.847c-0.264,0-0.523,0.032-0.78,0.079c-0.083,0.015-0.165,0.031-0.246,0.05
		c-0.186,0.045-0.368,0.102-0.546,0.17c-0.155,0.058-0.303,0.128-0.449,0.203c-0.073,0.038-0.149,0.069-0.22,0.11L7.919,18.39
		L23.823,2.822z M28.181,43.634c-0.045-0.039-0.092-0.074-0.18-0.14l-8.877-8.844h2.227l12,12h-4.817v-2.718L28.181,43.634z
		 M26.533,57.65v-9h7.678h0.747c0.139,0,0.276,0.011,0.412,0.021l0.824,0.824l0.547-0.547c2.201,0.746,3.791,2.827,3.791,5.276
		v3.426H26.533z M48.533,57.65h-6v-3.426c0-2.206-0.954-4.189-2.464-5.574h8.464V57.65z M39.04,46.65l3.729-3.729l6.697-6.697
		c0.045,0.306,0.067,0.614,0.067,0.926c0,2.055-0.948,3.947-2.602,5.191l-0.398,0.3v4.009H39.04z"/>
</g>
<g>
</g>
<g>
</g>
<g>
</g>
<g>
</g>
<g>
</g>
<g>
</g>
<g>
</g>
<g>
</g>
<g>
</g>
<g>
</g>
<g>
</g>
<g>
</g>
<g>
</g>
<g>
</g>
<g>
</g>
</svg>
