<?xml version="1.0" encoding="iso-8859-1"?>
<!-- Generator: Adobe Illustrator 18.0.0, SVG Export Plug-In . SVG Version: 6.00 Build 0)  -->
<!DOCTYPE svg PUBLIC "-//W3C//DTD SVG 1.1//EN" "http://www.w3.org/Graphics/SVG/1.1/DTD/svg11.dtd">
<svg version="1.1" id="Capa_1" xmlns="http://www.w3.org/2000/svg" xmlns:xlink="http://www.w3.org/1999/xlink" x="0px" y="0px"
	 viewBox="0 0 58 58" style="enable-background:new 0 0 58 58;" xml:space="preserve">
<g>
	<path d="M36,4.5H22H0v32v2v1v2v1v2v1v2v1v2v3h22h2h10h2h22v-3v-2v-1v-2v-1v-2v-1v-2v-1v-2v-32H36z M34,6.5v1.825v26.351V36.5H24
		v-1.825V8.325V6.5H34z M36.784,12.396c0.256,0.218,0.498,0.447,0.733,0.683c0.118,0.119,0.236,0.236,0.349,0.359
		c0.212,0.232,0.409,0.475,0.601,0.721c0.113,0.145,0.228,0.287,0.334,0.437c0.169,0.238,0.32,0.487,0.471,0.736
		c0.103,0.171,0.211,0.34,0.306,0.516c0.131,0.244,0.242,0.498,0.356,0.75c0.086,0.192,0.18,0.381,0.256,0.577
		c0.1,0.259,0.178,0.527,0.26,0.794c0.061,0.199,0.133,0.394,0.184,0.597c0.076,0.302,0.125,0.611,0.177,0.92
		c0.03,0.175,0.073,0.347,0.095,0.524C40.966,20.5,41,20.997,41,21.5s-0.034,1-0.094,1.49c-0.022,0.177-0.065,0.348-0.095,0.524
		c-0.052,0.309-0.101,0.619-0.177,0.921c-0.051,0.202-0.122,0.397-0.184,0.596c-0.082,0.267-0.16,0.535-0.26,0.794
		c-0.076,0.197-0.17,0.385-0.256,0.577c-0.114,0.253-0.225,0.506-0.356,0.75c-0.094,0.176-0.203,0.344-0.306,0.516
		c-0.15,0.249-0.302,0.498-0.471,0.736c-0.106,0.15-0.221,0.292-0.334,0.437c-0.192,0.247-0.389,0.49-0.601,0.722
		c-0.112,0.123-0.23,0.24-0.348,0.358c-0.235,0.236-0.478,0.466-0.733,0.684c-0.12,0.102-0.244,0.201-0.368,0.298
		c-0.134,0.105-0.277,0.2-0.416,0.3V11.797c0.139,0.1,0.283,0.195,0.416,0.3C36.541,12.195,36.664,12.293,36.784,12.396z
		 M38.787,11.5h6.231c0.244,3.187,2.795,5.737,5.981,5.981v8.038c-3.187,0.244-5.737,2.794-5.981,5.981h-6.231
		c0.004-0.004,0.008-0.008,0.012-0.012c0.315-0.308,0.613-0.629,0.896-0.963c0.02-0.024,0.041-0.047,0.061-0.071
		c0.279-0.334,0.542-0.679,0.788-1.037c0.033-0.047,0.062-0.096,0.094-0.144c0.201-0.301,0.39-0.61,0.567-0.925
		c0.046-0.082,0.094-0.163,0.138-0.246c0.19-0.355,0.367-0.716,0.525-1.086c0.033-0.077,0.061-0.156,0.092-0.234
		c0.125-0.306,0.238-0.616,0.341-0.931c0.037-0.113,0.074-0.225,0.108-0.338c0.115-0.383,0.217-0.771,0.299-1.166
		c0.012-0.058,0.019-0.117,0.031-0.176c0.068-0.353,0.121-0.711,0.162-1.071c0.013-0.113,0.025-0.226,0.035-0.339
		C42.974,22.344,43,21.924,43,21.5s-0.026-0.844-0.063-1.26c-0.01-0.114-0.022-0.226-0.035-0.339
		c-0.041-0.36-0.094-0.718-0.162-1.071c-0.011-0.058-0.019-0.118-0.031-0.176c-0.082-0.395-0.184-0.782-0.299-1.166
		c-0.034-0.114-0.071-0.226-0.108-0.338c-0.103-0.315-0.216-0.625-0.341-0.931c-0.032-0.078-0.059-0.157-0.092-0.234
		c-0.159-0.37-0.336-0.732-0.525-1.086c-0.044-0.083-0.092-0.164-0.138-0.246c-0.177-0.316-0.366-0.624-0.567-0.925
		c-0.032-0.048-0.062-0.097-0.094-0.144c-0.246-0.357-0.509-0.703-0.788-1.037c-0.02-0.024-0.041-0.047-0.061-0.071
		c-0.283-0.334-0.581-0.656-0.896-0.963C38.795,11.508,38.791,11.504,38.787,11.5z M21.216,30.604
		c-0.256-0.218-0.499-0.447-0.733-0.684c-0.117-0.118-0.236-0.235-0.348-0.358c-0.212-0.232-0.409-0.475-0.601-0.722
		c-0.113-0.145-0.228-0.287-0.334-0.437c-0.169-0.238-0.32-0.487-0.471-0.736c-0.103-0.171-0.211-0.34-0.306-0.516
		c-0.131-0.244-0.242-0.498-0.356-0.75c-0.086-0.192-0.18-0.381-0.256-0.577c-0.1-0.259-0.178-0.528-0.26-0.794
		c-0.061-0.199-0.133-0.394-0.184-0.596c-0.076-0.302-0.125-0.612-0.177-0.921c-0.03-0.175-0.073-0.346-0.095-0.524
		C17.034,22.5,17,22.003,17,21.5s0.034-1,0.094-1.49c0.022-0.177,0.065-0.349,0.095-0.524c0.052-0.309,0.101-0.619,0.177-0.92
		c0.051-0.203,0.122-0.398,0.184-0.597c0.082-0.266,0.16-0.535,0.26-0.794c0.076-0.197,0.17-0.385,0.256-0.577
		c0.114-0.253,0.225-0.506,0.356-0.75c0.094-0.176,0.203-0.344,0.306-0.516c0.15-0.249,0.302-0.498,0.471-0.736
		c0.106-0.15,0.221-0.292,0.334-0.437c0.192-0.246,0.389-0.489,0.601-0.721c0.112-0.123,0.231-0.24,0.349-0.359
		c0.235-0.236,0.477-0.465,0.733-0.683c0.12-0.102,0.244-0.201,0.368-0.298c0.134-0.105,0.277-0.2,0.416-0.3v19.405
		c-0.139-0.1-0.283-0.195-0.416-0.3C21.459,30.805,21.336,30.707,21.216,30.604z M19.213,31.5h-6.231
		c-0.244-3.187-2.795-5.737-5.981-5.981v-8.038c3.187-0.244,5.737-2.794,5.981-5.981h6.231c-0.004,0.004-0.008,0.008-0.012,0.012
		c-0.315,0.308-0.613,0.629-0.896,0.963c-0.02,0.024-0.041,0.047-0.061,0.071c-0.279,0.334-0.542,0.679-0.788,1.037
		c-0.033,0.047-0.062,0.096-0.094,0.144c-0.201,0.301-0.39,0.61-0.567,0.925c-0.046,0.082-0.094,0.163-0.138,0.246
		c-0.19,0.355-0.367,0.716-0.525,1.086c-0.033,0.077-0.061,0.156-0.092,0.234c-0.125,0.306-0.238,0.616-0.341,0.931
		c-0.037,0.113-0.074,0.225-0.108,0.338c-0.115,0.383-0.217,0.771-0.299,1.166c-0.012,0.058-0.019,0.117-0.031,0.176
		c-0.068,0.353-0.121,0.711-0.162,1.071c-0.013,0.113-0.025,0.226-0.035,0.339C15.026,20.656,15,21.076,15,21.5
		s0.026,0.844,0.063,1.26c0.01,0.114,0.022,0.226,0.035,0.339c0.041,0.36,0.094,0.718,0.162,1.071
		c0.011,0.058,0.019,0.118,0.031,0.176c0.082,0.395,0.184,0.782,0.299,1.166c0.034,0.114,0.071,0.226,0.108,0.338
		c0.103,0.315,0.216,0.625,0.341,0.931c0.032,0.078,0.059,0.157,0.092,0.234c0.159,0.37,0.336,0.732,0.525,1.086
		c0.044,0.083,0.092,0.164,0.138,0.246c0.177,0.316,0.366,0.624,0.567,0.925c0.032,0.048,0.062,0.097,0.094,0.144
		c0.246,0.357,0.509,0.703,0.788,1.037c0.02,0.024,0.041,0.047,0.061,0.071c0.283,0.334,0.581,0.656,0.896,0.963
		C19.205,31.492,19.209,31.496,19.213,31.5z M2,6.5h20v2.891c-0.064,0.037-0.129,0.071-0.192,0.109h-9.834
		c-0.28,0-0.548,0.118-0.737,0.325s-0.283,0.484-0.259,0.764C10.99,10.724,11,10.861,11,11c0,2.481-2.019,4.5-4.5,4.5
		c-0.138,0-0.273-0.009-0.408-0.021c-0.289-0.025-0.559,0.067-0.766,0.257C5.118,15.925,5,16.193,5,16.475v10.051
		c0,0.281,0.118,0.549,0.326,0.739c0.207,0.189,0.476,0.282,0.766,0.257C6.227,27.509,6.362,27.5,6.5,27.5
		c2.481,0,4.5,2.019,4.5,4.5c0,0.139-0.01,0.276-0.021,0.412c-0.024,0.279,0.069,0.557,0.259,0.764s0.457,0.325,0.737,0.325h9.834
		c0.063,0.038,0.128,0.072,0.192,0.109V36.5H2V6.5z M2,38.5h20v1H2V38.5z M2,41.5h20v1H2V41.5z M2,44.5h20v1H2V44.5z M2,47.5h20v1H2
		V47.5z M22,51.5H2v-1h20V51.5z M34,51.5H24v-1v-2v-1v-2v-1v-2v-1v-2v-1h10v1v2v1v2v1v2v1v2V51.5z M56,51.5H36v-1h20V51.5z M56,48.5
		H36v-1h20V48.5z M56,45.5H36v-1h20V45.5z M56,42.5H36v-1h20V42.5z M56,39.5H36v-1h20V39.5z M36,36.5v-2.891
		c0.064-0.037,0.129-0.071,0.192-0.109h9.834c0.28,0,0.548-0.118,0.737-0.325s0.283-0.484,0.259-0.764C47.01,32.276,47,32.139,47,32
		c0-2.481,2.019-4.5,4.5-4.5c0.138,0,0.273,0.009,0.408,0.021c0.289,0.027,0.559-0.067,0.766-0.257
		C52.882,27.075,53,26.807,53,26.525V16.475c0-0.281-0.118-0.549-0.326-0.739c-0.207-0.189-0.478-0.283-0.766-0.257
		C51.773,15.491,51.638,15.5,51.5,15.5c-2.481,0-4.5-2.019-4.5-4.5c0-0.139,0.01-0.276,0.021-0.412
		c0.024-0.279-0.069-0.557-0.259-0.764S46.306,9.5,46.025,9.5h-9.834C36.129,9.462,36.064,9.428,36,9.391V6.5h20v30H36z"/>
	<path d="M6.5,14.5c1.93,0,3.5-1.57,3.5-3.5S8.43,7.5,6.5,7.5S3,9.07,3,11S4.57,14.5,6.5,14.5z M6.5,9.5C7.327,9.5,8,10.173,8,11
		s-0.673,1.5-1.5,1.5S5,11.827,5,11S5.673,9.5,6.5,9.5z"/>
	<path d="M51.5,7.5C49.57,7.5,48,9.07,48,11s1.57,3.5,3.5,3.5S55,12.93,55,11S53.43,7.5,51.5,7.5z M51.5,12.5
		c-0.827,0-1.5-0.673-1.5-1.5s0.673-1.5,1.5-1.5S53,10.173,53,11S52.327,12.5,51.5,12.5z"/>
	<path d="M6.5,28.5C4.57,28.5,3,30.07,3,32s1.57,3.5,3.5,3.5S10,33.93,10,32S8.43,28.5,6.5,28.5z M6.5,33.5
		C5.673,33.5,5,32.827,5,32s0.673-1.5,1.5-1.5S8,31.173,8,32S7.327,33.5,6.5,33.5z"/>
	<path d="M51.5,28.5c-1.93,0-3.5,1.57-3.5,3.5s1.57,3.5,3.5,3.5S55,33.93,55,32S53.43,28.5,51.5,28.5z M51.5,33.5
		c-0.827,0-1.5-0.673-1.5-1.5s0.673-1.5,1.5-1.5S53,31.173,53,32S52.327,33.5,51.5,33.5z"/>
</g>
<g>
</g>
<g>
</g>
<g>
</g>
<g>
</g>
<g>
</g>
<g>
</g>
<g>
</g>
<g>
</g>
<g>
</g>
<g>
</g>
<g>
</g>
<g>
</g>
<g>
</g>
<g>
</g>
<g>
</g>
</svg>
