<?xml version="1.0" encoding="iso-8859-1"?>
<!-- Generator: Adobe Illustrator 18.0.0, SVG Export Plug-In . SVG Version: 6.00 Build 0)  -->
<!DOCTYPE svg PUBLIC "-//W3C//DTD SVG 1.1//EN" "http://www.w3.org/Graphics/SVG/1.1/DTD/svg11.dtd">
<svg version="1.1" id="Capa_1" xmlns="http://www.w3.org/2000/svg" xmlns:xlink="http://www.w3.org/1999/xlink" x="0px" y="0px"
	 viewBox="0 0 60 60" style="enable-background:new 0 0 60 60;" xml:space="preserve">
<g>
	<path d="M51.414,23.5L34.953,7.039C34.717,4.501,32.599,2.5,30,2.5s-4.717,2.001-4.953,4.539L8.586,23.5H0v34h60v-34H51.414z
		 M30,4.5c1.654,0,3,1.346,3,3s-1.346,3-3,3s-3-1.346-3-3S28.346,4.5,30,4.5z M25.42,9.494C26.193,11.26,27.952,12.5,30,12.5
		s3.807-1.24,4.58-3.006L48.586,23.5H11.414L25.42,9.494z M58,55.5H2v-30h56V55.5z"/>
	<path d="M12,29.5c-2.757,0-5,2.243-5,5v12c0,2.757,2.243,5,5,5s5-2.243,5-5v-12C17,31.743,14.757,29.5,12,29.5z M15,46.5
		c0,1.654-1.346,3-3,3s-3-1.346-3-3v-12c0-1.654,1.346-3,3-3s3,1.346,3,3V46.5z"/>
	<path d="M24,29.5c-2.757,0-5,2.243-5,5v5v11c0,0.553,0.448,1,1,1s1-0.447,1-1v-7.026c0.838,0.635,1.87,1.026,3,1.026
		c2.757,0,5-2.243,5-5v-5C29,31.743,26.757,29.5,24,29.5z M27,39.5c0,1.654-1.346,3-3,3s-3-1.346-3-3v-5c0-1.654,1.346-3,3-3
		s3,1.346,3,3V39.5z"/>
	<path d="M51,45.307l-6.071-15.178c-0.001-0.003-0.004-0.005-0.005-0.008c-0.037-0.089-0.096-0.163-0.155-0.237
		c-0.022-0.028-0.035-0.064-0.06-0.09c-0.026-0.026-0.063-0.039-0.092-0.063c-0.071-0.057-0.141-0.116-0.225-0.152
		c-0.02-0.009-0.044-0.007-0.065-0.014c-0.102-0.036-0.208-0.063-0.318-0.064c-0.003,0-0.005-0.002-0.009-0.002
		c-0.063,0-0.117,0.025-0.176,0.036c-0.065,0.012-0.131,0.01-0.195,0.036c-0.003,0.001-0.005,0.004-0.008,0.005
		c-0.089,0.037-0.164,0.096-0.238,0.156c-0.028,0.022-0.064,0.035-0.088,0.06c-0.035,0.035-0.054,0.083-0.084,0.123
		c-0.046,0.063-0.1,0.122-0.13,0.193c-0.01,0.024-0.008,0.052-0.017,0.077c-0.033,0.099-0.061,0.2-0.062,0.306
		c0,0.003-0.002,0.005-0.002,0.009v20c0,0.553,0.448,1,1,1s1-0.447,1-1V35.693l6.071,15.178c0.001,0.003,0.004,0.006,0.005,0.009
		c0.008,0.019,0.021,0.033,0.03,0.051c0.044,0.091,0.098,0.172,0.164,0.243c0.025,0.027,0.052,0.048,0.079,0.071
		c0.063,0.055,0.131,0.101,0.205,0.138c0.033,0.017,0.063,0.033,0.098,0.046c0.111,0.041,0.226,0.07,0.346,0.07l0.001,0h0h0
		c0.124,0,0.249-0.022,0.371-0.071c0.003-0.001,0.005-0.004,0.008-0.005c0.088-0.036,0.162-0.095,0.235-0.154
		c0.028-0.023,0.065-0.036,0.091-0.061c0.033-0.032,0.049-0.077,0.077-0.114c0.049-0.065,0.105-0.127,0.137-0.203
		c0.01-0.023,0.008-0.051,0.016-0.075c0.034-0.099,0.061-0.201,0.062-0.308c0-0.003,0.002-0.006,0.002-0.009v-20
		c0-0.553-0.448-1-1-1s-1,0.447-1,1V45.307z"/>
	<path d="M40,31.5c0.552,0,1-0.447,1-1s-0.448-1-1-1h-8c-0.552,0-1,0.447-1,1v20c0,0.553,0.448,1,1,1h8c0.552,0,1-0.447,1-1
		s-0.448-1-1-1h-7v-8h7c0.552,0,1-0.447,1-1s-0.448-1-1-1h-7v-8H40z"/>
</g>
<g>
</g>
<g>
</g>
<g>
</g>
<g>
</g>
<g>
</g>
<g>
</g>
<g>
</g>
<g>
</g>
<g>
</g>
<g>
</g>
<g>
</g>
<g>
</g>
<g>
</g>
<g>
</g>
<g>
</g>
</svg>
