<?xml version="1.0" encoding="iso-8859-1"?>
<!-- Generator: Adobe Illustrator 19.0.0, SVG Export Plug-In . SVG Version: 6.00 Build 0)  -->
<svg version="1.1" id="Layer_1" xmlns="http://www.w3.org/2000/svg" xmlns:xlink="http://www.w3.org/1999/xlink" x="0px" y="0px"
	 viewBox="0 0 512 512" style="enable-background:new 0 0 512 512;" xml:space="preserve">
<g transform="translate(1 1)">
	<g>
		<g>
			<path d="M427.373,68.973C382.147,22.893,323.267-1,254.147-1C184.173-1,125.293,22.893,80.92,69.827
				C36.547,115.907,14.36,178.2,14.36,253.293C14.36,321.56,37.4,383,81.773,433.347C127,485.4,185.027,511,254.147,511
				s128-25.6,173.227-77.653c45.227-51.2,68.267-111.787,68.267-180.907C495.64,177.347,472.6,115.907,427.373,68.973z
				 M414.573,422.253c-41.813,47.787-95.573,71.68-160.427,71.68c-64,0-117.76-23.893-159.573-71.68
				c-41.813-47.787-63.147-104.96-63.147-168.96c0-70.827,21.333-128.853,62.293-172.373c40.96-42.667,95.573-64.853,160.427-64.853
				s118.613,22.187,161.28,65.707c41.813,42.667,63.147,100.693,63.147,171.52C478.573,317.293,457.24,374.467,414.573,422.253z"/>
			<path d="M332.653,117.613c-5.973-20.48-16.213-36.693-29.013-47.787c-13.653-11.947-30.72-17.92-50.347-17.92
				c-19.627,0-36.693,5.973-49.493,17.067s-22.187,27.307-28.16,47.787c-5.12,19.627-9.387,40.107-11.093,59.733
				c-1.707,19.627-2.56,43.52-2.56,71.68c0,17.067,0,32.427,0.853,44.373c0.853,11.947,1.707,26.453,3.413,43.52
				c0.853,17.067,4.267,32.427,7.68,44.373c4.267,11.947,9.387,23.893,15.36,35.84c6.827,12.8,15.36,22.187,26.453,29.013
				s23.893,10.24,38.4,10.24c13.653,0,27.307-2.56,36.693-10.24c11.093-6.827,20.48-16.213,27.307-29.013
				c5.973-11.947,11.093-23.893,15.36-35.84c4.267-11.947,7.68-26.453,9.387-44.373c1.707-17.067,3.413-31.573,3.413-44.373
				c0.853-11.947,0.853-26.453,0.853-43.52c0-27.307-0.853-51.2-2.56-70.827C342.893,157.72,338.627,137.24,332.653,117.613z
				 M330.947,290.84c0,11.947-1.707,27.307-3.413,43.52c-1.707,16.213-5.12,29.867-8.533,40.96
				c-4.267,11.093-8.533,22.187-14.507,33.28c-5.12,10.24-11.947,17.067-20.48,22.187c-8.533,5.12-18.773,7.68-29.867,7.68
				c-11.093,0-20.48-2.56-29.013-7.68c-8.533-5.12-15.36-11.947-20.48-22.187c-5.973-10.24-10.24-21.333-13.653-32.427
				s-5.973-24.747-7.68-40.96c-1.707-17.067-2.56-31.573-3.413-43.52s-0.853-26.453-0.853-43.52c0-27.307,0.853-51.2,2.56-69.973
				c2.56-18.773,5.973-37.547,11.093-56.32c5.12-17.92,12.8-31.573,23.04-40.107c9.387-8.533,22.187-12.8,38.4-12.8
				c15.36,0,28.16,4.267,40.107,11.947c10.24,9.387,18.773,23.04,23.893,40.107c5.12,18.773,9.387,37.547,11.093,57.173
				c1.707,19.627,2.56,42.667,2.56,69.12C331.8,264.387,330.947,278.893,330.947,290.84z"/>
		</g>
	</g>
</g>
<g>
</g>
<g>
</g>
<g>
</g>
<g>
</g>
<g>
</g>
<g>
</g>
<g>
</g>
<g>
</g>
<g>
</g>
<g>
</g>
<g>
</g>
<g>
</g>
<g>
</g>
<g>
</g>
<g>
</g>
</svg>
