<?xml version="1.0" encoding="iso-8859-1"?>
<!-- Generator: Adobe Illustrator 18.0.0, SVG Export Plug-In . SVG Version: 6.00 Build 0)  -->
<!DOCTYPE svg PUBLIC "-//W3C//DTD SVG 1.1//EN" "http://www.w3.org/Graphics/SVG/1.1/DTD/svg11.dtd">
<svg version="1.1" id="Capa_1" xmlns="http://www.w3.org/2000/svg" xmlns:xlink="http://www.w3.org/1999/xlink" x="0px" y="0px"
	 viewBox="0 0 60 60" style="enable-background:new 0 0 60 60;" xml:space="preserve">
<path d="M58,23v-0.764c0-1.76-0.978-3.343-2.553-4.131C54.555,17.659,54,16.762,54,15.764V7h0.688C55.412,7,56,6.412,56,5.688V3.812
	C56,1.71,54.291,0,52.189,0h-6.378C43.709,0,42,1.71,42,3.812v1.877C42,6.412,42.588,7,43.312,7H44v8.764
	c0,0.998-0.555,1.896-1.447,2.342C40.978,18.894,40,20.477,40,22.236V23h-1v-0.764c0-1.76-0.978-3.343-2.553-4.131
	C35.555,17.659,35,16.762,35,15.764V7h0.688C36.412,7,37,6.412,37,5.688V3.812C37,1.71,35.291,0,33.189,0h-6.378
	C24.709,0,23,1.71,23,3.812v1.877C23,6.412,23.588,7,24.312,7H25v8.764c0,0.998-0.555,1.896-1.447,2.342
	C21.978,18.894,21,20.477,21,22.236V23h-1v-0.764c0-1.76-0.978-3.343-2.553-4.131C16.555,17.659,16,16.762,16,15.764V7h0.688
	C17.412,7,18,6.412,18,5.688V3.812C18,1.71,16.291,0,14.189,0H7.811C5.709,0,4,1.71,4,3.812v1.877C4,6.412,4.588,7,5.312,7H6v8.764
	c0,0.998-0.555,1.896-1.447,2.342C2.978,18.894,2,20.477,2,22.236V23H0v37h60v-6V40V23H58z M44,3.812c0-0.706,0.41-1.312,1-1.611V3
	c0,0.553,0.448,1,1,1s1-0.447,1-1V2h1v1c0,0.553,0.448,1,1,1s1-0.447,1-1V2h1v1c0,0.553,0.448,1,1,1s1-0.447,1-1V2.201
	c0.59,0.299,1,0.905,1,1.611V5H44V3.812z M42,22.236c0-0.998,0.555-1.896,1.447-2.342C45.022,19.106,46,17.523,46,15.764V7h6v8.764
	c0,1.76,0.978,3.343,2.553,4.131C55.445,20.341,56,21.238,56,22.236V23H42V22.236z M25,3.812c0-0.706,0.41-1.312,1-1.611V3
	c0,0.553,0.448,1,1,1s1-0.447,1-1V2h1v1c0,0.553,0.448,1,1,1s1-0.447,1-1V2h1v1c0,0.553,0.448,1,1,1s1-0.447,1-1V2.201
	c0.59,0.299,1,0.905,1,1.611V5H25V3.812z M23,22.236c0-0.998,0.555-1.896,1.447-2.342C26.022,19.106,27,17.523,27,15.764V7h6v8.764
	c0,1.76,0.978,3.343,2.553,4.131C36.445,20.341,37,21.238,37,22.236V23H23V22.236z M6,3.812C6,3.106,6.41,2.5,7,2.201V3
	c0,0.553,0.448,1,1,1s1-0.447,1-1V2h1v1c0,0.553,0.448,1,1,1s1-0.447,1-1V2h1v1c0,0.553,0.448,1,1,1s1-0.447,1-1V2.201
	c0.59,0.299,1,0.905,1,1.611V5H6V3.812z M4,22.236c0-0.998,0.555-1.896,1.447-2.342C7.022,19.106,8,17.523,8,15.764V7h6v8.764
	c0,1.76,0.978,3.343,2.553,4.131C17.445,20.341,18,21.238,18,22.236V23H4V22.236z M47.414,47l4-4l-1-1H58v10h-7.586l1-1L47.414,47z
	 M45.586,40l3,3l-4,4l4,4l-3,3H58v4H2v-1h9c0.552,0,1-0.447,1-1s-0.448-1-1-1H2v-1h7c0.552,0,1-0.447,1-1s-0.448-1-1-1H2v-1h5
	c0.552,0,1-0.447,1-1s-0.448-1-1-1H2v-1h3c0.552,0,1-0.447,1-1s-0.448-1-1-1H2V25h18h1h18h1h18v15H45.586z"/>
<g>
</g>
<g>
</g>
<g>
</g>
<g>
</g>
<g>
</g>
<g>
</g>
<g>
</g>
<g>
</g>
<g>
</g>
<g>
</g>
<g>
</g>
<g>
</g>
<g>
</g>
<g>
</g>
<g>
</g>
</svg>
