<?xml version="1.0" encoding="iso-8859-1"?>
<!-- Generator: Adobe Illustrator 19.0.0, SVG Export Plug-In . SVG Version: 6.00 Build 0)  -->
<svg version="1.1" id="Layer_1" xmlns="http://www.w3.org/2000/svg" xmlns:xlink="http://www.w3.org/1999/xlink" x="0px" y="0px"
	 viewBox="0 0 512.069 512.069" style="enable-background:new 0 0 512.069 512.069;" xml:space="preserve">
<g transform="translate(0 1)">
	<g>
		<g>
			<path d="M198.167,232.882l1.707,0.853c0,0,6.827,0.853,16.213,0.853c12.8,0,31.573-0.853,50.347-5.12
				c47.787-10.24,75.093-34.987,80.213-70.827c0.853-0.853,5.973-25.6-7.68-46.933c-8.533-13.653-23.04-22.187-42.667-25.6
				c-9.387-1.707-43.52-5.973-64.853-2.56c-24.747,4.267-32.427,29.867-32.427,31.573l-18.773,80.213
				c-0.853,2.56-3.413,12.8,0.853,23.04C183.661,222.642,187.927,229.469,198.167,232.882z M196.461,200.455l19.627-81.067
				c0,0,5.12-16.213,18.773-18.773c17.067-2.56,49.493,0.853,58.88,2.56c14.507,2.56,25.6,8.533,31.573,17.92
				c10.24,14.507,5.973,33.28,5.973,34.133c-9.387,67.413-116.907,62.293-128.853,61.44c-5.973-1.707-6.827-5.12-6.827-8.533
				C195.607,203.869,196.461,200.455,196.461,200.455z"/>
			<path d="M462.38,68.767c-1.944-3.368-4.101-6.696-6.507-9.965C426.861,19.549,369.687-0.931,287.767-0.931H143.554
				c-12.8-0.853-38.4,5.973-46.08,36.693L2.754,433.415c0,0.736-0.316,3.699,0.008,7.649c-0.002,0.011-0.006,0.02-0.008,0.031
				c0,0-0.853,3.413,0,6.827v37.547c0,13.653,11.093,25.6,25.6,25.6h110.08c0.853,0,0.853,0,1.707,0
				c11.947,0,33.28-7.68,38.4-34.987l21.333-91.307c0.853-1.707,5.973-19.627,27.307-19.627h4.267
				c149.333,1.707,246.613-47.787,274.773-138.24C516.972,193.001,502.876,111.806,462.38,68.767z M114.541,39.175
				c5.12-22.187,23.893-23.04,28.16-23.04l145.92,0.853c75.947,0,128,17.92,153.6,52.907c0.871,1.153,1.704,2.318,2.503,3.492
				c0.233,0.57,0.529,1.119,0.911,1.628c17.686,27.793,16.667,60.717,12.522,83.568c-1.502,8.023-3.357,14.805-4.842,19.685
				c-26.453,82.773-117.76,128-258.56,126.293h-4.267c-28.16,0-40.96,21.333-43.52,32.427l-21.333,91.307
				c-4.267,23.04-24.747,23.04-27.307,23.04H33.474c-5.12,0-8.533-0.853-11.093-3.413c-2.56-3.413-2.56-9.387-2.56-11.093
				L114.541,39.175z M490.007,220.935c-26.453,83.627-116.053,127.147-258.56,126.293h-4.267c-28.16,0-40.96,21.333-43.52,32.427
				l-21.333,91.307c-4.267,23.04-20.48,23.04-23.04,23.04H28.354c-4.267,0-8.533-3.413-8.533-8.533v-18.773
				c4.267,0.853,8.533,1.707,12.8,1.707h0.853H96.62c2.131,0.142,4.621,0.065,7.312-0.294c13.85-1.631,33.348-10.613,37.915-37.253
				l21.333-90.453c0.853-1.707,5.973-19.627,27.307-19.627h3.413h0.853c148.48,1.707,246.613-47.787,274.773-138.24
				c3.547-11.529,8.704-32.275,8.174-55.891C491.805,163.006,495.911,203.223,490.007,220.935z"/>
		</g>
	</g>
</g>
<g>
</g>
<g>
</g>
<g>
</g>
<g>
</g>
<g>
</g>
<g>
</g>
<g>
</g>
<g>
</g>
<g>
</g>
<g>
</g>
<g>
</g>
<g>
</g>
<g>
</g>
<g>
</g>
<g>
</g>
</svg>
