<?xml version="1.0" encoding="iso-8859-1"?>
<!-- Generator: Adobe Illustrator 19.0.0, SVG Export Plug-In . SVG Version: 6.00 Build 0)  -->
<svg version="1.1" id="Layer_1" xmlns="http://www.w3.org/2000/svg" xmlns:xlink="http://www.w3.org/1999/xlink" x="0px" y="0px"
	 viewBox="0 0 512 512" style="enable-background:new 0 0 512 512;" xml:space="preserve">
<g transform="translate(1 1)">
	<g>
		<g>
			<path d="M365.933,24.256l-5.12-2.56C303.64-3.904,238.787-8.171,175.64,12.309l-13.653,4.267l203.947,189.44V24.256z
				 M348.867,166.762l-153.6-143.36c52.053-13.653,105.813-9.387,153.6,11.093V166.762z"/>
			<path d="M22.04,360.469c21.333,47.787,56.32,87.04,100.693,114.347l12.8,7.68V242.709L19.48,355.349L22.04,360.469z
				 M118.467,283.669v168.107c-34.133-23.893-60.587-55.467-78.507-93.013L118.467,283.669z"/>
			<path d="M241.347,126.656l6.827-5.973l-6.827-5.973c-4.267-3.413-91.307-81.92-93.867-84.48l-4.267-4.267l-5.12,2.56
				C52.76,72.896-1,159.936-1,255.509c0,21.333,3.413,44.373,9.387,66.56l3.413,13.653l10.24-9.387
				C28.867,320.362,237.08,130.922,241.347,126.656z M16.067,255.509c0-87.04,47.787-167.253,124.587-209.067
				c15.36,13.653,64,58.027,81.92,74.24C191,149.696,59.587,269.162,21.187,304.149C17.773,287.082,16.067,270.869,16.067,255.509z"
				/>
			<path d="M152.6,491.029l5.12,1.707c23.893,9.387,48.64,15.36,74.24,17.92h46.08c90.453-8.533,168.107-61.44,206.507-141.653
				l5.973-11.947H152.6V491.029z M169.667,374.122h293.547c-38.4,67.413-106.667,111.787-186.027,119.467h-44.373
				c-22.187-1.707-42.667-6.827-63.147-14.507V374.122z"/>
			<path d="M396.653,43.029L383,34.496v305.493h114.347l1.707-6.827c7.68-23.893,11.947-52.053,11.947-77.653
				C511,170.176,468.333,90.816,396.653,43.029z M484.547,322.922h-84.48v-256c58.88,45.227,93.867,114.347,93.867,188.587
				C493.933,277.696,490.52,301.589,484.547,322.922z"/>
		</g>
	</g>
</g>
<g>
</g>
<g>
</g>
<g>
</g>
<g>
</g>
<g>
</g>
<g>
</g>
<g>
</g>
<g>
</g>
<g>
</g>
<g>
</g>
<g>
</g>
<g>
</g>
<g>
</g>
<g>
</g>
<g>
</g>
</svg>
