<?xml version="1.0" encoding="iso-8859-1"?>
<!-- Generator: Adobe Illustrator 18.0.0, SVG Export Plug-In . SVG Version: 6.00 Build 0)  -->
<!DOCTYPE svg PUBLIC "-//W3C//DTD SVG 1.1//EN" "http://www.w3.org/Graphics/SVG/1.1/DTD/svg11.dtd">
<svg version="1.1" id="Capa_1" xmlns="http://www.w3.org/2000/svg" xmlns:xlink="http://www.w3.org/1999/xlink" x="0px" y="0px"
	 viewBox="0 0 60 60" style="enable-background:new 0 0 60 60;" xml:space="preserve">
<g>
	<circle cx="24" cy="5" r="1"/>
	<circle cx="27" cy="8" r="1"/>
	<circle cx="21" cy="8" r="1"/>
	<circle cx="15" cy="8" r="1"/>
	<circle cx="24" cy="11" r="1"/>
	<circle cx="18" cy="11" r="1"/>
	<circle cx="12" cy="11" r="1"/>
	<circle cx="24" cy="17" r="1"/>
	<circle cx="27" cy="14" r="1"/>
	<circle cx="27" cy="20" r="1"/>
	<circle cx="18" cy="17" r="1"/>
	<circle cx="21" cy="14" r="1"/>
	<circle cx="21" cy="20" r="1"/>
	<circle cx="12" cy="17" r="1"/>
	<circle cx="9" cy="14" r="1"/>
	<circle cx="15" cy="14" r="1"/>
	<circle cx="9" cy="20" r="1"/>
	<circle cx="15" cy="20" r="1"/>
	<circle cx="24" cy="23" r="1"/>
	<circle cx="18" cy="23" r="1"/>
	<circle cx="6" cy="23" r="1"/>
	<circle cx="12" cy="23" r="1"/>
	<circle cx="24" cy="29" r="1"/>
	<circle cx="27" cy="26" r="1"/>
	<circle cx="27" cy="32" r="1"/>
	<circle cx="18" cy="29" r="1"/>
	<circle cx="21" cy="26" r="1"/>
	<circle cx="21" cy="32" r="1"/>
	<circle cx="6" cy="29" r="1"/>
	<circle cx="12" cy="29" r="1"/>
	<circle cx="9" cy="26" r="1"/>
	<circle cx="15" cy="26" r="1"/>
	<circle cx="9" cy="32" r="1"/>
	<circle cx="15" cy="32" r="1"/>
	<circle cx="51" cy="32" r="1"/>
	<circle cx="33" cy="32" r="1"/>
	<circle cx="24" cy="35" r="1"/>
	<circle cx="30" cy="35" r="1"/>
	<circle cx="18" cy="35" r="1"/>
	<circle cx="6" cy="35" r="1"/>
	<circle cx="12" cy="35" r="1"/>
	<circle cx="54" cy="35" r="1"/>
	<circle cx="48" cy="35" r="1"/>
	<circle cx="36" cy="35" r="1"/>
	<circle cx="42" cy="35" r="1"/>
	<circle cx="39" cy="32" r="1"/>
	<circle cx="45" cy="32" r="1"/>
	<circle cx="24" cy="41" r="1"/>
	<circle cx="27" cy="38" r="1"/>
	<circle cx="27" cy="44" r="1"/>
	<circle cx="30" cy="41" r="1"/>
	<circle cx="18" cy="41" r="1"/>
	<circle cx="21" cy="38" r="1"/>
	<circle cx="21" cy="44" r="1"/>
	<circle cx="6" cy="41" r="1"/>
	<circle cx="12" cy="41" r="1"/>
	<circle cx="9" cy="38" r="1"/>
	<circle cx="15" cy="38" r="1"/>
	<circle cx="9" cy="44" r="1"/>
	<circle cx="15" cy="44" r="1"/>
	<circle cx="54" cy="41" r="1"/>
	<circle cx="48" cy="41" r="1"/>
	<circle cx="51" cy="38" r="1"/>
	<circle cx="51" cy="44" r="1"/>
	<circle cx="33" cy="38" r="1"/>
	<circle cx="33" cy="44" r="1"/>
	<circle cx="36" cy="41" r="1"/>
	<circle cx="42" cy="41" r="1"/>
	<circle cx="24" cy="47" r="1"/>
	<circle cx="30" cy="47" r="1"/>
	<circle cx="18" cy="47" r="1"/>
	<circle cx="12" cy="47" r="1"/>
	<circle cx="48" cy="47" r="1"/>
	<circle cx="36" cy="47" r="1"/>
	<circle cx="42" cy="47" r="1"/>
	<circle cx="39" cy="38" r="1"/>
	<circle cx="45" cy="38" r="1"/>
	<circle cx="39" cy="44" r="1"/>
	<circle cx="45" cy="44" r="1"/>
	<circle cx="24" cy="53" r="1"/>
	<circle cx="27" cy="50" r="1"/>
	<circle cx="27" cy="56" r="1"/>
	<circle cx="30" cy="53" r="1"/>
	<circle cx="18" cy="53" r="1"/>
	<circle cx="21" cy="50" r="1"/>
	<circle cx="15" cy="50" r="1"/>
	<path d="M51.781,50.597C56.87,45.219,60,37.97,60,30C60,13.458,46.542,0,30,0S0,13.458,0,30c0,7.97,3.13,15.219,8.219,20.597
		c0.048,0.063,0.099,0.118,0.16,0.168C13.842,56.451,21.512,60,30,60s16.158-3.549,21.621-9.235
		C51.682,50.715,51.733,50.66,51.781,50.597z M57.975,29H31V2.025C45.645,2.543,57.457,14.355,57.975,29z M39.968,56.16
		C39.977,56.106,40,56.057,40,56c0-0.552-0.448-1-1-1s-1,0.448-1,1c0,0.293,0.131,0.551,0.333,0.734C35.699,57.556,32.901,58,30,58
		s-5.699-0.444-8.333-1.266C21.869,56.551,22,56.293,22,56c0-0.552-0.448-1-1-1s-1,0.448-1,1c0,0.057,0.023,0.106,0.032,0.16
		c-7.791-2.979-13.918-9.34-16.581-17.281C3.773,38.713,4,38.387,4,38c0-0.552-0.448-1-1-1c-0.038,0-0.071,0.018-0.108,0.022
		c-0.384-1.483-0.643-3.015-0.779-4.582C2.277,32.769,2.608,33,3,33c0.552,0,1-0.448,1-1s-0.448-1-1-1
		c-0.451,0-0.818,0.304-0.942,0.715C2.023,31.147,2,30.576,2,30c0-1.155,0.078-2.29,0.215-3.409C2.397,26.833,2.674,27,3,27
		c0.552,0,1-0.448,1-1s-0.448-1-1-1c-0.221,0-0.416,0.086-0.581,0.208c0.262-1.511,0.644-2.981,1.139-4.4
		C3.818,20.627,4,20.341,4,20c0-0.087-0.029-0.166-0.05-0.247c0.331-0.839,0.702-1.659,1.11-2.456C5.188,17.702,5.553,18,6,18
		c0.552,0,1-0.448,1-1s-0.448-1-1-1c-0.094,0-0.178,0.029-0.264,0.053c2.657-4.605,6.584-8.385,11.303-10.861
		C17.131,5.649,17.516,6,18,6c0.552,0,1-0.448,1-1c0-0.245-0.098-0.461-0.244-0.635c2.291-1.009,4.74-1.719,7.301-2.082
		C26.181,2.694,26.548,3,27,3c0.524,0,0.941-0.407,0.984-0.919C28.321,2.056,28.659,2.037,29,2.025V31h1h1h2h6h6h6h6h0.975
		c-0.008,0.239-0.018,0.477-0.032,0.715C57.818,31.304,57.451,31,57,31c-0.552,0-1,0.448-1,1s0.448,1,1,1
		c0.392,0,0.723-0.231,0.887-0.56c-0.136,1.567-0.395,3.099-0.779,4.582C57.071,37.018,57.038,37,57,37c-0.552,0-1,0.448-1,1
		c0,0.387,0.227,0.713,0.548,0.879C53.886,46.82,47.759,53.181,39.968,56.16z"/>
	<circle cx="33" cy="50" r="1"/>
	<circle cx="33" cy="56" r="1"/>
	<circle cx="36" cy="53" r="1"/>
	<circle cx="42" cy="53" r="1"/>
	<circle cx="39" cy="50" r="1"/>
	<circle cx="45" cy="50" r="1"/>
</g>
<g>
</g>
<g>
</g>
<g>
</g>
<g>
</g>
<g>
</g>
<g>
</g>
<g>
</g>
<g>
</g>
<g>
</g>
<g>
</g>
<g>
</g>
<g>
</g>
<g>
</g>
<g>
</g>
<g>
</g>
</svg>
