<?xml version="1.0" encoding="iso-8859-1"?>
<!-- Generator: Adobe Illustrator 18.0.0, SVG Export Plug-In . SVG Version: 6.00 Build 0)  -->
<!DOCTYPE svg PUBLIC "-//W3C//DTD SVG 1.1//EN" "http://www.w3.org/Graphics/SVG/1.1/DTD/svg11.dtd">
<svg version="1.1" id="Capa_1" xmlns="http://www.w3.org/2000/svg" xmlns:xlink="http://www.w3.org/1999/xlink" x="0px" y="0px"
	 viewBox="0 0 60 60" style="enable-background:new 0 0 60 60;" xml:space="preserve">
<g>
	<path d="M53.268,11.097l-0.699-0.86L41.917,20.888l0.467,0.684c1.696,2.491,2.593,5.406,2.593,8.429s-0.896,5.938-2.593,8.429
		l-0.467,0.684l10.651,10.651l0.699-0.86c4.326-5.324,6.709-12.038,6.709-18.903S57.594,16.421,53.268,11.097z M52.399,46.766
		l-7.91-7.91c1.63-2.664,2.488-5.708,2.488-8.855s-0.858-6.191-2.488-8.855l7.91-7.91c3.604,4.819,5.578,10.729,5.578,16.766
		S56.003,41.946,52.399,46.766z"/>
	<path d="M38.406,42.407C35.915,44.104,33,45,29.977,45c-7.192,0-13.386-5.125-14.727-12.187L15.096,32H0.023l0.113,1.103
		C1.712,48.437,14.541,60,29.977,60c6.865,0,13.579-2.383,18.903-6.709l0.86-0.699L39.089,41.94L38.406,42.407z M29.977,58
		C15.942,58,4.216,47.76,2.261,34H13.46c1.826,7.581,8.644,13,16.517,13c3.147,0,6.191-0.858,8.855-2.488l7.91,7.91
		C41.923,56.026,36.013,58,29.977,58z"/>
	<path d="M15.25,27.187C16.591,20.125,22.785,15,29.977,15c3.022,0,5.937,0.896,8.429,2.593l0.684,0.467L49.741,7.408l-0.86-0.699
		C43.556,2.383,36.842,0,29.977,0C14.541,0,1.712,11.563,0.136,26.897L0.023,28h15.073L15.25,27.187z M8.977,26c0-0.552-0.448-1-1-1
		s-1,0.448-1,1h-4c0-0.396-0.235-0.731-0.568-0.893c0.442-2.53,1.217-4.933,2.276-7.166C4.779,17.97,4.873,18,4.977,18
		c0.552,0,1-0.448,1-1c0-0.324-0.164-0.599-0.403-0.781c0.434-0.771,0.905-1.518,1.407-2.24c0,0.008-0.004,0.014-0.004,0.022
		c0,0.552,0.448,1,1,1s1-0.448,1-1s-0.448-1-1-1c-0.119,0-0.23,0.03-0.336,0.068c1.547-2.042,3.366-3.857,5.402-5.399
		C13.007,7.773,12.977,7.883,12.977,8c0,0.552,0.448,1,1,1s1-0.448,1-1s-0.448-1-1-1c-0.006,0-0.011,0.003-0.016,0.003
		c0.722-0.502,1.468-0.97,2.237-1.403C16.381,5.837,16.654,6,16.977,6c0.552,0,1-0.448,1-1c0-0.104-0.03-0.199-0.059-0.294
		c2.242-1.064,4.646-1.838,7.164-2.279C25.243,2.764,25.579,3,25.977,3c0.493,0,0.884-0.363,0.966-0.832
		C27.941,2.061,28.952,2,29.977,2c0.337,0,0.672,0.029,1.008,0.041C31.008,2.573,31.439,3,31.977,3c0.489,0,0.877-0.358,0.964-0.822
		c2.623,0.281,5.189,0.925,7.62,1.918C40.218,4.255,39.977,4.597,39.977,5c0,0.552,0.448,1,1,1s1-0.448,1-1
		c0-0.105-0.03-0.201-0.06-0.296c1.693,0.798,3.317,1.746,4.825,2.874l-7.91,7.91c-0.284-0.174-0.575-0.334-0.867-0.491
		c0.004,0,0.008,0.002,0.012,0.002c0.552,0,1-0.448,1-1s-0.448-1-1-1s-1,0.448-1,1c0,0.241,0.096,0.453,0.238,0.626
		c-1.48-0.699-3.048-1.18-4.669-1.426c-0.164-0.116-0.353-0.2-0.569-0.2c-0.142,0-0.275,0.031-0.397,0.084
		C31.049,13.034,30.515,13,29.977,13c-1.116,0-2.207,0.12-3.269,0.329C26.525,13.129,26.269,13,25.977,13
		c-0.464,0-0.837,0.323-0.95,0.752c-5.344,1.632-9.635,5.832-11.294,11.297c-0.431,0.111-0.756,0.485-0.756,0.951H8.977z"/>
	<circle cx="22.977" cy="5" r="1"/>
	<circle cx="28.977" cy="5" r="1"/>
	<circle cx="34.977" cy="5" r="1"/>
	<circle cx="22.977" cy="11" r="1"/>
	<circle cx="25.977" cy="8" r="1"/>
	<circle cx="28.977" cy="11" r="1"/>
	<circle cx="16.977" cy="11" r="1"/>
	<circle cx="19.977" cy="8" r="1"/>
	<circle cx="19.977" cy="14" r="1"/>
	<circle cx="10.977" cy="11" r="1"/>
	<circle cx="13.977" cy="14" r="1"/>
	<circle cx="31.977" cy="8" r="1"/>
	<circle cx="34.977" cy="11" r="1"/>
	<circle cx="40.977" cy="11" r="1"/>
	<circle cx="16.977" cy="17" r="1"/>
	<circle cx="10.977" cy="17" r="1"/>
	<circle cx="37.977" cy="8" r="1"/>
	<circle cx="43.977" cy="8" r="1"/>
	<circle cx="4.977" cy="23" r="1"/>
	<circle cx="10.977" cy="23" r="1"/>
	<circle cx="7.977" cy="20" r="1"/>
	<circle cx="13.977" cy="20" r="1"/>
</g>
<g>
</g>
<g>
</g>
<g>
</g>
<g>
</g>
<g>
</g>
<g>
</g>
<g>
</g>
<g>
</g>
<g>
</g>
<g>
</g>
<g>
</g>
<g>
</g>
<g>
</g>
<g>
</g>
<g>
</g>
</svg>
