<?xml version="1.0" encoding="iso-8859-1"?>
<!-- Generator: Adobe Illustrator 18.0.0, SVG Export Plug-In . SVG Version: 6.00 Build 0)  -->
<!DOCTYPE svg PUBLIC "-//W3C//DTD SVG 1.1//EN" "http://www.w3.org/Graphics/SVG/1.1/DTD/svg11.dtd">
<svg version="1.1" id="Capa_1" xmlns="http://www.w3.org/2000/svg" xmlns:xlink="http://www.w3.org/1999/xlink" x="0px" y="0px"
	 viewBox="0 0 60 60" style="enable-background:new 0 0 60 60;" xml:space="preserve">
<g>
	<path d="M51.31,51.092C56.678,45.668,60,38.216,60,30C60,13.458,46.542,0,30,0S0,13.458,0,30c0,8.219,3.324,15.673,8.696,21.097
		c0.03,0.041,0.046,0.088,0.083,0.125s0.084,0.053,0.124,0.083C14.327,56.676,21.782,60,30,60c8.216,0,15.668-3.322,21.092-8.69
		c0.043-0.031,0.092-0.048,0.131-0.087S51.279,51.135,51.31,51.092z M58,30c0,7.361-2.859,14.063-7.52,19.066l-7.791-7.791
		C45.361,38.27,47,34.328,47,30c0-9.036-7.092-16.427-16-16.949V2.025C45.977,2.555,58,14.896,58,30z M30,45
		c-8.271,0-15-6.729-15-15s6.729-15,15-15s15,6.729,15,15S38.271,45,30,45z M29,2.025v11.025C20.092,13.573,13,20.964,13,30
		c0,4.328,1.639,8.27,4.311,11.275L9.52,49.066C4.859,44.063,2,37.361,2,30C2,14.896,14.023,2.555,29,2.025z M29,57
		c-0.525,0-0.942,0.408-0.984,0.922c-1.482-0.104-2.932-0.324-4.342-0.651C23.495,57.106,23.262,57,23,57
		c-0.083,0-0.157,0.028-0.234,0.047c-4.486-1.201-8.529-3.49-11.832-6.567l7.791-7.791c0.096,0.085,0.187,0.176,0.285,0.259
		C19.01,42.966,19,42.981,19,43c0,0.552,0.448,1,1,1c0.105,0,0.202-0.03,0.297-0.06c0.676,0.472,1.391,0.888,2.134,1.26
		C22.177,45.381,22,45.664,22,46c0,0.552,0.448,1,1,1s1-0.448,1-1c0-0.044-0.019-0.081-0.025-0.123C25.851,46.591,27.876,47,30,47
		c1.428,0,2.807-0.196,4.133-0.529C34.303,46.781,34.621,47,35,47c0.552,0,1-0.448,1-1c0-0.038-0.017-0.07-0.021-0.106
		c1.965-0.742,3.754-1.833,5.296-3.205l7.791,7.791c-0.389,0.362-0.785,0.717-1.194,1.057C47.703,51.222,47.382,51,47,51
		c-0.552,0-1,0.448-1,1c0,0.29,0.127,0.545,0.324,0.728c-0.655,0.472-1.329,0.918-2.024,1.333C44.204,54.03,44.106,54,44,54
		c-0.468,0-0.844,0.329-0.952,0.763c-2.26,1.195-4.7,2.093-7.27,2.634C35.595,57.162,35.322,57,35,57
		c-0.447,0-0.812,0.298-0.94,0.702C32.734,57.896,31.379,58,30,58C30,57.448,29.552,57,29,57z"/>
	<circle cx="32" cy="49" r="1"/>
	<circle cx="35" cy="52" r="1"/>
	<circle cx="38" cy="49" r="1"/>
	<circle cx="26" cy="49" r="1"/>
	<circle cx="29" cy="52" r="1"/>
	<circle cx="14" cy="49" r="1"/>
	<circle cx="20" cy="49" r="1"/>
	<circle cx="17" cy="46" r="1"/>
	<circle cx="17" cy="52" r="1"/>
	<circle cx="23" cy="52" r="1"/>
	<circle cx="41" cy="46" r="1"/>
	<circle cx="41" cy="52" r="1"/>
	<circle cx="44" cy="49" r="1"/>
	<circle cx="32" cy="55" r="1"/>
	<circle cx="38" cy="55" r="1"/>
	<circle cx="26" cy="55" r="1"/>
	<circle cx="20" cy="55" r="1"/>
</g>
<g>
</g>
<g>
</g>
<g>
</g>
<g>
</g>
<g>
</g>
<g>
</g>
<g>
</g>
<g>
</g>
<g>
</g>
<g>
</g>
<g>
</g>
<g>
</g>
<g>
</g>
<g>
</g>
<g>
</g>
</svg>
