<?xml version="1.0" encoding="iso-8859-1"?>
<!-- Generator: Adobe Illustrator 18.0.0, SVG Export Plug-In . SVG Version: 6.00 Build 0)  -->
<!DOCTYPE svg PUBLIC "-//W3C//DTD SVG 1.1//EN" "http://www.w3.org/Graphics/SVG/1.1/DTD/svg11.dtd">
<svg version="1.1" id="Capa_1" xmlns="http://www.w3.org/2000/svg" xmlns:xlink="http://www.w3.org/1999/xlink" x="0px" y="0px"
	 viewBox="0 0 59.994 59.994" style="enable-background:new 0 0 59.994 59.994;" xml:space="preserve">
<g>
	<circle cx="23.994" cy="3.995" r="1"/>
	<circle cx="20.994" cy="6.995" r="1"/>
	<circle cx="14.994" cy="12.995" r="1"/>
	<circle cx="11.994" cy="9.995" r="1"/>
	<circle cx="11.994" cy="15.995" r="1"/>
	<circle cx="20.994" cy="12.995" r="1"/>
	<circle cx="23.994" cy="9.995" r="1"/>
	<circle cx="17.994" cy="9.995" r="1"/>
	<circle cx="23.994" cy="15.995" r="1"/>
	<circle cx="17.994" cy="15.995" r="1"/>
	<circle cx="8.994" cy="18.995" r="1"/>
	<circle cx="14.994" cy="18.995" r="1"/>
	<circle cx="20.994" cy="18.995" r="1"/>
	<circle cx="8.994" cy="24.995" r="1"/>
	<circle cx="5.994" cy="21.995" r="1"/>
	<circle cx="14.994" cy="24.995" r="1"/>
	<circle cx="11.994" cy="21.995" r="1"/>
	<circle cx="20.994" cy="24.995" r="1"/>
	<circle cx="23.994" cy="21.995" r="1"/>
	<circle cx="17.994" cy="21.995" r="1"/>
	<path d="M28.994,0.001l-1.068,0.072C13.061,1.087,1.086,13.061,0.073,27.927L0,28.995h28.994V0.001z M26.994,26.995H2.162
		c0.045-0.422,0.126-0.833,0.19-1.25c0.175,0.15,0.395,0.25,0.643,0.25c0.552,0,1-0.448,1-1s-0.448-1-1-1
		c-0.121,0-0.233,0.03-0.34,0.069c0.562-2.586,1.489-5.036,2.717-7.305c0.172,0.141,0.384,0.237,0.624,0.237c0.552,0,1-0.448,1-1
		c0-0.423-0.264-0.78-0.635-0.926c0.525-0.827,1.092-1.624,1.699-2.39c-0.034,0.101-0.064,0.204-0.064,0.316c0,0.552,0.448,1,1,1
		s1-0.448,1-1s-0.448-1-1-1c-0.207,0-0.389,0.078-0.548,0.186c1.614-1.948,3.484-3.674,5.56-5.128
		c0.032,0.524,0.457,0.942,0.988,0.942c0.552,0,1-0.448,1-1c0-0.388-0.228-0.715-0.551-0.881c0.701-0.429,1.42-0.832,2.159-1.199
		c0.12,0.051,0.252,0.08,0.391,0.08c0.439,0,0.801-0.287,0.935-0.68c2.524-1.095,5.227-1.85,8.065-2.153v3.833c-0.552,0-1,0.448-1,1
		s0.448,1,1,1v4c-0.552,0-1,0.448-1,1s0.448,1,1,1v4c-0.552,0-1,0.448-1,1s0.448,1,1,1v4c-0.552,0-1,0.448-1,1s0.448,1,1,1V26.995z"
		/>
	<path d="M52.741,10.439C47.458,4.304,40.114,0.623,32.062,0.073l-1.068-0.072v30.994H0l0.073,1.068
		c0.444,6.511,2.941,12.572,7.222,17.528l0,0.001c0.384,0.444,0.814,0.887,1.395,1.436l1.525,1.441
		c0.582,0.551,1.048,0.955,1.512,1.311c5.256,4.047,11.678,6.213,18.299,6.213c0.778,0,1.56-0.029,2.341-0.09
		c14.516-1.119,26.349-12.9,27.525-27.405C60.55,24.394,58.01,16.56,52.741,10.439z M57.899,32.336
		c-1.098,13.535-12.141,24.529-25.686,25.573c-6.944,0.538-13.785-1.493-19.267-5.714c-0.408-0.313-0.826-0.677-1.357-1.179
		l-1.525-1.441c-0.529-0.5-0.916-0.898-1.255-1.29c-3.76-4.354-6.046-9.621-6.647-15.29h30.833V2.162
		c7.094,0.752,13.535,4.128,18.231,9.582C56.143,17.455,58.513,24.769,57.899,32.336z"/>
</g>
<g>
</g>
<g>
</g>
<g>
</g>
<g>
</g>
<g>
</g>
<g>
</g>
<g>
</g>
<g>
</g>
<g>
</g>
<g>
</g>
<g>
</g>
<g>
</g>
<g>
</g>
<g>
</g>
<g>
</g>
</svg>
