<?xml version="1.0" encoding="iso-8859-1"?>
<!-- Generator: Adobe Illustrator 18.0.0, SVG Export Plug-In . SVG Version: 6.00 Build 0)  -->
<!DOCTYPE svg PUBLIC "-//W3C//DTD SVG 1.1//EN" "http://www.w3.org/Graphics/SVG/1.1/DTD/svg11.dtd">
<svg version="1.1" id="Capa_1" xmlns="http://www.w3.org/2000/svg" xmlns:xlink="http://www.w3.org/1999/xlink" x="0px" y="0px"
	 viewBox="0 0 59 59" style="enable-background:new 0 0 59 59;" xml:space="preserve">
<g>
	<path d="M30,32c-4.962,0-9,4.037-9,9s4.038,9,9,9s9-4.037,9-9S34.962,32,30,32z M30,48c-3.86,0-7-3.141-7-7s3.14-7,7-7s7,3.141,7,7
		S33.86,48,30,48z"/>
	<path d="M24.5,29c0.825,0,1.5-0.675,1.5-1.5S25.325,26,24.5,26S23,26.675,23,27.5S23.675,29,24.5,29z"/>
	<path d="M35.5,29c0.825,0,1.5-0.675,1.5-1.5S36.325,26,35.5,26S34,26.675,34,27.5S34.675,29,35.5,29z"/>
	<path d="M27.5,39c-0.825,0-1.5,0.675-1.5,1.5s0.675,1.5,1.5,1.5s1.5-0.675,1.5-1.5S28.325,39,27.5,39z"/>
	<path d="M32.5,39c-0.825,0-1.5,0.675-1.5,1.5s0.675,1.5,1.5,1.5s1.5-0.675,1.5-1.5S33.325,39,32.5,39z"/>
	<path d="M55,30c0-4.434-0.927-8.673-2.742-12.612l0.482-3.507l-2.038,0.2l-0.007-0.014l-0.002,0.014l-0.224,0.022
		c-2.735-4.26-6.736-6.951-12.186-8.21C36.861,2.439,33.462,0,29.5,0s-7.361,2.439-8.784,5.893c-5.45,1.26-9.451,3.951-12.186,8.21
		l-0.224-0.022l-0.002-0.014l-0.006,0.014l-2.039-0.2l0.482,3.507C4.927,21.327,4,25.566,4,30c0,8.253,3.279,15.997,9,21.335v4.651
		C13,57.648,14.352,59,16.014,59h7.664C24.407,59,25,58.407,25,57.678v-0.125C26.492,57.846,28.001,58,29.5,58
		s3.008-0.154,4.5-0.447v0.139C34,58.413,34.587,59,35.309,59h7.5C44.568,59,46,57.568,46,55.809v-4.473
		C51.721,45.997,55,38.253,55,30z M44.112,44.105c-0.166,0.251-0.346,0.491-0.524,0.732c-0.142,0.194-0.282,0.389-0.432,0.577
		c-0.171,0.214-0.352,0.417-0.532,0.622c-0.179,0.203-0.358,0.406-0.545,0.6c-0.173,0.179-0.352,0.352-0.531,0.523
		c-0.216,0.206-0.436,0.408-0.663,0.602c-0.171,0.147-0.344,0.29-0.52,0.431c-0.258,0.206-0.523,0.403-0.793,0.593
		c-0.161,0.114-0.321,0.228-0.485,0.336c-0.312,0.205-0.633,0.397-0.958,0.583c-0.137,0.078-0.271,0.161-0.411,0.235
		c-0.399,0.214-0.81,0.409-1.227,0.592c-0.076,0.033-0.149,0.072-0.225,0.104C34.184,51.513,31.898,52,29.5,52
		c-2.398,0-4.683-0.486-6.766-1.363c-0.078-0.033-0.152-0.072-0.23-0.106c-0.416-0.182-0.824-0.377-1.222-0.59
		c-0.14-0.075-0.276-0.158-0.414-0.237c-0.324-0.185-0.644-0.376-0.955-0.581c-0.165-0.109-0.326-0.224-0.487-0.338
		c-0.269-0.19-0.534-0.387-0.792-0.592c-0.176-0.14-0.349-0.284-0.52-0.431c-0.227-0.195-0.447-0.397-0.663-0.603
		c-0.179-0.171-0.358-0.343-0.53-0.522c-0.188-0.195-0.367-0.398-0.546-0.601c-0.18-0.205-0.36-0.408-0.531-0.621
		c-0.15-0.188-0.29-0.384-0.433-0.578c-0.177-0.241-0.358-0.48-0.523-0.732C13.068,41.345,12,38.047,12,34.5
		c0-2.357,0.475-4.604,1.324-6.659c0.081-0.196,0.174-0.385,0.261-0.577c0.13-0.285,0.263-0.569,0.408-0.846
		c0.091-0.175,0.186-0.347,0.283-0.518c0.18-0.317,0.369-0.629,0.568-0.934c0.074-0.115,0.146-0.231,0.223-0.344
		c0.591-0.861,1.256-1.666,1.988-2.407c0.078-0.079,0.16-0.155,0.24-0.233c0.289-0.282,0.589-0.553,0.897-0.815
		c0.113-0.096,0.226-0.192,0.341-0.285c0.309-0.249,0.628-0.485,0.953-0.713c0.104-0.073,0.204-0.151,0.309-0.221
		C22.575,18.089,25.912,17,29.5,17c3.588,0,6.925,1.089,9.705,2.948c0.106,0.071,0.206,0.149,0.31,0.222
		c0.325,0.228,0.643,0.463,0.951,0.711c0.117,0.094,0.23,0.191,0.344,0.288c0.306,0.26,0.604,0.53,0.892,0.811
		c0.081,0.079,0.165,0.157,0.245,0.237c0.731,0.741,1.396,1.546,1.986,2.406c0.077,0.112,0.148,0.228,0.222,0.342
		c0.2,0.306,0.39,0.619,0.57,0.938c0.095,0.169,0.19,0.339,0.279,0.511c0.148,0.283,0.284,0.572,0.416,0.863
		c0.084,0.186,0.174,0.368,0.253,0.558C46.525,29.892,47,32.141,47,34.5C47,38.047,45.932,41.345,44.112,44.105z M12.474,25.004
		c-0.492-1.037-1.136-1.874-1.715-2.626c-0.856-1.112-1.596-2.072-1.789-3.476l-0.383-2.783l1.059,0.104
		c2.819,0.276,5.078,1.499,7.468,2.793c0.106,0.058,0.213,0.116,0.32,0.174c-0.062,0.048-0.116,0.105-0.177,0.154
		c-0.22,0.178-0.428,0.37-0.64,0.557c-0.271,0.239-0.544,0.475-0.801,0.728c-0.167,0.165-0.321,0.341-0.483,0.512
		c-0.274,0.29-0.549,0.579-0.804,0.885c-0.15,0.18-0.285,0.371-0.428,0.556c-0.238,0.308-0.48,0.612-0.699,0.934
		c-0.18,0.263-0.339,0.539-0.506,0.811C12.757,24.554,12.604,24.771,12.474,25.004z M46.109,24.335
		c-0.169-0.275-0.33-0.555-0.512-0.821c-0.216-0.316-0.453-0.615-0.686-0.917c-0.148-0.191-0.287-0.388-0.442-0.573
		c-0.252-0.302-0.523-0.586-0.793-0.872c-0.165-0.175-0.323-0.355-0.494-0.524c-0.255-0.251-0.526-0.485-0.795-0.723
		c-0.214-0.189-0.423-0.381-0.644-0.561c-0.061-0.049-0.115-0.105-0.176-0.154c0.107-0.058,0.214-0.116,0.32-0.174
		c2.391-1.294,4.649-2.517,7.468-2.793l1.059-0.104l-0.383,2.783c-0.193,1.403-0.933,2.363-1.789,3.476
		c-0.58,0.752-1.224,1.588-1.715,2.626C46.398,24.773,46.246,24.559,46.109,24.335z M29.5,2c3.283,0,6.072,2.123,7.086,5.065
		c0.131,0.381,0.227,0.767,0.296,1.155c0.007,0.043,0.013,0.087,0.02,0.13C36.963,8.732,37,9.116,37,9.5
		c0,0.536-0.061,1.071-0.18,1.601c-0.066-0.031-0.138-0.053-0.205-0.083c-0.379-0.168-0.762-0.328-1.159-0.47
		c-0.154-0.055-0.312-0.1-0.468-0.152c-0.339-0.111-0.676-0.222-1.025-0.313c-0.254-0.067-0.512-0.118-0.77-0.174
		c-0.265-0.058-0.527-0.123-0.797-0.17c-0.339-0.059-0.683-0.097-1.026-0.138c-0.209-0.025-0.414-0.06-0.624-0.078
		c-0.017-0.001-0.034-0.005-0.051-0.006c-0.451-0.049-0.91-0.071-1.368-0.074c-0.03,0-0.06-0.005-0.091-0.005
		c-0.361,0-0.721,0.015-1.076,0.043c-0.062,0.003-0.121,0.012-0.182,0.015c-0.367,0.02-0.73,0.049-1.089,0.09
		C26.813,9.592,26.737,9.6,26.661,9.61c-0.055,0.007-0.109,0.018-0.164,0.026c-0.346,0.047-0.691,0.095-1.028,0.16
		c-0.181,0.035-0.355,0.081-0.533,0.121c-0.41,0.093-0.815,0.197-1.211,0.318c-0.287,0.087-0.577,0.172-0.855,0.274l0,0.001
		c-0.03,0.011-0.06,0.025-0.09,0.036c-0.126,0.047-0.249,0.1-0.374,0.15c-0.096,0.039-0.19,0.073-0.287,0.115
		C22.04,10.375,22,9.938,22,9.5c0-0.384,0.037-0.768,0.098-1.15c0.007-0.043,0.012-0.087,0.02-0.13
		c0.069-0.388,0.165-0.774,0.296-1.155C23.428,4.123,26.217,2,29.5,2z M20.107,8.094c-0.006,0.039-0.003,0.078-0.009,0.117
		C20.04,8.633,20,9.062,20,9.5c0,0.756,0.095,1.512,0.279,2.255c-0.998,0.598-1.921,1.294-2.732,2.108
		c-0.39,0.392-0.389,1.024,0.002,1.414c0.391,0.391,1.024,0.39,1.415-0.002c0.83-0.833,1.797-1.528,2.859-2.099l0.101-0.053
		c0.239-0.125,0.458-0.229,0.676-0.331c0.166-0.075,0.332-0.15,0.502-0.219c0.138-0.057,0.277-0.119,0.412-0.169
		c0.273-0.101,0.556-0.187,0.838-0.272c0.387-0.116,0.783-0.218,1.189-0.304c0.105-0.023,0.207-0.049,0.312-0.07
		c0.336-0.064,0.681-0.115,1.03-0.159c0.07-0.009,0.139-0.019,0.209-0.027c0.349-0.04,0.705-0.067,1.067-0.087
		c0.211-0.011,0.421-0.024,0.635-0.027c0.102-0.004,0.203-0.009,0.305-0.01c0.483,0.001,0.963,0.023,1.439,0.063
		c0.566,0.047,1.126,0.121,1.678,0.223c0.005,0.001,0.011,0.003,0.016,0.004c0.548,0.102,1.087,0.232,1.614,0.385
		c0.038,0.011,0.074,0.025,0.112,0.036c0.502,0.151,0.994,0.323,1.471,0.519c0.025,0.01,0.05,0.021,0.075,0.032
		c0.489,0.204,0.962,0.431,1.417,0.682c0.122,0.067,0.248,0.131,0.367,0.202l0.22,0.122c0.775,0.48,1.477,1.028,2.087,1.638
		c0.195,0.195,0.451,0.293,0.707,0.293s0.512-0.098,0.707-0.293c0.391-0.391,0.391-1.023,0-1.414
		c-0.697-0.697-1.497-1.324-2.374-1.874C38.877,11.223,39,10.364,39,9.5c0-0.438-0.04-0.867-0.098-1.29
		c-0.005-0.039-0.003-0.078-0.009-0.117c4.033,1.13,7.11,3.19,9.342,6.259c-0.048,0.008-0.093,0.02-0.141,0.028
		c-0.14,0.024-0.275,0.055-0.412,0.083c-0.221,0.045-0.441,0.092-0.655,0.146c-0.142,0.036-0.282,0.076-0.421,0.115
		c-0.203,0.057-0.404,0.117-0.602,0.181c-0.138,0.045-0.275,0.092-0.412,0.141c-0.194,0.069-0.387,0.141-0.577,0.216
		c-0.132,0.052-0.263,0.104-0.393,0.159c-0.194,0.081-0.386,0.166-0.577,0.252c-0.121,0.055-0.242,0.109-0.362,0.165
		c-0.204,0.096-0.407,0.196-0.609,0.296c-0.104,0.052-0.208,0.102-0.312,0.155c-0.236,0.12-0.471,0.243-0.707,0.368
		c-0.068,0.036-0.137,0.071-0.206,0.108c-0.304,0.162-0.608,0.326-0.915,0.492c-0.403,0.218-0.818,0.438-1.232,0.656
		C36.729,16.078,33.242,15,29.5,15s-7.229,1.078-10.201,2.913c-0.414-0.219-0.829-0.438-1.232-0.656
		c-0.306-0.165-0.609-0.329-0.912-0.491c-0.072-0.039-0.145-0.076-0.218-0.114c-0.231-0.122-0.463-0.243-0.694-0.362
		c-0.107-0.054-0.214-0.106-0.321-0.159c-0.199-0.099-0.399-0.197-0.6-0.292c-0.122-0.057-0.245-0.112-0.368-0.168
		c-0.189-0.085-0.379-0.169-0.571-0.249c-0.132-0.055-0.265-0.108-0.398-0.161c-0.188-0.074-0.379-0.145-0.571-0.214
		c-0.138-0.049-0.277-0.097-0.417-0.142c-0.196-0.064-0.396-0.123-0.597-0.18c-0.141-0.04-0.282-0.08-0.425-0.116
		c-0.214-0.054-0.433-0.1-0.653-0.145c-0.137-0.028-0.273-0.059-0.413-0.083c-0.048-0.008-0.093-0.02-0.141-0.028
		C12.997,11.284,16.074,9.224,20.107,8.094z M6,30c0-3.143,0.494-6.182,1.472-9.07c0.01,0.025,0.024,0.046,0.035,0.071
		c0.1,0.229,0.208,0.451,0.326,0.662c0.006,0.011,0.013,0.02,0.018,0.031c0.115,0.204,0.238,0.401,0.365,0.593
		c0.04,0.061,0.081,0.12,0.122,0.179c0.102,0.149,0.206,0.295,0.311,0.439c0.039,0.052,0.076,0.105,0.115,0.157
		c0.136,0.181,0.272,0.36,0.409,0.537c0.671,0.871,1.305,1.693,1.706,2.766l0.433,1.158C10.477,29.692,10,32.039,10,34.5
		c0,3.802,1.111,7.342,3,10.344v3.665C8.526,43.637,6,37.018,6,30z M15,55.986v-2.831v-5.633c0.183,0.204,0.377,0.399,0.568,0.595
		c0.07,0.072,0.136,0.147,0.208,0.217c0.388,0.386,0.795,0.751,1.213,1.103c0.09,0.075,0.181,0.148,0.272,0.222
		c0.892,0.722,1.844,1.365,2.847,1.92c0.071,0.039,0.143,0.078,0.215,0.117c0.861,0.462,1.752,0.867,2.677,1.195V57h-6.986
		C15.455,57,15,56.545,15,55.986z M25,55.516v-2.061C26.447,53.799,27.949,54,29.5,54s3.053-0.201,4.5-0.545v2.061
		C31.019,56.158,27.981,56.158,25,55.516z M44,55.809C44,56.466,43.465,57,42.809,57H36v-4.109c0.927-0.328,1.82-0.734,2.682-1.197
		c0.069-0.037,0.137-0.074,0.206-0.112c1.008-0.557,1.964-1.202,2.859-1.928c0.087-0.07,0.174-0.14,0.26-0.212
		c0.421-0.353,0.829-0.721,1.22-1.109c0.07-0.069,0.134-0.142,0.203-0.212c0.193-0.197,0.387-0.393,0.571-0.598v5.633V55.809z
		 M46,44.844c1.889-3.003,3-6.543,3-10.344c0-2.461-0.477-4.808-1.313-6.978l0.433-1.158c0.401-1.072,1.035-1.895,1.706-2.766
		c0.137-0.177,0.274-0.357,0.409-0.538c0.039-0.051,0.076-0.104,0.114-0.155c0.106-0.144,0.21-0.292,0.313-0.441
		c0.041-0.059,0.081-0.118,0.121-0.178c0.127-0.192,0.25-0.388,0.365-0.593c0.006-0.01,0.013-0.02,0.018-0.031
		c0.118-0.211,0.226-0.433,0.326-0.662c0.011-0.024,0.024-0.046,0.035-0.071C52.506,23.818,53,26.857,53,30
		c0,7.018-2.526,13.637-7,18.51V44.844z"/>
</g>
<g>
</g>
<g>
</g>
<g>
</g>
<g>
</g>
<g>
</g>
<g>
</g>
<g>
</g>
<g>
</g>
<g>
</g>
<g>
</g>
<g>
</g>
<g>
</g>
<g>
</g>
<g>
</g>
<g>
</g>
</svg>
