<?xml version="1.0" encoding="iso-8859-1"?>
<!-- Generator: Adobe Illustrator 18.0.0, SVG Export Plug-In . SVG Version: 6.00 Build 0)  -->
<!DOCTYPE svg PUBLIC "-//W3C//DTD SVG 1.1//EN" "http://www.w3.org/Graphics/SVG/1.1/DTD/svg11.dtd">
<svg version="1.1" id="Capa_1" xmlns="http://www.w3.org/2000/svg" xmlns:xlink="http://www.w3.org/1999/xlink" x="0px" y="0px"
	 viewBox="0 0 60 60" style="enable-background:new 0 0 60 60;" xml:space="preserve">
<g>
	<path d="M53.796,8H51h-6h-2V5.733C43,2.572,40.428,0,37.267,0H8.733C5.572,0,3,2.572,3,5.733v48.533C3,57.428,5.572,60,8.733,60
		h28.534C40.428,60,43,57.428,43,54.267V42h2h6h2.796C55.563,42,57,40.563,57,38.797V11.203C57,9.437,55.563,8,53.796,8z M41,54.267
		C41,56.325,39.325,58,37.267,58H8.733C6.675,58,5,56.325,5,54.267V5.733C5,3.675,6.675,2,8.733,2h28.534
		C39.325,2,41,3.675,41,5.733V8v34V54.267z M43,40V10h2v30H43z M47,40V10h2v30H47z M55,38.797C55,39.46,54.46,40,53.796,40H51V10
		h2.796C54.46,10,55,10.54,55,11.203V38.797z"/>
	<circle cx="53" cy="14" r="1"/>
	<circle cx="53" cy="19" r="1"/>
	<path d="M8,22h30V9H8V22z M10,11h26v9H10V11z"/>
	<path d="M14,7c0.552,0,1-0.447,1-1s-0.448-1-1-1H8C7.448,5,7,5.447,7,6s0.448,1,1,1H14z"/>
	<path d="M9,31h8v-7H9V31z M11,26h4v3h-4V26z"/>
	<path d="M19,31h8v-7h-8V31z M21,26h4v3h-4V26z"/>
	<path d="M29,31h8v-7h-8V31z M31,26h4v3h-4V26z"/>
	<path d="M9,39h8v-7H9V39z M11,34h4v3h-4V34z"/>
	<path d="M19,39h8v-7h-8V39z M21,34h4v3h-4V34z"/>
	<path d="M29,39h8v-7h-8V39z M31,34h4v3h-4V34z"/>
	<path d="M9,47h8v-7H9V47z M11,42h4v3h-4V42z"/>
	<path d="M19,47h8v-7h-8V47z M21,42h4v3h-4V42z"/>
	<path d="M9,56h8v-7H9V56z M11,51h4v3h-4V51z"/>
	<path d="M19,56h8v-7h-8V56z M21,51h4v3h-4V51z"/>
	<path d="M29,56h8V40h-8V56z M31,42h4v12h-4V42z"/>
	<path d="M20.382,12.077c-0.244-0.101-0.52-0.101-0.764,0c-0.123,0.051-0.233,0.124-0.326,0.217l-0.999,0.999
		c-0.391,0.391-0.391,1.023,0,1.414C18.488,14.902,18.744,15,19,15v3c0,0.553,0.448,1,1,1s1-0.447,1-1v-5
		c0-0.13-0.027-0.26-0.077-0.382C20.822,12.373,20.627,12.178,20.382,12.077z"/>
	<path d="M29.382,12.077c-0.244-0.101-0.52-0.101-0.764,0c-0.123,0.051-0.233,0.124-0.326,0.217l-0.999,0.999
		c-0.391,0.391-0.391,1.023,0,1.414C27.488,14.902,27.744,15,28,15v3c0,0.553,0.448,1,1,1s1-0.447,1-1v-5
		c0-0.13-0.027-0.26-0.077-0.382C29.822,12.373,29.627,12.178,29.382,12.077z"/>
	<path d="M33.382,12.077c-0.244-0.101-0.52-0.101-0.764,0c-0.123,0.051-0.233,0.124-0.326,0.217l-0.999,0.999
		c-0.391,0.391-0.391,1.023,0,1.414C31.488,14.902,31.744,15,32,15v3c0,0.553,0.448,1,1,1s1-0.447,1-1v-5
		c0-0.13-0.027-0.26-0.077-0.382C33.822,12.373,33.627,12.178,33.382,12.077z"/>
	<path d="M24.293,16.293l-1,1c-0.391,0.391-0.391,1.023,0,1.414C23.488,18.902,23.744,19,24,19s0.512-0.098,0.707-0.293l1-1
		c0.391-0.391,0.391-1.023,0-1.414S24.684,15.902,24.293,16.293z"/>
</g>
<g>
</g>
<g>
</g>
<g>
</g>
<g>
</g>
<g>
</g>
<g>
</g>
<g>
</g>
<g>
</g>
<g>
</g>
<g>
</g>
<g>
</g>
<g>
</g>
<g>
</g>
<g>
</g>
<g>
</g>
</svg>
