<?xml version="1.0" encoding="iso-8859-1"?>
<!-- Generator: Adobe Illustrator 18.0.0, SVG Export Plug-In . SVG Version: 6.00 Build 0)  -->
<!DOCTYPE svg PUBLIC "-//W3C//DTD SVG 1.1//EN" "http://www.w3.org/Graphics/SVG/1.1/DTD/svg11.dtd">
<svg version="1.1" id="Capa_1" xmlns="http://www.w3.org/2000/svg" xmlns:xlink="http://www.w3.org/1999/xlink" x="0px" y="0px"
	 viewBox="0 0 56.59 56.59" style="enable-background:new 0 0 56.59 56.59;" xml:space="preserve">
<g>
	<path d="M23.648,17.59H9.193L1.612,42.243c-1.333,3.079-1.265,6.094,0.191,8.494c1.687,2.781,5.079,4.54,9.307,4.826
		c0.271,0.018,0.545,0.028,0.822,0.028h9.647c0.276,0,0.55-0.01,0.823-0.028c4.212-0.285,7.608-2.017,9.317-4.752
		c1.498-2.397,1.617-5.319,0.364-8.396L23.648,17.59z M30.022,49.751c-1.365,2.185-4.192,3.576-7.755,3.817
		c-0.228,0.015-0.458,0.023-0.689,0.023h-9.647c-0.231,0-0.461-0.008-0.688-0.023c-3.568-0.242-6.386-1.651-7.731-3.868
		c-1.133-1.869-1.149-4.188-0.045-6.708L10.67,19.59h11.545l7.995,23.522C31.231,45.625,31.166,47.92,30.022,49.751z"/>
	<path d="M8.635,8.621c0.407,1.178,1.504,1.97,2.73,1.97h9.133c1.226,0,2.323-0.792,2.73-1.97c0.313-0.907,0.901-2.17,1.925-3.037
		c0.83-0.702,1.218-1.791,1.015-2.841c-0.2-1.033-0.921-1.849-1.929-2.183c-3.002-0.994-5.664-0.66-7.697,0.967
		c-0.365,0.292-0.855,0.292-1.221,0c-2.033-1.626-4.694-1.961-7.698-0.967C6.616,0.893,5.895,1.709,5.695,2.742
		C5.491,3.793,5.88,4.881,6.71,5.584C7.734,6.451,8.322,7.714,8.635,8.621z M7.658,3.123C7.695,2.936,7.82,2.601,8.252,2.458
		c0.93-0.308,1.797-0.461,2.599-0.461c1.234,0,2.312,0.364,3.221,1.091v0c1.094,0.875,2.624,0.875,3.719,0
		c1.5-1.2,3.459-1.412,5.82-0.63c0.432,0.143,0.558,0.478,0.594,0.665c0.067,0.346-0.062,0.696-0.343,0.935
		c-1.371,1.161-2.129,2.768-2.524,3.911C21.209,8.34,20.871,8.59,20.498,8.59h-9.133c-0.374,0-0.711-0.25-0.839-0.622
		c-0.395-1.144-1.153-2.75-2.524-3.911C7.72,3.818,7.592,3.469,7.658,3.123z"/>
	<path d="M23.931,15.123V12.59c0-0.552-0.448-1-1-1h-13c-0.552,0-1,0.448-1,1s0.448,1,1,1h12v1h-12c-0.552,0-1,0.448-1,1
		s0.448,1,1,1h12.652c0.922,0.764,2.043,1.169,3.177,1.169c1.28,0,2.561-0.488,3.535-1.462c0.391-0.391,0.391-1.023,0-1.414
		s-1.023-0.391-1.414,0C26.801,15.962,25.107,16.033,23.931,15.123z"/>
	<path d="M9.931,48.59c-1.654,0-3-1.794-3-4c0-0.552-0.448-1-1-1s-1,0.448-1,1c0,3.309,2.243,6,5,6c0.552,0,1-0.448,1-1
		S10.484,48.59,9.931,48.59z"/>
	<path d="M45.931,43.59c-3.714,0-10,0.737-10,3.5v5.5c0,2.471,5.191,4,10,4s10-1.529,10-4v-5.5
		C55.931,44.328,49.646,43.59,45.931,43.59z M53.856,47.082c-0.021,0.021-0.038,0.042-0.067,0.065
		c-0.039,0.031-0.086,0.064-0.139,0.098c-0.066,0.042-0.146,0.086-0.233,0.13c-0.071,0.036-0.145,0.073-0.23,0.11
		c-0.105,0.047-0.229,0.094-0.356,0.142c-0.102,0.038-0.205,0.076-0.321,0.115c-0.146,0.048-0.314,0.096-0.483,0.143
		c-0.132,0.037-0.262,0.075-0.408,0.111c-0.19,0.047-0.404,0.09-0.617,0.133c-0.161,0.033-0.314,0.067-0.488,0.098
		c-0.24,0.042-0.508,0.078-0.773,0.114c-0.181,0.025-0.35,0.053-0.543,0.075c-0.315,0.036-0.662,0.061-1.008,0.086
		c-0.176,0.013-0.336,0.031-0.52,0.042c-0.546,0.03-1.124,0.048-1.741,0.048s-1.195-0.018-1.741-0.048
		c-0.184-0.01-0.344-0.028-0.52-0.042c-0.346-0.026-0.693-0.051-1.008-0.086c-0.193-0.022-0.362-0.05-0.543-0.075
		c-0.265-0.036-0.533-0.072-0.773-0.114c-0.174-0.031-0.327-0.065-0.488-0.098c-0.213-0.044-0.427-0.087-0.617-0.133
		c-0.146-0.036-0.275-0.073-0.408-0.111c-0.169-0.047-0.336-0.095-0.483-0.143c-0.116-0.038-0.219-0.077-0.321-0.115
		c-0.127-0.048-0.251-0.095-0.356-0.142c-0.085-0.037-0.159-0.074-0.23-0.11c-0.087-0.045-0.167-0.089-0.233-0.13
		c-0.053-0.034-0.1-0.066-0.139-0.098c-0.029-0.023-0.046-0.043-0.067-0.065c0.56-0.516,3.203-1.491,7.924-1.491
		S53.296,46.565,53.856,47.082z M45.931,54.59c-4.72,0-7.754-1.452-8-2v-3.257c0.027,0.012,0.06,0.021,0.088,0.033
		c0.239,0.102,0.489,0.198,0.755,0.286c0.014,0.005,0.028,0.01,0.043,0.014c0.272,0.088,0.559,0.167,0.852,0.24
		c0.096,0.024,0.195,0.046,0.293,0.068c0.214,0.049,0.43,0.096,0.651,0.138c0.107,0.021,0.213,0.041,0.321,0.06
		c0.243,0.043,0.487,0.081,0.734,0.117c0.078,0.011,0.155,0.024,0.233,0.035c0.323,0.043,0.646,0.081,0.967,0.112
		c0.081,0.008,0.16,0.014,0.241,0.021c0.247,0.022,0.491,0.042,0.733,0.058c0.105,0.007,0.207,0.013,0.31,0.019
		c0.224,0.013,0.442,0.023,0.658,0.031c0.091,0.003,0.182,0.007,0.271,0.01c0.293,0.008,0.579,0.013,0.849,0.013
		c0.269,0,0.555-0.005,0.848-0.013c0.091-0.003,0.183-0.007,0.275-0.01c0.214-0.008,0.431-0.018,0.654-0.031
		c0.105-0.006,0.208-0.012,0.314-0.019c0.242-0.016,0.487-0.036,0.734-0.059c0.08-0.007,0.158-0.013,0.238-0.021
		c0.322-0.032,0.645-0.069,0.968-0.113c0.079-0.011,0.157-0.024,0.236-0.035c0.246-0.035,0.49-0.074,0.732-0.117
		c0.109-0.019,0.215-0.04,0.322-0.06c0.221-0.043,0.438-0.089,0.653-0.139c0.098-0.023,0.196-0.044,0.292-0.068
		c0.299-0.075,0.591-0.155,0.868-0.245c0.014-0.005,0.026-0.01,0.04-0.014c0.261-0.086,0.508-0.181,0.743-0.281
		c0.028-0.012,0.061-0.022,0.089-0.034l0.006,3.188C53.686,53.139,50.651,54.59,45.931,54.59z"/>
</g>
<g>
</g>
<g>
</g>
<g>
</g>
<g>
</g>
<g>
</g>
<g>
</g>
<g>
</g>
<g>
</g>
<g>
</g>
<g>
</g>
<g>
</g>
<g>
</g>
<g>
</g>
<g>
</g>
<g>
</g>
</svg>
