<?xml version="1.0" encoding="iso-8859-1"?>
<!-- Generator: Adobe Illustrator 18.0.0, SVG Export Plug-In . SVG Version: 6.00 Build 0)  -->
<!DOCTYPE svg PUBLIC "-//W3C//DTD SVG 1.1//EN" "http://www.w3.org/Graphics/SVG/1.1/DTD/svg11.dtd">
<svg version="1.1" id="Capa_1" xmlns="http://www.w3.org/2000/svg" xmlns:xlink="http://www.w3.org/1999/xlink" x="0px" y="0px"
	 viewBox="0 0 60 60" style="enable-background:new 0 0 60 60;" xml:space="preserve">
<g>
	<path d="M31,4V1c0-0.553-0.447-1-1-1s-1,0.447-1,1v3H0v42h3h10h1h10h1h2.586L15.293,58.293c-0.391,0.391-0.391,1.023,0,1.414
		C15.488,59.902,15.744,60,16,60s0.512-0.098,0.707-0.293L29,47.414V57c0,0.553,0.447,1,1,1s1-0.447,1-1v-9.586l12.293,12.293
		C43.488,59.902,43.744,60,44,60s0.512-0.098,0.707-0.293c0.391-0.391,0.391-1.023,0-1.414L32.414,46H35h1h10h1h10h3V4H31z M5,44v-3
		h6v3H5z M11,39H5v-3h6V39z M16,44v-3h6v3H16z M22,39h-6v-9h6V39z M27,44v-3h6v3H27z M33,39h-6V24h6V39z M38,44v-3h6v3H38z M44,39
		h-6v-8h6V39z M49,44v-3h6v3H49z M55,39h-6V18h6V39z M58,44h-1v-3v-2V16H47v23v2v3h-1v-3v-2V29H36v10v2v3h-1v-3v-2V22H25v17v2v3h-1
		v-3v-2V28H14v11v2v3h-1v-3v-2v-5H3v5v2v3H2V6h56V44z"/>
	<path d="M15.382,14.077C15.26,14.026,15.13,14,15,14h-5c-0.553,0-1,0.447-1,1s0.447,1,1,1h2.586l-5.293,5.293
		c-0.391,0.391-0.391,1.023,0,1.414C7.488,22.902,7.744,23,8,23s0.512-0.098,0.707-0.293L14,17.414V20c0,0.553,0.447,1,1,1
		s1-0.447,1-1v-5c0-0.13-0.026-0.26-0.077-0.382C15.822,14.373,15.627,14.178,15.382,14.077z"/>
</g>
<g>
</g>
<g>
</g>
<g>
</g>
<g>
</g>
<g>
</g>
<g>
</g>
<g>
</g>
<g>
</g>
<g>
</g>
<g>
</g>
<g>
</g>
<g>
</g>
<g>
</g>
<g>
</g>
<g>
</g>
</svg>
