<?xml version="1.0" encoding="iso-8859-1"?>
<!-- Generator: Adobe Illustrator 18.0.0, SVG Export Plug-In . SVG Version: 6.00 Build 0)  -->
<!DOCTYPE svg PUBLIC "-//W3C//DTD SVG 1.1//EN" "http://www.w3.org/Graphics/SVG/1.1/DTD/svg11.dtd">
<svg version="1.1" id="Capa_1" xmlns="http://www.w3.org/2000/svg" xmlns:xlink="http://www.w3.org/1999/xlink" x="0px" y="0px"
	 viewBox="0 0 60 60" style="enable-background:new 0 0 60 60;" xml:space="preserve">
<g>
	<path d="M60,4H31V1c0-0.553-0.447-1-1-1s-1,0.447-1,1v3H0v42h27.586L15.293,58.293c-0.391,0.391-0.391,1.023,0,1.414
		C15.488,59.902,15.744,60,16,60s0.512-0.098,0.707-0.293L29,47.414V57c0,0.553,0.447,1,1,1s1-0.447,1-1v-9.586l12.293,12.293
		C43.488,59.902,43.744,60,44,60s0.512-0.098,0.707-0.293c0.391-0.391,0.391-1.023,0-1.414L32.414,46H60V4z M58,44H2V6h56V44z"/>
	<path d="M11,27.122V28c0,0.553,0.447,1,1,1s1-0.447,1-1v-0.882c1.091-0.222,2.086-0.801,2.818-1.668
		c0.611-0.723,0.894-1.647,0.794-2.604c-0.103-0.978-0.606-1.886-1.383-2.489l-5.23-4.068c-0.35-0.272-0.576-0.681-0.622-1.12
		c-0.042-0.409,0.075-0.801,0.332-1.104C10.28,13.388,11.115,13,12,13c1.654,0,3,1.346,3,3c0,0.553,0.447,1,1,1s1-0.447,1-1
		c0-2.414-1.721-4.434-4-4.899v-0.878c0-0.553-0.447-1-1-1s-1,0.447-1,1v0.882c-1.091,0.222-2.086,0.8-2.818,1.667
		c-0.611,0.723-0.893,1.646-0.794,2.603c0.102,0.979,0.605,1.887,1.383,2.492l5.23,4.068c0.35,0.271,0.576,0.68,0.622,1.119
		c0.042,0.409-0.075,0.802-0.332,1.105c-0.571,0.676-1.406,1.063-2.291,1.063c-1.654,0-3-1.346-3-3c0-0.553-0.447-1-1-1
		s-1,0.447-1,1C7,24.637,8.721,26.657,11,27.122z"/>
	<path d="M39,20h14v4H42c-0.553,0-1,0.447-1,1s0.447,1,1,1h11v4h-4c-0.553,0-1,0.447-1,1s0.447,1,1,1h4v5h-7c-0.553,0-1,0.447-1,1
		s0.447,1,1,1h7v2c0,0.553,0.447,1,1,1s1-0.447,1-1V10c0-0.553-0.447-1-1-1s-1,0.447-1,1v2h-7c-0.553,0-1,0.447-1,1s0.447,1,1,1h7v4
		H39c-0.553,0-1,0.447-1,1S38.447,20,39,20z"/>
	<path d="M16,38H8c-0.553,0-1,0.447-1,1s0.447,1,1,1h8c0.553,0,1-0.447,1-1S16.553,38,16,38z"/>
	<path d="M20.29,38.29C20.109,38.479,20,38.729,20,39c0,0.27,0.109,0.52,0.29,0.7C20.479,39.89,20.729,40,21,40
		c0.26,0,0.52-0.11,0.71-0.29C21.89,39.52,22,39.26,22,39s-0.11-0.521-0.29-0.71C21.34,37.92,20.66,37.92,20.29,38.29z"/>
	<path d="M21,33h-3c-0.553,0-1,0.447-1,1s0.447,1,1,1h3c0.553,0,1-0.447,1-1S21.553,33,21,33z"/>
	<path d="M8,35h2c0.553,0,1-0.447,1-1s-0.447-1-1-1H8c-0.553,0-1,0.447-1,1S7.447,35,8,35z"/>
	<path d="M13.29,33.29C13.109,33.479,13,33.74,13,34c0,0.27,0.109,0.52,0.29,0.71C13.479,34.89,13.74,35,14,35s0.52-0.11,0.71-0.29
		C14.89,34.52,15,34.26,15,34s-0.11-0.521-0.29-0.71C14.33,32.92,13.67,32.92,13.29,33.29z"/>
</g>
<g>
</g>
<g>
</g>
<g>
</g>
<g>
</g>
<g>
</g>
<g>
</g>
<g>
</g>
<g>
</g>
<g>
</g>
<g>
</g>
<g>
</g>
<g>
</g>
<g>
</g>
<g>
</g>
<g>
</g>
</svg>
