<?xml version="1.0" encoding="iso-8859-1"?>
<!-- Generator: Adobe Illustrator 18.0.0, SVG Export Plug-In . SVG Version: 6.00 Build 0)  -->
<!DOCTYPE svg PUBLIC "-//W3C//DTD SVG 1.1//EN" "http://www.w3.org/Graphics/SVG/1.1/DTD/svg11.dtd">
<svg version="1.1" id="Capa_1" xmlns="http://www.w3.org/2000/svg" xmlns:xlink="http://www.w3.org/1999/xlink" x="0px" y="0px"
	 viewBox="0 0 60 60" style="enable-background:new 0 0 60 60;" xml:space="preserve">
<g>
	<path d="M60,8V0H0v8h2v40H1c-0.553,0-1,0.447-1,1s0.447,1,1,1h1h27v2c0,0.047,0.021,0.088,0.027,0.134
		C27.292,52.571,26,54.131,26,56c0,2.206,1.794,4,4,4s4-1.794,4-4c0-1.869-1.292-3.429-3.027-3.866C30.979,52.088,31,52.047,31,52
		v-2h27h1c0.553,0,1-0.447,1-1s-0.447-1-1-1h-1V8H60z M32,56c0,1.103-0.897,2-2,2s-2-0.897-2-2s0.897-2,2-2S32,54.897,32,56z M2,2
		h56v4H2V2z M56,48H4V8h52V48z"/>
	<path d="M15,42c2.757,0,5-2.243,5-5c0-2.414-1.721-4.434-4-4.899V30h13v2.101c-2.279,0.465-4,2.484-4,4.899c0,2.757,2.243,5,5,5
		s5-2.243,5-5c0-2.414-1.721-4.434-4-4.899V30h13v2.101c-2.279,0.465-4,2.484-4,4.899c0,2.757,2.243,5,5,5s5-2.243,5-5
		c0-2.414-1.721-4.434-4-4.899V28H31v-5h3v-8h-8v8h3v5H14v4.101c-2.279,0.465-4,2.484-4,4.899C10,39.757,12.243,42,15,42z M33,37
		c0,1.654-1.346,3-3,3s-3-1.346-3-3s1.346-3,3-3S33,35.346,33,37z M48,37c0,1.654-1.346,3-3,3s-3-1.346-3-3s1.346-3,3-3
		S48,35.346,48,37z M28,17h4v4h-4V17z M15,34c1.654,0,3,1.346,3,3s-1.346,3-3,3s-3-1.346-3-3S13.346,34,15,34z"/>
</g>
<g>
</g>
<g>
</g>
<g>
</g>
<g>
</g>
<g>
</g>
<g>
</g>
<g>
</g>
<g>
</g>
<g>
</g>
<g>
</g>
<g>
</g>
<g>
</g>
<g>
</g>
<g>
</g>
<g>
</g>
</svg>
