<?xml version="1.0" encoding="iso-8859-1"?>
<!-- Generator: Adobe Illustrator 18.0.0, SVG Export Plug-In . SVG Version: 6.00 Build 0)  -->
<!DOCTYPE svg PUBLIC "-//W3C//DTD SVG 1.1//EN" "http://www.w3.org/Graphics/SVG/1.1/DTD/svg11.dtd">
<svg version="1.1" id="Capa_1" xmlns="http://www.w3.org/2000/svg" xmlns:xlink="http://www.w3.org/1999/xlink" x="0px" y="0px"
	 viewBox="0 0 60 60" style="enable-background:new 0 0 60 60;" xml:space="preserve">
<g>
	<path d="M60,8V0H0v8h2v40H1c-0.552,0-1,0.447-1,1s0.448,1,1,1h1h27v2c0,0.047,0.021,0.088,0.027,0.134
		C27.293,52.571,26,54.131,26,56c0,2.206,1.794,4,4,4s4-1.794,4-4c0-1.869-1.293-3.429-3.027-3.866C30.979,52.088,31,52.047,31,52
		v-2h27h1c0.553,0,1-0.447,1-1s-0.447-1-1-1h-1V8H60z M32,56c0,1.103-0.897,2-2,2s-2-0.897-2-2s0.897-2,2-2S32,54.897,32,56z M2,2
		h56v4H2V2z M56,48H4V8h52V48z"/>
	<path d="M10,20h9c0.552,0,1-0.447,1-1s-0.448-1-1-1h-9c-0.552,0-1,0.447-1,1S9.448,20,10,20z"/>
	<path d="M10,17h5c0.552,0,1-0.447,1-1s-0.448-1-1-1h-5c-0.552,0-1,0.447-1,1S9.448,17,10,17z"/>
	<path d="M10,23h9c0.552,0,1-0.447,1-1s-0.448-1-1-1h-9c-0.552,0-1,0.447-1,1S9.448,23,10,23z"/>
	<path d="M11.293,41.707C11.488,41.902,11.744,42,12,42s0.512-0.098,0.707-0.293L24.6,29.814l8.293,8.293
		c0.195,0.195,0.451,0.293,0.707,0.293s0.512-0.098,0.707-0.293L47,25.414V30c0,0.553,0.447,1,1,1s1-0.447,1-1v-7
		c0-0.13-0.026-0.26-0.077-0.382c-0.101-0.245-0.296-0.44-0.541-0.541C48.26,22.026,48.13,22,48,22h-7c-0.552,0-1,0.447-1,1
		s0.448,1,1,1h4.586L33.6,35.986l-8.293-8.293c-0.391-0.391-1.023-0.391-1.414,0l-12.6,12.6
		C10.902,40.684,10.902,41.316,11.293,41.707z"/>
</g>
<g>
</g>
<g>
</g>
<g>
</g>
<g>
</g>
<g>
</g>
<g>
</g>
<g>
</g>
<g>
</g>
<g>
</g>
<g>
</g>
<g>
</g>
<g>
</g>
<g>
</g>
<g>
</g>
<g>
</g>
</svg>
