<?xml version="1.0" encoding="iso-8859-1"?>
<!-- Generator: Adobe Illustrator 18.0.0, SVG Export Plug-In . SVG Version: 6.00 Build 0)  -->
<!DOCTYPE svg PUBLIC "-//W3C//DTD SVG 1.1//EN" "http://www.w3.org/Graphics/SVG/1.1/DTD/svg11.dtd">
<svg version="1.1" id="Capa_1" xmlns="http://www.w3.org/2000/svg" xmlns:xlink="http://www.w3.org/1999/xlink" x="0px" y="0px"
	 viewBox="0 0 60 60" style="enable-background:new 0 0 60 60;" xml:space="preserve">
<g>
	<path d="M6,15h15c0.552,0,1-0.447,1-1s-0.448-1-1-1H6c-0.552,0-1,0.447-1,1S5.448,15,6,15z"/>
	<path d="M6,11h9c0.552,0,1-0.447,1-1s-0.448-1-1-1H6c-0.552,0-1,0.447-1,1S5.448,11,6,11z"/>
	<path d="M22,18c0-0.553-0.448-1-1-1H6c-0.552,0-1,0.447-1,1s0.448,1,1,1h15C21.552,19,22,18.553,22,18z"/>
	<path d="M60,4H31V1c0-0.553-0.448-1-1-1s-1,0.447-1,1v3H0v42h27.586L15.293,58.293c-0.391,0.391-0.391,1.023,0,1.414
		C15.488,59.902,15.744,60,16,60s0.512-0.098,0.707-0.293L29,47.414V57c0,0.553,0.448,1,1,1s1-0.447,1-1v-9.586l12.293,12.293
		C43.488,59.902,43.744,60,44,60s0.512-0.098,0.707-0.293c0.391-0.391,0.391-1.023,0-1.414L32.414,46H60V4z M58,44H2V6h56V44z"/>
	<path d="M28.019,31.567C27.424,31.215,26.74,31,26,31c-0.472,0-0.918,0.097-1.338,0.247l-1.909-1.908
		C22.903,28.918,23,28.472,23,28c0-2.206-1.794-4-4-4s-4,1.794-4,4c0,0.472,0.097,0.918,0.247,1.339l-1.909,1.908
		C12.918,31.097,12.472,31,12,31c-2.206,0-4,1.794-4,4s1.794,4,4,4s4-1.794,4-4c0-0.997-0.38-1.899-0.986-2.6l1.385-1.385
		C17.101,31.62,18.003,32,19,32s1.899-0.38,2.6-0.985l1.385,1.385C22.38,33.101,22,34.003,22,35c0,2.206,1.794,4,4,4s4-1.794,4-4
		c0-0.74-0.215-1.424-0.567-2.019l6.967-6.966C37.101,26.62,38.003,27,39,27s1.899-0.38,2.6-0.985l4.386,4.385
		C45.38,31.101,45,32.003,45,33c0,2.206,1.794,4,4,4s4-1.794,4-4s-1.794-4-4-4c-0.472,0-0.918,0.097-1.338,0.247l-4.909-4.908
		C42.903,23.918,43,23.472,43,23c0-2.206-1.794-4-4-4s-4,1.794-4,4c0,0.472,0.097,0.918,0.247,1.339L28.019,31.567z M12,37
		c-1.103,0-2-0.897-2-2s0.897-2,2-2s2,0.897,2,2S13.103,37,12,37z M19,30c-1.103,0-2-0.897-2-2s0.897-2,2-2s2,0.897,2,2
		S20.103,30,19,30z M26,37c-1.103,0-2-0.897-2-2s0.897-2,2-2s2,0.897,2,2S27.103,37,26,37z M51,33c0,1.103-0.897,2-2,2s-2-0.897-2-2
		s0.897-2,2-2S51,31.897,51,33z M39,21c1.103,0,2,0.897,2,2s-0.897,2-2,2s-2-0.897-2-2S37.897,21,39,21z"/>
</g>
<g>
</g>
<g>
</g>
<g>
</g>
<g>
</g>
<g>
</g>
<g>
</g>
<g>
</g>
<g>
</g>
<g>
</g>
<g>
</g>
<g>
</g>
<g>
</g>
<g>
</g>
<g>
</g>
<g>
</g>
</svg>
