<?xml version="1.0" encoding="iso-8859-1"?>
<!-- Generator: Adobe Illustrator 18.0.0, SVG Export Plug-In . SVG Version: 6.00 Build 0)  -->
<!DOCTYPE svg PUBLIC "-//W3C//DTD SVG 1.1//EN" "http://www.w3.org/Graphics/SVG/1.1/DTD/svg11.dtd">
<svg version="1.1" id="Capa_1" xmlns="http://www.w3.org/2000/svg" xmlns:xlink="http://www.w3.org/1999/xlink" x="0px" y="0px"
	 viewBox="0 0 60 60" style="enable-background:new 0 0 60 60;" xml:space="preserve">
<g>
	<path d="M55,22.974C55,15.269,48.731,9,41.026,9h-1v14.974H55V22.974z M42.026,21.974V11.041
		c5.806,0.482,10.45,5.127,10.932,10.933H42.026z"/>
	<path d="M24,26.026c0,1.381,0.209,2.713,0.584,3.974h-4.995l-4.714-8.485c-0.021-0.039-0.057-0.062-0.083-0.097
		c-0.042-0.058-0.083-0.113-0.137-0.16c-0.048-0.042-0.1-0.072-0.155-0.104c-0.055-0.033-0.108-0.065-0.17-0.086
		c-0.067-0.024-0.134-0.032-0.204-0.041C14.083,21.02,14.045,21,14,21H6c-0.552,0-1,0.447-1,1s0.448,1,1,1h7.412l4.714,8.485
		c0.046,0.083,0.102,0.156,0.166,0.22c0.002,0.002,0.005,0.004,0.008,0.006c0.08,0.079,0.174,0.137,0.274,0.185
		c0.027,0.013,0.054,0.024,0.083,0.034c0.11,0.041,0.224,0.069,0.342,0.069c0.001,0,0.001,0,0.002,0h6.36
		c2.245,4.721,7.047,8,12.613,8c7.705,0,13.974-6.269,13.974-13.974v-1H38.974V12.053h-1C30.269,12.053,24,18.321,24,26.026z
		 M36.974,14.094v12.933h12.932C49.396,33.162,44.239,38,37.974,38c-4.426,0-8.289-2.42-10.362-6H31c0.552,0,1-0.447,1-1
		s-0.448-1-1-1h-4.308C26.252,28.754,26,27.421,26,26.026C26,19.761,30.838,14.604,36.974,14.094z"/>
	<path d="M60,4H31V1c0-0.553-0.448-1-1-1s-1,0.447-1,1v3H0v42h27.586L15.293,58.293c-0.391,0.391-0.391,1.023,0,1.414
		C15.488,59.902,15.744,60,16,60s0.512-0.098,0.707-0.293L29,47.414V57c0,0.553,0.448,1,1,1s1-0.447,1-1v-9.586l12.293,12.293
		C43.488,59.902,43.744,60,44,60s0.512-0.098,0.707-0.293c0.391-0.391,0.391-1.023,0-1.414L32.414,46H60V4z M58,44H2V6h56V44z"/>
	<path d="M8,19c0.552,0,1-0.447,1-1v-4c0-0.553-0.448-1-1-1s-1,0.447-1,1v4C7,18.553,7.448,19,8,19z"/>
	<path d="M11,19c0.552,0,1-0.447,1-1v-4c0-0.553-0.448-1-1-1s-1,0.447-1,1v4C10,18.553,10.448,19,11,19z"/>
</g>
<g>
</g>
<g>
</g>
<g>
</g>
<g>
</g>
<g>
</g>
<g>
</g>
<g>
</g>
<g>
</g>
<g>
</g>
<g>
</g>
<g>
</g>
<g>
</g>
<g>
</g>
<g>
</g>
<g>
</g>
</svg>
