<?xml version="1.0" encoding="iso-8859-1"?>
<!-- Generator: Adobe Illustrator 18.0.0, SVG Export Plug-In . SVG Version: 6.00 Build 0)  -->
<!DOCTYPE svg PUBLIC "-//W3C//DTD SVG 1.1//EN" "http://www.w3.org/Graphics/SVG/1.1/DTD/svg11.dtd">
<svg version="1.1" id="Capa_1" xmlns="http://www.w3.org/2000/svg" xmlns:xlink="http://www.w3.org/1999/xlink" x="0px" y="0px"
	 viewBox="0 0 60 60" style="enable-background:new 0 0 60 60;" xml:space="preserve">
<g>
	<path d="M60,8V0H0v8h2v40H1c-0.552,0-1,0.447-1,1s0.448,1,1,1h1h27v2c0,0.047,0.021,0.088,0.027,0.134
		C27.293,52.571,26,54.131,26,56c0,2.206,1.794,4,4,4s4-1.794,4-4c0-1.869-1.293-3.429-3.027-3.866C30.979,52.088,31,52.047,31,52
		v-2h27h1c0.552,0,1-0.447,1-1s-0.448-1-1-1h-1V8H60z M32,56c0,1.103-0.897,2-2,2s-2-0.897-2-2s0.897-2,2-2S32,54.897,32,56z M2,2
		h56v4H2V2z M56,48H4V8h52V48z"/>
	<path d="M8,19h11c0.552,0,1-0.447,1-1s-0.448-1-1-1H8c-0.552,0-1,0.447-1,1S7.448,19,8,19z"/>
	<path d="M8,15h5c0.552,0,1-0.447,1-1s-0.448-1-1-1H8c-0.552,0-1,0.447-1,1S7.448,15,8,15z"/>
	<path d="M8,23h11c0.552,0,1-0.447,1-1s-0.448-1-1-1H8c-0.552,0-1,0.447-1,1S7.448,23,8,23z"/>
	<path d="M15,32c0,0.472,0.097,0.918,0.247,1.339l-1.909,1.908C12.918,35.097,12.472,35,12,35c-2.206,0-4,1.794-4,4s1.794,4,4,4
		s4-1.794,4-4c0-0.997-0.38-1.899-0.986-2.6l1.385-1.385C17.101,35.62,18.003,36,19,36s1.899-0.38,2.6-0.985l1.385,1.385
		C22.38,37.101,22,38.003,22,39c0,2.206,1.794,4,4,4s4-1.794,4-4c0-0.74-0.215-1.424-0.567-2.019l6.967-6.966
		C37.101,30.62,38.003,31,39,31s1.899-0.38,2.6-0.985l4.386,4.385C45.38,35.101,45,36.003,45,37c0,2.206,1.794,4,4,4s4-1.794,4-4
		s-1.794-4-4-4c-0.472,0-0.918,0.097-1.338,0.247l-4.909-4.908C42.903,27.918,43,27.472,43,27c0-2.206-1.794-4-4-4s-4,1.794-4,4
		c0,0.472,0.097,0.918,0.247,1.339l-7.228,7.228C27.424,35.215,26.74,35,26,35c-0.472,0-0.918,0.097-1.338,0.247l-1.909-1.908
		C22.903,32.918,23,32.472,23,32c0-2.206-1.794-4-4-4S15,29.794,15,32z M12,41c-1.103,0-2-0.897-2-2s0.897-2,2-2s2,0.897,2,2
		S13.103,41,12,41z M51,37c0,1.103-0.897,2-2,2s-2-0.897-2-2s0.897-2,2-2S51,35.897,51,37z M39,25c1.103,0,2,0.897,2,2s-0.897,2-2,2
		s-2-0.897-2-2S37.897,25,39,25z M28,39c0,1.103-0.897,2-2,2s-2-0.897-2-2s0.897-2,2-2S28,37.897,28,39z M21,32c0,1.103-0.897,2-2,2
		s-2-0.897-2-2s0.897-2,2-2S21,30.897,21,32z"/>
</g>
<g>
</g>
<g>
</g>
<g>
</g>
<g>
</g>
<g>
</g>
<g>
</g>
<g>
</g>
<g>
</g>
<g>
</g>
<g>
</g>
<g>
</g>
<g>
</g>
<g>
</g>
<g>
</g>
<g>
</g>
</svg>
