<?xml version="1.0" encoding="iso-8859-1"?>
<!-- Generator: Adobe Illustrator 18.0.0, SVG Export Plug-In . SVG Version: 6.00 Build 0)  -->
<!DOCTYPE svg PUBLIC "-//W3C//DTD SVG 1.1//EN" "http://www.w3.org/Graphics/SVG/1.1/DTD/svg11.dtd">
<svg version="1.1" id="Capa_1" xmlns="http://www.w3.org/2000/svg" xmlns:xlink="http://www.w3.org/1999/xlink" x="0px" y="0px"
	 viewBox="0 0 60 60" style="enable-background:new 0 0 60 60;" xml:space="preserve">
<g>
	<path d="M60,8V0H0v8h2v40H1c-0.553,0-1,0.447-1,1s0.447,1,1,1h1h27v2c0,0.047,0.021,0.088,0.027,0.134
		C27.292,52.571,26,54.131,26,56c0,2.206,1.794,4,4,4s4-1.794,4-4c0-1.869-1.292-3.429-3.027-3.866C30.979,52.088,31,52.047,31,52
		v-2h27h1c0.553,0,1-0.447,1-1s-0.447-1-1-1h-1V8H60z M32,56c0,1.103-0.897,2-2,2s-2-0.897-2-2s0.897-2,2-2S32,54.897,32,56z M2,2
		h56v4H2V2z M56,48H4V8h52V48z"/>
	<path d="M36,45c0.553,0,1-0.447,1-1v-3c0-0.553-0.447-1-1-1s-1,0.447-1,1v3C35,44.553,35.447,45,36,45z"/>
	<path d="M40,36c-0.553,0-1,0.447-1,1v7c0,0.553,0.447,1,1,1s1-0.447,1-1v-7C41,36.447,40.553,36,40,36z"/>
	<path d="M44,38c-0.553,0-1,0.447-1,1v5c0,0.553,0.447,1,1,1s1-0.447,1-1v-5C45,38.447,44.553,38,44,38z"/>
	<path d="M48,31c-0.553,0-1,0.447-1,1v12c0,0.553,0.447,1,1,1s1-0.447,1-1V32C49,31.447,48.553,31,48,31z"/>
	<path d="M52,35c-0.553,0-1,0.447-1,1v8c0,0.553,0.447,1,1,1s1-0.447,1-1v-8C53,35.447,52.553,35,52,35z"/>
	<path d="M10,40h10c0.553,0,1-0.447,1-1s-0.447-1-1-1H10c-0.553,0-1,0.447-1,1S9.447,40,10,40z"/>
	<path d="M25,42H10c-0.553,0-1,0.447-1,1s0.447,1,1,1h15c0.553,0,1-0.447,1-1S25.553,42,25,42z"/>
	<path d="M19.5,34c2.879,0,5.508-1.071,7.528-2.827c0.028-0.022,0.062-0.032,0.088-0.058c0.016-0.016,0.021-0.037,0.036-0.054
		c2.125-1.901,3.542-4.571,3.799-7.574l0.019-0.016l0.02-0.44c0.004-0.088-0.004-0.174-0.002-0.262C30.988,22.679,31,22.591,31,22.5
		c0-0.122-0.015-0.241-0.018-0.362c-0.006-0.177-0.013-0.354-0.027-0.53c-0.018-0.239-0.047-0.474-0.08-0.708
		c-0.02-0.142-0.04-0.284-0.065-0.425c-0.047-0.263-0.106-0.521-0.17-0.778c-0.029-0.115-0.056-0.231-0.089-0.345
		c-0.076-0.265-0.164-0.525-0.258-0.782c-0.04-0.11-0.078-0.221-0.121-0.33c-0.096-0.241-0.205-0.475-0.317-0.707
		c-0.06-0.124-0.116-0.25-0.18-0.372c-0.103-0.195-0.216-0.382-0.33-0.57c-0.091-0.152-0.178-0.306-0.276-0.454
		c-0.088-0.131-0.185-0.255-0.278-0.383c-0.138-0.19-0.272-0.382-0.422-0.564c0-0.001-0.001-0.001-0.002-0.002
		c-0.233-0.283-0.476-0.558-0.737-0.819c-0.248-0.248-0.511-0.478-0.779-0.701c-0.015-0.013-0.029-0.027-0.045-0.04
		c-0.17-0.14-0.35-0.265-0.527-0.394c-0.142-0.104-0.281-0.212-0.428-0.31c-0.13-0.086-0.264-0.161-0.397-0.242
		c-0.21-0.128-0.42-0.254-0.638-0.368c-0.096-0.05-0.194-0.094-0.291-0.141c-0.262-0.128-0.527-0.249-0.8-0.357
		c-0.076-0.03-0.153-0.056-0.229-0.084c-0.292-0.109-0.587-0.208-0.889-0.293c-0.079-0.022-0.158-0.041-0.238-0.061
		c-0.291-0.075-0.585-0.141-0.884-0.193c-0.11-0.019-0.221-0.034-0.332-0.051c-0.261-0.038-0.523-0.069-0.79-0.089
		c-0.159-0.012-0.318-0.018-0.477-0.024C19.758,11.015,19.631,11,19.5,11c-0.093,0-0.183,0.012-0.275,0.014
		c-0.086,0.002-0.171-0.006-0.256-0.002l-0.395,0.024l-0.01,0.011C12.66,11.527,8,16.475,8,22.5C8,28.841,13.159,34,19.5,34z
		 M26.411,28.997L21.414,24h7.456C28.564,25.917,27.686,27.643,26.411,28.997z M20.298,13.04c0.104,0.008,0.208,0.018,0.311,0.03
		c0.227,0.027,0.451,0.061,0.673,0.103c0.067,0.013,0.134,0.024,0.201,0.038c0.272,0.058,0.541,0.126,0.804,0.207
		c0.016,0.005,0.033,0.009,0.049,0.014c2.962,0.928,5.304,3.27,6.232,6.232c0.005,0.016,0.009,0.033,0.014,0.049
		c0.081,0.263,0.149,0.531,0.207,0.804c0.014,0.067,0.025,0.134,0.038,0.201c0.042,0.222,0.076,0.446,0.103,0.673
		c0.012,0.103,0.021,0.207,0.03,0.311c0.008,0.098,0.01,0.199,0.015,0.298H20v-8.975C20.099,13.031,20.199,13.032,20.298,13.04z
		 M18,13.13v9.833l0.001,0.031c0,0.005,0.001,0.009,0.001,0.014L18.037,24h0.549l6.31,6.31C23.362,31.373,21.504,32,19.5,32
		c-5.238,0-9.5-4.262-9.5-9.5C10,17.773,13.474,13.853,18,13.13z"/>
	<path d="M39,19h8c0.553,0,1-0.447,1-1s-0.447-1-1-1h-8c-0.553,0-1,0.447-1,1S38.447,19,39,19z"/>
	<path d="M51.29,17.29C51.109,17.479,51,17.74,51,18s0.109,0.52,0.29,0.71C51.479,18.89,51.74,19,52,19s0.52-0.11,0.71-0.29
		C52.89,18.52,53,18.26,53,18s-0.11-0.521-0.29-0.71C52.34,16.92,51.66,16.92,51.29,17.29z"/>
	<path d="M49,14h3c0.553,0,1-0.447,1-1s-0.447-1-1-1h-3c-0.553,0-1,0.447-1,1S48.447,14,49,14z"/>
	<path d="M39,14h2c0.553,0,1-0.447,1-1s-0.447-1-1-1h-2c-0.553,0-1,0.447-1,1S38.447,14,39,14z"/>
	<path d="M45,14c0.26,0,0.52-0.11,0.71-0.29C45.89,13.52,46,13.26,46,13c0-0.271-0.11-0.521-0.29-0.71c-0.37-0.37-1.05-0.37-1.42,0
		C44.109,12.479,44,12.74,44,13s0.109,0.52,0.29,0.71C44.479,13.89,44.74,14,45,14z"/>
</g>
<g>
</g>
<g>
</g>
<g>
</g>
<g>
</g>
<g>
</g>
<g>
</g>
<g>
</g>
<g>
</g>
<g>
</g>
<g>
</g>
<g>
</g>
<g>
</g>
<g>
</g>
<g>
</g>
<g>
</g>
</svg>
