<?xml version="1.0" encoding="iso-8859-1"?>
<!-- Generator: Adobe Illustrator 18.0.0, SVG Export Plug-In . SVG Version: 6.00 Build 0)  -->
<!DOCTYPE svg PUBLIC "-//W3C//DTD SVG 1.1//EN" "http://www.w3.org/Graphics/SVG/1.1/DTD/svg11.dtd">
<svg version="1.1" id="Capa_1" xmlns="http://www.w3.org/2000/svg" xmlns:xlink="http://www.w3.org/1999/xlink" x="0px" y="0px"
	 viewBox="0 0 60 60" style="enable-background:new 0 0 60 60;" xml:space="preserve">
<g>
	<path d="M60,8V0H0v8h2v40H1c-0.552,0-1,0.447-1,1s0.448,1,1,1h1h27v2c0,0.047,0.021,0.088,0.027,0.134
		C27.293,52.571,26,54.131,26,56c0,2.206,1.794,4,4,4s4-1.794,4-4c0-1.869-1.293-3.429-3.027-3.866C30.979,52.088,31,52.047,31,52
		v-2h27h1c0.552,0,1-0.447,1-1s-0.448-1-1-1h-1V8H60z M32,56c0,1.103-0.897,2-2,2s-2-0.897-2-2s0.897-2,2-2S32,54.897,32,56z M2,2
		h56v4H2V2z M56,48H4V8h52V48z"/>
	<circle cx="21" cy="22" r="1"/>
	<circle cx="21" cy="26" r="1"/>
	<circle cx="21" cy="30" r="1"/>
	<circle cx="21" cy="34" r="1"/>
	<circle cx="21" cy="38" r="1"/>
	<path d="M8,42h3h6h2h4h2h4h2h4h2h4h2h6h3c0.552,0,1-0.447,1-1s-0.448-1-1-1h-3V18h-6v-3h-8v7h-6v6h-4V18h-8v6h-6v16H8
		c-0.552,0-1,0.447-1,1S7.448,42,8,42z M47,20v20h-4V20H47z M37,17h4v1v22h-4V22V17z M31,24h4v16h-4V28V24z M29,30v10h-4V30H29z
		 M22,20c0,0.552,0.448,1,1,1v2c-0.552,0-1,0.448-1,1c0,0.552,0.448,1,1,1v2c-0.552,0-1,0.448-1,1c0,0.552,0.448,1,1,1v2
		c-0.552,0-1,0.448-1,1c0,0.552,0.448,1,1,1v2c-0.552,0-1,0.448-1,1c0,0.552,0.448,1,1,1v2c-0.552,0-1,0.448-1,1h-2
		c0-0.552-0.448-1-1-1v-2c0.552,0,1-0.448,1-1c0-0.552-0.448-1-1-1v-2c0.552,0,1-0.448,1-1c0-0.552-0.448-1-1-1v-2
		c0.552,0,1-0.448,1-1c0-0.552-0.448-1-1-1v-2c0.552,0,1-0.448,1-1c0-0.552-0.448-1-1-1v-2c0.552,0,1-0.448,1-1H22z M13,26h4v14h-4
		V26z"/>
</g>
<g>
</g>
<g>
</g>
<g>
</g>
<g>
</g>
<g>
</g>
<g>
</g>
<g>
</g>
<g>
</g>
<g>
</g>
<g>
</g>
<g>
</g>
<g>
</g>
<g>
</g>
<g>
</g>
<g>
</g>
</svg>
