<?xml version="1.0" encoding="iso-8859-1"?>
<!-- Generator: Adobe Illustrator 18.0.0, SVG Export Plug-In . SVG Version: 6.00 Build 0)  -->
<!DOCTYPE svg PUBLIC "-//W3C//DTD SVG 1.1//EN" "http://www.w3.org/Graphics/SVG/1.1/DTD/svg11.dtd">
<svg version="1.1" id="Capa_1" xmlns="http://www.w3.org/2000/svg" xmlns:xlink="http://www.w3.org/1999/xlink" x="0px" y="0px"
	 viewBox="0 0 60 60" style="enable-background:new 0 0 60 60;" xml:space="preserve">
<g>
	<path d="M60,8V0H0v8h2v40H1c-0.553,0-1,0.447-1,1s0.447,1,1,1h1h27v2c0,0.047,0.021,0.088,0.027,0.134
		C27.292,52.571,26,54.131,26,56c0,2.206,1.794,4,4,4s4-1.794,4-4c0-1.869-1.292-3.429-3.027-3.866C30.979,52.088,31,52.047,31,52
		v-2h27h1c0.553,0,1-0.447,1-1s-0.447-1-1-1h-1V8H60z M32,56c0,1.103-0.897,2-2,2s-2-0.897-2-2s0.897-2,2-2S32,54.897,32,56z M2,2
		h56v4H2V2z M56,48H4V8h52V48z"/>
	<path d="M13,30.122V31c0,0.553,0.447,1,1,1s1-0.447,1-1v-0.882c1.091-0.222,2.086-0.801,2.818-1.668
		c0.611-0.723,0.894-1.647,0.794-2.604c-0.103-0.978-0.606-1.886-1.383-2.489l-5.23-4.068c-0.35-0.272-0.576-0.681-0.622-1.12
		c-0.042-0.409,0.075-0.801,0.332-1.104C12.28,16.388,13.115,16,14,16c1.654,0,3,1.346,3,3c0,0.553,0.447,1,1,1s1-0.447,1-1
		c0-2.414-1.721-4.434-4-4.899v-0.878c0-0.553-0.447-1-1-1s-1,0.447-1,1v0.882c-1.091,0.222-2.086,0.8-2.818,1.667
		c-0.611,0.723-0.893,1.646-0.794,2.603c0.102,0.979,0.605,1.887,1.383,2.492l5.23,4.068c0.35,0.271,0.576,0.68,0.622,1.119
		c0.042,0.409-0.075,0.802-0.332,1.105c-0.571,0.676-1.406,1.063-2.291,1.063c-1.654,0-3-1.346-3-3c0-0.553-0.447-1-1-1
		s-1,0.447-1,1C9,27.637,10.721,29.657,13,30.122z"/>
	<path d="M36,22h14v4H39c-0.553,0-1,0.447-1,1s0.447,1,1,1h11v4h-4c-0.553,0-1,0.447-1,1s0.447,1,1,1h4v5h-7c-0.553,0-1,0.447-1,1
		s0.447,1,1,1h7v2c0,0.553,0.447,1,1,1s1-0.447,1-1V12c0-0.553-0.447-1-1-1s-1,0.447-1,1v2h-7c-0.553,0-1,0.447-1,1s0.447,1,1,1h7v4
		H36c-0.553,0-1,0.447-1,1S35.447,22,36,22z"/>
	<path d="M10,43h8c0.553,0,1-0.447,1-1s-0.447-1-1-1h-8c-0.553,0-1,0.447-1,1S9.447,43,10,43z"/>
	<path d="M22.29,41.29C22.109,41.479,22,41.74,22,42c0,0.27,0.109,0.52,0.29,0.71C22.479,42.89,22.74,43,23,43s0.52-0.11,0.71-0.29
		C23.89,42.52,24,42.26,24,42s-0.11-0.521-0.29-0.71C23.34,40.92,22.66,40.92,22.29,41.29z"/>
	<path d="M20,38h3c0.553,0,1-0.447,1-1s-0.447-1-1-1h-3c-0.553,0-1,0.447-1,1S19.447,38,20,38z"/>
	<path d="M10,38h2c0.553,0,1-0.447,1-1s-0.447-1-1-1h-2c-0.553,0-1,0.447-1,1S9.447,38,10,38z"/>
	<path d="M15.29,36.29C15.109,36.479,15,36.729,15,37c0,0.26,0.109,0.52,0.29,0.71C15.479,37.899,15.74,38,16,38
		s0.52-0.11,0.71-0.29C16.89,37.52,17,37.26,17,37s-0.11-0.521-0.29-0.71C16.34,35.92,15.67,35.92,15.29,36.29z"/>
</g>
<g>
</g>
<g>
</g>
<g>
</g>
<g>
</g>
<g>
</g>
<g>
</g>
<g>
</g>
<g>
</g>
<g>
</g>
<g>
</g>
<g>
</g>
<g>
</g>
<g>
</g>
<g>
</g>
<g>
</g>
</svg>
