<?xml version="1.0" encoding="iso-8859-1"?>
<!-- Generator: Adobe Illustrator 18.0.0, SVG Export Plug-In . SVG Version: 6.00 Build 0)  -->
<!DOCTYPE svg PUBLIC "-//W3C//DTD SVG 1.1//EN" "http://www.w3.org/Graphics/SVG/1.1/DTD/svg11.dtd">
<svg version="1.1" id="Capa_1" xmlns="http://www.w3.org/2000/svg" xmlns:xlink="http://www.w3.org/1999/xlink" x="0px" y="0px"
	 viewBox="0 0 60 60" style="enable-background:new 0 0 60 60;" xml:space="preserve">
<g>
	<path d="M60,8V0H0v8h2v40H1c-0.552,0-1,0.447-1,1s0.448,1,1,1h1h27v2c0,0.047,0.021,0.088,0.027,0.134
		C27.293,52.571,26,54.131,26,56c0,2.206,1.794,4,4,4s4-1.794,4-4c0-1.869-1.293-3.429-3.027-3.866C30.979,52.088,31,52.047,31,52
		v-2h27h1c0.552,0,1-0.447,1-1s-0.448-1-1-1h-1V8H60z M32,56c0,1.103-0.897,2-2,2s-2-0.897-2-2s0.897-2,2-2S32,54.897,32,56z M2,2
		h56v4H2V2z M56,48H4V8h52V48z"/>
	<path d="M50,41H35c-0.552,0-1,0.447-1,1s0.448,1,1,1h15c0.552,0,1-0.447,1-1S50.552,41,50,41z"/>
	<path d="M10,36h10c0.552,0,1-0.447,1-1s-0.448-1-1-1H10c-0.552,0-1,0.447-1,1S9.448,36,10,36z"/>
	<path d="M30,36h15c0.552,0,1-0.447,1-1s-0.448-1-1-1H30c-0.552,0-1,0.447-1,1S29.448,36,30,36z"/>
	<path d="M24.29,34.29C24.11,34.479,24,34.729,24,35c0,0.26,0.11,0.52,0.29,0.71C24.48,35.89,24.74,36,25,36
		c0.26,0,0.52-0.11,0.71-0.29C25.89,35.52,26,35.26,26,35s-0.11-0.521-0.29-0.71C25.34,33.92,24.66,33.92,24.29,34.29z"/>
	<path d="M30,41H15c-0.552,0-1,0.447-1,1s0.448,1,1,1h15c0.552,0,1-0.447,1-1S30.552,41,30,41z"/>
	<path d="M10,43c0.26,0,0.52-0.11,0.71-0.29C10.89,42.52,11,42.26,11,42s-0.11-0.521-0.29-0.7c-0.37-0.38-1.04-0.38-1.42-0.01
		C9.11,41.479,9,41.74,9,42s0.11,0.52,0.29,0.71C9.48,42.89,9.74,43,10,43z"/>
	<path d="M49.29,34.29C49.11,34.479,49,34.729,49,35c0,0.26,0.11,0.52,0.29,0.71C49.48,35.89,49.74,36,50,36
		c0.26,0,0.52-0.11,0.71-0.29C50.89,35.52,51,35.26,51,35s-0.11-0.521-0.29-0.71C50.34,33.92,49.67,33.92,49.29,34.29z"/>
	<path d="M50,20H35c-0.552,0-1,0.447-1,1s0.448,1,1,1h15c0.552,0,1-0.447,1-1S50.552,20,50,20z"/>
	<path d="M50,27H40c-0.552,0-1,0.447-1,1s0.448,1,1,1h10c0.552,0,1-0.447,1-1S50.552,27,50,27z"/>
	<path d="M30,29h2c0.552,0,1-0.447,1-1s-0.448-1-1-1h-2c-0.552,0-1,0.447-1,1S29.448,29,30,29z"/>
	<path d="M30,15h15c0.552,0,1-0.447,1-1s-0.448-1-1-1H30c-0.552,0-1,0.447-1,1S29.448,15,30,15z"/>
	<path d="M50,15c0.26,0,0.52-0.11,0.71-0.29C50.9,14.52,51,14.26,51,14s-0.1-0.521-0.29-0.71c-0.38-0.37-1.05-0.37-1.42,0
		C49.11,13.479,49,13.74,49,14s0.11,0.52,0.29,0.71C49.48,14.89,49.74,15,50,15z"/>
	<path d="M30.29,20.29C30.11,20.479,30,20.729,30,21c0,0.26,0.11,0.52,0.29,0.71C30.48,21.89,30.74,22,31,22
		c0.26,0,0.52-0.11,0.71-0.29C31.89,21.52,32,21.26,32,21c0-0.271-0.11-0.521-0.29-0.71C31.33,19.92,30.67,19.92,30.29,20.29z"/>
	<path d="M35.29,27.29C35.11,27.479,35,27.74,35,28s0.11,0.52,0.29,0.71C35.48,28.89,35.74,29,36,29c0.26,0,0.52-0.11,0.71-0.29
		C36.89,28.52,37,28.26,37,28s-0.11-0.521-0.29-0.71C36.34,26.92,35.66,26.92,35.29,27.29z"/>
	<path d="M25,13H9v16h16V13z M23,27H11V15h12V27z"/>
</g>
<g>
</g>
<g>
</g>
<g>
</g>
<g>
</g>
<g>
</g>
<g>
</g>
<g>
</g>
<g>
</g>
<g>
</g>
<g>
</g>
<g>
</g>
<g>
</g>
<g>
</g>
<g>
</g>
<g>
</g>
</svg>
