<?xml version="1.0" encoding="iso-8859-1"?>
<!-- Generator: Adobe Illustrator 18.0.0, SVG Export Plug-In . SVG Version: 6.00 Build 0)  -->
<!DOCTYPE svg PUBLIC "-//W3C//DTD SVG 1.1//EN" "http://www.w3.org/Graphics/SVG/1.1/DTD/svg11.dtd">
<svg version="1.1" id="Capa_1" xmlns="http://www.w3.org/2000/svg" xmlns:xlink="http://www.w3.org/1999/xlink" x="0px" y="0px"
	 viewBox="0 0 60 60" style="enable-background:new 0 0 60 60;" xml:space="preserve">
<g>
	<path d="M46.439,4H31V1c0-0.553-0.447-1-1-1s-1,0.447-1,1v3H13.561C12.148,4,11,5.148,11,6.561v28.854l4,4l5-5l5,5l5-5l5,5l5-5l5,5
		l4-4V6.561C49,5.148,47.852,4,46.439,4z M47,34.586l-2,2l-5-5l-5,5l-5-5l-5,5l-5-5l-5,5l-2-2V6.561C13,6.251,13.251,6,13.561,6H29
		v2.101c-2.279,0.465-4,2.484-4,4.899c0,2.757,2.243,5,5,5s5-2.243,5-5c0-2.414-1.721-4.434-4-4.899V6h15.439
		C46.749,6,47,6.251,47,6.561V34.586z M30,14c0.553,0,1-0.447,1-1v-2.816c1.161,0.414,2,1.514,2,2.816c0,1.654-1.346,3-3,3
		s-3-1.346-3-3c0-1.302,0.839-2.402,2-2.816V13C29,13.553,29.447,14,30,14z"/>
	<path d="M40,41.586l-5,5l-5-5l-5,5l-5-5l-5,5l-4-4v14.854C11,58.852,12.148,60,13.561,60h32.879C47.852,60,49,58.852,49,57.439
		V42.586l-4,4L40,41.586z M47,57.439C47,57.749,46.749,58,46.439,58H13.561C13.251,58,13,57.749,13,57.439V47.414l2,2l5-5l5,5l5-5
		l5,5l5-5l5,5l2-2V57.439z"/>
</g>
<g>
</g>
<g>
</g>
<g>
</g>
<g>
</g>
<g>
</g>
<g>
</g>
<g>
</g>
<g>
</g>
<g>
</g>
<g>
</g>
<g>
</g>
<g>
</g>
<g>
</g>
<g>
</g>
<g>
</g>
</svg>
