<?xml version="1.0" encoding="iso-8859-1"?>
<!-- Generator: Adobe Illustrator 18.0.0, SVG Export Plug-In . SVG Version: 6.00 Build 0)  -->
<!DOCTYPE svg PUBLIC "-//W3C//DTD SVG 1.1//EN" "http://www.w3.org/Graphics/SVG/1.1/DTD/svg11.dtd">
<svg version="1.1" id="Capa_1" xmlns="http://www.w3.org/2000/svg" xmlns:xlink="http://www.w3.org/1999/xlink" x="0px" y="0px"
	 viewBox="0 0 59.997 59.997" style="enable-background:new 0 0 59.997 59.997;" xml:space="preserve">
<g>
	<path d="M19.519,21.05c-0.39,0.4-0.38,1.03,0.01,1.42c0.19,0.19,0.45,0.29,0.7,0.29c0.26,0,0.52-0.1,0.71-0.3
		c0.39-0.391,0.39-1.021,0-1.41C20.539,20.66,19.908,20.66,19.519,21.05z"/>
	<path d="M16.668,46.56c-0.39,0.391-0.39,1.03,0,1.42c0.19,0.19,0.45,0.29,0.7,0.29c0.26,0,0.52-0.1,0.71-0.29
		c0.39-0.39,0.39-1.029,0-1.42C17.688,46.17,17.059,46.17,16.668,46.56z"/>
	<path d="M16.708,23.89c-0.39,0.391-0.39,1.03,0,1.42c0.2,0.19,0.45,0.29,0.7,0.29c0.26,0,0.52-0.1,0.72-0.3
		c0.38-0.39,0.38-1.03-0.01-1.41C17.729,23.5,17.088,23.5,16.708,23.89z"/>
	<path d="M19.499,49.39c-0.39,0.391-0.39,1.03,0,1.42c0.19,0.19,0.45,0.29,0.7,0.29c0.26,0,0.52-0.1,0.71-0.29
		c0.39-0.39,0.39-1.029,0-1.42C20.519,49,19.888,49,19.499,49.39z"/>
	<path d="M25.118,52.28c-0.38,0.399-0.37,1.029,0.02,1.409c0.2,0.19,0.45,0.29,0.7,0.29c0.26,0,0.52-0.1,0.72-0.31
		c0.38-0.39,0.38-1.021-0.02-1.41C26.138,51.88,25.508,51.88,25.118,52.28z"/>
	<path d="M22.338,18.21c-0.39,0.399-0.39,1.03,0.01,1.42c0.19,0.189,0.44,0.29,0.7,0.29c0.26,0,0.51-0.101,0.71-0.3
		c0.39-0.391,0.39-1.021-0.01-1.41C23.358,17.819,22.729,17.819,22.338,18.21z"/>
	<path d="M22.328,52.22c-0.39,0.39-0.39,1.021,0,1.42c0.19,0.19,0.45,0.29,0.7,0.29c0.26,0,0.51-0.1,0.71-0.29
		c0.39-0.399,0.39-1.03,0-1.42S22.708,51.83,22.328,52.22z"/>
	<path d="M13.888,26.729c-0.39,0.391-0.39,1.03,0.01,1.42c0.19,0.19,0.44,0.29,0.7,0.29c0.26,0,0.51-0.1,0.71-0.3
		c0.39-0.39,0.39-1.02-0.01-1.41C14.908,26.34,14.278,26.34,13.888,26.729z"/>
	<path d="M8.178,38.08c-0.39,0.39-0.39,1.02,0,1.41c0.2,0.199,0.45,0.3,0.71,0.3c0.26,0,0.51-0.101,0.71-0.3
		c0.39-0.391,0.39-1.021,0-1.41C9.208,37.689,8.568,37.689,8.178,38.08z"/>
	<path d="M8.258,32.41c-0.39,0.399-0.39,1.029,0,1.42c0.2,0.189,0.45,0.29,0.71,0.29c0.25,0,0.51-0.101,0.7-0.301
		c0.39-0.39,0.39-1.02,0-1.409C9.278,32.02,8.638,32.02,8.258,32.41z"/>
	<path d="M5.438,35.25c-0.39,0.399-0.39,1.03,0,1.42c0.2,0.189,0.45,0.29,0.71,0.29c0.25,0,0.51-0.101,0.71-0.3
		c0.39-0.391,0.38-1.021-0.01-1.41C6.458,34.859,5.828,34.859,5.438,35.25z"/>
	<path d="M25.158,15.37c-0.39,0.399-0.39,1.029,0,1.42c0.2,0.189,0.45,0.29,0.7,0.29c0.26,0,0.52-0.101,0.72-0.3
		c0.38-0.391,0.38-1.021-0.01-1.41C26.178,14.979,25.539,14.979,25.158,15.37z"/>
	<path d="M11.008,40.91c-0.39,0.39-0.39,1.02,0,1.409c0.2,0.2,0.45,0.29,0.71,0.29c0.25,0,0.51-0.09,0.71-0.29
		c0.39-0.39,0.39-1.02,0-1.409C12.028,40.52,11.398,40.52,11.008,40.91z"/>
	<path d="M13.838,43.74c-0.39,0.39-0.39,1.02,0,1.409c0.2,0.2,0.45,0.29,0.71,0.29c0.25,0,0.51-0.09,0.7-0.29
		c0.39-0.39,0.39-1.02,0-1.409C14.858,43.35,14.229,43.35,13.838,43.74z"/>
	<path d="M11.068,29.569c-0.39,0.4-0.38,1.03,0.01,1.421c0.19,0.189,0.45,0.29,0.7,0.29c0.26,0,0.52-0.101,0.71-0.301
		c0.39-0.39,0.39-1.02-0.01-1.41C12.088,29.18,11.458,29.18,11.068,29.569z"/>
	<path d="M30.708,46.55c-0.39,0.39-0.38,1.03,0.02,1.41c0.19,0.189,0.44,0.28,0.69,0.28c0.26,0,0.52-0.101,0.72-0.301
		c0.38-0.39,0.38-1.029-0.02-1.409C31.729,46.14,31.088,46.149,30.708,46.55z"/>
	<path d="M44.658,32.22c-0.39,0.39-0.38,1.03,0.02,1.41c0.19,0.189,0.44,0.29,0.7,0.29c0.26,0,0.52-0.101,0.71-0.3
		c0.39-0.4,0.38-1.04-0.02-1.42C45.678,31.81,45.048,31.819,44.658,32.22z"/>
	<path d="M39.078,37.95c-0.39,0.399-0.38,1.029,0.02,1.409c0.19,0.19,0.44,0.29,0.69,0.29c0.26,0,0.52-0.1,0.72-0.3
		c0.39-0.399,0.38-1.04-0.02-1.42C40.098,37.54,39.458,37.55,39.078,37.95z"/>
	<path d="M41.868,35.09c-0.39,0.39-0.38,1.02,0.02,1.41c0.19,0.189,0.44,0.28,0.69,0.28c0.27,0,0.53-0.101,0.72-0.301
		c0.39-0.399,0.38-1.029-0.02-1.41C42.888,34.68,42.249,34.689,41.868,35.09z"/>
	<path d="M47.448,29.35c-0.39,0.4-0.38,1.03,0.02,1.42c0.19,0.19,0.44,0.28,0.7,0.28c0.26,0,0.52-0.1,0.71-0.3
		c0.39-0.4,0.38-1.03-0.02-1.42C48.468,28.95,47.828,28.96,47.448,29.35z"/>
	<circle cx="50.499" cy="19" r="1"/>
	<path d="M27.918,49.41c-0.39,0.399-0.38,1.029,0.02,1.42c0.19,0.189,0.44,0.279,0.69,0.279c0.26,0,0.52-0.1,0.72-0.3
		c0.38-0.399,0.38-1.029-0.02-1.41C28.928,49.01,28.298,49.02,27.918,49.41z"/>
	<circle cx="50.499" cy="27" r="1"/>
	<circle cx="50.499" cy="23" r="1"/>
	<path d="M33.499,43.68c-0.39,0.4-0.38,1.03,0.02,1.42c0.19,0.19,0.44,0.28,0.69,0.28c0.26,0,0.52-0.1,0.72-0.3
		c0.39-0.4,0.38-1.03-0.02-1.42C34.508,43.28,33.878,43.29,33.499,43.68z"/>
	<path d="M39.918,9c0-0.55-0.45-1-1-1c-0.56,0-1,0.45-1,1s0.44,1,1,1C39.468,10,39.918,9.55,39.918,9z"/>
	<path d="M27.968,12.53c-0.39,0.39-0.38,1.029,0.01,1.42c0.19,0.189,0.45,0.29,0.7,0.29c0.26,0,0.52-0.101,0.71-0.301
		c0.39-0.39,0.39-1.02,0-1.409C28.988,12.14,28.358,12.14,27.968,12.53z"/>
	<path d="M30.789,9.689c-0.39,0.4-0.39,1.03,0.01,1.42c0.19,0.19,0.45,0.29,0.7,0.29c0.26,0,0.51-0.1,0.71-0.3
		c0.39-0.39,0.39-1.02-0.01-1.41C31.809,9.3,31.178,9.3,30.789,9.689z"/>
	<path d="M34.918,8c-0.56,0-1,0.45-1,1s0.44,1,1,1c0.55,0,1-0.45,1-1S35.468,8,34.918,8z"/>
	<path d="M36.289,40.819c-0.39,0.391-0.38,1.03,0.02,1.41c0.19,0.19,0.44,0.28,0.69,0.28c0.26,0,0.52-0.1,0.72-0.3
		c0.38-0.391,0.38-1.03-0.02-1.41C37.309,40.41,36.668,40.42,36.289,40.819z"/>
	<path d="M59.206,0.293c-0.391-0.391-1.023-0.391-1.414,0L54.084,4H30.802L1.532,33.511c-0.667,0.666-1.034,1.553-1.034,2.495
		s0.367,1.829,1.034,2.495l20.466,20.466c0.687,0.687,1.588,1.03,2.491,1.03c0.906,0,1.814-0.346,2.508-1.04l28.501-29.271V5.414
		l3.707-3.707C59.596,1.316,59.596,0.684,59.206,0.293z M53.499,28.874L25.574,57.553c-0.595,0.596-1.565,0.596-2.162,0
		L2.946,37.087c-0.289-0.289-0.448-0.673-0.448-1.081s0.159-0.792,0.451-1.084L31.635,6h20.45l-4.833,4.833
		C46.461,10.309,45.516,10,44.499,10c-2.757,0-5,2.243-5,5s2.243,5,5,5s5-2.243,5-5c0-1.017-0.309-1.962-0.833-2.753l4.833-4.833
		V28.874z M47.499,15c0,1.654-1.346,3-3,3s-3-1.346-3-3s1.346-3,3-3c0.462,0,0.894,0.114,1.285,0.301l-1.992,1.992
		c-0.391,0.391-0.391,1.023,0,1.414C43.987,15.902,44.243,16,44.499,16s0.512-0.098,0.707-0.293l1.992-1.992
		C47.385,14.106,47.499,14.538,47.499,15z"/>
</g>
<g>
</g>
<g>
</g>
<g>
</g>
<g>
</g>
<g>
</g>
<g>
</g>
<g>
</g>
<g>
</g>
<g>
</g>
<g>
</g>
<g>
</g>
<g>
</g>
<g>
</g>
<g>
</g>
<g>
</g>
</svg>
