<?xml version="1.0" encoding="iso-8859-1"?>
<!-- Generator: Adobe Illustrator 18.0.0, SVG Export Plug-In . SVG Version: 6.00 Build 0)  -->
<!DOCTYPE svg PUBLIC "-//W3C//DTD SVG 1.1//EN" "http://www.w3.org/Graphics/SVG/1.1/DTD/svg11.dtd">
<svg version="1.1" id="Capa_1" xmlns="http://www.w3.org/2000/svg" xmlns:xlink="http://www.w3.org/1999/xlink" x="0px" y="0px"
	 viewBox="0 0 60 60" style="enable-background:new 0 0 60 60;" xml:space="preserve">
<g>
	<path d="M46.439,4H31V1c0-0.553-0.448-1-1-1s-1,0.447-1,1v3H13.561C12.148,4,11,5.148,11,6.561v50.879
		C11,58.852,12.148,60,13.561,60h32.879C47.852,60,49,58.852,49,57.439V6.561C49,5.148,47.852,4,46.439,4z M13.561,6H29v2.101
		c-2.279,0.465-4,2.484-4,4.899c0,2.757,2.243,5,5,5s5-2.243,5-5c0-2.414-1.721-4.434-4-4.899V6h15.439C46.749,6,47,6.251,47,6.561
		V50H13V6.561C13,6.251,13.251,6,13.561,6z M30,14c0.552,0,1-0.447,1-1v-2.816c1.161,0.414,2,1.514,2,2.816c0,1.654-1.346,3-3,3
		s-3-1.346-3-3c0-1.302,0.839-2.402,2-2.816V13C29,13.553,29.448,14,30,14z M46.439,58H13.561C13.251,58,13,57.749,13,57.439V52h34
		v5.439C47,57.749,46.749,58,46.439,58z"/>
	<path d="M29,39.122V40c0,0.553,0.448,1,1,1s1-0.447,1-1v-0.882c1.091-0.222,2.085-0.801,2.819-1.668
		c0.611-0.724,0.893-1.648,0.793-2.605c-0.103-0.978-0.606-1.885-1.383-2.488L31,30.623v-5.438c1.161,0.414,2,1.514,2,2.816
		c0,0.553,0.448,1,1,1s1-0.447,1-1c0-2.414-1.721-4.434-4-4.899V22c0-0.553-0.448-1-1-1s-1,0.447-1,1v1.104
		c-1.091,0.222-2.085,0.801-2.818,1.668c-0.611,0.722-0.894,1.646-0.794,2.603c0.102,0.979,0.606,1.887,1.383,2.491L29,31.6v5.438
		c-1.161-0.414-2-1.514-2-2.816c0-0.553-0.448-1-1-1s-1,0.447-1,1C25,36.637,26.721,38.657,29,39.122z M27.999,28.288
		c-0.35-0.272-0.576-0.681-0.622-1.12c-0.042-0.409,0.075-0.801,0.331-1.104c0.348-0.411,0.798-0.699,1.292-0.875v3.877
		L27.999,28.288z M32.001,33.935c0.349,0.271,0.576,0.68,0.622,1.118c0.043,0.41-0.075,0.803-0.331,1.105
		c-0.348,0.411-0.798,0.699-1.292,0.875v-3.878L32.001,33.935z"/>
	<path d="M22,45h16c0.552,0,1-0.447,1-1s-0.448-1-1-1H22c-0.552,0-1,0.447-1,1S21.448,45,22,45z"/>
	<path d="M22,48h16c0.552,0,1-0.447,1-1s-0.448-1-1-1H22c-0.552,0-1,0.447-1,1S21.448,48,22,48z"/>
</g>
<g>
</g>
<g>
</g>
<g>
</g>
<g>
</g>
<g>
</g>
<g>
</g>
<g>
</g>
<g>
</g>
<g>
</g>
<g>
</g>
<g>
</g>
<g>
</g>
<g>
</g>
<g>
</g>
<g>
</g>
</svg>
