<?xml version="1.0" encoding="iso-8859-1"?>
<!-- Generator: Adobe Illustrator 18.0.0, SVG Export Plug-In . SVG Version: 6.00 Build 0)  -->
<!DOCTYPE svg PUBLIC "-//W3C//DTD SVG 1.1//EN" "http://www.w3.org/Graphics/SVG/1.1/DTD/svg11.dtd">
<svg version="1.1" id="Capa_1" xmlns="http://www.w3.org/2000/svg" xmlns:xlink="http://www.w3.org/1999/xlink" x="0px" y="0px"
	 viewBox="0 0 59.998 59.998" style="enable-background:new 0 0 59.998 59.998;" xml:space="preserve">
<g>
	<path d="M59.206,0.293c-0.391-0.391-1.023-0.391-1.414,0L54.085,4H30.802L1.532,33.511c-0.666,0.666-1.033,1.553-1.033,2.495
		s0.367,1.829,1.033,2.495l20.466,20.466c0.687,0.687,1.588,1.031,2.491,1.031c0.907,0,1.814-0.347,2.509-1.041l28.501-29.271V5.414
		l3.707-3.707C59.597,1.316,59.597,0.684,59.206,0.293z M53.499,28.874L25.574,57.553c-0.596,0.596-1.566,0.596-2.162,0
		L2.946,37.087c-0.596-0.596-0.596-1.566,0.003-2.165L31.636,6h20.449l-4.833,4.833C46.461,10.309,45.516,10,44.499,10
		c-2.757,0-5,2.243-5,5s2.243,5,5,5s5-2.243,5-5c0-1.017-0.309-1.962-0.833-2.753l4.833-4.833V28.874z M47.499,15
		c0,1.654-1.346,3-3,3s-3-1.346-3-3s1.346-3,3-3c0.462,0,0.894,0.114,1.285,0.301l-1.992,1.992c-0.391,0.391-0.391,1.023,0,1.414
		C43.987,15.902,44.243,16,44.499,16s0.512-0.098,0.707-0.293l1.992-1.992C47.386,14.106,47.499,14.538,47.499,15z"/>
	<path d="M42.246,31.281L31.64,41.888c-0.391,0.391-0.391,1.023,0,1.414c0.195,0.195,0.451,0.293,0.707,0.293
		s0.512-0.098,0.707-0.293L43.66,32.695c0.391-0.391,0.391-1.023,0-1.414S42.637,30.891,42.246,31.281z"/>
	<path d="M45.779,27.74c-0.181,0.189-0.29,0.449-0.29,0.71c0,0.27,0.109,0.529,0.29,0.71c0.189,0.189,0.449,0.29,0.71,0.29
		c0.26,0,0.52-0.101,0.699-0.29c0.19-0.181,0.301-0.44,0.301-0.71c0-0.261-0.11-0.521-0.301-0.71
		C46.818,27.37,46.159,27.37,45.779,27.74z"/>
	<path d="M37.296,19.26c0.391-0.391,0.391-1.023,0-1.414c-0.391-0.391-1.023-0.391-1.414,0L25.275,28.453
		c-0.391,0.391-0.391,1.023,0,1.414c0.195,0.195,0.451,0.293,0.707,0.293s0.512-0.098,0.707-0.293L37.296,19.26z"/>
	<path d="M33.761,31.281c0.195,0.195,0.451,0.293,0.707,0.293s0.512-0.098,0.707-0.293l7.071-7.071c0.391-0.391,0.391-1.023,0-1.414
		s-1.023-0.391-1.414,0l-7.071,7.071C33.37,30.258,33.37,30.891,33.761,31.281z"/>
	<path d="M28.104,35.523l-1.414,1.414c-0.391,0.391-0.391,1.023,0,1.414c0.195,0.195,0.451,0.293,0.707,0.293
		s0.512-0.098,0.707-0.293l1.414-1.414c0.391-0.391,0.391-1.023,0-1.414S28.494,35.133,28.104,35.523z"/>
	<path d="M17.497,28.745c0.256,0,0.512-0.098,0.707-0.293l10.606-10.606c0.391-0.391,0.391-1.023,0-1.414s-1.023-0.391-1.414,0
		L16.79,27.038c-0.391,0.391-0.391,1.023,0,1.414C16.985,28.647,17.241,28.745,17.497,28.745z"/>
	<path d="M31.639,14.6c0.26,0,0.521-0.1,0.71-0.29c0.181-0.189,0.29-0.439,0.29-0.71c0-0.26-0.109-0.52-0.3-0.71
		c-0.37-0.37-1.03-0.37-1.41,0.01c-0.18,0.181-0.29,0.44-0.29,0.7s0.11,0.521,0.29,0.71C31.119,14.5,31.379,14.6,31.639,14.6z"/>
	<path d="M22.449,31.28c-0.19,0.189-0.29,0.439-0.29,0.71c0,0.27,0.1,0.52,0.29,0.699c0.18,0.19,0.439,0.301,0.71,0.301
		c0.26,0,0.52-0.11,0.699-0.29c0.19-0.19,0.301-0.45,0.301-0.71c0-0.261-0.11-0.521-0.301-0.71
		C23.489,30.91,22.818,30.91,22.449,31.28z"/>
	<path d="M32.349,34.109c0.181-0.18,0.29-0.439,0.29-0.71c0-0.26-0.109-0.52-0.29-0.71c-0.38-0.37-1.04-0.37-1.42,0
		c-0.18,0.19-0.29,0.45-0.29,0.71c0,0.271,0.11,0.521,0.29,0.71c0.19,0.19,0.45,0.29,0.71,0.29S32.159,34.3,32.349,34.109z"/>
	<path d="M24.651,47.627c0.615-0.929,0.909-2.041,0.814-3.172c-0.078-0.944-0.533-1.797-1.28-2.403
		c-0.765-0.619-1.769-0.903-2.738-0.781l-2.802,0.35l-3.846-3.846c1.114-0.529,2.485-0.344,3.406,0.577
		c0.391,0.391,1.023,0.391,1.414,0s0.391-1.023,0-1.414c-1.707-1.707-4.352-1.918-6.293-0.635l-0.779-0.779
		c-0.391-0.391-1.023-0.391-1.414,0s-0.391,1.023,0,1.414l0.781,0.781c-0.614,0.928-0.908,2.041-0.813,3.172
		c0.078,0.943,0.533,1.797,1.279,2.402c0.765,0.619,1.763,0.904,2.739,0.783l2.802-0.35l3.836,3.836
		c-1.111,0.501-2.51,0.318-3.396-0.568c-0.391-0.391-1.023-0.391-1.414,0c-0.391,0.39-0.391,1.023,0,1.414
		c0.943,0.944,2.199,1.465,3.535,1.465c0.996,0,1.946-0.291,2.757-0.829l0.622,0.622c0.195,0.195,0.451,0.293,0.707,0.293
		s0.512-0.098,0.707-0.293c0.391-0.391,0.391-1.023,0-1.414L24.651,47.627z M14.871,42.092c-0.438,0.054-0.889-0.072-1.231-0.352
		c-0.319-0.26-0.514-0.62-0.547-1.016c-0.044-0.536,0.07-1.059,0.295-1.532l2.742,2.742L14.871,42.092z M21.695,43.255
		c0.433-0.059,0.886,0.072,1.229,0.351c0.32,0.26,0.515,0.62,0.548,1.016c0.044,0.536-0.07,1.059-0.296,1.532l-2.741-2.741
		L21.695,43.255z"/>
</g>
<g>
</g>
<g>
</g>
<g>
</g>
<g>
</g>
<g>
</g>
<g>
</g>
<g>
</g>
<g>
</g>
<g>
</g>
<g>
</g>
<g>
</g>
<g>
</g>
<g>
</g>
<g>
</g>
<g>
</g>
</svg>
