<?xml version="1.0" encoding="iso-8859-1"?>
<!-- Generator: Adobe Illustrator 18.0.0, SVG Export Plug-In . SVG Version: 6.00 Build 0)  -->
<!DOCTYPE svg PUBLIC "-//W3C//DTD SVG 1.1//EN" "http://www.w3.org/Graphics/SVG/1.1/DTD/svg11.dtd">
<svg version="1.1" id="Capa_1" xmlns="http://www.w3.org/2000/svg" xmlns:xlink="http://www.w3.org/1999/xlink" x="0px" y="0px"
	 viewBox="0 0 59.998 59.998" style="enable-background:new 0 0 59.998 59.998;" xml:space="preserve">
<g>
	<path d="M59.704,0.293c-0.391-0.391-1.023-0.391-1.414,0L54.583,4H31.297l-15.3,15.591V26h5.006l0.038,7h5.956v7h6v5.003
		l8.201-0.024l14.799-15.294V5.414l3.707-3.707C60.095,1.316,60.095,0.684,59.704,0.293z M53.997,28.876L40.349,42.98l-5.352,0.017
		V38h-6v-7H23.03l-0.038-7h-4.994v-3.591L32.137,6h20.446l-4.833,4.833C46.96,10.309,46.015,10,44.997,10c-2.757,0-5,2.243-5,5
		s2.243,5,5,5s5-2.243,5-5c0-1.017-0.309-1.962-0.833-2.753l4.833-4.833V28.876z M47.997,15c0,1.654-1.346,3-3,3s-3-1.346-3-3
		s1.346-3,3-3c0.462,0,0.894,0.114,1.285,0.301l-1.992,1.992c-0.391,0.391-0.391,1.023,0,1.414C44.486,15.902,44.741,16,44.997,16
		s0.512-0.098,0.707-0.293l1.992-1.992C47.884,14.106,47.997,14.538,47.997,15z"/>
	<path d="M27.997,44h-6v-7h-6v-7.026h-6v-5.377L1.031,33.67c-1.376,1.376-1.376,3.614,0.018,5.007l21.289,20.29
		c0.688,0.688,1.59,1.031,2.493,1.031c0.904,0,1.811-0.345,2.501-1.035l9.785-9.897h-9.119V44z M32.327,51.065l-6.414,6.487
		c-0.596,0.597-1.566,0.594-2.18-0.017L2.445,37.246C1.849,36.65,1.849,35.68,2.448,35.08l5.549-5.614v2.508h6V39h6v7h6v5.065
		H32.327z"/>
</g>
<g>
</g>
<g>
</g>
<g>
</g>
<g>
</g>
<g>
</g>
<g>
</g>
<g>
</g>
<g>
</g>
<g>
</g>
<g>
</g>
<g>
</g>
<g>
</g>
<g>
</g>
<g>
</g>
<g>
</g>
</svg>
