<?xml version="1.0" encoding="iso-8859-1"?>
<!-- Generator: Adobe Illustrator 18.0.0, SVG Export Plug-In . SVG Version: 6.00 Build 0)  -->
<!DOCTYPE svg PUBLIC "-//W3C//DTD SVG 1.1//EN" "http://www.w3.org/Graphics/SVG/1.1/DTD/svg11.dtd">
<svg version="1.1" id="Capa_1" xmlns="http://www.w3.org/2000/svg" xmlns:xlink="http://www.w3.org/1999/xlink" x="0px" y="0px"
	 viewBox="0 0 59.997 59.997" style="enable-background:new 0 0 59.997 59.997;" xml:space="preserve">
<g>
	<path d="M15.663,27.495c-0.391-0.391-1.023-0.391-1.414,0L5.764,35.98c-0.391,0.391-0.391,1.023,0,1.414
		c0.195,0.195,0.451,0.293,0.707,0.293s0.512-0.098,0.707-0.293l8.485-8.485C16.054,28.519,16.054,27.886,15.663,27.495z"/>
	<path d="M12.127,35.273c0.195,0.195,0.451,0.293,0.707,0.293s0.512-0.098,0.707-0.293l4.243-4.243c0.391-0.391,0.391-1.023,0-1.414
		s-1.023-0.391-1.414,0l-4.243,4.243C11.737,34.25,11.737,34.883,12.127,35.273z"/>
	<path d="M20.613,32.445c-0.391-0.391-1.023-0.391-1.414,0l-4.243,4.242c-0.391,0.391-0.391,1.023,0,1.414
		c0.195,0.195,0.451,0.293,0.707,0.293s0.512-0.098,0.707-0.293l4.243-4.242C21.003,33.469,21.003,32.836,20.613,32.445z"/>
	<path d="M17.078,40.223c0.195,0.195,0.451,0.293,0.707,0.293s0.512-0.098,0.707-0.293l4.242-4.242c0.391-0.391,0.391-1.023,0-1.414
		s-1.023-0.391-1.414,0l-4.242,4.242C16.687,39.199,16.687,39.832,17.078,40.223z"/>
	<path d="M20.613,43.759c0.195,0.195,0.451,0.293,0.707,0.293s0.512-0.098,0.707-0.293l4.243-4.243c0.391-0.391,0.391-1.023,0-1.414
		s-1.023-0.391-1.414,0l-4.243,4.243C20.222,42.735,20.222,43.368,20.613,43.759z"/>
	<path d="M22.734,45.88c0.195,0.195,0.451,0.293,0.707,0.293s0.512-0.098,0.707-0.293l4.243-4.243c0.391-0.391,0.391-1.023,0-1.414
		s-1.023-0.391-1.414,0l-4.243,4.243C22.344,44.856,22.344,45.489,22.734,45.88z"/>
	<path d="M24.855,48.001c0.195,0.195,0.451,0.293,0.707,0.293s0.512-0.098,0.707-0.293l4.243-4.242c0.391-0.391,0.391-1.023,0-1.414
		s-1.023-0.391-1.414,0l-4.243,4.242C24.465,46.978,24.465,47.61,24.855,48.001z"/>
	<path d="M31.22,44.466l-8.485,8.485c-0.391,0.391-0.391,1.023,0,1.414c0.195,0.195,0.451,0.293,0.707,0.293
		s0.512-0.098,0.707-0.293l8.485-8.485c0.391-0.391,0.391-1.023,0-1.414S31.61,44.075,31.22,44.466z"/>
	<path d="M59.206,0.293c-0.391-0.391-1.023-0.391-1.414,0L54.084,4H30.802L1.532,33.511c-0.667,0.666-1.034,1.553-1.034,2.495
		s0.367,1.829,1.034,2.495l20.466,20.466c0.687,0.687,1.588,1.03,2.491,1.03c0.906,0,1.814-0.346,2.508-1.04l28.501-29.271V5.414
		l3.707-3.707C59.596,1.316,59.596,0.684,59.206,0.293z M53.499,28.874L25.574,57.553c-0.595,0.596-1.565,0.596-2.162,0
		L2.946,37.087c-0.289-0.289-0.448-0.673-0.448-1.081s0.159-0.792,0.451-1.084L31.635,6h20.45l-4.833,4.833
		C46.461,10.309,45.516,10,44.499,10c-2.757,0-5,2.243-5,5s2.243,5,5,5s5-2.243,5-5c0-1.017-0.309-1.962-0.833-2.753l4.833-4.833
		V28.874z M47.499,15c0,1.654-1.346,3-3,3s-3-1.346-3-3s1.346-3,3-3c0.462,0,0.894,0.114,1.285,0.301l-1.992,1.992
		c-0.391,0.391-0.391,1.023,0,1.414C43.987,15.902,44.243,16,44.499,16s0.512-0.098,0.707-0.293l1.992-1.992
		C47.385,14.106,47.499,14.538,47.499,15z"/>
	<path d="M9.299,36.688l-0.707,0.707c-0.391,0.391-0.391,1.023,0,1.414c0.195,0.195,0.451,0.293,0.707,0.293
		s0.512-0.098,0.707-0.293l0.707-0.707c0.391-0.391,0.391-1.023,0-1.414S9.69,36.297,9.299,36.688z"/>
	<path d="M13.542,39.516c-0.391-0.391-1.023-0.391-1.414,0l-0.707,0.707c-0.391,0.391-0.391,1.023,0,1.414
		c0.195,0.195,0.451,0.293,0.707,0.293s0.512-0.098,0.707-0.293l0.707-0.707C13.932,40.539,13.932,39.906,13.542,39.516z"/>
	<path d="M14.249,41.638l-0.707,0.707c-0.391,0.391-0.391,1.023,0,1.414c0.195,0.195,0.451,0.293,0.707,0.293
		s0.512-0.098,0.707-0.293l0.707-0.707c0.391-0.391,0.391-1.023,0-1.414S14.64,41.247,14.249,41.638z"/>
	<path d="M19.199,45.173c-0.391-0.391-1.023-0.391-1.414,0l-0.707,0.707c-0.391,0.391-0.391,1.023,0,1.414
		c0.195,0.195,0.451,0.293,0.707,0.293s0.512-0.098,0.707-0.293l0.707-0.707C19.589,46.196,19.589,45.563,19.199,45.173z"/>
	<path d="M21.32,47.294c-0.391-0.391-1.023-0.391-1.414,0l-0.707,0.707c-0.391,0.391-0.391,1.023,0,1.414
		c0.195,0.195,0.451,0.293,0.707,0.293s0.512-0.098,0.707-0.293l0.707-0.707C21.71,48.317,21.71,47.685,21.32,47.294z"/>
	<path d="M23.442,50.829c0.39-0.391,0.39-1.024,0-1.414c-0.391-0.391-1.024-0.391-1.415,0l-0.708,0.708
		c-0.39,0.391-0.39,1.024,0,1.414c0.195,0.195,0.451,0.293,0.707,0.293s0.512-0.098,0.708-0.293L23.442,50.829z"/>
</g>
<g>
</g>
<g>
</g>
<g>
</g>
<g>
</g>
<g>
</g>
<g>
</g>
<g>
</g>
<g>
</g>
<g>
</g>
<g>
</g>
<g>
</g>
<g>
</g>
<g>
</g>
<g>
</g>
<g>
</g>
</svg>
