<?xml version="1.0" encoding="iso-8859-1"?>
<!-- Generator: Adobe Illustrator 18.0.0, SVG Export Plug-In . SVG Version: 6.00 Build 0)  -->
<!DOCTYPE svg PUBLIC "-//W3C//DTD SVG 1.1//EN" "http://www.w3.org/Graphics/SVG/1.1/DTD/svg11.dtd">
<svg version="1.1" id="Capa_1" xmlns="http://www.w3.org/2000/svg" xmlns:xlink="http://www.w3.org/1999/xlink" x="0px" y="0px"
	 viewBox="0 0 59.29 59.29" style="enable-background:new 0 0 59.29 59.29;" xml:space="preserve">
<g>
	<path d="M59.29,17.145H50v-4H24.693l-3-8H0v49h50v-0.873L59.29,17.145z M56.71,19.145L50,45.241V19.145H56.71z M2,7.145h18.307l3,8
		H48v2v35H2V7.145z"/>
	<path d="M6,48.145h24v-15H6V48.145z M8,35.145h20v11H8V35.145z"/>
	<path d="M20,42.145h-9c-0.553,0-1,0.447-1,1s0.447,1,1,1h9c0.553,0,1-0.447,1-1S20.553,42.145,20,42.145z"/>
	<path d="M11,39.145h4c0.553,0,1-0.447,1-1s-0.447-1-1-1h-4c-0.553,0-1,0.447-1,1S10.447,39.145,11,39.145z"/>
	<path d="M25,37.145h-2c-0.553,0-1,0.447-1,1s0.447,1,1,1h2c0.553,0,1-0.447,1-1S25.553,37.145,25,37.145z"/>
	<path d="M23.29,42.435c-0.181,0.189-0.29,0.439-0.29,0.71c0,0.27,0.109,0.52,0.29,0.7c0.189,0.189,0.439,0.3,0.71,0.3
		c0.26,0,0.52-0.11,0.71-0.29c0.18-0.19,0.29-0.45,0.29-0.71s-0.11-0.521-0.29-0.71C24.34,42.065,23.66,42.065,23.29,42.435z"/>
	<path d="M19,39.145c0.26,0,0.52-0.11,0.71-0.29c0.18-0.19,0.29-0.45,0.29-0.71c0-0.271-0.11-0.521-0.29-0.71
		c-0.37-0.37-1.061-0.37-1.42,0c-0.181,0.189-0.29,0.45-0.29,0.71s0.109,0.52,0.29,0.71C18.479,39.035,18.74,39.145,19,39.145z"/>
</g>
<g>
</g>
<g>
</g>
<g>
</g>
<g>
</g>
<g>
</g>
<g>
</g>
<g>
</g>
<g>
</g>
<g>
</g>
<g>
</g>
<g>
</g>
<g>
</g>
<g>
</g>
<g>
</g>
<g>
</g>
</svg>
