<?xml version="1.0" encoding="iso-8859-1"?>
<!-- Generator: Adobe Illustrator 18.0.0, SVG Export Plug-In . SVG Version: 6.00 Build 0)  -->
<!DOCTYPE svg PUBLIC "-//W3C//DTD SVG 1.1//EN" "http://www.w3.org/Graphics/SVG/1.1/DTD/svg11.dtd">
<svg version="1.1" id="Capa_1" xmlns="http://www.w3.org/2000/svg" xmlns:xlink="http://www.w3.org/1999/xlink" x="0px" y="0px"
	 viewBox="0 0 60 60" style="enable-background:new 0 0 60 60;" xml:space="preserve">
<g>
	<path d="M58.057,6.083H47.298l-8.633-4.855c-0.345-0.193-0.77-0.19-1.112,0.009C37.212,1.435,37,1.804,37,2.2v0.883h-8v3H1.943
		C0.872,6.083,0,6.955,0,8.026v44.113c0,1.071,0.872,1.943,1.943,1.943H2v4h10v-4h17v3h8v0.716c0,0.396,0.212,0.765,0.554,0.965
		c0.173,0.102,0.368,0.152,0.563,0.152c0.189,0,0.379-0.048,0.548-0.143l8.339-4.69H48v4h10v-4h0.057
		c1.071,0,1.943-0.872,1.943-1.943V8.026C60,6.955,59.128,6.083,58.057,6.083z M10,56.083H4v-2h6V56.083z M12,52.119v-0.036H2v0.057
		L1.943,8.083H29v2H6.346C5.053,10.083,4,11.135,4,12.428v35.309c0,0.673,0.289,1.277,0.746,1.705l-0.285,0.64h1.885h13.115h4.078
		H29v2.002L12,52.119z M29,21.083h-7.649l-4.001,9h-1.999l-4.001,9H9.351L6,46.62V12.428c0-0.19,0.155-0.346,0.346-0.346H29V21.083z
		 M10.649,41.083h6.701l3.055,6.875l-0.055,0.125H7.539L10.649,41.083z M16.649,32.083h6.701l3.11,7h-2.11h-5.701h-5.11
		L16.649,32.083z M23.462,41.083L21.5,45.495l-1.962-4.413H23.462z M22.595,47.958l3.055-6.875H29v7h-6.35L22.595,47.958z
		 M28.65,39.083l-3.112-7H29v7H28.65z M29,30.083h-4.351h-5.11l3.11-7H29V30.083z M31,55.083v-1v-4v-11v-7v-11v-11v-4v-1h6v50H31z
		 M39,3.71l4.219,2.373h-0.147L53,11.668v3.415c-0.553,0-1,0.447-1,1c0,0.553,0.447,1,1,1v1c-0.553,0-1,0.447-1,1s0.447,1,1,1v20
		c-0.553,0-1,0.447-1,1s0.447,1,1,1v1c-0.553,0-1,0.447-1,1s0.447,1,1,1v3.332L39,56.29V3.71z M56,56.083h-6v-2h6V56.083z
		 M58,52.083h-7.294L55,49.668v-0.083v-4.502h1c0.553,0,1-0.447,1-1s-0.447-1-1-1h-1v-1h1c0.553,0,1-0.447,1-1s-0.447-1-1-1h-1v-20
		h1c0.553,0,1-0.447,1-1s-0.447-1-1-1h-1v-1h1c0.553,0,1-0.447,1-1c0-0.553-0.447-1-1-1h-1v-4.585v-0.083l-4.182-2.352L58,8.026
		l0.057,44.057H58z"/>
	<circle cx="34" cy="6.999" r="1"/>
	<circle cx="34" cy="12.999" r="1"/>
	<circle cx="34" cy="46.999" r="1"/>
	<circle cx="34" cy="40.999" r="1"/>
	<circle cx="34" cy="18.999" r="1"/>
	<circle cx="34" cy="52.999" r="1"/>
	<path d="M41,35c-0.553,0-1,0.447-1,1s0.447,1,1,1c2.212,0,4.011-1.799,4.011-4.011V27.01C45.011,24.798,43.212,23,41,23
		c-0.553,0-1,0.447-1,1s0.447,1,1,1c1.108,0,2.011,0.902,2.011,2.011v5.979C43.011,34.097,42.108,35,41,35z"/>
	<path d="M41,19c-0.553,0-1,0.447-1,1s0.447,1,1,1c3.314,0,6.011,2.696,6.011,6.011v5.979C47.011,36.303,44.314,39,41,39
		c-0.553,0-1,0.447-1,1s0.447,1,1,1c4.417,0,8.011-3.594,8.011-8.011V27.01C49.011,22.593,45.417,19,41,19z"/>
</g>
<g>
</g>
<g>
</g>
<g>
</g>
<g>
</g>
<g>
</g>
<g>
</g>
<g>
</g>
<g>
</g>
<g>
</g>
<g>
</g>
<g>
</g>
<g>
</g>
<g>
</g>
<g>
</g>
<g>
</g>
</svg>
