<?xml version="1.0" encoding="iso-8859-1"?>
<!-- Generator: Adobe Illustrator 18.0.0, SVG Export Plug-In . SVG Version: 6.00 Build 0)  -->
<!DOCTYPE svg PUBLIC "-//W3C//DTD SVG 1.1//EN" "http://www.w3.org/Graphics/SVG/1.1/DTD/svg11.dtd">
<svg version="1.1" id="Capa_1" xmlns="http://www.w3.org/2000/svg" xmlns:xlink="http://www.w3.org/1999/xlink" x="0px" y="0px"
	 viewBox="0 0 60 60" style="enable-background:new 0 0 60 60;" xml:space="preserve">
<g>
	<path d="M60,4H0v48h2v4h10v-4h36v4h10v-4h2V4z M10,54H4v-2h6V54z M56,54h-6v-2h6V54z M58,50H48H12H2V6h56V50z"/>
	<path d="M6.008,48h47.984C55.1,48,56,47.1,56,45.992V43c0.553,0,1-0.447,1-1s-0.447-1-1-1v-1c0.553,0,1-0.447,1-1s-0.447-1-1-1V18
		c0.553,0,1-0.447,1-1s-0.447-1-1-1v-1c0.553,0,1-0.447,1-1s-0.447-1-1-1v-2.992C56,8.9,55.1,8,53.992,8H6.008C4.9,8,4,8.9,4,10.008
		v35.984C4,47.1,4.9,48,6.008,48z M6.008,10L54,10.008L54,13h-1c-0.553,0-1,0.447-1,1s0.447,1,1,1h0.999l0,1H53
		c-0.553,0-1,0.447-1,1s0.447,1,1,1h0.999l-0.003,20H53c-0.553,0-1,0.447-1,1s0.447,1,1,1h0.996l0,1H53c-0.553,0-1,0.447-1,1
		s0.447,1,1,1h0.996l0,3c0,0-0.001,0-0.003,0L6,45.992L6.008,10z"/>
	<path d="M45.506,19.545c-0.009-0.009-0.011-0.021-0.02-0.031s-0.021-0.012-0.03-0.02C43.284,17.336,40.296,16,37,16
		s-6.284,1.336-8.455,3.494c-0.009,0.009-0.021,0.011-0.03,0.02s-0.012,0.021-0.02,0.031C26.336,21.716,25,24.704,25,28
		s1.336,6.284,3.494,8.455c0.009,0.009,0.011,0.021,0.02,0.031s0.021,0.012,0.03,0.02C30.716,38.664,33.704,40,37,40
		s6.284-1.336,8.455-3.494c0.009-0.009,0.021-0.011,0.03-0.02s0.012-0.021,0.02-0.031C47.664,34.284,49,31.296,49,28
		S47.664,21.716,45.506,19.545z M46,29h0.949c-0.2,2.008-0.998,3.842-2.211,5.324l-0.667-0.667c-0.391-0.391-1.023-0.391-1.414,0
		s-0.391,1.023,0,1.414l0.667,0.667c-1.482,1.213-3.316,2.011-5.324,2.211V37c0-0.553-0.447-1-1-1s-1,0.447-1,1v0.949
		c-2.008-0.2-3.842-0.998-5.324-2.211l0.667-0.667c0.391-0.391,0.391-1.023,0-1.414s-1.023-0.391-1.414,0l-0.667,0.667
		c-1.213-1.482-2.011-3.316-2.211-5.324H28c0.553,0,1-0.447,1-1s-0.447-1-1-1h-0.949c0.2-2.008,0.998-3.842,2.211-5.324l0.667,0.667
		c0.195,0.195,0.451,0.293,0.707,0.293s0.512-0.098,0.707-0.293c0.391-0.391,0.391-1.023,0-1.414l-0.667-0.667
		c1.482-1.213,3.316-2.011,5.324-2.211V19c0,0.553,0.447,1,1,1s1-0.447,1-1v-0.949c2.008,0.2,3.842,0.998,5.324,2.211l-0.667,0.667
		c-0.391,0.391-0.391,1.023,0,1.414c0.195,0.195,0.451,0.293,0.707,0.293s0.512-0.098,0.707-0.293l0.667-0.667
		c1.213,1.482,2.011,3.316,2.211,5.324H46c-0.553,0-1,0.447-1,1S45.447,29,46,29z"/>
	<path d="M37,24c-2.206,0-4,1.794-4,4s1.794,4,4,4s4-1.794,4-4S39.206,24,37,24z M37,30c-1.103,0-2-0.897-2-2s0.897-2,2-2
		s2,0.897,2,2S38.103,30,37,30z"/>
	<path d="M16,18c-0.553,0-1,0.447-1,1v1c-0.553,0-1,0.447-1,1s0.447,1,1,1v14c-0.553,0-1,0.447-1,1s0.447,1,1,1v1
		c0,0.553,0.447,1,1,1s1-0.447,1-1V19C17,18.447,16.553,18,16,18z"/>
	<path d="M13,21c0-0.553-0.447-1-1-1v-1c0-0.553-0.447-1-1-1s-1,0.447-1,1v20c0,0.553,0.447,1,1,1s1-0.447,1-1v-1
		c0.553,0,1-0.447,1-1s-0.447-1-1-1V22C12.553,22,13,21.553,13,21z"/>
</g>
<g>
</g>
<g>
</g>
<g>
</g>
<g>
</g>
<g>
</g>
<g>
</g>
<g>
</g>
<g>
</g>
<g>
</g>
<g>
</g>
<g>
</g>
<g>
</g>
<g>
</g>
<g>
</g>
<g>
</g>
</svg>
