<?xml version="1.0" encoding="iso-8859-1"?>
<!-- Generator: Adobe Illustrator 19.0.0, SVG Export Plug-In . SVG Version: 6.00 Build 0)  -->
<svg version="1.1" id="Layer_1" xmlns="http://www.w3.org/2000/svg" xmlns:xlink="http://www.w3.org/1999/xlink" x="0px" y="0px"
	 viewBox="0 0 512 512" style="enable-background:new 0 0 512 512;" xml:space="preserve">
<g>
	<g>
		<g>
			<path d="M496.64,300.373c2.56-14.507,4.267-29.013,4.267-43.52c0-133.973-109.227-243.2-243.2-243.2
				c-14.507,0-29.013,1.707-43.52,4.267C192.853,5.973,168.96,0,144.213,0C64.853,0,0,64.853,0,144.213
				c0,23.893,5.973,48.64,17.92,69.973c-2.56,14.507-4.267,29.013-4.267,43.52c0,133.973,109.227,243.2,243.2,243.2
				c14.507,0,29.013-1.707,43.52-4.267c18.773,10.24,41.813,15.36,69.973,15.36C449.707,512,512,449.707,512,370.347
				C512,342.187,506.88,319.147,496.64,300.373z M370.347,494.933c-26.453,0-46.933-5.12-64-14.507l-2.56-1.707l-3.413,0.853
				c-14.507,2.56-29.013,4.267-43.52,4.267c-124.587,0-226.133-101.547-226.133-226.133c0-14.507,1.707-29.013,4.267-43.52
				l0.853-3.413l-1.707-2.56c-11.093-19.627-17.067-41.813-17.067-64c0-69.973,57.173-127.147,127.147-127.147
				c22.187,0,44.373,5.973,64,17.067l2.56,1.707l3.413-0.853c14.507-2.56,29.013-4.267,43.52-4.267
				c124.587,0,226.133,101.547,226.133,226.133c0,14.507-1.707,29.013-4.267,43.52l-0.853,3.413l1.707,2.56
				c9.387,17.067,14.507,37.547,14.507,64C494.933,440.32,440.32,494.933,370.347,494.933z"/>
			<path d="M278.187,215.04c-64-12.8-73.387-29.013-74.24-33.28c-1.707-5.973,2.56-11.093,6.827-14.507
				c11.093-9.387,37.547-17.067,60.587-12.8c8.533,1.707,20.48,5.973,26.453,16.213c14.507,28.16,29.867,50.347,61.44,42.667
				c10.24-2.56,17.92-9.387,23.04-19.627c5.973-13.653,5.973-32.427-1.707-46.933c-8.533-16.213-45.227-58.027-116.907-58.027
				c-68.267,0-146.773,24.747-146.773,94.72c0,55.467,48.64,94.72,133.12,106.667c42.667,5.973,56.32,19.627,60.587,27.307
				c2.56,5.12,2.56,10.24,0.853,15.36c-6.827,16.213-29.867,31.573-65.707,28.16c-40.96-4.267-54.613-40.96-57.173-48.64
				c-6.827-21.333-29.867-24.747-41.813-23.893c-5.973,0.853-19.627,5.12-28.16,17.92c-5.12,7.68-10.24,22.187-2.56,44.373
				c9.387,29.013,40.96,76.8,145.92,76.8c87.893,0,140.8-55.467,141.653-106.667C403.627,264.533,365.227,232.107,278.187,215.04z
				 M261.12,410.453c-69.973,0-116.053-23.04-129.707-64.853c-4.267-12.8-4.267-23.04,0.853-29.867s12.8-10.24,16.213-10.24
				c0,0,0.853,0,2.56,0c5.12,0,17.92,0.853,19.627,11.093c3.413,9.387,20.48,55.467,71.68,60.587
				c45.227,4.267,74.24-17.067,83.627-39.253c4.267-10.24,3.413-21.333-1.707-30.72c-6.827-12.8-25.6-29.013-72.533-35.84
				c-44.373-6.827-118.613-26.453-118.613-89.6c0-57.173,69.973-77.653,129.707-77.653c63.147,0,94.72,34.987,101.547,48.64
				c4.267,9.387,5.12,23.04,0.853,32.427c-2.56,5.973-6.827,9.387-11.947,10.24c-15.36,3.413-24.747,0-42.667-34.133
				c-6.827-12.8-20.48-21.333-38.4-24.747c-26.453-4.267-58.88,2.56-75.093,17.067c-10.24,9.387-14.507,20.48-11.947,31.573
				c5.973,20.48,34.133,34.987,87.893,45.227c98.133,19.627,111.787,55.467,111.787,88.747
				C384.853,363.52,338.773,410.453,261.12,410.453z"/>
		</g>
	</g>
</g>
<g>
</g>
<g>
</g>
<g>
</g>
<g>
</g>
<g>
</g>
<g>
</g>
<g>
</g>
<g>
</g>
<g>
</g>
<g>
</g>
<g>
</g>
<g>
</g>
<g>
</g>
<g>
</g>
<g>
</g>
</svg>
