<?xml version="1.0" encoding="iso-8859-1"?>
<!-- Generator: Adobe Illustrator 19.0.0, SVG Export Plug-In . SVG Version: 6.00 Build 0)  -->
<svg version="1.1" id="Layer_1" xmlns="http://www.w3.org/2000/svg" xmlns:xlink="http://www.w3.org/1999/xlink" x="0px" y="0px"
	 viewBox="0 0 512 512" style="enable-background:new 0 0 512 512;" xml:space="preserve">
<g transform="translate(1 1)">
	<g>
		<g>
			<path d="M24.6,284.867c-14.507,0-25.6,11.093-25.6,25.6V344.6c0,14.507,11.093,25.6,25.6,25.6c14.507,0,25.6-11.093,25.6-25.6
				v-34.133C50.2,295.96,39.107,284.867,24.6,284.867z M33.133,344.6c0,5.12-3.413,8.533-8.533,8.533s-8.533-3.413-8.533-8.533
				v-34.133c0-5.12,3.413-8.533,8.533-8.533s8.533,3.413,8.533,8.533V344.6z"/>
			<path d="M92.867,250.733c-14.507,0-25.6,11.093-25.6,25.6V344.6c0,14.507,11.093,25.6,25.6,25.6c14.507,0,25.6-11.093,25.6-25.6
				v-68.267C118.467,261.827,107.373,250.733,92.867,250.733z M101.4,344.6c0,5.12-3.413,8.533-8.533,8.533
				c-5.12,0-8.533-3.413-8.533-8.533v-68.267c0-5.12,3.413-8.533,8.533-8.533c5.12,0,8.533,3.413,8.533,8.533V344.6z"/>
			<path d="M161.133,216.6c-14.507,0-25.6,11.093-25.6,25.6v102.4c0,14.507,11.093,25.6,25.6,25.6c14.507,0,25.6-11.093,25.6-25.6
				V242.2C186.733,227.693,175.64,216.6,161.133,216.6z M169.667,344.6c0,5.12-3.413,8.533-8.533,8.533s-8.533-3.413-8.533-8.533
				V242.2c0-5.12,3.413-8.533,8.533-8.533s8.533,3.413,8.533,8.533V344.6z"/>
			<path d="M229.4,182.467c-14.507,0-25.6,13.653-25.6,29.867v128c0,16.213,11.093,29.867,25.6,29.867
				c14.507,0,25.6-13.653,25.6-29.867v-128C255,196.12,243.907,182.467,229.4,182.467z M237.933,340.333
				c0,7.68-4.267,12.8-8.533,12.8s-8.533-5.12-8.533-12.8v-128c0-7.68,4.267-12.8,8.533-12.8s8.533,5.12,8.533,12.8V340.333z"/>
			<path d="M442.733,233.667c-4.267,0-8.533,0-12.8,0.853c-14.507-55.467-65.707-94.72-123.733-94.72
				c-9.387,0-18.773,0.853-27.307,2.56l-6.827,1.707V370.2h170.667c37.547,0,68.267-30.72,68.267-68.267
				C511,264.387,480.28,233.667,442.733,233.667z M442.733,353.133h-153.6v-194.56c5.973-0.853,11.093-1.707,17.067-1.707
				c52.907,0,98.987,37.547,109.227,90.453l1.707,9.387l9.387-3.413c5.12-1.707,11.093-2.56,16.213-2.56
				c28.16,0,51.2,23.04,51.2,51.2C493.933,330.093,470.893,353.133,442.733,353.133z"/>
		</g>
	</g>
</g>
<g>
</g>
<g>
</g>
<g>
</g>
<g>
</g>
<g>
</g>
<g>
</g>
<g>
</g>
<g>
</g>
<g>
</g>
<g>
</g>
<g>
</g>
<g>
</g>
<g>
</g>
<g>
</g>
<g>
</g>
</svg>
