<?xml version="1.0" encoding="iso-8859-1"?>
<!-- Generator: Adobe Illustrator 18.0.0, SVG Export Plug-In . SVG Version: 6.00 Build 0)  -->
<!DOCTYPE svg PUBLIC "-//W3C//DTD SVG 1.1//EN" "http://www.w3.org/Graphics/SVG/1.1/DTD/svg11.dtd">
<svg version="1.1" id="Capa_1" xmlns="http://www.w3.org/2000/svg" xmlns:xlink="http://www.w3.org/1999/xlink" x="0px" y="0px"
	 viewBox="0 0 60 60" style="enable-background:new 0 0 60 60;" xml:space="preserve">
<path d="M53,48h-3v-4H33.12l3.97-34.938c0.262-2.303-0.474-4.614-2.017-6.343S31.317,0,29,0s-4.531,0.991-6.074,2.72
	s-2.278,4.04-2.017,6.343L24.88,44H10v4H7v8h3.101c0.465,2.279,2.484,4,4.899,4h30c2.414,0,4.434-1.721,4.899-4H53V48z
	 M22.897,8.836C22.7,7.1,23.254,5.355,24.418,4.052S27.252,2,29,2s3.418,0.748,4.582,2.052S35.3,7.1,35.103,8.836L31.107,44h-4.215
	L22.897,8.836z M12,46h13.107h7.785H48v2H12V46z M45,58H15c-1.304,0-2.416-0.836-2.829-2h35.658C47.416,57.164,46.304,58,45,58z
	 M51,54h-1H10H9v-4h1h40h1V54z"/>
<g>
</g>
<g>
</g>
<g>
</g>
<g>
</g>
<g>
</g>
<g>
</g>
<g>
</g>
<g>
</g>
<g>
</g>
<g>
</g>
<g>
</g>
<g>
</g>
<g>
</g>
<g>
</g>
<g>
</g>
</svg>
