<?xml version="1.0" encoding="iso-8859-1"?>
<!-- Generator: Adobe Illustrator 18.0.0, SVG Export Plug-In . SVG Version: 6.00 Build 0)  -->
<!DOCTYPE svg PUBLIC "-//W3C//DTD SVG 1.1//EN" "http://www.w3.org/Graphics/SVG/1.1/DTD/svg11.dtd">
<svg version="1.1" id="Capa_1" xmlns="http://www.w3.org/2000/svg" xmlns:xlink="http://www.w3.org/1999/xlink" x="0px" y="0px"
	 viewBox="0 0 60 60" style="enable-background:new 0 0 60 60;" xml:space="preserve">
<g>
	<path d="M59,27c-4.092,0-7.613,2.473-9.159,6H49v-6h-2v-1c0-0.553-0.448-1-1-1s-1,0.447-1,1v1h-2v6h-1v-6h-2v-1
		c0-0.553-0.448-1-1-1s-1,0.447-1,1v1h-2v6h-1v-5h-3v-7.753c1.486,1.097,3.2,1.695,5,1.695s3.514-0.598,5-1.695V22
		c0,0.553,0.448,1,1,1s1-0.447,1-1v-1.753c1.486,1.097,3.2,1.695,5,1.695s3.514-0.598,5-1.695V22c0,0.553,0.448,1,1,1s1-0.447,1-1
		v-4c0-0.046-0.005-0.092-0.005-0.139c-0.001-0.007,0-0.013-0.001-0.02c-0.13-8.516-10.706-15.46-23.906-15.824
		C32.057,2.015,32.031,2,32,2V1c0-0.553-0.448-1-1-1s-1,0.447-1,1v1c-0.031,0-0.057,0.015-0.088,0.018
		C16.713,2.382,6.137,9.325,6.006,17.841c-0.001,0.007,0,0.013-0.001,0.02C6.005,17.908,6,17.954,6,18v4c0,0.553,0.448,1,1,1
		s1-0.447,1-1v-1.753c1.486,1.097,3.2,1.695,5,1.695s3.514-0.598,5-1.695V22c0,0.553,0.448,1,1,1s1-0.447,1-1v-1.753
		c1.486,1.097,3.2,1.695,5,1.695s3.514-0.598,5-1.695V28h-3v5H13v-1H9v-3h6c0.552,0,1-0.447,1-1s-0.448-1-1-1H1
		c-0.552,0-1,0.447-1,1s0.448,1,1,1h6v3H3v13h8v0.356C9.752,46.901,9,48.863,9,51c0,2.472,1.002,4.713,2.621,6.341
		c0.007,0.007,0.009,0.017,0.016,0.023s0.016,0.009,0.024,0.016C13.288,58.998,15.529,60,18,60s4.712-1.002,6.34-2.62
		c0.007-0.007,0.017-0.009,0.024-0.016s0.009-0.016,0.016-0.023c0.677-0.681,1.238-1.473,1.671-2.341h22.092
		C48.058,55.322,48,55.653,48,56c0,2.206,1.794,4,4,4s4-1.794,4-4s-1.794-4-4-4c-0.347,0-0.678,0.058-1,0.142V37
		c0-4.411,3.589-8,8-8c0.552,0,1-0.447,1-1S59.552,27,59,27z M37,19.941c-1.86,0-3.62-0.85-5-2.386V4.211
		c5.549,1.093,9.807,6.633,9.982,13.364C40.604,19.099,38.851,19.941,37,19.941z M53.982,17.574
		c-1.377,1.524-3.13,2.367-4.982,2.367c-1.869,0-3.638-0.858-5.021-2.409c-0.138-5.417-2.634-10.163-6.363-12.939
		C46.869,6.288,53.679,11.441,53.982,17.574z M13,19.941c-1.852,0-3.605-0.843-4.982-2.367c0.303-6.133,7.113-11.286,16.366-12.981
		c-3.729,2.776-6.225,7.522-6.363,12.939C16.638,19.083,14.869,19.941,13,19.941z M25,19.941c-1.851,0-3.604-0.843-4.982-2.366
		C20.193,10.844,24.451,5.304,30,4.211v13.344C28.62,19.091,26.86,19.941,25,19.941z M45,29h2v4h-2V29z M38,29h2v4h-2V29z M29,30h4
		v3h-4V30z M14.407,45.004c0.033-0.02,0.065-0.04,0.098-0.059c0.181-0.105,0.368-0.201,0.557-0.289
		c0.029-0.013,0.057-0.029,0.086-0.042c0.197-0.089,0.399-0.166,0.603-0.236c0.025-0.009,0.049-0.019,0.074-0.027
		c0.208-0.069,0.42-0.125,0.634-0.174c0.024-0.005,0.048-0.013,0.072-0.019c0.154-0.033,0.311-0.053,0.468-0.076V47
		c0,0.553,0.448,1,1,1s1-0.447,1-1v-2.92c1.183,0.17,2.269,0.636,3.184,1.322l-2.063,2.063c-0.391,0.391-0.391,1.023,0,1.414
		c0.195,0.195,0.451,0.293,0.707,0.293s0.512-0.098,0.707-0.293l2.063-2.063c0.686,0.915,1.151,2.001,1.322,3.184H22
		c-0.552,0-1,0.447-1,1s0.448,1,1,1h2.92c-0.003,0.017-0.005,0.035-0.008,0.052c-0.015,0.102-0.027,0.204-0.047,0.304
		c-0.033,0.164-0.076,0.326-0.12,0.488c-0.014,0.053-0.025,0.107-0.041,0.159c-0.054,0.179-0.118,0.356-0.187,0.531
		c-0.016,0.042-0.029,0.085-0.046,0.126l-0.037,0.092c-0.22,0.513-0.505,0.991-0.836,1.432l-2.063-2.063
		c-0.391-0.391-1.023-0.391-1.414,0s-0.391,1.023,0,1.414l2.063,2.063C21.269,57.284,20.183,57.75,19,57.92V55c0-0.553-0.448-1-1-1
		s-1,0.447-1,1v2.92c-1.183-0.17-2.269-0.636-3.184-1.322l2.063-2.063c0.391-0.391,0.391-1.023,0-1.414s-1.024-0.391-1.414,0
		l-2.063,2.063C11.716,54.269,11.25,53.183,11.08,52H14c0.552,0,1-0.447,1-1s-0.448-1-1-1h-2.92c0.17-1.183,0.636-2.269,1.322-3.184
		l2.063,2.063c0.195,0.195,0.451,0.293,0.707,0.293s0.512-0.098,0.707-0.293c0.391-0.391,0.391-1.023,0-1.414l-2.063-2.063
		c0.027-0.021,0.054-0.041,0.082-0.061C14.063,45.22,14.233,45.108,14.407,45.004z M5,43v-9h6v9H5z M26.785,52.935
		c0.052-0.237,0.091-0.479,0.124-0.724c0.011-0.08,0.028-0.16,0.037-0.24C26.98,51.652,27,51.328,27,51
		c0-2.472-1.002-4.713-2.621-6.341c-0.007-0.007-0.009-0.017-0.016-0.023s-0.016-0.009-0.024-0.016C22.712,43.002,20.471,42,18,42
		c-0.409,0-0.809,0.037-1.203,0.09c-0.088,0.012-0.176,0.026-0.264,0.04c-0.811,0.134-1.584,0.374-2.307,0.71
		c-0.054,0.025-0.108,0.052-0.161,0.078c-0.368,0.18-0.726,0.377-1.064,0.603V35h14h8h1h6h1h6v18H26.774
		C26.779,52.979,26.78,52.956,26.785,52.935z M54,56c0,1.103-0.897,2-2,2s-2-0.897-2-2c0-0.493,0.186-0.94,0.484-1.289l0.038-0.042
		c0.047-0.052,0.096-0.101,0.147-0.147l0.042-0.038C51.06,54.186,51.507,54,52,54C53.103,54,54,54.897,54,56z"/>
	<path d="M15,40.353l1.167-0.197C16.773,40.052,17.39,40,18,40c5.678,0,10.493,4.429,10.962,10.083L29.038,51H47V37H15V40.353z
		 M27,39h6h6h6c-0.552,0-1,0.448-1,1c0,0.552,0.448,1,1,1v4c-0.552,0-1,0.448-1,1c0,0.552,0.448,1,1,1v2h-2c0-0.552-0.448-1-1-1
		s-1,0.448-1,1h-4c0-0.552-0.448-1-1-1s-1,0.448-1,1h-4.154c-0.707-4.533-3.791-8.287-7.879-10H27z"/>
	<circle cx="18" cy="51" r="1"/>
	<circle cx="42" cy="43" r="1"/>
	<circle cx="36" cy="43" r="1"/>
	<circle cx="39" cy="40" r="1"/>
	<circle cx="39" cy="46" r="1"/>
	<circle cx="30" cy="43" r="1"/>
	<circle cx="27" cy="40" r="1"/>
	<circle cx="33" cy="40" r="1"/>
	<circle cx="33" cy="46" r="1"/>
</g>
<g>
</g>
<g>
</g>
<g>
</g>
<g>
</g>
<g>
</g>
<g>
</g>
<g>
</g>
<g>
</g>
<g>
</g>
<g>
</g>
<g>
</g>
<g>
</g>
<g>
</g>
<g>
</g>
<g>
</g>
</svg>
