<?xml version="1.0" encoding="iso-8859-1"?>
<!-- Generator: Adobe Illustrator 19.0.0, SVG Export Plug-In . SVG Version: 6.00 Build 0)  -->
<svg version="1.1" id="Layer_1" xmlns="http://www.w3.org/2000/svg" xmlns:xlink="http://www.w3.org/1999/xlink" x="0px" y="0px"
	 viewBox="0 0 512 512" style="enable-background:new 0 0 512 512;" xml:space="preserve">
<g transform="translate(1 1)">
	<g>
		<g>
			<path d="M365.933,58.733c-55.743,0-102.88,38.694-115.896,90.547l-79.742,116.381c-16.488,2.589-31.184,9.203-43.544,19.842
				L24.6,242.2v96.427l68.817,27.712c6.013,46.979,46.499,84.928,93.316,84.928c46.691,0,85.136-32.958,92.563-77.314
				l114.731-79.654C446.294,281.578,485.4,234.238,485.4,178.2C485.4,112.493,431.64,58.733,365.933,58.733z M167.96,392.387
				c7.978,0,15.49-2.009,22.019-5.558c9.006-4.548,16.246-11.992,19.794-21.749c5.59-16.148,0.323-34.097-11.837-45.966
				c-1.169-1.201-2.401-2.349-3.703-3.427c20.141,2.866,35.167,20.615,35.167,41.713c0,23.893-18.773,42.667-42.667,42.667
				c-9.027,0-17.26-3.162-23.949-7.957C164.559,392.288,166.306,392.387,167.96,392.387z M41.667,267.8l71.538,30.073l-0.711,0.647
				l62.293,26.453c14.507,5.12,23.04,20.48,17.92,34.133c-1.167,3.112-2.915,5.819-5.082,8.092
				c-7.413,7.042-19.128,9.365-29.904,5.561L41.667,326.68V267.8z M186.733,434.2c-34.83,0-65.423-26.219-74.116-60.13l20.189,8.13
				c10.045,21.098,30.445,34.934,53.927,34.934c33.28,0,59.733-27.307,59.733-60.587c0-33.28-26.453-59.733-59.733-59.733
				c-7.904,0-15.2,1.818-21.893,4.429l-20.774-8.696c7.211-4.636,15.361-8.018,24.25-9.978l8.177-1.115
				c1.053-0.263,2.105-0.438,3.158-0.564c2.323-0.184,4.681-0.289,7.082-0.289c42.667,0,76.8,34.133,76.8,76.8
				c0,2.661-0.133,5.288-0.392,7.876c-0.117,0.788-0.264,1.576-0.461,2.364l-0.681,5.223
				C254.915,408.023,224.097,434.2,186.733,434.2z M280.6,352.28c-2.56-47.787-40.96-86.187-88.747-88.747l54.613-80.213
				c1.299,30.751,14.475,58.639,35.053,79.212c0.029,0.029,0.057,0.057,0.086,0.086c0.618,0.616,1.242,1.226,1.872,1.828
				c0.083,0.08,0.167,0.16,0.25,0.239c0.586,0.557,1.178,1.108,1.775,1.653c0.115,0.105,0.229,0.211,0.345,0.315
				c0.584,0.53,1.175,1.053,1.769,1.571c0.119,0.104,0.237,0.209,0.357,0.312c0.627,0.542,1.26,1.077,1.898,1.606
				c0.081,0.067,0.16,0.135,0.241,0.202c18.812,15.526,42.396,25.509,68.141,27.322L280.6,352.28z M366.362,280.595
				c-56.126-0.231-101.976-46.216-101.976-102.395c0-8.533,0.853-17.067,3.413-25.6l-0.896-0.398
				c11.581-43.836,51.685-76.402,99.03-76.402c56.32,0,102.4,46.08,102.4,102.4C468.333,234.377,422.487,280.361,366.362,280.595z"
				/>
			<path d="M365.933,109.933c-37.547,0-68.267,30.72-68.267,68.267s30.72,68.267,68.267,68.267S434.2,215.747,434.2,178.2
				S403.48,109.933,365.933,109.933z M365.933,229.4c-28.16,0-51.2-23.04-51.2-51.2s23.04-51.2,51.2-51.2s51.2,23.04,51.2,51.2
				S394.093,229.4,365.933,229.4z"/>
			<path d="M417.133-1H92.867C40.813-1-1,40.813-1,92.867v324.267C-1,469.187,40.813,511,92.867,511h324.267
				C469.187,511,511,469.187,511,417.133V92.867C511,40.813,469.187-1,417.133-1z M493.933,417.133c0,42.667-34.133,76.8-76.8,76.8
				H92.867c-42.667,0-76.8-34.133-76.8-76.8V92.867c0-42.667,34.133-76.8,76.8-76.8h324.267c42.667,0,76.8,34.133,76.8,76.8V417.133
				z"/>
		</g>
	</g>
</g>
<g>
</g>
<g>
</g>
<g>
</g>
<g>
</g>
<g>
</g>
<g>
</g>
<g>
</g>
<g>
</g>
<g>
</g>
<g>
</g>
<g>
</g>
<g>
</g>
<g>
</g>
<g>
</g>
<g>
</g>
</svg>
