<?xml version="1.0" encoding="iso-8859-1"?>
<!-- Generator: Adobe Illustrator 18.0.0, SVG Export Plug-In . SVG Version: 6.00 Build 0)  -->
<!DOCTYPE svg PUBLIC "-//W3C//DTD SVG 1.1//EN" "http://www.w3.org/Graphics/SVG/1.1/DTD/svg11.dtd">
<svg version="1.1" id="Capa_1" xmlns="http://www.w3.org/2000/svg" xmlns:xlink="http://www.w3.org/1999/xlink" x="0px" y="0px"
	 viewBox="0 0 60 60" style="enable-background:new 0 0 60 60;" xml:space="preserve">
<g>
	<circle cx="12.525" cy="5.963" r="1"/>
	<circle cx="9.525" cy="8.963" r="1"/>
	<circle cx="33.525" cy="8.963" r="1"/>
	<circle cx="36.525" cy="5.963" r="1"/>
	<circle cx="39.525" cy="8.963" r="1"/>
	<circle cx="27.525" cy="14.963" r="1"/>
	<circle cx="21.525" cy="14.963" r="1"/>
	<circle cx="51.525" cy="14.963" r="1"/>
	<circle cx="24.525" cy="17.963" r="1"/>
	<circle cx="27.525" cy="20.963" r="1"/>
	<circle cx="18.525" cy="17.963" r="1"/>
	<circle cx="21.525" cy="20.963" r="1"/>
	<circle cx="54.525" cy="17.963" r="1"/>
	<circle cx="48.525" cy="17.963" r="1"/>
	<circle cx="51.525" cy="20.963" r="1"/>
	<path d="M59.525,12.107c0-0.154-0.032-0.3-0.089-0.433c-0.004-0.097-0.02-0.195-0.047-0.29l-4.121-8.988
		C54.6,0.94,53.132,0,51.529,0H43.36h-2.033h-9.802h-2h-9.802H17.69H9.521C7.919,0,6.452,0.94,5.783,2.395l-4.063,8.824
		l-0.054,0.144c-0.039,0.137-0.046,0.278-0.038,0.418c-0.066,0.154-0.103,0.324-0.103,0.502V19c0,1.401,0.364,2.718,1,3.864v7.351
		c-0.459,0.503-0.8,1.132-0.93,1.83c-0.11,0.597-0.075,1.229,0.103,1.829c0.097,0.328,0.02,0.726-0.208,1.063
		c-1.047,1.548-1.26,3.707-0.528,5.372c0.11,0.252,0.248,0.489,0.41,0.708c0.231,0.311,0.313,0.724,0.22,1.104
		c-0.052,0.205-0.087,0.416-0.106,0.626c-0.082,0.896,0.103,1.766,0.25,2.464c0.155,0.735,0.39,1.847,1.214,2.555
		c0.44,0.379,0.98,0.576,1.576,0.609V52h-2.93l-0.507,0.021l-0.614,0.755L1.679,60h5.666h2.027h27.153h18h4V22.864
		c0.636-1.147,1-2.463,1-3.864V12.107z M56.764,21.917c-0.033,0.06-0.071,0.117-0.106,0.175c-0.133,0.22-0.278,0.43-0.434,0.628
		c-0.003,0.003-0.005,0.007-0.008,0.01c-0.154,0.195-0.32,0.378-0.494,0.55c-0.037,0.036-0.077,0.069-0.115,0.104
		c-0.059,0.055-0.121,0.104-0.182,0.156c-0.16-0.34-0.5-0.579-0.9-0.579c-0.552,0-1,0.448-1,1c0,0.232,0.092,0.435,0.224,0.605
		c-0.055,0.022-0.111,0.041-0.166,0.061c-0.129,0.047-0.258,0.092-0.39,0.13c-0.092,0.027-0.185,0.049-0.278,0.072
		c-0.146,0.035-0.294,0.063-0.444,0.087c-0.079,0.013-0.158,0.027-0.238,0.036C52,24.982,51.764,25,51.525,25
		c-0.786,0-1.535-0.156-2.224-0.432c0.132-0.17,0.224-0.373,0.224-0.605c0-0.552-0.448-1-1-1c-0.403,0-0.745,0.241-0.904,0.584
		c-0.594-0.511-1.086-1.136-1.444-1.84c0.209-0.183,0.348-0.444,0.348-0.744c0-0.521-0.403-0.936-0.913-0.982
		c-0.053-0.32-0.087-0.646-0.087-0.98v-3.037c0.552,0,1-0.448,1-1s-0.448-1-1-1V13h0.198h11.802v0.963c-0.552,0-1,0.448-1,1
		s0.448,1,1,1V19c0,0.335-0.034,0.661-0.087,0.98c-0.509,0.046-0.913,0.461-0.913,0.982c0,0.3,0.138,0.561,0.348,0.744
		c-0.025,0.048-0.045,0.099-0.071,0.147L56.764,21.917z M24.525,22.963c-0.552,0-1,0.448-1,1c0,0.499,0.372,0.895,0.85,0.97
		C24.097,24.972,23.815,25,23.525,25c-3.309,0-6-2.691-6-6v-1.037V13h12v6c0,2.784-1.908,5.124-4.483,5.798
		c0.284-0.176,0.483-0.477,0.483-0.835C25.525,23.41,25.078,22.963,24.525,22.963z M8.818,24.954
		c-0.08-0.01-0.159-0.024-0.238-0.036c-0.15-0.024-0.298-0.052-0.444-0.087c-0.093-0.022-0.186-0.045-0.278-0.072
		c-0.132-0.038-0.262-0.084-0.39-0.131c-0.09-0.033-0.181-0.061-0.268-0.098c-0.189-0.08-0.373-0.17-0.552-0.268
		c-0.091-0.05-0.178-0.107-0.266-0.162c-0.108-0.067-0.215-0.136-0.319-0.21c-0.079-0.056-0.156-0.114-0.232-0.174
		c-0.133-0.105-0.262-0.215-0.386-0.332c-0.037-0.035-0.077-0.067-0.113-0.103c-0.174-0.172-0.34-0.355-0.495-0.55
		c-0.003-0.003-0.005-0.007-0.008-0.01c-0.156-0.198-0.301-0.408-0.434-0.628c-0.035-0.058-0.073-0.115-0.106-0.175l-0.038-0.064
		C3.788,21.004,3.525,20.032,3.525,19v-6h11.802h0.198v6c0,3.309-2.691,6-6,6C9.286,25,9.051,24.982,8.818,24.954z M31.525,13h12v6
		c0,3.309-2.691,6-6,6s-6-2.691-6-6V13z M51.529,2c0.823,0,1.578,0.483,1.922,1.231L57.023,11H45.525H45.36l-0.818-4.5L43.724,2
		H51.529z M31.525,2h1.815c-0.461,0.089-0.815,0.476-0.815,0.963c0,0.552,0.448,1,1,1s1-0.448,1-1c0-0.487-0.355-0.874-0.815-0.963
		h5.631c-0.461,0.089-0.815,0.476-0.815,0.963c0,0.552,0.448,1,1,1s1-0.448,1-1c0-0.487-0.355-0.874-0.815-0.963h1.981l0.549,3.02
		c-0.41,0.125-0.714,0.491-0.714,0.942c0,0.552,0.448,1,1,1c0.023,0,0.042-0.012,0.065-0.013L43.327,11H31.525V2z M19.36,2h10.165v9
		H17.724l0.818-4.5L19.36,2z M5.969,6.772C6.13,6.883,6.315,6.963,6.525,6.963c0.552,0,1-0.448,1-1c0-0.463-0.32-0.835-0.747-0.949
		L7.6,3.23c0.284-0.619,0.855-1.038,1.509-1.17C8.766,2.219,8.525,2.561,8.525,2.963c0,0.552,0.448,1,1,1s1-0.448,1-1
		c0-0.487-0.355-0.874-0.815-0.963h5.631c-0.461,0.089-0.815,0.476-0.815,0.963c0,0.552,0.448,1,1,1s1-0.448,1-1
		c0-0.487-0.355-0.874-0.815-0.963h1.617l-0.818,4.5l-0.315,1.73c-0.178-0.162-0.409-0.267-0.669-0.267c-0.552,0-1,0.448-1,1
		s0.448,1,1,1c0.13,0,0.253-0.029,0.367-0.074L15.69,11h-0.165H4.022L5.969,6.772z M3.692,44.797
		c-0.126-0.597-0.27-1.273-0.215-1.868c0.01-0.107,0.027-0.217,0.055-0.325c0.237-0.955,0.029-1.995-0.556-2.78
		c-0.07-0.096-0.135-0.206-0.184-0.318c-0.458-1.044-0.313-2.462,0.354-3.448c0.567-0.841,0.737-1.844,0.468-2.75
		c-0.087-0.295-0.105-0.614-0.053-0.898c0.07-0.378,0.265-0.721,0.524-0.958l0.066-0.053c0.098-0.078,0.18-0.132,0.251-0.166
		l0.906-0.74c0.072-0.074,0.16-0.124,0.253-0.165c0.022-0.01,0.044-0.018,0.066-0.026c0.185-0.065,0.386-0.082,0.555-0.078
		c0.102,0.003,0.201,0.011,0.265,0.019c0.362,0.051,0.692,0.173,0.971,0.346l0.22,0.182c0.105,0.087,0.19,0.17,0.263,0.252
		c0.072,0.088,0.145,0.176,0.197,0.275c0.154,0.297,0.202,0.7,0.127,1.053c-0.192,0.898,0.038,1.854,0.617,2.557
		c0.118,0.144,0.208,0.335,0.246,0.525c0.025,0.124,0.037,0.255,0.037,0.394c-0.001,0.418-0.114,0.907-0.343,1.484v0.001
		c-0.193,0.489-0.414,0.905-0.655,1.237c-0.49,0.675-0.667,1.558-0.517,2.441c0.05,0.294,0.136,0.589,0.26,0.876
		c0.118,0.271,0.186,0.581,0.204,0.893c0.018,0.313-0.016,0.629-0.102,0.914c-0.048,0.16-0.109,0.311-0.178,0.455
		c-0.138,0.287-0.321,0.56-0.548,0.817c-0.01,0.011-0.02,0.02-0.03,0.031c-0.102,0.113-0.213,0.224-0.332,0.331
		c-0.395,0.354-0.808,0.607-1.112,0.765c-0.004,0.002-0.009,0.004-0.013,0.006c-0.154,0.078-0.319,0.145-0.485,0.199
		c-0.395,0.129-0.792,0.168-1.022-0.027C3.942,45.981,3.792,45.269,3.692,44.797z M7.678,58H3.372l-0.666-4h1.819h3.819L7.678,58z
		 M6.525,52v-4.07c0.056-0.026,0.111-0.054,0.166-0.082c0.56-0.289,1.059-0.636,1.495-1.023l0.002,0.002
		c0.009-0.008,0.015-0.016,0.024-0.024c0.192-0.172,0.372-0.351,0.537-0.539c0.025-0.029,0.046-0.06,0.071-0.089
		c0.126-0.15,0.245-0.304,0.353-0.462c0.049-0.071,0.093-0.143,0.138-0.215c0.081-0.13,0.155-0.264,0.224-0.399
		c0.036-0.071,0.074-0.142,0.107-0.215c0.094-0.206,0.177-0.416,0.243-0.632c0.077-0.255,0.131-0.52,0.161-0.79
		s0.038-0.545,0.022-0.818c-0.031-0.546-0.153-1.087-0.363-1.573c-0.213-0.492-0.197-1.021,0.04-1.347
		c0.098-0.135,0.185-0.294,0.276-0.445c0.226-0.371,0.438-0.772,0.619-1.23c0.452-1.14,0.586-2.123,0.408-3.009
		c-0.104-0.519-0.334-1.005-0.665-1.405c-0.185-0.225-0.267-0.572-0.204-0.865c0.056-0.262,0.072-0.529,0.069-0.796
		c-0.001-0.069-0.004-0.136-0.009-0.205c-0.015-0.235-0.05-0.466-0.109-0.691c-0.007-0.025-0.005-0.052-0.012-0.077h22.404v21
		H10.706H9.52H6.525z M38.525,58V31h14v27H38.525z M56.525,58h-2V29h-18v29H9.706l0.667-4h24.153V29H8.636
		c-0.548-0.377-1.198-0.637-1.907-0.738c-0.261-0.037-0.511-0.043-0.755-0.034c-0.065,0.002-0.128,0.009-0.192,0.014
		c-0.188,0.016-0.369,0.045-0.542,0.088c-0.051,0.013-0.103,0.022-0.153,0.036c-0.199,0.06-0.39,0.132-0.562,0.226v-3.345
		c0.574,0.463,1.21,0.836,1.887,1.122c0.003,0.001,0.005,0.002,0.008,0.003c0.221,0.093,0.447,0.176,0.677,0.248
		c0.039,0.012,0.078,0.024,0.117,0.036c0.195,0.059,0.393,0.109,0.594,0.153c0.06,0.013,0.12,0.027,0.18,0.039
		c0.188,0.036,0.379,0.065,0.572,0.088c0.066,0.008,0.131,0.019,0.197,0.025C9.011,26.985,9.267,27,9.525,27
		c0.338,0,0.669-0.028,0.996-0.069c0.094-0.012,0.187-0.028,0.28-0.043c0.247-0.04,0.489-0.091,0.728-0.153
		c0.083-0.021,0.166-0.04,0.248-0.064c0.307-0.09,0.607-0.195,0.898-0.32c0.045-0.019,0.086-0.043,0.13-0.063
		c0.247-0.112,0.487-0.236,0.721-0.372c0.081-0.047,0.159-0.095,0.238-0.145c0.212-0.133,0.416-0.275,0.614-0.427
		c0.055-0.042,0.113-0.081,0.167-0.125c0.243-0.196,0.474-0.406,0.692-0.629c0.049-0.05,0.094-0.104,0.142-0.156
		c0.169-0.182,0.329-0.371,0.481-0.567c0.057-0.074,0.113-0.148,0.167-0.224c0.157-0.219,0.303-0.445,0.437-0.679
		c0.019-0.033,0.043-0.063,0.062-0.096c0.019,0.033,0.043,0.063,0.062,0.096c0.134,0.234,0.281,0.46,0.437,0.679
		c0.054,0.076,0.11,0.15,0.167,0.224c0.152,0.197,0.312,0.386,0.481,0.567c0.048,0.052,0.092,0.106,0.142,0.156
		c0.218,0.223,0.449,0.433,0.692,0.629c0.054,0.044,0.112,0.083,0.167,0.125c0.198,0.152,0.402,0.294,0.614,0.427
		c0.079,0.049,0.157,0.098,0.238,0.145c0.233,0.135,0.473,0.26,0.721,0.372c0.044,0.02,0.086,0.044,0.13,0.063
		c0.29,0.125,0.591,0.23,0.898,0.32c0.082,0.024,0.165,0.042,0.248,0.064c0.239,0.062,0.481,0.113,0.728,0.153
		c0.093,0.015,0.186,0.031,0.28,0.043C22.857,26.972,23.188,27,23.525,27s0.669-0.028,0.996-0.069
		c0.094-0.012,0.187-0.028,0.28-0.043c0.247-0.04,0.489-0.091,0.728-0.153c0.083-0.021,0.166-0.04,0.248-0.064
		c0.307-0.09,0.607-0.195,0.898-0.32c0.045-0.019,0.086-0.043,0.13-0.063c0.247-0.112,0.487-0.236,0.721-0.372
		c0.081-0.047,0.159-0.095,0.238-0.145c0.212-0.133,0.416-0.275,0.614-0.427c0.055-0.042,0.113-0.081,0.167-0.125
		c0.243-0.196,0.474-0.406,0.692-0.629c0.049-0.05,0.094-0.104,0.142-0.156c0.169-0.182,0.329-0.371,0.481-0.567
		c0.057-0.074,0.113-0.148,0.167-0.224c0.157-0.219,0.303-0.445,0.437-0.679c0.019-0.033,0.043-0.063,0.062-0.096
		c0.019,0.033,0.043,0.063,0.062,0.096c0.134,0.234,0.281,0.46,0.437,0.679c0.054,0.076,0.11,0.15,0.167,0.224
		c0.152,0.197,0.312,0.386,0.481,0.567c0.048,0.052,0.092,0.106,0.142,0.156c0.218,0.223,0.449,0.433,0.692,0.629
		c0.054,0.044,0.112,0.083,0.167,0.125c0.198,0.152,0.402,0.294,0.614,0.427c0.079,0.049,0.157,0.098,0.238,0.145
		c0.233,0.135,0.473,0.26,0.721,0.372c0.044,0.02,0.086,0.044,0.13,0.063c0.29,0.125,0.591,0.23,0.898,0.32
		c0.082,0.024,0.165,0.042,0.248,0.064c0.239,0.062,0.481,0.113,0.728,0.153c0.093,0.015,0.186,0.031,0.28,0.043
		C36.857,26.972,37.188,27,37.525,27s0.669-0.028,0.996-0.069c0.094-0.012,0.187-0.028,0.28-0.043
		c0.247-0.04,0.489-0.091,0.728-0.153c0.083-0.021,0.166-0.04,0.248-0.064c0.307-0.09,0.607-0.195,0.898-0.32
		c0.045-0.019,0.086-0.043,0.13-0.063c0.247-0.112,0.487-0.236,0.721-0.372c0.081-0.047,0.159-0.095,0.238-0.145
		c0.212-0.133,0.416-0.275,0.614-0.427c0.055-0.042,0.113-0.081,0.167-0.125c0.243-0.196,0.474-0.406,0.692-0.629
		c0.049-0.05,0.094-0.104,0.142-0.156c0.169-0.182,0.329-0.371,0.481-0.567c0.057-0.074,0.113-0.148,0.167-0.224
		c0.157-0.219,0.303-0.445,0.437-0.679c0.019-0.033,0.043-0.063,0.062-0.096c0.019,0.033,0.043,0.063,0.062,0.096
		c0.134,0.234,0.281,0.46,0.437,0.679c0.054,0.076,0.11,0.15,0.167,0.224c0.152,0.197,0.312,0.386,0.481,0.567
		c0.048,0.052,0.092,0.106,0.142,0.156c0.218,0.223,0.449,0.433,0.692,0.629c0.054,0.044,0.112,0.083,0.167,0.125
		c0.198,0.152,0.402,0.294,0.614,0.427c0.079,0.049,0.157,0.098,0.238,0.145c0.233,0.135,0.473,0.26,0.721,0.372
		c0.044,0.02,0.086,0.044,0.13,0.063c0.29,0.125,0.591,0.23,0.898,0.32c0.082,0.024,0.165,0.042,0.248,0.064
		c0.239,0.062,0.481,0.113,0.728,0.153c0.093,0.015,0.186,0.031,0.28,0.043C50.857,26.972,51.188,27,51.525,27
		c0.259,0,0.514-0.015,0.768-0.039c0.066-0.006,0.131-0.017,0.197-0.025c0.192-0.023,0.383-0.051,0.572-0.088
		c0.061-0.012,0.12-0.026,0.18-0.039c0.201-0.044,0.399-0.095,0.594-0.153c0.039-0.012,0.078-0.023,0.117-0.036
		c0.23-0.073,0.456-0.155,0.677-0.248c0.003-0.001,0.005-0.002,0.008-0.003c0.677-0.286,1.313-0.659,1.887-1.122V58z"/>
	<path d="M49.525,43c-0.553,0-1,0.447-1,1v3c0,0.553,0.447,1,1,1s1-0.447,1-1v-3C50.525,43.447,50.078,43,49.525,43z"/>
	<path d="M18.525,39c0.256,0,0.512-0.098,0.707-0.293l4-4c0.391-0.391,0.391-1.023,0-1.414s-1.023-0.391-1.414,0l-4,4
		c-0.391,0.391-0.391,1.023,0,1.414C18.014,38.902,18.27,39,18.525,39z"/>
	<path d="M18.525,44c0.256,0,0.512-0.098,0.707-0.293l2-2c0.391-0.391,0.391-1.023,0-1.414s-1.023-0.391-1.414,0l-2,2
		c-0.391,0.391-0.391,1.023,0,1.414C18.014,43.902,18.27,44,18.525,44z"/>
	<path d="M21.815,38.29c-0.181,0.189-0.29,0.45-0.29,0.71s0.109,0.52,0.29,0.7c0.189,0.189,0.439,0.3,0.71,0.3
		c0.26,0,0.52-0.11,0.71-0.29c0.18-0.19,0.29-0.45,0.29-0.71s-0.11-0.521-0.29-0.71C22.865,37.92,22.186,37.92,21.815,38.29z"/>
	<path d="M23.818,37.707C24.014,37.902,24.27,38,24.525,38s0.512-0.098,0.707-0.293l3-3c0.391-0.391,0.391-1.023,0-1.414
		s-1.023-0.391-1.414,0l-3,3C23.428,36.684,23.428,37.316,23.818,37.707z"/>
	<path d="M18.525,49c0.256,0,0.512-0.098,0.707-0.293l9-9c0.391-0.391,0.391-1.023,0-1.414s-1.023-0.391-1.414,0l-9,9
		c-0.391,0.391-0.391,1.023,0,1.414C18.014,48.902,18.27,49,18.525,49z"/>
	<path d="M28.815,37.71c0.189,0.18,0.45,0.29,0.71,0.29s0.52-0.11,0.71-0.29c0.18-0.19,0.29-0.45,0.29-0.71s-0.11-0.521-0.29-0.71
		c-0.37-0.37-1.05-0.37-1.42,0c-0.181,0.189-0.29,0.45-0.29,0.71S28.635,37.52,28.815,37.71z"/>
</g>
<g>
</g>
<g>
</g>
<g>
</g>
<g>
</g>
<g>
</g>
<g>
</g>
<g>
</g>
<g>
</g>
<g>
</g>
<g>
</g>
<g>
</g>
<g>
</g>
<g>
</g>
<g>
</g>
<g>
</g>
</svg>
