<?xml version="1.0" encoding="iso-8859-1"?>
<!-- Generator: Adobe Illustrator 18.0.0, SVG Export Plug-In . SVG Version: 6.00 Build 0)  -->
<!DOCTYPE svg PUBLIC "-//W3C//DTD SVG 1.1//EN" "http://www.w3.org/Graphics/SVG/1.1/DTD/svg11.dtd">
<svg version="1.1" id="Capa_1" xmlns="http://www.w3.org/2000/svg" xmlns:xlink="http://www.w3.org/1999/xlink" x="0px" y="0px"
	 viewBox="0 0 60 60" style="enable-background:new 0 0 60 60;" xml:space="preserve">
<g>
	<path d="M16,57h14V38H16V57z M18,40h10v15H18V40z"/>
	<path d="M41,33c0.256,0,0.512-0.098,0.707-0.293l4-4c0.391-0.391,0.391-1.023,0-1.414s-1.023-0.391-1.414,0l-4,4
		c-0.391,0.391-0.391,1.023,0,1.414C40.488,32.902,40.744,33,41,33z"/>
	<path d="M41,38c0.256,0,0.512-0.098,0.707-0.293l2-2c0.391-0.391,0.391-1.023,0-1.414s-1.023-0.391-1.414,0l-2,2
		c-0.391,0.391-0.391,1.023,0,1.414C40.488,37.902,40.744,38,41,38z"/>
	<path d="M44.29,32.29C44.109,32.479,44,32.729,44,33c0,0.26,0.109,0.52,0.29,0.71C44.479,33.89,44.74,34,45,34s0.52-0.11,0.71-0.29
		C45.89,33.52,46,33.26,46,33s-0.11-0.521-0.29-0.71C45.33,31.92,44.66,31.92,44.29,32.29z"/>
	<path d="M46.293,31.707C46.488,31.902,46.744,32,47,32s0.512-0.098,0.707-0.293l3-3c0.391-0.391,0.391-1.023,0-1.414
		s-1.023-0.391-1.414,0l-3,3C45.902,30.684,45.902,31.316,46.293,31.707z"/>
	<path d="M49.293,32.293l-9,9c-0.391,0.391-0.391,1.023,0,1.414C40.488,42.902,40.744,43,41,43s0.512-0.098,0.707-0.293l9-9
		c0.391-0.391,0.391-1.023,0-1.414S49.684,31.902,49.293,32.293z"/>
	<path d="M51.29,31.71C51.479,31.89,51.74,32,52,32c0.27,0,0.52-0.11,0.71-0.29C52.89,31.52,53,31.26,53,31
		c0-0.271-0.11-0.521-0.29-0.71c-0.37-0.37-1.04-0.37-1.42,0C51.109,30.479,51,30.729,51,31C51,31.26,51.109,31.52,51.29,31.71z"/>
	<path d="M59.909,11.709c-0.002-0.109-0.014-0.218-0.044-0.324l-0.146,0.042c-0.002-0.003-0.003-0.006-0.006-0.008l0.149-0.044
		C58.225,5.361,53.122,0.946,47,0.14V0L31,0v0h-0.181h-1.639H29v0.001l-14.002,0C8.069,0.013,1.959,4.689,0.142,11.362
		C0.11,11.473,0.099,11.586,0.097,11.7C0.036,11.841,0,11.996,0,12.16V14v38v8h15h16h29v-8V14v-1.84
		C60,12,59.968,11.848,59.909,11.709z M45.93,2.04c5.371,0.381,9.974,3.94,11.724,8.96H45h-0.204c-0.938-3.868-3.391-7.069-6.661-9
		h6.841L45.93,2.04z M43,14c0,0.824-0.167,1.61-0.469,2.325l-0.07,0.146c-0.016,0.036-0.034,0.071-0.051,0.107
		c-0.246,0.516-0.562,0.987-0.933,1.403c-0.003,0.003-0.006,0.007-0.009,0.01c-0.916,1.023-2.167,1.709-3.53,1.928
		c-0.052,0.008-0.104,0.017-0.157,0.024C37.523,19.978,37.263,20,37,20s-0.526-0.023-0.787-0.058
		c-0.055-0.007-0.11-0.016-0.165-0.025c-0.25-0.041-0.5-0.093-0.745-0.165c-0.01-0.003-0.021-0.005-0.032-0.008l-0.086-0.026
		C32.761,18.947,31,16.676,31,14v-1h12V14z M52.795,21.96c0.019-0.002,0.037-0.004,0.056-0.006c0.087-0.009,0.171-0.027,0.257-0.039
		c0.155-0.022,0.311-0.041,0.464-0.071c0.035-0.007,0.07-0.016,0.104-0.023c0.097-0.021,0.191-0.049,0.286-0.073
		c0.121-0.031,0.243-0.058,0.362-0.094c0.05-0.015,0.098-0.032,0.147-0.048c0.097-0.032,0.191-0.069,0.287-0.104
		c0.08-0.029,0.162-0.052,0.241-0.085V49H36V21.937c0.019,0.002,0.038,0,0.057,0.003C36.367,21.976,36.68,22,37,22
		c0.051,0,0.1-0.007,0.15-0.008c0.033-0.001,0.065-0.004,0.098-0.005c0.252-0.008,0.501-0.025,0.747-0.056
		c0.094-0.012,0.187-0.028,0.28-0.043c0.247-0.04,0.489-0.091,0.728-0.153c0.083-0.021,0.166-0.04,0.248-0.064
		c0.307-0.09,0.607-0.195,0.898-0.32c0.045-0.019,0.086-0.043,0.13-0.063c0.247-0.112,0.487-0.236,0.721-0.372
		c0.081-0.047,0.159-0.095,0.238-0.145c0.212-0.133,0.416-0.275,0.614-0.427c0.055-0.042,0.113-0.081,0.167-0.125
		c0.243-0.196,0.473-0.406,0.692-0.629c0.049-0.05,0.094-0.104,0.142-0.156c0.169-0.182,0.329-0.371,0.481-0.567
		c0.057-0.074,0.113-0.148,0.167-0.224c0.142-0.198,0.274-0.403,0.398-0.614c0.006-0.011,0.015-0.02,0.021-0.031h0.16
		c0.008,0.013,0.017,0.024,0.025,0.037c0.123,0.209,0.254,0.411,0.394,0.607c0.05,0.07,0.101,0.139,0.154,0.208
		c0.012,0.016,0.024,0.031,0.037,0.047c0.145,0.186,0.297,0.364,0.457,0.536c0.048,0.052,0.093,0.106,0.142,0.156
		c0.218,0.223,0.449,0.433,0.692,0.629c0.052,0.042,0.107,0.079,0.16,0.12c0.003,0.002,0.006,0.004,0.01,0.007
		c0.197,0.151,0.401,0.293,0.612,0.425c0.079,0.049,0.157,0.098,0.238,0.145c0.233,0.135,0.473,0.26,0.721,0.372
		c0.044,0.02,0.086,0.044,0.13,0.063c0.29,0.125,0.591,0.23,0.898,0.32c0.054,0.016,0.109,0.031,0.163,0.046
		c0.028,0.008,0.058,0.011,0.086,0.018c0.238,0.062,0.48,0.113,0.727,0.152c0.069,0.011,0.136,0.028,0.206,0.038
		c0.03,0.004,0.061,0.004,0.092,0.008C50.344,21.973,50.668,22,51,22h1C52.267,22,52.532,21.986,52.795,21.96z M28,20.239V34H18
		V20.239c0.002,0.002,0.004,0.003,0.006,0.005c0.028,0.022,0.057,0.041,0.085,0.063c0.073,0.057,0.15,0.111,0.225,0.165
		c0.145,0.105,0.293,0.205,0.445,0.3c0.076,0.048,0.151,0.095,0.229,0.14c0.047,0.027,0.092,0.057,0.139,0.084
		c0.118,0.065,0.24,0.122,0.361,0.182c0.089,0.044,0.177,0.09,0.268,0.13c0.031,0.014,0.061,0.03,0.093,0.044
		c0.097,0.042,0.198,0.075,0.297,0.113c0.101,0.039,0.202,0.077,0.305,0.112c0.098,0.033,0.196,0.066,0.296,0.095
		c0.053,0.016,0.107,0.031,0.161,0.046c0.087,0.024,0.176,0.043,0.264,0.064c0.117,0.028,0.234,0.054,0.353,0.077
		c0.089,0.017,0.177,0.031,0.267,0.045c0.07,0.011,0.141,0.02,0.212,0.029c0.082,0.01,0.163,0.023,0.246,0.031
		C22.498,21.986,22.748,22,23,22s0.502-0.014,0.75-0.038c0.083-0.008,0.164-0.021,0.246-0.031c0.071-0.009,0.141-0.018,0.212-0.029
		c0.089-0.014,0.178-0.028,0.267-0.045c0.119-0.022,0.236-0.049,0.353-0.077c0.088-0.021,0.177-0.04,0.264-0.064
		c0.054-0.015,0.107-0.03,0.161-0.046c0.1-0.029,0.198-0.062,0.296-0.095c0.103-0.035,0.204-0.073,0.305-0.112
		c0.099-0.038,0.2-0.071,0.297-0.113c0.031-0.014,0.062-0.03,0.093-0.044c0.091-0.04,0.179-0.087,0.268-0.131
		c0.121-0.059,0.243-0.116,0.36-0.181c0.047-0.026,0.093-0.057,0.139-0.084c0.077-0.045,0.153-0.092,0.228-0.14
		c0.152-0.095,0.3-0.195,0.445-0.3c0.075-0.055,0.152-0.108,0.225-0.165c0.028-0.022,0.058-0.041,0.085-0.063
		C27.996,20.242,27.998,20.241,28,20.239z M17,13h12v1c0,1.238-0.377,2.389-1.022,3.346l-0.013,0.018
		c-0.032,0.047-0.069,0.091-0.103,0.137c-0.109,0.151-0.224,0.297-0.346,0.436c-0.04,0.046-0.082,0.091-0.123,0.135
		c-0.118,0.127-0.241,0.249-0.369,0.365c-0.039,0.035-0.076,0.071-0.116,0.105c-0.347,0.298-0.724,0.557-1.126,0.768
		c-0.017,0.009-0.034,0.016-0.051,0.025c-0.182,0.093-0.368,0.176-0.558,0.251c-0.045,0.018-0.091,0.034-0.137,0.05
		c-0.166,0.06-0.334,0.112-0.504,0.158c-0.056,0.015-0.113,0.03-0.17,0.044c-0.168,0.039-0.339,0.07-0.511,0.094
		c-0.056,0.008-0.111,0.019-0.168,0.026C23.458,19.984,23.23,20,23,20s-0.458-0.016-0.683-0.042
		c-0.057-0.006-0.112-0.018-0.168-0.026c-0.172-0.025-0.343-0.055-0.511-0.094c-0.057-0.013-0.113-0.029-0.17-0.044
		c-0.171-0.045-0.339-0.098-0.504-0.158c-0.046-0.017-0.092-0.033-0.137-0.05c-0.19-0.074-0.376-0.157-0.558-0.251
		c-0.017-0.009-0.035-0.016-0.051-0.025c-0.402-0.211-0.779-0.47-1.126-0.768c-0.04-0.034-0.077-0.07-0.116-0.105
		c-0.128-0.116-0.251-0.238-0.369-0.365c-0.042-0.045-0.083-0.089-0.123-0.135c-0.122-0.139-0.237-0.285-0.346-0.436
		c-0.033-0.046-0.07-0.09-0.103-0.137l-0.013-0.018C17.377,16.389,17,15.238,17,14V13z M31,2.001
		C36.511,2.08,41.259,5.776,42.742,11H31V2.001z M29,11H17.258C18.741,5.776,23.489,2.08,29,2.001V11z M15.023,2h6.841
		c-3.27,1.931-5.723,5.132-6.661,9H15H2.348C4.212,5.666,9.288,2.011,15.023,2z M2,13h12.802H15v1c0,2.676-1.761,4.947-4.185,5.718
		l-0.086,0.026c-0.01,0.003-0.021,0.005-0.032,0.008c-0.245,0.072-0.494,0.125-0.745,0.165c-0.055,0.009-0.109,0.018-0.165,0.025
		C9.526,19.977,9.263,20,9,20H8c-0.275,0-0.546-0.025-0.814-0.062c-0.065-0.009-0.129-0.019-0.193-0.03
		c-0.266-0.045-0.53-0.102-0.786-0.183c-0.004-0.001-0.007-0.003-0.01-0.004c-0.259-0.082-0.51-0.186-0.756-0.303
		c-0.046-0.022-0.092-0.043-0.137-0.066c-0.246-0.125-0.486-0.264-0.716-0.424C3.026,17.844,2,16.041,2,14V13z M5,21.416
		c0.079,0.032,0.161,0.055,0.241,0.085c0.096,0.035,0.19,0.072,0.287,0.104c0.049,0.016,0.097,0.033,0.147,0.048
		c0.12,0.036,0.241,0.063,0.362,0.094c0.095,0.024,0.189,0.052,0.286,0.073c0.035,0.008,0.069,0.016,0.104,0.023
		c0.153,0.031,0.309,0.05,0.464,0.071c0.086,0.012,0.17,0.03,0.257,0.039c0.019,0.002,0.037,0.005,0.056,0.006
		C7.468,21.986,7.733,22,8,22h1c0.316,0,0.627-0.023,0.934-0.059c0.022-0.003,0.044-0.001,0.066-0.004V49H5V21.416z M2,54h3v4H2V54z
		 M9,54v4H7v-4H9z M11,58v-4h2v4H11z M55,54v4h-2v-4H55z M51,58h-2v-4h2V58z M47,58h-2v-4h2V58z M43,58h-2v-4h2V58z M39,58h-2v-4h2
		V58z M35,58h-2v-4h2V58z M58,58h-1v-4h1V58z M58,19.286V52H31v6H15v-6H2V19.286c0.05,0.057,0.108,0.108,0.16,0.163
		c0.102,0.109,0.205,0.217,0.313,0.321c0.086,0.083,0.175,0.162,0.265,0.241C2.824,20.086,2.91,20.163,3,20.235V51h9V21.411
		c0.05-0.02,0.1-0.038,0.149-0.059c0.045-0.019,0.086-0.043,0.13-0.063c0.247-0.112,0.487-0.236,0.721-0.372
		c0.081-0.047,0.159-0.095,0.238-0.145c0.212-0.133,0.416-0.275,0.614-0.427c0.055-0.042,0.113-0.081,0.167-0.125
		c0.243-0.196,0.473-0.406,0.692-0.629c0.049-0.05,0.094-0.104,0.142-0.156c0.169-0.182,0.329-0.371,0.481-0.567
		c0.057-0.074,0.113-0.148,0.167-0.224c0.157-0.219,0.303-0.445,0.437-0.679c0.019-0.033,0.043-0.063,0.062-0.096V36h14V17.87
		c0.019,0.033,0.043,0.063,0.062,0.096c0.134,0.234,0.281,0.46,0.437,0.679c0.054,0.076,0.11,0.15,0.167,0.224
		c0.152,0.197,0.312,0.386,0.481,0.567c0.048,0.052,0.093,0.106,0.142,0.156c0.218,0.223,0.449,0.433,0.692,0.629
		c0.054,0.044,0.112,0.083,0.167,0.125c0.198,0.152,0.402,0.294,0.614,0.427c0.079,0.049,0.157,0.098,0.238,0.145
		c0.233,0.135,0.473,0.26,0.721,0.372c0.044,0.02,0.086,0.044,0.13,0.063c0.049,0.021,0.1,0.039,0.149,0.059V51h23V20.235
		c0.09-0.072,0.175-0.148,0.262-0.224c0.09-0.079,0.179-0.158,0.265-0.241c0.108-0.104,0.211-0.211,0.313-0.321
		C57.892,19.394,57.95,19.343,58,19.286z M55.413,18.929c-0.23,0.16-0.47,0.299-0.716,0.424c-0.045,0.023-0.091,0.044-0.137,0.066
		c-0.246,0.117-0.497,0.221-0.756,0.303c-0.004,0.001-0.007,0.003-0.01,0.004c-0.257,0.081-0.52,0.138-0.786,0.183
		c-0.064,0.011-0.129,0.021-0.193,0.03C52.546,19.975,52.275,20,52,20h-1c-0.263,0-0.523-0.022-0.781-0.057
		c-0.053-0.007-0.105-0.016-0.157-0.024c-1.363-0.22-2.614-0.906-3.53-1.928c-0.003-0.003-0.006-0.007-0.009-0.01
		c-0.371-0.416-0.687-0.887-0.933-1.403c-0.017-0.036-0.035-0.071-0.051-0.107l-0.07-0.146C45.167,15.61,45,14.824,45,14v-1h0.198
		H58v1C58,16.041,56.974,17.844,55.413,18.929z"/>
	<rect x="13" y="23" width="2" height="27"/>
	<rect x="31" y="23" width="2" height="27"/>
</g>
<g>
</g>
<g>
</g>
<g>
</g>
<g>
</g>
<g>
</g>
<g>
</g>
<g>
</g>
<g>
</g>
<g>
</g>
<g>
</g>
<g>
</g>
<g>
</g>
<g>
</g>
<g>
</g>
<g>
</g>
</svg>
