<?xml version="1.0" encoding="iso-8859-1"?>
<!-- Generator: Adobe Illustrator 19.0.0, SVG Export Plug-In . SVG Version: 6.00 Build 0)  -->
<svg version="1.1" id="Layer_1" xmlns="http://www.w3.org/2000/svg" xmlns:xlink="http://www.w3.org/1999/xlink" x="0px" y="0px"
	 viewBox="0 0 512 512" style="enable-background:new 0 0 512 512;" xml:space="preserve">
<g>
	<g>
		<g>
			<path d="M414.897,247.172v88.276c0,8.828-11.476,17.655-22.069,17.655c-10.593,0-22.069-8.828-22.069-17.655V240.11
				l-52.083,31.779l-45.021-33.545v92.69c0,64.441,57.379,119.172,123.586,119.172c64.441,0,114.759-52.966,114.759-120.055v-82.979
				H414.897z M494.345,330.152c0,58.262-41.49,102.4-97.103,102.4c-57.379,0-105.931-46.786-105.931-101.517v-57.379l25.6,19.421
				l36.193-21.186v63.559c0,20.303,21.186,35.31,39.724,35.31s39.724-15.007,39.724-35.31v-70.621h61.793V330.152z"/>
			<path d="M273.655,207.448l43.255,32.662l53.848-31.779v-37.076C368.993,106.814,321.324,61.793,256,61.793
				s-112.11,45.021-114.759,108.579v158.897c0,8.828-11.476,15.007-22.069,15.007c-10.593,0-22.069-7.062-22.069-15.007v-82.097H0
				v82.979c0,65.324,56.497,120.055,123.586,120.055c66.207,0,122.703-53.848,123.586-118.29V174.786
				c0-15.89,7.945-15.89,11.476-15.89c14.124,0,15.007,12.359,15.007,15.89V207.448z M258.648,141.241
				c-17.655,0-29.131,13.241-29.131,33.545v157.131c-0.883,54.731-49.434,100.634-105.931,100.634
				c-57.379,0-105.931-46.786-105.931-102.4v-65.324h61.793v64.441c0,20.303,20.303,32.662,39.724,33.545
				c19.421,0,39.724-12.359,39.724-32.662V171.255c1.766-53.848,41.49-91.807,97.103-91.807s95.338,37.959,97.103,91.807v26.483
				l-34.428,21.186l-27.365-20.303v-23.834C291.31,155.366,278.069,141.241,258.648,141.241z"/>
		</g>
	</g>
</g>
<g>
</g>
<g>
</g>
<g>
</g>
<g>
</g>
<g>
</g>
<g>
</g>
<g>
</g>
<g>
</g>
<g>
</g>
<g>
</g>
<g>
</g>
<g>
</g>
<g>
</g>
<g>
</g>
<g>
</g>
</svg>
