<?xml version="1.0" encoding="iso-8859-1"?>
<!-- Generator: Adobe Illustrator 18.0.0, SVG Export Plug-In . SVG Version: 6.00 Build 0)  -->
<!DOCTYPE svg PUBLIC "-//W3C//DTD SVG 1.1//EN" "http://www.w3.org/Graphics/SVG/1.1/DTD/svg11.dtd">
<svg version="1.1" id="Capa_1" xmlns="http://www.w3.org/2000/svg" xmlns:xlink="http://www.w3.org/1999/xlink" x="0px" y="0px"
	 viewBox="0 0 60 60" style="enable-background:new 0 0 60 60;" xml:space="preserve">
<path d="M55.842,6H40V4.363C40,1.957,38.043,0,35.637,0H24.363C21.957,0,20,1.957,20,4.363V6H4.158C1.865,6,0,7.865,0,10.158v5.684
	v37.817c0,1.725,1.32,3.133,3,3.306v1.052C3,59.11,3.89,60,4.982,60h2.035C8.11,60,9,59.11,9,58.018V57h2h11h16h11h2v1.018
	C51,59.11,51.89,60,52.982,60h2.035C56.11,60,57,59.11,57,58.018v-1.052c1.68-0.174,3-1.581,3-3.306V15.842v-5.684
	C60,7.865,58.135,6,55.842,6z M55.842,8C57.032,8,58,8.968,58,10.158V12h-3v-2H45v2h-5V8H55.842z M47,14v-2h3v2H47z M52,12h1v2h-1
	V12z M22,4.363C22,3.061,23.061,2,24.363,2h11.273C36.939,2,38,3.061,38,4.363V6v6h-2V5.633C36,4.732,35.268,4,34.367,4h-8.734
	C24.732,4,24,4.732,24,5.633V12h-2V6V4.363z M34,12h-8V6h8V12z M4.158,8H20v4h-5v-2H5v2H2v-1.842C2,8.968,2.968,8,4.158,8z M7,14v-2
	h1v2H7z M10,12h3v2h-3V12z M7,58l-2,0.018V57h2V58z M9,55H3.341C2.602,55,2,54.398,2,53.659V19.395
	c0.166,0.101,0.34,0.189,0.52,0.267c0.032,0.014,0.067,0.023,0.1,0.036c0.193,0.077,0.393,0.138,0.6,0.186
	c0.064,0.015,0.128,0.029,0.193,0.041C3.655,19.969,3.903,20,4.158,20H11v35H9z M13,55V20h7v35H13z M22,55V20h16v35H22z M40,55V20h7
	v35H40z M55,58l-2,0.018V57h2V58z M58,53.659C58,54.398,57.398,55,56.659,55H51h-2V20h6.842c0.256,0,0.503-0.031,0.746-0.075
	c0.065-0.012,0.129-0.026,0.193-0.041c0.206-0.048,0.407-0.109,0.6-0.187c0.033-0.013,0.067-0.022,0.1-0.036
	c0.18-0.077,0.354-0.166,0.52-0.267V53.659z M55.842,18H49H38H22H11H4.158C2.968,18,2,17.032,2,15.842V14h3v2h10v-2h5h6h8h6h5v2h10
	v-2h3v1.842C58,17.032,57.032,18,55.842,18z"/>
<g>
</g>
<g>
</g>
<g>
</g>
<g>
</g>
<g>
</g>
<g>
</g>
<g>
</g>
<g>
</g>
<g>
</g>
<g>
</g>
<g>
</g>
<g>
</g>
<g>
</g>
<g>
</g>
<g>
</g>
</svg>
