<?xml version="1.0" encoding="iso-8859-1"?>
<!-- Generator: Adobe Illustrator 18.0.0, SVG Export Plug-In . SVG Version: 6.00 Build 0)  -->
<!DOCTYPE svg PUBLIC "-//W3C//DTD SVG 1.1//EN" "http://www.w3.org/Graphics/SVG/1.1/DTD/svg11.dtd">
<svg version="1.1" id="Capa_1" xmlns="http://www.w3.org/2000/svg" xmlns:xlink="http://www.w3.org/1999/xlink" x="0px" y="0px"
	 viewBox="0 0 60 60" style="enable-background:new 0 0 60 60;" xml:space="preserve">
<g>
	<path d="M60,11h-4h-1.5h-4h-1h-4h-1H44V8h-2V6.889C42,3.09,38.91,0,35.111,0H24.889C21.09,0,18,3.09,18,6.889V8h-2v3h-0.5h-1h-4h-1
		h-4H4H0v4.245c0,2.213,0.356,4.342,1,6.343v29.796c0,2.018,1.367,3.768,3.324,4.257L13.755,58c5.3,1.325,10.751,1.988,16.203,1.992
		C29.973,59.992,29.985,60,30,60s0.027-0.008,0.042-0.008c5.452-0.003,10.903-0.667,16.203-1.992l9.431-2.358
		C57.633,55.152,59,53.402,59,51.385V21.588c0.644-2.001,1-4.131,1-6.343V11z M42,11h-1.5h-1H36v-1h6V11z M30.5,11h-1H26V8h-2V6.444
		c0-0.271,0.175-0.417,0.25-0.468c0.074-0.051,0.275-0.155,0.527-0.053c3.369,1.393,7.078,1.393,10.445,0
		c0.25-0.102,0.453,0.002,0.527,0.053C35.825,6.027,36,6.173,36,6.444V8h-2v3H30.5z M20,6.889C20,4.193,22.193,2,24.889,2h10.223
		C37.807,2,40,4.193,40,6.889V8h-2V6.444c0-0.857-0.426-1.653-1.138-2.13c-0.713-0.478-1.612-0.565-2.403-0.238
		c-2.875,1.188-6.043,1.188-8.918,0c-0.792-0.328-1.69-0.24-2.403,0.238C22.426,4.791,22,5.587,22,6.444V8h-2V6.889z M18,10h6v1
		h-3.5h-1H18V10z M2,13h2.153c0.174,0.294,0.48,0.5,0.847,0.5c0.368,0,0.682-0.204,0.856-0.5H9.5h1h4h1H16h3.5h1h4h1H26h3.5h1H34
		h0.5h1h4h1H44h0.5h1h4h1h3.644c0.174,0.296,0.488,0.5,0.856,0.5c0.366,0,0.673-0.206,0.847-0.5H58v2.245
		C58,25.587,49.587,34,39.245,34H36v-6H24v6h-3.245C10.413,34,2,25.587,2,15.245V13z M34,36v3h-8v-3v-6h8V36z M7,54.25V53.35
		c0-0.553-0.447-1-1-1s-1,0.447-1,1v0.4l-0.191-0.048C3.744,53.436,3,52.482,3,51.385V25.938c0.594,0.982,1.257,1.915,2,2.782v0.63
		c0,0.553,0.447,1,1,1c0.16,0,0.306-0.046,0.441-0.113C10.168,33.798,15.205,36,20.755,36H24v5h5v16.977
		c-4.969-0.076-9.929-0.709-14.761-1.917L7,54.25z M57,51.385c0,1.098-0.744,2.051-1.809,2.317l-0.245,0.061
		c-0.119-0.42-0.488-0.733-0.946-0.733c-0.553,0-1,0.447-1,1v0.22l-7.239,1.81c-4.832,1.207-9.792,1.841-14.761,1.917V41h5v-5h3.245
		c5.368,0,10.251-2.066,13.94-5.423c0.18,0.267,0.469,0.453,0.815,0.453c0.553,0,1-0.447,1-1v-1c0-0.09-0.029-0.171-0.051-0.254
		c0.763-0.884,1.444-1.834,2.051-2.838V51.385z"/>
	<path d="M28.568,36H29v1c0,0.553,0.447,1,1,1s1-0.447,1-1v-1h0.432C32.297,36,33,35.297,33,34.432v-1.863
		C33,31.703,32.297,31,31.432,31h-2.863C27.703,31,27,31.703,27,32.568v1.863C27,35.297,27.703,36,28.568,36z M29,33h2v1h-2V33z"/>
	<path d="M38,32h0.5c0.553,0,1-0.447,1-1s-0.447-1-1-1H38c-0.553,0-1,0.447-1,1S37.447,32,38,32z"/>
	<path d="M42.376,31.688c0.065,0,0.132-0.006,0.199-0.02c0.341-0.069,0.679-0.148,1.012-0.239c0.533-0.146,0.848-0.695,0.702-1.228
		c-0.146-0.534-0.698-0.848-1.228-0.702c-0.29,0.079-0.585,0.148-0.883,0.208c-0.541,0.109-0.892,0.637-0.782,1.179
		C41.492,31.36,41.91,31.688,42.376,31.688z"/>
	<path d="M46.924,30.002c0.165,0,0.333-0.041,0.487-0.128c0.303-0.169,0.598-0.346,0.889-0.533c0.464-0.298,0.599-0.917,0.3-1.382
		c-0.298-0.464-0.915-0.601-1.382-0.3c-0.256,0.164-0.518,0.321-0.783,0.471c-0.482,0.27-0.654,0.879-0.384,1.36
		C46.233,29.818,46.573,30.002,46.924,30.002z"/>
	<path d="M53.052,22.919c0.14,0.066,0.286,0.098,0.431,0.098c0.373,0,0.731-0.21,0.903-0.568c0.148-0.311,0.287-0.626,0.417-0.945
		c0.208-0.512-0.039-1.095-0.551-1.303c-0.51-0.207-1.095,0.038-1.303,0.551c-0.114,0.282-0.237,0.561-0.368,0.834
		C52.343,22.083,52.554,22.681,53.052,22.919z"/>
	<path d="M50.743,27.015c0.267,0,0.532-0.106,0.729-0.315c0.235-0.251,0.463-0.509,0.684-0.774c0.354-0.425,0.296-1.055-0.129-1.408
		c-0.425-0.354-1.057-0.294-1.408,0.129c-0.195,0.234-0.397,0.463-0.605,0.685c-0.378,0.403-0.357,1.036,0.045,1.414
		C50.252,26.925,50.498,27.015,50.743,27.015z"/>
	<path d="M54.74,18.363c0.046,0.006,0.091,0.009,0.135,0.009c0.493,0,0.923-0.364,0.99-0.866c0.046-0.34,0.082-0.684,0.106-1.029
		c0.04-0.551-0.374-1.03-0.925-1.069c-0.54-0.034-1.029,0.374-1.069,0.925c-0.022,0.305-0.055,0.607-0.095,0.906
		C53.81,17.786,54.193,18.289,54.74,18.363z"/>
	<path d="M16.407,31.429c0.332,0.089,0.668,0.168,1.008,0.237c0.067,0.014,0.135,0.021,0.201,0.021c0.465,0,0.882-0.326,0.979-0.8
		c0.11-0.541-0.238-1.069-0.779-1.18c-0.301-0.062-0.596-0.131-0.889-0.21c-0.53-0.141-1.081,0.173-1.226,0.706
		C15.558,30.736,15.874,31.285,16.407,31.429z"/>
	<path d="M7.414,21.576c-0.132-0.274-0.254-0.552-0.368-0.834c-0.207-0.512-0.789-0.76-1.302-0.552
		c-0.512,0.207-0.759,0.79-0.552,1.302c0.13,0.321,0.27,0.638,0.419,0.949c0.172,0.358,0.529,0.567,0.902,0.567
		c0.145,0,0.292-0.031,0.432-0.099C7.443,22.671,7.653,22.074,7.414,21.576z"/>
	<path d="M8.521,26.694c0.197,0.209,0.463,0.315,0.729,0.315c0.245,0,0.491-0.09,0.685-0.271c0.402-0.378,0.423-1.011,0.045-1.414
		c-0.209-0.222-0.41-0.449-0.604-0.684c-0.354-0.426-0.983-0.486-1.408-0.133c-0.426,0.353-0.484,0.983-0.133,1.408
		C8.057,26.183,8.285,26.441,8.521,26.694z"/>
	<path d="M11.694,29.337c0.29,0.188,0.586,0.365,0.889,0.534c0.154,0.087,0.322,0.128,0.487,0.128c0.351,0,0.69-0.184,0.873-0.512
		c0.271-0.481,0.099-1.091-0.384-1.36c-0.266-0.149-0.526-0.306-0.781-0.47c-0.465-0.3-1.084-0.167-1.382,0.298
		C11.097,28.419,11.23,29.038,11.694,29.337z"/>
	<path d="M5.264,18.354c0.547-0.076,0.929-0.582,0.852-1.129c-0.042-0.299-0.072-0.6-0.095-0.902
		c-0.04-0.552-0.522-0.97-1.069-0.925c-0.551,0.039-0.965,0.519-0.925,1.069c0.024,0.348,0.061,0.693,0.108,1.035
		c0.07,0.5,0.498,0.861,0.989,0.861C5.17,18.363,5.217,18.36,5.264,18.354z"/>
	<path d="M21.5,32H22c0.553,0,1-0.447,1-1s-0.447-1-1-1h-0.5c-0.553,0-1,0.447-1,1S20.947,32,21.5,32z"/>
	<path d="M54,48.03c-0.553,0-1,0.447-1,1v1c0,0.553,0.447,1,1,1s1-0.447,1-1v-1C55,48.478,54.553,48.03,54,48.03z"/>
	<path d="M54,33.03c-0.553,0-1,0.447-1,1v1c0,0.553,0.447,1,1,1s1-0.447,1-1v-1C55,33.478,54.553,33.03,54,33.03z"/>
	<path d="M54,38.03c-0.553,0-1,0.447-1,1v1c0,0.553,0.447,1,1,1s1-0.447,1-1v-1C55,38.478,54.553,38.03,54,38.03z"/>
	<path d="M54,43.03c-0.553,0-1,0.447-1,1v1c0,0.553,0.447,1,1,1s1-0.447,1-1v-1C55,43.478,54.553,43.03,54,43.03z"/>
	<path d="M6,47.35c-0.553,0-1,0.447-1,1v1c0,0.553,0.447,1,1,1s1-0.447,1-1v-1C7,47.797,6.553,47.35,6,47.35z"/>
	<path d="M6,42.35c-0.553,0-1,0.447-1,1v1c0,0.553,0.447,1,1,1s1-0.447,1-1v-1C7,42.797,6.553,42.35,6,42.35z"/>
	<path d="M6,32.35c-0.553,0-1,0.447-1,1v1c0,0.553,0.447,1,1,1s1-0.447,1-1v-1C7,32.797,6.553,32.35,6,32.35z"/>
	<path d="M6,37.35c-0.553,0-1,0.447-1,1v1c0,0.553,0.447,1,1,1s1-0.447,1-1v-1C7,37.797,6.553,37.35,6,37.35z"/>
	<path d="M36,16H24v6h12V16z M34,20h-8v-2h8V20z"/>
</g>
<g>
</g>
<g>
</g>
<g>
</g>
<g>
</g>
<g>
</g>
<g>
</g>
<g>
</g>
<g>
</g>
<g>
</g>
<g>
</g>
<g>
</g>
<g>
</g>
<g>
</g>
<g>
</g>
<g>
</g>
</svg>
