<?xml version="1.0" encoding="iso-8859-1"?>
<!-- Generator: Adobe Illustrator 18.0.0, SVG Export Plug-In . SVG Version: 6.00 Build 0)  -->
<!DOCTYPE svg PUBLIC "-//W3C//DTD SVG 1.1//EN" "http://www.w3.org/Graphics/SVG/1.1/DTD/svg11.dtd">
<svg version="1.1" id="Capa_1" xmlns="http://www.w3.org/2000/svg" xmlns:xlink="http://www.w3.org/1999/xlink" x="0px" y="0px"
	 viewBox="0 0 60 60" style="enable-background:new 0 0 60 60;" xml:space="preserve">
<g>
	<path d="M54.426,12h-0.427H47c0.553,0,1-0.447,1-1s-0.447-1-1-1h-1c-0.553,0-1,0.447-1,1s0.447,1,1,1h-2V9h-2V7.889
		C42,4.09,38.91,1,35.111,1H24.889C21.09,1,18,4.09,18,7.889V9h-2v3h-2c0.553,0,1-0.447,1-1s-0.447-1-1-1h-1c-0.553,0-1,0.447-1,1
		s0.447,1,1,1H6.001H5.574C2.501,12,0,14.501,0,17.574V20v8v12v8v2.426c0,2.145,1.22,4.007,3,4.939V59h9v-3h36v3h9v-3.635
		c1.78-0.932,3-2.795,3-4.939V48v-8V28v-8v-2.426C60,14.501,57.499,12,54.426,12z M42,12h-6v-1h6V12z M36,9h-2v3h-8V9h-2V7.444
		c0-0.271,0.175-0.417,0.25-0.468c0.074-0.052,0.276-0.155,0.527-0.053c3.369,1.393,7.078,1.393,10.445,0
		c0.251-0.102,0.453,0.002,0.527,0.053C35.825,7.027,36,7.173,36,7.444V9z M20,7.889C20,5.193,22.193,3,24.889,3h10.223
		C37.807,3,40,5.193,40,7.889V9h-2V7.444c0-0.857-0.426-1.653-1.138-2.13c-0.712-0.478-1.612-0.566-2.403-0.238
		c-2.875,1.188-6.043,1.188-8.918,0c-0.792-0.329-1.69-0.24-2.403,0.238C22.426,5.791,22,6.587,22,7.444V9h-2V7.889z M18,11h6v1h-6
		V11z M2,25h56v1H2V25z M58,23H2v-1h56V23z M2,45h56v1H2V45z M58,43H2v-1h56V43z M10,57H5v-1h0.574H10V57z M55,56v1h-5v-1h4.426H55z
		 M58,50.426C58,52.396,56.396,54,54.426,54H48H12H5.574C3.604,54,2,52.396,2,50.426V48h56V50.426z M58,40H2V28h56V40z M2,20v-2.426
		C2,15.604,3.604,14,5.574,14H16h10h8h10h10.426C56.396,14,58,15.604,58,17.574V20H2z"/>
	<path d="M12.447,8.895c0.494-0.247,0.694-0.848,0.447-1.342c-0.248-0.494-0.847-0.692-1.342-0.447l-6,3
		c-0.494,0.247-0.694,0.848-0.447,1.342C5.281,11.798,5.634,12,6.001,12c0.15,0,0.303-0.034,0.446-0.105L12.447,8.895z"/>
	<path d="M54.895,11.447c0.247-0.494,0.047-1.095-0.447-1.342l-6-3c-0.493-0.245-1.094-0.047-1.342,0.447
		c-0.247,0.494-0.047,1.095,0.447,1.342l6,3C53.696,11.966,53.849,12,53.999,12C54.366,12,54.719,11.798,54.895,11.447z"/>
</g>
<g>
</g>
<g>
</g>
<g>
</g>
<g>
</g>
<g>
</g>
<g>
</g>
<g>
</g>
<g>
</g>
<g>
</g>
<g>
</g>
<g>
</g>
<g>
</g>
<g>
</g>
<g>
</g>
<g>
</g>
</svg>
