<?xml version="1.0" encoding="iso-8859-1"?>
<!-- Generator: Adobe Illustrator 18.0.0, SVG Export Plug-In . SVG Version: 6.00 Build 0)  -->
<!DOCTYPE svg PUBLIC "-//W3C//DTD SVG 1.1//EN" "http://www.w3.org/Graphics/SVG/1.1/DTD/svg11.dtd">
<svg version="1.1" id="Capa_1" xmlns="http://www.w3.org/2000/svg" xmlns:xlink="http://www.w3.org/1999/xlink" x="0px" y="0px"
	 viewBox="0 0 59.99 59.99" style="enable-background:new 0 0 59.99 59.99;" xml:space="preserve">
<g>
	<path d="M1.005,31c0.552,0,1-0.447,1-1c0-15.439,12.561-28,28-28c6.327,0,12.378,2.115,17.302,6h-5.302c-0.552,0-1,0.447-1,1
		s0.448,1,1,1h7.915c0.066,0.006,0.128,0.007,0.193,0h0.891V1c0-0.553-0.448-1-1-1s-1,0.447-1,1v5.81
		C43.648,2.408,36.986,0,30.005,0c-16.542,0-30,13.458-30,30C0.005,30.553,0.453,31,1.005,31z"/>
	<path d="M30.005,8c-12.131,0-22,9.869-22,22s9.869,22,22,22s22-9.869,22-22S42.136,8,30.005,8z M30.005,50
		c-11.028,0-20-8.972-20-20s8.972-20,20-20s20,8.972,20,20S41.033,50,30.005,50z"/>
	<path d="M30.005,15c0.552,0,1-0.447,1-1v-2c0-0.553-0.448-1-1-1s-1,0.447-1,1v2C29.005,14.553,29.453,15,30.005,15z"/>
	<path d="M30.005,45c-0.552,0-1,0.447-1,1v2c0,0.553,0.448,1,1,1s1-0.447,1-1v-2C31.005,45.447,30.557,45,30.005,45z"/>
	<path d="M46.005,31h2c0.552,0,1-0.447,1-1s-0.448-1-1-1h-2c-0.552,0-1,0.447-1,1S45.453,31,46.005,31z"/>
	<path d="M14.005,29h-2c-0.552,0-1,0.447-1,1s0.448,1,1,1h2c0.552,0,1-0.447,1-1S14.557,29,14.005,29z"/>
	<path d="M31.005,25.142V20c0-0.553-0.448-1-1-1s-1,0.447-1,1v5.142c-1.72,0.447-3,1.999-3,3.858c0,0.74,0.215,1.424,0.567,2.019
		l-8.274,8.274c-0.391,0.391-0.391,1.023,0,1.414C18.493,40.902,18.749,41,19.005,41s0.512-0.098,0.707-0.293l8.274-8.274
		C28.581,32.785,29.265,33,30.005,33c2.206,0,4-1.794,4-4C34.005,27.141,32.725,25.589,31.005,25.142z M30.005,31
		c-1.103,0-2-0.897-2-2s0.897-2,2-2s2,0.897,2,2S31.108,31,30.005,31z"/>
	<path d="M11.894,52.66c-0.33,0.439-0.24,1.069,0.21,1.399c0.17,0.13,0.38,0.19,0.59,0.19c0.31,0,0.61-0.13,0.81-0.4
		c0.32-0.439,0.23-1.069-0.21-1.399C12.854,52.12,12.225,52.21,11.894,52.66z"/>
	<path d="M7.235,46.27c-0.32-0.439-0.95-0.55-1.4-0.229c-0.45,0.33-0.55,0.95-0.23,1.399c0.2,0.271,0.5,0.42,0.82,0.42
		c0.2,0,0.4-0.06,0.58-0.189C7.454,47.35,7.555,46.72,7.235,46.27z"/>
	<path d="M7.624,48.45c-0.41,0.369-0.45,1-0.08,1.409c0.19,0.23,0.47,0.341,0.75,0.341c0.23,0,0.47-0.08,0.66-0.25
		c0.41-0.37,0.45-1,0.08-1.41C8.675,48.12,8.045,48.09,7.624,48.45z"/>
	<path d="M11.065,50.6c-0.4-0.37-1.04-0.34-1.41,0.061c-0.38,0.409-0.35,1.04,0.06,1.42c0.19,0.17,0.43,0.26,0.67,0.26
		c0.27,0,0.54-0.11,0.74-0.32c0.37-0.41,0.35-1.04-0.06-1.41C11.065,50.6,11.065,50.6,11.065,50.6z"/>
	<path d="M5.675,43.84c-0.01,0-0.01,0-0.01,0c-0.27-0.48-0.88-0.65-1.36-0.37c-0.48,0.271-0.65,0.88-0.37,1.36
		c0.18,0.319,0.52,0.5,0.87,0.5c0.16,0,0.34-0.04,0.49-0.13C5.775,44.93,5.945,44.319,5.675,43.84z"/>
	<path d="M58.945,32.12c0.02,0,0.03,0,0.04,0c0.54,0,0.98-0.431,1-0.96c0.02-0.561-0.41-1.021-0.96-1.04
		c-0.55-0.021-1.02,0.41-1.04,0.96S58.394,32.1,58.945,32.12z"/>
	<path d="M1.265,33.99c0.55-0.061,0.95-0.551,0.89-1.101s-0.55-0.95-1.1-0.89c-0.55,0.05-0.95,0.55-0.89,1.09
		c0.05,0.52,0.49,0.9,0.99,0.9C1.195,33.99,1.225,33.99,1.265,33.99z"/>
	<path d="M1.825,36.93c0.54-0.11,0.89-0.64,0.77-1.18c-0.11-0.54-0.64-0.891-1.18-0.771c-0.54,0.11-0.89,0.641-0.77,1.181
		c0.09,0.47,0.51,0.79,0.97,0.79C1.684,36.95,1.755,36.95,1.825,36.93z"/>
	<path d="M4.365,41.25c-0.22-0.5-0.81-0.73-1.32-0.51c-0.5,0.22-0.73,0.81-0.51,1.319c0.17,0.37,0.53,0.601,0.92,0.601
		c0.13,0,0.27-0.03,0.4-0.091C4.354,42.35,4.584,41.76,4.365,41.25z"/>
	<path d="M3.334,38.55c-0.16-0.53-0.73-0.82-1.25-0.65c-0.53,0.17-0.82,0.73-0.65,1.261c0.14,0.42,0.53,0.689,0.95,0.689
		c0.1,0,0.21-0.01,0.31-0.04C3.215,39.64,3.505,39.069,3.334,38.55z"/>
	<path d="M29.465,57.99c-0.55-0.011-1.01,0.43-1.02,0.979c-0.01,0.561,0.43,1.01,0.98,1.021c0.01,0,0.02,0,0.02,0
		c0.55,0,0.99-0.431,1-0.98C30.454,58.46,30.015,58,29.465,57.99z"/>
	<path d="M52.135,47.14c-0.34,0.43-0.26,1.061,0.17,1.4c0.19,0.14,0.4,0.21,0.62,0.21c0.29,0,0.59-0.13,0.79-0.391
		c0.34-0.43,0.26-1.06-0.18-1.399S52.475,46.7,52.135,47.14z"/>
	<path d="M45.834,53.08c-0.45,0.31-0.57,0.939-0.25,1.39c0.19,0.28,0.5,0.43,0.82,0.43c0.2,0,0.39-0.05,0.57-0.17
		c0.45-0.31,0.57-0.939,0.25-1.39C46.914,52.88,46.295,52.77,45.834,53.08z"/>
	<path d="M48.135,51.319c-0.42,0.36-0.47,0.99-0.11,1.41c0.2,0.23,0.48,0.351,0.76,0.351c0.23,0,0.46-0.08,0.65-0.24
		c0.42-0.36,0.47-0.99,0.11-1.41C49.184,51.01,48.555,50.96,48.135,51.319z"/>
	<path d="M55.164,44.439c-0.47-0.29-1.09-0.14-1.38,0.32c-0.29,0.47-0.15,1.09,0.32,1.38c0.17,0.101,0.35,0.15,0.53,0.15
		c0.33,0,0.66-0.16,0.85-0.471C55.775,45.35,55.635,44.729,55.164,44.439z"/>
	<path d="M50.245,49.33c-0.39,0.399-0.37,1.029,0.03,1.41c0.19,0.189,0.44,0.279,0.69,0.279c0.26,0,0.53-0.1,0.72-0.31
		c0.38-0.4,0.37-1.03-0.03-1.41S50.624,48.93,50.245,49.33z"/>
	<path d="M58.854,33.109c-0.54-0.079-1.05,0.311-1.13,0.851c-0.08,0.55,0.3,1.05,0.85,1.13c0.05,0.01,0.1,0.01,0.14,0.01
		c0.49,0,0.92-0.359,0.99-0.859C59.785,33.7,59.405,33.189,58.854,33.109z"/>
	<path d="M58.385,36.069c-0.54-0.13-1.08,0.2-1.22,0.73c-0.13,0.54,0.2,1.08,0.73,1.22c0.08,0.021,0.16,0.03,0.24,0.03
		c0.45,0,0.86-0.31,0.97-0.76C59.245,36.75,58.914,36.21,58.385,36.069z"/>
	<path d="M15.704,54.06c-0.48-0.279-1.09-0.13-1.37,0.351c-0.29,0.47-0.13,1.09,0.34,1.37c0.16,0.1,0.34,0.14,0.51,0.14
		c0.34,0,0.67-0.17,0.86-0.49C16.334,54.96,16.175,54.35,15.704,54.06z"/>
	<path d="M57.604,38.97c-0.52-0.189-1.1,0.08-1.28,0.6c-0.19,0.521,0.07,1.091,0.59,1.28c0.11,0.04,0.23,0.061,0.34,0.061
		c0.41,0,0.8-0.25,0.94-0.66C58.385,39.729,58.124,39.16,57.604,38.97z"/>
	<path d="M56.525,41.77c-0.49-0.239-1.1-0.04-1.34,0.46c-0.24,0.5-0.03,1.101,0.46,1.34c0.14,0.07,0.29,0.101,0.44,0.101
		c0.37,0,0.73-0.21,0.9-0.561C57.225,42.609,57.025,42.01,56.525,41.77z"/>
	<path d="M26.575,57.79c-0.55-0.07-1.04,0.319-1.11,0.87c-0.07,0.55,0.32,1.05,0.87,1.109v0.011c0.04,0,0.08,0,0.12,0
		c0.5,0,0.93-0.37,0.99-0.881C27.515,58.35,27.124,57.859,26.575,57.79z"/>
	<path d="M20.945,56.5c-0.52-0.181-1.09,0.09-1.27,0.62c-0.18,0.52,0.1,1.09,0.62,1.27c0.11,0.03,0.22,0.05,0.33,0.05
		c0.41,0,0.8-0.26,0.94-0.67C21.745,57.24,21.465,56.67,20.945,56.5z"/>
	<path d="M23.725,57.29c-0.54-0.12-1.07,0.21-1.2,0.75c-0.12,0.54,0.22,1.08,0.75,1.2c0.08,0.02,0.15,0.02,0.23,0.02
		c0.45,0,0.87-0.31,0.97-0.77C24.604,57.95,24.265,57.41,23.725,57.29z"/>
	<path d="M18.265,55.42c-0.51-0.24-1.1-0.021-1.33,0.479s-0.02,1.101,0.48,1.33c0.14,0.061,0.28,0.09,0.42,0.09
		c0.38,0,0.74-0.21,0.91-0.579C18.975,56.24,18.765,55.649,18.265,55.42z"/>
	<path d="M35.225,57.51c-0.54,0.1-0.9,0.63-0.8,1.17c0.09,0.48,0.52,0.811,0.99,0.811c0.06,0,0.12,0,0.18-0.011
		c0.54-0.109,0.9-0.63,0.8-1.17C36.295,57.76,35.765,57.41,35.225,57.51z"/>
	<path d="M38.035,56.83c-0.53,0.149-0.83,0.71-0.67,1.239c0.13,0.431,0.53,0.711,0.96,0.711c0.09,0,0.19-0.011,0.29-0.04
		c0.53-0.16,0.83-0.721,0.67-1.25C39.124,56.97,38.565,56.67,38.035,56.83z"/>
	<path d="M40.765,55.85c-0.51,0.21-0.75,0.8-0.54,1.311c0.16,0.38,0.53,0.609,0.92,0.609c0.13,0,0.26-0.02,0.39-0.069
		c0.51-0.221,0.75-0.801,0.54-1.311C41.854,55.88,41.275,55.64,40.765,55.85z"/>
	<path d="M32.354,57.899c-0.55,0.051-0.96,0.53-0.91,1.08c0.04,0.521,0.48,0.92,1,0.92c0.02,0,0.05,0,0.08,0v-0.01
		c0.55-0.04,0.96-0.52,0.91-1.07C33.394,58.27,32.905,57.859,32.354,57.899z"/>
	<path d="M43.374,54.6c-0.49,0.26-0.67,0.87-0.4,1.351c0.18,0.34,0.52,0.529,0.88,0.529c0.16,0,0.32-0.04,0.47-0.13
		c0.49-0.26,0.67-0.87,0.4-1.35C44.465,54.51,43.854,54.33,43.374,54.6z"/>
</g>
<g>
</g>
<g>
</g>
<g>
</g>
<g>
</g>
<g>
</g>
<g>
</g>
<g>
</g>
<g>
</g>
<g>
</g>
<g>
</g>
<g>
</g>
<g>
</g>
<g>
</g>
<g>
</g>
<g>
</g>
</svg>
