<?xml version="1.0" encoding="iso-8859-1"?>
<!-- Generator: Adobe Illustrator 18.0.0, SVG Export Plug-In . SVG Version: 6.00 Build 0)  -->
<!DOCTYPE svg PUBLIC "-//W3C//DTD SVG 1.1//EN" "http://www.w3.org/Graphics/SVG/1.1/DTD/svg11.dtd">
<svg version="1.1" id="Capa_1" xmlns="http://www.w3.org/2000/svg" xmlns:xlink="http://www.w3.org/1999/xlink" x="0px" y="0px"
	 viewBox="0 0 60 60" style="enable-background:new 0 0 60 60;" xml:space="preserve">
<g>
	<path d="M34,29.879c0-1.859-1.28-3.411-3-3.858V15.879c0-0.553-0.448-1-1-1s-1,0.447-1,1v10.142
		c-1.399,0.364-2.494,1.459-2.858,2.858H19c-0.552,0-1,0.447-1,1s0.448,1,1,1h7.142c0.447,1.721,2,3,3.858,3
		C32.206,33.879,34,32.085,34,29.879z M30,31.879c-1.103,0-2-0.897-2-2s0.897-2,2-2s2,0.897,2,2S31.103,31.879,30,31.879z"/>
	<path d="M30,9.879c0.552,0,1-0.447,1-1v-1c0-0.553-0.448-1-1-1s-1,0.447-1,1v1C29,9.432,29.448,9.879,30,9.879z"/>
	<path d="M29,50.879v1c0,0.553,0.448,1,1,1s1-0.447,1-1v-1c0-0.553-0.448-1-1-1S29,50.326,29,50.879z"/>
	<path d="M52,30.879c0.552,0,1-0.447,1-1s-0.448-1-1-1h-1c-0.552,0-1,0.447-1,1s0.448,1,1,1H52z"/>
	<path d="M8,28.879c-0.552,0-1,0.447-1,1s0.448,1,1,1h1c0.552,0,1-0.447,1-1s-0.448-1-1-1H8z"/>
	<path d="M44.849,16.029c0.256,0,0.512-0.098,0.707-0.293l0.707-0.707c0.391-0.391,0.391-1.023,0-1.414s-1.023-0.391-1.414,0
		l-0.707,0.707c-0.391,0.391-0.391,1.023,0,1.414C44.337,15.932,44.593,16.029,44.849,16.029z"/>
	<path d="M14.444,44.021l-0.707,0.707c-0.391,0.391-0.391,1.023,0,1.414c0.195,0.195,0.451,0.293,0.707,0.293
		s0.512-0.098,0.707-0.293l0.707-0.707c0.391-0.391,0.391-1.023,0-1.414S14.834,43.63,14.444,44.021z"/>
	<path d="M15.858,14.322l-0.707-0.707c-0.391-0.391-1.023-0.391-1.414,0s-0.391,1.023,0,1.414l0.707,0.707
		c0.195,0.195,0.451,0.293,0.707,0.293s0.512-0.098,0.707-0.293C16.249,15.346,16.249,14.713,15.858,14.322z"/>
	<path d="M30,0C13.458,0,0,13.458,0,30s13.458,30,30,30c3.576,0,7.079-0.625,10.414-1.859c0.518-0.191,0.782-0.767,0.591-1.284
		c-0.192-0.52-0.766-0.784-1.285-0.591C36.608,57.416,33.338,58,30,58C14.561,58,2,45.439,2,30S14.561,2,30,2s28,12.561,28,28
		c0,3.34-0.584,6.609-1.735,9.719c-0.191,0.519,0.073,1.094,0.591,1.285c0.518,0.195,1.093-0.072,1.285-0.59
		C59.375,37.081,60,33.578,60,30C60,13.458,46.542,0,30,0z"/>
	<path d="M50,41.101V40c0-0.553-0.448-1-1-1s-1,0.447-1,1v1.105c-1.091,0.222-2.085,0.801-2.818,1.668
		c-0.611,0.722-0.894,1.646-0.794,2.603c0.102,0.979,0.606,1.887,1.383,2.491L48,49.6v5.438c-1.161-0.414-2-1.514-2-2.816
		c0-0.553-0.448-1-1-1s-1,0.447-1,1c0,2.414,1.721,4.434,4,4.899V58c0,0.553,0.448,1,1,1s1-0.447,1-1v-0.882
		c1.091-0.222,2.085-0.801,2.819-1.668c0.611-0.724,0.893-1.648,0.793-2.605c-0.103-0.978-0.606-1.885-1.383-2.488L50,48.622v-5.438
		c1.161,0.414,2,1.514,2,2.816c0,0.553,0.448,1,1,1s1-0.447,1-1C54,43.586,52.279,41.566,50,41.101z M51.001,51.935
		c0.349,0.271,0.576,0.68,0.622,1.118c0.043,0.41-0.075,0.803-0.331,1.105c-0.348,0.411-0.798,0.699-1.292,0.875v-3.878
		L51.001,51.935z M46.999,46.288c-0.35-0.272-0.576-0.681-0.622-1.12c-0.042-0.409,0.075-0.801,0.331-1.104
		c0.348-0.411,0.798-0.699,1.292-0.875v3.877L46.999,46.288z"/>
</g>
<g>
</g>
<g>
</g>
<g>
</g>
<g>
</g>
<g>
</g>
<g>
</g>
<g>
</g>
<g>
</g>
<g>
</g>
<g>
</g>
<g>
</g>
<g>
</g>
<g>
</g>
<g>
</g>
<g>
</g>
</svg>
