<?xml version="1.0" encoding="iso-8859-1"?>
<!-- Generator: Adobe Illustrator 19.0.0, SVG Export Plug-In . SVG Version: 6.00 Build 0)  -->
<svg version="1.1" id="Layer_1" xmlns="http://www.w3.org/2000/svg" xmlns:xlink="http://www.w3.org/1999/xlink" x="0px" y="0px"
	 viewBox="0 0 512 512" style="enable-background:new 0 0 512 512;" xml:space="preserve">
<g>
	<g>
		<path d="M400.64,393.387c-13.653,9.387-25.6,14.507-44.373,17.92c-11.093,2.56-20.48,2.56-29.867,1.707
			c-9.387-0.853-18.773-4.267-26.453-9.387c-5.973-4.267-9.387-11.093-11.093-21.333s-2.56-20.48-2.56-29.867
			c0-3.413,0-82.773,0-130.56h110.933V128H286.293V0H198.4l-0.853,11.093c0,2.56,0,5.12-0.853,7.68
			c-3.413,17.92-6.827,32.427-12.8,44.373c-12.8,28.16-34.133,49.493-62.293,62.293c-4.267,2.56-7.68,3.413-11.947,5.12
			l-11.093,4.267v87.04h51.2v34.987c0,43.52,0,86.187,0,129.707c0,13.653,0.853,25.6,3.413,35.84
			c2.56,14.507,10.24,29.013,23.893,43.52c13.653,15.36,32.427,27.307,52.053,34.987c11.947,4.267,23.893,7.68,37.547,9.387
			c7.68,0.853,15.36,1.707,23.04,1.707c0.853,0,10.24,0,15.36,0l7.68,0c22.187-0.853,45.227-5.973,71.68-16.213
			c3.413-1.707,6.827-2.56,9.387-3.413c4.267-1.707,9.387-3.413,15.36-5.973l4.267-2.56v-98.987L400.64,393.387z M396.373,473.6
			c-2.56,0.853-5.973,1.707-8.533,2.56c-2.56,0.853-5.973,1.707-10.24,3.413c-24.747,10.24-45.227,14.507-66.56,15.36h-5.973
			c-4.267,0-13.653,0-14.507,0c-6.827,0-14.507-0.853-21.333-1.707c-12.8-1.707-23.893-4.267-34.133-8.533
			c-17.92-5.973-34.133-17.067-46.08-29.867c-11.093-12.8-17.92-23.893-19.627-34.987c-1.707-9.387-2.56-20.48-2.56-33.28
			c0-43.52,0-86.187,0-129.707V204.8h-51.2v-58.88c4.267-0.853,8.533-2.56,12.8-5.12c31.573-14.507,55.467-38.4,70.827-70.827
			c5.973-13.653,10.24-29.013,13.653-48.64c0-0.853,0.853-2.56,0.853-4.267h55.467v128h110.08V204.8H268.373v8.533
			c0,5.973,0,135.68,0,139.947c0,9.387,0.853,21.333,2.56,32.427c2.56,14.507,8.533,25.6,18.773,32.427s21.333,10.24,34.133,11.947
			c11.093,1.707,23.04,0.853,34.987-1.707c13.653-2.56,24.747-5.12,37.547-11.947V473.6z"/>
	</g>
</g>
<g>
</g>
<g>
</g>
<g>
</g>
<g>
</g>
<g>
</g>
<g>
</g>
<g>
</g>
<g>
</g>
<g>
</g>
<g>
</g>
<g>
</g>
<g>
</g>
<g>
</g>
<g>
</g>
<g>
</g>
</svg>
