<?xml version="1.0" encoding="iso-8859-1"?>
<!-- Generator: Adobe Illustrator 19.0.0, SVG Export Plug-In . SVG Version: 6.00 Build 0)  -->
<svg version="1.1" id="Layer_1" xmlns="http://www.w3.org/2000/svg" xmlns:xlink="http://www.w3.org/1999/xlink" x="0px" y="0px"
	 viewBox="0 0 512 512" style="enable-background:new 0 0 512 512;" xml:space="preserve">
<g transform="translate(1 1)">
	<g>
		<g>
			<path d="M254.948,39.96c5.973,4.267,11.093,5.12,26.453,5.973c45.227,2.56,73.387,12.8,104.96,35.84
				c39.253,28.16,64,68.267,72.533,117.76c2.56,12.8,3.413,23.893,4.267,40.107c0.853,11.947,0.853,16.213,3.413,20.48
				c4.267,6.827,11.093,11.093,18.773,11.947c0.853,0,1.707,0,2.56,0c6.827,0,13.653-3.413,17.067-9.387
				c5.973-6.827,5.973-12.8,5.12-26.453c-1.707-41.813-10.24-80.213-27.307-112.64c-11.947-23.04-23.04-38.4-43.52-58.027
				c-21.333-20.48-37.547-32.427-63.147-44.373c-26.453-12.8-45.227-17.067-73.387-20.48C297.615-0.147,287.375-1,279.695-1
				c-13.653,0-19.627,0-25.6,5.973c-5.12,4.267-7.68,11.093-7.68,17.92S249.828,35.693,254.948,39.96z M265.188,17.773
				c0.853-0.853,1.707-1.707,7.68-1.707c1.707,0,3.413,0,5.973,0c6.827,0,17.067,0.853,22.187,1.707
				c26.453,3.413,43.52,6.827,68.267,18.773c23.893,11.947,38.4,22.187,58.88,41.813c18.773,18.773,29.013,32.427,40.107,53.76
				c15.36,30.72,23.893,65.707,25.6,105.813c0,12.8,0,13.653-1.707,14.507c-0.853,1.707-3.413,1.707-5.12,1.707
				s-4.267-0.853-5.12-2.56c-0.853-0.853-0.853-2.56-1.707-12.8c-0.853-17.067-1.707-29.013-4.267-42.667
				c-10.24-54.613-36.693-98.133-79.36-128.853c-34.133-24.747-65.707-35.84-114.347-38.4c-14.507-0.853-15.36-1.707-17.067-2.56
				c-0.853-0.853-1.707-2.56-1.707-4.267S264.335,18.627,265.188,17.773z"/>
			<path d="M394.895,223.427c0,11.947,0.853,23.04,12.8,29.013c3.413,1.707,7.68,2.56,11.947,2.56c3.413,0,7.68-0.853,10.24-2.56
				c4.267-1.707,9.387-7.68,11.093-11.947c2.56-5.973,1.707-28.16,0.853-34.133c-3.413-27.307-12.8-52.907-27.307-74.24
				c-27.307-39.253-67.413-62.293-119.467-69.973c-17.92-2.56-30.72-3.413-38.4,8.533c-5.973,8.533-5.12,20.48,1.707,28.16
				c5.973,6.827,13.653,7.68,21.333,8.533c20.48,1.707,43.52,8.533,58.88,17.067c17.92,10.24,32.427,25.6,42.667,43.52
				C389.775,184.173,394.895,203.8,394.895,223.427z M347.961,109.933c-17.92-10.24-43.52-17.067-68.267-18.773
				c-6.827,0-8.533-1.707-9.387-2.56c-1.707-2.56-1.707-5.12,0-7.68c1.707-1.707,2.56-3.413,22.187-0.853
				c47.787,6.827,83.627,27.307,107.52,62.293c13.653,18.773,22.187,41.813,24.747,66.56c1.707,8.533,0.853,23.04,0.853,25.6
				c-0.853,0.853-2.56,2.56-3.413,3.413c-0.853,0-5.12,0-5.973-0.853c-1.707-0.853-3.413-1.707-3.413-13.653
				c0-22.187-5.973-46.08-16.213-64C385.508,138.947,368.441,121.88,347.961,109.933z"/>
			<path d="M347.961,150.893c-11.093-11.093-24.747-17.92-42.667-21.333c-4.267-0.853-11.093-1.707-15.36-1.707
				c-6.827,0-10.24,0-15.36,2.56c-5.973,3.413-10.24,9.387-11.947,16.213c-1.707,6.827,0.853,14.507,5.12,19.627
				c5.973,5.973,11.093,6.827,22.187,8.533c18.773,1.707,29.013,8.533,34.987,20.48c3.413,5.973,5.12,12.8,5.973,23.04
				c0.853,8.533,2.56,14.507,9.387,19.627c4.267,2.56,9.387,4.267,14.507,4.267c5.973,0,11.093-1.707,13.653-4.267
				c8.533-7.68,9.387-17.92,6.827-32.427C371.001,181.613,363.321,164.547,347.961,150.893z M358.201,224.28
				c-1.707,1.707-5.973,1.707-8.533,0c-0.853-0.853-1.707-0.853-2.56-7.68c-0.853-11.093-2.56-19.627-6.827-28.16
				c-8.533-17.92-23.893-28.16-47.787-30.72c-9.387-1.707-10.24-1.707-11.093-3.413c-0.853-1.707-0.853-3.413-0.853-5.12
				c0.853-1.707,1.707-3.413,3.413-4.267c0.853-0.853,0.853-0.853,2.56-0.853c0.853,0,2.56,0,3.413,0
				c4.267,0.853,10.24,0.853,12.8,1.707c14.507,3.413,25.6,8.533,34.987,17.067c11.947,11.093,18.773,24.747,21.333,44.373
				C361.615,220.867,359.908,222.573,358.201,224.28z"/>
			<path d="M501.561,387.267c-5.973-6.827-42.667-35.84-58.88-46.933c-12.8-8.533-33.28-20.48-42.667-25.6
				c-13.653-6.827-28.16-7.68-41.813-3.413c-2.56,0.853-5.12,1.707-6.827,2.56c-6.827,3.413-11.947,9.387-22.187,21.333
				c-10.24,12.8-12.8,15.36-12.8,15.36c-0.853,0.853-2.56,1.707-4.267,2.56h-0.853c-7.68,4.267-20.48,0.853-41.813-9.387
				c-17.92-8.533-34.133-19.627-52.053-35.84c-15.36-13.653-30.72-31.573-39.253-45.227c-11.947-19.627-19.627-41.813-19.627-52.053
				c0-4.267,1.707-10.24,3.413-12.8l0.853-0.853c0,0,0.853-0.853,1.707-1.707c3.413-2.56,7.68-5.973,11.947-9.387
				c19.627-15.36,25.6-21.333,29.013-33.28c3.413-11.093,0.853-23.893-8.533-41.813c-13.653-26.453-58.027-82.773-75.947-94.72
				c-2.56-2.56-7.68-5.12-11.093-5.973c-7.68-3.413-17.92-4.267-24.747-2.56c-9.387,1.707-19.627,7.68-41.813,24.747
				c-12.8,8.533-31.573,26.453-36.693,34.987c-11.947,20.48-8.533,37.547,1.707,67.413c10.24,28.16,23.893,56.32,40.107,84.48
				l0.853,1.707c3.413,5.12,6.827,11.093,10.24,16.213l0.853,1.707c3.413,5.12,6.827,11.093,10.24,16.213l5.973,8.533
				c2.56,3.413,4.267,5.973,6.827,9.387c4.267,5.973,9.387,11.947,13.653,17.92c49.493,64,106.667,116.053,174.08,157.867
				l2.56,1.707c9.387,5.973,19.627,11.947,30.72,17.92l4.267,2.56c11.093,5.973,21.333,11.093,32.427,16.213l3.413,1.707
				c12.8,5.973,23.893,11.093,34.987,15.36c13.653,5.12,19.627,6.827,29.013,6.827c1.707,0,3.413,0,5.12,0
				c5.973,0,11.947-0.853,17.067-2.56c7.68-2.56,14.507-5.973,23.04-11.947c0.853-0.853,2.56-2.56,4.267-3.413
				c1.707-1.707,4.267-3.413,5.973-5.12c9.387-7.68,20.48-19.627,29.013-31.573c4.267-5.973,10.24-15.36,13.653-23.04
				c3.413-6.827,4.267-14.507,4.267-21.333C510.948,402.627,507.535,394.093,501.561,387.267z M491.321,427.373
				c-1.707,5.12-5.973,11.947-11.947,19.627c-7.68,11.093-17.92,21.333-26.453,29.013c-1.707,1.707-3.413,3.413-5.12,4.267
				c-1.707,0.853-2.56,1.707-4.267,2.56c-6.827,5.12-12.8,7.68-17.92,9.387c-4.267,0.853-8.533,1.707-12.8,1.707
				c-9.387,0-12.8,0-26.453-5.12c-10.24-5.12-21.333-9.387-34.133-15.36l-3.413-1.707c-10.24-5.12-21.333-10.24-31.573-16.213
				l-4.267-2.56c-10.24-5.12-20.48-11.093-29.867-17.067l-2.56-1.707c-66.56-40.96-122.027-91.307-169.813-153.6
				c-4.267-5.973-8.533-11.947-12.8-17.92c-2.56-3.413-5.12-5.973-6.827-9.387l-5.12-7.68c-4.267-5.12-7.68-10.24-11.093-16.213
				l-0.853-0.853c-3.413-5.12-5.973-11.093-9.387-16.213l-0.853-1.707c-16.213-26.453-29.013-54.613-39.253-81.92
				c-11.947-30.72-10.24-40.96-3.413-52.907c3.413-5.12,19.627-21.333,32.427-29.867C72.335,31.427,82.575,25.453,88.548,24.6
				c3.413-0.853,11.093,0,15.36,1.707c1.707,0.853,5.12,2.56,7.68,4.267c12.8,8.533,55.467,60.587,69.973,87.893
				c6.827,12.8,9.387,23.04,7.68,29.013c-1.707,5.973-3.413,9.387-23.04,24.747c-5.12,3.413-9.387,7.68-12.8,10.24
				c-0.853,0.853-1.707,1.707-2.56,2.56l-0.853,0.853c-0.853,0.853-1.707,0.853-1.707,1.707l-0.853,0.853
				c-4.267,5.12-6.827,15.36-6.827,23.04c0.853,15.36,9.387,40.107,22.187,60.587c9.387,14.507,26.453,34.133,42.667,48.64
				c18.773,17.067,35.84,29.013,55.467,38.4c25.6,11.947,41.813,15.36,55.467,10.24h0.853l1.707-0.853
				c1.707-0.853,4.267-1.707,5.12-2.56c0.853-0.853,1.707-0.853,2.56-1.707c0.853-0.853,1.707-1.707,15.36-17.92
				c10.24-11.947,13.653-15.36,17.067-17.067c0.853-0.853,2.56-0.853,4.267-1.707c9.387-3.413,18.773-2.56,29.013,2.56
				c8.533,5.12,28.16,16.213,40.107,24.747c17.92,11.947,52.053,39.253,55.467,43.52c4.267,4.267,5.973,8.533,5.973,14.507
				C493.881,417.133,493.028,422.253,491.321,427.373z"/>
		</g>
	</g>
</g>
<g>
</g>
<g>
</g>
<g>
</g>
<g>
</g>
<g>
</g>
<g>
</g>
<g>
</g>
<g>
</g>
<g>
</g>
<g>
</g>
<g>
</g>
<g>
</g>
<g>
</g>
<g>
</g>
<g>
</g>
</svg>
