<?xml version="1.0" encoding="iso-8859-1"?>
<!-- Generator: Adobe Illustrator 19.0.0, SVG Export Plug-In . SVG Version: 6.00 Build 0)  -->
<svg version="1.1" id="Layer_1" xmlns="http://www.w3.org/2000/svg" xmlns:xlink="http://www.w3.org/1999/xlink" x="0px" y="0px"
	 viewBox="0 0 502.345 502.345" style="enable-background:new 0 0 502.345 502.345;" xml:space="preserve">
<g>
	<g>
		<path d="M489.338,53.647c-23.502-30.216-73.862-25.18-88.97-22.662c-23.502,4.197-97.364,38.61-123.384,116.669l-3.357,11.751
			h13.43c25.18-2.518,38.61,0,45.325,6.715c5.875,5.875,8.393,16.787,6.715,34.413c-1.679,19.305-11.751,41.128-21.823,59.593
			l-0.839,1.679c-7.554,14.269-21.823,41.128-36.092,42.807c-5.875,0.839-11.751-2.518-17.626-9.233
			c-19.305-20.984-23.502-58.754-26.859-92.328c-1.679-11.751-2.518-21.823-4.197-31.895l-1.679-9.233
			c-3.357-20.984-7.554-43.646-13.43-63.79c-6.715-20.984-21.823-47.843-42.807-53.718c-20.144-5.875-45.325,1.679-61.272,11.751
			c-28.538,17.626-52.879,39.449-76.38,60.433c-9.233,9.233-19.305,18.466-29.377,26.859C2.518,146.814,0,151.85,0,156.886
			c0,3.357,1.679,6.715,3.357,10.072c0.839,0.839,0.839,1.679,1.679,2.518c3.357,5.875,8.393,14.269,19.305,15.948
			c10.912,1.679,21.823-0.839,31.056-4.197c15.948-5.036,22.662-6.715,29.377,5.036c5.875,10.911,10.072,23.502,13.43,36.092
			c1.679,5.875,3.357,12.59,5.875,18.466c8.393,25.18,15.108,52.039,22.662,81.416l2.518,10.911
			c11.751,49.521,28.538,117.508,71.344,135.974c6.715,3.357,13.43,4.197,20.984,4.197c20.984,0,43.646-10.072,56.236-17.626
			c49.521-30.216,84.774-72.184,110.793-106.597c70.505-96.525,106.597-203.121,111.633-230.82
			C505.285,90.578,501.089,68.755,489.338,53.647z M483.462,115.758c-5.036,26.02-41.128,130.938-108.275,223.266
			c-25.18,32.734-58.754,73.862-106.597,101.561c-15.108,9.233-44.485,20.144-62.111,12.59
			c-35.253-15.108-50.361-78.059-61.272-124.223l-2.518-10.911c-6.715-29.377-13.43-56.236-22.662-82.256
			c-1.679-5.875-3.357-11.751-5.036-17.626c-3.357-12.59-7.554-26.859-15.108-39.449c-8.393-13.43-17.626-17.626-27.698-17.626
			c-7.554,0-15.108,2.518-21.823,3.357c-8.393,2.518-15.948,5.036-23.502,4.197c-2.518,0-10.072-10.072-10.911-11.751
			c10.911-8.393,21.823-18.466,31.895-27.698c23.502-20.984,47.003-41.967,73.862-57.075c12.59-7.554,32.734-14.269,47.843-10.072
			c13.43,3.357,26.02,23.502,31.895,41.967c5.875,18.466,9.233,41.128,12.59,61.272l1.679,9.233
			c0.839,9.233,2.518,19.305,3.357,30.216c3.357,36.092,7.554,77.22,31.056,102.4c10.072,10.911,20.984,15.948,31.895,14.269
			c22.662-3.357,38.61-32.734,48.682-52.039l0.839-1.679c10.072-19.305,21.823-42.807,23.502-65.469
			c1.679-22.662-1.679-37.77-11.751-47.843c-10.911-10.911-27.698-13.43-45.325-12.59c27.698-67.148,92.328-91.489,104.918-93.167
			c12.59-2.518,55.397-6.715,73.023,15.948C485.141,76.309,487.659,92.257,483.462,115.758z"/>
	</g>
</g>
<g>
</g>
<g>
</g>
<g>
</g>
<g>
</g>
<g>
</g>
<g>
</g>
<g>
</g>
<g>
</g>
<g>
</g>
<g>
</g>
<g>
</g>
<g>
</g>
<g>
</g>
<g>
</g>
<g>
</g>
</svg>
