<?xml version="1.0" encoding="iso-8859-1"?>
<!-- Generator: Adobe Illustrator 19.0.0, SVG Export Plug-In . SVG Version: 6.00 Build 0)  -->
<svg version="1.1" id="Layer_1" xmlns="http://www.w3.org/2000/svg" xmlns:xlink="http://www.w3.org/1999/xlink" x="0px" y="0px"
	 viewBox="0 0 503.607 503.607" style="enable-background:new 0 0 503.607 503.607;" xml:space="preserve">
<g>
	<g>
		<path d="M373.508,201.443h94.007l0.839-6.715c5.875-33.574,5.875-53.718,5.875-90.649v-5.036C474.229,34.413,412.118,0,354.203,0
			c-30.216,0-58.754,9.233-78.898,26.02c-23.502,20.144-36.092,48.682-36.092,83.934c0,101.561,53.718,156.118,101.561,184.656
			c-33.574,61.272-78.059,101.561-93.167,114.151C99.882,286.216,113.311,78.898,113.311,76.38l0.839-9.233H29.377v8.393
			C30.216,256,94.007,401.207,207.318,485.98c1.679,0.839,3.357,1.679,4.197,2.518c17.626,13.43,23.502,15.108,41.128,15.108
			c1.679,0,3.357,0,5.036,0h7.554c27.698-1.679,82.256-59.593,144.367-154.439c5.036-8.393,10.072-15.108,14.269-22.662
			c24.341,5.036,41.128,5.036,41.967,5.036h8.393v-78.059l-7.554-0.839C341.613,240.892,331.541,140.17,331.541,109.115
			c0-14.269,16.787-25.18,32.734-26.02c5.036,0,11.751,1.679,16.787,6.715c5.036,5.036,7.554,12.59,7.554,23.502
			c-0.839,31.895-5.036,47.843-11.751,74.702L373.508,201.443z M363.436,67.148c-22.662,0-48.682,17.626-48.682,41.967
			c0,33.574,10.911,142.689,142.689,159.475v45.325c-8.393,0-20.984-1.679-36.092-5.036l-5.875-1.679l-3.357,5.036
			c-5.036,8.393-10.911,17.626-16.787,26.859c-65.469,99.882-114.99,146.885-131.777,147.725H256c-17.626,0-19.305,0-34.413-11.751
			c-0.839-0.839-2.518-1.679-4.197-3.357C108.275,391.134,48.682,256.839,46.164,83.934h50.361
			c-0.839,42.807,3.357,229.141,146.046,342.452l5.036,4.197l5.036-4.197c2.518-1.679,63.79-49.521,106.597-130.938l4.197-7.554
			l-7.554-4.197C289.574,247.607,256,188.852,256,109.954c0-29.377,10.072-53.718,30.216-70.505
			c17.626-14.269,41.128-22.662,67.987-22.662c50.361,0,103.239,28.538,102.4,81.416v5.036c0,34.413,0,52.879-4.197,81.416h-57.915
			c5.875-22.662,10.072-40.289,10.072-70.505c0-15.108-4.197-26.859-12.59-35.252C385.259,71.344,374.348,67.148,363.436,67.148z"/>
	</g>
</g>
<g>
</g>
<g>
</g>
<g>
</g>
<g>
</g>
<g>
</g>
<g>
</g>
<g>
</g>
<g>
</g>
<g>
</g>
<g>
</g>
<g>
</g>
<g>
</g>
<g>
</g>
<g>
</g>
<g>
</g>
</svg>
