<?xml version="1.0" encoding="iso-8859-1"?>
<!-- Generator: Adobe Illustrator 18.0.0, SVG Export Plug-In . SVG Version: 6.00 Build 0)  -->
<!DOCTYPE svg PUBLIC "-//W3C//DTD SVG 1.1//EN" "http://www.w3.org/Graphics/SVG/1.1/DTD/svg11.dtd">
<svg version="1.1" id="Capa_1" xmlns="http://www.w3.org/2000/svg" xmlns:xlink="http://www.w3.org/1999/xlink" x="0px" y="0px"
	 viewBox="0 0 57 57" style="enable-background:new 0 0 57 57;" xml:space="preserve">
<path d="M54,4h-2h-8H7v4.998V19H5.751C2.58,19,0,21.58,0,24.751V39c0,2.757,2.243,5,5,5h2v4.002V53h37h8h2h3V4H54z M52,6v5.929
	C48.938,11.489,46.511,9.062,46.071,6H52z M9,11.083c5.385,0.462,10.251,3.396,13.185,7.917H9V11.083z M2,24.751
	C2,22.683,3.683,21,5.751,21H7h18.569H29v13h-2.752H9H7H5c-0.318,0-0.626,0.037-0.928,0.094c-0.095,0.018-0.185,0.047-0.278,0.07
	c-0.205,0.051-0.406,0.111-0.6,0.187C3.096,34.389,3,34.431,2.904,34.476c-0.184,0.085-0.36,0.182-0.531,0.288
	c-0.084,0.052-0.169,0.102-0.249,0.158c-0.04,0.028-0.085,0.05-0.125,0.079V24.751z M36,26v3c0,2.757-2.243,5-5,5V21
	C33.757,21,36,23.243,36,26z M5,42c-1.654,0-3-1.346-3-3s1.346-3,3-3h2v6H5z M9,36h14.293C20.629,41.623,15.217,45.391,9,45.918V44
	V36z M9,51v-3.088C16.309,47.355,22.633,42.789,25.467,36H31c3.859,0,7-3.141,7-7v-3c0-3.859-3.141-7-7-7h-6.493
	C21.313,13.302,15.487,9.584,9,9.084V6h35.059c0.463,4.165,3.776,7.478,7.941,7.941v29.118c-4.165,0.463-7.478,3.776-7.941,7.941H9z
	 M52,51h-5.929c0.439-3.062,2.867-5.489,5.929-5.929V51z M55,51h-1v-8V14V6h1V51z"/>
<g>
</g>
<g>
</g>
<g>
</g>
<g>
</g>
<g>
</g>
<g>
</g>
<g>
</g>
<g>
</g>
<g>
</g>
<g>
</g>
<g>
</g>
<g>
</g>
<g>
</g>
<g>
</g>
<g>
</g>
</svg>
