<?xml version="1.0" encoding="iso-8859-1"?>
<!-- Generator: Adobe Illustrator 19.0.0, SVG Export Plug-In . SVG Version: 6.00 Build 0)  -->
<svg version="1.1" id="Layer_1" xmlns="http://www.w3.org/2000/svg" xmlns:xlink="http://www.w3.org/1999/xlink" x="0px" y="0px"
	 viewBox="0 0 506.964 506.964" style="enable-background:new 0 0 506.964 506.964;" xml:space="preserve">
<g transform="translate(2 1)">
	<g>
		<g>
			<path d="M252.321-1C113.83-1,1.357,111.472,1.357,249.125c0,43.646,11.751,85.613,33.574,124.223L-2,505.964l135.134-36.092
				c39.449,20.984,80.577,32.734,119.187,32.734c136.813,0,252.643-115.83,252.643-253.482S391.652-1,252.321-1z M252.321,485.82
				c-36.931,0-76.38-11.751-114.151-32.734l-3.357-1.679L21.502,482.462L52.557,370.83l-1.679-3.357
				c-20.984-36.092-32.734-77.22-32.734-118.348c0-128.42,104.918-233.338,234.177-233.338
				c130.098,0,235.856,104.918,235.856,233.338S379.902,485.82,252.321,485.82z"/>
			<path d="M252.321,40.967c-114.99,0-208.997,93.167-208.997,208.157c0,41.128,11.751,79.738,32.734,114.151l3.357,4.197
				L56.754,447.21l82.256-20.984l4.197,2.518c34.413,20.984,72.184,31.895,109.115,31.895c115.83,0,210.675-94.846,210.675-211.515
				C462.997,134.134,368.151,40.967,252.321,40.967z M251.482,444.692c-33.574,0-67.987-10.911-99.882-30.216l-10.072-6.715
				l-61.272,15.108l16.787-58.754l-6.715-10.911c-20.144-31.056-30.216-67.148-30.216-104.079
				c0-104.918,86.452-191.37,192.21-191.37c106.597,0,193.889,86.452,193.889,191.37
				C446.21,356.561,358.918,443.852,251.482,444.692z"/>
			<path d="M378.223,295.289l-52.879-24.341c-7.554-3.357-15.108-0.839-20.144,5.036l-20.144,26.02
				c-15.108-5.875-57.075-24.341-81.416-69.666l18.466-21.823c4.197-5.036,5.036-11.751,2.518-17.626l-22.662-53.718
				c-2.518-5.875-7.554-10.072-14.269-10.072l-15.948-0.839c-6.715,0-14.269,1.679-19.305,6.715
				c-7.554,6.715-21.823,20.984-26.02,40.289c-5.875,27.698,3.357,60.433,26.859,92.328
				c14.269,20.144,57.915,79.738,141.849,103.239c8.393,2.518,16.787,3.357,24.341,3.357c14.269,0,27.698-4.197,39.449-10.911
				c13.43-8.393,22.662-22.662,26.02-37.771l2.518-11.751C389.134,306.2,384.938,298.646,378.223,295.289z M367.311,321.308
				c-2.518,10.911-9.233,20.984-18.466,26.859c-14.269,9.233-31.056,10.911-49.521,5.875
				c-78.059-21.823-119.187-78.059-132.616-96.525c-20.144-27.698-28.538-56.236-23.502-78.898
				c3.357-15.108,14.269-26.02,20.984-31.895c1.679-1.679,4.197-2.518,6.715-2.518l16.787,1.679l22.662,52.879l-20.144,22.662
				c-3.357,4.197-4.197,10.911-1.679,15.948c27.698,53.718,78.059,74.702,93.167,79.738c5.875,1.679,11.751,0,15.948-5.036
				l20.144-26.859l52.879,24.341L367.311,321.308z"/>
		</g>
	</g>
</g>
<g>
</g>
<g>
</g>
<g>
</g>
<g>
</g>
<g>
</g>
<g>
</g>
<g>
</g>
<g>
</g>
<g>
</g>
<g>
</g>
<g>
</g>
<g>
</g>
<g>
</g>
<g>
</g>
<g>
</g>
</svg>
