<?xml version="1.0" encoding="iso-8859-1"?>
<!-- Generator: Adobe Illustrator 19.0.0, SVG Export Plug-In . SVG Version: 6.00 Build 0)  -->
<svg version="1.1" id="Layer_1" xmlns="http://www.w3.org/2000/svg" xmlns:xlink="http://www.w3.org/1999/xlink" x="0px" y="0px"
	 viewBox="0 0 512 512" style="enable-background:new 0 0 512 512;" xml:space="preserve">
<g transform="translate(1 1)">
	<g>
		<path d="M503.686,79.457C491.8,49.286,479,39.229,427.8,39.229c-31.086,0-54.857,23.771-54.857,54.857
			c0,16.457,9.143,32,18.286,48.457c2.743,6.4,7.314,12.8,10.057,19.2l3.657,7.314c8.229,16.457,13.714,28.343,13.714,53.029
			c0,10.057-1.829,21.029-6.4,36.571v0.914l-30.171,90.514L303.73,128.078c2.651-0.342,5.303-0.699,7.956-1.078
			c14.629,0,26.514-12.8,26.514-27.429c0-15.543-11.886-27.429-27.429-27.429c-0.914,0-0.914,0-1.829,0
			c-35.657,5.486-71.314,5.486-106.971,0c-0.914,0-0.914,0-1.829,0c-15.543,0-27.429,11.886-27.429,27.429
			C172.714,114.2,184.6,127,199.229,127c3.063,0.459,6.158,0.882,9.264,1.286L245.857,223l-45.714,134.4L117.85,127.156
			c0.307-0.053,0.614-0.101,0.921-0.156c14.629-0.914,26.514-12.8,26.514-27.429c0-15.543-11.886-27.429-27.429-27.429
			c-0.914,0-0.914,0-1.829,0c-29.257,5.486-58.514,5.486-87.771,0c-0.914,0-0.914,0-1.829,0C10.886,72.143-1,84.029-1,99.571
			c0,14.373,11.476,26.09,25.752,27.363L137.057,434.2c6.4,17.371,20.114,30.171,38.4,34.743c4.571,0.914,8.229,1.829,12.8,1.829
			c22.857,0,44.8-15.543,52.114-37.486l52.114-155.429l54.857,155.429c4.571,12.8,13.714,21.943,23.771,25.6
			c9.143,3.657,19.2,2.743,28.343-1.829c11.886-4.571,21.029-14.629,24.686-26.514L491.8,227.571c15.543-39.314,19.2-74.057,19.2-96
			v-14.629C511,104.143,509.171,91.343,503.686,79.457z M200.143,108.714c-5.486,0-9.143-3.657-9.143-9.143
			c0-4.571,3.657-9.143,8.229-9.143c37.486,6.4,74.057,6.4,112.457,0c4.571,0,8.229,4.571,8.229,9.143
			c0,5.486-3.657,9.143-9.143,9.143c-0.914,0-0.914,0-1.829,0c-5.44,0.837-10.879,1.53-16.319,2.112
			c-0.91-0.188-1.872-0.283-2.881-0.283c-24.686,2.743-49.371,2.743-74.057,0c-0.017,0-0.035,0.002-0.052,0.002
			c-4.554-0.522-9.108-1.13-13.662-1.831C201.057,108.714,201.057,108.714,200.143,108.714z M17.286,99.571
			c0-4.571,3.657-9.143,8.229-9.143c31.086,6.4,62.171,6.4,93.257,0c4.571,0,8.229,4.571,8.229,9.143
			c0,5.486-3.657,9.143-9.143,9.143c-0.914,0-0.914,0-1.829,0c-3.783,0.709-7.566,1.323-11.349,1.849
			c-0.178-0.008-0.356-0.02-0.537-0.02c-1.527,0.244-3.059,0.469-4.594,0.681c-21.34,2.499-42.679,2.065-64.019-1.273
			c-0.596-0.109-1.192-0.208-1.787-0.322c-0.08,0-0.16,0.007-0.24,0.008c-1.749-0.289-3.497-0.594-5.246-0.922
			c-0.914,0-0.914,0-1.829,0C20.943,108.714,17.286,105.057,17.286,99.571z M491.8,132.486c0,20.114-2.743,53.029-17.371,89.6
			l-68.571,202.971c-2.743,7.314-8.229,12.8-15.543,15.543c-4.571,1.829-9.143,2.743-13.714,0.914
			c-5.486-1.829-10.971-7.314-13.714-14.629l-64-179.2c-0.914-3.657-4.571-6.4-8.229-6.4c-3.657,0-7.314,2.743-8.229,6.4
			L223,426.886c-5.486,17.371-24.686,28.343-42.971,23.771c-11.886-2.743-21.029-10.971-25.6-22.857L45.708,129.96
			c8.812,1.009,17.623,1.612,26.435,1.612c9.155,0,18.31-0.647,27.464-1.729l93.221,258.643c0.914,3.657,4.571,6.4,8.229,6.4
			c3.657,0,7.314-2.743,8.229-6.4l54.857-162.743c0.914-1.829,0.914-4.571,0-6.4l-34.445-88.832c8.508,0.668,17,1.061,25.302,1.061
			c9.879,0,20.03-0.547,30.299-1.471l89.472,251.071c0.914,3.657,4.571,6.4,8.229,6.4s7.314-2.743,8.229-6.4l38.4-114.286
			c0.914-0.914,0.914-0.914,0.914-1.829c5.486-17.371,7.314-31.086,7.314-42.057c0-29.257-7.314-43.886-15.543-61.257l-3.657-7.314
			c-3.657-6.4-7.314-13.714-10.971-20.114C399.457,120.6,392.143,106.886,392.143,95c0-23.771,19.2-36.571,36.571-36.571
			c47.543,0,51.2,9.143,57.6,28.343c3.657,9.143,5.486,19.2,5.486,30.171V132.486z"/>
	</g>
</g>
<g>
</g>
<g>
</g>
<g>
</g>
<g>
</g>
<g>
</g>
<g>
</g>
<g>
</g>
<g>
</g>
<g>
</g>
<g>
</g>
<g>
</g>
<g>
</g>
<g>
</g>
<g>
</g>
<g>
</g>
</svg>
