<?xml version="1.0" encoding="iso-8859-1"?>
<!-- Generator: Adobe Illustrator 19.0.0, SVG Export Plug-In . SVG Version: 6.00 Build 0)  -->
<svg version="1.1" id="Layer_1" xmlns="http://www.w3.org/2000/svg" xmlns:xlink="http://www.w3.org/1999/xlink" x="0px" y="0px"
	 viewBox="0 0 506.964 506.964" style="enable-background:new 0 0 506.964 506.964;" xml:space="preserve">
<g>
	<g>
		<path d="M287.895,68.826l4.197,50.361l59.593,14.269c-6.715,20.144-34.413,59.593-82.256,118.348
			c-38.61-76.38-69.666-142.688-92.328-193.888l67.987-10.911l4.197-45.325H0v50.361l72.184,15.108
			c8.393,11.751,27.698,41.967,72.184,126.741c47.003,91.488,55.397,114.151,57.075,120.026l0.839,47.003v24.341
			c0,50.361-2.518,59.593-2.518,60.433c0,0.839-3.357,5.036-25.18,7.554l-41.128,2.518l-6.715,49.521h234.177l14.269-52.879
			l-76.38-1.679l-4.197-62.951l3.357-73.862c2.518-10.911,15.948-36.931,64.63-98.203c48.682-63.79,62.951-75.541,65.469-77.22
			l58.754-19.305l20.144-50.361H287.895z M475.069,105.757l-52.879,17.626c-8.393,3.357-23.502,18.466-73.023,82.256
			c-41.967,52.039-63.79,87.292-67.987,105.757l-3.357,76.38l5.036,78.898l70.505,1.679l-5.036,20.144H146.046l2.518-16.787
			l27.698-0.839c20.144-2.518,32.734-6.715,37.77-15.108c2.518-2.518,5.036-7.554,5.036-69.666v-24.341l-0.839-48.682v-1.679
			c-3.357-17.626-38.61-85.613-58.754-125.062c-36.931-69.666-62.951-115.83-75.541-131.777l-2.518-2.518L16.787,38.61V18.466
			H230.82l-0.839,13.43L153.6,43.646l4.197,10.072c24.341,55.397,59.594,130.098,103.239,216.551l5.875,12.59l8.393-10.072
			c83.095-99.882,94.846-129.259,95.685-144.367v-6.715l-62.112-15.108L307.2,86.452h176.262L475.069,105.757z"/>
	</g>
</g>
<g>
</g>
<g>
</g>
<g>
</g>
<g>
</g>
<g>
</g>
<g>
</g>
<g>
</g>
<g>
</g>
<g>
</g>
<g>
</g>
<g>
</g>
<g>
</g>
<g>
</g>
<g>
</g>
<g>
</g>
</svg>
