<?xml version="1.0" encoding="iso-8859-1"?>
<!-- Generator: Adobe Illustrator 18.0.0, SVG Export Plug-In . SVG Version: 6.00 Build 0)  -->
<!DOCTYPE svg PUBLIC "-//W3C//DTD SVG 1.1//EN" "http://www.w3.org/Graphics/SVG/1.1/DTD/svg11.dtd">
<svg version="1.1" id="Capa_1" xmlns="http://www.w3.org/2000/svg" xmlns:xlink="http://www.w3.org/1999/xlink" x="0px" y="0px"
	 viewBox="0 0 58 58" style="enable-background:new 0 0 58 58;" xml:space="preserve">
<g>
	<path d="M32,0c-1.021,0-2.026,0.076-3.015,0.21C27.953,0.072,26.972,0,26,0c-4.883,0-9.449,1.572-13.33,4.29
		c-0.001,0.001-0.003,0.002-0.004,0.003c-1.969,1.379-3.758,3.055-5.326,4.97C7.293,9.306,7.258,9.356,7.22,9.407
		c-1.484,1.838-2.76,3.896-3.792,6.122c-0.027,0.05-0.051,0.1-0.07,0.155c-0.71,1.556-1.303,3.191-1.759,4.895
		c-0.045,0.096-0.065,0.201-0.078,0.311C0.861,23.465,0.5,26.185,0.5,29c0,4.403,0.871,8.577,2.422,12.319
		C2.936,41.361,2.95,41.4,2.97,41.439c0.928,2.214,2.097,4.273,3.466,6.136c0.037,0.051,0.067,0.105,0.113,0.148
		c1.389,1.864,2.982,3.524,4.738,4.94c0.051,0.057,0.113,0.099,0.176,0.143C15.59,56.076,20.6,58,26,58
		c0.972,0,1.953-0.072,2.985-0.21C29.974,57.924,30.979,58,32,58c14.061,0,25.5-13.009,25.5-29S46.061,0,32,0z M21.433,2.618
		c-0.326,0.17-0.649,0.347-0.968,0.532c-0.184,0.106-0.369,0.21-0.55,0.321C19.639,3.64,19.369,3.819,19.1,4h-1.925
		c1.462-0.684,2.988-1.223,4.578-1.558C21.644,2.496,21.541,2.562,21.433,2.618z M11.36,46H7.773c-0.882-1.246-1.665-2.585-2.345-4
		h3.788c0.157,0.354,0.318,0.705,0.487,1.051c0.073,0.149,0.149,0.295,0.224,0.442c0.205,0.402,0.418,0.798,0.639,1.188
		c0.082,0.145,0.161,0.292,0.245,0.435C10.989,45.416,11.174,45.708,11.36,46z M4.968,17h3.827
		c-0.175,0.437-0.341,0.879-0.498,1.327c-0.043,0.124-0.087,0.247-0.129,0.371C8.024,19.128,7.89,19.562,7.763,20H3.856
		C4.175,18.969,4.547,17.969,4.968,17z M2.5,29c0-0.674,0.036-1.338,0.078-2h3.987c-0.001,0.016-0.001,0.032-0.002,0.048
		C6.526,27.694,6.5,28.343,6.5,29c0,0.335,0.012,0.667,0.022,1H2.539C2.528,29.666,2.5,29.337,2.5,29z M6.636,32
		c0.038,0.421,0.087,0.838,0.141,1.254c0.004,0.031,0.006,0.062,0.01,0.093C6.861,33.904,6.951,34.454,7.052,35H3.108
		c-0.195-0.982-0.349-1.981-0.448-3H6.636z M7.256,22c-0.026,0.118-0.048,0.238-0.073,0.357c-0.027,0.131-0.055,0.262-0.08,0.394
		c-0.122,0.628-0.23,1.26-0.316,1.902c-0.004,0.031-0.006,0.062-0.01,0.093C6.766,24.83,6.759,24.916,6.748,25H2.779
		c0.132-1.018,0.299-2.022,0.528-3H7.256z M7.495,37c0.031,0.122,0.06,0.246,0.092,0.367c0.012,0.044,0.021,0.09,0.033,0.134
		c0.165,0.609,0.35,1.208,0.548,1.8c0.042,0.125,0.086,0.248,0.129,0.371C8.335,39.782,8.372,39.892,8.411,40H4.558
		c-0.379-0.971-0.705-1.973-0.983-3H7.495z M10.812,12.884c-0.084,0.143-0.163,0.29-0.245,0.435
		c-0.221,0.39-0.434,0.786-0.639,1.188c-0.075,0.147-0.151,0.293-0.224,0.442C9.695,14.966,9.686,14.983,9.677,15H5.929
		c0.757-1.427,1.629-2.762,2.596-4h3.503c-0.122,0.175-0.245,0.349-0.363,0.527C11.37,11.97,11.085,12.422,10.812,12.884z M13.732,6
		h2.763c-0.248,0.217-0.496,0.435-0.736,0.661c-0.202,0.19-0.398,0.388-0.594,0.586c-0.197,0.198-0.392,0.399-0.584,0.604
		c-0.185,0.198-0.371,0.394-0.552,0.598C13.869,8.629,13.716,8.815,13.561,9h-3.302C11.333,7.883,12.492,6.876,13.732,6z M9.324,48
		h3.432c0.113,0.148,0.225,0.296,0.341,0.442c0.302,0.379,0.612,0.749,0.931,1.109c0.18,0.204,0.366,0.4,0.552,0.598
		c0.192,0.205,0.387,0.406,0.584,0.604c0.081,0.081,0.157,0.167,0.239,0.247h-3.008C11.297,50.101,10.27,49.097,9.324,48z
		 M21.753,55.558c-2.293-0.483-4.46-1.369-6.469-2.558h2.419c0.127,0.098,0.258,0.19,0.386,0.286c0.209,0.155,0.417,0.311,0.63,0.46
		c0.392,0.273,0.791,0.535,1.196,0.784c0.181,0.111,0.366,0.214,0.55,0.321c0.319,0.185,0.642,0.362,0.968,0.532
		C21.541,55.438,21.644,55.504,21.753,55.558z M32,56c-0.794,0-1.579-0.047-2.354-0.136l-0.398-0.056
		c-0.049-0.007-0.098-0.015-0.147-0.021c-0.347-0.049-0.692-0.107-1.035-0.173c-0.026-0.005-0.052-0.011-0.079-0.016
		c-0.333-0.066-0.663-0.139-0.991-0.22c-0.046-0.011-0.091-0.025-0.137-0.036c-0.306-0.078-0.611-0.162-0.912-0.254
		c-0.088-0.027-0.174-0.058-0.262-0.086c-0.258-0.082-0.516-0.166-0.77-0.258c-0.2-0.073-0.398-0.153-0.596-0.232
		c-0.14-0.055-0.282-0.107-0.421-0.166c-5.378-2.276-9.838-6.75-12.551-12.469c-0.021-0.043-0.039-0.088-0.06-0.131
		c-0.15-0.32-0.295-0.644-0.434-0.972c-0.051-0.12-0.098-0.243-0.147-0.364c-0.104-0.255-0.206-0.51-0.303-0.769
		c-0.059-0.158-0.115-0.318-0.171-0.477c-0.08-0.227-0.16-0.454-0.235-0.684c-0.059-0.18-0.115-0.362-0.171-0.544
		c-0.066-0.215-0.13-0.43-0.191-0.647c-0.054-0.193-0.106-0.387-0.157-0.582c-0.055-0.212-0.108-0.426-0.159-0.64
		c-0.047-0.2-0.093-0.401-0.136-0.602c-0.046-0.214-0.089-0.43-0.13-0.646c-0.039-0.203-0.078-0.406-0.113-0.611
		c-0.038-0.223-0.072-0.448-0.105-0.674c-0.03-0.2-0.06-0.4-0.086-0.601c-0.031-0.241-0.055-0.484-0.081-0.727
		c-0.02-0.188-0.041-0.376-0.057-0.565c-0.024-0.278-0.04-0.559-0.056-0.84c-0.009-0.157-0.022-0.313-0.029-0.471
		C8.511,29.889,8.5,29.446,8.5,29s0.011-0.889,0.029-1.33c0.007-0.158,0.02-0.314,0.029-0.471c0.016-0.281,0.032-0.561,0.056-0.84
		c0.016-0.189,0.038-0.377,0.057-0.565c0.025-0.243,0.05-0.486,0.081-0.727c0.026-0.201,0.056-0.401,0.086-0.601
		c0.033-0.225,0.067-0.45,0.105-0.674c0.035-0.205,0.074-0.408,0.113-0.611c0.042-0.216,0.084-0.432,0.13-0.646
		c0.043-0.202,0.089-0.402,0.136-0.602c0.051-0.214,0.104-0.428,0.159-0.64c0.051-0.195,0.103-0.389,0.157-0.582
		c0.061-0.217,0.125-0.432,0.191-0.647C9.884,19.882,9.94,19.7,9.999,19.52c0.075-0.23,0.155-0.457,0.235-0.684
		c0.057-0.159,0.112-0.319,0.171-0.477c0.097-0.259,0.199-0.514,0.303-0.769c0.049-0.121,0.097-0.244,0.147-0.364
		c0.139-0.328,0.284-0.652,0.434-0.972c0.02-0.044,0.039-0.088,0.06-0.131C14.062,10.403,18.522,5.93,23.9,3.654
		c0.139-0.058,0.281-0.11,0.421-0.166c0.198-0.079,0.395-0.159,0.596-0.232c0.254-0.092,0.512-0.176,0.77-0.258
		c0.088-0.028,0.174-0.059,0.262-0.086c0.301-0.092,0.606-0.176,0.912-0.254c0.046-0.012,0.091-0.025,0.137-0.036
		c0.328-0.081,0.658-0.154,0.991-0.22c0.026-0.005,0.052-0.011,0.079-0.016c0.342-0.066,0.687-0.124,1.035-0.173
		c0.049-0.007,0.098-0.015,0.147-0.021l0.398-0.056C30.421,2.047,31.206,2,32,2c12.958,0,23.5,12.112,23.5,27S44.958,56,32,56z"/>
	<path d="M39.254,47.753c-0.555,0.285-1.129,0.54-1.706,0.757c-0.517,0.194-0.778,0.771-0.583,1.288
		c0.15,0.401,0.531,0.648,0.936,0.648c0.117,0,0.236-0.021,0.353-0.065c0.648-0.244,1.293-0.53,1.915-0.849
		c0.491-0.252,0.685-0.855,0.433-1.346C40.35,47.695,39.747,47.5,39.254,47.753z"/>
	<path d="M45.022,43.018c-0.399,0.491-0.822,0.963-1.258,1.403c-0.389,0.393-0.385,1.026,0.008,1.415
		c0.195,0.192,0.449,0.289,0.703,0.289c0.258,0,0.516-0.099,0.711-0.297c0.48-0.486,0.947-1.007,1.387-1.547
		c0.349-0.429,0.284-1.059-0.145-1.407C46.001,42.525,45.37,42.591,45.022,43.018z"/>
	<path d="M32,49.524c-0.621,0-1.247-0.037-1.857-0.11c-0.563-0.056-1.047,0.327-1.112,0.875c-0.065,0.548,0.326,1.046,0.874,1.112
		c0.69,0.082,1.396,0.124,2.096,0.124h0.086c0.553,0,0.957-0.448,0.957-1S32.553,49.524,32,49.524z"/>
	<path d="M18.845,12.141c-0.482,0.486-0.95,1.006-1.39,1.544c-0.35,0.428-0.286,1.058,0.142,1.407
		c0.186,0.152,0.41,0.226,0.632,0.226c0.29,0,0.578-0.125,0.775-0.367c0.399-0.489,0.823-0.96,1.261-1.401
		c0.389-0.392,0.387-1.025-0.006-1.414C19.867,11.747,19.234,11.748,18.845,12.141z"/>
	<path d="M50.833,27.968c-0.553,0-1,0.48-1,1.032c0,0.617-0.023,1.235-0.07,1.838c-0.043,0.551,0.369,1.032,0.92,1.074
		c0.026,0.002,0.053,0.003,0.078,0.003c0.518,0,0.955-0.398,0.996-0.923c0.051-0.654,0.076-1.324,0.076-1.993v-0.065
		C51.833,28.383,51.386,27.968,50.833,27.968z"/>
	<path d="M47.729,15.276c-0.387-0.571-0.805-1.13-1.242-1.662c-0.352-0.426-0.98-0.488-1.408-0.137
		c-0.426,0.351-0.487,0.981-0.137,1.408c0.398,0.484,0.779,0.993,1.131,1.513c0.193,0.286,0.509,0.439,0.829,0.439
		c0.193,0,0.388-0.056,0.56-0.172C47.919,16.355,48.039,15.733,47.729,15.276z"/>
	<path d="M49.902,35.782c-0.524-0.178-1.091,0.105-1.267,0.628c-0.202,0.598-0.432,1.193-0.683,1.77
		c-0.221,0.506,0.012,1.096,0.518,1.316c0.13,0.057,0.266,0.083,0.398,0.083c0.387,0,0.754-0.225,0.918-0.601
		c0.273-0.629,0.523-1.278,0.743-1.93C50.707,36.526,50.426,35.958,49.902,35.782z"/>
	<path d="M24.328,10.337c0.153,0,0.309-0.035,0.454-0.109c0.556-0.284,1.131-0.538,1.708-0.753c0.517-0.193,0.779-0.77,0.586-1.287
		c-0.193-0.518-0.766-0.781-1.287-0.586c-0.647,0.242-1.293,0.527-1.917,0.845c-0.491,0.251-0.687,0.854-0.436,1.346
		C23.613,10.139,23.964,10.337,24.328,10.337z"/>
	<path d="M14.855,34.668c-0.134-0.536-0.68-0.863-1.212-0.729c-0.536,0.133-0.862,0.676-0.729,1.212
		c0.166,0.666,0.363,1.333,0.585,1.983c0.142,0.416,0.53,0.677,0.946,0.677c0.107,0,0.216-0.018,0.323-0.054
		c0.522-0.179,0.802-0.747,0.623-1.27C15.188,35.892,15.008,35.28,14.855,34.668z"/>
	<path d="M15.549,18.466c-0.51-0.224-1.096,0.008-1.317,0.514c-0.274,0.626-0.526,1.275-0.748,1.929
		c-0.177,0.523,0.104,1.091,0.626,1.269c0.106,0.036,0.215,0.053,0.321,0.053c0.417,0,0.806-0.263,0.947-0.679
		c0.203-0.6,0.434-1.195,0.686-1.768C16.285,19.277,16.055,18.688,15.549,18.466z"/>
	<path d="M14.167,29.022l-0.001-0.082c0.002-0.604,0.026-1.216,0.074-1.819c0.043-0.551-0.368-1.032-0.919-1.076
		c-0.538-0.037-1.031,0.368-1.075,0.918c-0.053,0.675-0.08,1.36-0.08,2.036l0.004,0.094c0.037,0.518,0.47,0.927,0.997,0.927
		C13.72,30.021,14.167,29.574,14.167,29.022z"/>
	<path d="M17.902,41.567c-0.31-0.457-0.93-0.578-1.389-0.269c-0.457,0.31-0.577,0.931-0.268,1.389
		c0.392,0.579,0.808,1.139,1.238,1.664c0.198,0.241,0.484,0.366,0.774,0.366c0.223,0,0.447-0.074,0.633-0.227
		c0.428-0.351,0.489-0.98,0.14-1.408C18.64,42.606,18.26,42.096,17.902,41.567z"/>
	<path d="M49.135,23.291c0.113,0.454,0.521,0.757,0.969,0.757c0.081,0,0.162-0.01,0.244-0.03c0.536-0.134,0.861-0.677,0.727-1.213
		c-0.167-0.665-0.364-1.332-0.587-1.982c-0.18-0.522-0.749-0.803-1.271-0.621c-0.522,0.179-0.801,0.748-0.622,1.271
		C48.8,22.069,48.981,22.681,49.135,23.291z"/>
	<path d="M24.818,47.791c-0.552-0.28-1.097-0.596-1.618-0.938c-0.462-0.303-1.082-0.172-1.385,0.289
		c-0.302,0.462-0.173,1.082,0.289,1.384c0.583,0.382,1.191,0.734,1.81,1.048c0.145,0.074,0.299,0.108,0.451,0.108
		c0.365,0,0.717-0.2,0.893-0.547C25.508,48.643,25.312,48.041,24.818,47.791z"/>
	<path d="M32,8.476c0.605,0,1.217,0.035,1.817,0.105c0.039,0.005,0.078,0.007,0.116,0.007c0.501,0,0.934-0.375,0.992-0.885
		c0.063-0.548-0.329-1.045-0.878-1.108C33.371,6.516,32.682,6.476,32,6.476h-0.043c-0.553,0-0.979,0.448-0.979,1
		S31.447,8.476,32,8.476z"/>
	<path d="M39.146,10.191c0.551,0.277,1.096,0.591,1.62,0.933c0.169,0.11,0.357,0.162,0.545,0.162c0.327,0,0.647-0.16,0.839-0.454
		c0.302-0.463,0.171-1.083-0.292-1.384c-0.586-0.382-1.195-0.733-1.812-1.043c-0.496-0.25-1.095-0.05-1.343,0.443
		C38.454,9.341,38.652,9.943,39.146,10.191z"/>
	<path d="M42.53,18.457h-6.294c-0.605,0-0.997,0.392-0.997,0.997s0.392,0.997,0.997,0.997l1.739,0.003l-5.681,8.673l-5.652-8.676
		h1.743c0.605,0,0.997-0.392,0.997-0.997s-0.392-0.997-0.997-0.997h-6.294c-0.605,0-0.997,0.392-0.997,0.997
		s0.391,0.997,0.997,0.997h1.988c0.128,0,0.266,0.03,0.395,0.247l6.238,9.765h-3.519c-0.605,0-0.997,0.392-0.997,0.997
		s0.392,0.997,0.997,0.997l4.138-0.004l0.003,1.011h-4.141c-0.605,0-0.997,0.391-0.997,0.996s0.392,0.997,0.997,0.997l4.138-0.003
		l0.003,4.009h-2.319c-0.605,0-0.997,0.392-0.997,0.997s0.391,0.997,0.997,0.997h6.625c0.605,0,0.997-0.392,0.997-0.997
		s-0.392-0.997-0.997-0.997l-2.316,0.004l-0.003-4.01h4.141c0.605,0,0.997-0.392,0.997-0.997s-0.392-0.996-0.997-0.996l-4.138,0.003
		l-0.003-1.01h4.141c0.605,0,0.997-0.392,0.997-0.997s-0.392-0.997-0.997-0.997l-3.558-0.006l6.24-9.752
		c0.133-0.224,0.271-0.254,0.399-0.254h1.987c0.605,0,0.997-0.392,0.997-0.997S43.135,18.457,42.53,18.457z"/>
</g>
<g>
</g>
<g>
</g>
<g>
</g>
<g>
</g>
<g>
</g>
<g>
</g>
<g>
</g>
<g>
</g>
<g>
</g>
<g>
</g>
<g>
</g>
<g>
</g>
<g>
</g>
<g>
</g>
<g>
</g>
</svg>
